<?xml version="1.0" encoding="utf-8" standalone="no"?>
<!DOCTYPE svg PUBLIC "-//W3C//DTD SVG 1.1//EN"
  "http://www.w3.org/Graphics/SVG/1.1/DTD/svg11.dtd">
<svg xmlns:xlink="http://www.w3.org/1999/xlink" width="328.028125pt" height="252.65625pt" viewBox="0 0 328.028125 252.65625" xmlns="http://www.w3.org/2000/svg" version="1.1">
 <metadata>
  <rdf:RDF xmlns:dc="http://purl.org/dc/elements/1.1/" xmlns:cc="http://creativecommons.org/ns#" xmlns:rdf="http://www.w3.org/1999/02/22-rdf-syntax-ns#">
   <cc:Work>
    <dc:type rdf:resource="http://purl.org/dc/dcmitype/StillImage"/>
    <dc:date>1980-01-01T00:00:00+00:00</dc:date>
    <dc:format>image/svg+xml</dc:format>
    <dc:creator>
     <cc:Agent>
      <dc:title>Matplotlib v3.7.5, https://matplotlib.org/</dc:title>
     </cc:Agent>
    </dc:creator>
   </cc:Work>
  </rdf:RDF>
 </metadata>
 <defs>
  <style type="text/css">*{stroke-linejoin: round; stroke-linecap: butt}</style>
 </defs>
 <g id="figure_1">
  <g id="patch_1">
   <path d="M 0 252.65625 
L 328.028125 252.65625 
L 328.028125 0 
L 0 0 
z
" style="fill: #ffffff"/>
  </g>
  <g id="axes_1">
   <g id="patch_2">
    <path d="M 27.878125 215.1 
L 320.828125 215.1 
L 320.828125 7.2 
L 27.878125 7.2 
z
" style="fill: #ffffff"/>
   </g>
   <g id="PolyCollection_1">
    <defs>
     <path id="m3f25be0aaa" d="M 41.194034 -153.2564 
L 41.194034 -153.2564 
L 43.884117 -90.08067 
L 46.574199 -69.742973 
L 49.264282 -60.147044 
L 51.954365 -54.756631 
L 54.644447 -51.529519 
L 57.33453 -49.58422 
L 60.024613 -48.138486 
L 62.714695 -47.60756 
L 65.404778 -47.170821 
L 68.094861 -47.00625 
L 70.784943 -47.042854 
L 73.475026 -47.172011 
L 76.165108 -47.577754 
L 78.855191 -47.995706 
L 81.545274 -48.519428 
L 84.235356 -48.874855 
L 86.925439 -49.607621 
L 89.615522 -50.137575 
L 92.305604 -50.917247 
L 94.995687 -51.590079 
L 97.68577 -52.320022 
L 100.375852 -53.14215 
L 103.065935 -53.928917 
L 105.756018 -54.676056 
L 108.4461 -55.442185 
L 111.136183 -56.261517 
L 113.826265 -57.124282 
L 116.516348 -57.871793 
L 119.206431 -58.717148 
L 121.896513 -59.715899 
L 124.586596 -60.425401 
L 127.276679 -61.299991 
L 129.966761 -62.233232 
L 132.656844 -63.135505 
L 135.346927 -64.002938 
L 138.037009 -64.828561 
L 140.727092 -65.758915 
L 143.417175 -66.601817 
L 146.107257 -67.580146 
L 148.79734 -68.426087 
L 151.487423 -69.365427 
L 154.177505 -70.310097 
L 156.867588 -71.157829 
L 159.55767 -71.970273 
L 162.247753 -72.978162 
L 164.937836 -73.855652 
L 167.627918 -74.825108 
L 170.318001 -75.797169 
L 173.008084 -76.638066 
L 175.698166 -77.550342 
L 178.388249 -78.487549 
L 181.078332 -79.361651 
L 183.768414 -80.29727 
L 186.458497 -81.211172 
L 189.14858 -82.121972 
L 191.838662 -83.016645 
L 194.528745 -83.908627 
L 197.218827 -84.909896 
L 199.90891 -85.774915 
L 202.598993 -86.716975 
L 205.289075 -87.597197 
L 207.979158 -88.601147 
L 210.669241 -89.398329 
L 213.359323 -90.4342 
L 216.049406 -91.358942 
L 218.739489 -92.236193 
L 221.429571 -93.188868 
L 224.119654 -94.035227 
L 226.809737 -95.011215 
L 229.499819 -95.830488 
L 232.189902 -96.835472 
L 234.879985 -97.724552 
L 237.570067 -98.574261 
L 240.26015 -99.434977 
L 242.950232 -100.447621 
L 245.640315 -101.404041 
L 248.330398 -102.341007 
L 251.02048 -103.239408 
L 253.710563 -104.178709 
L 256.400646 -105.076281 
L 259.090728 -105.960912 
L 261.780811 -106.829692 
L 264.470894 -107.793723 
L 267.160976 -108.724597 
L 269.851059 -109.628316 
L 272.541142 -110.510574 
L 275.231224 -111.505668 
L 277.921307 -112.405334 
L 280.611389 -113.304526 
L 283.301472 -114.22894 
L 285.991555 -115.159388 
L 288.681637 -116.066368 
L 291.37172 -116.988031 
L 294.061803 -117.904003 
L 296.751885 -118.806566 
L 299.441968 -119.759522 
L 302.132051 -120.688824 
L 304.822133 -121.641597 
L 307.512216 -122.594771 
L 307.512216 -122.594771 
L 307.512216 -122.594771 
L 304.822133 -121.826515 
L 302.132051 -121.034729 
L 299.441968 -120.206029 
L 296.751885 -119.339867 
L 294.061803 -118.510484 
L 291.37172 -117.645231 
L 288.681637 -116.740884 
L 285.991555 -115.932292 
L 283.301472 -115.044915 
L 280.611389 -114.145315 
L 277.921307 -113.266495 
L 275.231224 -112.430237 
L 272.541142 -111.512017 
L 269.851059 -110.591314 
L 267.160976 -109.736873 
L 264.470894 -108.854483 
L 261.780811 -107.943087 
L 259.090728 -107.020041 
L 256.400646 -106.200802 
L 253.710563 -105.260282 
L 251.02048 -104.411955 
L 248.330398 -103.48176 
L 245.640315 -102.642373 
L 242.950232 -101.706939 
L 240.26015 -100.779277 
L 237.570067 -99.916386 
L 234.879985 -99.090275 
L 232.189902 -98.144875 
L 229.499819 -97.22484 
L 226.809737 -96.304784 
L 224.119654 -95.400088 
L 221.429571 -94.464578 
L 218.739489 -93.61171 
L 216.049406 -92.764431 
L 213.359323 -91.803728 
L 210.669241 -90.854072 
L 207.979158 -89.93038 
L 205.289075 -89.018103 
L 202.598993 -88.140675 
L 199.90891 -87.306838 
L 197.218827 -86.408694 
L 194.528745 -85.4004 
L 191.838662 -84.489502 
L 189.14858 -83.618832 
L 186.458497 -82.67548 
L 183.768414 -81.796802 
L 181.078332 -80.883407 
L 178.388249 -80.025874 
L 175.698166 -78.999828 
L 173.008084 -78.087704 
L 170.318001 -77.198666 
L 167.627918 -76.315422 
L 164.937836 -75.435189 
L 162.247753 -74.465576 
L 159.55767 -73.52355 
L 156.867588 -72.668715 
L 154.177505 -71.73153 
L 151.487423 -70.822606 
L 148.79734 -70.02038 
L 146.107257 -68.977267 
L 143.417175 -68.132463 
L 140.727092 -67.200908 
L 138.037009 -66.315711 
L 135.346927 -65.411431 
L 132.656844 -64.499507 
L 129.966761 -63.629771 
L 127.276679 -62.751008 
L 124.586596 -61.893418 
L 121.896513 -61.078782 
L 119.206431 -60.154061 
L 116.516348 -59.321741 
L 113.826265 -58.533442 
L 111.136183 -57.610056 
L 108.4461 -56.88465 
L 105.756018 -55.943051 
L 103.065935 -55.156999 
L 100.375852 -54.401374 
L 97.68577 -53.690637 
L 94.995687 -52.923486 
L 92.305604 -52.166265 
L 89.615522 -51.559265 
L 86.925439 -50.836404 
L 84.235356 -50.316906 
L 81.545274 -49.805613 
L 78.855191 -49.534989 
L 76.165108 -49.047632 
L 73.475026 -48.838356 
L 70.784943 -48.530003 
L 68.094861 -48.586153 
L 65.404778 -49.201316 
L 62.714695 -49.836411 
L 60.024613 -50.36085 
L 57.33453 -52.060054 
L 54.644447 -54.764469 
L 51.954365 -58.896504 
L 49.264282 -65.866934 
L 46.574199 -79.090456 
L 43.884117 -102.833201 
L 41.194034 -153.2564 
z
" style="stroke: #ffa500; stroke-opacity: 0.2"/>
    </defs>
    <g clip-path="url(#p3329e4aafd)">
     <use xlink:href="#m3f25be0aaa" x="0" y="252.65625" style="fill: #ffa500; fill-opacity: 0.2; stroke: #ffa500; stroke-opacity: 0.2"/>
    </g>
   </g>
   <g id="PolyCollection_2">
    <defs>
     <path id="mc01c66a4c6" d="M 41.194034 -236.00625 
L 41.194034 -236.00625 
L 43.884117 -132.616891 
L 46.574199 -99.56043 
L 49.264282 -84.087192 
L 51.954365 -75.647245 
L 54.644447 -70.723942 
L 57.33453 -67.81015 
L 60.024613 -66.152304 
L 62.714695 -65.331753 
L 65.404778 -65.09731 
L 68.094861 -65.289127 
L 70.784943 -65.800639 
L 73.475026 -66.55807 
L 76.165108 -67.508724 
L 78.855191 -68.613955 
L 81.545274 -69.844781 
L 84.235356 -71.179037 
L 86.925439 -72.599486 
L 89.615522 -74.092517 
L 92.305604 -75.647245 
L 94.995687 -77.254854 
L 97.68577 -78.908134 
L 100.375852 -80.601127 
L 103.065935 -82.32887 
L 105.756018 -84.087192 
L 108.4461 -85.872566 
L 111.136183 -87.681985 
L 113.826265 -89.512873 
L 116.516348 -91.363009 
L 119.206431 -93.230469 
L 121.896513 -95.113576 
L 124.586596 -97.010862 
L 127.276679 -98.92104 
L 129.966761 -100.842971 
L 132.656844 -102.775648 
L 135.346927 -104.718175 
L 138.037009 -106.669755 
L 140.727092 -108.629672 
L 143.417175 -110.597284 
L 146.107257 -112.572016 
L 148.79734 -114.553345 
L 151.487423 -116.540801 
L 154.177505 -118.533955 
L 156.867588 -120.532421 
L 159.55767 -122.535843 
L 162.247753 -124.543898 
L 164.937836 -126.556291 
L 167.627918 -128.57275 
L 170.318001 -130.593026 
L 173.008084 -132.616891 
L 175.698166 -134.644134 
L 178.388249 -136.674558 
L 181.078332 -138.707986 
L 183.768414 -140.744248 
L 186.458497 -142.783192 
L 189.14858 -144.824673 
L 191.838662 -146.868557 
L 194.528745 -148.914721 
L 197.218827 -150.963049 
L 199.90891 -153.013431 
L 202.598993 -155.065768 
L 205.289075 -157.119965 
L 207.979158 -159.175933 
L 210.669241 -161.233589 
L 213.359323 -163.292855 
L 216.049406 -165.353658 
L 218.739489 -167.415929 
L 221.429571 -169.479604 
L 224.119654 -171.544621 
L 226.809737 -173.610923 
L 229.499819 -175.678455 
L 232.189902 -177.747167 
L 234.879985 -179.817009 
L 237.570067 -181.887937 
L 240.26015 -183.959906 
L 242.950232 -186.032876 
L 245.640315 -188.106807 
L 248.330398 -190.181662 
L 251.02048 -192.257407 
L 253.710563 -194.334008 
L 256.400646 -196.411434 
L 259.090728 -198.489653 
L 261.780811 -200.568638 
L 264.470894 -202.648362 
L 267.160976 -204.728797 
L 269.851059 -206.809919 
L 272.541142 -208.891706 
L 275.231224 -210.974133 
L 277.921307 -213.057179 
L 280.611389 -215.140824 
L 283.301472 -217.225048 
L 285.991555 -219.309832 
L 288.681637 -221.395158 
L 291.37172 -223.481009 
L 294.061803 -225.567367 
L 296.751885 -227.654218 
L 299.441968 -229.741547 
L 302.132051 -231.829337 
L 304.822133 -233.917576 
L 307.512216 -236.00625 
L 307.512216 -236.00625 
L 307.512216 -236.00625 
L 304.822133 -233.917576 
L 302.132051 -231.829337 
L 299.441968 -229.741547 
L 296.751885 -227.654218 
L 294.061803 -225.567367 
L 291.37172 -223.481009 
L 288.681637 -221.395158 
L 285.991555 -219.309832 
L 283.301472 -217.225048 
L 280.611389 -215.140824 
L 277.921307 -213.057179 
L 275.231224 -210.974133 
L 272.541142 -208.891706 
L 269.851059 -206.809919 
L 267.160976 -204.728797 
L 264.470894 -202.648362 
L 261.780811 -200.568638 
L 259.090728 -198.489653 
L 256.400646 -196.411434 
L 253.710563 -194.334008 
L 251.02048 -192.257407 
L 248.330398 -190.181662 
L 245.640315 -188.106807 
L 242.950232 -186.032876 
L 240.26015 -183.959906 
L 237.570067 -181.887937 
L 234.879985 -179.817009 
L 232.189902 -177.747167 
L 229.499819 -175.678455 
L 226.809737 -173.610923 
L 224.119654 -171.544621 
L 221.429571 -169.479604 
L 218.739489 -167.415929 
L 216.049406 -165.353658 
L 213.359323 -163.292855 
L 210.669241 -161.233589 
L 207.979158 -159.175933 
L 205.289075 -157.119965 
L 202.598993 -155.065768 
L 199.90891 -153.013431 
L 197.218827 -150.963049 
L 194.528745 -148.914721 
L 191.838662 -146.868557 
L 189.14858 -144.824673 
L 186.458497 -142.783192 
L 183.768414 -140.744248 
L 181.078332 -138.707986 
L 178.388249 -136.674558 
L 175.698166 -134.644134 
L 173.008084 -132.616891 
L 170.318001 -130.593026 
L 167.627918 -128.57275 
L 164.937836 -126.556291 
L 162.247753 -124.543898 
L 159.55767 -122.535843 
L 156.867588 -120.532421 
L 154.177505 -118.533955 
L 151.487423 -116.540801 
L 148.79734 -114.553345 
L 146.107257 -112.572016 
L 143.417175 -110.597284 
L 140.727092 -108.629672 
L 138.037009 -106.669755 
L 135.346927 -104.718175 
L 132.656844 -102.775648 
L 129.966761 -100.842971 
L 127.276679 -98.92104 
L 124.586596 -97.010862 
L 121.896513 -95.113576 
L 119.206431 -93.230469 
L 116.516348 -91.363009 
L 113.826265 -89.512873 
L 111.136183 -87.681985 
L 108.4461 -85.872566 
L 105.756018 -84.087192 
L 103.065935 -82.32887 
L 100.375852 -80.601127 
L 97.68577 -78.908134 
L 94.995687 -77.254854 
L 92.305604 -75.647245 
L 89.615522 -74.092517 
L 86.925439 -72.599486 
L 84.235356 -71.179037 
L 81.545274 -69.844781 
L 78.855191 -68.613955 
L 76.165108 -67.508724 
L 73.475026 -66.55807 
L 70.784943 -65.800639 
L 68.094861 -65.289127 
L 65.404778 -65.09731 
L 62.714695 -65.331753 
L 60.024613 -66.152304 
L 57.33453 -67.81015 
L 54.644447 -70.723942 
L 51.954365 -75.647245 
L 49.264282 -84.087192 
L 46.574199 -99.56043 
L 43.884117 -132.616891 
L 41.194034 -236.00625 
z
" style="stroke: #00ffff; stroke-opacity: 0.2"/>
    </defs>
    <g clip-path="url(#p3329e4aafd)">
     <use xlink:href="#mc01c66a4c6" x="0" y="252.65625" style="fill: #00ffff; fill-opacity: 0.2; stroke: #00ffff; stroke-opacity: 0.2"/>
    </g>
   </g>
   <g id="matplotlib.axis_1">
    <g id="xtick_1">
     <g id="line2d_1">
      <defs>
       <path id="m3df3dec33e" d="M 0 0 
L 0 3.5 
" style="stroke: #000000; stroke-width: 0.8"/>
      </defs>
      <g>
       <use xlink:href="#m3df3dec33e" x="38.503951" y="215.1" style="stroke: #000000; stroke-width: 0.8"/>
      </g>
     </g>
     <g id="text_1">
      <!-- 0 -->
      <g transform="translate(35.322701 229.698438) scale(0.1 -0.1)">
       <defs>
        <path id="DejaVuSans-30" d="M 2034 4250 
Q 1547 4250 1301 3770 
Q 1056 3291 1056 2328 
Q 1056 1369 1301 889 
Q 1547 409 2034 409 
Q 2525 409 2770 889 
Q 3016 1369 3016 2328 
Q 3016 3291 2770 3770 
Q 2525 4250 2034 4250 
z
M 2034 4750 
Q 2819 4750 3233 4129 
Q 3647 3509 3647 2328 
Q 3647 1150 3233 529 
Q 2819 -91 2034 -91 
Q 1250 -91 836 529 
Q 422 1150 422 2328 
Q 422 3509 836 4129 
Q 1250 4750 2034 4750 
z
" transform="scale(0.015625)"/>
       </defs>
       <use xlink:href="#DejaVuSans-30"/>
      </g>
     </g>
    </g>
    <g id="xtick_2">
     <g id="line2d_2">
      <g>
       <use xlink:href="#m3df3dec33e" x="65.404778" y="215.1" style="stroke: #000000; stroke-width: 0.8"/>
      </g>
     </g>
     <g id="text_2">
      <!-- $m_{opt}$ -->
      <g transform="translate(54.654778 228.678125) scale(0.1 -0.1)">
       <defs>
        <path id="DejaVuSans-Oblique-6d" d="M 5747 2113 
L 5338 0 
L 4763 0 
L 5166 2094 
Q 5191 2228 5203 2325 
Q 5216 2422 5216 2491 
Q 5216 2772 5059 2928 
Q 4903 3084 4622 3084 
Q 4203 3084 3875 2770 
Q 3547 2456 3450 1953 
L 3066 0 
L 2491 0 
L 2900 2094 
Q 2925 2209 2937 2307 
Q 2950 2406 2950 2484 
Q 2950 2769 2794 2926 
Q 2638 3084 2363 3084 
Q 1938 3084 1609 2770 
Q 1281 2456 1184 1953 
L 800 0 
L 225 0 
L 909 3500 
L 1484 3500 
L 1375 2956 
Q 1609 3263 1923 3423 
Q 2238 3584 2597 3584 
Q 2978 3584 3223 3384 
Q 3469 3184 3519 2828 
Q 3781 3197 4126 3390 
Q 4472 3584 4856 3584 
Q 5306 3584 5551 3325 
Q 5797 3066 5797 2591 
Q 5797 2488 5784 2364 
Q 5772 2241 5747 2113 
z
" transform="scale(0.015625)"/>
        <path id="DejaVuSans-Oblique-6f" d="M 1625 -91 
Q 1009 -91 651 289 
Q 294 669 294 1325 
Q 294 1706 417 2101 
Q 541 2497 738 2766 
Q 1047 3184 1428 3384 
Q 1809 3584 2291 3584 
Q 2888 3584 3255 3212 
Q 3622 2841 3622 2241 
Q 3622 1825 3500 1412 
Q 3378 1000 3181 728 
Q 2875 309 2494 109 
Q 2113 -91 1625 -91 
z
M 891 1344 
Q 891 869 1089 633 
Q 1288 397 1691 397 
Q 2269 397 2648 901 
Q 3028 1406 3028 2181 
Q 3028 2634 2825 2865 
Q 2622 3097 2228 3097 
Q 1903 3097 1650 2945 
Q 1397 2794 1197 2484 
Q 1050 2253 970 1956 
Q 891 1659 891 1344 
z
" transform="scale(0.015625)"/>
        <path id="DejaVuSans-Oblique-70" d="M 3175 2156 
Q 3175 2616 2975 2859 
Q 2775 3103 2400 3103 
Q 2144 3103 1911 2972 
Q 1678 2841 1497 2591 
Q 1319 2344 1212 1994 
Q 1106 1644 1106 1300 
Q 1106 863 1306 627 
Q 1506 391 1875 391 
Q 2147 391 2380 519 
Q 2613 647 2778 891 
Q 2956 1147 3065 1494 
Q 3175 1841 3175 2156 
z
M 1394 2969 
Q 1625 3272 1939 3428 
Q 2253 3584 2638 3584 
Q 3175 3584 3472 3232 
Q 3769 2881 3769 2247 
Q 3769 1728 3584 1258 
Q 3400 788 3053 416 
Q 2822 169 2531 39 
Q 2241 -91 1919 -91 
Q 1547 -91 1294 64 
Q 1041 219 916 525 
L 556 -1331 
L -19 -1331 
L 922 3500 
L 1497 3500 
L 1394 2969 
z
" transform="scale(0.015625)"/>
        <path id="DejaVuSans-Oblique-74" d="M 2706 3500 
L 2619 3053 
L 1472 3053 
L 1100 1153 
Q 1081 1047 1072 975 
Q 1063 903 1063 863 
Q 1063 663 1183 572 
Q 1303 481 1569 481 
L 2150 481 
L 2053 0 
L 1503 0 
Q 991 0 739 200 
Q 488 400 488 806 
Q 488 878 497 964 
Q 506 1050 525 1153 
L 897 3053 
L 409 3053 
L 500 3500 
L 978 3500 
L 1172 4494 
L 1747 4494 
L 1556 3500 
L 2706 3500 
z
" transform="scale(0.015625)"/>
       </defs>
       <use xlink:href="#DejaVuSans-Oblique-6d"/>
       <use xlink:href="#DejaVuSans-Oblique-6f" transform="translate(97.412109 -16.40625) scale(0.7)"/>
       <use xlink:href="#DejaVuSans-Oblique-70" transform="translate(140.239258 -16.40625) scale(0.7)"/>
       <use xlink:href="#DejaVuSans-Oblique-74" transform="translate(184.672852 -16.40625) scale(0.7)"/>
      </g>
     </g>
    </g>
    <g id="xtick_3">
     <g id="line2d_3">
      <g>
       <use xlink:href="#m3df3dec33e" x="307.512216" y="215.1" style="stroke: #000000; stroke-width: 0.8"/>
      </g>
     </g>
     <g id="text_3">
      <!-- N -->
      <g transform="translate(303.771591 229.698438) scale(0.1 -0.1)">
       <defs>
        <path id="DejaVuSans-4e" d="M 628 4666 
L 1478 4666 
L 3547 763 
L 3547 4666 
L 4159 4666 
L 4159 0 
L 3309 0 
L 1241 3903 
L 1241 0 
L 628 0 
L 628 4666 
z
" transform="scale(0.015625)"/>
       </defs>
       <use xlink:href="#DejaVuSans-4e"/>
      </g>
     </g>
    </g>
    <g id="text_4">
     <!-- Sample Size -->
     <g transform="translate(143.751563 243.376563) scale(0.1 -0.1)">
      <defs>
       <path id="DejaVuSans-53" d="M 3425 4513 
L 3425 3897 
Q 3066 4069 2747 4153 
Q 2428 4238 2131 4238 
Q 1616 4238 1336 4038 
Q 1056 3838 1056 3469 
Q 1056 3159 1242 3001 
Q 1428 2844 1947 2747 
L 2328 2669 
Q 3034 2534 3370 2195 
Q 3706 1856 3706 1288 
Q 3706 609 3251 259 
Q 2797 -91 1919 -91 
Q 1588 -91 1214 -16 
Q 841 59 441 206 
L 441 856 
Q 825 641 1194 531 
Q 1563 422 1919 422 
Q 2459 422 2753 634 
Q 3047 847 3047 1241 
Q 3047 1584 2836 1778 
Q 2625 1972 2144 2069 
L 1759 2144 
Q 1053 2284 737 2584 
Q 422 2884 422 3419 
Q 422 4038 858 4394 
Q 1294 4750 2059 4750 
Q 2388 4750 2728 4690 
Q 3069 4631 3425 4513 
z
" transform="scale(0.015625)"/>
       <path id="DejaVuSans-61" d="M 2194 1759 
Q 1497 1759 1228 1600 
Q 959 1441 959 1056 
Q 959 750 1161 570 
Q 1363 391 1709 391 
Q 2188 391 2477 730 
Q 2766 1069 2766 1631 
L 2766 1759 
L 2194 1759 
z
M 3341 1997 
L 3341 0 
L 2766 0 
L 2766 531 
Q 2569 213 2275 61 
Q 1981 -91 1556 -91 
Q 1019 -91 701 211 
Q 384 513 384 1019 
Q 384 1609 779 1909 
Q 1175 2209 1959 2209 
L 2766 2209 
L 2766 2266 
Q 2766 2663 2505 2880 
Q 2244 3097 1772 3097 
Q 1472 3097 1187 3025 
Q 903 2953 641 2809 
L 641 3341 
Q 956 3463 1253 3523 
Q 1550 3584 1831 3584 
Q 2591 3584 2966 3190 
Q 3341 2797 3341 1997 
z
" transform="scale(0.015625)"/>
       <path id="DejaVuSans-6d" d="M 3328 2828 
Q 3544 3216 3844 3400 
Q 4144 3584 4550 3584 
Q 5097 3584 5394 3201 
Q 5691 2819 5691 2113 
L 5691 0 
L 5113 0 
L 5113 2094 
Q 5113 2597 4934 2840 
Q 4756 3084 4391 3084 
Q 3944 3084 3684 2787 
Q 3425 2491 3425 1978 
L 3425 0 
L 2847 0 
L 2847 2094 
Q 2847 2600 2669 2842 
Q 2491 3084 2119 3084 
Q 1678 3084 1418 2786 
Q 1159 2488 1159 1978 
L 1159 0 
L 581 0 
L 581 3500 
L 1159 3500 
L 1159 2956 
Q 1356 3278 1631 3431 
Q 1906 3584 2284 3584 
Q 2666 3584 2933 3390 
Q 3200 3197 3328 2828 
z
" transform="scale(0.015625)"/>
       <path id="DejaVuSans-70" d="M 1159 525 
L 1159 -1331 
L 581 -1331 
L 581 3500 
L 1159 3500 
L 1159 2969 
Q 1341 3281 1617 3432 
Q 1894 3584 2278 3584 
Q 2916 3584 3314 3078 
Q 3713 2572 3713 1747 
Q 3713 922 3314 415 
Q 2916 -91 2278 -91 
Q 1894 -91 1617 61 
Q 1341 213 1159 525 
z
M 3116 1747 
Q 3116 2381 2855 2742 
Q 2594 3103 2138 3103 
Q 1681 3103 1420 2742 
Q 1159 2381 1159 1747 
Q 1159 1113 1420 752 
Q 1681 391 2138 391 
Q 2594 391 2855 752 
Q 3116 1113 3116 1747 
z
" transform="scale(0.015625)"/>
       <path id="DejaVuSans-6c" d="M 603 4863 
L 1178 4863 
L 1178 0 
L 603 0 
L 603 4863 
z
" transform="scale(0.015625)"/>
       <path id="DejaVuSans-65" d="M 3597 1894 
L 3597 1613 
L 953 1613 
Q 991 1019 1311 708 
Q 1631 397 2203 397 
Q 2534 397 2845 478 
Q 3156 559 3463 722 
L 3463 178 
Q 3153 47 2828 -22 
Q 2503 -91 2169 -91 
Q 1331 -91 842 396 
Q 353 884 353 1716 
Q 353 2575 817 3079 
Q 1281 3584 2069 3584 
Q 2775 3584 3186 3129 
Q 3597 2675 3597 1894 
z
M 3022 2063 
Q 3016 2534 2758 2815 
Q 2500 3097 2075 3097 
Q 1594 3097 1305 2825 
Q 1016 2553 972 2059 
L 3022 2063 
z
" transform="scale(0.015625)"/>
       <path id="DejaVuSans-20" transform="scale(0.015625)"/>
       <path id="DejaVuSans-69" d="M 603 3500 
L 1178 3500 
L 1178 0 
L 603 0 
L 603 3500 
z
M 603 4863 
L 1178 4863 
L 1178 4134 
L 603 4134 
L 603 4863 
z
" transform="scale(0.015625)"/>
       <path id="DejaVuSans-7a" d="M 353 3500 
L 3084 3500 
L 3084 2975 
L 922 459 
L 3084 459 
L 3084 0 
L 275 0 
L 275 525 
L 2438 3041 
L 353 3041 
L 353 3500 
z
" transform="scale(0.015625)"/>
      </defs>
      <use xlink:href="#DejaVuSans-53"/>
      <use xlink:href="#DejaVuSans-61" x="63.476562"/>
      <use xlink:href="#DejaVuSans-6d" x="124.755859"/>
      <use xlink:href="#DejaVuSans-70" x="222.167969"/>
      <use xlink:href="#DejaVuSans-6c" x="285.644531"/>
      <use xlink:href="#DejaVuSans-65" x="313.427734"/>
      <use xlink:href="#DejaVuSans-20" x="374.951172"/>
      <use xlink:href="#DejaVuSans-53" x="406.738281"/>
      <use xlink:href="#DejaVuSans-69" x="470.214844"/>
      <use xlink:href="#DejaVuSans-7a" x="497.998047"/>
      <use xlink:href="#DejaVuSans-65" x="550.488281"/>
     </g>
    </g>
   </g>
   <g id="matplotlib.axis_2">
    <g id="ytick_1"/>
    <g id="ytick_2"/>
    <g id="ytick_3"/>
    <g id="ytick_4"/>
    <g id="ytick_5"/>
    <g id="ytick_6"/>
    <g id="ytick_7"/>
    <g id="ytick_8"/>
    <g id="text_5">
     <!-- error -->
     <g transform="translate(14.798438 123.252344) rotate(-90) scale(0.1 -0.1)">
      <defs>
       <path id="DejaVuSans-72" d="M 2631 2963 
Q 2534 3019 2420 3045 
Q 2306 3072 2169 3072 
Q 1681 3072 1420 2755 
Q 1159 2438 1159 1844 
L 1159 0 
L 581 0 
L 581 3500 
L 1159 3500 
L 1159 2956 
Q 1341 3275 1631 3429 
Q 1922 3584 2338 3584 
Q 2397 3584 2469 3576 
Q 2541 3569 2628 3553 
L 2631 2963 
z
" transform="scale(0.015625)"/>
       <path id="DejaVuSans-6f" d="M 1959 3097 
Q 1497 3097 1228 2736 
Q 959 2375 959 1747 
Q 959 1119 1226 758 
Q 1494 397 1959 397 
Q 2419 397 2687 759 
Q 2956 1122 2956 1747 
Q 2956 2369 2687 2733 
Q 2419 3097 1959 3097 
z
M 1959 3584 
Q 2709 3584 3137 3096 
Q 3566 2609 3566 1747 
Q 3566 888 3137 398 
Q 2709 -91 1959 -91 
Q 1206 -91 779 398 
Q 353 888 353 1747 
Q 353 2609 779 3096 
Q 1206 3584 1959 3584 
z
" transform="scale(0.015625)"/>
      </defs>
      <use xlink:href="#DejaVuSans-65"/>
      <use xlink:href="#DejaVuSans-72" x="61.523438"/>
      <use xlink:href="#DejaVuSans-72" x="100.886719"/>
      <use xlink:href="#DejaVuSans-6f" x="139.75"/>
      <use xlink:href="#DejaVuSans-72" x="200.931641"/>
     </g>
    </g>
   </g>
   <g id="line2d_4">
    <path d="M 41.194034 99.39985 
L 43.884117 161.428647 
L 46.574199 181.81052 
L 49.264282 191.558944 
L 51.954365 197.016918 
L 54.644447 200.316378 
L 57.33453 202.369774 
L 60.024613 203.657788 
L 62.714695 204.431916 
L 65.404778 204.841564 
L 68.094861 204.987104 
L 70.784943 204.938735 
L 73.475026 204.744024 
L 76.165108 204.426978 
L 78.855191 204.015227 
L 81.545274 203.532166 
L 84.235356 202.984687 
L 86.925439 202.384158 
L 89.615522 201.742657 
L 92.305604 201.068642 
L 94.995687 200.360234 
L 97.68577 199.624317 
L 100.375852 198.866665 
L 103.065935 198.089698 
L 105.756018 197.299719 
L 108.4461 196.490689 
L 111.136183 195.672206 
L 113.826265 194.841773 
L 116.516348 193.998104 
L 119.206431 193.150965 
L 121.896513 192.290865 
L 124.586596 191.426211 
L 127.276679 190.557136 
L 129.966761 189.678819 
L 132.656844 188.796586 
L 135.346927 187.913947 
L 138.037009 187.02515 
L 140.727092 186.130472 
L 143.417175 185.23748 
L 146.107257 184.338228 
L 148.79734 183.437484 
L 151.487423 182.53576 
L 154.177505 181.634941 
L 156.867588 180.727306 
L 159.55767 179.821926 
L 162.247753 178.910834 
L 164.937836 178.004129 
L 167.627918 177.094181 
L 170.318001 176.182313 
L 173.008084 175.272143 
L 175.698166 174.356062 
L 178.388249 173.445053 
L 181.078332 172.534358 
L 183.768414 171.619776 
L 186.458497 170.707264 
L 189.14858 169.791777 
L 191.838662 168.880086 
L 194.528745 167.967039 
L 197.218827 167.054316 
L 199.90891 166.141804 
L 202.598993 165.228319 
L 205.289075 164.316774 
L 207.979158 163.405583 
L 210.669241 162.493562 
L 213.359323 161.582127 
L 216.049406 160.669528 
L 218.739489 159.760601 
L 221.429571 158.851437 
L 224.119654 157.941316 
L 226.809737 157.030556 
L 229.499819 156.123364 
L 232.189902 155.215573 
L 234.879985 154.307961 
L 237.570067 153.400136 
L 240.26015 152.493528 
L 242.950232 151.590786 
L 245.640315 150.684946 
L 248.330398 149.781335 
L 251.02048 148.876173 
L 253.710563 147.975258 
L 256.400646 147.07011 
L 259.090728 146.167448 
L 261.780811 145.266872 
L 264.470894 144.367716 
L 267.160976 143.467995 
L 269.851059 142.568907 
L 272.541142 141.671194 
L 275.231224 140.774227 
L 277.921307 139.87567 
L 280.611389 138.979945 
L 283.301472 138.085737 
L 285.991555 137.190264 
L 288.681637 136.296911 
L 291.37172 135.404462 
L 294.061803 134.511897 
L 296.751885 133.619759 
L 299.441968 132.729648 
L 302.132051 131.838785 
L 304.822133 130.949766 
L 307.512216 130.061479 
" clip-path="url(#p3329e4aafd)" style="fill: none; stroke: #ffa500; stroke-width: 1.5; stroke-linecap: square"/>
   </g>
   <g id="line2d_5">
    <path d="M 41.194034 16.65 
L 43.884117 120.039359 
L 46.574199 153.09582 
L 49.264282 168.569058 
L 51.954365 177.009005 
L 54.644447 181.932308 
L 57.33453 184.8461 
L 60.024613 186.503946 
L 62.714695 187.324497 
L 65.404778 187.55894 
L 68.094861 187.367123 
L 70.784943 186.855611 
L 73.475026 186.09818 
L 76.165108 185.147526 
L 78.855191 184.042295 
L 81.545274 182.811469 
L 84.235356 181.477213 
L 86.925439 180.056764 
L 89.615522 178.563733 
L 92.305604 177.009005 
L 94.995687 175.401396 
L 97.68577 173.748116 
L 100.375852 172.055123 
L 103.065935 170.32738 
L 105.756018 168.569058 
L 108.4461 166.783684 
L 111.136183 164.974265 
L 113.826265 163.143377 
L 116.516348 161.293241 
L 119.206431 159.425781 
L 121.896513 157.542674 
L 124.586596 155.645388 
L 127.276679 153.73521 
L 129.966761 151.813279 
L 132.656844 149.880602 
L 135.346927 147.938075 
L 138.037009 145.986495 
L 140.727092 144.026578 
L 143.417175 142.058966 
L 146.107257 140.084234 
L 148.79734 138.102905 
L 151.487423 136.115449 
L 154.177505 134.122295 
L 156.867588 132.123829 
L 159.55767 130.120407 
L 162.247753 128.112352 
L 164.937836 126.099959 
L 167.627918 124.0835 
L 170.318001 122.063224 
L 173.008084 120.039359 
L 175.698166 118.012116 
L 178.388249 115.981692 
L 181.078332 113.948264 
L 183.768414 111.912002 
L 186.458497 109.873058 
L 189.14858 107.831577 
L 191.838662 105.787693 
L 194.528745 103.741529 
L 197.218827 101.693201 
L 199.90891 99.642819 
L 202.598993 97.590482 
L 205.289075 95.536285 
L 207.979158 93.480317 
L 210.669241 91.422661 
L 213.359323 89.363395 
L 216.049406 87.302592 
L 218.739489 85.240321 
L 221.429571 83.176646 
L 224.119654 81.111629 
L 226.809737 79.045327 
L 229.499819 76.977795 
L 232.189902 74.909083 
L 234.879985 72.839241 
L 237.570067 70.768313 
L 240.26015 68.696344 
L 242.950232 66.623374 
L 245.640315 64.549443 
L 248.330398 62.474588 
L 251.02048 60.398843 
L 253.710563 58.322242 
L 256.400646 56.244816 
L 259.090728 54.166597 
L 261.780811 52.087612 
L 264.470894 50.007888 
L 267.160976 47.927453 
L 269.851059 45.846331 
L 272.541142 43.764544 
L 275.231224 41.682117 
L 277.921307 39.599071 
L 280.611389 37.515426 
L 283.301472 35.431202 
L 285.991555 33.346418 
L 288.681637 31.261092 
L 291.37172 29.175241 
L 294.061803 27.088883 
L 296.751885 25.002032 
L 299.441968 22.914703 
L 302.132051 20.826913 
L 304.822133 18.738674 
L 307.512216 16.65 
" clip-path="url(#p3329e4aafd)" style="fill: none; stroke: #00ffff; stroke-width: 1.5; stroke-linecap: square"/>
   </g>
   <g id="line2d_6"/>
   <g id="line2d_7"/>
   <g id="line2d_8">
    <path d="M 27.878125 130.061479 
L 320.828125 130.061479 
" clip-path="url(#p3329e4aafd)" style="fill: none; stroke-dasharray: 5.55,2.4; stroke-dashoffset: 0; stroke: #ffa500; stroke-width: 1.5"/>
   </g>
   <g id="line2d_9">
    <path d="M 27.878125 187.55894 
L 320.828125 187.55894 
" clip-path="url(#p3329e4aafd)" style="fill: none; stroke-dasharray: 5.55,2.4; stroke-dashoffset: 0; stroke: #00ffff; stroke-width: 1.5"/>
   </g>
   <g id="line2d_10">
    <path d="M 27.878125 205.65 
L 320.828125 205.65 
" clip-path="url(#p3329e4aafd)" style="fill: none; stroke-dasharray: 5.55,2.4; stroke-dashoffset: 0; stroke: #ffa500; stroke-width: 1.5"/>
   </g>
   <g id="patch_3">
    <path d="M 27.878125 215.1 
L 27.878125 7.2 
" style="fill: none; stroke: #000000; stroke-width: 0.8; stroke-linejoin: miter; stroke-linecap: square"/>
   </g>
   <g id="patch_4">
    <path d="M 320.828125 215.1 
L 320.828125 7.2 
" style="fill: none; stroke: #000000; stroke-width: 0.8; stroke-linejoin: miter; stroke-linecap: square"/>
   </g>
   <g id="patch_5">
    <path d="M 27.878125 215.1 
L 320.828125 215.1 
" style="fill: none; stroke: #000000; stroke-width: 0.8; stroke-linejoin: miter; stroke-linecap: square"/>
   </g>
   <g id="patch_6">
    <path d="M 27.878125 7.2 
L 320.828125 7.2 
" style="fill: none; stroke: #000000; stroke-width: 0.8; stroke-linejoin: miter; stroke-linecap: square"/>
   </g>
   <g id="patch_7">
    <path d="M 65.404778 133.176343 
Q 65.404778 158.807621 65.404778 184.438899 
" style="fill: none; stroke: #000000; stroke-linecap: round"/>
    <path d="M 63.404778 137.176343 
L 65.404778 133.176343 
L 67.404778 137.176343 
" style="fill: none; stroke: #000000; stroke-linecap: round"/>
    <path d="M 67.404778 180.438899 
L 65.404778 184.438899 
L 63.404778 180.438899 
" style="fill: none; stroke: #000000; stroke-linecap: round"/>
   </g>
   <g id="patch_8">
    <path d="M 307.512216 133.177183 
Q 307.512216 167.855187 307.512216 202.533191 
" style="fill: none; stroke: #000000; stroke-linecap: round"/>
    <path d="M 305.512216 137.177183 
L 307.512216 133.177183 
L 309.512216 137.177183 
" style="fill: none; stroke: #000000; stroke-linecap: round"/>
    <path d="M 309.512216 198.533191 
L 307.512216 202.533191 
L 305.512216 198.533191 
" style="fill: none; stroke: #000000; stroke-linecap: round"/>
   </g>
   <g id="text_6">
    <!-- $\Delta_{2}(\mathcal{N}, \mathcal{S})$ -->
    <g transform="translate(264.470894 167.85574) scale(0.1 -0.1)">
     <defs>
      <path id="DejaVuSans-394" d="M 2188 4044 
L 906 525 
L 3472 525 
L 2188 4044 
z
M 50 0 
L 1831 4666 
L 2547 4666 
L 4325 0 
L 50 0 
z
" transform="scale(0.015625)"/>
      <path id="DejaVuSans-32" d="M 1228 531 
L 3431 531 
L 3431 0 
L 469 0 
L 469 531 
Q 828 903 1448 1529 
Q 2069 2156 2228 2338 
Q 2531 2678 2651 2914 
Q 2772 3150 2772 3378 
Q 2772 3750 2511 3984 
Q 2250 4219 1831 4219 
Q 1534 4219 1204 4116 
Q 875 4013 500 3803 
L 500 4441 
Q 881 4594 1212 4672 
Q 1544 4750 1819 4750 
Q 2544 4750 2975 4387 
Q 3406 4025 3406 3419 
Q 3406 3131 3298 2873 
Q 3191 2616 2906 2266 
Q 2828 2175 2409 1742 
Q 1991 1309 1228 531 
z
" transform="scale(0.015625)"/>
      <path id="DejaVuSans-28" d="M 1984 4856 
Q 1566 4138 1362 3434 
Q 1159 2731 1159 2009 
Q 1159 1288 1364 580 
Q 1569 -128 1984 -844 
L 1484 -844 
Q 1016 -109 783 600 
Q 550 1309 550 2009 
Q 550 2706 781 3412 
Q 1013 4119 1484 4856 
L 1984 4856 
z
" transform="scale(0.015625)"/>
      <path id="STIXNonUnicode-Italic-e23a" d="M 4294 800 
L 4301 800 
Q 5293 4070 5408 4378 
Q 5472 4538 5523 4614 
Q 5830 5088 6253 5088 
Q 6490 5088 6650 4931 
Q 6810 4774 6810 4550 
Q 6810 4378 6720 4272 
Q 6630 4166 6470 4166 
Q 6368 4166 6297 4224 
Q 6227 4282 6198 4349 
Q 6170 4416 6118 4473 
Q 6067 4531 6003 4531 
Q 5939 4531 5881 4508 
Q 5824 4486 5785 4457 
Q 5747 4429 5705 4371 
Q 5664 4314 5638 4275 
Q 5613 4237 5584 4163 
Q 5555 4090 5545 4058 
Q 5536 4026 5510 3952 
Q 5485 3878 5485 3866 
L 4262 -154 
L 4134 -154 
Q 3078 1280 2483 2893 
L 2470 2893 
Q 2406 2579 2358 2361 
Q 2310 2144 2214 1792 
Q 2118 1440 2028 1190 
Q 1939 941 1804 653 
Q 1670 365 1529 185 
Q 1389 6 1203 -115 
Q 1018 -237 813 -237 
Q 576 -237 416 -80 
Q 256 77 256 301 
Q 256 474 345 579 
Q 435 685 595 685 
Q 698 685 768 627 
Q 838 570 867 502 
Q 896 435 947 377 
Q 998 320 1062 320 
Q 1222 320 1369 480 
Q 1517 640 1638 928 
Q 1760 1216 1862 1542 
Q 1965 1869 2057 2288 
Q 2150 2707 2214 3033 
Q 2278 3360 2348 3741 
Q 2419 4122 2458 4294 
L 2630 4294 
Q 2682 4166 2874 3680 
Q 3066 3194 3142 3008 
Q 3219 2822 3392 2422 
Q 3565 2022 3683 1798 
Q 3802 1574 3968 1292 
Q 4134 1011 4294 800 
z
" transform="scale(0.015625)"/>
      <path id="DejaVuSans-2c" d="M 750 794 
L 1409 794 
L 1409 256 
L 897 -744 
L 494 -744 
L 750 256 
L 750 794 
z
" transform="scale(0.015625)"/>
      <path id="STIXNonUnicode-Italic-e23f" d="M 243 1235 
L 410 1254 
Q 518 582 1139 365 
Q 1421 262 1766 262 
Q 2304 262 2685 515 
Q 3066 768 3066 1235 
Q 3066 1427 2883 1571 
Q 2701 1715 2445 1817 
Q 2189 1920 1929 2045 
Q 1670 2170 1488 2403 
Q 1306 2637 1306 2970 
Q 1306 3290 1507 3555 
Q 1709 3821 2000 3974 
Q 2291 4128 2572 4211 
Q 2854 4294 3059 4294 
Q 3603 4294 3948 4134 
Q 4294 3974 4294 3642 
Q 4294 3462 4182 3299 
Q 4070 3136 3853 3136 
Q 3712 3136 3603 3232 
Q 3494 3328 3494 3456 
Q 3494 3603 3590 3708 
Q 3686 3814 3686 3840 
Q 3686 3917 3628 3965 
Q 3571 4013 3456 4032 
Q 3341 4051 3264 4054 
Q 3187 4058 3059 4058 
Q 2931 4058 2745 4010 
Q 2560 3962 2352 3866 
Q 2144 3770 2000 3581 
Q 1856 3392 1856 3155 
Q 1856 2931 2057 2771 
Q 2259 2611 2550 2502 
Q 2842 2394 3133 2269 
Q 3424 2144 3625 1920 
Q 3827 1696 3827 1376 
Q 3827 902 3206 451 
Q 2586 0 1805 0 
Q 992 0 617 339 
Q 243 678 243 1235 
z
" transform="scale(0.015625)"/>
      <path id="DejaVuSans-29" d="M 513 4856 
L 1013 4856 
Q 1481 4119 1714 3412 
Q 1947 2706 1947 2009 
Q 1947 1309 1714 600 
Q 1481 -109 1013 -844 
L 513 -844 
Q 928 -128 1133 580 
Q 1338 1288 1338 2009 
Q 1338 2731 1133 3434 
Q 928 4138 513 4856 
z
" transform="scale(0.015625)"/>
     </defs>
     <use xlink:href="#DejaVuSans-394" transform="translate(0 0.5)"/>
     <use xlink:href="#DejaVuSans-32" transform="translate(69.365234 -15.90625) scale(0.7)"/>
     <use xlink:href="#DejaVuSans-28" transform="translate(116.635742 0.5)"/>
     <use xlink:href="#STIXNonUnicode-Italic-e23a" transform="translate(155.649414 0.5)"/>
     <use xlink:href="#DejaVuSans-2c" transform="translate(251.349396 0.5)"/>
     <use xlink:href="#STIXNonUnicode-Italic-e23f" transform="translate(302.618927 0.5)"/>
     <use xlink:href="#DejaVuSans-29" transform="translate(366.018921 0.5)"/>
    </g>
   </g>
   <g id="text_7">
    <!-- $\Delta_{2}$ bound -->
    <g transform="translate(70.784943 158.810209) scale(0.1 -0.1)">
     <defs>
      <path id="DejaVuSans-62" d="M 3116 1747 
Q 3116 2381 2855 2742 
Q 2594 3103 2138 3103 
Q 1681 3103 1420 2742 
Q 1159 2381 1159 1747 
Q 1159 1113 1420 752 
Q 1681 391 2138 391 
Q 2594 391 2855 752 
Q 3116 1113 3116 1747 
z
M 1159 2969 
Q 1341 3281 1617 3432 
Q 1894 3584 2278 3584 
Q 2916 3584 3314 3078 
Q 3713 2572 3713 1747 
Q 3713 922 3314 415 
Q 2916 -91 2278 -91 
Q 1894 -91 1617 61 
Q 1341 213 1159 525 
L 1159 0 
L 581 0 
L 581 4863 
L 1159 4863 
L 1159 2969 
z
" transform="scale(0.015625)"/>
      <path id="DejaVuSans-75" d="M 544 1381 
L 544 3500 
L 1119 3500 
L 1119 1403 
Q 1119 906 1312 657 
Q 1506 409 1894 409 
Q 2359 409 2629 706 
Q 2900 1003 2900 1516 
L 2900 3500 
L 3475 3500 
L 3475 0 
L 2900 0 
L 2900 538 
Q 2691 219 2414 64 
Q 2138 -91 1772 -91 
Q 1169 -91 856 284 
Q 544 659 544 1381 
z
M 1991 3584 
L 1991 3584 
z
" transform="scale(0.015625)"/>
      <path id="DejaVuSans-6e" d="M 3513 2113 
L 3513 0 
L 2938 0 
L 2938 2094 
Q 2938 2591 2744 2837 
Q 2550 3084 2163 3084 
Q 1697 3084 1428 2787 
Q 1159 2491 1159 1978 
L 1159 0 
L 581 0 
L 581 3500 
L 1159 3500 
L 1159 2956 
Q 1366 3272 1645 3428 
Q 1925 3584 2291 3584 
Q 2894 3584 3203 3211 
Q 3513 2838 3513 2113 
z
" transform="scale(0.015625)"/>
      <path id="DejaVuSans-64" d="M 2906 2969 
L 2906 4863 
L 3481 4863 
L 3481 0 
L 2906 0 
L 2906 525 
Q 2725 213 2448 61 
Q 2172 -91 1784 -91 
Q 1150 -91 751 415 
Q 353 922 353 1747 
Q 353 2572 751 3078 
Q 1150 3584 1784 3584 
Q 2172 3584 2448 3432 
Q 2725 3281 2906 2969 
z
M 947 1747 
Q 947 1113 1208 752 
Q 1469 391 1925 391 
Q 2381 391 2643 752 
Q 2906 1113 2906 1747 
Q 2906 2381 2643 2742 
Q 2381 3103 1925 3103 
Q 1469 3103 1208 2742 
Q 947 2381 947 1747 
z
" transform="scale(0.015625)"/>
     </defs>
     <use xlink:href="#DejaVuSans-394" transform="translate(0 0.015625)"/>
     <use xlink:href="#DejaVuSans-32" transform="translate(69.365234 -16.390625) scale(0.7)"/>
     <use xlink:href="#DejaVuSans-20" transform="translate(116.635742 0.015625)"/>
     <use xlink:href="#DejaVuSans-62" transform="translate(148.422852 0.015625)"/>
     <use xlink:href="#DejaVuSans-6f" transform="translate(211.899414 0.015625)"/>
     <use xlink:href="#DejaVuSans-75" transform="translate(273.081055 0.015625)"/>
     <use xlink:href="#DejaVuSans-6e" transform="translate(336.459961 0.015625)"/>
     <use xlink:href="#DejaVuSans-64" transform="translate(399.838867 0.015625)"/>
    </g>
   </g>
   <g id="legend_1">
    <g id="patch_9">
     <path d="M 119.603125 44.6 
L 229.103125 44.6 
Q 231.103125 44.6 231.103125 42.6 
L 231.103125 14.2 
Q 231.103125 12.2 229.103125 12.2 
L 119.603125 12.2 
Q 117.603125 12.2 117.603125 14.2 
L 117.603125 42.6 
Q 117.603125 44.6 119.603125 44.6 
z
" style="fill: #ffffff; opacity: 0.8; stroke: #cccccc; stroke-linejoin: miter"/>
    </g>
    <g id="line2d_11">
     <path d="M 121.603125 20.3 
L 131.603125 20.3 
L 141.603125 20.3 
" style="fill: none; stroke: #ffa500; stroke-width: 1.5; stroke-linecap: square"/>
    </g>
    <g id="text_8">
     <!-- $\xi_{2}(\mathcal{S})$ -->
     <g transform="translate(149.603125 23.8) scale(0.1 -0.1)">
      <defs>
       <path id="DejaVuSans-Oblique-3be" d="M 2016 397 
Q 2428 394 2628 159 
Q 2844 -88 2772 -463 
Q 2700 -822 2422 -1072 
Q 2119 -1344 1609 -1344 
Q 1656 -1109 1700 -872 
Q 1913 -888 2072 -750 
Q 2194 -641 2216 -525 
Q 2247 -359 2175 -222 
Q 2100 -91 1922 -91 
Q -25 -91 241 1275 
Q 422 2213 1516 2488 
Q 663 2600 822 3413 
Q 941 4028 1678 4284 
L 1028 4284 
L 1141 4863 
L 3606 4863 
L 3494 4284 
Q 1528 4284 1350 3375 
Q 1234 2778 2881 2750 
L 2778 2219 
Q 1009 2288 819 1275 
Q 659 428 2016 397 
z
" transform="scale(0.015625)"/>
      </defs>
      <use xlink:href="#DejaVuSans-Oblique-3be" transform="translate(0 0.015625)"/>
      <use xlink:href="#DejaVuSans-32" transform="translate(55.761719 -16.390625) scale(0.7)"/>
      <use xlink:href="#DejaVuSans-28" transform="translate(103.032227 0.015625)"/>
      <use xlink:href="#STIXNonUnicode-Italic-e23f" transform="translate(142.045898 0.015625)"/>
      <use xlink:href="#DejaVuSans-29" transform="translate(205.445892 0.015625)"/>
     </g>
    </g>
    <g id="line2d_12">
     <path d="M 121.603125 35 
L 131.603125 35 
L 141.603125 35 
" style="fill: none; stroke: #00ffff; stroke-width: 1.5; stroke-linecap: square"/>
    </g>
    <g id="text_9">
     <!-- $\xi_{2}$ upper bound -->
     <g transform="translate(149.603125 38.5) scale(0.1 -0.1)">
      <use xlink:href="#DejaVuSans-Oblique-3be" transform="translate(0 0.015625)"/>
      <use xlink:href="#DejaVuSans-32" transform="translate(55.761719 -16.390625) scale(0.7)"/>
      <use xlink:href="#DejaVuSans-20" transform="translate(103.032227 0.015625)"/>
      <use xlink:href="#DejaVuSans-75" transform="translate(134.819336 0.015625)"/>
      <use xlink:href="#DejaVuSans-70" transform="translate(198.198242 0.015625)"/>
      <use xlink:href="#DejaVuSans-70" transform="translate(261.674805 0.015625)"/>
      <use xlink:href="#DejaVuSans-65" transform="translate(325.151367 0.015625)"/>
      <use xlink:href="#DejaVuSans-72" transform="translate(386.674805 0.015625)"/>
      <use xlink:href="#DejaVuSans-20" transform="translate(427.788086 0.015625)"/>
      <use xlink:href="#DejaVuSans-62" transform="translate(459.575195 0.015625)"/>
      <use xlink:href="#DejaVuSans-6f" transform="translate(523.051758 0.015625)"/>
      <use xlink:href="#DejaVuSans-75" transform="translate(584.233398 0.015625)"/>
      <use xlink:href="#DejaVuSans-6e" transform="translate(647.612305 0.015625)"/>
      <use xlink:href="#DejaVuSans-64" transform="translate(710.991211 0.015625)"/>
     </g>
    </g>
   </g>
  </g>
 </g>
 <defs>
  <clipPath id="p3329e4aafd">
   <rect x="27.878125" y="7.2" width="292.95" height="207.9"/>
  </clipPath>
 </defs>
</svg>
