<?xml version="1.0" encoding="utf-8" standalone="no"?>
<!DOCTYPE svg PUBLIC "-//W3C//DTD SVG 1.1//EN"
  "http://www.w3.org/Graphics/SVG/1.1/DTD/svg11.dtd">
<svg xmlns:xlink="http://www.w3.org/1999/xlink" width="260.399637pt" height="188.399521pt" viewBox="0 0 260.399637 188.399521" xmlns="http://www.w3.org/2000/svg" version="1.1">
 <metadata>
  <rdf:RDF xmlns:dc="http://purl.org/dc/elements/1.1/" xmlns:cc="http://creativecommons.org/ns#" xmlns:rdf="http://www.w3.org/1999/02/22-rdf-syntax-ns#">
   <cc:Work>
    <dc:type rdf:resource="http://purl.org/dc/dcmitype/StillImage"/>
    <dc:date>1980-01-01T00:00:00+00:00</dc:date>
    <dc:format>image/svg+xml</dc:format>
    <dc:creator>
     <cc:Agent>
      <dc:title>Matplotlib v3.7.5, https://matplotlib.org/</dc:title>
     </cc:Agent>
    </dc:creator>
   </cc:Work>
  </rdf:RDF>
 </metadata>
 <defs>
  <style type="text/css">*{stroke-linejoin: round; stroke-linecap: butt}</style>
 </defs>
 <g id="figure_1">
  <g id="patch_1">
   <path d="M 0 188.399521 
L 260.399637 188.399521 
L 260.399637 -0 
L 0 -0 
z
" style="fill: #ffffff"/>
  </g>
  <g id="axes_1">
   <g id="patch_2">
    <path d="M 46.965625 150.843271 
L 251.759526 150.843271 
L 251.759526 10.668889 
L 46.965625 10.668889 
z
" style="fill: #ffffff"/>
   </g>
   <g id="PolyCollection_1"/>
   <g id="PolyCollection_2"/>
   <g id="PolyCollection_3"/>
   <g id="matplotlib.axis_1">
    <g id="xtick_1">
     <g id="line2d_1">
      <defs>
       <path id="m287f0c769d" d="M 0 0 
L 0 3.5 
" style="stroke: #000000; stroke-width: 0.8"/>
      </defs>
      <g>
       <use xlink:href="#m287f0c769d" x="46.965625" y="150.843271" style="stroke: #000000; stroke-width: 0.8"/>
      </g>
     </g>
     <g id="text_1">
      <!-- 0 -->
      <g transform="translate(43.784375 165.441708) scale(0.1 -0.1)">
       <defs>
        <path id="DejaVuSans-30" d="M 2034 4250 
Q 1547 4250 1301 3770 
Q 1056 3291 1056 2328 
Q 1056 1369 1301 889 
Q 1547 409 2034 409 
Q 2525 409 2770 889 
Q 3016 1369 3016 2328 
Q 3016 3291 2770 3770 
Q 2525 4250 2034 4250 
z
M 2034 4750 
Q 2819 4750 3233 4129 
Q 3647 3509 3647 2328 
Q 3647 1150 3233 529 
Q 2819 -91 2034 -91 
Q 1250 -91 836 529 
Q 422 1150 422 2328 
Q 422 3509 836 4129 
Q 1250 4750 2034 4750 
z
" transform="scale(0.015625)"/>
       </defs>
       <use xlink:href="#DejaVuSans-30"/>
      </g>
     </g>
    </g>
    <g id="xtick_2">
     <g id="line2d_2">
      <g>
       <use xlink:href="#m287f0c769d" x="86.303677" y="150.843271" style="stroke: #000000; stroke-width: 0.8"/>
      </g>
     </g>
     <g id="text_2">
      <!-- 25 -->
      <g transform="translate(79.941177 165.441708) scale(0.1 -0.1)">
       <defs>
        <path id="DejaVuSans-32" d="M 1228 531 
L 3431 531 
L 3431 0 
L 469 0 
L 469 531 
Q 828 903 1448 1529 
Q 2069 2156 2228 2338 
Q 2531 2678 2651 2914 
Q 2772 3150 2772 3378 
Q 2772 3750 2511 3984 
Q 2250 4219 1831 4219 
Q 1534 4219 1204 4116 
Q 875 4013 500 3803 
L 500 4441 
Q 881 4594 1212 4672 
Q 1544 4750 1819 4750 
Q 2544 4750 2975 4387 
Q 3406 4025 3406 3419 
Q 3406 3131 3298 2873 
Q 3191 2616 2906 2266 
Q 2828 2175 2409 1742 
Q 1991 1309 1228 531 
z
" transform="scale(0.015625)"/>
        <path id="DejaVuSans-35" d="M 691 4666 
L 3169 4666 
L 3169 4134 
L 1269 4134 
L 1269 2991 
Q 1406 3038 1543 3061 
Q 1681 3084 1819 3084 
Q 2600 3084 3056 2656 
Q 3513 2228 3513 1497 
Q 3513 744 3044 326 
Q 2575 -91 1722 -91 
Q 1428 -91 1123 -41 
Q 819 9 494 109 
L 494 744 
Q 775 591 1075 516 
Q 1375 441 1709 441 
Q 2250 441 2565 725 
Q 2881 1009 2881 1497 
Q 2881 1984 2565 2268 
Q 2250 2553 1709 2553 
Q 1456 2553 1204 2497 
Q 953 2441 691 2322 
L 691 4666 
z
" transform="scale(0.015625)"/>
       </defs>
       <use xlink:href="#DejaVuSans-32"/>
       <use xlink:href="#DejaVuSans-35" x="63.623047"/>
      </g>
     </g>
    </g>
    <g id="xtick_3">
     <g id="line2d_3">
      <g>
       <use xlink:href="#m287f0c769d" x="125.64173" y="150.843271" style="stroke: #000000; stroke-width: 0.8"/>
      </g>
     </g>
     <g id="text_3">
      <!-- 50 -->
      <g transform="translate(119.27923 165.441708) scale(0.1 -0.1)">
       <use xlink:href="#DejaVuSans-35"/>
       <use xlink:href="#DejaVuSans-30" x="63.623047"/>
      </g>
     </g>
    </g>
    <g id="xtick_4">
     <g id="line2d_4">
      <g>
       <use xlink:href="#m287f0c769d" x="164.979782" y="150.843271" style="stroke: #000000; stroke-width: 0.8"/>
      </g>
     </g>
     <g id="text_4">
      <!-- 75 -->
      <g transform="translate(158.617282 165.441708) scale(0.1 -0.1)">
       <defs>
        <path id="DejaVuSans-37" d="M 525 4666 
L 3525 4666 
L 3525 4397 
L 1831 0 
L 1172 0 
L 2766 4134 
L 525 4134 
L 525 4666 
z
" transform="scale(0.015625)"/>
       </defs>
       <use xlink:href="#DejaVuSans-37"/>
       <use xlink:href="#DejaVuSans-35" x="63.623047"/>
      </g>
     </g>
    </g>
    <g id="xtick_5">
     <g id="line2d_5">
      <g>
       <use xlink:href="#m287f0c769d" x="204.317835" y="150.843271" style="stroke: #000000; stroke-width: 0.8"/>
      </g>
     </g>
     <g id="text_5">
      <!-- 100 -->
      <g transform="translate(194.774085 165.441708) scale(0.1 -0.1)">
       <defs>
        <path id="DejaVuSans-31" d="M 794 531 
L 1825 531 
L 1825 4091 
L 703 3866 
L 703 4441 
L 1819 4666 
L 2450 4666 
L 2450 531 
L 3481 531 
L 3481 0 
L 794 0 
L 794 531 
z
" transform="scale(0.015625)"/>
       </defs>
       <use xlink:href="#DejaVuSans-31"/>
       <use xlink:href="#DejaVuSans-30" x="63.623047"/>
       <use xlink:href="#DejaVuSans-30" x="127.246094"/>
      </g>
     </g>
    </g>
    <g id="xtick_6">
     <g id="line2d_6">
      <g>
       <use xlink:href="#m287f0c769d" x="243.655887" y="150.843271" style="stroke: #000000; stroke-width: 0.8"/>
      </g>
     </g>
     <g id="text_6">
      <!-- 125 -->
      <g transform="translate(234.112137 165.441708) scale(0.1 -0.1)">
       <use xlink:href="#DejaVuSans-31"/>
       <use xlink:href="#DejaVuSans-32" x="63.623047"/>
       <use xlink:href="#DejaVuSans-35" x="127.246094"/>
      </g>
     </g>
    </g>
    <g id="text_7">
     <!-- Sample Size -->
     <g transform="translate(118.761013 179.119833) scale(0.1 -0.1)">
      <defs>
       <path id="DejaVuSans-53" d="M 3425 4513 
L 3425 3897 
Q 3066 4069 2747 4153 
Q 2428 4238 2131 4238 
Q 1616 4238 1336 4038 
Q 1056 3838 1056 3469 
Q 1056 3159 1242 3001 
Q 1428 2844 1947 2747 
L 2328 2669 
Q 3034 2534 3370 2195 
Q 3706 1856 3706 1288 
Q 3706 609 3251 259 
Q 2797 -91 1919 -91 
Q 1588 -91 1214 -16 
Q 841 59 441 206 
L 441 856 
Q 825 641 1194 531 
Q 1563 422 1919 422 
Q 2459 422 2753 634 
Q 3047 847 3047 1241 
Q 3047 1584 2836 1778 
Q 2625 1972 2144 2069 
L 1759 2144 
Q 1053 2284 737 2584 
Q 422 2884 422 3419 
Q 422 4038 858 4394 
Q 1294 4750 2059 4750 
Q 2388 4750 2728 4690 
Q 3069 4631 3425 4513 
z
" transform="scale(0.015625)"/>
       <path id="DejaVuSans-61" d="M 2194 1759 
Q 1497 1759 1228 1600 
Q 959 1441 959 1056 
Q 959 750 1161 570 
Q 1363 391 1709 391 
Q 2188 391 2477 730 
Q 2766 1069 2766 1631 
L 2766 1759 
L 2194 1759 
z
M 3341 1997 
L 3341 0 
L 2766 0 
L 2766 531 
Q 2569 213 2275 61 
Q 1981 -91 1556 -91 
Q 1019 -91 701 211 
Q 384 513 384 1019 
Q 384 1609 779 1909 
Q 1175 2209 1959 2209 
L 2766 2209 
L 2766 2266 
Q 2766 2663 2505 2880 
Q 2244 3097 1772 3097 
Q 1472 3097 1187 3025 
Q 903 2953 641 2809 
L 641 3341 
Q 956 3463 1253 3523 
Q 1550 3584 1831 3584 
Q 2591 3584 2966 3190 
Q 3341 2797 3341 1997 
z
" transform="scale(0.015625)"/>
       <path id="DejaVuSans-6d" d="M 3328 2828 
Q 3544 3216 3844 3400 
Q 4144 3584 4550 3584 
Q 5097 3584 5394 3201 
Q 5691 2819 5691 2113 
L 5691 0 
L 5113 0 
L 5113 2094 
Q 5113 2597 4934 2840 
Q 4756 3084 4391 3084 
Q 3944 3084 3684 2787 
Q 3425 2491 3425 1978 
L 3425 0 
L 2847 0 
L 2847 2094 
Q 2847 2600 2669 2842 
Q 2491 3084 2119 3084 
Q 1678 3084 1418 2786 
Q 1159 2488 1159 1978 
L 1159 0 
L 581 0 
L 581 3500 
L 1159 3500 
L 1159 2956 
Q 1356 3278 1631 3431 
Q 1906 3584 2284 3584 
Q 2666 3584 2933 3390 
Q 3200 3197 3328 2828 
z
" transform="scale(0.015625)"/>
       <path id="DejaVuSans-70" d="M 1159 525 
L 1159 -1331 
L 581 -1331 
L 581 3500 
L 1159 3500 
L 1159 2969 
Q 1341 3281 1617 3432 
Q 1894 3584 2278 3584 
Q 2916 3584 3314 3078 
Q 3713 2572 3713 1747 
Q 3713 922 3314 415 
Q 2916 -91 2278 -91 
Q 1894 -91 1617 61 
Q 1341 213 1159 525 
z
M 3116 1747 
Q 3116 2381 2855 2742 
Q 2594 3103 2138 3103 
Q 1681 3103 1420 2742 
Q 1159 2381 1159 1747 
Q 1159 1113 1420 752 
Q 1681 391 2138 391 
Q 2594 391 2855 752 
Q 3116 1113 3116 1747 
z
" transform="scale(0.015625)"/>
       <path id="DejaVuSans-6c" d="M 603 4863 
L 1178 4863 
L 1178 0 
L 603 0 
L 603 4863 
z
" transform="scale(0.015625)"/>
       <path id="DejaVuSans-65" d="M 3597 1894 
L 3597 1613 
L 953 1613 
Q 991 1019 1311 708 
Q 1631 397 2203 397 
Q 2534 397 2845 478 
Q 3156 559 3463 722 
L 3463 178 
Q 3153 47 2828 -22 
Q 2503 -91 2169 -91 
Q 1331 -91 842 396 
Q 353 884 353 1716 
Q 353 2575 817 3079 
Q 1281 3584 2069 3584 
Q 2775 3584 3186 3129 
Q 3597 2675 3597 1894 
z
M 3022 2063 
Q 3016 2534 2758 2815 
Q 2500 3097 2075 3097 
Q 1594 3097 1305 2825 
Q 1016 2553 972 2059 
L 3022 2063 
z
" transform="scale(0.015625)"/>
       <path id="DejaVuSans-20" transform="scale(0.015625)"/>
       <path id="DejaVuSans-69" d="M 603 3500 
L 1178 3500 
L 1178 0 
L 603 0 
L 603 3500 
z
M 603 4863 
L 1178 4863 
L 1178 4134 
L 603 4134 
L 603 4863 
z
" transform="scale(0.015625)"/>
       <path id="DejaVuSans-7a" d="M 353 3500 
L 3084 3500 
L 3084 2975 
L 922 459 
L 3084 459 
L 3084 0 
L 275 0 
L 275 525 
L 2438 3041 
L 353 3041 
L 353 3500 
z
" transform="scale(0.015625)"/>
      </defs>
      <use xlink:href="#DejaVuSans-53"/>
      <use xlink:href="#DejaVuSans-61" x="63.476562"/>
      <use xlink:href="#DejaVuSans-6d" x="124.755859"/>
      <use xlink:href="#DejaVuSans-70" x="222.167969"/>
      <use xlink:href="#DejaVuSans-6c" x="285.644531"/>
      <use xlink:href="#DejaVuSans-65" x="313.427734"/>
      <use xlink:href="#DejaVuSans-20" x="374.951172"/>
      <use xlink:href="#DejaVuSans-53" x="406.738281"/>
      <use xlink:href="#DejaVuSans-69" x="470.214844"/>
      <use xlink:href="#DejaVuSans-7a" x="497.998047"/>
      <use xlink:href="#DejaVuSans-65" x="550.488281"/>
     </g>
    </g>
   </g>
   <g id="matplotlib.axis_2">
    <g id="ytick_1">
     <g id="line2d_7">
      <defs>
       <path id="m40174b74fd" d="M 0 0 
L -3.5 0 
" style="stroke: #000000; stroke-width: 0.8"/>
      </defs>
      <g>
       <use xlink:href="#m40174b74fd" x="46.965625" y="150.843271" style="stroke: #000000; stroke-width: 0.8"/>
      </g>
     </g>
     <g id="text_8">
      <!-- 0 -->
      <g transform="translate(33.603125 154.642489) scale(0.1 -0.1)">
       <use xlink:href="#DejaVuSans-30"/>
      </g>
     </g>
    </g>
    <g id="ytick_2">
     <g id="line2d_8">
      <g>
       <use xlink:href="#m40174b74fd" x="46.965625" y="122.87446" style="stroke: #000000; stroke-width: 0.8"/>
      </g>
     </g>
     <g id="text_9">
      <!-- 50 -->
      <g transform="translate(27.240625 126.673679) scale(0.1 -0.1)">
       <use xlink:href="#DejaVuSans-35"/>
       <use xlink:href="#DejaVuSans-30" x="63.623047"/>
      </g>
     </g>
    </g>
    <g id="ytick_3">
     <g id="line2d_9">
      <g>
       <use xlink:href="#m40174b74fd" x="46.965625" y="94.90565" style="stroke: #000000; stroke-width: 0.8"/>
      </g>
     </g>
     <g id="text_10">
      <!-- 100 -->
      <g transform="translate(20.878125 98.704869) scale(0.1 -0.1)">
       <use xlink:href="#DejaVuSans-31"/>
       <use xlink:href="#DejaVuSans-30" x="63.623047"/>
       <use xlink:href="#DejaVuSans-30" x="127.246094"/>
      </g>
     </g>
    </g>
    <g id="ytick_4">
     <g id="line2d_10">
      <g>
       <use xlink:href="#m40174b74fd" x="46.965625" y="66.93684" style="stroke: #000000; stroke-width: 0.8"/>
      </g>
     </g>
     <g id="text_11">
      <!-- 150 -->
      <g transform="translate(20.878125 70.736058) scale(0.1 -0.1)">
       <use xlink:href="#DejaVuSans-31"/>
       <use xlink:href="#DejaVuSans-35" x="63.623047"/>
       <use xlink:href="#DejaVuSans-30" x="127.246094"/>
      </g>
     </g>
    </g>
    <g id="ytick_5">
     <g id="line2d_11">
      <g>
       <use xlink:href="#m40174b74fd" x="46.965625" y="38.968029" style="stroke: #000000; stroke-width: 0.8"/>
      </g>
     </g>
     <g id="text_12">
      <!-- 200 -->
      <g transform="translate(20.878125 42.767248) scale(0.1 -0.1)">
       <use xlink:href="#DejaVuSans-32"/>
       <use xlink:href="#DejaVuSans-30" x="63.623047"/>
       <use xlink:href="#DejaVuSans-30" x="127.246094"/>
      </g>
     </g>
    </g>
    <g id="ytick_6">
     <g id="line2d_12">
      <g>
       <use xlink:href="#m40174b74fd" x="46.965625" y="10.999219" style="stroke: #000000; stroke-width: 0.8"/>
      </g>
     </g>
     <g id="text_13">
      <!-- 250 -->
      <g transform="translate(20.878125 14.798438) scale(0.1 -0.1)">
       <use xlink:href="#DejaVuSans-32"/>
       <use xlink:href="#DejaVuSans-35" x="63.623047"/>
       <use xlink:href="#DejaVuSans-30" x="127.246094"/>
      </g>
     </g>
    </g>
    <g id="text_14">
     <!-- Analytic Classification Error -->
     <g transform="translate(14.798437 149.302174) rotate(-90) scale(0.1 -0.1)">
      <defs>
       <path id="DejaVuSans-41" d="M 2188 4044 
L 1331 1722 
L 3047 1722 
L 2188 4044 
z
M 1831 4666 
L 2547 4666 
L 4325 0 
L 3669 0 
L 3244 1197 
L 1141 1197 
L 716 0 
L 50 0 
L 1831 4666 
z
" transform="scale(0.015625)"/>
       <path id="DejaVuSans-6e" d="M 3513 2113 
L 3513 0 
L 2938 0 
L 2938 2094 
Q 2938 2591 2744 2837 
Q 2550 3084 2163 3084 
Q 1697 3084 1428 2787 
Q 1159 2491 1159 1978 
L 1159 0 
L 581 0 
L 581 3500 
L 1159 3500 
L 1159 2956 
Q 1366 3272 1645 3428 
Q 1925 3584 2291 3584 
Q 2894 3584 3203 3211 
Q 3513 2838 3513 2113 
z
" transform="scale(0.015625)"/>
       <path id="DejaVuSans-79" d="M 2059 -325 
Q 1816 -950 1584 -1140 
Q 1353 -1331 966 -1331 
L 506 -1331 
L 506 -850 
L 844 -850 
Q 1081 -850 1212 -737 
Q 1344 -625 1503 -206 
L 1606 56 
L 191 3500 
L 800 3500 
L 1894 763 
L 2988 3500 
L 3597 3500 
L 2059 -325 
z
" transform="scale(0.015625)"/>
       <path id="DejaVuSans-74" d="M 1172 4494 
L 1172 3500 
L 2356 3500 
L 2356 3053 
L 1172 3053 
L 1172 1153 
Q 1172 725 1289 603 
Q 1406 481 1766 481 
L 2356 481 
L 2356 0 
L 1766 0 
Q 1100 0 847 248 
Q 594 497 594 1153 
L 594 3053 
L 172 3053 
L 172 3500 
L 594 3500 
L 594 4494 
L 1172 4494 
z
" transform="scale(0.015625)"/>
       <path id="DejaVuSans-63" d="M 3122 3366 
L 3122 2828 
Q 2878 2963 2633 3030 
Q 2388 3097 2138 3097 
Q 1578 3097 1268 2742 
Q 959 2388 959 1747 
Q 959 1106 1268 751 
Q 1578 397 2138 397 
Q 2388 397 2633 464 
Q 2878 531 3122 666 
L 3122 134 
Q 2881 22 2623 -34 
Q 2366 -91 2075 -91 
Q 1284 -91 818 406 
Q 353 903 353 1747 
Q 353 2603 823 3093 
Q 1294 3584 2113 3584 
Q 2378 3584 2631 3529 
Q 2884 3475 3122 3366 
z
" transform="scale(0.015625)"/>
       <path id="DejaVuSans-43" d="M 4122 4306 
L 4122 3641 
Q 3803 3938 3442 4084 
Q 3081 4231 2675 4231 
Q 1875 4231 1450 3742 
Q 1025 3253 1025 2328 
Q 1025 1406 1450 917 
Q 1875 428 2675 428 
Q 3081 428 3442 575 
Q 3803 722 4122 1019 
L 4122 359 
Q 3791 134 3420 21 
Q 3050 -91 2638 -91 
Q 1578 -91 968 557 
Q 359 1206 359 2328 
Q 359 3453 968 4101 
Q 1578 4750 2638 4750 
Q 3056 4750 3426 4639 
Q 3797 4528 4122 4306 
z
" transform="scale(0.015625)"/>
       <path id="DejaVuSans-73" d="M 2834 3397 
L 2834 2853 
Q 2591 2978 2328 3040 
Q 2066 3103 1784 3103 
Q 1356 3103 1142 2972 
Q 928 2841 928 2578 
Q 928 2378 1081 2264 
Q 1234 2150 1697 2047 
L 1894 2003 
Q 2506 1872 2764 1633 
Q 3022 1394 3022 966 
Q 3022 478 2636 193 
Q 2250 -91 1575 -91 
Q 1294 -91 989 -36 
Q 684 19 347 128 
L 347 722 
Q 666 556 975 473 
Q 1284 391 1588 391 
Q 1994 391 2212 530 
Q 2431 669 2431 922 
Q 2431 1156 2273 1281 
Q 2116 1406 1581 1522 
L 1381 1569 
Q 847 1681 609 1914 
Q 372 2147 372 2553 
Q 372 3047 722 3315 
Q 1072 3584 1716 3584 
Q 2034 3584 2315 3537 
Q 2597 3491 2834 3397 
z
" transform="scale(0.015625)"/>
       <path id="DejaVuSans-66" d="M 2375 4863 
L 2375 4384 
L 1825 4384 
Q 1516 4384 1395 4259 
Q 1275 4134 1275 3809 
L 1275 3500 
L 2222 3500 
L 2222 3053 
L 1275 3053 
L 1275 0 
L 697 0 
L 697 3053 
L 147 3053 
L 147 3500 
L 697 3500 
L 697 3744 
Q 697 4328 969 4595 
Q 1241 4863 1831 4863 
L 2375 4863 
z
" transform="scale(0.015625)"/>
       <path id="DejaVuSans-6f" d="M 1959 3097 
Q 1497 3097 1228 2736 
Q 959 2375 959 1747 
Q 959 1119 1226 758 
Q 1494 397 1959 397 
Q 2419 397 2687 759 
Q 2956 1122 2956 1747 
Q 2956 2369 2687 2733 
Q 2419 3097 1959 3097 
z
M 1959 3584 
Q 2709 3584 3137 3096 
Q 3566 2609 3566 1747 
Q 3566 888 3137 398 
Q 2709 -91 1959 -91 
Q 1206 -91 779 398 
Q 353 888 353 1747 
Q 353 2609 779 3096 
Q 1206 3584 1959 3584 
z
" transform="scale(0.015625)"/>
       <path id="DejaVuSans-45" d="M 628 4666 
L 3578 4666 
L 3578 4134 
L 1259 4134 
L 1259 2753 
L 3481 2753 
L 3481 2222 
L 1259 2222 
L 1259 531 
L 3634 531 
L 3634 0 
L 628 0 
L 628 4666 
z
" transform="scale(0.015625)"/>
       <path id="DejaVuSans-72" d="M 2631 2963 
Q 2534 3019 2420 3045 
Q 2306 3072 2169 3072 
Q 1681 3072 1420 2755 
Q 1159 2438 1159 1844 
L 1159 0 
L 581 0 
L 581 3500 
L 1159 3500 
L 1159 2956 
Q 1341 3275 1631 3429 
Q 1922 3584 2338 3584 
Q 2397 3584 2469 3576 
Q 2541 3569 2628 3553 
L 2631 2963 
z
" transform="scale(0.015625)"/>
      </defs>
      <use xlink:href="#DejaVuSans-41"/>
      <use xlink:href="#DejaVuSans-6e" x="68.408203"/>
      <use xlink:href="#DejaVuSans-61" x="131.787109"/>
      <use xlink:href="#DejaVuSans-6c" x="193.066406"/>
      <use xlink:href="#DejaVuSans-79" x="220.849609"/>
      <use xlink:href="#DejaVuSans-74" x="280.029297"/>
      <use xlink:href="#DejaVuSans-69" x="319.238281"/>
      <use xlink:href="#DejaVuSans-63" x="347.021484"/>
      <use xlink:href="#DejaVuSans-20" x="402.001953"/>
      <use xlink:href="#DejaVuSans-43" x="433.789062"/>
      <use xlink:href="#DejaVuSans-6c" x="503.613281"/>
      <use xlink:href="#DejaVuSans-61" x="531.396484"/>
      <use xlink:href="#DejaVuSans-73" x="592.675781"/>
      <use xlink:href="#DejaVuSans-73" x="644.775391"/>
      <use xlink:href="#DejaVuSans-69" x="696.875"/>
      <use xlink:href="#DejaVuSans-66" x="724.658203"/>
      <use xlink:href="#DejaVuSans-69" x="759.863281"/>
      <use xlink:href="#DejaVuSans-63" x="787.646484"/>
      <use xlink:href="#DejaVuSans-61" x="842.626953"/>
      <use xlink:href="#DejaVuSans-74" x="903.90625"/>
      <use xlink:href="#DejaVuSans-69" x="943.115234"/>
      <use xlink:href="#DejaVuSans-6f" x="970.898438"/>
      <use xlink:href="#DejaVuSans-6e" x="1032.080078"/>
      <use xlink:href="#DejaVuSans-20" x="1095.458984"/>
      <use xlink:href="#DejaVuSans-45" x="1127.246094"/>
      <use xlink:href="#DejaVuSans-72" x="1190.429688"/>
      <use xlink:href="#DejaVuSans-72" x="1229.792969"/>
      <use xlink:href="#DejaVuSans-6f" x="1268.65625"/>
      <use xlink:href="#DejaVuSans-72" x="1329.837891"/>
     </g>
    </g>
   </g>
   <g id="line2d_13">
    <path d="M 48.539147 19.157827 
L 50.112669 24.473276 
L 51.686191 28.86626 
L 53.259713 32.72221 
L 54.833235 36.050425 
L 56.406758 39.100331 
L 57.98028 42.036322 
L 59.553802 44.793013 
L 61.127324 47.41305 
L 62.700846 49.818923 
L 64.274368 52.174007 
L 65.84789 54.49718 
L 67.421412 56.730415 
L 68.994934 58.922231 
L 70.568456 61.048206 
L 72.141979 63.179939 
L 73.715501 65.243431 
L 75.289023 67.324166 
L 76.862545 69.339504 
L 78.436067 71.288522 
L 80.009589 73.232024 
L 81.583111 75.053703 
L 83.156633 76.948799 
L 84.730155 78.815449 
L 86.303677 80.637508 
L 87.8772 82.502061 
L 89.450722 84.194777 
L 91.024244 85.95363 
L 92.597766 87.690135 
L 94.171288 89.4269 
L 95.74481 91.174092 
L 97.318332 92.960412 
L 98.891854 94.395269 
L 100.465376 95.990873 
L 102.038898 97.415307 
L 103.612421 98.892492 
L 105.185943 100.410049 
L 106.759465 101.567462 
L 108.332987 102.815198 
L 109.906509 103.965017 
L 111.480031 104.814648 
L 113.053553 105.595528 
L 114.627075 105.868473 
L 116.200597 106.2752 
L 117.774119 105.236595 
L 119.347642 103.784905 
L 120.921164 101.457647 
L 122.494686 97.95715 
L 124.068208 89.467181 
L 125.64173 77.265915 
L 127.215252 94.93972 
L 128.788774 103.890119 
L 130.362296 109.45967 
L 131.935818 113.942819 
L 133.50934 117.294288 
L 135.082863 119.951319 
L 136.656385 122.491809 
L 138.229907 124.118694 
L 139.803429 125.5089 
L 141.376951 127.041228 
L 142.950473 128.257159 
L 144.523995 129.660485 
L 146.097517 130.557758 
L 147.671039 131.504682 
L 149.244561 132.320319 
L 150.818084 133.058796 
L 152.391606 133.810045 
L 153.965128 134.453081 
L 155.53865 134.908978 
L 157.112172 135.418953 
L 158.685694 135.856781 
L 160.259216 136.267072 
L 161.832738 136.598449 
L 163.40626 136.935288 
L 164.979782 137.261372 
L 166.553305 137.620485 
L 168.126827 137.932394 
L 169.700349 138.204145 
L 171.273871 138.421194 
L 172.847393 138.632003 
L 174.420915 138.8778 
L 175.994437 139.075108 
L 177.567959 139.279065 
L 179.141481 139.485695 
L 180.715003 139.689739 
L 182.288526 139.874083 
L 183.862048 140.033536 
L 185.43557 140.220905 
L 187.009092 140.401505 
L 188.582614 140.54787 
L 190.156136 140.678236 
L 191.729658 140.847499 
L 193.30318 140.97054 
L 194.876702 141.115497 
L 196.450224 141.232482 
L 198.023746 141.376552 
L 199.597269 141.478002 
L 201.170791 141.599571 
L 202.744313 141.711525 
L 204.317835 141.812632 
L 205.891357 141.916497 
L 207.464879 142.01134 
L 209.038401 142.104342 
L 210.611923 142.189319 
L 212.185445 142.293038 
L 213.758967 142.372827 
L 215.33249 142.466288 
L 216.906012 142.541651 
L 218.479534 142.625467 
L 220.053056 142.692337 
L 221.626578 142.75961 
L 223.2001 142.842679 
L 224.773622 142.923055 
L 226.347144 142.995772 
L 227.920666 143.067681 
L 229.494188 143.16069 
L 231.067711 143.223664 
L 232.641233 143.28495 
L 234.214755 143.349513 
L 235.788277 143.408437 
L 237.361799 143.480401 
L 238.935321 143.529753 
L 240.508843 143.577945 
L 242.082365 143.644568 
" clip-path="url(#p4b5d0ed13d)" style="fill: none; stroke: #4c72b0; stroke-width: 1.5; stroke-linecap: square"/>
   </g>
   <g id="line2d_14">
    <path d="M 48.539147 21.258187 
L 50.112669 27.380652 
L 51.686191 32.113321 
L 53.259713 36.108727 
L 54.833235 39.668206 
L 56.406758 42.907168 
L 57.98028 45.912893 
L 59.553802 48.739076 
L 61.127324 51.420395 
L 62.700846 53.980572 
L 64.274368 56.437131 
L 65.84789 58.808919 
L 67.421412 61.111783 
L 68.994934 63.350465 
L 70.568456 65.533914 
L 72.141979 67.668216 
L 73.715501 69.761159 
L 75.289023 71.820778 
L 76.862545 73.844541 
L 78.436067 75.844199 
L 80.009589 77.821028 
L 81.583111 79.774747 
L 83.156633 81.706254 
L 84.730155 83.619959 
L 86.303677 85.522102 
L 87.8772 87.412645 
L 89.450722 89.294132 
L 91.024244 91.170504 
L 92.597766 93.042137 
L 94.171288 94.910611 
L 95.74481 96.777934 
L 97.318332 98.648785 
L 98.891854 100.521211 
L 100.465376 102.399631 
L 102.038898 104.28398 
L 103.612421 106.181316 
L 105.185943 108.090116 
L 106.759465 110.012576 
L 108.332987 111.952523 
L 109.906509 113.909667 
L 111.480031 115.895552 
L 113.053553 117.900669 
L 114.627075 119.935937 
L 116.200597 122.020214 
L 117.774119 124.143117 
L 119.347642 126.309384 
L 120.921164 128.516116 
L 122.494686 130.751749 
L 124.068208 133.005325 
L 125.64173 135.27061 
L 127.215252 136.400151 
L 128.788774 137.329802 
L 130.362296 138.115598 
L 131.935818 138.770337 
L 133.50934 139.34518 
L 135.082863 139.862305 
L 136.656385 140.320366 
L 138.229907 140.727388 
L 139.803429 141.094844 
L 141.376951 141.424863 
L 142.950473 141.720771 
L 144.523995 141.985084 
L 146.097517 142.22218 
L 147.671039 142.439972 
L 149.244561 142.638007 
L 150.818084 142.820911 
L 152.391606 142.98795 
L 153.965128 143.14052 
L 155.53865 143.283258 
L 157.112172 143.416656 
L 158.685694 143.540385 
L 160.259216 143.65838 
L 161.832738 143.768407 
L 163.40626 143.871433 
L 164.979782 143.968657 
L 166.553305 144.060982 
L 168.126827 144.148936 
L 169.700349 144.232798 
L 171.273871 144.312967 
L 172.847393 144.389328 
L 174.420915 144.462778 
L 175.994437 144.532514 
L 177.567959 144.599653 
L 179.141481 144.663252 
L 180.715003 144.724549 
L 182.288526 144.783653 
L 183.862048 144.840144 
L 185.43557 144.895197 
L 187.009092 144.948777 
L 188.582614 144.999959 
L 190.156136 145.049376 
L 191.729658 145.09737 
L 193.30318 145.143883 
L 194.876702 145.188884 
L 196.450224 145.232523 
L 198.023746 145.274704 
L 199.597269 145.315764 
L 201.170791 145.355605 
L 202.744313 145.394385 
L 204.317835 145.432245 
L 205.891357 145.469056 
L 207.464879 145.504736 
L 209.038401 145.539495 
L 210.611923 145.573463 
L 212.185445 145.606548 
L 213.758967 145.638808 
L 215.33249 145.670191 
L 216.906012 145.700797 
L 218.479534 145.730679 
L 220.053056 145.759811 
L 221.626578 145.788274 
L 223.2001 145.816165 
L 224.773622 145.843385 
L 226.347144 145.870035 
L 227.920666 145.896098 
L 229.494188 145.921794 
L 231.067711 145.946916 
L 232.641233 145.971446 
L 234.214755 145.995586 
L 235.788277 146.019282 
L 237.361799 146.042513 
L 238.935321 146.065299 
L 240.508843 146.087653 
L 242.082365 146.109515 
" clip-path="url(#p4b5d0ed13d)" style="fill: none; stroke: #dd8452; stroke-width: 1.5; stroke-linecap: square"/>
   </g>
   <g id="line2d_15">
    <path d="M 48.539147 17.124555 
L 50.112669 21.648665 
L 51.686191 25.565578 
L 53.259713 29.049753 
L 54.833235 32.205807 
L 56.406758 35.182427 
L 57.98028 38.005821 
L 59.553802 40.713313 
L 61.127324 43.294636 
L 62.700846 45.785652 
L 64.274368 48.28132 
L 65.84789 50.693327 
L 67.421412 53.092905 
L 68.994934 55.403002 
L 70.568456 57.698005 
L 72.141979 59.884042 
L 73.715501 62.097071 
L 75.289023 64.221248 
L 76.862545 66.346068 
L 78.436067 68.441977 
L 80.009589 70.53503 
L 81.583111 72.602188 
L 83.156633 74.704555 
L 84.730155 76.749159 
L 86.303677 78.769101 
L 87.8772 80.79122 
L 89.450722 82.876113 
L 91.024244 84.911452 
L 92.597766 86.899553 
L 94.171288 88.919236 
L 95.74481 90.898391 
L 97.318332 92.913238 
L 98.891854 94.919941 
L 100.465376 96.99153 
L 102.038898 99.062496 
L 103.612421 101.171923 
L 105.185943 103.273406 
L 106.759465 105.437672 
L 108.332987 107.628756 
L 109.906509 109.890187 
L 111.480031 112.195132 
L 113.053553 114.6051 
L 114.627075 117.112329 
L 116.200597 119.7131 
L 117.774119 122.482505 
L 119.347642 125.380847 
L 120.921164 128.592859 
L 122.494686 132.130801 
L 124.068208 136.084816 
L 125.64173 140.645484 
L 127.215252 141.226164 
L 128.788774 141.64646 
L 130.362296 141.980587 
L 131.935818 142.270816 
L 133.50934 142.509596 
L 135.082863 142.718565 
L 136.656385 142.91219 
L 138.229907 143.087002 
L 139.803429 143.241029 
L 141.376951 143.377701 
L 142.950473 143.50926 
L 144.523995 143.629007 
L 146.097517 143.744894 
L 147.671039 143.853569 
L 149.244561 143.954654 
L 150.818084 144.048259 
L 152.391606 144.135865 
L 153.965128 144.220726 
L 155.53865 144.301318 
L 157.112172 144.375082 
L 158.685694 144.445107 
L 160.259216 144.511291 
L 161.832738 144.575917 
L 163.40626 144.639936 
L 164.979782 144.698813 
L 166.553305 144.754882 
L 168.126827 144.809061 
L 169.700349 144.861764 
L 171.273871 144.913052 
L 172.847393 144.963288 
L 174.420915 145.010241 
L 175.994437 145.055853 
L 177.567959 145.100581 
L 179.141481 145.144925 
L 180.715003 145.18641 
L 182.288526 145.226786 
L 183.862048 145.265694 
L 185.43557 145.304462 
L 187.009092 145.34222 
L 188.582614 145.378626 
L 190.156136 145.414516 
L 191.729658 145.449643 
L 193.30318 145.483481 
L 194.876702 145.516587 
L 196.450224 145.548933 
L 198.023746 145.581342 
L 199.597269 145.611924 
L 201.170791 145.642457 
L 202.744313 145.670962 
L 204.317835 145.699514 
L 205.891357 145.72801 
L 207.464879 145.755144 
L 209.038401 145.780923 
L 210.611923 145.806792 
L 212.185445 145.83305 
L 213.758967 145.857619 
L 215.33249 145.88205 
L 216.906012 145.906293 
L 218.479534 145.930075 
L 220.053056 145.952786 
L 221.626578 145.975348 
L 223.2001 145.997311 
L 224.773622 146.019581 
L 226.347144 146.041459 
L 227.920666 146.062805 
L 229.494188 146.082928 
L 231.067711 146.103182 
L 232.641233 146.123232 
L 234.214755 146.142943 
L 235.788277 146.162274 
L 237.361799 146.181691 
L 238.935321 146.200834 
L 240.508843 146.219563 
L 242.082365 146.237877 
" clip-path="url(#p4b5d0ed13d)" style="fill: none; stroke: #55a868; stroke-width: 1.5; stroke-linecap: square"/>
   </g>
   <g id="line2d_16"/>
   <g id="line2d_17"/>
   <g id="line2d_18"/>
   <g id="line2d_19">
    <path d="M 125.64173 150.843271 
L 125.64173 10.668889 
" clip-path="url(#p4b5d0ed13d)" style="fill: none; stroke-dasharray: 5.55,2.4; stroke-dashoffset: 0; stroke: #808080; stroke-width: 1.5"/>
   </g>
   <g id="patch_3">
    <path d="M 46.965625 150.843271 
L 46.965625 10.668889 
" style="fill: none; stroke: #000000; stroke-width: 0.8; stroke-linejoin: miter; stroke-linecap: square"/>
   </g>
   <g id="patch_4">
    <path d="M 251.759526 150.843271 
L 251.759526 10.668889 
" style="fill: none; stroke: #000000; stroke-width: 0.8; stroke-linejoin: miter; stroke-linecap: square"/>
   </g>
   <g id="patch_5">
    <path d="M 46.965625 150.843271 
L 251.759526 150.843271 
" style="fill: none; stroke: #000000; stroke-width: 0.8; stroke-linejoin: miter; stroke-linecap: square"/>
   </g>
   <g id="patch_6">
    <path d="M 46.965625 10.668889 
L 251.759526 10.668889 
" style="fill: none; stroke: #000000; stroke-width: 0.8; stroke-linejoin: miter; stroke-linecap: square"/>
   </g>
   <g id="legend_1">
    <g id="patch_7">
     <path d="M 96.314214 62.703264 
L 244.759526 62.703264 
Q 246.759526 62.703264 246.759526 60.703264 
L 246.759526 17.668889 
Q 246.759526 15.668889 244.759526 15.668889 
L 96.314214 15.668889 
Q 94.314214 15.668889 94.314214 17.668889 
L 94.314214 60.703264 
Q 94.314214 62.703264 96.314214 62.703264 
z
" style="fill: #ffffff; opacity: 0.8; stroke: #cccccc; stroke-linejoin: miter"/>
    </g>
    <g id="line2d_20">
     <path d="M 98.314214 23.767327 
L 108.314214 23.767327 
L 118.314214 23.767327 
" style="fill: none; stroke: #4c72b0; stroke-width: 1.5; stroke-linecap: square"/>
    </g>
    <g id="text_15">
     <!-- Random -->
     <g transform="translate(126.314214 27.267327) scale(0.1 -0.1)">
      <defs>
       <path id="DejaVuSans-52" d="M 2841 2188 
Q 3044 2119 3236 1894 
Q 3428 1669 3622 1275 
L 4263 0 
L 3584 0 
L 2988 1197 
Q 2756 1666 2539 1819 
Q 2322 1972 1947 1972 
L 1259 1972 
L 1259 0 
L 628 0 
L 628 4666 
L 2053 4666 
Q 2853 4666 3247 4331 
Q 3641 3997 3641 3322 
Q 3641 2881 3436 2590 
Q 3231 2300 2841 2188 
z
M 1259 4147 
L 1259 2491 
L 2053 2491 
Q 2509 2491 2742 2702 
Q 2975 2913 2975 3322 
Q 2975 3731 2742 3939 
Q 2509 4147 2053 4147 
L 1259 4147 
z
" transform="scale(0.015625)"/>
       <path id="DejaVuSans-64" d="M 2906 2969 
L 2906 4863 
L 3481 4863 
L 3481 0 
L 2906 0 
L 2906 525 
Q 2725 213 2448 61 
Q 2172 -91 1784 -91 
Q 1150 -91 751 415 
Q 353 922 353 1747 
Q 353 2572 751 3078 
Q 1150 3584 1784 3584 
Q 2172 3584 2448 3432 
Q 2725 3281 2906 2969 
z
M 947 1747 
Q 947 1113 1208 752 
Q 1469 391 1925 391 
Q 2381 391 2643 752 
Q 2906 1113 2906 1747 
Q 2906 2381 2643 2742 
Q 2381 3103 1925 3103 
Q 1469 3103 1208 2742 
Q 947 2381 947 1747 
z
" transform="scale(0.015625)"/>
      </defs>
      <use xlink:href="#DejaVuSans-52"/>
      <use xlink:href="#DejaVuSans-61" x="67.232422"/>
      <use xlink:href="#DejaVuSans-6e" x="128.511719"/>
      <use xlink:href="#DejaVuSans-64" x="191.890625"/>
      <use xlink:href="#DejaVuSans-6f" x="255.367188"/>
      <use xlink:href="#DejaVuSans-6d" x="316.548828"/>
     </g>
    </g>
    <g id="line2d_21">
     <path d="M 98.314214 38.445452 
L 108.314214 38.445452 
L 118.314214 38.445452 
" style="fill: none; stroke: #dd8452; stroke-width: 1.5; stroke-linecap: square"/>
    </g>
    <g id="text_16">
     <!-- Classification-optimal -->
     <g transform="translate(126.314214 41.945452) scale(0.1 -0.1)">
      <defs>
       <path id="DejaVuSans-2d" d="M 313 2009 
L 1997 2009 
L 1997 1497 
L 313 1497 
L 313 2009 
z
" transform="scale(0.015625)"/>
      </defs>
      <use xlink:href="#DejaVuSans-43"/>
      <use xlink:href="#DejaVuSans-6c" x="69.824219"/>
      <use xlink:href="#DejaVuSans-61" x="97.607422"/>
      <use xlink:href="#DejaVuSans-73" x="158.886719"/>
      <use xlink:href="#DejaVuSans-73" x="210.986328"/>
      <use xlink:href="#DejaVuSans-69" x="263.085938"/>
      <use xlink:href="#DejaVuSans-66" x="290.869141"/>
      <use xlink:href="#DejaVuSans-69" x="326.074219"/>
      <use xlink:href="#DejaVuSans-63" x="353.857422"/>
      <use xlink:href="#DejaVuSans-61" x="408.837891"/>
      <use xlink:href="#DejaVuSans-74" x="470.117188"/>
      <use xlink:href="#DejaVuSans-69" x="509.326172"/>
      <use xlink:href="#DejaVuSans-6f" x="537.109375"/>
      <use xlink:href="#DejaVuSans-6e" x="598.291016"/>
      <use xlink:href="#DejaVuSans-2d" x="661.669922"/>
      <use xlink:href="#DejaVuSans-6f" x="699.628906"/>
      <use xlink:href="#DejaVuSans-70" x="760.810547"/>
      <use xlink:href="#DejaVuSans-74" x="824.287109"/>
      <use xlink:href="#DejaVuSans-69" x="863.496094"/>
      <use xlink:href="#DejaVuSans-6d" x="891.279297"/>
      <use xlink:href="#DejaVuSans-61" x="988.691406"/>
      <use xlink:href="#DejaVuSans-6c" x="1049.970703"/>
     </g>
    </g>
    <g id="line2d_22">
     <path d="M 98.314214 53.123577 
L 108.314214 53.123577 
L 118.314214 53.123577 
" style="fill: none; stroke: #55a868; stroke-width: 1.5; stroke-linecap: square"/>
    </g>
    <g id="text_17">
     <!-- Reconstruction-optimal -->
     <g transform="translate(126.314214 56.623577) scale(0.1 -0.1)">
      <defs>
       <path id="DejaVuSans-75" d="M 544 1381 
L 544 3500 
L 1119 3500 
L 1119 1403 
Q 1119 906 1312 657 
Q 1506 409 1894 409 
Q 2359 409 2629 706 
Q 2900 1003 2900 1516 
L 2900 3500 
L 3475 3500 
L 3475 0 
L 2900 0 
L 2900 538 
Q 2691 219 2414 64 
Q 2138 -91 1772 -91 
Q 1169 -91 856 284 
Q 544 659 544 1381 
z
M 1991 3584 
L 1991 3584 
z
" transform="scale(0.015625)"/>
      </defs>
      <use xlink:href="#DejaVuSans-52"/>
      <use xlink:href="#DejaVuSans-65" x="64.982422"/>
      <use xlink:href="#DejaVuSans-63" x="126.505859"/>
      <use xlink:href="#DejaVuSans-6f" x="181.486328"/>
      <use xlink:href="#DejaVuSans-6e" x="242.667969"/>
      <use xlink:href="#DejaVuSans-73" x="306.046875"/>
      <use xlink:href="#DejaVuSans-74" x="358.146484"/>
      <use xlink:href="#DejaVuSans-72" x="397.355469"/>
      <use xlink:href="#DejaVuSans-75" x="438.46875"/>
      <use xlink:href="#DejaVuSans-63" x="501.847656"/>
      <use xlink:href="#DejaVuSans-74" x="556.828125"/>
      <use xlink:href="#DejaVuSans-69" x="596.037109"/>
      <use xlink:href="#DejaVuSans-6f" x="623.820312"/>
      <use xlink:href="#DejaVuSans-6e" x="685.001953"/>
      <use xlink:href="#DejaVuSans-2d" x="748.380859"/>
      <use xlink:href="#DejaVuSans-6f" x="786.339844"/>
      <use xlink:href="#DejaVuSans-70" x="847.521484"/>
      <use xlink:href="#DejaVuSans-74" x="910.998047"/>
      <use xlink:href="#DejaVuSans-69" x="950.207031"/>
      <use xlink:href="#DejaVuSans-6d" x="977.990234"/>
      <use xlink:href="#DejaVuSans-61" x="1075.402344"/>
      <use xlink:href="#DejaVuSans-6c" x="1136.681641"/>
     </g>
    </g>
   </g>
  </g>
 </g>
 <defs>
  <clipPath id="p4b5d0ed13d">
   <rect x="46.965625" y="10.668889" width="204.793901" height="140.174382"/>
  </clipPath>
 </defs>
</svg>
