<?xml version="1.0" encoding="utf-8" standalone="no"?>
<!DOCTYPE svg PUBLIC "-//W3C//DTD SVG 1.1//EN"
  "http://www.w3.org/Graphics/SVG/1.1/DTD/svg11.dtd">
<svg xmlns:xlink="http://www.w3.org/1999/xlink" width="260.399637pt" height="188.399521pt" viewBox="0 0 260.399637 188.399521" xmlns="http://www.w3.org/2000/svg" version="1.1">
 <metadata>
  <rdf:RDF xmlns:dc="http://purl.org/dc/elements/1.1/" xmlns:cc="http://creativecommons.org/ns#" xmlns:rdf="http://www.w3.org/1999/02/22-rdf-syntax-ns#">
   <cc:Work>
    <dc:type rdf:resource="http://purl.org/dc/dcmitype/StillImage"/>
    <dc:date>1980-01-01T00:00:00+00:00</dc:date>
    <dc:format>image/svg+xml</dc:format>
    <dc:creator>
     <cc:Agent>
      <dc:title>Matplotlib v3.7.5, https://matplotlib.org/</dc:title>
     </cc:Agent>
    </dc:creator>
   </cc:Work>
  </rdf:RDF>
 </metadata>
 <defs>
  <style type="text/css">*{stroke-linejoin: round; stroke-linecap: butt}</style>
 </defs>
 <g id="figure_1">
  <g id="patch_1">
   <path d="M 0 188.399521 
L 260.399637 188.399521 
L 260.399637 0 
L 0 0 
z
" style="fill: #ffffff"/>
  </g>
  <g id="axes_1">
   <g id="patch_2">
    <path d="M 46.965625 150.843271 
L 251.759526 150.843271 
L 251.759526 10.544793 
L 46.965625 10.544793 
z
" style="fill: #ffffff"/>
   </g>
   <g id="PolyCollection_1">
    <defs>
     <path id="m2de5f2807d" d="M 48.539147 -169.483121 
L 48.539147 -169.019407 
L 50.112669 -163.689349 
L 51.686191 -159.271429 
L 53.259713 -155.526217 
L 54.833235 -152.34225 
L 56.406758 -149.315856 
L 57.98028 -146.400383 
L 59.553802 -143.560502 
L 61.127324 -140.980888 
L 62.700846 -138.553261 
L 64.274368 -136.180873 
L 65.84789 -133.87645 
L 67.421412 -131.588608 
L 68.994934 -129.393144 
L 70.568456 -127.291362 
L 72.141979 -125.050984 
L 73.715501 -123.048408 
L 75.289023 -120.98955 
L 76.862545 -118.931061 
L 78.436067 -116.941613 
L 80.009589 -115.01803 
L 81.583111 -113.154527 
L 83.156633 -111.165767 
L 84.730155 -109.319024 
L 86.303677 -107.55122 
L 87.8772 -105.713617 
L 89.450722 -104.102522 
L 91.024244 -102.349561 
L 92.597766 -100.54134 
L 94.171288 -98.762098 
L 95.74481 -97.039302 
L 97.318332 -95.300883 
L 98.891854 -93.869418 
L 100.465376 -92.196435 
L 102.038898 -90.752512 
L 103.612421 -89.289337 
L 105.185943 -87.745618 
L 106.759465 -86.549379 
L 108.332987 -85.247645 
L 109.906509 -84.099233 
L 111.480031 -83.190246 
L 113.053553 -82.321767 
L 114.627075 -82.044543 
L 116.200597 -81.751135 
L 117.774119 -82.73801 
L 119.347642 -84.079176 
L 120.921164 -86.396724 
L 122.494686 -89.744267 
L 124.068208 -98.038696 
L 125.64173 -109.961026 
L 127.215252 -92.912732 
L 128.788774 -84.035396 
L 130.362296 -78.508844 
L 131.935818 -74.226254 
L 133.50934 -70.896372 
L 135.082863 -68.231733 
L 136.656385 -65.723012 
L 138.229907 -64.063013 
L 139.803429 -62.695917 
L 141.376951 -61.189711 
L 142.950473 -59.96402 
L 144.523995 -58.578259 
L 146.097517 -57.654622 
L 147.671039 -56.723621 
L 149.244561 -55.935849 
L 150.818084 -55.157009 
L 152.391606 -54.408909 
L 153.965128 -53.790377 
L 155.53865 -53.328813 
L 157.112172 -52.813116 
L 158.685694 -52.423386 
L 160.259216 -52.04889 
L 161.832738 -51.704939 
L 163.40626 -51.365553 
L 164.979782 -51.040962 
L 166.553305 -50.704552 
L 168.126827 -50.403968 
L 169.700349 -50.091777 
L 171.273871 -49.892499 
L 172.847393 -49.670228 
L 174.420915 -49.433378 
L 175.994437 -49.250005 
L 177.567959 -49.040997 
L 179.141481 -48.834644 
L 180.715003 -48.614585 
L 182.288526 -48.434631 
L 183.862048 -48.27824 
L 185.43557 -48.100124 
L 187.009092 -47.931099 
L 188.582614 -47.796744 
L 190.156136 -47.686099 
L 191.729658 -47.533684 
L 193.30318 -47.398372 
L 194.876702 -47.246886 
L 196.450224 -47.132246 
L 198.023746 -46.992118 
L 199.597269 -46.890283 
L 201.170791 -46.757462 
L 202.744313 -46.630623 
L 204.317835 -46.539889 
L 205.891357 -46.426368 
L 207.464879 -46.312926 
L 209.038401 -46.237061 
L 210.611923 -46.136906 
L 212.185445 -46.025516 
L 213.758967 -45.955271 
L 215.33249 -45.877926 
L 216.906012 -45.810543 
L 218.479534 -45.721657 
L 220.053056 -45.661843 
L 221.626578 -45.589928 
L 223.2001 -45.530497 
L 224.773622 -45.443452 
L 226.347144 -45.361626 
L 227.920666 -45.30613 
L 229.494188 -45.208951 
L 231.067711 -45.154648 
L 232.641233 -45.091292 
L 234.214755 -45.023649 
L 235.788277 -44.965616 
L 237.361799 -44.890188 
L 238.935321 -44.835913 
L 240.508843 -44.79108 
L 242.082365 -44.739163 
L 242.082365 -44.859352 
L 242.082365 -44.859352 
L 240.508843 -44.910564 
L 238.935321 -44.951037 
L 237.361799 -45.010375 
L 235.788277 -45.085386 
L 234.214755 -45.148825 
L 232.641233 -45.209836 
L 231.067711 -45.276179 
L 229.494188 -45.328184 
L 227.920666 -45.426946 
L 226.347144 -45.486828 
L 224.773622 -45.570977 
L 223.2001 -45.658124 
L 221.626578 -45.714431 
L 220.053056 -45.786868 
L 218.479534 -45.846039 
L 216.906012 -45.933527 
L 215.33249 -46.016035 
L 213.758967 -46.09104 
L 212.185445 -46.157271 
L 210.611923 -46.277207 
L 209.038401 -46.376138 
L 207.464879 -46.452788 
L 205.891357 -46.560999 
L 204.317835 -46.673062 
L 202.744313 -46.771466 
L 201.170791 -46.892608 
L 199.597269 -47.035588 
L 198.023746 -47.140899 
L 196.450224 -47.273845 
L 194.876702 -47.385121 
L 193.30318 -47.544028 
L 191.729658 -47.678787 
L 190.156136 -47.837672 
L 188.582614 -47.955856 
L 187.009092 -48.092103 
L 185.43557 -48.250223 
L 183.862048 -48.440944 
L 182.288526 -48.59871 
L 180.715003 -48.785387 
L 179.141481 -48.997963 
L 177.567959 -49.203433 
L 175.994437 -49.432786 
L 174.420915 -49.609208 
L 172.847393 -49.861664 
L 171.273871 -50.088027 
L 169.700349 -50.288457 
L 168.126827 -50.598301 
L 166.553305 -50.900814 
L 164.979782 -51.252421 
L 163.40626 -51.563295 
L 161.832738 -51.91677 
L 160.259216 -52.268028 
L 158.685694 -52.632684 
L 157.112172 -53.052872 
L 155.53865 -53.580643 
L 153.965128 -54.042238 
L 152.391606 -54.681035 
L 150.818084 -55.434005 
L 149.244561 -56.220803 
L 147.671039 -57.037099 
L 146.097517 -57.974919 
L 144.523995 -58.922118 
L 142.950473 -60.325661 
L 141.376951 -61.566005 
L 139.803429 -63.109348 
L 138.229907 -64.509598 
L 136.656385 -66.194424 
L 135.082863 -68.769423 
L 133.50934 -71.451837 
L 131.935818 -74.865883 
L 130.362296 -79.270901 
L 128.788774 -84.87795 
L 127.215252 -93.925386 
L 125.64173 -111.2633 
L 124.068208 -99.064696 
L 122.494686 -90.590315 
L 120.921164 -87.203233 
L 119.347642 -84.789284 
L 117.774119 -83.347451 
L 116.200597 -82.302414 
L 114.627075 -82.601195 
L 113.053553 -82.843481 
L 111.480031 -83.707849 
L 109.906509 -84.579403 
L 108.332987 -85.765507 
L 106.759465 -87.032479 
L 105.185943 -88.23044 
L 103.612421 -89.763478 
L 102.038898 -91.26926 
L 100.465376 -92.692914 
L 98.891854 -94.336158 
L 97.318332 -95.795569 
L 95.74481 -97.525623 
L 94.171288 -99.261654 
L 92.597766 -101.039908 
L 91.024244 -102.849447 
L 89.450722 -104.604675 
L 87.8772 -106.181253 
L 86.303677 -108.055262 
L 84.730155 -109.796504 
L 83.156633 -111.649601 
L 81.583111 -113.65398 
L 80.009589 -115.504726 
L 78.436067 -117.446456 
L 76.862545 -119.425779 
L 75.289023 -121.466833 
L 73.715501 -123.506456 
L 72.141979 -125.568951 
L 70.568456 -127.786242 
L 68.994934 -129.900797 
L 67.421412 -132.075829 
L 65.84789 -134.385205 
L 64.274368 -136.654907 
L 62.700846 -139.050422 
L 61.127324 -141.466777 
L 59.553802 -144.050854 
L 57.98028 -146.886828 
L 56.406758 -149.804624 
L 54.833235 -152.803702 
L 53.259713 -155.975007 
L 51.686191 -159.740977 
L 50.112669 -164.16597 
L 48.539147 -169.483121 
z
" style="stroke: #4c72b0; stroke-opacity: 0.2"/>
    </defs>
    <g clip-path="url(#p04d1be09a3)">
     <use xlink:href="#m2de5f2807d" x="0" y="188.399521" style="fill: #4c72b0; fill-opacity: 0.2; stroke: #4c72b0; stroke-opacity: 0.2"/>
    </g>
   </g>
   <g id="PolyCollection_2">
    <defs>
     <path id="m8761379418" d="M 48.539147 -167.351948 
L 48.539147 -166.883737 
L 50.112669 -160.908474 
L 51.686191 -156.24854 
L 53.259713 -152.131551 
L 54.833235 -148.463758 
L 56.406758 -145.386127 
L 57.98028 -142.267939 
L 59.553802 -139.377651 
L 61.127324 -136.625837 
L 62.700846 -134.086815 
L 64.274368 -131.630972 
L 65.84789 -129.193165 
L 67.421412 -126.893683 
L 68.994934 -124.694939 
L 70.568456 -122.513476 
L 72.141979 -120.480203 
L 73.715501 -118.419721 
L 75.289023 -116.434934 
L 76.862545 -114.430752 
L 78.436067 -112.43958 
L 80.009589 -110.386108 
L 81.583111 -108.372992 
L 83.156633 -106.415433 
L 84.730155 -104.579053 
L 86.303677 -102.678691 
L 87.8772 -100.753523 
L 89.450722 -98.853742 
L 91.024244 -97.075793 
L 92.597766 -95.249338 
L 94.171288 -93.429239 
L 95.74481 -91.529125 
L 97.318332 -89.685603 
L 98.891854 -87.811555 
L 100.465376 -85.912278 
L 102.038898 -84.020955 
L 103.612421 -82.173477 
L 105.185943 -80.224567 
L 106.759465 -78.217731 
L 108.332987 -76.32658 
L 109.906509 -74.412476 
L 111.480031 -72.468243 
L 113.053553 -70.433978 
L 114.627075 -68.334412 
L 116.200597 -66.348454 
L 117.774119 -64.190548 
L 119.347642 -62.019515 
L 120.921164 -59.801324 
L 122.494686 -57.580424 
L 124.068208 -55.313211 
L 125.64173 -52.966691 
L 127.215252 -51.895333 
L 128.788774 -50.958104 
L 130.362296 -50.171405 
L 131.935818 -49.54769 
L 133.50934 -48.98254 
L 135.082863 -48.477017 
L 136.656385 -48.024167 
L 138.229907 -47.618368 
L 139.803429 -47.248715 
L 141.376951 -46.914177 
L 142.950473 -46.629677 
L 144.523995 -46.374287 
L 146.097517 -46.149829 
L 147.671039 -45.925388 
L 149.244561 -45.719238 
L 150.818084 -45.54386 
L 152.391606 -45.335845 
L 153.965128 -45.189008 
L 155.53865 -45.052923 
L 157.112172 -44.926862 
L 158.685694 -44.787759 
L 160.259216 -44.703832 
L 161.832738 -44.578515 
L 163.40626 -44.48532 
L 164.979782 -44.380721 
L 166.553305 -44.291395 
L 168.126827 -44.197964 
L 169.700349 -44.141679 
L 171.273871 -44.069653 
L 172.847393 -43.973691 
L 174.420915 -43.90446 
L 175.994437 -43.839705 
L 177.567959 -43.764406 
L 179.141481 -43.70544 
L 180.715003 -43.656685 
L 182.288526 -43.598118 
L 183.862048 -43.542449 
L 185.43557 -43.473836 
L 187.009092 -43.433262 
L 188.582614 -43.368689 
L 190.156136 -43.311268 
L 191.729658 -43.263629 
L 193.30318 -43.21852 
L 194.876702 -43.178671 
L 196.450224 -43.134533 
L 198.023746 -43.105347 
L 199.597269 -43.070799 
L 201.170791 -43.029298 
L 202.744313 -42.995543 
L 204.317835 -42.949238 
L 205.891357 -42.908252 
L 207.464879 -42.885606 
L 209.038401 -42.845491 
L 210.611923 -42.808705 
L 212.185445 -42.770246 
L 213.758967 -42.734911 
L 215.33249 -42.693148 
L 216.906012 -42.674007 
L 218.479534 -42.646305 
L 220.053056 -42.612799 
L 221.626578 -42.584509 
L 223.2001 -42.559337 
L 224.773622 -42.528303 
L 226.347144 -42.501201 
L 227.920666 -42.475088 
L 229.494188 -42.446594 
L 231.067711 -42.422902 
L 232.641233 -42.395632 
L 234.214755 -42.364873 
L 235.788277 -42.340302 
L 237.361799 -42.316533 
L 238.935321 -42.303322 
L 240.508843 -42.284198 
L 242.082365 -42.256581 
L 242.082365 -42.338665 
L 242.082365 -42.338665 
L 240.508843 -42.36883 
L 238.935321 -42.388826 
L 237.361799 -42.399924 
L 235.788277 -42.421873 
L 234.214755 -42.454327 
L 232.641233 -42.481308 
L 231.067711 -42.510934 
L 229.494188 -42.533044 
L 227.920666 -42.562492 
L 226.347144 -42.589943 
L 224.773622 -42.617746 
L 223.2001 -42.647109 
L 221.626578 -42.671759 
L 220.053056 -42.703577 
L 218.479534 -42.737566 
L 216.906012 -42.763081 
L 215.33249 -42.786444 
L 213.758967 -42.820599 
L 212.185445 -42.860454 
L 210.611923 -42.901203 
L 209.038401 -42.940248 
L 207.464879 -42.975229 
L 205.891357 -43.004419 
L 204.317835 -43.040951 
L 202.744313 -43.088489 
L 201.170791 -43.126343 
L 199.597269 -43.169957 
L 198.023746 -43.193637 
L 196.450224 -43.22737 
L 194.876702 -43.273162 
L 193.30318 -43.31538 
L 191.729658 -43.359435 
L 190.156136 -43.410306 
L 188.582614 -43.460208 
L 187.009092 -43.529894 
L 185.43557 -43.573416 
L 183.862048 -43.638437 
L 182.288526 -43.698494 
L 180.715003 -43.760086 
L 179.141481 -43.805811 
L 177.567959 -43.869599 
L 175.994437 -43.951408 
L 174.420915 -44.007975 
L 172.847393 -44.07762 
L 171.273871 -44.172113 
L 169.700349 -44.245869 
L 168.126827 -44.307833 
L 166.553305 -44.403286 
L 164.979782 -44.491641 
L 163.40626 -44.595508 
L 161.832738 -44.690143 
L 160.259216 -44.815216 
L 158.685694 -44.904795 
L 157.112172 -45.048135 
L 155.53865 -45.173767 
L 153.965128 -45.310994 
L 152.391606 -45.455881 
L 150.818084 -45.668435 
L 149.244561 -45.839141 
L 147.671039 -46.053284 
L 146.097517 -46.27554 
L 144.523995 -46.503652 
L 142.950473 -46.766058 
L 141.376951 -47.06818 
L 139.803429 -47.390173 
L 138.229907 -47.765923 
L 136.656385 -48.181254 
L 135.082863 -48.63734 
L 133.50934 -49.154138 
L 131.935818 -49.723039 
L 130.362296 -50.362388 
L 128.788774 -51.154443 
L 127.215252 -52.109654 
L 125.64173 -53.185674 
L 124.068208 -55.572755 
L 122.494686 -57.866709 
L 120.921164 -60.105238 
L 119.347642 -62.337562 
L 117.774119 -64.547256 
L 116.200597 -66.690305 
L 114.627075 -68.729065 
L 113.053553 -70.814898 
L 111.480031 -72.844505 
L 109.906509 -74.81007 
L 108.332987 -76.71005 
L 106.759465 -78.629327 
L 105.185943 -80.652933 
L 103.612421 -82.613492 
L 102.038898 -84.464149 
L 100.465376 -86.331198 
L 98.891854 -88.24442 
L 97.318332 -90.128482 
L 95.74481 -91.989595 
L 94.171288 -93.901973 
L 92.597766 -95.734874 
L 91.024244 -97.530703 
L 89.450722 -99.320762 
L 87.8772 -101.212699 
L 86.303677 -103.13633 
L 84.730155 -105.067717 
L 83.156633 -106.886369 
L 81.583111 -108.823056 
L 80.009589 -110.881069 
L 78.436067 -112.914113 
L 76.862545 -114.937219 
L 75.289023 -116.904821 
L 73.715501 -118.925194 
L 72.141979 -120.964765 
L 70.568456 -123.007541 
L 68.994934 -125.200521 
L 67.421412 -127.359521 
L 65.84789 -129.703029 
L 64.274368 -132.115125 
L 62.700846 -134.600547 
L 61.127324 -137.141568 
L 59.553802 -139.87987 
L 57.98028 -142.758326 
L 56.406758 -145.906113 
L 54.833235 -148.967411 
L 53.259713 -152.631283 
L 51.686191 -156.73426 
L 50.112669 -161.403777 
L 48.539147 -167.351948 
z
" style="stroke: #dd8452; stroke-opacity: 0.2"/>
    </defs>
    <g clip-path="url(#p04d1be09a3)">
     <use xlink:href="#m8761379418" x="0" y="188.399521" style="fill: #dd8452; fill-opacity: 0.2; stroke: #dd8452; stroke-opacity: 0.2"/>
    </g>
   </g>
   <g id="PolyCollection_3">
    <defs>
     <path id="m42f8ccedbe" d="M 48.539147 -171.392779 
L 48.539147 -170.955565 
L 50.112669 -166.40695 
L 51.686191 -162.580751 
L 53.259713 -159.048299 
L 54.833235 -155.886973 
L 56.406758 -152.902937 
L 57.98028 -150.040321 
L 59.553802 -147.339687 
L 61.127324 -144.744522 
L 62.700846 -142.250303 
L 64.274368 -139.801831 
L 65.84789 -137.464562 
L 67.421412 -135.055624 
L 68.994934 -132.735414 
L 70.568456 -130.47064 
L 72.141979 -128.293803 
L 73.715501 -126.200034 
L 75.289023 -124.017145 
L 76.862545 -121.920037 
L 78.436067 -119.860648 
L 80.009589 -117.75821 
L 81.583111 -115.718967 
L 83.156633 -113.60036 
L 84.730155 -111.526661 
L 86.303677 -109.448904 
L 87.8772 -107.410428 
L 89.450722 -105.311299 
L 91.024244 -103.309763 
L 92.597766 -101.265418 
L 94.171288 -99.234201 
L 95.74481 -97.27029 
L 97.318332 -95.255714 
L 98.891854 -93.208816 
L 100.465376 -91.189833 
L 102.038898 -89.101179 
L 103.612421 -87.025196 
L 105.185943 -84.914615 
L 106.759465 -82.830747 
L 108.332987 -80.638746 
L 109.906509 -78.355296 
L 111.480031 -76.035268 
L 113.053553 -73.659975 
L 114.627075 -71.154024 
L 116.200597 -68.477083 
L 117.774119 -65.705451 
L 119.347642 -62.821506 
L 120.921164 -59.573691 
L 122.494686 -56.141778 
L 124.068208 -52.19431 
L 125.64173 -47.700701 
L 127.215252 -47.143242 
L 128.788774 -46.740065 
L 130.362296 -46.404708 
L 131.935818 -46.117638 
L 133.50934 -45.873726 
L 135.082863 -45.658987 
L 136.656385 -45.487853 
L 138.229907 -45.315582 
L 139.803429 -45.148724 
L 141.376951 -45.003979 
L 142.950473 -44.853828 
L 144.523995 -44.737472 
L 146.097517 -44.627194 
L 147.671039 -44.509716 
L 149.244561 -44.424669 
L 150.818084 -44.332088 
L 152.391606 -44.235287 
L 153.965128 -44.152504 
L 155.53865 -44.06634 
L 157.112172 -44.004005 
L 158.685694 -43.945886 
L 160.259216 -43.887952 
L 161.832738 -43.813828 
L 163.40626 -43.747214 
L 164.979782 -43.690422 
L 166.553305 -43.641492 
L 168.126827 -43.585535 
L 169.700349 -43.533355 
L 171.273871 -43.484497 
L 172.847393 -43.437204 
L 174.420915 -43.392893 
L 175.994437 -43.340724 
L 177.567959 -43.298592 
L 179.141481 -43.241332 
L 180.715003 -43.204866 
L 182.288526 -43.149372 
L 183.862048 -43.113294 
L 185.43557 -43.071173 
L 187.009092 -43.029397 
L 188.582614 -42.991326 
L 190.156136 -42.960244 
L 191.729658 -42.92154 
L 193.30318 -42.903168 
L 194.876702 -42.859043 
L 196.450224 -42.825913 
L 198.023746 -42.792169 
L 199.597269 -42.770152 
L 201.170791 -42.731347 
L 202.744313 -42.709326 
L 204.317835 -42.679083 
L 205.891357 -42.651711 
L 207.464879 -42.627076 
L 209.038401 -42.592731 
L 210.611923 -42.575686 
L 212.185445 -42.553914 
L 213.758967 -42.533693 
L 215.33249 -42.513798 
L 216.906012 -42.481553 
L 218.479534 -42.458208 
L 220.053056 -42.437677 
L 221.626578 -42.410392 
L 223.2001 -42.388734 
L 224.773622 -42.361466 
L 226.347144 -42.34049 
L 227.920666 -42.331479 
L 229.494188 -42.309866 
L 231.067711 -42.291802 
L 232.641233 -42.273094 
L 234.214755 -42.254346 
L 235.788277 -42.219413 
L 237.361799 -42.211208 
L 238.935321 -42.195738 
L 240.508843 -42.177027 
L 242.082365 -42.153794 
L 242.082365 -42.236413 
L 242.082365 -42.236413 
L 240.508843 -42.260307 
L 238.935321 -42.282291 
L 237.361799 -42.302835 
L 235.788277 -42.306672 
L 234.214755 -42.337894 
L 232.641233 -42.359109 
L 231.067711 -42.376502 
L 229.494188 -42.400376 
L 227.920666 -42.416017 
L 226.347144 -42.427375 
L 224.773622 -42.452542 
L 223.2001 -42.474568 
L 221.626578 -42.493453 
L 220.053056 -42.522029 
L 218.479534 -42.54414 
L 216.906012 -42.567999 
L 215.33249 -42.599645 
L 213.758967 -42.621054 
L 212.185445 -42.646049 
L 210.611923 -42.666853 
L 209.038401 -42.686167 
L 207.464879 -42.717131 
L 205.891357 -42.746833 
L 204.317835 -42.769549 
L 202.744313 -42.800411 
L 201.170791 -42.819644 
L 199.597269 -42.857332 
L 198.023746 -42.884756 
L 196.450224 -42.914727 
L 194.876702 -42.949165 
L 193.30318 -42.990433 
L 191.729658 -43.015851 
L 190.156136 -43.053889 
L 188.582614 -43.087965 
L 187.009092 -43.127222 
L 185.43557 -43.167233 
L 183.862048 -43.209894 
L 182.288526 -43.251058 
L 180.715003 -43.299735 
L 179.141481 -43.343469 
L 177.567959 -43.396489 
L 175.994437 -43.442387 
L 174.420915 -43.49048 
L 172.847393 -43.532486 
L 171.273871 -43.582834 
L 169.700349 -43.631604 
L 168.126827 -43.679586 
L 166.553305 -43.739107 
L 164.979782 -43.791112 
L 163.40626 -43.845037 
L 161.832738 -43.925028 
L 160.259216 -43.991233 
L 158.685694 -44.048429 
L 157.112172 -44.10384 
L 155.53865 -44.177344 
L 153.965128 -44.262657 
L 152.391606 -44.345948 
L 150.818084 -44.43824 
L 149.244561 -44.530979 
L 147.671039 -44.621355 
L 146.097517 -44.738579 
L 144.523995 -44.856662 
L 142.950473 -44.969999 
L 141.376951 -45.123655 
L 139.803429 -45.260353 
L 138.229907 -45.436395 
L 136.656385 -45.607227 
L 135.082863 -45.788085 
L 133.50934 -46.002138 
L 131.935818 -46.247744 
L 130.362296 -46.539487 
L 128.788774 -46.871942 
L 127.215252 -47.299535 
L 125.64173 -47.857515 
L 124.068208 -52.505345 
L 122.494686 -56.501164 
L 120.921164 -59.980762 
L 119.347642 -63.231078 
L 117.774119 -66.141397 
L 116.200597 -68.91755 
L 114.627075 -71.58531 
L 113.053553 -74.114383 
L 111.480031 -76.49641 
L 109.906509 -78.805834 
L 108.332987 -81.093779 
L 106.759465 -83.314207 
L 105.185943 -85.367439 
L 103.612421 -87.485832 
L 102.038898 -89.573664 
L 100.465376 -91.651257 
L 98.891854 -93.692041 
L 97.318332 -95.732997 
L 95.74481 -97.741485 
L 94.171288 -99.706797 
L 92.597766 -101.726263 
L 91.024244 -103.773809 
L 89.450722 -105.777521 
L 87.8772 -107.857249 
L 86.303677 -109.934139 
L 84.730155 -111.982487 
L 83.156633 -114.057082 
L 81.583111 -116.211559 
L 80.009589 -118.234392 
L 78.436067 -120.328074 
L 76.862545 -122.391047 
L 75.289023 -124.471957 
L 73.715501 -126.679601 
L 72.141979 -128.747167 
L 70.568456 -130.93738 
L 68.994934 -133.194927 
L 67.421412 -135.520948 
L 65.84789 -137.928595 
L 64.274368 -140.255937 
L 62.700846 -142.701438 
L 61.127324 -145.195858 
L 59.553802 -147.773204 
L 57.98028 -150.491713 
L 56.406758 -153.355923 
L 54.833235 -156.31565 
L 53.259713 -159.484378 
L 51.686191 -163.017455 
L 50.112669 -166.845795 
L 48.539147 -171.392779 
z
" style="stroke: #55a868; stroke-opacity: 0.2"/>
    </defs>
    <g clip-path="url(#p04d1be09a3)">
     <use xlink:href="#m42f8ccedbe" x="0" y="188.399521" style="fill: #55a868; fill-opacity: 0.2; stroke: #55a868; stroke-opacity: 0.2"/>
    </g>
   </g>
   <g id="matplotlib.axis_1">
    <g id="xtick_1">
     <g id="line2d_1">
      <defs>
       <path id="m152762b088" d="M 0 0 
L 0 3.5 
" style="stroke: #000000; stroke-width: 0.8"/>
      </defs>
      <g>
       <use xlink:href="#m152762b088" x="46.965625" y="150.843271" style="stroke: #000000; stroke-width: 0.8"/>
      </g>
     </g>
     <g id="text_1">
      <!-- 0 -->
      <g transform="translate(43.784375 165.441709) scale(0.1 -0.1)">
       <defs>
        <path id="DejaVuSans-30" d="M 2034 4250 
Q 1547 4250 1301 3770 
Q 1056 3291 1056 2328 
Q 1056 1369 1301 889 
Q 1547 409 2034 409 
Q 2525 409 2770 889 
Q 3016 1369 3016 2328 
Q 3016 3291 2770 3770 
Q 2525 4250 2034 4250 
z
M 2034 4750 
Q 2819 4750 3233 4129 
Q 3647 3509 3647 2328 
Q 3647 1150 3233 529 
Q 2819 -91 2034 -91 
Q 1250 -91 836 529 
Q 422 1150 422 2328 
Q 422 3509 836 4129 
Q 1250 4750 2034 4750 
z
" transform="scale(0.015625)"/>
       </defs>
       <use xlink:href="#DejaVuSans-30"/>
      </g>
     </g>
    </g>
    <g id="xtick_2">
     <g id="line2d_2">
      <g>
       <use xlink:href="#m152762b088" x="86.303677" y="150.843271" style="stroke: #000000; stroke-width: 0.8"/>
      </g>
     </g>
     <g id="text_2">
      <!-- 25 -->
      <g transform="translate(79.941177 165.441709) scale(0.1 -0.1)">
       <defs>
        <path id="DejaVuSans-32" d="M 1228 531 
L 3431 531 
L 3431 0 
L 469 0 
L 469 531 
Q 828 903 1448 1529 
Q 2069 2156 2228 2338 
Q 2531 2678 2651 2914 
Q 2772 3150 2772 3378 
Q 2772 3750 2511 3984 
Q 2250 4219 1831 4219 
Q 1534 4219 1204 4116 
Q 875 4013 500 3803 
L 500 4441 
Q 881 4594 1212 4672 
Q 1544 4750 1819 4750 
Q 2544 4750 2975 4387 
Q 3406 4025 3406 3419 
Q 3406 3131 3298 2873 
Q 3191 2616 2906 2266 
Q 2828 2175 2409 1742 
Q 1991 1309 1228 531 
z
" transform="scale(0.015625)"/>
        <path id="DejaVuSans-35" d="M 691 4666 
L 3169 4666 
L 3169 4134 
L 1269 4134 
L 1269 2991 
Q 1406 3038 1543 3061 
Q 1681 3084 1819 3084 
Q 2600 3084 3056 2656 
Q 3513 2228 3513 1497 
Q 3513 744 3044 326 
Q 2575 -91 1722 -91 
Q 1428 -91 1123 -41 
Q 819 9 494 109 
L 494 744 
Q 775 591 1075 516 
Q 1375 441 1709 441 
Q 2250 441 2565 725 
Q 2881 1009 2881 1497 
Q 2881 1984 2565 2268 
Q 2250 2553 1709 2553 
Q 1456 2553 1204 2497 
Q 953 2441 691 2322 
L 691 4666 
z
" transform="scale(0.015625)"/>
       </defs>
       <use xlink:href="#DejaVuSans-32"/>
       <use xlink:href="#DejaVuSans-35" x="63.623047"/>
      </g>
     </g>
    </g>
    <g id="xtick_3">
     <g id="line2d_3">
      <g>
       <use xlink:href="#m152762b088" x="125.64173" y="150.843271" style="stroke: #000000; stroke-width: 0.8"/>
      </g>
     </g>
     <g id="text_3">
      <!-- 50 -->
      <g transform="translate(119.27923 165.441709) scale(0.1 -0.1)">
       <use xlink:href="#DejaVuSans-35"/>
       <use xlink:href="#DejaVuSans-30" x="63.623047"/>
      </g>
     </g>
    </g>
    <g id="xtick_4">
     <g id="line2d_4">
      <g>
       <use xlink:href="#m152762b088" x="164.979782" y="150.843271" style="stroke: #000000; stroke-width: 0.8"/>
      </g>
     </g>
     <g id="text_4">
      <!-- 75 -->
      <g transform="translate(158.617282 165.441709) scale(0.1 -0.1)">
       <defs>
        <path id="DejaVuSans-37" d="M 525 4666 
L 3525 4666 
L 3525 4397 
L 1831 0 
L 1172 0 
L 2766 4134 
L 525 4134 
L 525 4666 
z
" transform="scale(0.015625)"/>
       </defs>
       <use xlink:href="#DejaVuSans-37"/>
       <use xlink:href="#DejaVuSans-35" x="63.623047"/>
      </g>
     </g>
    </g>
    <g id="xtick_5">
     <g id="line2d_5">
      <g>
       <use xlink:href="#m152762b088" x="204.317835" y="150.843271" style="stroke: #000000; stroke-width: 0.8"/>
      </g>
     </g>
     <g id="text_5">
      <!-- 100 -->
      <g transform="translate(194.774085 165.441709) scale(0.1 -0.1)">
       <defs>
        <path id="DejaVuSans-31" d="M 794 531 
L 1825 531 
L 1825 4091 
L 703 3866 
L 703 4441 
L 1819 4666 
L 2450 4666 
L 2450 531 
L 3481 531 
L 3481 0 
L 794 0 
L 794 531 
z
" transform="scale(0.015625)"/>
       </defs>
       <use xlink:href="#DejaVuSans-31"/>
       <use xlink:href="#DejaVuSans-30" x="63.623047"/>
       <use xlink:href="#DejaVuSans-30" x="127.246094"/>
      </g>
     </g>
    </g>
    <g id="xtick_6">
     <g id="line2d_6">
      <g>
       <use xlink:href="#m152762b088" x="243.655887" y="150.843271" style="stroke: #000000; stroke-width: 0.8"/>
      </g>
     </g>
     <g id="text_6">
      <!-- 125 -->
      <g transform="translate(234.112137 165.441709) scale(0.1 -0.1)">
       <use xlink:href="#DejaVuSans-31"/>
       <use xlink:href="#DejaVuSans-32" x="63.623047"/>
       <use xlink:href="#DejaVuSans-35" x="127.246094"/>
      </g>
     </g>
    </g>
    <g id="text_7">
     <!-- Sample Size -->
     <g transform="translate(118.761013 179.119834) scale(0.1 -0.1)">
      <defs>
       <path id="DejaVuSans-53" d="M 3425 4513 
L 3425 3897 
Q 3066 4069 2747 4153 
Q 2428 4238 2131 4238 
Q 1616 4238 1336 4038 
Q 1056 3838 1056 3469 
Q 1056 3159 1242 3001 
Q 1428 2844 1947 2747 
L 2328 2669 
Q 3034 2534 3370 2195 
Q 3706 1856 3706 1288 
Q 3706 609 3251 259 
Q 2797 -91 1919 -91 
Q 1588 -91 1214 -16 
Q 841 59 441 206 
L 441 856 
Q 825 641 1194 531 
Q 1563 422 1919 422 
Q 2459 422 2753 634 
Q 3047 847 3047 1241 
Q 3047 1584 2836 1778 
Q 2625 1972 2144 2069 
L 1759 2144 
Q 1053 2284 737 2584 
Q 422 2884 422 3419 
Q 422 4038 858 4394 
Q 1294 4750 2059 4750 
Q 2388 4750 2728 4690 
Q 3069 4631 3425 4513 
z
" transform="scale(0.015625)"/>
       <path id="DejaVuSans-61" d="M 2194 1759 
Q 1497 1759 1228 1600 
Q 959 1441 959 1056 
Q 959 750 1161 570 
Q 1363 391 1709 391 
Q 2188 391 2477 730 
Q 2766 1069 2766 1631 
L 2766 1759 
L 2194 1759 
z
M 3341 1997 
L 3341 0 
L 2766 0 
L 2766 531 
Q 2569 213 2275 61 
Q 1981 -91 1556 -91 
Q 1019 -91 701 211 
Q 384 513 384 1019 
Q 384 1609 779 1909 
Q 1175 2209 1959 2209 
L 2766 2209 
L 2766 2266 
Q 2766 2663 2505 2880 
Q 2244 3097 1772 3097 
Q 1472 3097 1187 3025 
Q 903 2953 641 2809 
L 641 3341 
Q 956 3463 1253 3523 
Q 1550 3584 1831 3584 
Q 2591 3584 2966 3190 
Q 3341 2797 3341 1997 
z
" transform="scale(0.015625)"/>
       <path id="DejaVuSans-6d" d="M 3328 2828 
Q 3544 3216 3844 3400 
Q 4144 3584 4550 3584 
Q 5097 3584 5394 3201 
Q 5691 2819 5691 2113 
L 5691 0 
L 5113 0 
L 5113 2094 
Q 5113 2597 4934 2840 
Q 4756 3084 4391 3084 
Q 3944 3084 3684 2787 
Q 3425 2491 3425 1978 
L 3425 0 
L 2847 0 
L 2847 2094 
Q 2847 2600 2669 2842 
Q 2491 3084 2119 3084 
Q 1678 3084 1418 2786 
Q 1159 2488 1159 1978 
L 1159 0 
L 581 0 
L 581 3500 
L 1159 3500 
L 1159 2956 
Q 1356 3278 1631 3431 
Q 1906 3584 2284 3584 
Q 2666 3584 2933 3390 
Q 3200 3197 3328 2828 
z
" transform="scale(0.015625)"/>
       <path id="DejaVuSans-70" d="M 1159 525 
L 1159 -1331 
L 581 -1331 
L 581 3500 
L 1159 3500 
L 1159 2969 
Q 1341 3281 1617 3432 
Q 1894 3584 2278 3584 
Q 2916 3584 3314 3078 
Q 3713 2572 3713 1747 
Q 3713 922 3314 415 
Q 2916 -91 2278 -91 
Q 1894 -91 1617 61 
Q 1341 213 1159 525 
z
M 3116 1747 
Q 3116 2381 2855 2742 
Q 2594 3103 2138 3103 
Q 1681 3103 1420 2742 
Q 1159 2381 1159 1747 
Q 1159 1113 1420 752 
Q 1681 391 2138 391 
Q 2594 391 2855 752 
Q 3116 1113 3116 1747 
z
" transform="scale(0.015625)"/>
       <path id="DejaVuSans-6c" d="M 603 4863 
L 1178 4863 
L 1178 0 
L 603 0 
L 603 4863 
z
" transform="scale(0.015625)"/>
       <path id="DejaVuSans-65" d="M 3597 1894 
L 3597 1613 
L 953 1613 
Q 991 1019 1311 708 
Q 1631 397 2203 397 
Q 2534 397 2845 478 
Q 3156 559 3463 722 
L 3463 178 
Q 3153 47 2828 -22 
Q 2503 -91 2169 -91 
Q 1331 -91 842 396 
Q 353 884 353 1716 
Q 353 2575 817 3079 
Q 1281 3584 2069 3584 
Q 2775 3584 3186 3129 
Q 3597 2675 3597 1894 
z
M 3022 2063 
Q 3016 2534 2758 2815 
Q 2500 3097 2075 3097 
Q 1594 3097 1305 2825 
Q 1016 2553 972 2059 
L 3022 2063 
z
" transform="scale(0.015625)"/>
       <path id="DejaVuSans-20" transform="scale(0.015625)"/>
       <path id="DejaVuSans-69" d="M 603 3500 
L 1178 3500 
L 1178 0 
L 603 0 
L 603 3500 
z
M 603 4863 
L 1178 4863 
L 1178 4134 
L 603 4134 
L 603 4863 
z
" transform="scale(0.015625)"/>
       <path id="DejaVuSans-7a" d="M 353 3500 
L 3084 3500 
L 3084 2975 
L 922 459 
L 3084 459 
L 3084 0 
L 275 0 
L 275 525 
L 2438 3041 
L 353 3041 
L 353 3500 
z
" transform="scale(0.015625)"/>
      </defs>
      <use xlink:href="#DejaVuSans-53"/>
      <use xlink:href="#DejaVuSans-61" x="63.476562"/>
      <use xlink:href="#DejaVuSans-6d" x="124.755859"/>
      <use xlink:href="#DejaVuSans-70" x="222.167969"/>
      <use xlink:href="#DejaVuSans-6c" x="285.644531"/>
      <use xlink:href="#DejaVuSans-65" x="313.427734"/>
      <use xlink:href="#DejaVuSans-20" x="374.951172"/>
      <use xlink:href="#DejaVuSans-53" x="406.738281"/>
      <use xlink:href="#DejaVuSans-69" x="470.214844"/>
      <use xlink:href="#DejaVuSans-7a" x="497.998047"/>
      <use xlink:href="#DejaVuSans-65" x="550.488281"/>
     </g>
    </g>
   </g>
   <g id="matplotlib.axis_2">
    <g id="ytick_1">
     <g id="line2d_7">
      <defs>
       <path id="m03d069c09c" d="M 0 0 
L -3.5 0 
" style="stroke: #000000; stroke-width: 0.8"/>
      </defs>
      <g>
       <use xlink:href="#m03d069c09c" x="46.965625" y="150.843271" style="stroke: #000000; stroke-width: 0.8"/>
      </g>
     </g>
     <g id="text_8">
      <!-- 0 -->
      <g transform="translate(33.603125 154.64249) scale(0.1 -0.1)">
       <use xlink:href="#DejaVuSans-30"/>
      </g>
     </g>
    </g>
    <g id="ytick_2">
     <g id="line2d_8">
      <g>
       <use xlink:href="#m03d069c09c" x="46.965625" y="122.874461" style="stroke: #000000; stroke-width: 0.8"/>
      </g>
     </g>
     <g id="text_9">
      <!-- 50 -->
      <g transform="translate(27.240625 126.673679) scale(0.1 -0.1)">
       <use xlink:href="#DejaVuSans-35"/>
       <use xlink:href="#DejaVuSans-30" x="63.623047"/>
      </g>
     </g>
    </g>
    <g id="ytick_3">
     <g id="line2d_9">
      <g>
       <use xlink:href="#m03d069c09c" x="46.965625" y="94.90565" style="stroke: #000000; stroke-width: 0.8"/>
      </g>
     </g>
     <g id="text_10">
      <!-- 100 -->
      <g transform="translate(20.878125 98.704869) scale(0.1 -0.1)">
       <use xlink:href="#DejaVuSans-31"/>
       <use xlink:href="#DejaVuSans-30" x="63.623047"/>
       <use xlink:href="#DejaVuSans-30" x="127.246094"/>
      </g>
     </g>
    </g>
    <g id="ytick_4">
     <g id="line2d_10">
      <g>
       <use xlink:href="#m03d069c09c" x="46.965625" y="66.93684" style="stroke: #000000; stroke-width: 0.8"/>
      </g>
     </g>
     <g id="text_11">
      <!-- 150 -->
      <g transform="translate(20.878125 70.736058) scale(0.1 -0.1)">
       <use xlink:href="#DejaVuSans-31"/>
       <use xlink:href="#DejaVuSans-35" x="63.623047"/>
       <use xlink:href="#DejaVuSans-30" x="127.246094"/>
      </g>
     </g>
    </g>
    <g id="ytick_5">
     <g id="line2d_11">
      <g>
       <use xlink:href="#m03d069c09c" x="46.965625" y="38.968029" style="stroke: #000000; stroke-width: 0.8"/>
      </g>
     </g>
     <g id="text_12">
      <!-- 200 -->
      <g transform="translate(20.878125 42.767248) scale(0.1 -0.1)">
       <use xlink:href="#DejaVuSans-32"/>
       <use xlink:href="#DejaVuSans-30" x="63.623047"/>
       <use xlink:href="#DejaVuSans-30" x="127.246094"/>
      </g>
     </g>
    </g>
    <g id="ytick_6">
     <g id="line2d_12">
      <g>
       <use xlink:href="#m03d069c09c" x="46.965625" y="10.999219" style="stroke: #000000; stroke-width: 0.8"/>
      </g>
     </g>
     <g id="text_13">
      <!-- 250 -->
      <g transform="translate(20.878125 14.798438) scale(0.1 -0.1)">
       <use xlink:href="#DejaVuSans-32"/>
       <use xlink:href="#DejaVuSans-35" x="63.623047"/>
       <use xlink:href="#DejaVuSans-30" x="127.246094"/>
      </g>
     </g>
    </g>
    <g id="text_14">
     <!-- Empirical Classification Error -->
     <g transform="translate(14.798437 152.37997) rotate(-90) scale(0.1 -0.1)">
      <defs>
       <path id="DejaVuSans-45" d="M 628 4666 
L 3578 4666 
L 3578 4134 
L 1259 4134 
L 1259 2753 
L 3481 2753 
L 3481 2222 
L 1259 2222 
L 1259 531 
L 3634 531 
L 3634 0 
L 628 0 
L 628 4666 
z
" transform="scale(0.015625)"/>
       <path id="DejaVuSans-72" d="M 2631 2963 
Q 2534 3019 2420 3045 
Q 2306 3072 2169 3072 
Q 1681 3072 1420 2755 
Q 1159 2438 1159 1844 
L 1159 0 
L 581 0 
L 581 3500 
L 1159 3500 
L 1159 2956 
Q 1341 3275 1631 3429 
Q 1922 3584 2338 3584 
Q 2397 3584 2469 3576 
Q 2541 3569 2628 3553 
L 2631 2963 
z
" transform="scale(0.015625)"/>
       <path id="DejaVuSans-63" d="M 3122 3366 
L 3122 2828 
Q 2878 2963 2633 3030 
Q 2388 3097 2138 3097 
Q 1578 3097 1268 2742 
Q 959 2388 959 1747 
Q 959 1106 1268 751 
Q 1578 397 2138 397 
Q 2388 397 2633 464 
Q 2878 531 3122 666 
L 3122 134 
Q 2881 22 2623 -34 
Q 2366 -91 2075 -91 
Q 1284 -91 818 406 
Q 353 903 353 1747 
Q 353 2603 823 3093 
Q 1294 3584 2113 3584 
Q 2378 3584 2631 3529 
Q 2884 3475 3122 3366 
z
" transform="scale(0.015625)"/>
       <path id="DejaVuSans-43" d="M 4122 4306 
L 4122 3641 
Q 3803 3938 3442 4084 
Q 3081 4231 2675 4231 
Q 1875 4231 1450 3742 
Q 1025 3253 1025 2328 
Q 1025 1406 1450 917 
Q 1875 428 2675 428 
Q 3081 428 3442 575 
Q 3803 722 4122 1019 
L 4122 359 
Q 3791 134 3420 21 
Q 3050 -91 2638 -91 
Q 1578 -91 968 557 
Q 359 1206 359 2328 
Q 359 3453 968 4101 
Q 1578 4750 2638 4750 
Q 3056 4750 3426 4639 
Q 3797 4528 4122 4306 
z
" transform="scale(0.015625)"/>
       <path id="DejaVuSans-73" d="M 2834 3397 
L 2834 2853 
Q 2591 2978 2328 3040 
Q 2066 3103 1784 3103 
Q 1356 3103 1142 2972 
Q 928 2841 928 2578 
Q 928 2378 1081 2264 
Q 1234 2150 1697 2047 
L 1894 2003 
Q 2506 1872 2764 1633 
Q 3022 1394 3022 966 
Q 3022 478 2636 193 
Q 2250 -91 1575 -91 
Q 1294 -91 989 -36 
Q 684 19 347 128 
L 347 722 
Q 666 556 975 473 
Q 1284 391 1588 391 
Q 1994 391 2212 530 
Q 2431 669 2431 922 
Q 2431 1156 2273 1281 
Q 2116 1406 1581 1522 
L 1381 1569 
Q 847 1681 609 1914 
Q 372 2147 372 2553 
Q 372 3047 722 3315 
Q 1072 3584 1716 3584 
Q 2034 3584 2315 3537 
Q 2597 3491 2834 3397 
z
" transform="scale(0.015625)"/>
       <path id="DejaVuSans-66" d="M 2375 4863 
L 2375 4384 
L 1825 4384 
Q 1516 4384 1395 4259 
Q 1275 4134 1275 3809 
L 1275 3500 
L 2222 3500 
L 2222 3053 
L 1275 3053 
L 1275 0 
L 697 0 
L 697 3053 
L 147 3053 
L 147 3500 
L 697 3500 
L 697 3744 
Q 697 4328 969 4595 
Q 1241 4863 1831 4863 
L 2375 4863 
z
" transform="scale(0.015625)"/>
       <path id="DejaVuSans-74" d="M 1172 4494 
L 1172 3500 
L 2356 3500 
L 2356 3053 
L 1172 3053 
L 1172 1153 
Q 1172 725 1289 603 
Q 1406 481 1766 481 
L 2356 481 
L 2356 0 
L 1766 0 
Q 1100 0 847 248 
Q 594 497 594 1153 
L 594 3053 
L 172 3053 
L 172 3500 
L 594 3500 
L 594 4494 
L 1172 4494 
z
" transform="scale(0.015625)"/>
       <path id="DejaVuSans-6f" d="M 1959 3097 
Q 1497 3097 1228 2736 
Q 959 2375 959 1747 
Q 959 1119 1226 758 
Q 1494 397 1959 397 
Q 2419 397 2687 759 
Q 2956 1122 2956 1747 
Q 2956 2369 2687 2733 
Q 2419 3097 1959 3097 
z
M 1959 3584 
Q 2709 3584 3137 3096 
Q 3566 2609 3566 1747 
Q 3566 888 3137 398 
Q 2709 -91 1959 -91 
Q 1206 -91 779 398 
Q 353 888 353 1747 
Q 353 2609 779 3096 
Q 1206 3584 1959 3584 
z
" transform="scale(0.015625)"/>
       <path id="DejaVuSans-6e" d="M 3513 2113 
L 3513 0 
L 2938 0 
L 2938 2094 
Q 2938 2591 2744 2837 
Q 2550 3084 2163 3084 
Q 1697 3084 1428 2787 
Q 1159 2491 1159 1978 
L 1159 0 
L 581 0 
L 581 3500 
L 1159 3500 
L 1159 2956 
Q 1366 3272 1645 3428 
Q 1925 3584 2291 3584 
Q 2894 3584 3203 3211 
Q 3513 2838 3513 2113 
z
" transform="scale(0.015625)"/>
      </defs>
      <use xlink:href="#DejaVuSans-45"/>
      <use xlink:href="#DejaVuSans-6d" x="63.183594"/>
      <use xlink:href="#DejaVuSans-70" x="160.595703"/>
      <use xlink:href="#DejaVuSans-69" x="224.072266"/>
      <use xlink:href="#DejaVuSans-72" x="251.855469"/>
      <use xlink:href="#DejaVuSans-69" x="292.96875"/>
      <use xlink:href="#DejaVuSans-63" x="320.751953"/>
      <use xlink:href="#DejaVuSans-61" x="375.732422"/>
      <use xlink:href="#DejaVuSans-6c" x="437.011719"/>
      <use xlink:href="#DejaVuSans-20" x="464.794922"/>
      <use xlink:href="#DejaVuSans-43" x="496.582031"/>
      <use xlink:href="#DejaVuSans-6c" x="566.40625"/>
      <use xlink:href="#DejaVuSans-61" x="594.189453"/>
      <use xlink:href="#DejaVuSans-73" x="655.46875"/>
      <use xlink:href="#DejaVuSans-73" x="707.568359"/>
      <use xlink:href="#DejaVuSans-69" x="759.667969"/>
      <use xlink:href="#DejaVuSans-66" x="787.451172"/>
      <use xlink:href="#DejaVuSans-69" x="822.65625"/>
      <use xlink:href="#DejaVuSans-63" x="850.439453"/>
      <use xlink:href="#DejaVuSans-61" x="905.419922"/>
      <use xlink:href="#DejaVuSans-74" x="966.699219"/>
      <use xlink:href="#DejaVuSans-69" x="1005.908203"/>
      <use xlink:href="#DejaVuSans-6f" x="1033.691406"/>
      <use xlink:href="#DejaVuSans-6e" x="1094.873047"/>
      <use xlink:href="#DejaVuSans-20" x="1158.251953"/>
      <use xlink:href="#DejaVuSans-45" x="1190.039062"/>
      <use xlink:href="#DejaVuSans-72" x="1253.222656"/>
      <use xlink:href="#DejaVuSans-72" x="1292.585938"/>
      <use xlink:href="#DejaVuSans-6f" x="1331.449219"/>
      <use xlink:href="#DejaVuSans-72" x="1392.630859"/>
     </g>
    </g>
   </g>
   <g id="line2d_13">
    <path d="M 48.539147 19.140852 
L 50.112669 24.475378 
L 51.686191 28.877756 
L 53.259713 32.649875 
L 54.833235 35.815507 
L 56.406758 38.839023 
L 57.98028 41.764735 
L 59.553802 44.586089 
L 61.127324 47.163415 
L 62.700846 49.592594 
L 64.274368 51.974488 
L 65.84789 54.27029 
L 67.421412 56.57291 
L 68.994934 58.757186 
L 70.568456 60.858168 
L 72.141979 63.082738 
L 73.715501 65.130317 
L 75.289023 67.169156 
L 76.862545 69.221192 
L 78.436067 71.199549 
L 80.009589 73.147052 
L 81.583111 75.004356 
L 83.156633 77.000979 
L 84.730155 78.849543 
L 86.303677 80.588504 
L 87.8772 82.440563 
L 89.450722 84.057772 
L 91.024244 85.802065 
L 92.597766 87.613045 
L 94.171288 89.375605 
L 95.74481 91.113691 
L 97.318332 92.864539 
L 98.891854 94.306331 
L 100.465376 95.957889 
L 102.038898 97.380103 
L 103.612421 98.878882 
L 105.185943 100.415943 
L 106.759465 101.607065 
L 108.332987 102.893193 
L 109.906509 104.081256 
L 111.480031 104.954232 
L 113.053553 105.813049 
L 114.627075 106.069751 
L 116.200597 106.384924 
L 117.774119 105.375949 
L 119.347642 103.957406 
L 120.921164 101.59981 
L 122.494686 98.229831 
L 124.068208 89.828524 
L 125.64173 77.793371 
L 127.215252 94.983613 
L 128.788774 103.934419 
L 130.362296 109.513847 
L 131.935818 113.862473 
L 133.50934 117.241542 
L 135.082863 119.88678 
L 136.656385 122.440944 
L 138.229907 124.11951 
L 139.803429 125.50685 
L 141.376951 127.030539 
L 142.950473 128.25365 
L 144.523995 129.658383 
L 146.097517 130.577508 
L 147.671039 131.525826 
L 149.244561 132.323024 
L 150.818084 133.106326 
L 152.391606 133.858512 
L 153.965128 134.478895 
L 155.53865 134.943527 
L 157.112172 135.469778 
L 158.685694 135.872703 
L 160.259216 136.244426 
L 161.832738 136.592376 
L 163.40626 136.933071 
L 164.979782 137.251303 
L 166.553305 137.595669 
L 168.126827 137.902977 
L 169.700349 138.210721 
L 171.273871 138.409299 
L 172.847393 138.63104 
L 174.420915 138.876116 
L 175.994437 139.057651 
L 177.567959 139.280703 
L 179.141481 139.485662 
L 180.715003 139.704255 
L 182.288526 139.881071 
L 183.862048 140.039619 
L 185.43557 140.223426 
L 187.009092 140.387131 
L 188.582614 140.519197 
L 190.156136 140.642085 
L 191.729658 140.793378 
L 193.30318 140.930338 
L 194.876702 141.082506 
L 196.450224 141.195517 
L 198.023746 141.331691 
L 199.597269 141.438409 
L 201.170791 141.574058 
L 202.744313 141.699568 
L 204.317835 141.793963 
L 205.891357 141.905925 
L 207.464879 142.01614 
L 209.038401 142.093404 
L 210.611923 142.190333 
L 212.185445 142.309812 
L 213.758967 142.377374 
L 215.33249 142.452628 
L 216.906012 142.526046 
L 218.479534 142.612575 
L 220.053056 142.675592 
L 221.626578 142.747 
L 223.2001 142.807657 
L 224.773622 142.892438 
L 226.347144 142.974596 
L 227.920666 143.035516 
L 229.494188 143.129998 
L 231.067711 143.185498 
L 232.641233 143.250176 
L 234.214755 143.312145 
L 235.788277 143.375599 
L 237.361799 143.450153 
L 238.935321 143.507926 
L 240.508843 143.54752 
L 242.082365 143.60337 
" clip-path="url(#p04d1be09a3)" style="fill: none; stroke: #4c72b0; stroke-width: 1.5; stroke-linecap: square"/>
   </g>
   <g id="line2d_14">
    <path d="M 48.539147 21.281165 
L 50.112669 27.238609 
L 51.686191 31.902321 
L 53.259713 36.011813 
L 54.833235 39.674242 
L 56.406758 42.759114 
L 57.98028 45.887688 
L 59.553802 48.751694 
L 61.127324 51.508545 
L 62.700846 54.052483 
L 64.274368 56.526848 
L 65.84789 58.936274 
L 67.421412 61.277438 
L 68.994934 63.455684 
L 70.568456 65.64066 
L 72.141979 67.671982 
L 73.715501 69.734944 
L 75.289023 71.728946 
L 76.862545 73.702582 
L 78.436067 75.716599 
L 80.009589 77.770821 
L 81.583111 79.795588 
L 83.156633 81.746237 
L 84.730155 83.578107 
L 86.303677 85.500264 
L 87.8772 87.422508 
L 89.450722 89.314161 
L 91.024244 91.100931 
L 92.597766 92.910338 
L 94.171288 94.74483 
L 95.74481 96.644698 
L 97.318332 98.487406 
L 98.891854 100.375738 
L 100.465376 102.278403 
L 102.038898 104.156859 
L 103.612421 106.011715 
L 105.185943 107.961753 
L 106.759465 109.976556 
L 108.332987 111.877824 
L 109.906509 113.787569 
L 111.480031 115.747221 
L 113.053553 117.7726 
L 114.627075 119.869911 
L 116.200597 121.878334 
L 117.774119 124.034555 
L 119.347642 126.229145 
L 120.921164 128.448994 
L 122.494686 130.68108 
L 124.068208 132.957479 
L 125.64173 135.325913 
L 127.215252 136.397992 
L 128.788774 137.3443 
L 130.362296 138.134506 
L 131.935818 138.766251 
L 133.50934 139.333843 
L 135.082863 139.844799 
L 136.656385 140.298855 
L 138.229907 140.708074 
L 139.803429 141.080408 
L 141.376951 141.404584 
L 142.950473 141.703326 
L 144.523995 141.960639 
L 146.097517 142.181855 
L 147.671039 142.408752 
L 149.244561 142.620441 
L 150.818084 142.799092 
L 152.391606 142.999331 
L 153.965128 143.150362 
L 155.53865 143.283651 
L 157.112172 143.41458 
L 158.685694 143.552589 
L 160.259216 143.641914 
L 161.832738 143.764103 
L 163.40626 143.857362 
L 164.979782 143.961458 
L 166.553305 144.052968 
L 168.126827 144.148499 
L 169.700349 144.207147 
L 171.273871 144.278554 
L 172.847393 144.374522 
L 174.420915 144.442609 
L 175.994437 144.506238 
L 177.567959 144.582715 
L 179.141481 144.642236 
L 180.715003 144.690308 
L 182.288526 144.750004 
L 183.862048 144.809437 
L 185.43557 144.872192 
L 187.009092 144.917729 
L 188.582614 144.983543 
L 190.156136 145.039918 
L 191.729658 145.088514 
L 193.30318 145.132302 
L 194.876702 145.175042 
L 196.450224 145.218132 
L 198.023746 145.248023 
L 199.597269 145.281848 
L 201.170791 145.321354 
L 202.744313 145.357626 
L 204.317835 145.404299 
L 205.891357 145.443368 
L 207.464879 145.469239 
L 209.038401 145.505074 
L 210.611923 145.541958 
L 212.185445 145.583212 
L 213.758967 145.620445 
L 215.33249 145.656805 
L 216.906012 145.682501 
L 218.479534 145.70645 
L 220.053056 145.742459 
L 221.626578 145.772176 
L 223.2001 145.798047 
L 224.773622 145.826191 
L 226.347144 145.854509 
L 227.920666 145.881779 
L 229.494188 145.912545 
L 231.067711 145.93256 
L 232.641233 145.960791 
L 234.214755 145.989109 
L 235.788277 146.018477 
L 237.361799 146.039453 
L 238.935321 146.054137 
L 240.508843 146.073365 
L 242.082365 146.101596 
" clip-path="url(#p04d1be09a3)" style="fill: none; stroke: #dd8452; stroke-width: 1.5; stroke-linecap: square"/>
   </g>
   <g id="line2d_15">
    <path d="M 48.539147 17.234428 
L 50.112669 21.775689 
L 51.686191 25.589149 
L 53.259713 29.126242 
L 54.833235 32.298342 
L 56.406758 35.261113 
L 57.98028 38.130014 
L 59.553802 40.846484 
L 61.127324 43.441203 
L 62.700846 45.928942 
L 64.274368 48.360568 
L 65.84789 50.695963 
L 67.421412 53.11142 
L 68.994934 55.439474 
L 70.568456 57.699004 
L 72.141979 59.876114 
L 73.715501 61.969666 
L 75.289023 64.148874 
L 76.862545 66.252391 
L 78.436067 68.302854 
L 80.009589 70.406283 
L 81.583111 72.436382 
L 83.156633 74.564808 
L 84.730155 76.638171 
L 86.303677 78.707776 
L 87.8772 80.771961 
L 89.450722 82.859921 
L 91.024244 84.860914 
L 92.597766 86.900452 
L 94.171288 88.935183 
L 95.74481 90.887144 
L 97.318332 92.90387 
L 98.891854 94.954683 
L 100.465376 96.9798 
L 102.038898 99.060417 
L 103.612421 101.144093 
L 105.185943 103.256001 
L 106.759465 105.328839 
L 108.332987 107.537938 
L 109.906509 109.837237 
L 111.480031 112.138021 
L 113.053553 114.528742 
L 114.627075 117.024959 
L 116.200597 119.700787 
L 117.774119 122.473021 
L 119.347642 125.370764 
L 120.921164 128.626421 
L 122.494686 132.074976 
L 124.068208 136.046984 
L 125.64173 140.616825 
L 127.215252 141.184592 
L 128.788774 141.594597 
L 130.362296 141.929699 
L 131.935818 142.218302 
L 133.50934 142.463116 
L 135.082863 142.675417 
L 136.656385 142.851446 
L 138.229907 143.021444 
L 139.803429 143.197735 
L 141.376951 143.340288 
L 142.950473 143.488086 
L 144.523995 143.602496 
L 146.097517 143.716731 
L 147.671039 143.832277 
L 149.244561 143.919854 
L 150.818084 144.012501 
L 152.391606 144.108382 
L 153.965128 144.190715 
L 155.53865 144.277768 
L 157.112172 144.344106 
L 158.685694 144.401005 
L 160.259216 144.459128 
L 161.832738 144.529574 
L 163.40626 144.60107 
L 164.979782 144.659542 
L 166.553305 144.710061 
L 168.126827 144.765037 
L 169.700349 144.815031 
L 171.273871 144.868434 
L 172.847393 144.914058 
L 174.420915 144.957759 
L 175.994437 145.006967 
L 177.567959 145.053116 
L 179.141481 145.101974 
L 180.715003 145.148821 
L 182.288526 145.19934 
L 183.862048 145.238059 
L 185.43557 145.279838 
L 187.009092 145.316809 
L 188.582614 145.358762 
L 190.156136 145.395646 
L 191.729658 145.431743 
L 193.30318 145.45307 
L 194.876702 145.493974 
L 196.450224 145.527362 
L 198.023746 145.559438 
L 199.597269 145.585747 
L 201.170791 145.622106 
L 202.744313 145.646229 
L 204.317835 145.674635 
L 205.891357 145.699545 
L 207.464879 145.726203 
L 209.038401 145.758978 
L 210.611923 145.780042 
L 212.185445 145.800844 
L 213.758967 145.822433 
L 215.33249 145.845245 
L 216.906012 145.875573 
L 218.479534 145.8962 
L 220.053056 145.920935 
L 221.626578 145.948118 
L 223.2001 145.969619 
L 224.773622 145.993742 
L 226.347144 146.01533 
L 227.920666 146.027304 
L 229.494188 146.044785 
L 231.067711 146.066548 
L 232.641233 146.083591 
L 234.214755 146.103432 
L 235.788277 146.135072 
L 237.361799 146.142676 
L 238.935321 146.161729 
L 240.508843 146.180171 
L 242.082365 146.203333 
" clip-path="url(#p04d1be09a3)" style="fill: none; stroke: #55a868; stroke-width: 1.5; stroke-linecap: square"/>
   </g>
   <g id="line2d_16"/>
   <g id="line2d_17"/>
   <g id="line2d_18"/>
   <g id="line2d_19">
    <path d="M 125.64173 150.843271 
L 125.64173 10.544793 
" clip-path="url(#p04d1be09a3)" style="fill: none; stroke-dasharray: 5.55,2.4; stroke-dashoffset: 0; stroke: #808080; stroke-width: 1.5"/>
   </g>
   <g id="patch_3">
    <path d="M 46.965625 150.843271 
L 46.965625 10.544793 
" style="fill: none; stroke: #000000; stroke-width: 0.8; stroke-linejoin: miter; stroke-linecap: square"/>
   </g>
   <g id="patch_4">
    <path d="M 251.759526 150.843271 
L 251.759526 10.544793 
" style="fill: none; stroke: #000000; stroke-width: 0.8; stroke-linejoin: miter; stroke-linecap: square"/>
   </g>
   <g id="patch_5">
    <path d="M 46.965625 150.843271 
L 251.759526 150.843271 
" style="fill: none; stroke: #000000; stroke-width: 0.8; stroke-linejoin: miter; stroke-linecap: square"/>
   </g>
   <g id="patch_6">
    <path d="M 46.965625 10.544793 
L 251.759526 10.544793 
" style="fill: none; stroke: #000000; stroke-width: 0.8; stroke-linejoin: miter; stroke-linecap: square"/>
   </g>
   <g id="legend_1">
    <g id="patch_7">
     <path d="M 96.314214 62.579168 
L 244.759526 62.579168 
Q 246.759526 62.579168 246.759526 60.579168 
L 246.759526 17.544793 
Q 246.759526 15.544793 244.759526 15.544793 
L 96.314214 15.544793 
Q 94.314214 15.544793 94.314214 17.544793 
L 94.314214 60.579168 
Q 94.314214 62.579168 96.314214 62.579168 
z
" style="fill: #ffffff; opacity: 0.8; stroke: #cccccc; stroke-linejoin: miter"/>
    </g>
    <g id="line2d_20">
     <path d="M 98.314214 23.64323 
L 108.314214 23.64323 
L 118.314214 23.64323 
" style="fill: none; stroke: #4c72b0; stroke-width: 1.5; stroke-linecap: square"/>
    </g>
    <g id="text_15">
     <!-- Random -->
     <g transform="translate(126.314214 27.14323) scale(0.1 -0.1)">
      <defs>
       <path id="DejaVuSans-52" d="M 2841 2188 
Q 3044 2119 3236 1894 
Q 3428 1669 3622 1275 
L 4263 0 
L 3584 0 
L 2988 1197 
Q 2756 1666 2539 1819 
Q 2322 1972 1947 1972 
L 1259 1972 
L 1259 0 
L 628 0 
L 628 4666 
L 2053 4666 
Q 2853 4666 3247 4331 
Q 3641 3997 3641 3322 
Q 3641 2881 3436 2590 
Q 3231 2300 2841 2188 
z
M 1259 4147 
L 1259 2491 
L 2053 2491 
Q 2509 2491 2742 2702 
Q 2975 2913 2975 3322 
Q 2975 3731 2742 3939 
Q 2509 4147 2053 4147 
L 1259 4147 
z
" transform="scale(0.015625)"/>
       <path id="DejaVuSans-64" d="M 2906 2969 
L 2906 4863 
L 3481 4863 
L 3481 0 
L 2906 0 
L 2906 525 
Q 2725 213 2448 61 
Q 2172 -91 1784 -91 
Q 1150 -91 751 415 
Q 353 922 353 1747 
Q 353 2572 751 3078 
Q 1150 3584 1784 3584 
Q 2172 3584 2448 3432 
Q 2725 3281 2906 2969 
z
M 947 1747 
Q 947 1113 1208 752 
Q 1469 391 1925 391 
Q 2381 391 2643 752 
Q 2906 1113 2906 1747 
Q 2906 2381 2643 2742 
Q 2381 3103 1925 3103 
Q 1469 3103 1208 2742 
Q 947 2381 947 1747 
z
" transform="scale(0.015625)"/>
      </defs>
      <use xlink:href="#DejaVuSans-52"/>
      <use xlink:href="#DejaVuSans-61" x="67.232422"/>
      <use xlink:href="#DejaVuSans-6e" x="128.511719"/>
      <use xlink:href="#DejaVuSans-64" x="191.890625"/>
      <use xlink:href="#DejaVuSans-6f" x="255.367188"/>
      <use xlink:href="#DejaVuSans-6d" x="316.548828"/>
     </g>
    </g>
    <g id="line2d_21">
     <path d="M 98.314214 38.321355 
L 108.314214 38.321355 
L 118.314214 38.321355 
" style="fill: none; stroke: #dd8452; stroke-width: 1.5; stroke-linecap: square"/>
    </g>
    <g id="text_16">
     <!-- Classification-optimal -->
     <g transform="translate(126.314214 41.821355) scale(0.1 -0.1)">
      <defs>
       <path id="DejaVuSans-2d" d="M 313 2009 
L 1997 2009 
L 1997 1497 
L 313 1497 
L 313 2009 
z
" transform="scale(0.015625)"/>
      </defs>
      <use xlink:href="#DejaVuSans-43"/>
      <use xlink:href="#DejaVuSans-6c" x="69.824219"/>
      <use xlink:href="#DejaVuSans-61" x="97.607422"/>
      <use xlink:href="#DejaVuSans-73" x="158.886719"/>
      <use xlink:href="#DejaVuSans-73" x="210.986328"/>
      <use xlink:href="#DejaVuSans-69" x="263.085938"/>
      <use xlink:href="#DejaVuSans-66" x="290.869141"/>
      <use xlink:href="#DejaVuSans-69" x="326.074219"/>
      <use xlink:href="#DejaVuSans-63" x="353.857422"/>
      <use xlink:href="#DejaVuSans-61" x="408.837891"/>
      <use xlink:href="#DejaVuSans-74" x="470.117188"/>
      <use xlink:href="#DejaVuSans-69" x="509.326172"/>
      <use xlink:href="#DejaVuSans-6f" x="537.109375"/>
      <use xlink:href="#DejaVuSans-6e" x="598.291016"/>
      <use xlink:href="#DejaVuSans-2d" x="661.669922"/>
      <use xlink:href="#DejaVuSans-6f" x="699.628906"/>
      <use xlink:href="#DejaVuSans-70" x="760.810547"/>
      <use xlink:href="#DejaVuSans-74" x="824.287109"/>
      <use xlink:href="#DejaVuSans-69" x="863.496094"/>
      <use xlink:href="#DejaVuSans-6d" x="891.279297"/>
      <use xlink:href="#DejaVuSans-61" x="988.691406"/>
      <use xlink:href="#DejaVuSans-6c" x="1049.970703"/>
     </g>
    </g>
    <g id="line2d_22">
     <path d="M 98.314214 52.99948 
L 108.314214 52.99948 
L 118.314214 52.99948 
" style="fill: none; stroke: #55a868; stroke-width: 1.5; stroke-linecap: square"/>
    </g>
    <g id="text_17">
     <!-- Reconstruction-optimal -->
     <g transform="translate(126.314214 56.49948) scale(0.1 -0.1)">
      <defs>
       <path id="DejaVuSans-75" d="M 544 1381 
L 544 3500 
L 1119 3500 
L 1119 1403 
Q 1119 906 1312 657 
Q 1506 409 1894 409 
Q 2359 409 2629 706 
Q 2900 1003 2900 1516 
L 2900 3500 
L 3475 3500 
L 3475 0 
L 2900 0 
L 2900 538 
Q 2691 219 2414 64 
Q 2138 -91 1772 -91 
Q 1169 -91 856 284 
Q 544 659 544 1381 
z
M 1991 3584 
L 1991 3584 
z
" transform="scale(0.015625)"/>
      </defs>
      <use xlink:href="#DejaVuSans-52"/>
      <use xlink:href="#DejaVuSans-65" x="64.982422"/>
      <use xlink:href="#DejaVuSans-63" x="126.505859"/>
      <use xlink:href="#DejaVuSans-6f" x="181.486328"/>
      <use xlink:href="#DejaVuSans-6e" x="242.667969"/>
      <use xlink:href="#DejaVuSans-73" x="306.046875"/>
      <use xlink:href="#DejaVuSans-74" x="358.146484"/>
      <use xlink:href="#DejaVuSans-72" x="397.355469"/>
      <use xlink:href="#DejaVuSans-75" x="438.46875"/>
      <use xlink:href="#DejaVuSans-63" x="501.847656"/>
      <use xlink:href="#DejaVuSans-74" x="556.828125"/>
      <use xlink:href="#DejaVuSans-69" x="596.037109"/>
      <use xlink:href="#DejaVuSans-6f" x="623.820312"/>
      <use xlink:href="#DejaVuSans-6e" x="685.001953"/>
      <use xlink:href="#DejaVuSans-2d" x="748.380859"/>
      <use xlink:href="#DejaVuSans-6f" x="786.339844"/>
      <use xlink:href="#DejaVuSans-70" x="847.521484"/>
      <use xlink:href="#DejaVuSans-74" x="910.998047"/>
      <use xlink:href="#DejaVuSans-69" x="950.207031"/>
      <use xlink:href="#DejaVuSans-6d" x="977.990234"/>
      <use xlink:href="#DejaVuSans-61" x="1075.402344"/>
      <use xlink:href="#DejaVuSans-6c" x="1136.681641"/>
     </g>
    </g>
   </g>
  </g>
 </g>
 <defs>
  <clipPath id="p04d1be09a3">
   <rect x="46.965625" y="10.544793" width="204.793901" height="140.298478"/>
  </clipPath>
 </defs>
</svg>
