<?xml version="1.0" encoding="utf-8" standalone="no"?>
<!DOCTYPE svg PUBLIC "-//W3C//DTD SVG 1.1//EN"
  "http://www.w3.org/Graphics/SVG/1.1/DTD/svg11.dtd">
<svg xmlns:xlink="http://www.w3.org/1999/xlink" width="260.39952pt" height="188.39952pt" viewBox="0 0 260.39952 188.39952" xmlns="http://www.w3.org/2000/svg" version="1.1">
 <metadata>
  <rdf:RDF xmlns:dc="http://purl.org/dc/elements/1.1/" xmlns:cc="http://creativecommons.org/ns#" xmlns:rdf="http://www.w3.org/1999/02/22-rdf-syntax-ns#">
   <cc:Work>
    <dc:type rdf:resource="http://purl.org/dc/dcmitype/StillImage"/>
    <dc:date>1980-01-01T00:00:00+00:00</dc:date>
    <dc:format>image/svg+xml</dc:format>
    <dc:creator>
     <cc:Agent>
      <dc:title>Matplotlib v3.7.5, https://matplotlib.org/</dc:title>
     </cc:Agent>
    </dc:creator>
   </cc:Work>
  </rdf:RDF>
 </metadata>
 <defs>
  <style type="text/css">*{stroke-linejoin: round; stroke-linecap: butt}</style>
 </defs>
 <g id="figure_1">
  <g id="patch_1">
   <path d="M 0 188.39952 
L 260.39952 188.39952 
L 260.39952 0 
L 0 0 
z
" style="fill: #ffffff"/>
  </g>
  <g id="axes_1">
   <g id="patch_2">
    <path d="M 46.965625 150.84327 
L 253.19952 150.84327 
L 253.19952 7.2 
L 46.965625 7.2 
z
" style="fill: #ffffff"/>
   </g>
   <g id="PolyCollection_1">
    <defs>
     <path id="m7d7fe4ad3b" d="M 50.18803 -174.031652 
L 50.18803 -173.594358 
L 53.410434 -167.528388 
L 56.632839 -162.827574 
L 59.855243 -158.940034 
L 63.077648 -155.350917 
L 66.300053 -152.151079 
L 69.522457 -149.244968 
L 72.744862 -146.461356 
L 75.967266 -143.655398 
L 79.189671 -141.081628 
L 82.412076 -138.633285 
L 85.63448 -136.262528 
L 88.856885 -133.995703 
L 92.07929 -131.739434 
L 95.301694 -129.556979 
L 98.524099 -127.343914 
L 101.746503 -125.220228 
L 104.968908 -123.187807 
L 108.191313 -121.1563 
L 111.413717 -119.110329 
L 114.636122 -117.094231 
L 117.858526 -115.150434 
L 121.080931 -113.070648 
L 124.303336 -111.104026 
L 127.52574 -109.129138 
L 130.748145 -107.183951 
L 133.970549 -105.190851 
L 137.192954 -103.193047 
L 140.415359 -101.236917 
L 143.637763 -99.322215 
L 146.860168 -97.292183 
L 150.082572 -95.335354 
L 153.304977 -93.342912 
L 156.527382 -91.341422 
L 159.749786 -89.161956 
L 162.972191 -87.086263 
L 166.194596 -85.00709 
L 169.417 -82.816858 
L 172.639405 -80.508985 
L 175.861809 -78.219772 
L 179.084214 -75.752805 
L 182.306619 -73.229564 
L 185.529023 -70.557814 
L 188.751428 -67.780766 
L 191.973832 -64.687705 
L 195.196237 -61.298581 
L 198.418642 -57.556635 
L 201.641046 -53.126127 
L 204.863451 -47.221085 
L 208.085855 -37.556616 
L 211.30826 -37.556341 
L 214.530665 -37.556341 
L 217.753069 -37.556341 
L 220.975474 -37.55625 
L 224.197879 -37.55625 
L 227.420283 -37.55625 
L 230.642688 -37.55625 
L 233.865092 -37.55625 
L 237.087497 -37.55625 
L 240.309902 -37.55625 
L 243.532306 -37.55625 
L 243.532306 -37.556707 
L 243.532306 -37.556707 
L 240.309902 -37.556524 
L 237.087497 -37.55625 
L 233.865092 -37.556524 
L 230.642688 -37.556707 
L 227.420283 -37.556524 
L 224.197879 -37.556707 
L 220.975474 -37.556707 
L 217.753069 -37.557164 
L 214.530665 -37.556981 
L 211.30826 -37.556981 
L 208.085855 -37.557713 
L 204.863451 -47.614251 
L 201.641046 -53.56488 
L 198.418642 -57.996247 
L 195.196237 -61.738916 
L 191.973832 -65.1319 
L 188.751428 -68.207506 
L 185.529023 -71.037538 
L 182.306619 -73.714684 
L 179.084214 -76.227338 
L 175.861809 -78.712625 
L 172.639405 -80.97887 
L 169.417 -83.279823 
L 166.194596 -85.499827 
L 162.972191 -87.55611 
L 159.749786 -89.657031 
L 156.527382 -91.843785 
L 153.304977 -93.8331 
L 150.082572 -95.820195 
L 146.860168 -97.805507 
L 143.637763 -99.822309 
L 140.415359 -101.731999 
L 137.192954 -103.683885 
L 133.970549 -105.705105 
L 130.748145 -107.680742 
L 127.52574 -109.631908 
L 124.303336 -111.594837 
L 121.080931 -113.597428 
L 117.858526 -115.62135 
L 114.636122 -117.609308 
L 111.413717 -119.602456 
L 108.191313 -121.654744 
L 104.968908 -123.677964 
L 101.746503 -125.722538 
L 98.524099 -127.818159 
L 95.301694 -130.047097 
L 92.07929 -132.227724 
L 88.856885 -134.461562 
L 85.63448 -136.738324 
L 82.412076 -139.100423 
L 79.189671 -141.54585 
L 75.967266 -144.151463 
L 72.744862 -146.966281 
L 69.522457 -149.757949 
L 66.300053 -152.654912 
L 63.077648 -155.842861 
L 59.855243 -159.41228 
L 56.632839 -163.300657 
L 53.410434 -167.992274 
L 50.18803 -174.031652 
z
" style="stroke: #4c72b0; stroke-opacity: 0.2"/>
    </defs>
    <g clip-path="url(#pf0373ff95c)">
     <use xlink:href="#m7d7fe4ad3b" x="0" y="188.39952" style="fill: #4c72b0; fill-opacity: 0.2; stroke: #4c72b0; stroke-opacity: 0.2"/>
    </g>
   </g>
   <g id="PolyCollection_2">
    <defs>
     <path id="m9b34b3c92a" d="M 50.18803 -173.387658 
L 50.18803 -172.912175 
L 53.410434 -166.802389 
L 56.632839 -161.974724 
L 59.855243 -158.063798 
L 63.077648 -154.359908 
L 66.300053 -151.061734 
L 69.522457 -148.076758 
L 72.744862 -145.249219 
L 75.967266 -142.536109 
L 79.189671 -140.020575 
L 82.412076 -137.478586 
L 85.63448 -135.072952 
L 88.856885 -132.743162 
L 92.07929 -130.555919 
L 95.301694 -128.376858 
L 98.524099 -126.249981 
L 101.746503 -124.106716 
L 104.968908 -121.938095 
L 108.191313 -119.944816 
L 111.413717 -117.982153 
L 114.636122 -115.877301 
L 117.858526 -113.908547 
L 121.080931 -111.984141 
L 124.303336 -110.016525 
L 127.52574 -107.952259 
L 130.748145 -106.061463 
L 133.970549 -104.065334 
L 137.192954 -102.104807 
L 140.415359 -100.048033 
L 143.637763 -98.071356 
L 146.860168 -96.145682 
L 150.082572 -94.207765 
L 153.304977 -92.16668 
L 156.527382 -90.042829 
L 159.749786 -87.965978 
L 162.972191 -85.821317 
L 166.194596 -83.590233 
L 169.417 -81.40358 
L 172.639405 -79.057984 
L 175.861809 -76.80786 
L 179.084214 -74.332707 
L 182.306619 -71.75456 
L 185.529023 -69.083687 
L 188.751428 -66.267842 
L 191.973832 -63.324395 
L 195.196237 -60.085817 
L 198.418642 -56.321309 
L 201.641046 -52.033049 
L 204.863451 -46.530816 
L 208.085855 -37.652141 
L 211.30826 -37.593273 
L 214.530665 -37.565117 
L 217.753069 -37.560453 
L 220.975474 -37.558078 
L 224.197879 -37.557073 
L 227.420283 -37.556798 
L 230.642688 -37.556981 
L 233.865092 -37.556981 
L 237.087497 -37.556981 
L 240.309902 -37.557073 
L 243.532306 -37.557164 
L 243.532306 -37.558627 
L 243.532306 -37.558627 
L 240.309902 -37.558444 
L 237.087497 -37.558353 
L 233.865092 -37.558444 
L 230.642688 -37.558353 
L 227.420283 -37.558078 
L 224.197879 -37.558444 
L 220.975474 -37.560272 
L 217.753069 -37.563106 
L 214.530665 -37.569597 
L 211.30826 -37.601686 
L 208.085855 -37.665494 
L 204.863451 -46.871398 
L 201.641046 -52.400203 
L 198.418642 -56.72985 
L 195.196237 -60.498709 
L 191.973832 -63.742947 
L 188.751428 -66.709044 
L 185.529023 -69.531111 
L 182.306619 -72.212924 
L 179.084214 -74.789024 
L 175.861809 -77.249742 
L 172.639405 -79.537312 
L 169.417 -81.866764 
L 166.194596 -84.049546 
L 162.972191 -86.275515 
L 159.749786 -88.438985 
L 156.527382 -90.499372 
L 153.304977 -92.634207 
L 150.082572 -94.712989 
L 146.860168 -96.638883 
L 143.637763 -98.573804 
L 140.415359 -100.532344 
L 137.192954 -102.586604 
L 133.970549 -104.565485 
L 130.748145 -106.554364 
L 127.52574 -108.44299 
L 124.303336 -110.51051 
L 121.080931 -112.472298 
L 117.858526 -114.409548 
L 114.636122 -116.364119 
L 111.413717 -118.454152 
L 108.191313 -120.446167 
L 104.968908 -122.440531 
L 101.746503 -124.602706 
L 98.524099 -126.740682 
L 95.301694 -128.87476 
L 92.07929 -131.041861 
L 88.856885 -133.212453 
L 85.63448 -135.5902 
L 82.412076 -137.977518 
L 79.189671 -140.522189 
L 75.967266 -143.045537 
L 72.744862 -145.704219 
L 69.522457 -148.591062 
L 66.300053 -151.553675 
L 63.077648 -154.846095 
L 59.855243 -158.525771 
L 56.632839 -162.450051 
L 53.410434 -167.276303 
L 50.18803 -173.387658 
z
" style="stroke: #dd8452; stroke-opacity: 0.2"/>
    </defs>
    <g clip-path="url(#pf0373ff95c)">
     <use xlink:href="#m9b34b3c92a" x="0" y="188.39952" style="fill: #dd8452; fill-opacity: 0.2; stroke: #dd8452; stroke-opacity: 0.2"/>
    </g>
   </g>
   <g id="PolyCollection_3">
    <defs>
     <path id="m7bf6019f8d" d="M 50.18803 -174.359364 
L 50.18803 -173.927483 
L 53.410434 -168.130977 
L 56.632839 -163.524596 
L 59.855243 -159.558761 
L 63.077648 -155.967436 
L 66.300053 -152.755622 
L 69.522457 -149.864501 
L 72.744862 -147.014202 
L 75.967266 -144.353846 
L 79.189671 -141.753584 
L 82.412076 -139.288568 
L 85.63448 -136.992122 
L 88.856885 -134.649938 
L 92.07929 -132.476712 
L 95.301694 -130.223964 
L 98.524099 -128.110951 
L 101.746503 -125.945255 
L 104.968908 -123.856328 
L 108.191313 -121.894805 
L 111.413717 -119.927991 
L 114.636122 -117.81075 
L 117.858526 -115.764121 
L 121.080931 -113.843479 
L 124.303336 -111.864893 
L 127.52574 -109.917869 
L 130.748145 -107.881307 
L 133.970549 -106.018065 
L 137.192954 -103.997771 
L 140.415359 -102.095056 
L 143.637763 -100.076932 
L 146.860168 -98.139465 
L 150.082572 -96.095677 
L 153.304977 -94.054638 
L 156.527382 -91.963387 
L 159.749786 -89.845963 
L 162.972191 -87.712936 
L 166.194596 -85.538587 
L 169.417 -83.391604 
L 172.639405 -81.12815 
L 175.861809 -78.757814 
L 179.084214 -76.394255 
L 182.306619 -73.780958 
L 185.529023 -71.093992 
L 188.751428 -68.277375 
L 191.973832 -65.329331 
L 195.196237 -61.886852 
L 198.418642 -58.1688 
L 201.641046 -53.588056 
L 204.863451 -47.746697 
L 208.085855 -37.55625 
L 211.30826 -37.55625 
L 214.530665 -37.55625 
L 217.753069 -37.55625 
L 220.975474 -37.55625 
L 224.197879 -37.55625 
L 227.420283 -37.55625 
L 230.642688 -37.55625 
L 233.865092 -37.55625 
L 237.087497 -37.55625 
L 240.309902 -37.55625 
L 243.532306 -37.55625 
L 243.532306 -37.556707 
L 243.532306 -37.556707 
L 240.309902 -37.556524 
L 237.087497 -37.556524 
L 233.865092 -37.556524 
L 230.642688 -37.556524 
L 227.420283 -37.556707 
L 224.197879 -37.556524 
L 220.975474 -37.55625 
L 217.753069 -37.556707 
L 214.530665 -37.556707 
L 211.30826 -37.556524 
L 208.085855 -37.55689 
L 204.863451 -48.15151 
L 201.641046 -54.003421 
L 198.418642 -58.602157 
L 195.196237 -62.343212 
L 191.973832 -65.778063 
L 188.751428 -68.75458 
L 185.529023 -71.565212 
L 182.306619 -74.267102 
L 179.084214 -76.868444 
L 175.861809 -79.240457 
L 172.639405 -81.587401 
L 169.417 -83.876187 
L 166.194596 -86.016931 
L 162.972191 -88.200762 
L 159.749786 -90.350383 
L 156.527382 -92.432876 
L 153.304977 -94.537242 
L 150.082572 -96.596253 
L 146.860168 -98.626759 
L 143.637763 -100.55792 
L 140.415359 -102.570538 
L 137.192954 -104.499261 
L 133.970549 -106.520426 
L 130.748145 -108.406709 
L 127.52574 -110.409314 
L 124.303336 -112.366703 
L 121.080931 -114.341991 
L 117.858526 -116.270314 
L 114.636122 -118.29446 
L 111.413717 -120.386337 
L 108.191313 -122.360368 
L 104.968908 -124.361088 
L 101.746503 -126.4164 
L 98.524099 -128.593633 
L 95.301694 -130.681737 
L 92.07929 -132.956584 
L 88.856885 -135.147545 
L 85.63448 -137.469293 
L 82.412076 -139.779495 
L 79.189671 -142.246522 
L 75.967266 -144.835086 
L 72.744862 -147.481283 
L 69.522457 -150.309489 
L 66.300053 -153.232567 
L 63.077648 -156.42628 
L 59.855243 -160.031013 
L 56.632839 -163.978813 
L 53.410434 -168.585824 
L 50.18803 -174.359364 
z
" style="stroke: #55a868; stroke-opacity: 0.2"/>
    </defs>
    <g clip-path="url(#pf0373ff95c)">
     <use xlink:href="#m7bf6019f8d" x="0" y="188.39952" style="fill: #55a868; fill-opacity: 0.2; stroke: #55a868; stroke-opacity: 0.2"/>
    </g>
   </g>
   <g id="matplotlib.axis_1">
    <g id="xtick_1">
     <g id="line2d_1">
      <defs>
       <path id="m2b06869b56" d="M 0 0 
L 0 3.5 
" style="stroke: #000000; stroke-width: 0.8"/>
      </defs>
      <g>
       <use xlink:href="#m2b06869b56" x="46.965625" y="150.84327" style="stroke: #000000; stroke-width: 0.8"/>
      </g>
     </g>
     <g id="text_1">
      <!-- 0 -->
      <g transform="translate(43.784375 165.441707) scale(0.1 -0.1)">
       <defs>
        <path id="DejaVuSans-30" d="M 2034 4250 
Q 1547 4250 1301 3770 
Q 1056 3291 1056 2328 
Q 1056 1369 1301 889 
Q 1547 409 2034 409 
Q 2525 409 2770 889 
Q 3016 1369 3016 2328 
Q 3016 3291 2770 3770 
Q 2525 4250 2034 4250 
z
M 2034 4750 
Q 2819 4750 3233 4129 
Q 3647 3509 3647 2328 
Q 3647 1150 3233 529 
Q 2819 -91 2034 -91 
Q 1250 -91 836 529 
Q 422 1150 422 2328 
Q 422 3509 836 4129 
Q 1250 4750 2034 4750 
z
" transform="scale(0.015625)"/>
       </defs>
       <use xlink:href="#DejaVuSans-30"/>
      </g>
     </g>
    </g>
    <g id="xtick_2">
     <g id="line2d_2">
      <g>
       <use xlink:href="#m2b06869b56" x="111.413717" y="150.84327" style="stroke: #000000; stroke-width: 0.8"/>
      </g>
     </g>
     <g id="text_2">
      <!-- 20 -->
      <g transform="translate(105.051217 165.441707) scale(0.1 -0.1)">
       <defs>
        <path id="DejaVuSans-32" d="M 1228 531 
L 3431 531 
L 3431 0 
L 469 0 
L 469 531 
Q 828 903 1448 1529 
Q 2069 2156 2228 2338 
Q 2531 2678 2651 2914 
Q 2772 3150 2772 3378 
Q 2772 3750 2511 3984 
Q 2250 4219 1831 4219 
Q 1534 4219 1204 4116 
Q 875 4013 500 3803 
L 500 4441 
Q 881 4594 1212 4672 
Q 1544 4750 1819 4750 
Q 2544 4750 2975 4387 
Q 3406 4025 3406 3419 
Q 3406 3131 3298 2873 
Q 3191 2616 2906 2266 
Q 2828 2175 2409 1742 
Q 1991 1309 1228 531 
z
" transform="scale(0.015625)"/>
       </defs>
       <use xlink:href="#DejaVuSans-32"/>
       <use xlink:href="#DejaVuSans-30" x="63.623047"/>
      </g>
     </g>
    </g>
    <g id="xtick_3">
     <g id="line2d_3">
      <g>
       <use xlink:href="#m2b06869b56" x="175.861809" y="150.84327" style="stroke: #000000; stroke-width: 0.8"/>
      </g>
     </g>
     <g id="text_3">
      <!-- 40 -->
      <g transform="translate(169.499309 165.441707) scale(0.1 -0.1)">
       <defs>
        <path id="DejaVuSans-34" d="M 2419 4116 
L 825 1625 
L 2419 1625 
L 2419 4116 
z
M 2253 4666 
L 3047 4666 
L 3047 1625 
L 3713 1625 
L 3713 1100 
L 3047 1100 
L 3047 0 
L 2419 0 
L 2419 1100 
L 313 1100 
L 313 1709 
L 2253 4666 
z
" transform="scale(0.015625)"/>
       </defs>
       <use xlink:href="#DejaVuSans-34"/>
       <use xlink:href="#DejaVuSans-30" x="63.623047"/>
      </g>
     </g>
    </g>
    <g id="xtick_4">
     <g id="line2d_4">
      <g>
       <use xlink:href="#m2b06869b56" x="240.309902" y="150.84327" style="stroke: #000000; stroke-width: 0.8"/>
      </g>
     </g>
     <g id="text_4">
      <!-- 60 -->
      <g transform="translate(233.947402 165.441707) scale(0.1 -0.1)">
       <defs>
        <path id="DejaVuSans-36" d="M 2113 2584 
Q 1688 2584 1439 2293 
Q 1191 2003 1191 1497 
Q 1191 994 1439 701 
Q 1688 409 2113 409 
Q 2538 409 2786 701 
Q 3034 994 3034 1497 
Q 3034 2003 2786 2293 
Q 2538 2584 2113 2584 
z
M 3366 4563 
L 3366 3988 
Q 3128 4100 2886 4159 
Q 2644 4219 2406 4219 
Q 1781 4219 1451 3797 
Q 1122 3375 1075 2522 
Q 1259 2794 1537 2939 
Q 1816 3084 2150 3084 
Q 2853 3084 3261 2657 
Q 3669 2231 3669 1497 
Q 3669 778 3244 343 
Q 2819 -91 2113 -91 
Q 1303 -91 875 529 
Q 447 1150 447 2328 
Q 447 3434 972 4092 
Q 1497 4750 2381 4750 
Q 2619 4750 2861 4703 
Q 3103 4656 3366 4563 
z
" transform="scale(0.015625)"/>
       </defs>
       <use xlink:href="#DejaVuSans-36"/>
       <use xlink:href="#DejaVuSans-30" x="63.623047"/>
      </g>
     </g>
    </g>
    <g id="text_5">
     <!-- Sample Size -->
     <g transform="translate(119.48101 179.119832) scale(0.1 -0.1)">
      <defs>
       <path id="DejaVuSans-53" d="M 3425 4513 
L 3425 3897 
Q 3066 4069 2747 4153 
Q 2428 4238 2131 4238 
Q 1616 4238 1336 4038 
Q 1056 3838 1056 3469 
Q 1056 3159 1242 3001 
Q 1428 2844 1947 2747 
L 2328 2669 
Q 3034 2534 3370 2195 
Q 3706 1856 3706 1288 
Q 3706 609 3251 259 
Q 2797 -91 1919 -91 
Q 1588 -91 1214 -16 
Q 841 59 441 206 
L 441 856 
Q 825 641 1194 531 
Q 1563 422 1919 422 
Q 2459 422 2753 634 
Q 3047 847 3047 1241 
Q 3047 1584 2836 1778 
Q 2625 1972 2144 2069 
L 1759 2144 
Q 1053 2284 737 2584 
Q 422 2884 422 3419 
Q 422 4038 858 4394 
Q 1294 4750 2059 4750 
Q 2388 4750 2728 4690 
Q 3069 4631 3425 4513 
z
" transform="scale(0.015625)"/>
       <path id="DejaVuSans-61" d="M 2194 1759 
Q 1497 1759 1228 1600 
Q 959 1441 959 1056 
Q 959 750 1161 570 
Q 1363 391 1709 391 
Q 2188 391 2477 730 
Q 2766 1069 2766 1631 
L 2766 1759 
L 2194 1759 
z
M 3341 1997 
L 3341 0 
L 2766 0 
L 2766 531 
Q 2569 213 2275 61 
Q 1981 -91 1556 -91 
Q 1019 -91 701 211 
Q 384 513 384 1019 
Q 384 1609 779 1909 
Q 1175 2209 1959 2209 
L 2766 2209 
L 2766 2266 
Q 2766 2663 2505 2880 
Q 2244 3097 1772 3097 
Q 1472 3097 1187 3025 
Q 903 2953 641 2809 
L 641 3341 
Q 956 3463 1253 3523 
Q 1550 3584 1831 3584 
Q 2591 3584 2966 3190 
Q 3341 2797 3341 1997 
z
" transform="scale(0.015625)"/>
       <path id="DejaVuSans-6d" d="M 3328 2828 
Q 3544 3216 3844 3400 
Q 4144 3584 4550 3584 
Q 5097 3584 5394 3201 
Q 5691 2819 5691 2113 
L 5691 0 
L 5113 0 
L 5113 2094 
Q 5113 2597 4934 2840 
Q 4756 3084 4391 3084 
Q 3944 3084 3684 2787 
Q 3425 2491 3425 1978 
L 3425 0 
L 2847 0 
L 2847 2094 
Q 2847 2600 2669 2842 
Q 2491 3084 2119 3084 
Q 1678 3084 1418 2786 
Q 1159 2488 1159 1978 
L 1159 0 
L 581 0 
L 581 3500 
L 1159 3500 
L 1159 2956 
Q 1356 3278 1631 3431 
Q 1906 3584 2284 3584 
Q 2666 3584 2933 3390 
Q 3200 3197 3328 2828 
z
" transform="scale(0.015625)"/>
       <path id="DejaVuSans-70" d="M 1159 525 
L 1159 -1331 
L 581 -1331 
L 581 3500 
L 1159 3500 
L 1159 2969 
Q 1341 3281 1617 3432 
Q 1894 3584 2278 3584 
Q 2916 3584 3314 3078 
Q 3713 2572 3713 1747 
Q 3713 922 3314 415 
Q 2916 -91 2278 -91 
Q 1894 -91 1617 61 
Q 1341 213 1159 525 
z
M 3116 1747 
Q 3116 2381 2855 2742 
Q 2594 3103 2138 3103 
Q 1681 3103 1420 2742 
Q 1159 2381 1159 1747 
Q 1159 1113 1420 752 
Q 1681 391 2138 391 
Q 2594 391 2855 752 
Q 3116 1113 3116 1747 
z
" transform="scale(0.015625)"/>
       <path id="DejaVuSans-6c" d="M 603 4863 
L 1178 4863 
L 1178 0 
L 603 0 
L 603 4863 
z
" transform="scale(0.015625)"/>
       <path id="DejaVuSans-65" d="M 3597 1894 
L 3597 1613 
L 953 1613 
Q 991 1019 1311 708 
Q 1631 397 2203 397 
Q 2534 397 2845 478 
Q 3156 559 3463 722 
L 3463 178 
Q 3153 47 2828 -22 
Q 2503 -91 2169 -91 
Q 1331 -91 842 396 
Q 353 884 353 1716 
Q 353 2575 817 3079 
Q 1281 3584 2069 3584 
Q 2775 3584 3186 3129 
Q 3597 2675 3597 1894 
z
M 3022 2063 
Q 3016 2534 2758 2815 
Q 2500 3097 2075 3097 
Q 1594 3097 1305 2825 
Q 1016 2553 972 2059 
L 3022 2063 
z
" transform="scale(0.015625)"/>
       <path id="DejaVuSans-20" transform="scale(0.015625)"/>
       <path id="DejaVuSans-69" d="M 603 3500 
L 1178 3500 
L 1178 0 
L 603 0 
L 603 3500 
z
M 603 4863 
L 1178 4863 
L 1178 4134 
L 603 4134 
L 603 4863 
z
" transform="scale(0.015625)"/>
       <path id="DejaVuSans-7a" d="M 353 3500 
L 3084 3500 
L 3084 2975 
L 922 459 
L 3084 459 
L 3084 0 
L 275 0 
L 275 525 
L 2438 3041 
L 353 3041 
L 353 3500 
z
" transform="scale(0.015625)"/>
      </defs>
      <use xlink:href="#DejaVuSans-53"/>
      <use xlink:href="#DejaVuSans-61" x="63.476562"/>
      <use xlink:href="#DejaVuSans-6d" x="124.755859"/>
      <use xlink:href="#DejaVuSans-70" x="222.167969"/>
      <use xlink:href="#DejaVuSans-6c" x="285.644531"/>
      <use xlink:href="#DejaVuSans-65" x="313.427734"/>
      <use xlink:href="#DejaVuSans-20" x="374.951172"/>
      <use xlink:href="#DejaVuSans-53" x="406.738281"/>
      <use xlink:href="#DejaVuSans-69" x="470.214844"/>
      <use xlink:href="#DejaVuSans-7a" x="497.998047"/>
      <use xlink:href="#DejaVuSans-65" x="550.488281"/>
     </g>
    </g>
   </g>
   <g id="matplotlib.axis_2">
    <g id="ytick_1">
     <g id="line2d_5">
      <defs>
       <path id="mfab0cd6c4f" d="M 0 0 
L -3.5 0 
" style="stroke: #000000; stroke-width: 0.8"/>
      </defs>
      <g>
       <use xlink:href="#mfab0cd6c4f" x="46.965625" y="150.84327" style="stroke: #000000; stroke-width: 0.8"/>
      </g>
     </g>
     <g id="text_6">
      <!-- 0 -->
      <g transform="translate(33.603125 154.642489) scale(0.1 -0.1)">
       <use xlink:href="#DejaVuSans-30"/>
      </g>
     </g>
    </g>
    <g id="ytick_2">
     <g id="line2d_6">
      <g>
       <use xlink:href="#mfab0cd6c4f" x="46.965625" y="121.590138" style="stroke: #000000; stroke-width: 0.8"/>
      </g>
     </g>
     <g id="text_7">
      <!-- 50 -->
      <g transform="translate(27.240625 125.389357) scale(0.1 -0.1)">
       <defs>
        <path id="DejaVuSans-35" d="M 691 4666 
L 3169 4666 
L 3169 4134 
L 1269 4134 
L 1269 2991 
Q 1406 3038 1543 3061 
Q 1681 3084 1819 3084 
Q 2600 3084 3056 2656 
Q 3513 2228 3513 1497 
Q 3513 744 3044 326 
Q 2575 -91 1722 -91 
Q 1428 -91 1123 -41 
Q 819 9 494 109 
L 494 744 
Q 775 591 1075 516 
Q 1375 441 1709 441 
Q 2250 441 2565 725 
Q 2881 1009 2881 1497 
Q 2881 1984 2565 2268 
Q 2250 2553 1709 2553 
Q 1456 2553 1204 2497 
Q 953 2441 691 2322 
L 691 4666 
z
" transform="scale(0.015625)"/>
       </defs>
       <use xlink:href="#DejaVuSans-35"/>
       <use xlink:href="#DejaVuSans-30" x="63.623047"/>
      </g>
     </g>
    </g>
    <g id="ytick_3">
     <g id="line2d_7">
      <g>
       <use xlink:href="#mfab0cd6c4f" x="46.965625" y="92.337006" style="stroke: #000000; stroke-width: 0.8"/>
      </g>
     </g>
     <g id="text_8">
      <!-- 100 -->
      <g transform="translate(20.878125 96.136225) scale(0.1 -0.1)">
       <defs>
        <path id="DejaVuSans-31" d="M 794 531 
L 1825 531 
L 1825 4091 
L 703 3866 
L 703 4441 
L 1819 4666 
L 2450 4666 
L 2450 531 
L 3481 531 
L 3481 0 
L 794 0 
L 794 531 
z
" transform="scale(0.015625)"/>
       </defs>
       <use xlink:href="#DejaVuSans-31"/>
       <use xlink:href="#DejaVuSans-30" x="63.623047"/>
       <use xlink:href="#DejaVuSans-30" x="127.246094"/>
      </g>
     </g>
    </g>
    <g id="ytick_4">
     <g id="line2d_8">
      <g>
       <use xlink:href="#mfab0cd6c4f" x="46.965625" y="63.083875" style="stroke: #000000; stroke-width: 0.8"/>
      </g>
     </g>
     <g id="text_9">
      <!-- 150 -->
      <g transform="translate(20.878125 66.883093) scale(0.1 -0.1)">
       <use xlink:href="#DejaVuSans-31"/>
       <use xlink:href="#DejaVuSans-35" x="63.623047"/>
       <use xlink:href="#DejaVuSans-30" x="127.246094"/>
      </g>
     </g>
    </g>
    <g id="ytick_5">
     <g id="line2d_9">
      <g>
       <use xlink:href="#mfab0cd6c4f" x="46.965625" y="33.830743" style="stroke: #000000; stroke-width: 0.8"/>
      </g>
     </g>
     <g id="text_10">
      <!-- 200 -->
      <g transform="translate(20.878125 37.629961) scale(0.1 -0.1)">
       <use xlink:href="#DejaVuSans-32"/>
       <use xlink:href="#DejaVuSans-30" x="63.623047"/>
       <use xlink:href="#DejaVuSans-30" x="127.246094"/>
      </g>
     </g>
    </g>
    <g id="text_11">
     <!-- Empirical Classification Error -->
     <g transform="translate(14.798437 150.707572) rotate(-90) scale(0.1 -0.1)">
      <defs>
       <path id="DejaVuSans-45" d="M 628 4666 
L 3578 4666 
L 3578 4134 
L 1259 4134 
L 1259 2753 
L 3481 2753 
L 3481 2222 
L 1259 2222 
L 1259 531 
L 3634 531 
L 3634 0 
L 628 0 
L 628 4666 
z
" transform="scale(0.015625)"/>
       <path id="DejaVuSans-72" d="M 2631 2963 
Q 2534 3019 2420 3045 
Q 2306 3072 2169 3072 
Q 1681 3072 1420 2755 
Q 1159 2438 1159 1844 
L 1159 0 
L 581 0 
L 581 3500 
L 1159 3500 
L 1159 2956 
Q 1341 3275 1631 3429 
Q 1922 3584 2338 3584 
Q 2397 3584 2469 3576 
Q 2541 3569 2628 3553 
L 2631 2963 
z
" transform="scale(0.015625)"/>
       <path id="DejaVuSans-63" d="M 3122 3366 
L 3122 2828 
Q 2878 2963 2633 3030 
Q 2388 3097 2138 3097 
Q 1578 3097 1268 2742 
Q 959 2388 959 1747 
Q 959 1106 1268 751 
Q 1578 397 2138 397 
Q 2388 397 2633 464 
Q 2878 531 3122 666 
L 3122 134 
Q 2881 22 2623 -34 
Q 2366 -91 2075 -91 
Q 1284 -91 818 406 
Q 353 903 353 1747 
Q 353 2603 823 3093 
Q 1294 3584 2113 3584 
Q 2378 3584 2631 3529 
Q 2884 3475 3122 3366 
z
" transform="scale(0.015625)"/>
       <path id="DejaVuSans-43" d="M 4122 4306 
L 4122 3641 
Q 3803 3938 3442 4084 
Q 3081 4231 2675 4231 
Q 1875 4231 1450 3742 
Q 1025 3253 1025 2328 
Q 1025 1406 1450 917 
Q 1875 428 2675 428 
Q 3081 428 3442 575 
Q 3803 722 4122 1019 
L 4122 359 
Q 3791 134 3420 21 
Q 3050 -91 2638 -91 
Q 1578 -91 968 557 
Q 359 1206 359 2328 
Q 359 3453 968 4101 
Q 1578 4750 2638 4750 
Q 3056 4750 3426 4639 
Q 3797 4528 4122 4306 
z
" transform="scale(0.015625)"/>
       <path id="DejaVuSans-73" d="M 2834 3397 
L 2834 2853 
Q 2591 2978 2328 3040 
Q 2066 3103 1784 3103 
Q 1356 3103 1142 2972 
Q 928 2841 928 2578 
Q 928 2378 1081 2264 
Q 1234 2150 1697 2047 
L 1894 2003 
Q 2506 1872 2764 1633 
Q 3022 1394 3022 966 
Q 3022 478 2636 193 
Q 2250 -91 1575 -91 
Q 1294 -91 989 -36 
Q 684 19 347 128 
L 347 722 
Q 666 556 975 473 
Q 1284 391 1588 391 
Q 1994 391 2212 530 
Q 2431 669 2431 922 
Q 2431 1156 2273 1281 
Q 2116 1406 1581 1522 
L 1381 1569 
Q 847 1681 609 1914 
Q 372 2147 372 2553 
Q 372 3047 722 3315 
Q 1072 3584 1716 3584 
Q 2034 3584 2315 3537 
Q 2597 3491 2834 3397 
z
" transform="scale(0.015625)"/>
       <path id="DejaVuSans-66" d="M 2375 4863 
L 2375 4384 
L 1825 4384 
Q 1516 4384 1395 4259 
Q 1275 4134 1275 3809 
L 1275 3500 
L 2222 3500 
L 2222 3053 
L 1275 3053 
L 1275 0 
L 697 0 
L 697 3053 
L 147 3053 
L 147 3500 
L 697 3500 
L 697 3744 
Q 697 4328 969 4595 
Q 1241 4863 1831 4863 
L 2375 4863 
z
" transform="scale(0.015625)"/>
       <path id="DejaVuSans-74" d="M 1172 4494 
L 1172 3500 
L 2356 3500 
L 2356 3053 
L 1172 3053 
L 1172 1153 
Q 1172 725 1289 603 
Q 1406 481 1766 481 
L 2356 481 
L 2356 0 
L 1766 0 
Q 1100 0 847 248 
Q 594 497 594 1153 
L 594 3053 
L 172 3053 
L 172 3500 
L 594 3500 
L 594 4494 
L 1172 4494 
z
" transform="scale(0.015625)"/>
       <path id="DejaVuSans-6f" d="M 1959 3097 
Q 1497 3097 1228 2736 
Q 959 2375 959 1747 
Q 959 1119 1226 758 
Q 1494 397 1959 397 
Q 2419 397 2687 759 
Q 2956 1122 2956 1747 
Q 2956 2369 2687 2733 
Q 2419 3097 1959 3097 
z
M 1959 3584 
Q 2709 3584 3137 3096 
Q 3566 2609 3566 1747 
Q 3566 888 3137 398 
Q 2709 -91 1959 -91 
Q 1206 -91 779 398 
Q 353 888 353 1747 
Q 353 2609 779 3096 
Q 1206 3584 1959 3584 
z
" transform="scale(0.015625)"/>
       <path id="DejaVuSans-6e" d="M 3513 2113 
L 3513 0 
L 2938 0 
L 2938 2094 
Q 2938 2591 2744 2837 
Q 2550 3084 2163 3084 
Q 1697 3084 1428 2787 
Q 1159 2491 1159 1978 
L 1159 0 
L 581 0 
L 581 3500 
L 1159 3500 
L 1159 2956 
Q 1366 3272 1645 3428 
Q 1925 3584 2291 3584 
Q 2894 3584 3203 3211 
Q 3513 2838 3513 2113 
z
" transform="scale(0.015625)"/>
      </defs>
      <use xlink:href="#DejaVuSans-45"/>
      <use xlink:href="#DejaVuSans-6d" x="63.183594"/>
      <use xlink:href="#DejaVuSans-70" x="160.595703"/>
      <use xlink:href="#DejaVuSans-69" x="224.072266"/>
      <use xlink:href="#DejaVuSans-72" x="251.855469"/>
      <use xlink:href="#DejaVuSans-69" x="292.96875"/>
      <use xlink:href="#DejaVuSans-63" x="320.751953"/>
      <use xlink:href="#DejaVuSans-61" x="375.732422"/>
      <use xlink:href="#DejaVuSans-6c" x="437.011719"/>
      <use xlink:href="#DejaVuSans-20" x="464.794922"/>
      <use xlink:href="#DejaVuSans-43" x="496.582031"/>
      <use xlink:href="#DejaVuSans-6c" x="566.40625"/>
      <use xlink:href="#DejaVuSans-61" x="594.189453"/>
      <use xlink:href="#DejaVuSans-73" x="655.46875"/>
      <use xlink:href="#DejaVuSans-73" x="707.568359"/>
      <use xlink:href="#DejaVuSans-69" x="759.667969"/>
      <use xlink:href="#DejaVuSans-66" x="787.451172"/>
      <use xlink:href="#DejaVuSans-69" x="822.65625"/>
      <use xlink:href="#DejaVuSans-63" x="850.439453"/>
      <use xlink:href="#DejaVuSans-61" x="905.419922"/>
      <use xlink:href="#DejaVuSans-74" x="966.699219"/>
      <use xlink:href="#DejaVuSans-69" x="1005.908203"/>
      <use xlink:href="#DejaVuSans-6f" x="1033.691406"/>
      <use xlink:href="#DejaVuSans-6e" x="1094.873047"/>
      <use xlink:href="#DejaVuSans-20" x="1158.251953"/>
      <use xlink:href="#DejaVuSans-45" x="1190.039062"/>
      <use xlink:href="#DejaVuSans-72" x="1253.222656"/>
      <use xlink:href="#DejaVuSans-72" x="1292.585938"/>
      <use xlink:href="#DejaVuSans-6f" x="1331.449219"/>
      <use xlink:href="#DejaVuSans-72" x="1392.630859"/>
     </g>
    </g>
   </g>
   <g id="line2d_10">
    <path d="M 50.18803 14.591506 
L 53.410434 20.636575 
L 56.632839 25.332251 
L 59.855243 29.217432 
L 63.077648 32.795365 
L 66.300053 35.990447 
L 69.522457 38.899579 
L 72.744862 41.670673 
L 75.967266 44.501737 
L 79.189671 47.077749 
L 82.412076 49.535287 
L 85.63448 51.899397 
L 88.856885 54.167429 
L 92.07929 56.426319 
L 95.301694 58.587851 
L 98.524099 60.812826 
L 101.746503 62.926913 
L 104.968908 64.970244 
L 108.191313 67.005531 
L 111.413717 69.038989 
L 114.636122 71.037618 
L 117.858526 73.019701 
L 121.080931 75.059558 
L 124.303336 77.040361 
L 127.52574 79.012753 
L 130.748145 80.968874 
L 133.970549 82.949128 
L 137.192954 84.963937 
L 140.415359 86.919418 
L 143.637763 88.835224 
L 146.860168 90.853324 
L 150.082572 92.823797 
L 153.304977 94.805971 
L 156.527382 96.816849 
L 159.749786 98.970063 
L 162.972191 101.073728 
L 166.194596 103.144759 
L 169.417 105.347977 
L 172.639405 107.653581 
L 175.861809 109.928469 
L 179.084214 112.410688 
L 182.306619 114.924446 
L 185.529023 117.604399 
L 188.751428 120.412425 
L 191.973832 123.491317 
L 195.196237 126.891811 
L 198.418642 130.620031 
L 201.641046 135.061388 
L 204.863451 140.965859 
L 208.085855 150.842356 
L 211.30826 150.842904 
L 214.530665 150.842904 
L 217.753069 150.842813 
L 220.975474 150.843087 
L 224.197879 150.843087 
L 227.420283 150.843179 
L 230.642688 150.843087 
L 233.865092 150.843179 
L 237.087497 150.84327 
L 240.309902 150.843179 
L 243.532306 150.843087 
" clip-path="url(#pf0373ff95c)" style="fill: none; stroke: #4c72b0; stroke-width: 1.5; stroke-linecap: square"/>
   </g>
   <g id="line2d_11">
    <path d="M 50.18803 15.242206 
L 53.410434 21.358396 
L 56.632839 26.189459 
L 59.855243 30.117515 
L 63.077648 33.796919 
L 66.300053 37.089267 
L 69.522457 40.060746 
L 72.744862 42.918411 
L 75.967266 45.610796 
L 79.189671 48.131959 
L 82.412076 50.663909 
L 85.63448 53.070528 
L 88.856885 55.424856 
L 92.07929 57.605769 
L 95.301694 59.764375 
L 98.524099 61.917406 
L 101.746503 64.046942 
L 104.968908 66.194214 
L 108.191313 68.197322 
L 111.413717 70.183701 
L 114.636122 72.276031 
L 117.858526 74.255554 
L 121.080931 76.167978 
L 124.303336 78.13068 
L 127.52574 80.200888 
L 130.748145 82.092651 
L 133.970549 84.081773 
L 137.192954 86.055993 
L 140.415359 88.102981 
L 143.637763 90.074002 
L 146.860168 92.015039 
L 150.082572 93.940169 
L 153.304977 96.015222 
L 156.527382 98.115414 
L 159.749786 100.198603 
L 162.972191 102.358764 
L 166.194596 104.577888 
L 169.417 106.758343 
L 172.639405 109.092652 
L 175.861809 111.362238 
L 179.084214 113.839338 
L 182.306619 116.416356 
L 185.529023 119.091646 
L 188.751428 121.914117 
L 191.973832 124.851954 
L 195.196237 128.104079 
L 198.418642 131.869414 
L 201.641046 136.182972 
L 204.863451 141.700752 
L 208.085855 150.740884 
L 211.30826 150.802133 
L 214.530665 150.832209 
L 217.753069 150.837876 
L 220.975474 150.840436 
L 224.197879 150.841807 
L 227.420283 150.842082 
L 230.642688 150.841899 
L 233.865092 150.841807 
L 237.087497 150.841899 
L 240.309902 150.841807 
L 243.532306 150.841625 
" clip-path="url(#pf0373ff95c)" style="fill: none; stroke: #dd8452; stroke-width: 1.5; stroke-linecap: square"/>
   </g>
   <g id="line2d_12">
    <path d="M 50.18803 14.252536 
L 53.410434 20.048678 
L 56.632839 24.647728 
L 59.855243 28.600466 
L 63.077648 32.2018 
L 66.300053 35.409132 
L 69.522457 38.322744 
L 72.744862 41.157098 
L 75.967266 43.804781 
L 79.189671 46.402002 
L 82.412076 48.862647 
L 85.63448 51.170902 
L 88.856885 53.493052 
L 92.07929 55.683015 
L 95.301694 57.949219 
L 98.524099 60.046028 
L 101.746503 62.229866 
L 104.968908 64.285904 
L 108.191313 66.273106 
L 111.413717 68.247052 
L 114.636122 70.358671 
L 117.858526 72.367356 
L 121.080931 74.299891 
L 124.303336 76.273746 
L 127.52574 78.227947 
L 130.748145 80.254366 
L 133.970549 82.130406 
L 137.192954 84.142107 
L 140.415359 86.074916 
L 143.637763 88.073362 
L 146.860168 90.015862 
L 150.082572 92.047766 
L 153.304977 94.112854 
L 156.527382 96.201711 
L 159.749786 98.290659 
L 162.972191 100.433542 
L 166.194596 102.62195 
L 169.417 104.767302 
L 172.639405 107.042921 
L 175.861809 109.400907 
L 179.084214 111.766205 
L 182.306619 114.362695 
L 185.529023 117.059011 
L 188.751428 119.886875 
L 191.973832 122.851131 
L 195.196237 126.273747 
L 198.418642 130.01376 
L 201.641046 134.607142 
L 204.863451 140.455849 
L 208.085855 150.842996 
L 211.30826 150.843179 
L 214.530665 150.843087 
L 217.753069 150.843087 
L 220.975474 150.84327 
L 224.197879 150.843179 
L 227.420283 150.843087 
L 230.642688 150.843179 
L 233.865092 150.843179 
L 237.087497 150.843179 
L 240.309902 150.843179 
L 243.532306 150.843087 
" clip-path="url(#pf0373ff95c)" style="fill: none; stroke: #55a868; stroke-width: 1.5; stroke-linecap: square"/>
   </g>
   <g id="line2d_13"/>
   <g id="line2d_14"/>
   <g id="line2d_15"/>
   <g id="line2d_16">
    <path d="M 208.085855 150.84327 
L 208.085855 7.2 
" clip-path="url(#pf0373ff95c)" style="fill: none; stroke-dasharray: 5.55,2.4; stroke-dashoffset: 0; stroke: #808080; stroke-width: 1.5"/>
   </g>
   <g id="patch_3">
    <path d="M 46.965625 150.84327 
L 46.965625 7.2 
" style="fill: none; stroke: #000000; stroke-width: 0.8; stroke-linejoin: miter; stroke-linecap: square"/>
   </g>
   <g id="patch_4">
    <path d="M 253.19952 150.84327 
L 253.19952 7.2 
" style="fill: none; stroke: #000000; stroke-width: 0.8; stroke-linejoin: miter; stroke-linecap: square"/>
   </g>
   <g id="patch_5">
    <path d="M 46.965625 150.84327 
L 253.19952 150.84327 
" style="fill: none; stroke: #000000; stroke-width: 0.8; stroke-linejoin: miter; stroke-linecap: square"/>
   </g>
   <g id="patch_6">
    <path d="M 46.965625 7.2 
L 253.19952 7.2 
" style="fill: none; stroke: #000000; stroke-width: 0.8; stroke-linejoin: miter; stroke-linecap: square"/>
   </g>
   <g id="legend_1">
    <g id="patch_7">
     <path d="M 97.754207 59.234375 
L 246.19952 59.234375 
Q 248.19952 59.234375 248.19952 57.234375 
L 248.19952 14.2 
Q 248.19952 12.2 246.19952 12.2 
L 97.754207 12.2 
Q 95.754207 12.2 95.754207 14.2 
L 95.754207 57.234375 
Q 95.754207 59.234375 97.754207 59.234375 
z
" style="fill: #ffffff; opacity: 0.8; stroke: #cccccc; stroke-linejoin: miter"/>
    </g>
    <g id="line2d_17">
     <path d="M 99.754207 20.298438 
L 109.754207 20.298438 
L 119.754207 20.298438 
" style="fill: none; stroke: #4c72b0; stroke-width: 1.5; stroke-linecap: square"/>
    </g>
    <g id="text_12">
     <!-- Random -->
     <g transform="translate(127.754207 23.798438) scale(0.1 -0.1)">
      <defs>
       <path id="DejaVuSans-52" d="M 2841 2188 
Q 3044 2119 3236 1894 
Q 3428 1669 3622 1275 
L 4263 0 
L 3584 0 
L 2988 1197 
Q 2756 1666 2539 1819 
Q 2322 1972 1947 1972 
L 1259 1972 
L 1259 0 
L 628 0 
L 628 4666 
L 2053 4666 
Q 2853 4666 3247 4331 
Q 3641 3997 3641 3322 
Q 3641 2881 3436 2590 
Q 3231 2300 2841 2188 
z
M 1259 4147 
L 1259 2491 
L 2053 2491 
Q 2509 2491 2742 2702 
Q 2975 2913 2975 3322 
Q 2975 3731 2742 3939 
Q 2509 4147 2053 4147 
L 1259 4147 
z
" transform="scale(0.015625)"/>
       <path id="DejaVuSans-64" d="M 2906 2969 
L 2906 4863 
L 3481 4863 
L 3481 0 
L 2906 0 
L 2906 525 
Q 2725 213 2448 61 
Q 2172 -91 1784 -91 
Q 1150 -91 751 415 
Q 353 922 353 1747 
Q 353 2572 751 3078 
Q 1150 3584 1784 3584 
Q 2172 3584 2448 3432 
Q 2725 3281 2906 2969 
z
M 947 1747 
Q 947 1113 1208 752 
Q 1469 391 1925 391 
Q 2381 391 2643 752 
Q 2906 1113 2906 1747 
Q 2906 2381 2643 2742 
Q 2381 3103 1925 3103 
Q 1469 3103 1208 2742 
Q 947 2381 947 1747 
z
" transform="scale(0.015625)"/>
      </defs>
      <use xlink:href="#DejaVuSans-52"/>
      <use xlink:href="#DejaVuSans-61" x="67.232422"/>
      <use xlink:href="#DejaVuSans-6e" x="128.511719"/>
      <use xlink:href="#DejaVuSans-64" x="191.890625"/>
      <use xlink:href="#DejaVuSans-6f" x="255.367188"/>
      <use xlink:href="#DejaVuSans-6d" x="316.548828"/>
     </g>
    </g>
    <g id="line2d_18">
     <path d="M 99.754207 34.976563 
L 109.754207 34.976563 
L 119.754207 34.976563 
" style="fill: none; stroke: #dd8452; stroke-width: 1.5; stroke-linecap: square"/>
    </g>
    <g id="text_13">
     <!-- Classification-optimal -->
     <g transform="translate(127.754207 38.476563) scale(0.1 -0.1)">
      <defs>
       <path id="DejaVuSans-2d" d="M 313 2009 
L 1997 2009 
L 1997 1497 
L 313 1497 
L 313 2009 
z
" transform="scale(0.015625)"/>
      </defs>
      <use xlink:href="#DejaVuSans-43"/>
      <use xlink:href="#DejaVuSans-6c" x="69.824219"/>
      <use xlink:href="#DejaVuSans-61" x="97.607422"/>
      <use xlink:href="#DejaVuSans-73" x="158.886719"/>
      <use xlink:href="#DejaVuSans-73" x="210.986328"/>
      <use xlink:href="#DejaVuSans-69" x="263.085938"/>
      <use xlink:href="#DejaVuSans-66" x="290.869141"/>
      <use xlink:href="#DejaVuSans-69" x="326.074219"/>
      <use xlink:href="#DejaVuSans-63" x="353.857422"/>
      <use xlink:href="#DejaVuSans-61" x="408.837891"/>
      <use xlink:href="#DejaVuSans-74" x="470.117188"/>
      <use xlink:href="#DejaVuSans-69" x="509.326172"/>
      <use xlink:href="#DejaVuSans-6f" x="537.109375"/>
      <use xlink:href="#DejaVuSans-6e" x="598.291016"/>
      <use xlink:href="#DejaVuSans-2d" x="661.669922"/>
      <use xlink:href="#DejaVuSans-6f" x="699.628906"/>
      <use xlink:href="#DejaVuSans-70" x="760.810547"/>
      <use xlink:href="#DejaVuSans-74" x="824.287109"/>
      <use xlink:href="#DejaVuSans-69" x="863.496094"/>
      <use xlink:href="#DejaVuSans-6d" x="891.279297"/>
      <use xlink:href="#DejaVuSans-61" x="988.691406"/>
      <use xlink:href="#DejaVuSans-6c" x="1049.970703"/>
     </g>
    </g>
    <g id="line2d_19">
     <path d="M 99.754207 49.654688 
L 109.754207 49.654688 
L 119.754207 49.654688 
" style="fill: none; stroke: #55a868; stroke-width: 1.5; stroke-linecap: square"/>
    </g>
    <g id="text_14">
     <!-- Reconstruction-optimal -->
     <g transform="translate(127.754207 53.154688) scale(0.1 -0.1)">
      <defs>
       <path id="DejaVuSans-75" d="M 544 1381 
L 544 3500 
L 1119 3500 
L 1119 1403 
Q 1119 906 1312 657 
Q 1506 409 1894 409 
Q 2359 409 2629 706 
Q 2900 1003 2900 1516 
L 2900 3500 
L 3475 3500 
L 3475 0 
L 2900 0 
L 2900 538 
Q 2691 219 2414 64 
Q 2138 -91 1772 -91 
Q 1169 -91 856 284 
Q 544 659 544 1381 
z
M 1991 3584 
L 1991 3584 
z
" transform="scale(0.015625)"/>
      </defs>
      <use xlink:href="#DejaVuSans-52"/>
      <use xlink:href="#DejaVuSans-65" x="64.982422"/>
      <use xlink:href="#DejaVuSans-63" x="126.505859"/>
      <use xlink:href="#DejaVuSans-6f" x="181.486328"/>
      <use xlink:href="#DejaVuSans-6e" x="242.667969"/>
      <use xlink:href="#DejaVuSans-73" x="306.046875"/>
      <use xlink:href="#DejaVuSans-74" x="358.146484"/>
      <use xlink:href="#DejaVuSans-72" x="397.355469"/>
      <use xlink:href="#DejaVuSans-75" x="438.46875"/>
      <use xlink:href="#DejaVuSans-63" x="501.847656"/>
      <use xlink:href="#DejaVuSans-74" x="556.828125"/>
      <use xlink:href="#DejaVuSans-69" x="596.037109"/>
      <use xlink:href="#DejaVuSans-6f" x="623.820312"/>
      <use xlink:href="#DejaVuSans-6e" x="685.001953"/>
      <use xlink:href="#DejaVuSans-2d" x="748.380859"/>
      <use xlink:href="#DejaVuSans-6f" x="786.339844"/>
      <use xlink:href="#DejaVuSans-70" x="847.521484"/>
      <use xlink:href="#DejaVuSans-74" x="910.998047"/>
      <use xlink:href="#DejaVuSans-69" x="950.207031"/>
      <use xlink:href="#DejaVuSans-6d" x="977.990234"/>
      <use xlink:href="#DejaVuSans-61" x="1075.402344"/>
      <use xlink:href="#DejaVuSans-6c" x="1136.681641"/>
     </g>
    </g>
   </g>
  </g>
 </g>
 <defs>
  <clipPath id="pf0373ff95c">
   <rect x="46.965625" y="7.2" width="206.233895" height="143.64327"/>
  </clipPath>
 </defs>
</svg>
