<?xml version="1.0" encoding="utf-8" standalone="no"?>
<!DOCTYPE svg PUBLIC "-//W3C//DTD SVG 1.1//EN"
  "http://www.w3.org/Graphics/SVG/1.1/DTD/svg11.dtd">
<svg xmlns:xlink="http://www.w3.org/1999/xlink" width="260.39952pt" height="188.39952pt" viewBox="0 0 260.39952 188.39952" xmlns="http://www.w3.org/2000/svg" version="1.1">
 <metadata>
  <rdf:RDF xmlns:dc="http://purl.org/dc/elements/1.1/" xmlns:cc="http://creativecommons.org/ns#" xmlns:rdf="http://www.w3.org/1999/02/22-rdf-syntax-ns#">
   <cc:Work>
    <dc:type rdf:resource="http://purl.org/dc/dcmitype/StillImage"/>
    <dc:date>1980-01-01T00:00:00+00:00</dc:date>
    <dc:format>image/svg+xml</dc:format>
    <dc:creator>
     <cc:Agent>
      <dc:title>Matplotlib v3.7.5, https://matplotlib.org/</dc:title>
     </cc:Agent>
    </dc:creator>
   </cc:Work>
  </rdf:RDF>
 </metadata>
 <defs>
  <style type="text/css">*{stroke-linejoin: round; stroke-linecap: butt}</style>
 </defs>
 <g id="figure_1">
  <g id="patch_1">
   <path d="M -0 188.39952 
L 260.39952 188.39952 
L 260.39952 0 
L -0 0 
z
" style="fill: #ffffff"/>
  </g>
  <g id="axes_1">
   <g id="patch_2">
    <path d="M 34.240625 150.84327 
L 253.19952 150.84327 
L 253.19952 17.798438 
L 34.240625 17.798438 
z
" style="fill: #ffffff"/>
   </g>
   <g id="PolyCollection_1">
    <defs>
     <path id="m6e75c0088e" d="M 34.810459 -38.517161 
L 34.810459 -38.504117 
L 35.380294 -38.50162 
L 35.950128 -38.501712 
L 36.519963 -38.480061 
L 37.089797 -38.422014 
L 37.659632 -38.401524 
L 38.229466 -38.430327 
L 38.799301 -38.476272 
L 39.369135 -38.470953 
L 39.93897 -38.428504 
L 40.508804 -38.392894 
L 41.078639 -38.382256 
L 41.648473 -38.381664 
L 42.218308 -38.428676 
L 42.788142 -38.416402 
L 43.357977 -38.423824 
L 43.927811 -38.397162 
L 44.497645 -38.36074 
L 45.06748 -38.359465 
L 45.637314 -38.556126 
L 46.207149 -38.553731 
L 46.776983 -38.570513 
L 47.346818 -38.567709 
L 47.916652 -38.556488 
L 48.486487 -38.554792 
L 49.056321 -38.582611 
L 49.626156 -38.584747 
L 50.19599 -38.670364 
L 50.765825 -39.691702 
L 51.335659 -39.97402 
L 51.905494 -41.982961 
L 52.475328 -57.015198 
L 53.045163 -57.281286 
L 53.614997 -77.56017 
L 54.184831 -102.510375 
L 54.754666 -147.402854 
L 55.3245 -160.101279 
L 55.894335 -121.367471 
L 56.464169 -46.509793 
L 57.034004 -41.626548 
L 57.603838 -41.152471 
L 58.173673 -40.784372 
L 58.743507 -40.872246 
L 59.313342 -38.967076 
L 59.883176 -38.684968 
L 60.453011 -38.545664 
L 61.022845 -38.544663 
L 61.59268 -38.551368 
L 62.162514 -38.549422 
L 62.732348 -38.550143 
L 63.302183 -38.612878 
L 63.872017 -38.344744 
L 64.441852 -38.286363 
L 65.011686 -38.28087 
L 65.581521 -38.050804 
L 66.151355 -38.080789 
L 66.72119 -38.027875 
L 67.291024 -38.029053 
L 67.860859 -38.023174 
L 68.430693 -38.023987 
L 69.000528 -38.015949 
L 69.570362 -37.943729 
L 70.140197 -37.951753 
L 70.710031 -37.954973 
L 71.279866 -37.953142 
L 71.8497 -37.974115 
L 72.419534 -37.975187 
L 72.989369 -37.978502 
L 73.559203 -37.978639 
L 74.129038 -37.980352 
L 74.698872 -37.973676 
L 75.268707 -37.974129 
L 75.838541 -37.973276 
L 76.408376 -37.97139 
L 76.97821 -37.945772 
L 77.548045 -37.945442 
L 78.117879 -37.943358 
L 78.687714 -37.949001 
L 79.257548 -37.946561 
L 79.827383 -37.934083 
L 80.397217 -37.929285 
L 80.967052 -37.92928 
L 81.536886 -37.92901 
L 82.10672 -37.929211 
L 82.676555 -37.929293 
L 83.246389 -37.926949 
L 83.816224 -37.925048 
L 84.386058 -37.911166 
L 84.955893 -37.911357 
L 85.525727 -37.913129 
L 86.095562 -37.913451 
L 86.665396 -37.907744 
L 87.235231 -37.907916 
L 87.805065 -37.907565 
L 88.3749 -37.905207 
L 88.944734 -37.904013 
L 89.514569 -37.903356 
L 90.084403 -37.903917 
L 90.654238 -37.91576 
L 91.224072 -37.914998 
L 91.793906 -37.915087 
L 92.363741 -37.915104 
L 92.933575 -37.91228 
L 93.50341 -37.908685 
L 94.073244 -37.911356 
L 94.643079 -37.908347 
L 95.212913 -37.906565 
L 95.782748 -37.888069 
L 96.352582 -37.885488 
L 96.922417 -37.885483 
L 97.492251 -37.887378 
L 98.062086 -37.8866 
L 98.63192 -37.888325 
L 99.201755 -37.887524 
L 99.771589 -37.887058 
L 100.341423 -37.886852 
L 100.911258 -37.89019 
L 101.481092 -37.887875 
L 102.050927 -37.88803 
L 102.620761 -37.87898 
L 103.190596 -37.879012 
L 103.76043 -37.873477 
L 104.330265 -37.872469 
L 104.900099 -37.846643 
L 105.469934 -37.859214 
L 106.039768 -37.85949 
L 106.609603 -37.859383 
L 107.179437 -37.852132 
L 107.749272 -37.852818 
L 108.319106 -37.851185 
L 108.888941 -37.849679 
L 109.458775 -37.847492 
L 110.028609 -37.849332 
L 110.598444 -37.848427 
L 111.168278 -37.84415 
L 111.738113 -37.841019 
L 112.307947 -37.836075 
L 112.877782 -37.833949 
L 113.447616 -37.833914 
L 114.017451 -37.835059 
L 114.587285 -37.835049 
L 115.15712 -37.835904 
L 115.726954 -37.834513 
L 116.296789 -37.833467 
L 116.866623 -37.835134 
L 117.436458 -37.832531 
L 118.006292 -37.832479 
L 118.576127 -37.832593 
L 119.145961 -37.831757 
L 119.715795 -37.832459 
L 120.28563 -37.834425 
L 120.855464 -37.831677 
L 121.425299 -37.831724 
L 121.995133 -37.831868 
L 122.564968 -37.831779 
L 123.134802 -37.824893 
L 123.704637 -37.824613 
L 124.274471 -37.825349 
L 124.844306 -37.824942 
L 125.41414 -37.827281 
L 125.983975 -37.827149 
L 126.553809 -37.827286 
L 127.123644 -37.825087 
L 127.693478 -37.808711 
L 128.263313 -37.808582 
L 128.833147 -37.807674 
L 129.402981 -37.807535 
L 129.972816 -37.800962 
L 130.54265 -37.8003 
L 131.112485 -37.800142 
L 131.682319 -37.799981 
L 132.252154 -37.799796 
L 132.821988 -37.799147 
L 133.391823 -37.799315 
L 133.961657 -37.799884 
L 134.531492 -37.799444 
L 135.101326 -37.798902 
L 135.671161 -37.798909 
L 136.240995 -37.8009 
L 136.81083 -37.801643 
L 137.380664 -37.79706 
L 137.950498 -37.796757 
L 138.520333 -37.798159 
L 139.090167 -37.798683 
L 139.660002 -37.798127 
L 140.229836 -37.798021 
L 140.799671 -37.801092 
L 141.369505 -37.799899 
L 141.93934 -37.800354 
L 142.509174 -37.79971 
L 143.079009 -37.799721 
L 143.648843 -37.799335 
L 144.218678 -37.799327 
L 144.788512 -37.799371 
L 145.358347 -37.797875 
L 145.928181 -37.798044 
L 146.498016 -37.799174 
L 147.06785 -37.798736 
L 147.637684 -37.795767 
L 148.207519 -37.796143 
L 148.777353 -37.79421 
L 149.347188 -37.794502 
L 149.917022 -37.794626 
L 150.486857 -37.794631 
L 151.056691 -37.79515 
L 151.626526 -37.789941 
L 152.19636 -37.789754 
L 152.766195 -37.789784 
L 153.336029 -37.78971 
L 153.905864 -37.789693 
L 154.475698 -37.789704 
L 155.045533 -37.789796 
L 155.615367 -37.792219 
L 156.185202 -37.792329 
L 156.755036 -37.791828 
L 157.32487 -37.791309 
L 157.894705 -37.791872 
L 158.464539 -37.792803 
L 159.034374 -37.792796 
L 159.604208 -37.79336 
L 160.174043 -37.793243 
L 160.743877 -37.792643 
L 161.313712 -37.793083 
L 161.883546 -37.792941 
L 162.453381 -37.793165 
L 163.023215 -37.793164 
L 163.59305 -37.793098 
L 164.162884 -37.792622 
L 164.732719 -37.792843 
L 165.302553 -37.792713 
L 165.872388 -37.79121 
L 166.442222 -37.790186 
L 167.012056 -37.790292 
L 167.581891 -37.790139 
L 168.151725 -37.789033 
L 168.72156 -37.789305 
L 169.291394 -37.789446 
L 169.861229 -37.78943 
L 170.431063 -37.788958 
L 171.000898 -37.788486 
L 171.570732 -37.789169 
L 172.140567 -37.789442 
L 172.710401 -37.788413 
L 173.280236 -37.788572 
L 173.85007 -37.788726 
L 174.419905 -37.786329 
L 174.989739 -37.786144 
L 175.559573 -37.785927 
L 176.129408 -37.785596 
L 176.699242 -37.785567 
L 177.269077 -37.785485 
L 177.838911 -37.785416 
L 178.408746 -37.785097 
L 178.97858 -37.785251 
L 179.548415 -37.785176 
L 180.118249 -37.783345 
L 180.688084 -37.783956 
L 181.257918 -37.783848 
L 181.827753 -37.784216 
L 182.397587 -37.784141 
L 182.967422 -37.778813 
L 183.537256 -37.778749 
L 184.107091 -37.778766 
L 184.676925 -37.778857 
L 185.246759 -37.77884 
L 185.816594 -37.7789 
L 186.386428 -37.779048 
L 186.956263 -37.778836 
L 187.526097 -37.778684 
L 188.095932 -37.778424 
L 188.665766 -37.778381 
L 189.235601 -37.778198 
L 189.805435 -37.777778 
L 190.37527 -37.777815 
L 190.945104 -37.777785 
L 191.514939 -37.776369 
L 192.084773 -37.77632 
L 192.654608 -37.775937 
L 193.224442 -37.775763 
L 193.794277 -37.775636 
L 194.364111 -37.776107 
L 194.933945 -37.776069 
L 195.50378 -37.775969 
L 196.073614 -37.77578 
L 196.643449 -37.775931 
L 197.213283 -37.775851 
L 197.783118 -37.775993 
L 198.352952 -37.775946 
L 198.922787 -37.775549 
L 199.492621 -37.775622 
L 200.062456 -37.775624 
L 200.63229 -37.775759 
L 201.202125 -37.775962 
L 201.771959 -37.775891 
L 202.341794 -37.775843 
L 202.911628 -37.77542 
L 203.481463 -37.775607 
L 204.051297 -37.775577 
L 204.621131 -37.775641 
L 205.190966 -37.775758 
L 205.7608 -37.775683 
L 206.330635 -37.775448 
L 206.900469 -37.775555 
L 207.470304 -37.775411 
L 208.040138 -37.77517 
L 208.609973 -37.775187 
L 209.179807 -37.773705 
L 209.749642 -37.773835 
L 210.319476 -37.773783 
L 210.889311 -37.773692 
L 211.459145 -37.772938 
L 212.02898 -37.773028 
L 212.598814 -37.773087 
L 213.168649 -37.77281 
L 213.738483 -37.772656 
L 214.308317 -37.772616 
L 214.878152 -37.772609 
L 215.447986 -37.772239 
L 216.017821 -37.772191 
L 216.587655 -37.772191 
L 217.15749 -37.77079 
L 217.727324 -37.770617 
L 218.297159 -37.77053 
L 218.866993 -37.770538 
L 219.436828 -37.770316 
L 220.006662 -37.76993 
L 220.576497 -37.769994 
L 221.146331 -37.770064 
L 221.716166 -37.770024 
L 222.286 -37.769991 
L 222.855834 -37.770043 
L 223.425669 -37.769967 
L 223.995503 -37.769925 
L 224.565338 -37.769951 
L 225.135172 -37.769955 
L 225.705007 -37.769915 
L 226.274841 -37.769794 
L 226.844676 -37.769874 
L 227.41451 -37.769885 
L 227.984345 -37.769838 
L 228.554179 -37.769588 
L 229.124014 -37.769512 
L 229.693848 -37.769558 
L 230.263683 -37.769413 
L 230.833517 -37.769562 
L 231.403352 -37.769554 
L 231.973186 -37.76954 
L 232.54302 -37.769519 
L 233.112855 -37.769659 
L 233.682689 -37.769181 
L 234.252524 -37.769177 
L 234.822358 -37.76912 
L 235.392193 -37.769014 
L 235.962027 -37.768926 
L 236.531862 -37.76887 
L 237.101696 -37.767989 
L 237.671531 -37.767888 
L 238.241365 -37.767866 
L 238.8112 -37.767827 
L 239.381034 -37.767632 
L 239.950869 -37.767601 
L 240.520703 -37.767554 
L 241.090538 -37.767491 
L 241.660372 -37.767468 
L 242.230206 -37.767466 
L 242.800041 -37.767452 
L 242.800041 -37.769633 
L 242.800041 -37.769633 
L 242.230206 -37.769725 
L 241.660372 -37.769673 
L 241.090538 -37.769584 
L 240.520703 -37.769803 
L 239.950869 -37.769723 
L 239.381034 -37.769932 
L 238.8112 -37.77008 
L 238.241365 -37.770188 
L 237.671531 -37.770103 
L 237.101696 -37.770216 
L 236.531862 -37.771097 
L 235.962027 -37.771141 
L 235.392193 -37.771279 
L 234.822358 -37.771238 
L 234.252524 -37.771391 
L 233.682689 -37.771444 
L 233.112855 -37.771838 
L 232.54302 -37.771774 
L 231.973186 -37.771693 
L 231.403352 -37.771757 
L 230.833517 -37.771675 
L 230.263683 -37.771675 
L 229.693848 -37.771794 
L 229.124014 -37.771747 
L 228.554179 -37.771753 
L 227.984345 -37.772111 
L 227.41451 -37.772049 
L 226.844676 -37.772094 
L 226.274841 -37.771949 
L 225.705007 -37.772217 
L 225.135172 -37.772257 
L 224.565338 -37.772185 
L 223.995503 -37.772224 
L 223.425669 -37.772237 
L 222.855834 -37.772259 
L 222.286 -37.772203 
L 221.716166 -37.772209 
L 221.146331 -37.772375 
L 220.576497 -37.772348 
L 220.006662 -37.772268 
L 219.436828 -37.772578 
L 218.866993 -37.772681 
L 218.297159 -37.772794 
L 217.727324 -37.772843 
L 217.15749 -37.772941 
L 216.587655 -37.774303 
L 216.017821 -37.774382 
L 215.447986 -37.774407 
L 214.878152 -37.774855 
L 214.308317 -37.774767 
L 213.738483 -37.774787 
L 213.168649 -37.77505 
L 212.598814 -37.775153 
L 212.02898 -37.775288 
L 211.459145 -37.775236 
L 210.889311 -37.776022 
L 210.319476 -37.775999 
L 209.749642 -37.775941 
L 209.179807 -37.775797 
L 208.609973 -37.777362 
L 208.040138 -37.77734 
L 207.470304 -37.777686 
L 206.900469 -37.777782 
L 206.330635 -37.777617 
L 205.7608 -37.777822 
L 205.190966 -37.777871 
L 204.621131 -37.777803 
L 204.051297 -37.777652 
L 203.481463 -37.777772 
L 202.911628 -37.777626 
L 202.341794 -37.777983 
L 201.771959 -37.778166 
L 201.202125 -37.778175 
L 200.63229 -37.777962 
L 200.062456 -37.777898 
L 199.492621 -37.777788 
L 198.922787 -37.777825 
L 198.352952 -37.778276 
L 197.783118 -37.778106 
L 197.213283 -37.778233 
L 196.643449 -37.778061 
L 196.073614 -37.778059 
L 195.50378 -37.778064 
L 194.933945 -37.778203 
L 194.364111 -37.778303 
L 193.794277 -37.777869 
L 193.224442 -37.778003 
L 192.654608 -37.778116 
L 192.084773 -37.778513 
L 191.514939 -37.778638 
L 190.945104 -37.78007 
L 190.37527 -37.780094 
L 189.805435 -37.780052 
L 189.235601 -37.78039 
L 188.665766 -37.780664 
L 188.095932 -37.780678 
L 187.526097 -37.781023 
L 186.956263 -37.781117 
L 186.386428 -37.781299 
L 185.816594 -37.781136 
L 185.246759 -37.78108 
L 184.676925 -37.781263 
L 184.107091 -37.781093 
L 183.537256 -37.781052 
L 182.967422 -37.781092 
L 182.397587 -37.786383 
L 181.827753 -37.786482 
L 181.257918 -37.786075 
L 180.688084 -37.786028 
L 180.118249 -37.785587 
L 179.548415 -37.787288 
L 178.97858 -37.787476 
L 178.408746 -37.787236 
L 177.838911 -37.787699 
L 177.269077 -37.787787 
L 176.699242 -37.787699 
L 176.129408 -37.787755 
L 175.559573 -37.788161 
L 174.989739 -37.788365 
L 174.419905 -37.788588 
L 173.85007 -37.79109 
L 173.280236 -37.79093 
L 172.710401 -37.790858 
L 172.140567 -37.791795 
L 171.570732 -37.791465 
L 171.000898 -37.790919 
L 170.431063 -37.791334 
L 169.861229 -37.791703 
L 169.291394 -37.791964 
L 168.72156 -37.791651 
L 168.151725 -37.791338 
L 167.581891 -37.792547 
L 167.012056 -37.792652 
L 166.442222 -37.792608 
L 165.872388 -37.79345 
L 165.302553 -37.794866 
L 164.732719 -37.795078 
L 164.162884 -37.794875 
L 163.59305 -37.795381 
L 163.023215 -37.795519 
L 162.453381 -37.79554 
L 161.883546 -37.79539 
L 161.313712 -37.795408 
L 160.743877 -37.795127 
L 160.174043 -37.795547 
L 159.604208 -37.795681 
L 159.034374 -37.795078 
L 158.464539 -37.795046 
L 157.894705 -37.794072 
L 157.32487 -37.79348 
L 156.755036 -37.794123 
L 156.185202 -37.794555 
L 155.615367 -37.79445 
L 155.045533 -37.791983 
L 154.475698 -37.792009 
L 153.905864 -37.791895 
L 153.336029 -37.791991 
L 152.766195 -37.791896 
L 152.19636 -37.792031 
L 151.626526 -37.792177 
L 151.056691 -37.797615 
L 150.486857 -37.797019 
L 149.917022 -37.797223 
L 149.347188 -37.79702 
L 148.777353 -37.796686 
L 148.207519 -37.79868 
L 147.637684 -37.798268 
L 147.06785 -37.801059 
L 146.498016 -37.801665 
L 145.928181 -37.800438 
L 145.358347 -37.800254 
L 144.788512 -37.801804 
L 144.218678 -37.801784 
L 143.648843 -37.801798 
L 143.079009 -37.802149 
L 142.509174 -37.802321 
L 141.93934 -37.802876 
L 141.369505 -37.802414 
L 140.799671 -37.803704 
L 140.229836 -37.800491 
L 139.660002 -37.800504 
L 139.090167 -37.801222 
L 138.520333 -37.800564 
L 137.950498 -37.799469 
L 137.380664 -37.799572 
L 136.81083 -37.804542 
L 136.240995 -37.803797 
L 135.671161 -37.801803 
L 135.101326 -37.801703 
L 134.531492 -37.802358 
L 133.961657 -37.802813 
L 133.391823 -37.802273 
L 132.821988 -37.80199 
L 132.252154 -37.8027 
L 131.682319 -37.802686 
L 131.112485 -37.802995 
L 130.54265 -37.803124 
L 129.972816 -37.803914 
L 129.402981 -37.810891 
L 128.833147 -37.811093 
L 128.263313 -37.812077 
L 127.693478 -37.812185 
L 127.123644 -37.828222 
L 126.553809 -37.830294 
L 125.983975 -37.830417 
L 125.41414 -37.830458 
L 124.844306 -37.828155 
L 124.274471 -37.828409 
L 123.704637 -37.827897 
L 123.134802 -37.828017 
L 122.564968 -37.835271 
L 121.995133 -37.835454 
L 121.425299 -37.83512 
L 120.855464 -37.835021 
L 120.28563 -37.838049 
L 119.715795 -37.836043 
L 119.145961 -37.835193 
L 118.576127 -37.836303 
L 118.006292 -37.83617 
L 117.436458 -37.836416 
L 116.866623 -37.838866 
L 116.296789 -37.836837 
L 115.726954 -37.837891 
L 115.15712 -37.839318 
L 114.587285 -37.838583 
L 114.017451 -37.838547 
L 113.447616 -37.837274 
L 112.877782 -37.837356 
L 112.307947 -37.839421 
L 111.738113 -37.84449 
L 111.168278 -37.847827 
L 110.598444 -37.852015 
L 110.028609 -37.852845 
L 109.458775 -37.850795 
L 108.888941 -37.853136 
L 108.319106 -37.854437 
L 107.749272 -37.856358 
L 107.179437 -37.855606 
L 106.609603 -37.863055 
L 106.039768 -37.863137 
L 105.469934 -37.863102 
L 104.900099 -37.849957 
L 104.330265 -37.87637 
L 103.76043 -37.877095 
L 103.190596 -37.883087 
L 102.620761 -37.883048 
L 102.050927 -37.892446 
L 101.481092 -37.892298 
L 100.911258 -37.89454 
L 100.341423 -37.891223 
L 99.771589 -37.891406 
L 99.201755 -37.892074 
L 98.63192 -37.892939 
L 98.062086 -37.891055 
L 97.492251 -37.891607 
L 96.922417 -37.889931 
L 96.352582 -37.889847 
L 95.782748 -37.892436 
L 95.212913 -37.911349 
L 94.643079 -37.912628 
L 94.073244 -37.916132 
L 93.50341 -37.913347 
L 92.933575 -37.916648 
L 92.363741 -37.919753 
L 91.793906 -37.919328 
L 91.224072 -37.919546 
L 90.654238 -37.920181 
L 90.084403 -37.908389 
L 89.514569 -37.907697 
L 88.944734 -37.908418 
L 88.3749 -37.909772 
L 87.805065 -37.912619 
L 87.235231 -37.912641 
L 86.665396 -37.912506 
L 86.095562 -37.918255 
L 85.525727 -37.917923 
L 84.955893 -37.916223 
L 84.386058 -37.916038 
L 83.816224 -37.929575 
L 83.246389 -37.931285 
L 82.676555 -37.933808 
L 82.10672 -37.933722 
L 81.536886 -37.933813 
L 80.967052 -37.933818 
L 80.397217 -37.933998 
L 79.827383 -37.938551 
L 79.257548 -37.950757 
L 78.687714 -37.953401 
L 78.117879 -37.948085 
L 77.548045 -37.950222 
L 76.97821 -37.950284 
L 76.408376 -37.975128 
L 75.838541 -37.977278 
L 75.268707 -37.977998 
L 74.698872 -37.977337 
L 74.129038 -37.984232 
L 73.559203 -37.982476 
L 72.989369 -37.98228 
L 72.419534 -37.978885 
L 71.8497 -37.977836 
L 71.279866 -37.957139 
L 70.710031 -37.959802 
L 70.140197 -37.955898 
L 69.570362 -37.948512 
L 69.000528 -38.024786 
L 68.430693 -38.033066 
L 67.860859 -38.03228 
L 67.291024 -38.038375 
L 66.72119 -38.036905 
L 66.151355 -38.094509 
L 65.581521 -38.060774 
L 65.011686 -38.294411 
L 64.441852 -38.300492 
L 63.872017 -38.362983 
L 63.302183 -38.641181 
L 62.732348 -38.581127 
L 62.162514 -38.579112 
L 61.59268 -38.581831 
L 61.022845 -38.575643 
L 60.453011 -38.576291 
L 59.883176 -38.729662 
L 59.313342 -39.005059 
L 58.743507 -41.038974 
L 58.173673 -40.938363 
L 57.603838 -41.234218 
L 57.034004 -41.719907 
L 56.464169 -47.016554 
L 55.894335 -125.334851 
L 55.3245 -164.275667 
L 54.754666 -153.51882 
L 54.184831 -105.430616 
L 53.614997 -79.96841 
L 53.045163 -58.54167 
L 52.475328 -58.367774 
L 51.905494 -42.186355 
L 51.335659 -40.068698 
L 50.765825 -39.768894 
L 50.19599 -38.700852 
L 49.626156 -38.613932 
L 49.056321 -38.610825 
L 48.486487 -38.582805 
L 47.916652 -38.583228 
L 47.346818 -38.594075 
L 46.776983 -38.596509 
L 46.207149 -38.575411 
L 45.637314 -38.577405 
L 45.06748 -38.372916 
L 44.497645 -38.374219 
L 43.927811 -38.409918 
L 43.357977 -38.437149 
L 42.788142 -38.427578 
L 42.218308 -38.439308 
L 41.648473 -38.38933 
L 41.078639 -38.389901 
L 40.508804 -38.400601 
L 39.93897 -38.436278 
L 39.369135 -38.479777 
L 38.799301 -38.485578 
L 38.229466 -38.437439 
L 37.659632 -38.41457 
L 37.089797 -38.435491 
L 36.519963 -38.493099 
L 35.950128 -38.514171 
L 35.380294 -38.513696 
L 34.810459 -38.517161 
z
" style="stroke: #4c72b0; stroke-opacity: 0.2"/>
    </defs>
    <g clip-path="url(#pde18841251)">
     <use xlink:href="#m6e75c0088e" x="0" y="188.39952" style="fill: #4c72b0; fill-opacity: 0.2; stroke: #4c72b0; stroke-opacity: 0.2"/>
    </g>
   </g>
   <g id="PolyCollection_2">
    <defs>
     <path id="m1dd4552f96" d="M 34.810459 -38.520568 
L 34.810459 -38.507957 
L 35.380294 -38.482456 
L 35.950128 -38.482377 
L 36.519963 -38.485435 
L 37.089797 -38.51083 
L 37.659632 -38.473974 
L 38.229466 -38.435922 
L 38.799301 -38.455184 
L 39.369135 -38.439933 
L 39.93897 -38.441061 
L 40.508804 -38.430624 
L 41.078639 -38.276524 
L 41.648473 -38.253525 
L 42.218308 -38.249677 
L 42.788142 -38.252573 
L 43.357977 -38.250302 
L 43.927811 -38.385346 
L 44.497645 -38.465609 
L 45.06748 -38.473481 
L 45.637314 -38.462275 
L 46.207149 -38.421274 
L 46.776983 -38.417372 
L 47.346818 -38.418761 
L 47.916652 -38.406205 
L 48.486487 -38.473756 
L 49.056321 -38.573936 
L 49.626156 -38.571266 
L 50.19599 -38.678738 
L 50.765825 -38.677599 
L 51.335659 -38.850437 
L 51.905494 -39.059601 
L 52.475328 -39.061677 
L 53.045163 -39.052616 
L 53.614997 -39.057296 
L 54.184831 -39.162097 
L 54.754666 -39.159374 
L 55.3245 -38.600947 
L 55.894335 -38.311474 
L 56.464169 -38.293641 
L 57.034004 -38.238174 
L 57.603838 -38.153196 
L 58.173673 -38.13556 
L 58.743507 -38.054777 
L 59.313342 -38.059889 
L 59.883176 -38.023407 
L 60.453011 -38.020672 
L 61.022845 -38.020093 
L 61.59268 -37.974299 
L 62.162514 -37.972352 
L 62.732348 -37.971087 
L 63.302183 -37.972032 
L 63.872017 -37.954232 
L 64.441852 -37.953494 
L 65.011686 -37.948117 
L 65.581521 -37.951031 
L 66.151355 -37.927576 
L 66.72119 -37.926839 
L 67.291024 -37.920333 
L 67.860859 -37.918674 
L 68.430693 -37.887025 
L 69.000528 -37.884838 
L 69.570362 -37.885952 
L 70.140197 -37.871192 
L 70.710031 -37.870716 
L 71.279866 -37.868587 
L 71.8497 -37.869021 
L 72.419534 -37.868473 
L 72.989369 -37.86771 
L 73.559203 -37.863985 
L 74.129038 -37.863895 
L 74.698872 -37.863743 
L 75.268707 -37.86295 
L 75.838541 -37.864027 
L 76.408376 -37.857048 
L 76.97821 -37.857565 
L 77.548045 -37.860047 
L 78.117879 -37.857407 
L 78.687714 -37.858312 
L 79.257548 -37.858384 
L 79.827383 -37.853497 
L 80.397217 -37.853543 
L 80.967052 -37.856457 
L 81.536886 -37.85823 
L 82.10672 -37.855841 
L 82.676555 -37.856514 
L 83.246389 -37.856441 
L 83.816224 -37.855209 
L 84.386058 -37.842299 
L 84.955893 -37.840596 
L 85.525727 -37.84062 
L 86.095562 -37.84275 
L 86.665396 -37.842262 
L 87.235231 -37.841888 
L 87.805065 -37.837633 
L 88.3749 -37.839547 
L 88.944734 -37.835224 
L 89.514569 -37.832564 
L 90.084403 -37.83652 
L 90.654238 -37.836448 
L 91.224072 -37.834879 
L 91.793906 -37.83443 
L 92.363741 -37.834698 
L 92.933575 -37.835171 
L 93.50341 -37.832746 
L 94.073244 -37.832444 
L 94.643079 -37.832425 
L 95.212913 -37.826595 
L 95.782748 -37.826554 
L 96.352582 -37.826525 
L 96.922417 -37.826538 
L 97.492251 -37.826535 
L 98.062086 -37.827005 
L 98.63192 -37.822558 
L 99.201755 -37.822769 
L 99.771589 -37.819619 
L 100.341423 -37.818552 
L 100.911258 -37.814109 
L 101.481092 -37.812865 
L 102.050927 -37.810812 
L 102.620761 -37.810601 
L 103.190596 -37.809707 
L 103.76043 -37.807385 
L 104.330265 -37.807352 
L 104.900099 -37.807774 
L 105.469934 -37.807672 
L 106.039768 -37.808073 
L 106.609603 -37.808395 
L 107.179437 -37.806467 
L 107.749272 -37.805822 
L 108.319106 -37.803479 
L 108.888941 -37.803443 
L 109.458775 -37.802557 
L 110.028609 -37.801675 
L 110.598444 -37.801577 
L 111.168278 -37.80132 
L 111.738113 -37.801081 
L 112.307947 -37.801331 
L 112.877782 -37.799542 
L 113.447616 -37.794393 
L 114.017451 -37.794844 
L 114.587285 -37.794987 
L 115.15712 -37.794789 
L 115.726954 -37.794641 
L 116.296789 -37.79396 
L 116.866623 -37.793619 
L 117.436458 -37.794269 
L 118.006292 -37.794229 
L 118.576127 -37.791868 
L 119.145961 -37.791936 
L 119.715795 -37.791784 
L 120.28563 -37.791197 
L 120.855464 -37.790873 
L 121.425299 -37.790896 
L 121.995133 -37.791017 
L 122.564968 -37.787349 
L 123.134802 -37.786316 
L 123.704637 -37.787247 
L 124.274471 -37.787158 
L 124.844306 -37.787116 
L 125.41414 -37.787383 
L 125.983975 -37.787297 
L 126.553809 -37.787031 
L 127.123644 -37.786962 
L 127.693478 -37.786802 
L 128.263313 -37.786695 
L 128.833147 -37.786445 
L 129.402981 -37.785269 
L 129.972816 -37.784437 
L 130.54265 -37.784336 
L 131.112485 -37.784059 
L 131.682319 -37.784424 
L 132.252154 -37.782535 
L 132.821988 -37.782806 
L 133.391823 -37.782734 
L 133.961657 -37.782798 
L 134.531492 -37.781939 
L 135.101326 -37.779804 
L 135.671161 -37.779569 
L 136.240995 -37.779759 
L 136.81083 -37.778978 
L 137.380664 -37.777327 
L 137.950498 -37.777331 
L 138.520333 -37.777409 
L 139.090167 -37.777435 
L 139.660002 -37.776981 
L 140.229836 -37.777025 
L 140.799671 -37.777427 
L 141.369505 -37.776223 
L 141.93934 -37.776148 
L 142.509174 -37.776141 
L 143.079009 -37.776191 
L 143.648843 -37.776283 
L 144.218678 -37.776972 
L 144.788512 -37.776971 
L 145.358347 -37.777172 
L 145.928181 -37.777396 
L 146.498016 -37.777424 
L 147.06785 -37.776819 
L 147.637684 -37.776771 
L 148.207519 -37.776805 
L 148.777353 -37.776785 
L 149.347188 -37.776706 
L 149.917022 -37.777137 
L 150.486857 -37.777429 
L 151.056691 -37.777506 
L 151.626526 -37.777619 
L 152.19636 -37.777364 
L 152.766195 -37.777323 
L 153.336029 -37.777334 
L 153.905864 -37.777376 
L 154.475698 -37.777636 
L 155.045533 -37.777867 
L 155.615367 -37.77771 
L 156.185202 -37.77768 
L 156.755036 -37.77804 
L 157.32487 -37.779021 
L 157.894705 -37.779753 
L 158.464539 -37.779521 
L 159.034374 -37.777608 
L 159.604208 -37.777678 
L 160.174043 -37.778862 
L 160.743877 -37.779465 
L 161.313712 -37.779905 
L 161.883546 -37.779791 
L 162.453381 -37.780007 
L 163.023215 -37.779896 
L 163.59305 -37.78026 
L 164.162884 -37.779734 
L 164.732719 -37.779725 
L 165.302553 -37.779625 
L 165.872388 -37.779587 
L 166.442222 -37.779359 
L 167.012056 -37.77918 
L 167.581891 -37.77926 
L 168.151725 -37.779117 
L 168.72156 -37.778902 
L 169.291394 -37.778851 
L 169.861229 -37.778656 
L 170.431063 -37.778548 
L 171.000898 -37.778711 
L 171.570732 -37.778318 
L 172.140567 -37.77864 
L 172.710401 -37.778811 
L 173.280236 -37.778584 
L 173.85007 -37.778643 
L 174.419905 -37.778673 
L 174.989739 -37.778702 
L 175.559573 -37.778524 
L 176.129408 -37.776041 
L 176.699242 -37.776119 
L 177.269077 -37.77644 
L 177.838911 -37.776328 
L 178.408746 -37.776409 
L 178.97858 -37.776396 
L 179.548415 -37.776399 
L 180.118249 -37.77625 
L 180.688084 -37.776444 
L 181.257918 -37.776351 
L 181.827753 -37.776562 
L 182.397587 -37.777022 
L 182.967422 -37.777031 
L 183.537256 -37.77645 
L 184.107091 -37.776523 
L 184.676925 -37.776436 
L 185.246759 -37.776368 
L 185.816594 -37.776217 
L 186.386428 -37.776171 
L 186.956263 -37.776049 
L 187.526097 -37.775577 
L 188.095932 -37.775228 
L 188.665766 -37.774621 
L 189.235601 -37.773645 
L 189.805435 -37.773844 
L 190.37527 -37.773874 
L 190.945104 -37.773912 
L 191.514939 -37.773712 
L 192.084773 -37.773745 
L 192.654608 -37.773691 
L 193.224442 -37.773766 
L 193.794277 -37.773278 
L 194.364111 -37.773296 
L 194.933945 -37.772939 
L 195.50378 -37.772962 
L 196.073614 -37.772915 
L 196.643449 -37.773033 
L 197.213283 -37.772847 
L 197.783118 -37.772333 
L 198.352952 -37.772239 
L 198.922787 -37.771853 
L 199.492621 -37.771925 
L 200.062456 -37.771885 
L 200.63229 -37.771901 
L 201.202125 -37.771969 
L 201.771959 -37.771657 
L 202.341794 -37.771073 
L 202.911628 -37.770781 
L 203.481463 -37.770881 
L 204.051297 -37.77082 
L 204.621131 -37.770734 
L 205.190966 -37.770732 
L 205.7608 -37.770619 
L 206.330635 -37.770482 
L 206.900469 -37.770564 
L 207.470304 -37.770456 
L 208.040138 -37.770536 
L 208.609973 -37.770401 
L 209.179807 -37.769951 
L 209.749642 -37.769983 
L 210.319476 -37.77006 
L 210.889311 -37.770085 
L 211.459145 -37.770006 
L 212.02898 -37.770024 
L 212.598814 -37.770146 
L 213.168649 -37.770102 
L 213.738483 -37.7702 
L 214.308317 -37.769861 
L 214.878152 -37.769538 
L 215.447986 -37.769441 
L 216.017821 -37.769454 
L 216.587655 -37.769415 
L 217.15749 -37.76917 
L 217.727324 -37.769104 
L 218.297159 -37.769038 
L 218.866993 -37.769025 
L 219.436828 -37.769115 
L 220.006662 -37.768981 
L 220.576497 -37.768895 
L 221.146331 -37.768606 
L 221.716166 -37.768518 
L 222.286 -37.768839 
L 222.855834 -37.768757 
L 223.425669 -37.768767 
L 223.995503 -37.768811 
L 224.565338 -37.768708 
L 225.135172 -37.768774 
L 225.705007 -37.76867 
L 226.274841 -37.768721 
L 226.844676 -37.768753 
L 227.41451 -37.76874 
L 227.984345 -37.768677 
L 228.554179 -37.768535 
L 229.124014 -37.768426 
L 229.693848 -37.768385 
L 230.263683 -37.76853 
L 230.833517 -37.76827 
L 231.403352 -37.768159 
L 231.973186 -37.768211 
L 232.54302 -37.767948 
L 233.112855 -37.76786 
L 233.682689 -37.767987 
L 234.252524 -37.767745 
L 234.822358 -37.767753 
L 235.392193 -37.76769 
L 235.962027 -37.767685 
L 236.531862 -37.767741 
L 237.101696 -37.767684 
L 237.671531 -37.767662 
L 238.241365 -37.767588 
L 238.8112 -37.767552 
L 239.381034 -37.767458 
L 239.950869 -37.767445 
L 240.520703 -37.767611 
L 241.090538 -37.767505 
L 241.660372 -37.767455 
L 242.230206 -37.767436 
L 242.800041 -37.767397 
L 242.800041 -37.769588 
L 242.800041 -37.769588 
L 242.230206 -37.769577 
L 241.660372 -37.769675 
L 241.090538 -37.769717 
L 240.520703 -37.769646 
L 239.950869 -37.76975 
L 239.381034 -37.769723 
L 238.8112 -37.769827 
L 238.241365 -37.769785 
L 237.671531 -37.76986 
L 237.101696 -37.769984 
L 236.531862 -37.769935 
L 235.962027 -37.769895 
L 235.392193 -37.770017 
L 234.822358 -37.76999 
L 234.252524 -37.770058 
L 233.682689 -37.770171 
L 233.112855 -37.770271 
L 232.54302 -37.77021 
L 231.973186 -37.770458 
L 231.403352 -37.770478 
L 230.833517 -37.770444 
L 230.263683 -37.770727 
L 229.693848 -37.770737 
L 229.124014 -37.770762 
L 228.554179 -37.770743 
L 227.984345 -37.77096 
L 227.41451 -37.770972 
L 226.844676 -37.77096 
L 226.274841 -37.771049 
L 225.705007 -37.771029 
L 225.135172 -37.771062 
L 224.565338 -37.7712 
L 223.995503 -37.771052 
L 223.425669 -37.771047 
L 222.855834 -37.771046 
L 222.286 -37.771171 
L 221.716166 -37.770949 
L 221.146331 -37.770897 
L 220.576497 -37.771222 
L 220.006662 -37.771257 
L 219.436828 -37.771355 
L 218.866993 -37.77143 
L 218.297159 -37.771361 
L 217.727324 -37.771517 
L 217.15749 -37.771509 
L 216.587655 -37.771675 
L 216.017821 -37.771715 
L 215.447986 -37.771779 
L 214.878152 -37.771813 
L 214.308317 -37.772211 
L 213.738483 -37.772464 
L 213.168649 -37.772428 
L 212.598814 -37.772447 
L 212.02898 -37.772359 
L 211.459145 -37.77243 
L 210.889311 -37.772489 
L 210.319476 -37.772229 
L 209.749642 -37.77231 
L 209.179807 -37.77232 
L 208.609973 -37.772736 
L 208.040138 -37.772986 
L 207.470304 -37.772932 
L 206.900469 -37.772813 
L 206.330635 -37.772792 
L 205.7608 -37.772967 
L 205.190966 -37.773096 
L 204.621131 -37.773229 
L 204.051297 -37.773192 
L 203.481463 -37.773257 
L 202.911628 -37.773126 
L 202.341794 -37.773473 
L 201.771959 -37.774015 
L 201.202125 -37.774366 
L 200.63229 -37.774271 
L 200.062456 -37.774322 
L 199.492621 -37.774283 
L 198.922787 -37.774279 
L 198.352952 -37.774496 
L 197.783118 -37.774616 
L 197.213283 -37.775235 
L 196.643449 -37.775383 
L 196.073614 -37.775342 
L 195.50378 -37.775369 
L 194.933945 -37.775362 
L 194.364111 -37.775701 
L 193.794277 -37.775754 
L 193.224442 -37.776219 
L 192.654608 -37.776055 
L 192.084773 -37.776082 
L 191.514939 -37.776054 
L 190.945104 -37.776264 
L 190.37527 -37.776302 
L 189.805435 -37.776207 
L 189.235601 -37.776028 
L 188.665766 -37.776916 
L 188.095932 -37.777696 
L 187.526097 -37.778062 
L 186.956263 -37.778562 
L 186.386428 -37.778686 
L 185.816594 -37.778654 
L 185.246759 -37.778946 
L 184.676925 -37.778958 
L 184.107091 -37.779038 
L 183.537256 -37.778904 
L 182.967422 -37.77939 
L 182.397587 -37.779456 
L 181.827753 -37.779038 
L 181.257918 -37.778913 
L 180.688084 -37.778947 
L 180.118249 -37.7787 
L 179.548415 -37.778688 
L 178.97858 -37.778795 
L 178.408746 -37.778907 
L 177.838911 -37.778696 
L 177.269077 -37.778871 
L 176.699242 -37.778562 
L 176.129408 -37.778486 
L 175.559573 -37.780994 
L 174.989739 -37.781005 
L 174.419905 -37.78106 
L 173.85007 -37.781054 
L 173.280236 -37.781022 
L 172.710401 -37.781129 
L 172.140567 -37.781124 
L 171.570732 -37.780857 
L 171.000898 -37.781183 
L 170.431063 -37.780945 
L 169.861229 -37.780984 
L 169.291394 -37.781192 
L 168.72156 -37.781161 
L 168.151725 -37.781604 
L 167.581891 -37.78163 
L 167.012056 -37.781558 
L 166.442222 -37.781701 
L 165.872388 -37.782166 
L 165.302553 -37.782075 
L 164.732719 -37.782137 
L 164.162884 -37.782048 
L 163.59305 -37.782506 
L 163.023215 -37.782499 
L 162.453381 -37.782471 
L 161.883546 -37.782408 
L 161.313712 -37.782331 
L 160.743877 -37.78187 
L 160.174043 -37.781147 
L 159.604208 -37.780048 
L 159.034374 -37.779912 
L 158.464539 -37.781874 
L 157.894705 -37.782043 
L 157.32487 -37.781359 
L 156.755036 -37.780228 
L 156.185202 -37.779867 
L 155.615367 -37.780004 
L 155.045533 -37.779912 
L 154.475698 -37.779967 
L 153.905864 -37.779571 
L 153.336029 -37.77959 
L 152.766195 -37.779635 
L 152.19636 -37.779589 
L 151.626526 -37.779825 
L 151.056691 -37.77966 
L 150.486857 -37.779599 
L 149.917022 -37.779428 
L 149.347188 -37.778906 
L 148.777353 -37.778939 
L 148.207519 -37.778932 
L 147.637684 -37.778825 
L 147.06785 -37.778964 
L 146.498016 -37.779631 
L 145.928181 -37.779619 
L 145.358347 -37.779232 
L 144.788512 -37.779171 
L 144.218678 -37.779112 
L 143.648843 -37.778367 
L 143.079009 -37.7784 
L 142.509174 -37.778225 
L 141.93934 -37.778337 
L 141.369505 -37.778362 
L 140.799671 -37.779581 
L 140.229836 -37.779175 
L 139.660002 -37.779104 
L 139.090167 -37.779493 
L 138.520333 -37.779449 
L 137.950498 -37.77949 
L 137.380664 -37.779469 
L 136.81083 -37.781117 
L 136.240995 -37.78184 
L 135.671161 -37.781905 
L 135.101326 -37.781931 
L 134.531492 -37.784222 
L 133.961657 -37.784979 
L 133.391823 -37.785035 
L 132.821988 -37.785092 
L 132.252154 -37.784794 
L 131.682319 -37.78661 
L 131.112485 -37.786359 
L 130.54265 -37.786608 
L 129.972816 -37.786836 
L 129.402981 -37.787513 
L 128.833147 -37.788836 
L 128.263313 -37.788917 
L 127.693478 -37.78929 
L 127.123644 -37.78927 
L 126.553809 -37.78942 
L 125.983975 -37.789747 
L 125.41414 -37.789667 
L 124.844306 -37.789289 
L 124.274471 -37.78946 
L 123.704637 -37.789477 
L 123.134802 -37.788552 
L 122.564968 -37.789555 
L 121.995133 -37.793151 
L 121.425299 -37.793024 
L 120.855464 -37.792952 
L 120.28563 -37.793299 
L 119.715795 -37.793822 
L 119.145961 -37.793994 
L 118.576127 -37.79391 
L 118.006292 -37.79633 
L 117.436458 -37.796326 
L 116.866623 -37.795832 
L 116.296789 -37.796052 
L 115.726954 -37.796723 
L 115.15712 -37.796917 
L 114.587285 -37.797168 
L 114.017451 -37.797173 
L 113.447616 -37.796609 
L 112.877782 -37.801657 
L 112.307947 -37.803338 
L 111.738113 -37.803235 
L 111.168278 -37.803498 
L 110.598444 -37.803727 
L 110.028609 -37.803709 
L 109.458775 -37.804765 
L 108.888941 -37.805416 
L 108.319106 -37.805557 
L 107.749272 -37.80811 
L 107.179437 -37.808518 
L 106.609603 -37.810407 
L 106.039768 -37.810131 
L 105.469934 -37.809927 
L 104.900099 -37.809922 
L 104.330265 -37.809589 
L 103.76043 -37.809468 
L 103.190596 -37.811799 
L 102.620761 -37.812747 
L 102.050927 -37.813018 
L 101.481092 -37.814891 
L 100.911258 -37.816207 
L 100.341423 -37.820768 
L 99.771589 -37.821701 
L 99.201755 -37.825041 
L 98.63192 -37.824667 
L 98.062086 -37.82897 
L 97.492251 -37.828512 
L 96.922417 -37.828578 
L 96.352582 -37.82846 
L 95.782748 -37.828482 
L 95.212913 -37.828406 
L 94.643079 -37.834572 
L 94.073244 -37.834507 
L 93.50341 -37.834916 
L 92.933575 -37.837325 
L 92.363741 -37.836809 
L 91.793906 -37.836552 
L 91.224072 -37.836977 
L 90.654238 -37.83851 
L 90.084403 -37.838555 
L 89.514569 -37.834755 
L 88.944734 -37.83728 
L 88.3749 -37.841606 
L 87.805065 -37.83968 
L 87.235231 -37.843711 
L 86.665396 -37.844139 
L 86.095562 -37.844648 
L 85.525727 -37.842443 
L 84.955893 -37.842465 
L 84.386058 -37.844025 
L 83.816224 -37.857147 
L 83.246389 -37.858243 
L 82.676555 -37.858472 
L 82.10672 -37.857677 
L 81.536886 -37.860169 
L 80.967052 -37.858516 
L 80.397217 -37.855515 
L 79.827383 -37.855472 
L 79.257548 -37.860763 
L 78.687714 -37.860599 
L 78.117879 -37.859823 
L 77.548045 -37.862517 
L 76.97821 -37.859793 
L 76.408376 -37.859361 
L 75.838541 -37.866341 
L 75.268707 -37.865092 
L 74.698872 -37.865935 
L 74.129038 -37.866073 
L 73.559203 -37.866049 
L 72.989369 -37.869792 
L 72.419534 -37.870615 
L 71.8497 -37.871183 
L 71.279866 -37.870773 
L 70.710031 -37.873044 
L 70.140197 -37.873378 
L 69.570362 -37.889109 
L 69.000528 -37.888082 
L 68.430693 -37.89017 
L 67.860859 -37.922337 
L 67.291024 -37.924445 
L 66.72119 -37.930571 
L 66.151355 -37.931345 
L 65.581521 -37.955307 
L 65.011686 -37.952167 
L 64.441852 -37.957742 
L 63.872017 -37.958397 
L 63.302183 -37.976959 
L 62.732348 -37.975585 
L 62.162514 -37.977096 
L 61.59268 -37.980074 
L 61.022845 -38.026635 
L 60.453011 -38.026832 
L 59.883176 -38.029848 
L 59.313342 -38.067177 
L 58.743507 -38.063818 
L 58.173673 -38.153683 
L 57.603838 -38.170601 
L 57.034004 -38.257321 
L 56.464169 -38.310349 
L 55.894335 -38.333703 
L 55.3245 -38.619831 
L 54.754666 -39.197857 
L 54.184831 -39.201347 
L 53.614997 -39.095025 
L 53.045163 -39.09061 
L 52.475328 -39.098979 
L 51.905494 -39.09515 
L 51.335659 -38.879437 
L 50.765825 -38.697374 
L 50.19599 -38.698118 
L 49.626156 -38.587708 
L 49.056321 -38.590951 
L 48.486487 -38.48822 
L 47.916652 -38.418052 
L 47.346818 -38.430494 
L 46.776983 -38.428622 
L 46.207149 -38.43347 
L 45.637314 -38.473844 
L 45.06748 -38.484225 
L 44.497645 -38.476503 
L 43.927811 -38.394908 
L 43.357977 -38.257792 
L 42.788142 -38.260369 
L 42.218308 -38.257838 
L 41.648473 -38.262071 
L 41.078639 -38.287984 
L 40.508804 -38.443832 
L 39.93897 -38.453893 
L 39.369135 -38.453443 
L 38.799301 -38.4684 
L 38.229466 -38.449639 
L 37.659632 -38.487292 
L 37.089797 -38.524751 
L 36.519963 -38.498315 
L 35.950128 -38.494388 
L 35.380294 -38.494187 
L 34.810459 -38.520568 
z
" style="stroke: #dd8452; stroke-opacity: 0.2"/>
    </defs>
    <g clip-path="url(#pde18841251)">
     <use xlink:href="#m1dd4552f96" x="0" y="188.39952" style="fill: #dd8452; fill-opacity: 0.2; stroke: #dd8452; stroke-opacity: 0.2"/>
    </g>
   </g>
   <g id="PolyCollection_3">
    <defs>
     <path id="md71c0c432d" d="M 34.810459 -38.51902 
L 34.810459 -38.507688 
L 35.380294 -38.504776 
L 35.950128 -38.500609 
L 36.519963 -38.502581 
L 37.089797 -38.487755 
L 37.659632 -38.494748 
L 38.229466 -38.494377 
L 38.799301 -38.487496 
L 39.369135 -38.492855 
L 39.93897 -38.494797 
L 40.508804 -38.493909 
L 41.078639 -38.484323 
L 41.648473 -38.510278 
L 42.218308 -38.506046 
L 42.788142 -38.449994 
L 43.357977 -38.471202 
L 43.927811 -38.464902 
L 44.497645 -38.439893 
L 45.06748 -38.43855 
L 45.637314 -38.306892 
L 46.207149 -38.280617 
L 46.776983 -38.267189 
L 47.346818 -38.266904 
L 47.916652 -38.2694 
L 48.486487 -38.258421 
L 49.056321 -38.219282 
L 49.626156 -38.217662 
L 50.19599 -38.214602 
L 50.765825 -38.198688 
L 51.335659 -38.131104 
L 51.905494 -38.090787 
L 52.475328 -38.083579 
L 53.045163 -38.09444 
L 53.614997 -38.106568 
L 54.184831 -38.115925 
L 54.754666 -38.124501 
L 55.3245 -38.095027 
L 55.894335 -38.137986 
L 56.464169 -38.099554 
L 57.034004 -38.101838 
L 57.603838 -37.989824 
L 58.173673 -37.990408 
L 58.743507 -37.987002 
L 59.313342 -37.978978 
L 59.883176 -37.931451 
L 60.453011 -37.93186 
L 61.022845 -37.915893 
L 61.59268 -37.910951 
L 62.162514 -37.89946 
L 62.732348 -37.895611 
L 63.302183 -37.877028 
L 63.872017 -37.875919 
L 64.441852 -37.871618 
L 65.011686 -37.871254 
L 65.581521 -37.862735 
L 66.151355 -37.863528 
L 66.72119 -37.862937 
L 67.291024 -37.864223 
L 67.860859 -37.863404 
L 68.430693 -37.860377 
L 69.000528 -37.860838 
L 69.570362 -37.854606 
L 70.140197 -37.853905 
L 70.710031 -37.849141 
L 71.279866 -37.853385 
L 71.8497 -37.852528 
L 72.419534 -37.851261 
L 72.989369 -37.851316 
L 73.559203 -37.850768 
L 74.129038 -37.856222 
L 74.698872 -37.85471 
L 75.268707 -37.854214 
L 75.838541 -37.850252 
L 76.408376 -37.848295 
L 76.97821 -37.844709 
L 77.548045 -37.841604 
L 78.117879 -37.84313 
L 78.687714 -37.843238 
L 79.257548 -37.842395 
L 79.827383 -37.84066 
L 80.397217 -37.839742 
L 80.967052 -37.839958 
L 81.536886 -37.840042 
L 82.10672 -37.839869 
L 82.676555 -37.838794 
L 83.246389 -37.833021 
L 83.816224 -37.823104 
L 84.386058 -37.820598 
L 84.955893 -37.82038 
L 85.525727 -37.819419 
L 86.095562 -37.819366 
L 86.665396 -37.820286 
L 87.235231 -37.82051 
L 87.805065 -37.816361 
L 88.3749 -37.816078 
L 88.944734 -37.816132 
L 89.514569 -37.816288 
L 90.084403 -37.807484 
L 90.654238 -37.804481 
L 91.224072 -37.803212 
L 91.793906 -37.802844 
L 92.363741 -37.802107 
L 92.933575 -37.802195 
L 93.50341 -37.800666 
L 94.073244 -37.800753 
L 94.643079 -37.8008 
L 95.212913 -37.800578 
L 95.782748 -37.798508 
L 96.352582 -37.80064 
L 96.922417 -37.800363 
L 97.492251 -37.800378 
L 98.062086 -37.799135 
L 98.63192 -37.798967 
L 99.201755 -37.798624 
L 99.771589 -37.79872 
L 100.341423 -37.798688 
L 100.911258 -37.799024 
L 101.481092 -37.798977 
L 102.050927 -37.798463 
L 102.620761 -37.798422 
L 103.190596 -37.798318 
L 103.76043 -37.798382 
L 104.330265 -37.798558 
L 104.900099 -37.798947 
L 105.469934 -37.794138 
L 106.039768 -37.793925 
L 106.609603 -37.793648 
L 107.179437 -37.792866 
L 107.749272 -37.791596 
L 108.319106 -37.793027 
L 108.888941 -37.793135 
L 109.458775 -37.793255 
L 110.028609 -37.79322 
L 110.598444 -37.793339 
L 111.168278 -37.794707 
L 111.738113 -37.794813 
L 112.307947 -37.794355 
L 112.877782 -37.794466 
L 113.447616 -37.792533 
L 114.017451 -37.79259 
L 114.587285 -37.790702 
L 115.15712 -37.790909 
L 115.726954 -37.791043 
L 116.296789 -37.791267 
L 116.866623 -37.787284 
L 117.436458 -37.787605 
L 118.006292 -37.78777 
L 118.576127 -37.786918 
L 119.145961 -37.78667 
L 119.715795 -37.789572 
L 120.28563 -37.789623 
L 120.855464 -37.78984 
L 121.425299 -37.789872 
L 121.995133 -37.789879 
L 122.564968 -37.78475 
L 123.134802 -37.785774 
L 123.704637 -37.785946 
L 124.274471 -37.785567 
L 124.844306 -37.785639 
L 125.41414 -37.785505 
L 125.983975 -37.785178 
L 126.553809 -37.784506 
L 127.123644 -37.784354 
L 127.693478 -37.784268 
L 128.263313 -37.783523 
L 128.833147 -37.785723 
L 129.402981 -37.785821 
L 129.972816 -37.785716 
L 130.54265 -37.78566 
L 131.112485 -37.786209 
L 131.682319 -37.786187 
L 132.252154 -37.785943 
L 132.821988 -37.785976 
L 133.391823 -37.785558 
L 133.961657 -37.786048 
L 134.531492 -37.786675 
L 135.101326 -37.786939 
L 135.671161 -37.786904 
L 136.240995 -37.786749 
L 136.81083 -37.787282 
L 137.380664 -37.78723 
L 137.950498 -37.784512 
L 138.520333 -37.784624 
L 139.090167 -37.784717 
L 139.660002 -37.784716 
L 140.229836 -37.784513 
L 140.799671 -37.784535 
L 141.369505 -37.784569 
L 141.93934 -37.784712 
L 142.509174 -37.783991 
L 143.079009 -37.78314 
L 143.648843 -37.783147 
L 144.218678 -37.783144 
L 144.788512 -37.783008 
L 145.358347 -37.783124 
L 145.928181 -37.782858 
L 146.498016 -37.784085 
L 147.06785 -37.783415 
L 147.637684 -37.783128 
L 148.207519 -37.783257 
L 148.777353 -37.783165 
L 149.347188 -37.783002 
L 149.917022 -37.782883 
L 150.486857 -37.784019 
L 151.056691 -37.78297 
L 151.626526 -37.783057 
L 152.19636 -37.780742 
L 152.766195 -37.780499 
L 153.336029 -37.780544 
L 153.905864 -37.780325 
L 154.475698 -37.780316 
L 155.045533 -37.780182 
L 155.615367 -37.779574 
L 156.185202 -37.779878 
L 156.755036 -37.778903 
L 157.32487 -37.77975 
L 157.894705 -37.779607 
L 158.464539 -37.779659 
L 159.034374 -37.779382 
L 159.604208 -37.779536 
L 160.174043 -37.779631 
L 160.743877 -37.779505 
L 161.313712 -37.779407 
L 161.883546 -37.779475 
L 162.453381 -37.778261 
L 163.023215 -37.778213 
L 163.59305 -37.778191 
L 164.162884 -37.778278 
L 164.732719 -37.778423 
L 165.302553 -37.778516 
L 165.872388 -37.778615 
L 166.442222 -37.778606 
L 167.012056 -37.778679 
L 167.581891 -37.778427 
L 168.151725 -37.77843 
L 168.72156 -37.778827 
L 169.291394 -37.77885 
L 169.861229 -37.778434 
L 170.431063 -37.778959 
L 171.000898 -37.779016 
L 171.570732 -37.778857 
L 172.140567 -37.77889 
L 172.710401 -37.77907 
L 173.280236 -37.775543 
L 173.85007 -37.775504 
L 174.419905 -37.775939 
L 174.989739 -37.776102 
L 175.559573 -37.775964 
L 176.129408 -37.775914 
L 176.699242 -37.775885 
L 177.269077 -37.775856 
L 177.838911 -37.77583 
L 178.408746 -37.775839 
L 178.97858 -37.776052 
L 179.548415 -37.775801 
L 180.118249 -37.775657 
L 180.688084 -37.77534 
L 181.257918 -37.774886 
L 181.827753 -37.774913 
L 182.397587 -37.774768 
L 182.967422 -37.774696 
L 183.537256 -37.774765 
L 184.107091 -37.774627 
L 184.676925 -37.774544 
L 185.246759 -37.774326 
L 185.816594 -37.774376 
L 186.386428 -37.774534 
L 186.956263 -37.773992 
L 187.526097 -37.774269 
L 188.095932 -37.774377 
L 188.665766 -37.774532 
L 189.235601 -37.774499 
L 189.805435 -37.774563 
L 190.37527 -37.774681 
L 190.945104 -37.774643 
L 191.514939 -37.774626 
L 192.084773 -37.774952 
L 192.654608 -37.774957 
L 193.224442 -37.774931 
L 193.794277 -37.774975 
L 194.364111 -37.775049 
L 194.933945 -37.775106 
L 195.50378 -37.775156 
L 196.073614 -37.775023 
L 196.643449 -37.77503 
L 197.213283 -37.774944 
L 197.783118 -37.774016 
L 198.352952 -37.773949 
L 198.922787 -37.773895 
L 199.492621 -37.773903 
L 200.062456 -37.774197 
L 200.63229 -37.774214 
L 201.202125 -37.774241 
L 201.771959 -37.773589 
L 202.341794 -37.77249 
L 202.911628 -37.772437 
L 203.481463 -37.771884 
L 204.051297 -37.771755 
L 204.621131 -37.771629 
L 205.190966 -37.771684 
L 205.7608 -37.771652 
L 206.330635 -37.771465 
L 206.900469 -37.771582 
L 207.470304 -37.771677 
L 208.040138 -37.771109 
L 208.609973 -37.770834 
L 209.179807 -37.770709 
L 209.749642 -37.770661 
L 210.319476 -37.770618 
L 210.889311 -37.77081 
L 211.459145 -37.770779 
L 212.02898 -37.770797 
L 212.598814 -37.770689 
L 213.168649 -37.77045 
L 213.738483 -37.770388 
L 214.308317 -37.770474 
L 214.878152 -37.769882 
L 215.447986 -37.769814 
L 216.017821 -37.769979 
L 216.587655 -37.770054 
L 217.15749 -37.769994 
L 217.727324 -37.770132 
L 218.297159 -37.770131 
L 218.866993 -37.770149 
L 219.436828 -37.770044 
L 220.006662 -37.770002 
L 220.576497 -37.76971 
L 221.146331 -37.769669 
L 221.716166 -37.769601 
L 222.286 -37.769266 
L 222.855834 -37.769195 
L 223.425669 -37.769272 
L 223.995503 -37.769114 
L 224.565338 -37.768977 
L 225.135172 -37.769005 
L 225.705007 -37.768972 
L 226.274841 -37.768627 
L 226.844676 -37.768652 
L 227.41451 -37.76824 
L 227.984345 -37.76825 
L 228.554179 -37.76822 
L 229.124014 -37.76835 
L 229.693848 -37.768364 
L 230.263683 -37.768293 
L 230.833517 -37.767985 
L 231.403352 -37.768056 
L 231.973186 -37.767841 
L 232.54302 -37.767811 
L 233.112855 -37.767778 
L 233.682689 -37.767702 
L 234.252524 -37.767766 
L 234.822358 -37.76771 
L 235.392193 -37.767636 
L 235.962027 -37.767532 
L 236.531862 -37.767703 
L 237.101696 -37.767643 
L 237.671531 -37.767576 
L 238.241365 -37.767587 
L 238.8112 -37.767566 
L 239.381034 -37.767508 
L 239.950869 -37.767459 
L 240.520703 -37.767485 
L 241.090538 -37.767433 
L 241.660372 -37.767355 
L 242.230206 -37.767472 
L 242.800041 -37.767405 
L 242.800041 -37.769678 
L 242.800041 -37.769678 
L 242.230206 -37.769567 
L 241.660372 -37.769561 
L 241.090538 -37.769642 
L 240.520703 -37.769585 
L 239.950869 -37.769736 
L 239.381034 -37.769664 
L 238.8112 -37.769735 
L 238.241365 -37.769808 
L 237.671531 -37.769829 
L 237.101696 -37.769817 
L 236.531862 -37.769786 
L 235.962027 -37.769814 
L 235.392193 -37.769935 
L 234.822358 -37.769924 
L 234.252524 -37.77 
L 233.682689 -37.770038 
L 233.112855 -37.770026 
L 232.54302 -37.770189 
L 231.973186 -37.77013 
L 231.403352 -37.770173 
L 230.833517 -37.770211 
L 230.263683 -37.770559 
L 229.693848 -37.770623 
L 229.124014 -37.770585 
L 228.554179 -37.770605 
L 227.984345 -37.770505 
L 227.41451 -37.77067 
L 226.844676 -37.77091 
L 226.274841 -37.77094 
L 225.705007 -37.771184 
L 225.135172 -37.771263 
L 224.565338 -37.771319 
L 223.995503 -37.771418 
L 223.425669 -37.771484 
L 222.855834 -37.77153 
L 222.286 -37.771513 
L 221.716166 -37.771917 
L 221.146331 -37.772187 
L 220.576497 -37.772041 
L 220.006662 -37.772338 
L 219.436828 -37.772331 
L 218.866993 -37.772513 
L 218.297159 -37.77251 
L 217.727324 -37.772529 
L 217.15749 -37.77236 
L 216.587655 -37.772443 
L 216.017821 -37.772357 
L 215.447986 -37.772254 
L 214.878152 -37.772234 
L 214.308317 -37.772793 
L 213.738483 -37.772821 
L 213.168649 -37.772808 
L 212.598814 -37.773186 
L 212.02898 -37.773277 
L 211.459145 -37.773138 
L 210.889311 -37.773066 
L 210.319476 -37.772985 
L 209.749642 -37.773049 
L 209.179807 -37.773127 
L 208.609973 -37.773298 
L 208.040138 -37.773648 
L 207.470304 -37.774024 
L 206.900469 -37.773887 
L 206.330635 -37.774012 
L 205.7608 -37.774033 
L 205.190966 -37.774055 
L 204.621131 -37.774069 
L 204.051297 -37.774216 
L 203.481463 -37.774295 
L 202.911628 -37.774873 
L 202.341794 -37.774917 
L 201.771959 -37.776034 
L 201.202125 -37.776662 
L 200.63229 -37.776662 
L 200.062456 -37.776726 
L 199.492621 -37.776266 
L 198.922787 -37.776414 
L 198.352952 -37.776365 
L 197.783118 -37.776501 
L 197.213283 -37.777403 
L 196.643449 -37.777359 
L 196.073614 -37.77743 
L 195.50378 -37.777507 
L 194.933945 -37.777505 
L 194.364111 -37.77737 
L 193.794277 -37.777462 
L 193.224442 -37.777336 
L 192.654608 -37.777324 
L 192.084773 -37.777316 
L 191.514939 -37.776944 
L 190.945104 -37.776871 
L 190.37527 -37.776803 
L 189.805435 -37.776856 
L 189.235601 -37.776839 
L 188.665766 -37.77685 
L 188.095932 -37.776687 
L 187.526097 -37.776384 
L 186.956263 -37.776205 
L 186.386428 -37.776661 
L 185.816594 -37.776571 
L 185.246759 -37.77674 
L 184.676925 -37.776935 
L 184.107091 -37.776835 
L 183.537256 -37.777151 
L 182.967422 -37.777145 
L 182.397587 -37.77706 
L 181.827753 -37.777229 
L 181.257918 -37.777232 
L 180.688084 -37.777663 
L 180.118249 -37.778001 
L 179.548415 -37.778038 
L 178.97858 -37.778265 
L 178.408746 -37.778241 
L 177.838911 -37.778213 
L 177.269077 -37.778162 
L 176.699242 -37.778138 
L 176.129408 -37.778257 
L 175.559573 -37.778274 
L 174.989739 -37.778268 
L 174.419905 -37.778244 
L 173.85007 -37.777925 
L 173.280236 -37.77794 
L 172.710401 -37.781322 
L 172.140567 -37.781198 
L 171.570732 -37.781098 
L 171.000898 -37.781277 
L 170.431063 -37.781327 
L 169.861229 -37.780644 
L 169.291394 -37.781169 
L 168.72156 -37.781058 
L 168.151725 -37.780706 
L 167.581891 -37.780749 
L 167.012056 -37.78085 
L 166.442222 -37.780831 
L 165.872388 -37.78089 
L 165.302553 -37.780694 
L 164.732719 -37.780717 
L 164.162884 -37.780586 
L 163.59305 -37.780537 
L 163.023215 -37.780483 
L 162.453381 -37.780573 
L 161.883546 -37.781827 
L 161.313712 -37.781653 
L 160.743877 -37.78179 
L 160.174043 -37.781915 
L 159.604208 -37.781873 
L 159.034374 -37.78174 
L 158.464539 -37.781982 
L 157.894705 -37.781867 
L 157.32487 -37.782072 
L 156.755036 -37.781254 
L 156.185202 -37.782137 
L 155.615367 -37.781888 
L 155.045533 -37.782724 
L 154.475698 -37.78264 
L 153.905864 -37.782691 
L 153.336029 -37.782961 
L 152.766195 -37.782892 
L 152.19636 -37.783023 
L 151.626526 -37.785327 
L 151.056691 -37.785431 
L 150.486857 -37.786494 
L 149.917022 -37.78534 
L 149.347188 -37.785291 
L 148.777353 -37.785598 
L 148.207519 -37.78558 
L 147.637684 -37.785646 
L 147.06785 -37.785896 
L 146.498016 -37.786563 
L 145.928181 -37.785437 
L 145.358347 -37.785862 
L 144.788512 -37.785572 
L 144.218678 -37.785687 
L 143.648843 -37.785559 
L 143.079009 -37.785726 
L 142.509174 -37.786432 
L 141.93934 -37.787283 
L 141.369505 -37.787177 
L 140.799671 -37.787283 
L 140.229836 -37.787184 
L 139.660002 -37.787249 
L 139.090167 -37.787343 
L 138.520333 -37.787224 
L 137.950498 -37.787247 
L 137.380664 -37.789905 
L 136.81083 -37.789922 
L 136.240995 -37.789218 
L 135.671161 -37.789409 
L 135.101326 -37.789506 
L 134.531492 -37.789146 
L 133.961657 -37.788572 
L 133.391823 -37.788086 
L 132.821988 -37.78839 
L 132.252154 -37.788473 
L 131.682319 -37.788589 
L 131.112485 -37.78865 
L 130.54265 -37.787922 
L 129.972816 -37.78798 
L 129.402981 -37.788135 
L 128.833147 -37.788056 
L 128.263313 -37.785748 
L 127.693478 -37.786728 
L 127.123644 -37.786786 
L 126.553809 -37.786696 
L 125.983975 -37.787474 
L 125.41414 -37.787871 
L 124.844306 -37.78799 
L 124.274471 -37.787893 
L 123.704637 -37.788188 
L 123.134802 -37.788008 
L 122.564968 -37.786945 
L 121.995133 -37.791957 
L 121.425299 -37.791868 
L 120.855464 -37.791871 
L 120.28563 -37.791632 
L 119.715795 -37.791662 
L 119.145961 -37.788795 
L 118.576127 -37.789048 
L 118.006292 -37.78988 
L 117.436458 -37.789913 
L 116.866623 -37.789507 
L 116.296789 -37.793566 
L 115.726954 -37.793172 
L 115.15712 -37.793113 
L 114.587285 -37.793039 
L 114.017451 -37.794986 
L 113.447616 -37.79475 
L 112.877782 -37.796606 
L 112.307947 -37.79656 
L 111.738113 -37.797007 
L 111.168278 -37.796987 
L 110.598444 -37.79533 
L 110.028609 -37.795379 
L 109.458775 -37.795465 
L 108.888941 -37.79527 
L 108.319106 -37.795177 
L 107.749272 -37.79369 
L 107.179437 -37.794874 
L 106.609603 -37.795699 
L 106.039768 -37.796082 
L 105.469934 -37.796156 
L 104.900099 -37.800923 
L 104.330265 -37.800587 
L 103.76043 -37.80058 
L 103.190596 -37.800394 
L 102.620761 -37.800646 
L 102.050927 -37.800551 
L 101.481092 -37.801198 
L 100.911258 -37.801185 
L 100.341423 -37.800912 
L 99.771589 -37.801044 
L 99.201755 -37.800781 
L 98.63192 -37.801293 
L 98.062086 -37.80145 
L 97.492251 -37.802551 
L 96.922417 -37.802621 
L 96.352582 -37.802967 
L 95.782748 -37.800764 
L 95.212913 -37.803145 
L 94.643079 -37.80308 
L 94.073244 -37.802977 
L 93.50341 -37.803027 
L 92.933575 -37.804603 
L 92.363741 -37.804654 
L 91.793906 -37.805337 
L 91.224072 -37.805641 
L 90.654238 -37.806869 
L 90.084403 -37.810098 
L 89.514569 -37.818913 
L 88.944734 -37.818823 
L 88.3749 -37.81865 
L 87.805065 -37.818863 
L 87.235231 -37.823397 
L 86.665396 -37.822863 
L 86.095562 -37.822006 
L 85.525727 -37.822172 
L 84.955893 -37.822952 
L 84.386058 -37.823234 
L 83.816224 -37.825646 
L 83.246389 -37.835835 
L 82.676555 -37.841417 
L 82.10672 -37.842417 
L 81.536886 -37.842526 
L 80.967052 -37.84236 
L 80.397217 -37.842233 
L 79.827383 -37.843162 
L 79.257548 -37.844877 
L 78.687714 -37.845778 
L 78.117879 -37.845876 
L 77.548045 -37.84429 
L 76.97821 -37.847313 
L 76.408376 -37.85086 
L 75.838541 -37.85288 
L 75.268707 -37.856678 
L 74.698872 -37.857313 
L 74.129038 -37.858801 
L 73.559203 -37.852957 
L 72.989369 -37.853584 
L 72.419534 -37.853557 
L 71.8497 -37.854693 
L 71.279866 -37.855519 
L 70.710031 -37.851258 
L 70.140197 -37.855997 
L 69.570362 -37.856984 
L 69.000528 -37.863221 
L 68.430693 -37.86267 
L 67.860859 -37.865892 
L 67.291024 -37.866842 
L 66.72119 -37.865426 
L 66.151355 -37.866003 
L 65.581521 -37.864995 
L 65.011686 -37.874021 
L 64.441852 -37.874721 
L 63.872017 -37.878851 
L 63.302183 -37.879933 
L 62.732348 -37.899388 
L 62.162514 -37.903197 
L 61.59268 -37.914487 
L 61.022845 -37.919705 
L 60.453011 -37.935767 
L 59.883176 -37.935478 
L 59.313342 -37.983264 
L 58.743507 -37.992039 
L 58.173673 -37.99517 
L 57.603838 -37.994797 
L 57.034004 -38.110089 
L 56.464169 -38.107836 
L 55.894335 -38.148371 
L 55.3245 -38.102493 
L 54.754666 -38.129568 
L 54.184831 -38.121873 
L 53.614997 -38.111616 
L 53.045163 -38.099569 
L 52.475328 -38.088166 
L 51.905494 -38.095217 
L 51.335659 -38.136102 
L 50.765825 -38.204433 
L 50.19599 -38.219896 
L 49.626156 -38.223437 
L 49.056321 -38.224936 
L 48.486487 -38.263942 
L 47.916652 -38.274913 
L 47.346818 -38.272241 
L 46.776983 -38.27264 
L 46.207149 -38.286181 
L 45.637314 -38.312451 
L 45.06748 -38.449174 
L 44.497645 -38.450367 
L 43.927811 -38.477329 
L 43.357977 -38.482475 
L 42.788142 -38.461551 
L 42.218308 -38.518719 
L 41.648473 -38.523616 
L 41.078639 -38.496331 
L 40.508804 -38.507546 
L 39.93897 -38.506312 
L 39.369135 -38.505068 
L 38.799301 -38.498968 
L 38.229466 -38.505845 
L 37.659632 -38.506247 
L 37.089797 -38.499442 
L 36.519963 -38.513663 
L 35.950128 -38.5123 
L 35.380294 -38.515565 
L 34.810459 -38.51902 
z
" style="stroke: #55a868; stroke-opacity: 0.2"/>
    </defs>
    <g clip-path="url(#pde18841251)">
     <use xlink:href="#md71c0c432d" x="0" y="188.39952" style="fill: #55a868; fill-opacity: 0.2; stroke: #55a868; stroke-opacity: 0.2"/>
    </g>
   </g>
   <g id="matplotlib.axis_1">
    <g id="xtick_1">
     <g id="line2d_1">
      <defs>
       <path id="md8fba126e9" d="M 0 0 
L 0 3.5 
" style="stroke: #000000; stroke-width: 0.8"/>
      </defs>
      <g>
       <use xlink:href="#md8fba126e9" x="34.240625" y="150.84327" style="stroke: #000000; stroke-width: 0.8"/>
      </g>
     </g>
     <g id="text_1">
      <!-- 0 -->
      <g transform="translate(31.059375 165.441708) scale(0.1 -0.1)">
       <defs>
        <path id="DejaVuSans-30" d="M 2034 4250 
Q 1547 4250 1301 3770 
Q 1056 3291 1056 2328 
Q 1056 1369 1301 889 
Q 1547 409 2034 409 
Q 2525 409 2770 889 
Q 3016 1369 3016 2328 
Q 3016 3291 2770 3770 
Q 2525 4250 2034 4250 
z
M 2034 4750 
Q 2819 4750 3233 4129 
Q 3647 3509 3647 2328 
Q 3647 1150 3233 529 
Q 2819 -91 2034 -91 
Q 1250 -91 836 529 
Q 422 1150 422 2328 
Q 422 3509 836 4129 
Q 1250 4750 2034 4750 
z
" transform="scale(0.015625)"/>
       </defs>
       <use xlink:href="#DejaVuSans-30"/>
      </g>
     </g>
    </g>
    <g id="xtick_2">
     <g id="line2d_2">
      <g>
       <use xlink:href="#md8fba126e9" x="91.224072" y="150.84327" style="stroke: #000000; stroke-width: 0.8"/>
      </g>
     </g>
     <g id="text_2">
      <!-- 100 -->
      <g transform="translate(81.680322 165.441708) scale(0.1 -0.1)">
       <defs>
        <path id="DejaVuSans-31" d="M 794 531 
L 1825 531 
L 1825 4091 
L 703 3866 
L 703 4441 
L 1819 4666 
L 2450 4666 
L 2450 531 
L 3481 531 
L 3481 0 
L 794 0 
L 794 531 
z
" transform="scale(0.015625)"/>
       </defs>
       <use xlink:href="#DejaVuSans-31"/>
       <use xlink:href="#DejaVuSans-30" x="63.623047"/>
       <use xlink:href="#DejaVuSans-30" x="127.246094"/>
      </g>
     </g>
    </g>
    <g id="xtick_3">
     <g id="line2d_3">
      <g>
       <use xlink:href="#md8fba126e9" x="148.207519" y="150.84327" style="stroke: #000000; stroke-width: 0.8"/>
      </g>
     </g>
     <g id="text_3">
      <!-- 200 -->
      <g transform="translate(138.663769 165.441708) scale(0.1 -0.1)">
       <defs>
        <path id="DejaVuSans-32" d="M 1228 531 
L 3431 531 
L 3431 0 
L 469 0 
L 469 531 
Q 828 903 1448 1529 
Q 2069 2156 2228 2338 
Q 2531 2678 2651 2914 
Q 2772 3150 2772 3378 
Q 2772 3750 2511 3984 
Q 2250 4219 1831 4219 
Q 1534 4219 1204 4116 
Q 875 4013 500 3803 
L 500 4441 
Q 881 4594 1212 4672 
Q 1544 4750 1819 4750 
Q 2544 4750 2975 4387 
Q 3406 4025 3406 3419 
Q 3406 3131 3298 2873 
Q 3191 2616 2906 2266 
Q 2828 2175 2409 1742 
Q 1991 1309 1228 531 
z
" transform="scale(0.015625)"/>
       </defs>
       <use xlink:href="#DejaVuSans-32"/>
       <use xlink:href="#DejaVuSans-30" x="63.623047"/>
       <use xlink:href="#DejaVuSans-30" x="127.246094"/>
      </g>
     </g>
    </g>
    <g id="xtick_4">
     <g id="line2d_4">
      <g>
       <use xlink:href="#md8fba126e9" x="205.190966" y="150.84327" style="stroke: #000000; stroke-width: 0.8"/>
      </g>
     </g>
     <g id="text_4">
      <!-- 300 -->
      <g transform="translate(195.647216 165.441708) scale(0.1 -0.1)">
       <defs>
        <path id="DejaVuSans-33" d="M 2597 2516 
Q 3050 2419 3304 2112 
Q 3559 1806 3559 1356 
Q 3559 666 3084 287 
Q 2609 -91 1734 -91 
Q 1441 -91 1130 -33 
Q 819 25 488 141 
L 488 750 
Q 750 597 1062 519 
Q 1375 441 1716 441 
Q 2309 441 2620 675 
Q 2931 909 2931 1356 
Q 2931 1769 2642 2001 
Q 2353 2234 1838 2234 
L 1294 2234 
L 1294 2753 
L 1863 2753 
Q 2328 2753 2575 2939 
Q 2822 3125 2822 3475 
Q 2822 3834 2567 4026 
Q 2313 4219 1838 4219 
Q 1578 4219 1281 4162 
Q 984 4106 628 3988 
L 628 4550 
Q 988 4650 1302 4700 
Q 1616 4750 1894 4750 
Q 2613 4750 3031 4423 
Q 3450 4097 3450 3541 
Q 3450 3153 3228 2886 
Q 3006 2619 2597 2516 
z
" transform="scale(0.015625)"/>
       </defs>
       <use xlink:href="#DejaVuSans-33"/>
       <use xlink:href="#DejaVuSans-30" x="63.623047"/>
       <use xlink:href="#DejaVuSans-30" x="127.246094"/>
      </g>
     </g>
    </g>
    <g id="text_5">
     <!-- Sample Size -->
     <g transform="translate(113.11851 179.119833) scale(0.1 -0.1)">
      <defs>
       <path id="DejaVuSans-53" d="M 3425 4513 
L 3425 3897 
Q 3066 4069 2747 4153 
Q 2428 4238 2131 4238 
Q 1616 4238 1336 4038 
Q 1056 3838 1056 3469 
Q 1056 3159 1242 3001 
Q 1428 2844 1947 2747 
L 2328 2669 
Q 3034 2534 3370 2195 
Q 3706 1856 3706 1288 
Q 3706 609 3251 259 
Q 2797 -91 1919 -91 
Q 1588 -91 1214 -16 
Q 841 59 441 206 
L 441 856 
Q 825 641 1194 531 
Q 1563 422 1919 422 
Q 2459 422 2753 634 
Q 3047 847 3047 1241 
Q 3047 1584 2836 1778 
Q 2625 1972 2144 2069 
L 1759 2144 
Q 1053 2284 737 2584 
Q 422 2884 422 3419 
Q 422 4038 858 4394 
Q 1294 4750 2059 4750 
Q 2388 4750 2728 4690 
Q 3069 4631 3425 4513 
z
" transform="scale(0.015625)"/>
       <path id="DejaVuSans-61" d="M 2194 1759 
Q 1497 1759 1228 1600 
Q 959 1441 959 1056 
Q 959 750 1161 570 
Q 1363 391 1709 391 
Q 2188 391 2477 730 
Q 2766 1069 2766 1631 
L 2766 1759 
L 2194 1759 
z
M 3341 1997 
L 3341 0 
L 2766 0 
L 2766 531 
Q 2569 213 2275 61 
Q 1981 -91 1556 -91 
Q 1019 -91 701 211 
Q 384 513 384 1019 
Q 384 1609 779 1909 
Q 1175 2209 1959 2209 
L 2766 2209 
L 2766 2266 
Q 2766 2663 2505 2880 
Q 2244 3097 1772 3097 
Q 1472 3097 1187 3025 
Q 903 2953 641 2809 
L 641 3341 
Q 956 3463 1253 3523 
Q 1550 3584 1831 3584 
Q 2591 3584 2966 3190 
Q 3341 2797 3341 1997 
z
" transform="scale(0.015625)"/>
       <path id="DejaVuSans-6d" d="M 3328 2828 
Q 3544 3216 3844 3400 
Q 4144 3584 4550 3584 
Q 5097 3584 5394 3201 
Q 5691 2819 5691 2113 
L 5691 0 
L 5113 0 
L 5113 2094 
Q 5113 2597 4934 2840 
Q 4756 3084 4391 3084 
Q 3944 3084 3684 2787 
Q 3425 2491 3425 1978 
L 3425 0 
L 2847 0 
L 2847 2094 
Q 2847 2600 2669 2842 
Q 2491 3084 2119 3084 
Q 1678 3084 1418 2786 
Q 1159 2488 1159 1978 
L 1159 0 
L 581 0 
L 581 3500 
L 1159 3500 
L 1159 2956 
Q 1356 3278 1631 3431 
Q 1906 3584 2284 3584 
Q 2666 3584 2933 3390 
Q 3200 3197 3328 2828 
z
" transform="scale(0.015625)"/>
       <path id="DejaVuSans-70" d="M 1159 525 
L 1159 -1331 
L 581 -1331 
L 581 3500 
L 1159 3500 
L 1159 2969 
Q 1341 3281 1617 3432 
Q 1894 3584 2278 3584 
Q 2916 3584 3314 3078 
Q 3713 2572 3713 1747 
Q 3713 922 3314 415 
Q 2916 -91 2278 -91 
Q 1894 -91 1617 61 
Q 1341 213 1159 525 
z
M 3116 1747 
Q 3116 2381 2855 2742 
Q 2594 3103 2138 3103 
Q 1681 3103 1420 2742 
Q 1159 2381 1159 1747 
Q 1159 1113 1420 752 
Q 1681 391 2138 391 
Q 2594 391 2855 752 
Q 3116 1113 3116 1747 
z
" transform="scale(0.015625)"/>
       <path id="DejaVuSans-6c" d="M 603 4863 
L 1178 4863 
L 1178 0 
L 603 0 
L 603 4863 
z
" transform="scale(0.015625)"/>
       <path id="DejaVuSans-65" d="M 3597 1894 
L 3597 1613 
L 953 1613 
Q 991 1019 1311 708 
Q 1631 397 2203 397 
Q 2534 397 2845 478 
Q 3156 559 3463 722 
L 3463 178 
Q 3153 47 2828 -22 
Q 2503 -91 2169 -91 
Q 1331 -91 842 396 
Q 353 884 353 1716 
Q 353 2575 817 3079 
Q 1281 3584 2069 3584 
Q 2775 3584 3186 3129 
Q 3597 2675 3597 1894 
z
M 3022 2063 
Q 3016 2534 2758 2815 
Q 2500 3097 2075 3097 
Q 1594 3097 1305 2825 
Q 1016 2553 972 2059 
L 3022 2063 
z
" transform="scale(0.015625)"/>
       <path id="DejaVuSans-20" transform="scale(0.015625)"/>
       <path id="DejaVuSans-69" d="M 603 3500 
L 1178 3500 
L 1178 0 
L 603 0 
L 603 3500 
z
M 603 4863 
L 1178 4863 
L 1178 4134 
L 603 4134 
L 603 4863 
z
" transform="scale(0.015625)"/>
       <path id="DejaVuSans-7a" d="M 353 3500 
L 3084 3500 
L 3084 2975 
L 922 459 
L 3084 459 
L 3084 0 
L 275 0 
L 275 525 
L 2438 3041 
L 353 3041 
L 353 3500 
z
" transform="scale(0.015625)"/>
      </defs>
      <use xlink:href="#DejaVuSans-53"/>
      <use xlink:href="#DejaVuSans-61" x="63.476562"/>
      <use xlink:href="#DejaVuSans-6d" x="124.755859"/>
      <use xlink:href="#DejaVuSans-70" x="222.167969"/>
      <use xlink:href="#DejaVuSans-6c" x="285.644531"/>
      <use xlink:href="#DejaVuSans-65" x="313.427734"/>
      <use xlink:href="#DejaVuSans-20" x="374.951172"/>
      <use xlink:href="#DejaVuSans-53" x="406.738281"/>
      <use xlink:href="#DejaVuSans-69" x="470.214844"/>
      <use xlink:href="#DejaVuSans-7a" x="497.998047"/>
      <use xlink:href="#DejaVuSans-65" x="550.488281"/>
     </g>
    </g>
   </g>
   <g id="matplotlib.axis_2">
    <g id="ytick_1">
     <g id="line2d_5">
      <defs>
       <path id="m2dae5131b6" d="M 0 0 
L -3.5 0 
" style="stroke: #000000; stroke-width: 0.8"/>
      </defs>
      <g>
       <use xlink:href="#m2dae5131b6" x="34.240625" y="150.84327" style="stroke: #000000; stroke-width: 0.8"/>
      </g>
     </g>
     <g id="text_6">
      <!-- 0 -->
      <g transform="translate(20.878125 154.642489) scale(0.1 -0.1)">
       <use xlink:href="#DejaVuSans-30"/>
      </g>
     </g>
    </g>
    <g id="ytick_2">
     <g id="line2d_6">
      <g>
       <use xlink:href="#m2dae5131b6" x="34.240625" y="114.886824" style="stroke: #000000; stroke-width: 0.8"/>
      </g>
     </g>
     <g id="text_7">
      <!-- 2 -->
      <g transform="translate(20.878125 118.686043) scale(0.1 -0.1)">
       <use xlink:href="#DejaVuSans-32"/>
      </g>
     </g>
    </g>
    <g id="ytick_3">
     <g id="line2d_7">
      <g>
       <use xlink:href="#m2dae5131b6" x="34.240625" y="78.930378" style="stroke: #000000; stroke-width: 0.8"/>
      </g>
     </g>
     <g id="text_8">
      <!-- 4 -->
      <g transform="translate(20.878125 82.729596) scale(0.1 -0.1)">
       <defs>
        <path id="DejaVuSans-34" d="M 2419 4116 
L 825 1625 
L 2419 1625 
L 2419 4116 
z
M 2253 4666 
L 3047 4666 
L 3047 1625 
L 3713 1625 
L 3713 1100 
L 3047 1100 
L 3047 0 
L 2419 0 
L 2419 1100 
L 313 1100 
L 313 1709 
L 2253 4666 
z
" transform="scale(0.015625)"/>
       </defs>
       <use xlink:href="#DejaVuSans-34"/>
      </g>
     </g>
    </g>
    <g id="ytick_4">
     <g id="line2d_8">
      <g>
       <use xlink:href="#m2dae5131b6" x="34.240625" y="42.973931" style="stroke: #000000; stroke-width: 0.8"/>
      </g>
     </g>
     <g id="text_9">
      <!-- 6 -->
      <g transform="translate(20.878125 46.77315) scale(0.1 -0.1)">
       <defs>
        <path id="DejaVuSans-36" d="M 2113 2584 
Q 1688 2584 1439 2293 
Q 1191 2003 1191 1497 
Q 1191 994 1439 701 
Q 1688 409 2113 409 
Q 2538 409 2786 701 
Q 3034 994 3034 1497 
Q 3034 2003 2786 2293 
Q 2538 2584 2113 2584 
z
M 3366 4563 
L 3366 3988 
Q 3128 4100 2886 4159 
Q 2644 4219 2406 4219 
Q 1781 4219 1451 3797 
Q 1122 3375 1075 2522 
Q 1259 2794 1537 2939 
Q 1816 3084 2150 3084 
Q 2853 3084 3261 2657 
Q 3669 2231 3669 1497 
Q 3669 778 3244 343 
Q 2819 -91 2113 -91 
Q 1303 -91 875 529 
Q 447 1150 447 2328 
Q 447 3434 972 4092 
Q 1497 4750 2381 4750 
Q 2619 4750 2861 4703 
Q 3103 4656 3366 4563 
z
" transform="scale(0.015625)"/>
       </defs>
       <use xlink:href="#DejaVuSans-36"/>
      </g>
     </g>
    </g>
    <g id="text_10">
     <!-- Empirical Reconstruction Error -->
     <g transform="translate(14.798438 160.342729) rotate(-90) scale(0.1 -0.1)">
      <defs>
       <path id="DejaVuSans-45" d="M 628 4666 
L 3578 4666 
L 3578 4134 
L 1259 4134 
L 1259 2753 
L 3481 2753 
L 3481 2222 
L 1259 2222 
L 1259 531 
L 3634 531 
L 3634 0 
L 628 0 
L 628 4666 
z
" transform="scale(0.015625)"/>
       <path id="DejaVuSans-72" d="M 2631 2963 
Q 2534 3019 2420 3045 
Q 2306 3072 2169 3072 
Q 1681 3072 1420 2755 
Q 1159 2438 1159 1844 
L 1159 0 
L 581 0 
L 581 3500 
L 1159 3500 
L 1159 2956 
Q 1341 3275 1631 3429 
Q 1922 3584 2338 3584 
Q 2397 3584 2469 3576 
Q 2541 3569 2628 3553 
L 2631 2963 
z
" transform="scale(0.015625)"/>
       <path id="DejaVuSans-63" d="M 3122 3366 
L 3122 2828 
Q 2878 2963 2633 3030 
Q 2388 3097 2138 3097 
Q 1578 3097 1268 2742 
Q 959 2388 959 1747 
Q 959 1106 1268 751 
Q 1578 397 2138 397 
Q 2388 397 2633 464 
Q 2878 531 3122 666 
L 3122 134 
Q 2881 22 2623 -34 
Q 2366 -91 2075 -91 
Q 1284 -91 818 406 
Q 353 903 353 1747 
Q 353 2603 823 3093 
Q 1294 3584 2113 3584 
Q 2378 3584 2631 3529 
Q 2884 3475 3122 3366 
z
" transform="scale(0.015625)"/>
       <path id="DejaVuSans-52" d="M 2841 2188 
Q 3044 2119 3236 1894 
Q 3428 1669 3622 1275 
L 4263 0 
L 3584 0 
L 2988 1197 
Q 2756 1666 2539 1819 
Q 2322 1972 1947 1972 
L 1259 1972 
L 1259 0 
L 628 0 
L 628 4666 
L 2053 4666 
Q 2853 4666 3247 4331 
Q 3641 3997 3641 3322 
Q 3641 2881 3436 2590 
Q 3231 2300 2841 2188 
z
M 1259 4147 
L 1259 2491 
L 2053 2491 
Q 2509 2491 2742 2702 
Q 2975 2913 2975 3322 
Q 2975 3731 2742 3939 
Q 2509 4147 2053 4147 
L 1259 4147 
z
" transform="scale(0.015625)"/>
       <path id="DejaVuSans-6f" d="M 1959 3097 
Q 1497 3097 1228 2736 
Q 959 2375 959 1747 
Q 959 1119 1226 758 
Q 1494 397 1959 397 
Q 2419 397 2687 759 
Q 2956 1122 2956 1747 
Q 2956 2369 2687 2733 
Q 2419 3097 1959 3097 
z
M 1959 3584 
Q 2709 3584 3137 3096 
Q 3566 2609 3566 1747 
Q 3566 888 3137 398 
Q 2709 -91 1959 -91 
Q 1206 -91 779 398 
Q 353 888 353 1747 
Q 353 2609 779 3096 
Q 1206 3584 1959 3584 
z
" transform="scale(0.015625)"/>
       <path id="DejaVuSans-6e" d="M 3513 2113 
L 3513 0 
L 2938 0 
L 2938 2094 
Q 2938 2591 2744 2837 
Q 2550 3084 2163 3084 
Q 1697 3084 1428 2787 
Q 1159 2491 1159 1978 
L 1159 0 
L 581 0 
L 581 3500 
L 1159 3500 
L 1159 2956 
Q 1366 3272 1645 3428 
Q 1925 3584 2291 3584 
Q 2894 3584 3203 3211 
Q 3513 2838 3513 2113 
z
" transform="scale(0.015625)"/>
       <path id="DejaVuSans-73" d="M 2834 3397 
L 2834 2853 
Q 2591 2978 2328 3040 
Q 2066 3103 1784 3103 
Q 1356 3103 1142 2972 
Q 928 2841 928 2578 
Q 928 2378 1081 2264 
Q 1234 2150 1697 2047 
L 1894 2003 
Q 2506 1872 2764 1633 
Q 3022 1394 3022 966 
Q 3022 478 2636 193 
Q 2250 -91 1575 -91 
Q 1294 -91 989 -36 
Q 684 19 347 128 
L 347 722 
Q 666 556 975 473 
Q 1284 391 1588 391 
Q 1994 391 2212 530 
Q 2431 669 2431 922 
Q 2431 1156 2273 1281 
Q 2116 1406 1581 1522 
L 1381 1569 
Q 847 1681 609 1914 
Q 372 2147 372 2553 
Q 372 3047 722 3315 
Q 1072 3584 1716 3584 
Q 2034 3584 2315 3537 
Q 2597 3491 2834 3397 
z
" transform="scale(0.015625)"/>
       <path id="DejaVuSans-74" d="M 1172 4494 
L 1172 3500 
L 2356 3500 
L 2356 3053 
L 1172 3053 
L 1172 1153 
Q 1172 725 1289 603 
Q 1406 481 1766 481 
L 2356 481 
L 2356 0 
L 1766 0 
Q 1100 0 847 248 
Q 594 497 594 1153 
L 594 3053 
L 172 3053 
L 172 3500 
L 594 3500 
L 594 4494 
L 1172 4494 
z
" transform="scale(0.015625)"/>
       <path id="DejaVuSans-75" d="M 544 1381 
L 544 3500 
L 1119 3500 
L 1119 1403 
Q 1119 906 1312 657 
Q 1506 409 1894 409 
Q 2359 409 2629 706 
Q 2900 1003 2900 1516 
L 2900 3500 
L 3475 3500 
L 3475 0 
L 2900 0 
L 2900 538 
Q 2691 219 2414 64 
Q 2138 -91 1772 -91 
Q 1169 -91 856 284 
Q 544 659 544 1381 
z
M 1991 3584 
L 1991 3584 
z
" transform="scale(0.015625)"/>
      </defs>
      <use xlink:href="#DejaVuSans-45"/>
      <use xlink:href="#DejaVuSans-6d" x="63.183594"/>
      <use xlink:href="#DejaVuSans-70" x="160.595703"/>
      <use xlink:href="#DejaVuSans-69" x="224.072266"/>
      <use xlink:href="#DejaVuSans-72" x="251.855469"/>
      <use xlink:href="#DejaVuSans-69" x="292.96875"/>
      <use xlink:href="#DejaVuSans-63" x="320.751953"/>
      <use xlink:href="#DejaVuSans-61" x="375.732422"/>
      <use xlink:href="#DejaVuSans-6c" x="437.011719"/>
      <use xlink:href="#DejaVuSans-20" x="464.794922"/>
      <use xlink:href="#DejaVuSans-52" x="496.582031"/>
      <use xlink:href="#DejaVuSans-65" x="561.564453"/>
      <use xlink:href="#DejaVuSans-63" x="623.087891"/>
      <use xlink:href="#DejaVuSans-6f" x="678.068359"/>
      <use xlink:href="#DejaVuSans-6e" x="739.25"/>
      <use xlink:href="#DejaVuSans-73" x="802.628906"/>
      <use xlink:href="#DejaVuSans-74" x="854.728516"/>
      <use xlink:href="#DejaVuSans-72" x="893.9375"/>
      <use xlink:href="#DejaVuSans-75" x="935.050781"/>
      <use xlink:href="#DejaVuSans-63" x="998.429688"/>
      <use xlink:href="#DejaVuSans-74" x="1053.410156"/>
      <use xlink:href="#DejaVuSans-69" x="1092.619141"/>
      <use xlink:href="#DejaVuSans-6f" x="1120.402344"/>
      <use xlink:href="#DejaVuSans-6e" x="1181.583984"/>
      <use xlink:href="#DejaVuSans-20" x="1244.962891"/>
      <use xlink:href="#DejaVuSans-45" x="1276.75"/>
      <use xlink:href="#DejaVuSans-72" x="1339.933594"/>
      <use xlink:href="#DejaVuSans-72" x="1379.296875"/>
      <use xlink:href="#DejaVuSans-6f" x="1418.160156"/>
      <use xlink:href="#DejaVuSans-72" x="1479.341797"/>
     </g>
    </g>
    <g id="text_11">
     <!-- 1e8 -->
     <g transform="translate(34.240625 14.798438) scale(0.1 -0.1)">
      <defs>
       <path id="DejaVuSans-38" d="M 2034 2216 
Q 1584 2216 1326 1975 
Q 1069 1734 1069 1313 
Q 1069 891 1326 650 
Q 1584 409 2034 409 
Q 2484 409 2743 651 
Q 3003 894 3003 1313 
Q 3003 1734 2745 1975 
Q 2488 2216 2034 2216 
z
M 1403 2484 
Q 997 2584 770 2862 
Q 544 3141 544 3541 
Q 544 4100 942 4425 
Q 1341 4750 2034 4750 
Q 2731 4750 3128 4425 
Q 3525 4100 3525 3541 
Q 3525 3141 3298 2862 
Q 3072 2584 2669 2484 
Q 3125 2378 3379 2068 
Q 3634 1759 3634 1313 
Q 3634 634 3220 271 
Q 2806 -91 2034 -91 
Q 1263 -91 848 271 
Q 434 634 434 1313 
Q 434 1759 690 2068 
Q 947 2378 1403 2484 
z
M 1172 3481 
Q 1172 3119 1398 2916 
Q 1625 2713 2034 2713 
Q 2441 2713 2670 2916 
Q 2900 3119 2900 3481 
Q 2900 3844 2670 4047 
Q 2441 4250 2034 4250 
Q 1625 4250 1398 4047 
Q 1172 3844 1172 3481 
z
" transform="scale(0.015625)"/>
      </defs>
      <use xlink:href="#DejaVuSans-31"/>
      <use xlink:href="#DejaVuSans-65" x="63.623047"/>
      <use xlink:href="#DejaVuSans-38" x="125.146484"/>
     </g>
    </g>
   </g>
   <g id="line2d_9">
    <path d="M 34.810459 149.889186 
L 46.207149 149.834916 
L 50.19599 149.713516 
L 50.765825 148.670126 
L 51.335659 148.378197 
L 51.905494 146.316085 
L 52.475328 130.713862 
L 53.045163 130.476492 
L 53.614997 109.696448 
L 54.184831 84.355877 
L 54.754666 38.00115 
L 55.3245 26.228926 
L 55.894335 65.030708 
L 56.464169 141.641709 
L 57.034004 146.72612 
L 58.173673 147.540305 
L 58.743507 147.440913 
L 59.313342 149.414134 
L 59.883176 149.693042 
L 60.453011 149.839161 
L 63.302183 149.772061 
L 63.872017 150.045334 
L 65.011686 150.111997 
L 65.581521 150.343817 
L 66.72119 150.367182 
L 77.548045 150.45176 
L 154.475698 150.608652 
L 242.800041 150.630968 
L 242.800041 150.630968 
" clip-path="url(#pde18841251)" style="fill: none; stroke: #4c72b0; stroke-width: 1.5; stroke-linecap: square"/>
   </g>
   <g id="line2d_10">
    <path d="M 34.810459 149.885051 
L 38.229466 149.956881 
L 40.508804 149.962167 
L 41.078639 150.117204 
L 43.357977 150.145589 
L 44.497645 149.92841 
L 49.626156 149.819924 
L 52.475328 149.319123 
L 53.614997 149.322991 
L 54.754666 149.219768 
L 55.3245 149.788911 
L 55.894335 150.076673 
L 58.173673 150.254461 
L 59.313342 150.335795 
L 62.162514 150.424758 
L 189.235601 150.62469 
L 242.800041 150.631002 
L 242.800041 150.631002 
" clip-path="url(#pde18841251)" style="fill: none; stroke: #dd8452; stroke-width: 1.5; stroke-linecap: square"/>
   </g>
   <g id="line2d_11">
    <path d="M 34.810459 149.88595 
L 45.06748 149.955471 
L 46.207149 150.116224 
L 68.430693 150.538038 
L 114.017451 150.605668 
L 148.207519 150.615128 
L 242.800041 150.631005 
L 242.800041 150.631005 
" clip-path="url(#pde18841251)" style="fill: none; stroke: #55a868; stroke-width: 1.5; stroke-linecap: square"/>
   </g>
   <g id="line2d_12"/>
   <g id="line2d_13"/>
   <g id="line2d_14"/>
   <g id="patch_3">
    <path d="M 34.240625 150.84327 
L 34.240625 17.798438 
" style="fill: none; stroke: #000000; stroke-width: 0.8; stroke-linejoin: miter; stroke-linecap: square"/>
   </g>
   <g id="patch_4">
    <path d="M 253.19952 150.84327 
L 253.19952 17.798438 
" style="fill: none; stroke: #000000; stroke-width: 0.8; stroke-linejoin: miter; stroke-linecap: square"/>
   </g>
   <g id="patch_5">
    <path d="M 34.240625 150.84327 
L 253.19952 150.84327 
" style="fill: none; stroke: #000000; stroke-width: 0.8; stroke-linejoin: miter; stroke-linecap: square"/>
   </g>
   <g id="patch_6">
    <path d="M 34.240625 17.798438 
L 253.19952 17.798438 
" style="fill: none; stroke: #000000; stroke-width: 0.8; stroke-linejoin: miter; stroke-linecap: square"/>
   </g>
   <g id="legend_1">
    <g id="patch_7">
     <path d="M 97.754207 69.832813 
L 246.19952 69.832813 
Q 248.19952 69.832813 248.19952 67.832813 
L 248.19952 24.798438 
Q 248.19952 22.798438 246.19952 22.798438 
L 97.754207 22.798438 
Q 95.754207 22.798438 95.754207 24.798438 
L 95.754207 67.832813 
Q 95.754207 69.832813 97.754207 69.832813 
z
" style="fill: #ffffff; opacity: 0.8; stroke: #cccccc; stroke-linejoin: miter"/>
    </g>
    <g id="line2d_15">
     <path d="M 99.754207 30.896875 
L 109.754207 30.896875 
L 119.754207 30.896875 
" style="fill: none; stroke: #4c72b0; stroke-width: 1.5; stroke-linecap: square"/>
    </g>
    <g id="text_12">
     <!-- Random -->
     <g transform="translate(127.754207 34.396875) scale(0.1 -0.1)">
      <defs>
       <path id="DejaVuSans-64" d="M 2906 2969 
L 2906 4863 
L 3481 4863 
L 3481 0 
L 2906 0 
L 2906 525 
Q 2725 213 2448 61 
Q 2172 -91 1784 -91 
Q 1150 -91 751 415 
Q 353 922 353 1747 
Q 353 2572 751 3078 
Q 1150 3584 1784 3584 
Q 2172 3584 2448 3432 
Q 2725 3281 2906 2969 
z
M 947 1747 
Q 947 1113 1208 752 
Q 1469 391 1925 391 
Q 2381 391 2643 752 
Q 2906 1113 2906 1747 
Q 2906 2381 2643 2742 
Q 2381 3103 1925 3103 
Q 1469 3103 1208 2742 
Q 947 2381 947 1747 
z
" transform="scale(0.015625)"/>
      </defs>
      <use xlink:href="#DejaVuSans-52"/>
      <use xlink:href="#DejaVuSans-61" x="67.232422"/>
      <use xlink:href="#DejaVuSans-6e" x="128.511719"/>
      <use xlink:href="#DejaVuSans-64" x="191.890625"/>
      <use xlink:href="#DejaVuSans-6f" x="255.367188"/>
      <use xlink:href="#DejaVuSans-6d" x="316.548828"/>
     </g>
    </g>
    <g id="line2d_16">
     <path d="M 99.754207 45.575 
L 109.754207 45.575 
L 119.754207 45.575 
" style="fill: none; stroke: #dd8452; stroke-width: 1.5; stroke-linecap: square"/>
    </g>
    <g id="text_13">
     <!-- Classification-optimal -->
     <g transform="translate(127.754207 49.075) scale(0.1 -0.1)">
      <defs>
       <path id="DejaVuSans-43" d="M 4122 4306 
L 4122 3641 
Q 3803 3938 3442 4084 
Q 3081 4231 2675 4231 
Q 1875 4231 1450 3742 
Q 1025 3253 1025 2328 
Q 1025 1406 1450 917 
Q 1875 428 2675 428 
Q 3081 428 3442 575 
Q 3803 722 4122 1019 
L 4122 359 
Q 3791 134 3420 21 
Q 3050 -91 2638 -91 
Q 1578 -91 968 557 
Q 359 1206 359 2328 
Q 359 3453 968 4101 
Q 1578 4750 2638 4750 
Q 3056 4750 3426 4639 
Q 3797 4528 4122 4306 
z
" transform="scale(0.015625)"/>
       <path id="DejaVuSans-66" d="M 2375 4863 
L 2375 4384 
L 1825 4384 
Q 1516 4384 1395 4259 
Q 1275 4134 1275 3809 
L 1275 3500 
L 2222 3500 
L 2222 3053 
L 1275 3053 
L 1275 0 
L 697 0 
L 697 3053 
L 147 3053 
L 147 3500 
L 697 3500 
L 697 3744 
Q 697 4328 969 4595 
Q 1241 4863 1831 4863 
L 2375 4863 
z
" transform="scale(0.015625)"/>
       <path id="DejaVuSans-2d" d="M 313 2009 
L 1997 2009 
L 1997 1497 
L 313 1497 
L 313 2009 
z
" transform="scale(0.015625)"/>
      </defs>
      <use xlink:href="#DejaVuSans-43"/>
      <use xlink:href="#DejaVuSans-6c" x="69.824219"/>
      <use xlink:href="#DejaVuSans-61" x="97.607422"/>
      <use xlink:href="#DejaVuSans-73" x="158.886719"/>
      <use xlink:href="#DejaVuSans-73" x="210.986328"/>
      <use xlink:href="#DejaVuSans-69" x="263.085938"/>
      <use xlink:href="#DejaVuSans-66" x="290.869141"/>
      <use xlink:href="#DejaVuSans-69" x="326.074219"/>
      <use xlink:href="#DejaVuSans-63" x="353.857422"/>
      <use xlink:href="#DejaVuSans-61" x="408.837891"/>
      <use xlink:href="#DejaVuSans-74" x="470.117188"/>
      <use xlink:href="#DejaVuSans-69" x="509.326172"/>
      <use xlink:href="#DejaVuSans-6f" x="537.109375"/>
      <use xlink:href="#DejaVuSans-6e" x="598.291016"/>
      <use xlink:href="#DejaVuSans-2d" x="661.669922"/>
      <use xlink:href="#DejaVuSans-6f" x="699.628906"/>
      <use xlink:href="#DejaVuSans-70" x="760.810547"/>
      <use xlink:href="#DejaVuSans-74" x="824.287109"/>
      <use xlink:href="#DejaVuSans-69" x="863.496094"/>
      <use xlink:href="#DejaVuSans-6d" x="891.279297"/>
      <use xlink:href="#DejaVuSans-61" x="988.691406"/>
      <use xlink:href="#DejaVuSans-6c" x="1049.970703"/>
     </g>
    </g>
    <g id="line2d_17">
     <path d="M 99.754207 60.253125 
L 109.754207 60.253125 
L 119.754207 60.253125 
" style="fill: none; stroke: #55a868; stroke-width: 1.5; stroke-linecap: square"/>
    </g>
    <g id="text_14">
     <!-- Reconstruction-optimal -->
     <g transform="translate(127.754207 63.753125) scale(0.1 -0.1)">
      <use xlink:href="#DejaVuSans-52"/>
      <use xlink:href="#DejaVuSans-65" x="64.982422"/>
      <use xlink:href="#DejaVuSans-63" x="126.505859"/>
      <use xlink:href="#DejaVuSans-6f" x="181.486328"/>
      <use xlink:href="#DejaVuSans-6e" x="242.667969"/>
      <use xlink:href="#DejaVuSans-73" x="306.046875"/>
      <use xlink:href="#DejaVuSans-74" x="358.146484"/>
      <use xlink:href="#DejaVuSans-72" x="397.355469"/>
      <use xlink:href="#DejaVuSans-75" x="438.46875"/>
      <use xlink:href="#DejaVuSans-63" x="501.847656"/>
      <use xlink:href="#DejaVuSans-74" x="556.828125"/>
      <use xlink:href="#DejaVuSans-69" x="596.037109"/>
      <use xlink:href="#DejaVuSans-6f" x="623.820312"/>
      <use xlink:href="#DejaVuSans-6e" x="685.001953"/>
      <use xlink:href="#DejaVuSans-2d" x="748.380859"/>
      <use xlink:href="#DejaVuSans-6f" x="786.339844"/>
      <use xlink:href="#DejaVuSans-70" x="847.521484"/>
      <use xlink:href="#DejaVuSans-74" x="910.998047"/>
      <use xlink:href="#DejaVuSans-69" x="950.207031"/>
      <use xlink:href="#DejaVuSans-6d" x="977.990234"/>
      <use xlink:href="#DejaVuSans-61" x="1075.402344"/>
      <use xlink:href="#DejaVuSans-6c" x="1136.681641"/>
     </g>
    </g>
   </g>
  </g>
 </g>
 <defs>
  <clipPath id="pde18841251">
   <rect x="34.240625" y="17.798438" width="218.958895" height="133.044832"/>
  </clipPath>
 </defs>
</svg>
