<?xml version="1.0" encoding="utf-8" standalone="no"?>
<!DOCTYPE svg PUBLIC "-//W3C//DTD SVG 1.1//EN"
  "http://www.w3.org/Graphics/SVG/1.1/DTD/svg11.dtd">
<svg xmlns:xlink="http://www.w3.org/1999/xlink" width="260.39952pt" height="188.39952pt" viewBox="0 0 260.39952 188.39952" xmlns="http://www.w3.org/2000/svg" version="1.1">
 <metadata>
  <rdf:RDF xmlns:dc="http://purl.org/dc/elements/1.1/" xmlns:cc="http://creativecommons.org/ns#" xmlns:rdf="http://www.w3.org/1999/02/22-rdf-syntax-ns#">
   <cc:Work>
    <dc:type rdf:resource="http://purl.org/dc/dcmitype/StillImage"/>
    <dc:date>1980-01-01T00:00:00+00:00</dc:date>
    <dc:format>image/svg+xml</dc:format>
    <dc:creator>
     <cc:Agent>
      <dc:title>Matplotlib v3.7.5, https://matplotlib.org/</dc:title>
     </cc:Agent>
    </dc:creator>
   </cc:Work>
  </rdf:RDF>
 </metadata>
 <defs>
  <style type="text/css">*{stroke-linejoin: round; stroke-linecap: butt}</style>
 </defs>
 <g id="figure_1">
  <g id="patch_1">
   <path d="M 0 188.39952 
L 260.39952 188.39952 
L 260.39952 0 
L 0 0 
z
" style="fill: #ffffff"/>
  </g>
  <g id="axes_1">
   <g id="patch_2">
    <path d="M 46.965625 150.84327 
L 253.19952 150.84327 
L 253.19952 7.2 
L 46.965625 7.2 
z
" style="fill: #ffffff"/>
   </g>
   <g id="PolyCollection_1">
    <defs>
     <path id="m3387fde3ff" d="M 47.502343 -165.61305 
L 47.502343 -164.206287 
L 48.039061 -169.414955 
L 48.575779 -170.888217 
L 49.112497 -152.14456 
L 49.649215 -137.306661 
L 50.185933 -137.777068 
L 50.722651 -145.625162 
L 51.259369 -160.711158 
L 51.796087 -158.697046 
L 52.332805 -152.976934 
L 52.869523 -141.447784 
L 53.406241 -138.844742 
L 53.942959 -136.011182 
L 54.479677 -148.031807 
L 55.016395 -146.38774 
L 55.553113 -146.718492 
L 56.089831 -144.443812 
L 56.626549 -139.883852 
L 57.163267 -138.306866 
L 57.699985 -130.205635 
L 58.236703 -120.124027 
L 58.773421 -121.501902 
L 59.310139 -121.168242 
L 59.846857 -118.852201 
L 60.383575 -117.895747 
L 60.920293 -117.877394 
L 61.457011 -118.670927 
L 61.993729 -125.43881 
L 62.530447 -139.196239 
L 63.067165 -129.962579 
L 63.603883 -139.307459 
L 64.140601 -150.208387 
L 64.677319 -152.19374 
L 65.214037 -167.538301 
L 65.750755 -147.362289 
L 66.287473 -169.603661 
L 66.824191 -149.779275 
L 67.360909 -146.511821 
L 67.897627 -121.638843 
L 68.434345 -114.886794 
L 68.971063 -117.647328 
L 69.507781 -120.354093 
L 70.044499 -121.765509 
L 70.581217 -115.03931 
L 71.117935 -110.256975 
L 71.654653 -108.455351 
L 72.191371 -108.853443 
L 72.728089 -110.468816 
L 73.264807 -110.47166 
L 73.801525 -110.468946 
L 74.338243 -111.309139 
L 74.874961 -123.799719 
L 75.411679 -119.542399 
L 75.948397 -120.563479 
L 76.485116 -112.934852 
L 77.021834 -113.82177 
L 77.558552 -110.993767 
L 78.09527 -111.076423 
L 78.631988 -110.823027 
L 79.168706 -110.334654 
L 79.705424 -107.302436 
L 80.242142 -92.593658 
L 80.77886 -99.76435 
L 81.315578 -96.789002 
L 81.852296 -99.340602 
L 82.389014 -100.436582 
L 82.925732 -101.405961 
L 83.46245 -100.454612 
L 83.999168 -100.377127 
L 84.535886 -99.997195 
L 85.072604 -100.263386 
L 85.609322 -99.415502 
L 86.14604 -99.449108 
L 86.682758 -99.697204 
L 87.219476 -99.392302 
L 87.756194 -99.363867 
L 88.292912 -98.482249 
L 88.82963 -98.409998 
L 89.366348 -98.51314 
L 89.903066 -97.303613 
L 90.439784 -95.359491 
L 90.976502 -95.326015 
L 91.51322 -95.240709 
L 92.049938 -95.3286 
L 92.586656 -95.056915 
L 93.123374 -94.157654 
L 93.660092 -93.656098 
L 94.19681 -91.086596 
L 94.733528 -91.078906 
L 95.270246 -90.719396 
L 95.806964 -90.737685 
L 96.343682 -91.975905 
L 96.8804 -91.98101 
L 97.417118 -91.92162 
L 97.953836 -91.567409 
L 98.490554 -92.743589 
L 99.027272 -92.715089 
L 99.56399 -93.281012 
L 100.100708 -93.968884 
L 100.637426 -94.167801 
L 101.174144 -94.232361 
L 101.710862 -94.659082 
L 102.24758 -94.470182 
L 102.784298 -92.970876 
L 103.321016 -93.92733 
L 103.857734 -92.872904 
L 104.394452 -92.296252 
L 104.93117 -89.778581 
L 105.467888 -90.067973 
L 106.004606 -90.104357 
L 106.541324 -90.667889 
L 107.078042 -91.192647 
L 107.61476 -90.383473 
L 108.151478 -90.70395 
L 108.688196 -91.742866 
L 109.224914 -91.484494 
L 109.761632 -91.161562 
L 110.29835 -90.988366 
L 110.835068 -90.822925 
L 111.371786 -90.391293 
L 111.908504 -90.021507 
L 112.445222 -90.140482 
L 112.98194 -89.545865 
L 113.518658 -88.535255 
L 114.055376 -89.385659 
L 114.592094 -89.362394 
L 115.128812 -89.40886 
L 115.66553 -88.553156 
L 116.202248 -88.832402 
L 116.738966 -88.506755 
L 117.275684 -87.421115 
L 117.812402 -87.315065 
L 118.34912 -87.558056 
L 118.885838 -86.842008 
L 119.422556 -84.303527 
L 119.959274 -83.359933 
L 120.495992 -82.160488 
L 121.03271 -82.013143 
L 121.569428 -81.950844 
L 122.106146 -81.920147 
L 122.642864 -81.59967 
L 123.179582 -81.974238 
L 123.7163 -81.348859 
L 124.253018 -81.958793 
L 124.789736 -82.238103 
L 125.326454 -82.105751 
L 125.863172 -82.132053 
L 126.39989 -82.088043 
L 126.936608 -81.951232 
L 127.473326 -82.168243 
L 128.010044 -82.232933 
L 128.546762 -82.217423 
L 129.08348 -81.798716 
L 129.620198 -82.129597 
L 130.156916 -81.989942 
L 130.693634 -79.826288 
L 131.230352 -79.893563 
L 131.76707 -79.903903 
L 132.303788 -79.945069 
L 132.840506 -79.924324 
L 133.377224 -79.971048 
L 133.913942 -79.761727 
L 134.45066 -80.157234 
L 134.987378 -81.560895 
L 135.524097 -81.465185 
L 136.060815 -80.744031 
L 136.597533 -80.594036 
L 137.134251 -80.216689 
L 137.670969 -80.019905 
L 138.207687 -79.844448 
L 138.744405 -79.880573 
L 139.281123 -80.257726 
L 139.817841 -80.221859 
L 140.354559 -80.097714 
L 140.891277 -79.508267 
L 141.427995 -79.609082 
L 141.964713 -78.838814 
L 142.501431 -78.869834 
L 143.038149 -79.141066 
L 143.574867 -79.298816 
L 144.111585 -78.898204 
L 144.648303 -78.916364 
L 145.185021 -77.510182 
L 145.721739 -77.331687 
L 146.258457 -77.466173 
L 146.795175 -77.411887 
L 147.331893 -77.365228 
L 147.868611 -77.305837 
L 148.405329 -78.277866 
L 148.942047 -77.161077 
L 149.478765 -77.197396 
L 150.015483 -76.274483 
L 150.552201 -76.245724 
L 151.088919 -76.199194 
L 151.625637 -76.824961 
L 152.162355 -76.822505 
L 152.699073 -76.173667 
L 153.235791 -76.039182 
L 153.772509 -76.501834 
L 154.309227 -76.66217 
L 154.845945 -76.292578 
L 155.382663 -76.812165 
L 155.919381 -75.82217 
L 156.456099 -76.111691 
L 156.992817 -75.76265 
L 157.529535 -77.018966 
L 158.066253 -77.026721 
L 158.602971 -76.845705 
L 159.139689 -76.897341 
L 159.676407 -76.842991 
L 160.213125 -76.602844 
L 160.749843 -76.468358 
L 161.286561 -76.295163 
L 161.823279 -76.227888 
L 162.359997 -76.124552 
L 162.896715 -75.915231 
L 163.433433 -76.147623 
L 163.970151 -76.155443 
L 164.506869 -76.222782 
L 165.043587 -75.367144 
L 165.580305 -75.449735 
L 166.117023 -75.439524 
L 166.653741 -75.367144 
L 167.190459 -75.049123 
L 167.727177 -74.444359 
L 168.263895 -75.000007 
L 168.800613 -75.411153 
L 169.337331 -75.506799 
L 169.874049 -75.537754 
L 170.410767 -75.690335 
L 170.947485 -76.072722 
L 171.484203 -75.51701 
L 172.020921 -75.77299 
L 172.557639 -75.535169 
L 173.094357 -75.369729 
L 173.631075 -74.759731 
L 174.167793 -74.090148 
L 174.704511 -74.064363 
L 175.241229 -74.095318 
L 175.777947 -73.997088 
L 176.314665 -73.965938 
L 176.851383 -74.09506 
L 177.388101 -74.408169 
L 177.924819 -74.516481 
L 178.461537 -74.268578 
L 178.998255 -74.852726 
L 179.534973 -75.100694 
L 180.071691 -74.775241 
L 180.608409 -74.51157 
L 181.145127 -75.067347 
L 181.681845 -75.031157 
L 182.218563 -74.881226 
L 182.755281 -75.305168 
L 183.291999 -75.284423 
L 183.828717 -75.077622 
L 184.365435 -75.439524 
L 184.902153 -75.571359 
L 185.438871 -75.555849 
L 185.975589 -75.248233 
L 186.512307 -75.144897 
L 187.049025 -75.049252 
L 187.585743 -74.945851 
L 188.122461 -75.106122 
L 188.659179 -74.953542 
L 189.195897 -74.612385 
L 189.732615 -74.60715 
L 190.269333 -74.289194 
L 190.806051 -74.237364 
L 191.342769 -74.351234 
L 191.879487 -74.284089 
L 192.416205 -74.299534 
L 192.952923 -73.666206 
L 193.489641 -73.609271 
L 194.026359 -73.642941 
L 194.563078 -73.407641 
L 195.099796 -73.229339 
L 195.636514 -73.162129 
L 196.173232 -72.815738 
L 196.70995 -72.611586 
L 197.246668 -72.647712 
L 197.783386 -72.611522 
L 198.320104 -72.764037 
L 198.856822 -72.650232 
L 199.39354 -72.627096 
L 199.930258 -72.727783 
L 200.466976 -72.707102 
L 201.003694 -72.694177 
L 201.540412 -72.691657 
L 202.07713 -72.921723 
L 202.613848 -72.960563 
L 203.150566 -73.094854 
L 203.687284 -73.198319 
L 204.224002 -73.076759 
L 204.76072 -73.063899 
L 205.297438 -72.919203 
L 205.834156 -72.934713 
L 206.370874 -73.20853 
L 206.907592 -73.113014 
L 207.44431 -73.32492 
L 207.981028 -73.565391 
L 208.517746 -73.123354 
L 209.054464 -72.963083 
L 209.591182 -72.652947 
L 210.1279 -72.955393 
L 210.664618 -72.748527 
L 211.201336 -72.849407 
L 211.738054 -72.376286 
L 212.274772 -72.422881 
L 212.81149 -72.378871 
L 213.348208 -72.404656 
L 213.884926 -72.730432 
L 214.421644 -72.590842 
L 214.958362 -72.611522 
L 215.49508 -72.807983 
L 216.031798 -72.919138 
L 216.568516 -73.322464 
L 217.105234 -73.255254 
L 217.641952 -73.42328 
L 218.17867 -73.469745 
L 218.715388 -73.554986 
L 219.252106 -74.061454 
L 219.788824 -74.320085 
L 220.325542 -74.529535 
L 220.86226 -74.539811 
L 221.398978 -74.772591 
L 221.935696 -74.591382 
L 222.472414 -74.806196 
L 223.009132 -74.754496 
L 223.54585 -74.800962 
L 224.082568 -74.736401 
L 224.619286 -74.59946 
L 225.156004 -74.490889 
L 225.692722 -74.444295 
L 226.22944 -74.392594 
L 226.766158 -74.519325 
L 227.302876 -74.5011 
L 227.839594 -74.395115 
L 228.376312 -74.35621 
L 228.91303 -74.413274 
L 229.449748 -74.413339 
L 229.986466 -74.901777 
L 230.523184 -75.183543 
L 231.059902 -75.302389 
L 231.59662 -75.253338 
L 232.133338 -75.168162 
L 232.670056 -75.423949 
L 233.206774 -75.493551 
L 233.743492 -75.517074 
L 234.28021 -75.429248 
L 234.816928 -75.103085 
L 235.353646 -74.736272 
L 235.890364 -74.196069 
L 236.427082 -74.012533 
L 236.9638 -74.079679 
L 237.500518 -74.103138 
L 238.037236 -74.273684 
L 238.573954 -74.335724 
L 239.110672 -74.281116 
L 239.64739 -74.434019 
L 240.184108 -74.314979 
L 240.720826 -75.219863 
L 241.257544 -75.217213 
L 241.794262 -75.351634 
L 242.33098 -75.421364 
L 242.867698 -75.088027 
L 243.404416 -74.979392 
L 243.404416 -75.780875 
L 243.404416 -75.780875 
L 242.867698 -75.922986 
L 242.33098 -76.266857 
L 241.794262 -76.199582 
L 241.257544 -76.041961 
L 240.720826 -76.052365 
L 240.184108 -75.137271 
L 239.64739 -75.269042 
L 239.110672 -75.157822 
L 238.573954 -75.201897 
L 238.037236 -75.132037 
L 237.500518 -74.912311 
L 236.9638 -74.951021 
L 236.427082 -74.870951 
L 235.890364 -75.038976 
L 235.353646 -75.568904 
L 234.816928 -75.93856 
L 234.28021 -76.315972 
L 233.743492 -76.372842 
L 233.206774 -76.318686 
L 232.670056 -76.318492 
L 232.133338 -75.954135 
L 231.59662 -76.13528 
L 231.059902 -76.178966 
L 230.523184 -76.093596 
L 229.986466 -75.72911 
L 229.449748 -75.175917 
L 228.91303 -75.214822 
L 228.376312 -75.173526 
L 227.839594 -75.168292 
L 227.302876 -75.333603 
L 226.766158 -75.318158 
L 226.22944 -75.188842 
L 225.692722 -75.292566 
L 225.156004 -75.312988 
L 224.619286 -75.452578 
L 224.082568 -75.553329 
L 223.54585 -75.682773 
L 223.009132 -75.576723 
L 222.472414 -75.636179 
L 221.935696 -75.444823 
L 221.398978 -75.592169 
L 220.86226 -75.333732 
L 220.325542 -75.372507 
L 219.788824 -75.096105 
L 219.252106 -74.808846 
L 218.715388 -74.271163 
L 218.17867 -74.193613 
L 217.641952 -74.204082 
L 217.105234 -74.002387 
L 216.568516 -74.056672 
L 216.031798 -73.624911 
L 215.49508 -73.513884 
L 214.958362 -73.3509 
L 214.421644 -73.296679 
L 213.884926 -73.470004 
L 213.348208 -73.084643 
L 212.81149 -73.082058 
L 212.274772 -73.146748 
L 211.738054 -73.141578 
L 211.201336 -73.550139 
L 210.664618 -73.45178 
L 210.1279 -73.658516 
L 209.591182 -73.322788 
L 209.054464 -73.674155 
L 208.517746 -73.82932 
L 207.981028 -74.284153 
L 207.44431 -74.020482 
L 206.907592 -73.805991 
L 206.370874 -73.948102 
L 205.834156 -73.630145 
L 205.297438 -73.648176 
L 204.76072 -73.793066 
L 204.224002 -73.777491 
L 203.687284 -73.909262 
L 203.150566 -73.829191 
L 202.613848 -73.65858 
L 202.07713 -73.666271 
L 201.540412 -73.392454 
L 201.003694 -73.392324 
L 200.466976 -73.420759 
L 199.930258 -73.397494 
L 199.39354 -73.356263 
L 198.856822 -73.353485 
L 198.320104 -73.464769 
L 197.783386 -73.317424 
L 197.246668 -73.361369 
L 196.70995 -73.296679 
L 196.173232 -73.537214 
L 195.636514 -73.90183 
L 195.099796 -73.955792 
L 194.563078 -74.136872 
L 194.026359 -74.356533 
L 193.489641 -74.392724 
L 192.952923 -74.392918 
L 192.416205 -75.036456 
L 191.879487 -75.085571 
L 191.342769 -75.119112 
L 190.806051 -75.002786 
L 190.269333 -75.041561 
L 189.732615 -75.405983 
L 189.195897 -75.362038 
L 188.659179 -75.736865 
L 188.122461 -75.87904 
L 187.585743 -75.7136 
L 187.049025 -75.801555 
L 186.512307 -75.86618 
L 185.975589 -76.000601 
L 185.438871 -76.315972 
L 184.902153 -76.305697 
L 184.365435 -76.184136 
L 183.828717 -75.83768 
L 183.291999 -76.018696 
L 182.755281 -76.003315 
L 182.218563 -75.592169 
L 181.681845 -75.780875 
L 181.145127 -75.757674 
L 180.608409 -75.199441 
L 180.071691 -75.491418 
L 179.534973 -75.801619 
L 178.998255 -75.579179 
L 178.461537 -75.028766 
L 177.924819 -75.276927 
L 177.388101 -75.116656 
L 176.851383 -74.850206 
L 176.314665 -74.705575 
L 175.777947 -74.757339 
L 175.241229 -74.876056 
L 174.704511 -74.847686 
L 174.167793 -74.821835 
L 173.631075 -75.486248 
L 173.094357 -76.153181 
L 172.557639 -76.292642 
L 172.020921 -76.545973 
L 171.484203 -76.287601 
L 170.947485 -76.817529 
L 170.410767 -76.450393 
L 169.874049 -76.295292 
L 169.337331 -76.282302 
L 168.800613 -76.191956 
L 168.263895 -75.73945 
L 167.727177 -75.183737 
L 167.190459 -75.817194 
L 166.653741 -76.101416 
L 166.117023 -76.202296 
L 165.580305 -76.235837 
L 165.043587 -76.147882 
L 164.506869 -76.972565 
L 163.970151 -76.931205 
L 163.433433 -76.962225 
L 162.896715 -76.740043 
L 162.359997 -76.972629 
L 161.823279 -77.114676 
L 161.286561 -77.19242 
L 160.749843 -77.419707 
L 160.213125 -77.543981 
L 159.676407 -77.727388 
L 159.139689 -77.737663 
L 158.602971 -77.688613 
L 158.066253 -77.892764 
L 157.529535 -77.854441 
L 156.992817 -76.639421 
L 156.456099 -77.00617 
L 155.919381 -76.654544 
L 155.382663 -77.644603 
L 154.845945 -77.16909 
L 154.309227 -77.525822 
L 153.772509 -77.331881 
L 153.235791 -76.920994 
L 152.699073 -77.101751 
L 152.162355 -77.732493 
L 151.625637 -77.722153 
L 151.088919 -77.078615 
L 150.552201 -77.212906 
L 150.015483 -77.228481 
L 149.478765 -78.104735 
L 148.942047 -78.022144 
L 148.405329 -79.174994 
L 147.868611 -78.252145 
L 147.331893 -78.27289 
L 146.795175 -78.368406 
L 146.258457 -78.415066 
L 145.721739 -78.252081 
L 145.185021 -78.415389 
L 144.648303 -79.844577 
L 144.111585 -79.87327 
L 143.574867 -80.250553 
L 143.038149 -80.103272 
L 142.501431 -79.829131 
L 141.964713 -79.857437 
L 141.427995 -80.514095 
L 140.891277 -80.537424 
L 140.354559 -81.149878 
L 139.817841 -81.320812 
L 139.281123 -81.279193 
L 138.744405 -80.943207 
L 138.207687 -80.943142 
L 137.670969 -81.124157 
L 137.134251 -81.317969 
L 136.597533 -81.63586 
L 136.060815 -81.837685 
L 135.524097 -82.463064 
L 134.987378 -82.597614 
L 134.45066 -81.243003 
L 133.913942 -80.855445 
L 133.377224 -81.023407 
L 132.840506 -81.031032 
L 132.303788 -80.997363 
L 131.76707 -80.940492 
L 131.230352 -80.935387 
L 130.693634 -80.834636 
L 130.156916 -83.096456 
L 129.620198 -83.18719 
L 129.08348 -82.951631 
L 128.546762 -83.352566 
L 128.010044 -83.303709 
L 127.473326 -83.261897 
L 126.936608 -83.083596 
L 126.39989 -83.13549 
L 125.863172 -83.230877 
L 125.326454 -83.210455 
L 124.789736 -83.385977 
L 124.253018 -82.998161 
L 123.7163 -82.434823 
L 123.179582 -83.034481 
L 122.642864 -82.644209 
L 122.106146 -82.928366 
L 121.569428 -83.006175 
L 121.03271 -82.982651 
L 120.495992 -83.215561 
L 119.959274 -84.458757 
L 119.422556 -85.378956 
L 118.885838 -87.909747 
L 118.34912 -88.506949 
L 117.812402 -88.191449 
L 117.275684 -88.281924 
L 116.738966 -89.463339 
L 116.202248 -89.778645 
L 115.66553 -89.491838 
L 115.128812 -90.251896 
L 114.592094 -90.231022 
L 114.055376 -90.218162 
L 113.518658 -89.463339 
L 112.98194 -90.533469 
L 112.445222 -91.068631 
L 111.908504 -90.897955 
L 111.371786 -91.332431 
L 110.835068 -91.668289 
L 110.29835 -91.908824 
L 109.761632 -91.955289 
L 109.224914 -92.381816 
L 108.688196 -92.640317 
L 108.151478 -91.608898 
L 107.61476 -91.301411 
L 107.078042 -92.040595 
L 106.541324 -91.497872 
L 106.004606 -90.934339 
L 105.467888 -90.892914 
L 104.93117 -90.538703 
L 104.394452 -93.056504 
L 103.857734 -93.622686 
L 103.321016 -94.659211 
L 102.784298 -93.744053 
L 102.24758 -95.352059 
L 101.710862 -95.504574 
L 101.174144 -95.098598 
L 100.637426 -95.008123 
L 100.100708 -94.834927 
L 99.56399 -94.157784 
L 99.027272 -93.591602 
L 98.490554 -93.622622 
L 97.953836 -92.384466 
L 97.417118 -92.780037 
L 96.8804 -92.785078 
L 96.343682 -92.834193 
L 95.806964 -91.606378 
L 95.270246 -91.567667 
L 94.733528 -91.924269 
L 94.19681 -91.932024 
L 93.660092 -94.666966 
L 93.123374 -95.106353 
L 92.586656 -96.011107 
L 92.049938 -96.282534 
L 91.51322 -96.267153 
L 90.976502 -96.354978 
L 90.439784 -96.323958 
L 89.903066 -98.314417 
L 89.366348 -99.428557 
L 88.82963 -99.317401 
L 88.292912 -99.314881 
L 87.756194 -100.142084 
L 87.219476 -100.12903 
L 86.682758 -100.496489 
L 86.14604 -100.302484 
L 85.609322 -100.292015 
L 85.072604 -101.163164 
L 84.535886 -100.866017 
L 83.999168 -101.253575 
L 83.46245 -101.320785 
L 82.925732 -102.375405 
L 82.389014 -101.387995 
L 81.852296 -100.36698 
L 81.315578 -97.688909 
L 80.77886 -100.648811 
L 80.242142 -93.775137 
L 79.705424 -108.473575 
L 79.168706 -111.619469 
L 78.631988 -112.139057 
L 78.09527 -112.472782 
L 77.558552 -112.438918 
L 77.021834 -114.809438 
L 76.485116 -114.090805 
L 75.948397 -121.517477 
L 75.411679 -120.517142 
L 74.874961 -124.818924 
L 74.338243 -112.485577 
L 73.801525 -111.567705 
L 73.264807 -111.562599 
L 72.728089 -111.524082 
L 72.191371 -109.916012 
L 71.654653 -109.551654 
L 71.117935 -111.203283 
L 70.581217 -115.954598 
L 70.044499 -122.691395 
L 69.507781 -121.365026 
L 68.971063 -118.588853 
L 68.434345 -115.739913 
L 67.897627 -122.794602 
L 67.360909 -147.212553 
L 66.824191 -150.583343 
L 66.287473 -170.596499 
L 65.750755 -148.223163 
L 65.214037 -168.344954 
L 64.677319 -152.925427 
L 64.140601 -150.955584 
L 63.603883 -140.214927 
L 63.067165 -130.805422 
L 62.530447 -140.101058 
L 61.993729 -126.441923 
L 61.457011 -119.782935 
L 60.920293 -119.188511 
L 60.383575 -118.98171 
L 59.846857 -119.94592 
L 59.310139 -122.049989 
L 58.773421 -122.440326 
L 58.236703 -121.163524 
L 57.699985 -131.244939 
L 57.163267 -139.253433 
L 56.626549 -140.892265 
L 56.089831 -145.408086 
L 55.553113 -147.86139 
L 55.016395 -147.576975 
L 54.479677 -149.146141 
L 53.942959 -137.425636 
L 53.406241 -140.207108 
L 52.869523 -142.688654 
L 52.332805 -154.496985 
L 51.796087 -160.344474 
L 51.259369 -162.205553 
L 50.722651 -147.215267 
L 50.185933 -138.728481 
L 49.649215 -138.242499 
L 49.112497 -153.398549 
L 48.575779 -172.367232 
L 48.039061 -171.054111 
L 47.502343 -165.61305 
z
" style="stroke: #4c72b0; stroke-opacity: 0.2"/>
    </defs>
    <g clip-path="url(#pdfff73b7f8)">
     <use xlink:href="#m3387fde3ff" x="0" y="188.39952" style="fill: #4c72b0; fill-opacity: 0.2; stroke: #4c72b0; stroke-opacity: 0.2"/>
    </g>
   </g>
   <g id="PolyCollection_2">
    <defs>
     <path id="m2184fd4387" d="M 47.502343 -176.017461 
L 47.502343 -173.119211 
L 48.039061 -149.567369 
L 48.575779 -154.375295 
L 49.112497 -148.582479 
L 49.649215 -151.705108 
L 50.185933 -145.811218 
L 50.722651 -144.816053 
L 51.259369 -150.456548 
L 51.796087 -144.730683 
L 52.332805 -144.443683 
L 52.869523 -144.244766 
L 53.406241 -142.008602 
L 53.942959 -136.678503 
L 54.479677 -135.714294 
L 55.016395 -135.90035 
L 55.553113 -135.734845 
L 56.089831 -126.498406 
L 56.626549 -134.455264 
L 57.163267 -133.098198 
L 57.699985 -133.982336 
L 58.236703 -129.04238 
L 58.773421 -128.442528 
L 59.310139 -128.116687 
L 59.846857 -125.862752 
L 60.383575 -127.930567 
L 60.920293 -127.610025 
L 61.457011 -124.456506 
L 61.993729 -124.39188 
L 62.530447 -123.926514 
L 63.067165 -115.277131 
L 63.603883 -114.137141 
L 64.140601 -113.408232 
L 64.677319 -109.171076 
L 65.214037 -109.236024 
L 65.750755 -109.734867 
L 66.287473 -109.729697 
L 66.824191 -107.04135 
L 67.360909 -100.793313 
L 67.897627 -99.689255 
L 68.434345 -97.921366 
L 68.971063 -96.212609 
L 69.507781 -95.899823 
L 70.044499 -91.590674 
L 70.581217 -92.130941 
L 71.117935 -89.938852 
L 71.654653 -89.45274 
L 72.191371 -89.49158 
L 72.728089 -88.03861 
L 73.264807 -88.090633 
L 73.801525 -87.971658 
L 74.338243 -86.795543 
L 74.874961 -84.135501 
L 75.411679 -84.533593 
L 75.948397 -84.574953 
L 76.485116 -84.399173 
L 77.021834 -83.272108 
L 77.558552 -83.391018 
L 78.09527 -83.241088 
L 78.631988 -82.41886 
L 79.168706 -82.698106 
L 79.705424 -83.194234 
L 80.242142 -83.217887 
L 80.77886 -83.261832 
L 81.315578 -83.184217 
L 81.852296 -82.66211 
L 82.389014 -82.475924 
L 82.925732 -82.434435 
L 83.46245 -82.297494 
L 83.999168 -80.017579 
L 84.535886 -79.947654 
L 85.072604 -78.789698 
L 85.609322 -79.071465 
L 86.14604 -79.492821 
L 86.682758 -79.358465 
L 87.219476 -79.684048 
L 87.756194 -79.500641 
L 88.292912 -80.39247 
L 88.82963 -80.348395 
L 89.366348 -80.268325 
L 89.903066 -81.002339 
L 90.439784 -80.888792 
L 90.976502 -80.749201 
L 91.51322 -78.761263 
L 92.049938 -78.601057 
L 92.586656 -78.13317 
L 93.123374 -77.587733 
L 93.660092 -77.967665 
L 94.19681 -78.053035 
L 94.733528 -78.099565 
L 95.270246 -78.376032 
L 95.806964 -79.030169 
L 96.343682 -78.993979 
L 96.8804 -78.624322 
L 97.417118 -79.381666 
L 97.953836 -79.782407 
L 98.490554 -79.743632 
L 99.027272 -79.311871 
L 99.56399 -79.710027 
L 100.100708 -79.707248 
L 100.637426 -79.756557 
L 101.174144 -79.810713 
L 101.710862 -79.989144 
L 102.24758 -80.369011 
L 102.784298 -80.141659 
L 103.321016 -80.097714 
L 103.857734 -80.071799 
L 104.394452 -78.950034 
L 104.93117 -78.841334 
L 105.467888 -78.820525 
L 106.004606 -78.825824 
L 106.541324 -78.831123 
L 107.078042 -79.818533 
L 107.61476 -78.500242 
L 108.151478 -79.10507 
L 108.688196 -79.156835 
L 109.224914 -79.492821 
L 109.761632 -79.709898 
L 110.29835 -79.748802 
L 110.835068 -79.914243 
L 111.371786 -80.087374 
L 111.908504 -80.320025 
L 112.445222 -80.366555 
L 112.98194 -80.617172 
L 113.518658 -79.239426 
L 114.055376 -78.906089 
L 114.592094 -79.399826 
L 115.128812 -79.464451 
L 115.66553 -79.115281 
L 116.202248 -79.017244 
L 116.738966 -79.120386 
L 117.275684 -79.197936 
L 117.812402 -79.210991 
L 118.34912 -79.438601 
L 118.885838 -79.472206 
L 119.422556 -79.650378 
L 119.959274 -79.567528 
L 120.495992 -79.559967 
L 121.03271 -79.557382 
L 121.569428 -79.314391 
L 122.106146 -79.23432 
L 122.642864 -79.19031 
L 123.179582 -79.125814 
L 123.7163 -79.224045 
L 124.253018 -79.678942 
L 124.789736 -79.743567 
L 125.326454 -79.854594 
L 125.863172 -79.836693 
L 126.39989 -78.401947 
L 126.936608 -78.350246 
L 127.473326 -77.99875 
L 128.010044 -78.078562 
L 128.546762 -78.221061 
L 129.08348 -78.202772 
L 129.620198 -78.15385 
L 130.156916 -78.484667 
L 130.693634 -78.918884 
L 131.230352 -76.677486 
L 131.76707 -76.564004 
L 132.303788 -77.072928 
L 132.840506 -77.124951 
L 133.377224 -76.93883 
L 133.913942 -77.618559 
L 134.45066 -77.616168 
L 134.987378 -77.667804 
L 135.524097 -77.621209 
L 136.060815 -77.678079 
L 136.597533 -76.94665 
L 137.134251 -77.176651 
L 137.670969 -77.259436 
L 138.207687 -77.435088 
L 138.744405 -77.385908 
L 139.281123 -75.52987 
L 139.817841 -75.054357 
L 140.354559 -75.062112 
L 140.891277 -75.036133 
L 141.427995 -75.359389 
L 141.964713 -74.829461 
L 142.501431 -75.007827 
L 143.038149 -75.010347 
L 143.574867 -75.475779 
L 144.111585 -75.622995 
L 144.648303 -75.439589 
L 145.185021 -75.274019 
L 145.721739 -75.095782 
L 146.258457 -74.829526 
L 146.795175 -75.346464 
L 147.331893 -75.62306 
L 147.868611 -75.511969 
L 148.405329 -75.429248 
L 148.942047 -75.346464 
L 149.478765 -75.090547 
L 150.015483 -74.219463 
L 150.552201 -74.170283 
L 151.088919 -74.172933 
L 151.625637 -74.984562 
L 152.162355 -75.036133 
L 152.699073 -75.013062 
L 153.235791 -75.266328 
L 153.772509 -75.374899 
L 154.309227 -75.374899 
L 154.845945 -75.302518 
L 155.382663 -75.230203 
L 155.919381 -75.480884 
L 156.456099 -75.328175 
L 156.992817 -75.387824 
L 157.529535 -74.67701 
L 158.066253 -74.061778 
L 158.602971 -73.981578 
L 159.139689 -73.958248 
L 159.676407 -73.885803 
L 160.213125 -74.335724 
L 160.749843 -74.087628 
L 161.286561 -74.072053 
L 161.823279 -74.048723 
L 162.359997 -74.046268 
L 162.896715 -73.844572 
L 163.433433 -73.932527 
L 163.970151 -73.53185 
L 164.506869 -73.229081 
L 165.043587 -72.882948 
L 165.580305 -72.952743 
L 166.117023 -72.479686 
L 166.653741 -72.753633 
L 167.190459 -72.849084 
L 167.727177 -72.970774 
L 168.263895 -72.929413 
L 168.800613 -72.515876 
L 169.337331 -73.730896 
L 169.874049 -73.704981 
L 170.410767 -73.743821 
L 170.947485 -73.710151 
L 171.484203 -73.805861 
L 172.020921 -73.966132 
L 172.557639 -74.131508 
L 173.094357 -74.072118 
L 173.631075 -74.193613 
L 174.167793 -74.188314 
L 174.704511 -73.924513 
L 175.241229 -73.852327 
L 175.777947 -73.764372 
L 176.314665 -74.069468 
L 176.851383 -74.165178 
L 177.388101 -74.216814 
L 177.924819 -74.263344 
L 178.461537 -74.183208 
L 178.998255 -74.27866 
L 179.534973 -74.229739 
L 180.071691 -74.193419 
L 180.608409 -73.717971 
L 181.145127 -73.668791 
L 181.681845 -73.619676 
L 182.218563 -75.483404 
L 182.755281 -75.196339 
L 183.291999 -75.173268 
L 183.828717 -75.129387 
L 184.365435 -75.162992 
L 184.902153 -75.439395 
L 185.438871 -75.431575 
L 185.975589 -75.483469 
L 186.512307 -74.694976 
L 187.049025 -74.671776 
L 187.585743 -74.581365 
L 188.122461 -74.697496 
L 188.659179 -74.842322 
L 189.195897 -74.863131 
L 189.732615 -74.617426 
L 190.269333 -74.542396 
L 190.806051 -74.544981 
L 191.342769 -74.811302 
L 191.879487 -74.878576 
L 192.416205 -74.958583 
L 192.952923 -75.072517 
L 193.489641 -74.674361 
L 194.026359 -74.630286 
L 194.563078 -74.622725 
L 195.099796 -75.134557 
L 195.636514 -75.038912 
L 196.173232 -75.224839 
L 196.70995 -75.475714 
L 197.246668 -75.754895 
L 197.783386 -75.80666 
L 198.320104 -75.964281 
L 198.856822 -75.956397 
L 199.39354 -75.878782 
L 199.930258 -75.537625 
L 200.466976 -75.346528 
L 201.003694 -75.338644 
L 201.540412 -75.318093 
L 202.07713 -75.480949 
L 202.613848 -75.509319 
L 203.150566 -75.532584 
L 203.687284 -75.470544 
L 204.224002 -75.465439 
L 204.76072 -75.571295 
L 205.297438 -75.633464 
L 205.834156 -75.424014 
L 206.370874 -75.599795 
L 206.907592 -75.615369 
L 207.44431 -75.87904 
L 207.981028 -75.795997 
L 208.517746 -76.062512 
L 209.054464 -75.997757 
L 209.591182 -76.083256 
L 210.1279 -76.054627 
L 210.664618 -76.408838 
L 211.201336 -76.48626 
L 211.738054 -76.458018 
L 212.274772 -76.538089 
L 212.81149 -76.535633 
L 213.348208 -76.817399 
L 213.884926 -76.408968 
L 214.421644 -76.230537 
L 214.958362 -76.364829 
L 215.49508 -76.372778 
L 216.031798 -76.398563 
L 216.568516 -76.160807 
L 217.105234 -76.569174 
L 217.641952 -76.292578 
L 218.17867 -76.442444 
L 218.715388 -76.450199 
L 219.252106 -76.502028 
L 219.788824 -76.680394 
L 220.325542 -76.700945 
L 220.86226 -76.646595 
L 221.398978 -76.543388 
L 221.935696 -76.626109 
L 222.472414 -76.638969 
L 223.009132 -76.036661 
L 223.54585 -76.047066 
L 224.082568 -76.256194 
L 224.619286 -75.917751 
L 225.156004 -75.907411 
L 225.692722 -75.912581 
L 226.22944 -75.87387 
L 226.766158 -75.886214 
L 227.302876 -75.842786 
L 227.839594 -75.909996 
L 228.376312 -75.705845 
L 228.91303 -75.605029 
L 229.449748 -75.646389 
L 229.986466 -75.736671 
L 230.523184 -75.491095 
L 231.059902 -75.46783 
L 231.59662 -75.5015 
L 232.133338 -75.496394 
L 232.670056 -75.235373 
L 233.206774 -74.961232 
L 233.743492 -75.173074 
L 234.28021 -75.025987 
L 234.816928 -75.204353 
L 235.353646 -74.930341 
L 235.890364 -74.906947 
L 236.427082 -75.033677 
L 236.9638 -74.971637 
L 237.500518 -75.196533 
L 238.037236 -75.411153 
L 238.573954 -74.979392 
L 239.110672 -75.150003 
L 239.64739 -75.111292 
L 240.184108 -75.038783 
L 240.720826 -74.992382 
L 241.257544 -74.950957 
L 241.794262 -74.870886 
L 242.33098 -75.186257 
L 242.867698 -75.160407 
L 243.404416 -75.092874 
L 243.404416 -75.936105 
L 243.404416 -75.936105 
L 242.867698 -75.977335 
L 242.33098 -76.021345 
L 241.794262 -75.685294 
L 241.257544 -75.721419 
L 240.720826 -75.81965 
L 240.184108 -75.87652 
L 239.64739 -75.96958 
L 239.110672 -75.972165 
L 238.573954 -75.775769 
L 238.037236 -76.233187 
L 237.500518 -76.054821 
L 236.9638 -75.819714 
L 236.427082 -75.879234 
L 235.890364 -75.703324 
L 235.353646 -75.729368 
L 234.816928 -76.016046 
L 234.28021 -75.848667 
L 233.743492 -75.977335 
L 233.206774 -75.781133 
L 232.670056 -76.085841 
L 232.133338 -76.365216 
L 231.59662 -76.336587 
L 231.059902 -76.251734 
L 230.523184 -76.292707 
L 229.986466 -76.680459 
L 229.449748 -76.548688 
L 228.91303 -76.520188 
L 228.376312 -76.626238 
L 227.839594 -76.789223 
L 227.302876 -76.755682 
L 226.766158 -76.781274 
L 226.22944 -76.786509 
L 225.692722 -76.796784 
L 225.156004 -76.871685 
L 224.619286 -76.876919 
L 224.082568 -77.166441 
L 223.54585 -76.98032 
L 223.009132 -76.998415 
L 222.472414 -77.543981 
L 221.935696 -77.603243 
L 221.398978 -77.494672 
L 220.86226 -77.52104 
L 220.325542 -77.598073 
L 219.788824 -77.634328 
L 219.252106 -77.419901 
L 218.715388 -77.368007 
L 218.17867 -77.357667 
L 217.641952 -77.181951 
L 217.105234 -77.432697 
L 216.568516 -77.063234 
L 216.031798 -77.326711 
L 215.49508 -77.308552 
L 214.958362 -77.337051 
L 214.421644 -77.104336 
L 213.884926 -77.293429 
L 213.348208 -77.711943 
L 212.81149 -77.409367 
L 212.274772 -77.412017 
L 211.738054 -77.362901 
L 211.201336 -77.388752 
L 210.664618 -77.267385 
L 210.1279 -76.941609 
L 209.591182 -76.941674 
L 209.054464 -76.856175 
L 208.517746 -76.95964 
L 207.981028 -76.719492 
L 207.44431 -76.763244 
L 206.907592 -76.507327 
L 206.370874 -76.502093 
L 205.834156 -76.233316 
L 205.297438 -76.564133 
L 204.76072 -76.517732 
L 204.224002 -76.362438 
L 203.687284 -76.331482 
L 203.150566 -76.391067 
L 202.613848 -76.424542 
L 202.07713 -76.414202 
L 201.540412 -76.204881 
L 201.003694 -76.210245 
L 200.466976 -76.23086 
L 199.930258 -76.445223 
L 199.39354 -76.765699 
L 198.856822 -76.846028 
L 198.320104 -76.902834 
L 197.783386 -76.758073 
L 197.246668 -76.714128 
L 196.70995 -76.321142 
L 196.173232 -76.081059 
L 195.636514 -75.972165 
L 195.099796 -76.016046 
L 194.563078 -75.470867 
L 194.026359 -75.542989 
L 193.489641 -75.548159 
L 192.952923 -75.954006 
L 192.416205 -75.876455 
L 191.879487 -75.783395 
L 191.342769 -75.757545 
L 190.806051 -75.393188 
L 190.269333 -75.395837 
L 189.732615 -75.520112 
L 189.195897 -75.711144 
L 188.659179 -75.742035 
L 188.122461 -75.587063 
L 187.585743 -75.478558 
L 187.049025 -75.561084 
L 186.512307 -75.563734 
L 185.975589 -76.329026 
L 185.438871 -76.292771 
L 184.902153 -76.259231 
L 184.365435 -76.036985 
L 183.828717 -75.995495 
L 183.291999 -76.049716 
L 182.755281 -76.054886 
L 182.218563 -76.440052 
L 181.681845 -74.467947 
L 181.145127 -74.540457 
L 180.608409 -74.638235 
L 180.071691 -75.049252 
L 179.534973 -75.150197 
L 178.998255 -75.170812 
L 178.461537 -75.080337 
L 177.924819 -75.121697 
L 177.388101 -75.064956 
L 176.851383 -75.023466 
L 176.314665 -74.922651 
L 175.777947 -74.628218 
L 175.241229 -74.806325 
L 174.704511 -74.819186 
L 174.167793 -75.093197 
L 173.631075 -75.062242 
L 173.094357 -74.963946 
L 172.557639 -74.989797 
L 172.020921 -74.821965 
L 171.484203 -74.66415 
L 170.947485 -74.565984 
L 170.410767 -74.56844 
L 169.874049 -74.560879 
L 169.337331 -74.6098 
L 168.800613 -73.38192 
L 168.263895 -73.77762 
L 167.727177 -73.852392 
L 167.190459 -73.681781 
L 166.653741 -73.578381 
L 166.117023 -73.304563 
L 165.580305 -73.782661 
L 165.043587 -73.725855 
L 164.506869 -74.056608 
L 163.970151 -74.338438 
L 163.433433 -74.790815 
L 162.896715 -74.63565 
L 162.359997 -74.88394 
L 161.823279 -74.850271 
L 161.286561 -74.938161 
L 160.749843 -74.958776 
L 160.213125 -75.189166 
L 159.676407 -74.700405 
L 159.139689 -74.85305 
L 158.602971 -74.894151 
L 158.066253 -74.948436 
L 157.529535 -75.556043 
L 156.992817 -76.310737 
L 156.456099 -76.199646 
L 155.919381 -76.398692 
L 155.382663 -76.104001 
L 154.845945 -76.191891 
L 154.309227 -76.233316 
L 153.772509 -76.251476 
L 153.235791 -76.191891 
L 152.699073 -75.935975 
L 152.162355 -75.930999 
L 151.625637 -75.8687 
L 151.088919 -75.064827 
L 150.552201 -75.064827 
L 150.015483 -75.062177 
L 149.478765 -75.97475 
L 148.942047 -76.176381 
L 148.405329 -76.287537 
L 147.868611 -76.362438 
L 147.331893 -76.494273 
L 146.795175 -76.197126 
L 146.258457 -75.726589 
L 145.721739 -76.03175 
L 145.185021 -76.220456 
L 144.648303 -76.390937 
L 144.111585 -76.540933 
L 143.574867 -76.398692 
L 143.038149 -75.920465 
L 142.501431 -75.91788 
L 141.964713 -75.742164 
L 141.427995 -76.284887 
L 140.891277 -75.889445 
L 140.354559 -75.9774 
L 139.817841 -75.938625 
L 139.281123 -76.414332 
L 138.744405 -78.241805 
L 138.207687 -78.270305 
L 137.670969 -78.138469 
L 137.134251 -78.019494 
L 136.597533 -77.807588 
L 136.060815 -78.544381 
L 135.524097 -78.456749 
L 134.987378 -78.518401 
L 134.45066 -78.453712 
L 133.913942 -78.466701 
L 133.377224 -77.760993 
L 132.840506 -78.035069 
L 132.303788 -77.934383 
L 131.76707 -77.476771 
L 131.230352 -77.564468 
L 130.693634 -79.816077 
L 130.156916 -79.35336 
L 129.620198 -79.066359 
L 129.08348 -79.079414 
L 128.546762 -79.053757 
L 128.010044 -79.009618 
L 127.473326 -78.898398 
L 126.936608 -79.28867 
L 126.39989 -79.30935 
L 125.863172 -80.702671 
L 125.326454 -80.715596 
L 124.789736 -80.635526 
L 124.253018 -80.529476 
L 123.7163 -80.077163 
L 123.179582 -80.048793 
L 122.642864 -80.113483 
L 122.106146 -80.087503 
L 121.569428 -80.221859 
L 121.03271 -80.511445 
L 120.495992 -80.51655 
L 119.959274 -80.46233 
L 119.422556 -80.599594 
L 118.885838 -80.320219 
L 118.34912 -80.366684 
L 117.812402 -80.141724 
L 117.275684 -80.064174 
L 116.738966 -80.028048 
L 116.202248 -79.888393 
L 115.66553 -79.968722 
L 115.128812 -80.377024 
L 114.592094 -80.221924 
L 114.055376 -79.767026 
L 113.518658 -80.097779 
L 112.98194 -81.411029 
L 112.445222 -81.160283 
L 111.908504 -81.134433 
L 111.371786 -80.860486 
L 110.835068 -80.76749 
L 110.29835 -80.594101 
L 109.761632 -80.51151 
L 109.224914 -80.278859 
L 108.688196 -79.976412 
L 108.151478 -79.839278 
L 107.61476 -79.26282 
L 107.078042 -80.638304 
L 106.541324 -79.655806 
L 106.004606 -79.648051 
L 105.467888 -79.637647 
L 104.93117 -79.666211 
L 104.394452 -79.823897 
L 103.857734 -80.943142 
L 103.321016 -80.932737 
L 102.784298 -80.945792 
L 102.24758 -81.155113 
L 101.710862 -80.788041 
L 101.174144 -80.601856 
L 100.637426 -80.490894 
L 100.100708 -80.495935 
L 99.56399 -80.475255 
L 99.027272 -80.038323 
L 98.490554 -80.47002 
L 97.953836 -80.51151 
L 97.417118 -80.136554 
L 96.8804 -79.262885 
L 96.343682 -79.578191 
L 95.806964 -79.655742 
L 95.270246 -78.952877 
L 94.733528 -78.696767 
L 94.19681 -78.657992 
L 93.660092 -78.606356 
L 93.123374 -78.169425 
L 92.586656 -78.735542 
L 92.049938 -79.213705 
L 91.51322 -79.345605 
L 90.976502 -81.325724 
L 90.439784 -81.462729 
L 89.903066 -81.594565 
L 89.366348 -80.881037 
L 88.82963 -80.958587 
L 88.292912 -80.994778 
L 87.756194 -80.141853 
L 87.219476 -80.273689 
L 86.682758 -79.981518 
L 86.14604 -80.116003 
L 85.609322 -79.704922 
L 85.072604 -79.454175 
L 84.535886 -80.594165 
L 83.999168 -80.669131 
L 83.46245 -82.92591 
L 82.925732 -83.049861 
L 82.389014 -83.049926 
L 81.852296 -83.285162 
L 81.315578 -83.815025 
L 80.77886 -83.90033 
L 80.242142 -83.786654 
L 79.705424 -83.81244 
L 79.168706 -83.323937 
L 78.631988 -83.044691 
L 78.09527 -83.88482 
L 77.558552 -84.02971 
L 77.021834 -83.851279 
L 76.485116 -84.955015 
L 75.948397 -85.110115 
L 75.411679 -85.107595 
L 74.874961 -84.712088 
L 74.338243 -87.39533 
L 73.801525 -88.579265 
L 73.264807 -88.682665 
L 72.728089 -88.64906 
L 72.191371 -90.112241 
L 71.654653 -90.029456 
L 71.117935 -90.577479 
L 70.581217 -92.753993 
L 70.044499 -92.239641 
L 69.507781 -96.481579 
L 68.971063 -96.80994 
L 68.434345 -98.562578 
L 67.897627 -100.258281 
L 67.360909 -101.509491 
L 66.824191 -107.858213 
L 66.287473 -110.337239 
L 65.750755 -110.368324 
L 65.214037 -109.840917 
L 64.677319 -109.776356 
L 64.140601 -113.976935 
L 63.603883 -114.700867 
L 63.067165 -115.908003 
L 62.530447 -124.722956 
L 61.993729 -125.255403 
L 61.457011 -125.203703 
L 60.920293 -128.471157 
L 60.383575 -128.944279 
L 59.846857 -126.8943 
L 59.310139 -129.114825 
L 58.773421 -129.399111 
L 58.236703 -130.042844 
L 57.699985 -134.807149 
L 57.163267 -134.013486 
L 56.626549 -135.176676 
L 56.089831 -127.095931 
L 55.553113 -136.474352 
L 55.016395 -136.691493 
L 54.479677 -136.505307 
L 53.942959 -137.565226 
L 53.406241 -142.714569 
L 52.869523 -145.216924 
L 52.332805 -145.396388 
L 51.796087 -145.69528 
L 51.259369 -151.415652 
L 50.722651 -145.462435 
L 50.185933 -146.504195 
L 49.649215 -152.754817 
L 49.112497 -149.856954 
L 48.575779 -155.401803 
L 48.039061 -150.242121 
L 47.502343 -176.017461 
z
" style="stroke: #dd8452; stroke-opacity: 0.2"/>
    </defs>
    <g clip-path="url(#pdfff73b7f8)">
     <use xlink:href="#m2184fd4387" x="0" y="188.39952" style="fill: #dd8452; fill-opacity: 0.2; stroke: #dd8452; stroke-opacity: 0.2"/>
    </g>
   </g>
   <g id="PolyCollection_3">
    <defs>
     <path id="m7bfc7c3b89" d="M 47.502343 -167.261835 
L 47.502343 -166.726608 
L 48.039061 -166.250966 
L 48.575779 -164.425948 
L 49.112497 -162.135693 
L 49.649215 -151.89627 
L 50.185933 -155.140588 
L 50.722651 -156.71221 
L 51.259369 -150.691784 
L 51.796087 -150.714984 
L 52.332805 -151.288857 
L 52.869523 -151.764499 
L 53.406241 -149.71465 
L 53.942959 -154.401275 
L 54.479677 -149.321792 
L 55.016395 -141.339278 
L 55.553113 -141.902746 
L 56.089831 -141.140103 
L 56.626549 -138.901612 
L 57.163267 -138.022709 
L 57.699985 -124.647667 
L 58.236703 -119.015122 
L 58.773421 -113.374627 
L 59.310139 -113.413402 
L 59.846857 -112.707694 
L 60.383575 -108.325971 
L 60.920293 -102.499485 
L 61.457011 -103.334444 
L 61.993729 -103.169003 
L 62.530447 -103.303424 
L 63.067165 -99.929984 
L 63.603883 -92.205971 
L 64.140601 -91.065852 
L 64.677319 -93.14168 
L 65.214037 -93.601877 
L 65.750755 -98.016947 
L 66.287473 -98.029936 
L 66.824191 -98.040212 
L 67.360909 -101.842828 
L 67.897627 -98.285659 
L 68.434345 -98.417753 
L 68.971063 -95.020983 
L 69.507781 -95.064993 
L 70.044499 -95.18636 
L 70.581217 -96.902742 
L 71.117935 -95.064993 
L 71.654653 -94.938328 
L 72.191371 -92.10257 
L 72.728089 -89.036683 
L 73.264807 -88.300019 
L 73.801525 -86.392216 
L 74.338243 -84.996246 
L 74.874961 -84.97815 
L 75.411679 -83.94686 
L 75.948397 -84.063121 
L 76.485116 -84.562028 
L 77.021834 -84.298357 
L 77.558552 -84.329377 
L 78.09527 -84.114821 
L 78.631988 -84.463862 
L 79.168706 -84.282912 
L 79.705424 -84.481828 
L 80.242142 -84.476788 
L 80.77886 -82.845322 
L 81.315578 -82.243144 
L 81.852296 -83.199727 
L 82.389014 -82.457894 
L 82.925732 -83.168643 
L 83.46245 -83.109252 
L 83.999168 -82.514764 
L 84.535886 -82.998161 
L 85.072604 -82.64395 
L 85.609322 -82.607695 
L 86.14604 -83.525374 
L 86.682758 -84.468968 
L 87.219476 -84.535984 
L 87.756194 -84.008901 
L 88.292912 -83.796736 
L 88.82963 -83.615591 
L 89.366348 -83.303192 
L 89.903066 -83.665094 
L 90.439784 -83.719315 
L 90.976502 -83.76326 
L 91.51322 -84.383727 
L 92.049938 -84.303592 
L 92.586656 -84.538763 
L 93.123374 -83.455644 
L 93.660092 -81.082603 
L 94.19681 -80.309685 
L 94.733528 -80.079619 
L 95.270246 -79.738462 
L 95.806964 -79.660847 
L 96.343682 -79.823638 
L 96.8804 -79.867648 
L 97.417118 -79.691867 
L 97.953836 -79.728122 
L 98.490554 -79.660912 
L 99.027272 -79.751387 
L 99.56399 -80.454381 
L 100.100708 -80.806007 
L 100.637426 -81.160218 
L 101.174144 -81.077433 
L 101.710862 -81.108453 
L 102.24758 -81.191109 
L 102.784298 -80.630291 
L 103.321016 -80.679342 
L 103.857734 -80.891119 
L 104.394452 -80.779834 
L 104.93117 -80.539816 
L 105.467888 -80.777572 
L 106.004606 -81.054168 
L 106.541324 -81.064314 
L 107.078042 -80.136425 
L 107.61476 -80.100299 
L 108.151478 -79.808064 
L 108.688196 -79.919348 
L 109.224914 -78.934524 
L 109.761632 -79.531532 
L 110.29835 -79.808193 
L 110.835068 -79.743567 
L 111.371786 -79.735812 
L 111.908504 -78.877589 
L 112.445222 -78.988744 
L 112.98194 -78.939694 
L 113.518658 -79.172022 
L 114.055376 -78.350053 
L 114.592094 -78.275346 
L 115.128812 -77.321347 
L 115.66553 -77.254202 
L 116.202248 -77.137876 
L 116.738966 -77.551413 
L 117.275684 -77.475996 
L 117.812402 -77.251552 
L 118.34912 -77.212842 
L 118.885838 -77.572158 
L 119.422556 -77.659984 
L 119.959274 -77.621338 
L 120.495992 -77.97277 
L 121.03271 -77.429983 
L 121.569428 -77.629028 
L 122.106146 -78.055555 
L 122.642864 -78.088773 
L 123.179582 -78.528548 
L 123.7163 -78.502633 
L 124.253018 -78.97317 
L 124.789736 -79.443706 
L 125.326454 -79.301466 
L 125.863172 -79.350646 
L 126.39989 -79.298881 
L 126.936608 -79.118059 
L 127.473326 -80.201114 
L 128.010044 -80.24758 
L 128.546762 -80.420905 
L 129.08348 -80.439 
L 129.620198 -80.637787 
L 130.156916 -80.206155 
L 130.693634 -80.720766 
L 131.230352 -81.217088 
L 131.76707 -80.963628 
L 132.303788 -80.645672 
L 132.840506 -80.614652 
L 133.377224 -81.105933 
L 133.913942 -79.779693 
L 134.45066 -79.792683 
L 134.987378 -79.764312 
L 135.524097 -79.965943 
L 136.060815 -80.05099 
L 136.597533 -80.017643 
L 137.134251 -80.061524 
L 137.670969 -80.13901 
L 138.207687 -79.529076 
L 138.744405 -79.554732 
L 139.281123 -79.546784 
L 139.817841 -79.609147 
L 140.354559 -79.417791 
L 140.891277 -79.368676 
L 141.427995 -79.495471 
L 141.964713 -79.433366 
L 142.501431 -79.30935 
L 143.038149 -79.11793 
L 143.574867 -79.280721 
L 144.111585 -79.275745 
L 144.648303 -79.027584 
L 145.185021 -78.939694 
L 145.721739 -77.972641 
L 146.258457 -77.830659 
L 146.795175 -77.861615 
L 147.331893 -77.809915 
L 147.868611 -77.897546 
L 148.405329 -77.740119 
L 148.942047 -77.967665 
L 149.478765 -78.130521 
L 150.015483 -78.13317 
L 150.552201 -78.06331 
L 151.088919 -78.037396 
L 151.625637 -78.125351 
L 152.162355 -77.714269 
L 152.699073 -77.931539 
L 153.235791 -77.85373 
L 153.772509 -78.161605 
L 154.309227 -77.977876 
L 154.845945 -77.92889 
L 155.382663 -78.04263 
L 155.919381 -77.9961 
L 156.456099 -77.952155 
L 156.992817 -77.461003 
L 157.529535 -77.533189 
L 158.066253 -77.316307 
L 158.602971 -77.277402 
L 159.139689 -77.236171 
L 159.676407 -77.623858 
L 160.213125 -77.703994 
L 160.749843 -77.786649 
L 161.286561 -77.274946 
L 161.823279 -77.285222 
L 162.359997 -76.607755 
L 162.896715 -77.052636 
L 163.433433 -76.776039 
L 163.970151 -76.863865 
L 164.506869 -76.85611 
L 165.043587 -76.827675 
L 165.580305 -76.620874 
L 166.117023 -76.504419 
L 166.653741 -76.132307 
L 167.190459 -75.788565 
L 167.727177 -75.886731 
L 168.263895 -75.881625 
L 168.800613 -75.909931 
L 169.337331 -75.69292 
L 169.874049 -75.723875 
L 170.410767 -75.770405 
L 170.947485 -75.519595 
L 171.484203 -75.66694 
L 172.020921 -75.62306 
L 172.557639 -75.71612 
L 173.094357 -76.137477 
L 173.631075 -75.550744 
L 174.167793 -75.576594 
L 174.704511 -75.222318 
L 175.241229 -74.968923 
L 175.777947 -74.969117 
L 176.314665 -74.850141 
L 176.851383 -75.206873 
L 177.388101 -74.780346 
L 177.924819 -73.963483 
L 178.461537 -73.960898 
L 178.998255 -73.870487 
L 179.534973 -73.898857 
L 180.071691 -73.816137 
L 180.608409 -73.808446 
L 181.145127 -73.834103 
L 181.681845 -73.857497 
L 182.218563 -73.885997 
L 182.755281 -73.816202 
L 183.291999 -73.782532 
L 183.828717 -73.767086 
L 184.365435 -74.167763 
L 184.902153 -74.012662 
L 185.438871 -75.426663 
L 185.975589 -75.281838 
L 186.512307 -75.586934 
L 187.049025 -76.003056 
L 187.585743 -76.072916 
L 188.122461 -76.044093 
L 188.659179 -76.052172 
L 189.195897 -75.356739 
L 189.732615 -75.491095 
L 190.269333 -75.47035 
L 190.806051 -75.82734 
L 191.342769 -75.331018 
L 191.879487 -75.615305 
L 192.416205 -75.403334 
L 192.952923 -75.411089 
L 193.489641 -75.421429 
L 194.026359 -75.377548 
L 194.563078 -75.380004 
L 195.099796 -75.263614 
L 195.636514 -75.604965 
L 196.173232 -75.612203 
L 196.70995 -75.66442 
L 197.246668 -75.475714 
L 197.783386 -75.398164 
L 198.320104 -75.248168 
L 198.856822 -75.162928 
L 199.39354 -75.062177 
L 199.930258 -75.010412 
L 200.466976 -75.437004 
L 201.003694 -75.62041 
L 201.540412 -75.703195 
L 202.07713 -75.72129 
L 202.613848 -75.67993 
L 203.150566 -75.871285 
L 203.687284 -75.858166 
L 204.224002 -75.941016 
L 204.76072 -76.018566 
L 205.297438 -75.876326 
L 205.834156 -75.865986 
L 206.370874 -75.925506 
L 206.907592 -75.87387 
L 207.44431 -75.63075 
L 207.981028 -75.403334 
L 208.517746 -75.467959 
L 209.054464 -75.881432 
L 209.591182 -75.873806 
L 210.1279 -75.902176 
L 210.664618 -75.941016 
L 211.201336 -76.000277 
L 211.738054 -76.217354 
L 212.274772 -76.129787 
L 212.81149 -75.995237 
L 213.348208 -76.741788 
L 213.884926 -77.068016 
L 214.421644 -76.998286 
L 214.958362 -76.9208 
L 215.49508 -76.713934 
L 216.031798 -76.703271 
L 216.568516 -76.785992 
L 217.105234 -76.654285 
L 217.641952 -76.318428 
L 218.17867 -76.649374 
L 218.715388 -76.50946 
L 219.252106 -76.584684 
L 219.788824 -76.504613 
L 220.325542 -76.509654 
L 220.86226 -76.535569 
L 221.398978 -76.432168 
L 221.935696 -76.535569 
L 222.472414 -75.759871 
L 223.009132 -75.400684 
L 223.54585 -75.372184 
L 224.082568 -75.072517 
L 224.619286 -75.064697 
L 225.156004 -75.111292 
L 225.692722 -74.850077 
L 226.22944 -74.785387 
L 226.766158 -74.821771 
L 227.302876 -74.736466 
L 227.839594 -75.136819 
L 228.376312 -75.235114 
L 228.91303 -75.50919 
L 229.449748 -75.524894 
L 229.986466 -75.408504 
L 230.523184 -75.58687 
L 231.059902 -75.77047 
L 231.59662 -75.925506 
L 232.133338 -76.289863 
L 232.670056 -76.326183 
L 233.206774 -76.468294 
L 233.743492 -76.106392 
L 234.28021 -75.801425 
L 234.816928 -75.858037 
L 235.353646 -75.966931 
L 235.890364 -75.946121 
L 236.427082 -76.054692 
L 236.9638 -75.579115 
L 237.500518 -75.558499 
L 238.037236 -75.504214 
L 238.573954 -75.501629 
L 239.110672 -75.460204 
L 239.64739 -75.116333 
L 240.184108 -75.077622 
L 240.720826 -75.005177 
L 241.257544 -74.842386 
L 241.794262 -75.131972 
L 242.33098 -75.147418 
L 242.867698 -75.038847 
L 243.404416 -74.997487 
L 243.404416 -75.78598 
L 243.404416 -75.78598 
L 242.867698 -75.81183 
L 242.33098 -75.935975 
L 241.794262 -75.972165 
L 241.257544 -75.633529 
L 240.720826 -75.814609 
L 240.184108 -75.886795 
L 239.64739 -75.902629 
L 239.110672 -76.282431 
L 238.573954 -76.321142 
L 238.037236 -76.380533 
L 237.500518 -76.365281 
L 236.9638 -76.442702 
L 236.427082 -76.931269 
L 235.890364 -76.789029 
L 235.353646 -76.843314 
L 234.816928 -76.706244 
L 234.28021 -76.644268 
L 233.743492 -76.944194 
L 233.206774 -77.326905 
L 232.670056 -77.174131 
L 232.133338 -77.145761 
L 231.59662 -76.786509 
L 231.059902 -76.574667 
L 230.523184 -76.406383 
L 229.986466 -76.220327 
L 229.449748 -76.323662 
L 228.91303 -76.336652 
L 228.376312 -76.065161 
L 227.839594 -75.974944 
L 227.302876 -75.628359 
L 226.766158 -75.674954 
L 226.22944 -75.690399 
L 225.692722 -75.698154 
L 225.156004 -76.000536 
L 224.619286 -75.941145 
L 224.082568 -75.97488 
L 223.54585 -76.284952 
L 223.009132 -76.313322 
L 222.472414 -76.641813 
L 221.935696 -77.414602 
L 221.398978 -77.308616 
L 220.86226 -77.443037 
L 220.325542 -77.44601 
L 219.788824 -77.396442 
L 219.252106 -77.486982 
L 218.715388 -77.391337 
L 218.17867 -77.536097 
L 217.641952 -77.220661 
L 217.105234 -77.551543 
L 216.568516 -77.748133 
L 216.031798 -77.649902 
L 215.49508 -77.691198 
L 214.958362 -77.885009 
L 214.421644 -77.949699 
L 213.884926 -77.990995 
L 213.348208 -77.714463 
L 212.81149 -76.952143 
L 212.274772 -77.143111 
L 211.738054 -77.241406 
L 211.201336 -77.065884 
L 210.664618 -76.990595 
L 210.1279 -76.858954 
L 209.591182 -76.825413 
L 209.054464 -76.830389 
L 208.517746 -76.473658 
L 207.981028 -76.401213 
L 207.44431 -76.623782 
L 206.907592 -76.910525 
L 206.370874 -76.916147 
L 205.834156 -76.845899 
L 205.297438 -76.866644 
L 204.76072 -76.980514 
L 204.224002 -76.897535 
L 203.687284 -76.85359 
L 203.150566 -76.879569 
L 202.613848 -76.670118 
L 202.07713 -76.672639 
L 201.540412 -76.667792 
L 201.003694 -76.569238 
L 200.466976 -76.416787 
L 199.930258 -75.96706 
L 199.39354 -76.016111 
L 198.856822 -76.109365 
L 198.320104 -76.176511 
L 197.783386 -76.331417 
L 197.246668 -76.416787 
L 196.70995 -76.535698 
L 196.173232 -76.496858 
L 195.636514 -76.507263 
L 195.099796 -76.197061 
L 194.563078 -76.277261 
L 194.026359 -76.271962 
L 193.489641 -76.313387 
L 192.952923 -76.323662 
L 192.416205 -76.315907 
L 191.879487 -76.512368 
L 191.342769 -76.243592 
L 190.806051 -76.747604 
L 190.269333 -76.429842 
L 189.732615 -76.406835 
L 189.195897 -76.23603 
L 188.659179 -76.936375 
L 188.122461 -77.001065 
L 187.585743 -76.98549 
L 187.049025 -76.882154 
L 186.512307 -76.502028 
L 185.975589 -76.140191 
L 185.438871 -76.318557 
L 184.902153 -74.811495 
L 184.365435 -75.002786 
L 183.828717 -74.643405 
L 183.291999 -74.68748 
L 182.755281 -74.70286 
L 182.218563 -74.75204 
L 181.681845 -74.723605 
L 181.145127 -74.69 
L 180.608409 -74.648575 
L 180.071691 -74.64599 
L 179.534973 -74.744221 
L 178.998255 -74.682245 
L 178.461537 -74.80891 
L 177.924819 -74.806584 
L 177.388101 -75.705974 
L 176.851383 -76.137542 
L 176.314665 -75.791215 
L 175.777947 -75.863595 
L 175.241229 -75.925571 
L 174.704511 -76.132372 
L 174.167793 -76.494273 
L 173.631075 -76.414267 
L 173.094357 -77.014119 
L 172.557639 -76.610599 
L 172.020921 -76.483933 
L 171.484203 -76.517538 
L 170.947485 -76.385896 
L 170.410767 -76.633864 
L 169.874049 -76.548623 
L 169.337331 -76.551273 
L 168.800613 -76.714193 
L 168.263895 -76.753162 
L 167.727177 -76.708829 
L 167.190459 -76.682979 
L 166.653741 -76.957055 
L 166.117023 -77.324191 
L 165.580305 -77.404197 
L 165.043587 -77.665348 
L 164.506869 -77.665348 
L 163.970151 -77.706708 
L 163.433433 -77.621403 
L 162.896715 -77.885074 
L 162.359997 -77.440581 
L 161.823279 -78.10997 
L 161.286561 -78.099759 
L 160.749843 -78.585547 
L 160.213125 -78.484861 
L 159.676407 -78.433161 
L 159.139689 -78.029834 
L 158.602971 -78.081535 
L 158.066253 -78.109905 
L 157.529535 -78.311601 
L 156.992817 -78.319356 
L 156.456099 -78.813028 
L 155.919381 -78.893228 
L 155.382663 -78.880368 
L 154.845945 -78.815678 
L 154.309227 -78.867378 
L 153.772509 -79.019958 
L 153.235791 -78.678672 
L 152.699073 -78.766498 
L 152.162355 -78.577921 
L 151.625637 -78.968323 
L 151.088919 -78.988809 
L 150.552201 -78.973622 
L 150.015483 -79.045744 
L 149.478765 -79.027584 
L 148.942047 -78.947578 
L 148.405329 -78.707172 
L 147.868611 -78.862273 
L 147.331893 -78.748403 
L 146.795175 -78.774253 
L 146.258457 -78.766563 
L 145.721739 -78.877653 
L 145.185021 -79.831587 
L 144.648303 -79.888651 
L 144.111585 -80.183472 
L 143.574867 -80.196074 
L 143.038149 -80.028113 
L 142.501431 -80.255529 
L 141.964713 -80.330494 
L 141.427995 -80.384715 
L 140.891277 -80.250811 
L 140.354559 -80.273624 
L 139.817841 -80.555326 
L 139.281123 -80.408045 
L 138.744405 -80.449534 
L 138.207687 -80.38995 
L 137.670969 -80.974097 
L 137.134251 -80.945662 
L 136.597533 -80.899197 
L 136.060815 -80.909666 
L 135.524097 -80.855187 
L 134.987378 -80.58641 
L 134.45066 -80.671716 
L 133.913942 -80.674236 
L 133.377224 -81.958987 
L 132.840506 -81.462665 
L 132.303788 -81.519599 
L 131.76707 -81.829995 
L 131.230352 -82.116866 
L 130.693634 -81.65919 
L 130.156916 -81.038787 
L 129.620198 -81.553205 
L 129.08348 -81.369669 
L 128.546762 -81.312799 
L 128.010044 -81.113753 
L 127.473326 -81.105998 
L 126.936608 -80.103013 
L 126.39989 -80.278859 
L 125.863172 -80.3356 
L 125.326454 -80.289134 
L 124.789736 -80.423619 
L 124.253018 -80.082269 
L 123.7163 -79.560096 
L 123.179582 -79.578256 
L 122.642864 -79.151923 
L 122.106146 -79.110434 
L 121.569428 -78.712342 
L 121.03271 -78.43846 
L 120.495992 -79.079349 
L 119.959274 -78.717447 
L 119.422556 -78.660642 
L 118.885838 -78.663162 
L 118.34912 -78.347855 
L 117.812402 -78.311601 
L 117.275684 -78.513619 
L 116.738966 -78.642482 
L 116.202248 -78.184935 
L 115.66553 -78.332345 
L 115.128812 -78.358131 
L 114.592094 -79.4207 
L 114.055376 -79.438859 
L 113.518658 -80.165054 
L 112.98194 -79.934988 
L 112.445222 -79.996963 
L 111.908504 -79.945328 
L 111.371786 -80.800966 
L 110.835068 -80.873347 
L 110.29835 -80.93306 
L 109.761632 -80.736341 
L 109.224914 -80.048663 
L 108.688196 -81.178378 
L 108.151478 -81.041308 
L 107.61476 -81.305108 
L 107.078042 -81.356808 
L 106.541324 -82.295167 
L 106.004606 -82.336851 
L 105.467888 -81.964286 
L 104.93117 -81.75225 
L 104.394452 -82.052047 
L 103.857734 -82.098642 
L 103.321016 -81.806536 
L 102.784298 -81.772931 
L 102.24758 -82.341633 
L 101.710862 -82.245988 
L 101.174144 -82.217488 
L 100.637426 -82.232998 
L 100.100708 -81.912521 
L 99.56399 -81.553269 
L 99.027272 -80.839806 
L 98.490554 -80.757021 
L 97.953836 -80.860422 
L 97.417118 -80.83748 
L 96.8804 -80.901717 
L 96.343682 -80.961366 
L 95.806964 -80.769946 
L 95.270246 -80.847497 
L 94.733528 -81.000077 
L 94.19681 -81.268853 
L 93.660092 -81.992656 
L 93.123374 -84.326922 
L 92.586656 -85.314331 
L 92.049938 -85.182689 
L 91.51322 -85.19807 
L 90.976502 -84.593178 
L 90.439784 -84.484607 
L 89.903066 -84.505417 
L 89.366348 -84.109716 
L 88.82963 -84.461407 
L 88.292912 -84.606103 
L 87.756194 -84.846444 
L 87.219476 -85.322151 
L 86.682758 -85.275556 
L 86.14604 -84.308762 
L 85.609322 -83.339383 
L 85.072604 -83.331757 
L 84.535886 -83.688359 
L 83.999168 -83.292917 
L 83.46245 -83.946925 
L 82.925732 -83.923789 
L 82.389014 -83.251557 
L 81.852296 -83.99087 
L 81.315578 -83.086052 
L 80.77886 -83.683189 
L 80.242142 -85.317239 
L 79.705424 -85.337726 
L 79.168706 -85.102425 
L 78.631988 -85.249706 
L 78.09527 -84.981123 
L 77.558552 -85.172156 
L 77.021834 -85.04814 
L 76.485116 -85.353236 
L 75.948397 -84.768894 
L 75.411679 -84.652698 
L 74.874961 -85.65077 
L 74.338243 -85.655617 
L 73.801525 -87.134244 
L 73.264807 -88.974707 
L 72.728089 -89.752795 
L 72.191371 -92.968549 
L 71.654653 -95.719066 
L 71.117935 -95.838041 
L 70.581217 -97.805299 
L 70.044499 -95.936207 
L 69.507781 -95.835391 
L 68.971063 -95.796616 
L 68.434345 -99.229834 
L 67.897627 -99.12611 
L 67.360909 -102.610835 
L 66.824191 -98.97618 
L 66.287473 -98.965775 
L 65.750755 -98.877885 
L 65.214037 -94.682476 
L 64.677319 -94.116553 
L 64.140601 -91.926854 
L 63.603883 -93.056504 
L 63.067165 -100.646097 
L 62.530447 -104.011717 
L 61.993729 -103.846276 
L 61.457011 -104.040152 
L 60.920293 -103.357838 
L 60.383575 -109.171399 
L 59.846857 -113.390137 
L 59.310139 -114.116526 
L 58.773421 -114.08305 
L 58.236703 -119.767489 
L 57.699985 -125.55003 
L 57.163267 -138.749226 
L 56.626549 -139.52208 
L 56.089831 -141.93131 
L 55.553113 -142.794833 
L 55.016395 -142.200281 
L 54.479677 -150.053351 
L 53.942959 -155.047592 
L 53.406241 -150.500558 
L 52.869523 -152.460061 
L 52.332805 -152.28176 
L 51.796087 -151.547487 
L 51.259369 -151.560477 
L 50.722651 -157.614767 
L 50.185933 -155.923911 
L 49.649215 -152.475571 
L 49.112497 -162.766565 
L 48.575779 -164.96893 
L 48.039061 -166.806808 
L 47.502343 -167.261835 
z
" style="stroke: #55a868; stroke-opacity: 0.2"/>
    </defs>
    <g clip-path="url(#pdfff73b7f8)">
     <use xlink:href="#m7bfc7c3b89" x="0" y="188.39952" style="fill: #55a868; fill-opacity: 0.2; stroke: #55a868; stroke-opacity: 0.2"/>
    </g>
   </g>
   <g id="matplotlib.axis_1">
    <g id="xtick_1">
     <g id="line2d_1">
      <defs>
       <path id="m7de88b829b" d="M 0 0 
L 0 3.5 
" style="stroke: #000000; stroke-width: 0.8"/>
      </defs>
      <g>
       <use xlink:href="#m7de88b829b" x="46.965625" y="150.84327" style="stroke: #000000; stroke-width: 0.8"/>
      </g>
     </g>
     <g id="text_1">
      <!-- 0 -->
      <g transform="translate(43.784375 165.441708) scale(0.1 -0.1)">
       <defs>
        <path id="DejaVuSans-30" d="M 2034 4250 
Q 1547 4250 1301 3770 
Q 1056 3291 1056 2328 
Q 1056 1369 1301 889 
Q 1547 409 2034 409 
Q 2525 409 2770 889 
Q 3016 1369 3016 2328 
Q 3016 3291 2770 3770 
Q 2525 4250 2034 4250 
z
M 2034 4750 
Q 2819 4750 3233 4129 
Q 3647 3509 3647 2328 
Q 3647 1150 3233 529 
Q 2819 -91 2034 -91 
Q 1250 -91 836 529 
Q 422 1150 422 2328 
Q 422 3509 836 4129 
Q 1250 4750 2034 4750 
z
" transform="scale(0.015625)"/>
       </defs>
       <use xlink:href="#DejaVuSans-30"/>
      </g>
     </g>
    </g>
    <g id="xtick_2">
     <g id="line2d_2">
      <g>
       <use xlink:href="#m7de88b829b" x="100.637426" y="150.84327" style="stroke: #000000; stroke-width: 0.8"/>
      </g>
     </g>
     <g id="text_2">
      <!-- 100 -->
      <g transform="translate(91.093676 165.441708) scale(0.1 -0.1)">
       <defs>
        <path id="DejaVuSans-31" d="M 794 531 
L 1825 531 
L 1825 4091 
L 703 3866 
L 703 4441 
L 1819 4666 
L 2450 4666 
L 2450 531 
L 3481 531 
L 3481 0 
L 794 0 
L 794 531 
z
" transform="scale(0.015625)"/>
       </defs>
       <use xlink:href="#DejaVuSans-31"/>
       <use xlink:href="#DejaVuSans-30" x="63.623047"/>
       <use xlink:href="#DejaVuSans-30" x="127.246094"/>
      </g>
     </g>
    </g>
    <g id="xtick_3">
     <g id="line2d_3">
      <g>
       <use xlink:href="#m7de88b829b" x="154.309227" y="150.84327" style="stroke: #000000; stroke-width: 0.8"/>
      </g>
     </g>
     <g id="text_3">
      <!-- 200 -->
      <g transform="translate(144.765477 165.441708) scale(0.1 -0.1)">
       <defs>
        <path id="DejaVuSans-32" d="M 1228 531 
L 3431 531 
L 3431 0 
L 469 0 
L 469 531 
Q 828 903 1448 1529 
Q 2069 2156 2228 2338 
Q 2531 2678 2651 2914 
Q 2772 3150 2772 3378 
Q 2772 3750 2511 3984 
Q 2250 4219 1831 4219 
Q 1534 4219 1204 4116 
Q 875 4013 500 3803 
L 500 4441 
Q 881 4594 1212 4672 
Q 1544 4750 1819 4750 
Q 2544 4750 2975 4387 
Q 3406 4025 3406 3419 
Q 3406 3131 3298 2873 
Q 3191 2616 2906 2266 
Q 2828 2175 2409 1742 
Q 1991 1309 1228 531 
z
" transform="scale(0.015625)"/>
       </defs>
       <use xlink:href="#DejaVuSans-32"/>
       <use xlink:href="#DejaVuSans-30" x="63.623047"/>
       <use xlink:href="#DejaVuSans-30" x="127.246094"/>
      </g>
     </g>
    </g>
    <g id="xtick_4">
     <g id="line2d_4">
      <g>
       <use xlink:href="#m7de88b829b" x="207.981028" y="150.84327" style="stroke: #000000; stroke-width: 0.8"/>
      </g>
     </g>
     <g id="text_4">
      <!-- 300 -->
      <g transform="translate(198.437278 165.441708) scale(0.1 -0.1)">
       <defs>
        <path id="DejaVuSans-33" d="M 2597 2516 
Q 3050 2419 3304 2112 
Q 3559 1806 3559 1356 
Q 3559 666 3084 287 
Q 2609 -91 1734 -91 
Q 1441 -91 1130 -33 
Q 819 25 488 141 
L 488 750 
Q 750 597 1062 519 
Q 1375 441 1716 441 
Q 2309 441 2620 675 
Q 2931 909 2931 1356 
Q 2931 1769 2642 2001 
Q 2353 2234 1838 2234 
L 1294 2234 
L 1294 2753 
L 1863 2753 
Q 2328 2753 2575 2939 
Q 2822 3125 2822 3475 
Q 2822 3834 2567 4026 
Q 2313 4219 1838 4219 
Q 1578 4219 1281 4162 
Q 984 4106 628 3988 
L 628 4550 
Q 988 4650 1302 4700 
Q 1616 4750 1894 4750 
Q 2613 4750 3031 4423 
Q 3450 4097 3450 3541 
Q 3450 3153 3228 2886 
Q 3006 2619 2597 2516 
z
" transform="scale(0.015625)"/>
       </defs>
       <use xlink:href="#DejaVuSans-33"/>
       <use xlink:href="#DejaVuSans-30" x="63.623047"/>
       <use xlink:href="#DejaVuSans-30" x="127.246094"/>
      </g>
     </g>
    </g>
    <g id="text_5">
     <!-- Sample Size -->
     <g transform="translate(119.48101 179.119833) scale(0.1 -0.1)">
      <defs>
       <path id="DejaVuSans-53" d="M 3425 4513 
L 3425 3897 
Q 3066 4069 2747 4153 
Q 2428 4238 2131 4238 
Q 1616 4238 1336 4038 
Q 1056 3838 1056 3469 
Q 1056 3159 1242 3001 
Q 1428 2844 1947 2747 
L 2328 2669 
Q 3034 2534 3370 2195 
Q 3706 1856 3706 1288 
Q 3706 609 3251 259 
Q 2797 -91 1919 -91 
Q 1588 -91 1214 -16 
Q 841 59 441 206 
L 441 856 
Q 825 641 1194 531 
Q 1563 422 1919 422 
Q 2459 422 2753 634 
Q 3047 847 3047 1241 
Q 3047 1584 2836 1778 
Q 2625 1972 2144 2069 
L 1759 2144 
Q 1053 2284 737 2584 
Q 422 2884 422 3419 
Q 422 4038 858 4394 
Q 1294 4750 2059 4750 
Q 2388 4750 2728 4690 
Q 3069 4631 3425 4513 
z
" transform="scale(0.015625)"/>
       <path id="DejaVuSans-61" d="M 2194 1759 
Q 1497 1759 1228 1600 
Q 959 1441 959 1056 
Q 959 750 1161 570 
Q 1363 391 1709 391 
Q 2188 391 2477 730 
Q 2766 1069 2766 1631 
L 2766 1759 
L 2194 1759 
z
M 3341 1997 
L 3341 0 
L 2766 0 
L 2766 531 
Q 2569 213 2275 61 
Q 1981 -91 1556 -91 
Q 1019 -91 701 211 
Q 384 513 384 1019 
Q 384 1609 779 1909 
Q 1175 2209 1959 2209 
L 2766 2209 
L 2766 2266 
Q 2766 2663 2505 2880 
Q 2244 3097 1772 3097 
Q 1472 3097 1187 3025 
Q 903 2953 641 2809 
L 641 3341 
Q 956 3463 1253 3523 
Q 1550 3584 1831 3584 
Q 2591 3584 2966 3190 
Q 3341 2797 3341 1997 
z
" transform="scale(0.015625)"/>
       <path id="DejaVuSans-6d" d="M 3328 2828 
Q 3544 3216 3844 3400 
Q 4144 3584 4550 3584 
Q 5097 3584 5394 3201 
Q 5691 2819 5691 2113 
L 5691 0 
L 5113 0 
L 5113 2094 
Q 5113 2597 4934 2840 
Q 4756 3084 4391 3084 
Q 3944 3084 3684 2787 
Q 3425 2491 3425 1978 
L 3425 0 
L 2847 0 
L 2847 2094 
Q 2847 2600 2669 2842 
Q 2491 3084 2119 3084 
Q 1678 3084 1418 2786 
Q 1159 2488 1159 1978 
L 1159 0 
L 581 0 
L 581 3500 
L 1159 3500 
L 1159 2956 
Q 1356 3278 1631 3431 
Q 1906 3584 2284 3584 
Q 2666 3584 2933 3390 
Q 3200 3197 3328 2828 
z
" transform="scale(0.015625)"/>
       <path id="DejaVuSans-70" d="M 1159 525 
L 1159 -1331 
L 581 -1331 
L 581 3500 
L 1159 3500 
L 1159 2969 
Q 1341 3281 1617 3432 
Q 1894 3584 2278 3584 
Q 2916 3584 3314 3078 
Q 3713 2572 3713 1747 
Q 3713 922 3314 415 
Q 2916 -91 2278 -91 
Q 1894 -91 1617 61 
Q 1341 213 1159 525 
z
M 3116 1747 
Q 3116 2381 2855 2742 
Q 2594 3103 2138 3103 
Q 1681 3103 1420 2742 
Q 1159 2381 1159 1747 
Q 1159 1113 1420 752 
Q 1681 391 2138 391 
Q 2594 391 2855 752 
Q 3116 1113 3116 1747 
z
" transform="scale(0.015625)"/>
       <path id="DejaVuSans-6c" d="M 603 4863 
L 1178 4863 
L 1178 0 
L 603 0 
L 603 4863 
z
" transform="scale(0.015625)"/>
       <path id="DejaVuSans-65" d="M 3597 1894 
L 3597 1613 
L 953 1613 
Q 991 1019 1311 708 
Q 1631 397 2203 397 
Q 2534 397 2845 478 
Q 3156 559 3463 722 
L 3463 178 
Q 3153 47 2828 -22 
Q 2503 -91 2169 -91 
Q 1331 -91 842 396 
Q 353 884 353 1716 
Q 353 2575 817 3079 
Q 1281 3584 2069 3584 
Q 2775 3584 3186 3129 
Q 3597 2675 3597 1894 
z
M 3022 2063 
Q 3016 2534 2758 2815 
Q 2500 3097 2075 3097 
Q 1594 3097 1305 2825 
Q 1016 2553 972 2059 
L 3022 2063 
z
" transform="scale(0.015625)"/>
       <path id="DejaVuSans-20" transform="scale(0.015625)"/>
       <path id="DejaVuSans-69" d="M 603 3500 
L 1178 3500 
L 1178 0 
L 603 0 
L 603 3500 
z
M 603 4863 
L 1178 4863 
L 1178 4134 
L 603 4134 
L 603 4863 
z
" transform="scale(0.015625)"/>
       <path id="DejaVuSans-7a" d="M 353 3500 
L 3084 3500 
L 3084 2975 
L 922 459 
L 3084 459 
L 3084 0 
L 275 0 
L 275 525 
L 2438 3041 
L 353 3041 
L 353 3500 
z
" transform="scale(0.015625)"/>
      </defs>
      <use xlink:href="#DejaVuSans-53"/>
      <use xlink:href="#DejaVuSans-61" x="63.476562"/>
      <use xlink:href="#DejaVuSans-6d" x="124.755859"/>
      <use xlink:href="#DejaVuSans-70" x="222.167969"/>
      <use xlink:href="#DejaVuSans-6c" x="285.644531"/>
      <use xlink:href="#DejaVuSans-65" x="313.427734"/>
      <use xlink:href="#DejaVuSans-20" x="374.951172"/>
      <use xlink:href="#DejaVuSans-53" x="406.738281"/>
      <use xlink:href="#DejaVuSans-69" x="470.214844"/>
      <use xlink:href="#DejaVuSans-7a" x="497.998047"/>
      <use xlink:href="#DejaVuSans-65" x="550.488281"/>
     </g>
    </g>
   </g>
   <g id="matplotlib.axis_2">
    <g id="ytick_1">
     <g id="line2d_5">
      <defs>
       <path id="m199d4ebc53" d="M 0 0 
L -3.5 0 
" style="stroke: #000000; stroke-width: 0.8"/>
      </defs>
      <g>
       <use xlink:href="#m199d4ebc53" x="46.965625" y="150.84327" style="stroke: #000000; stroke-width: 0.8"/>
      </g>
     </g>
     <g id="text_6">
      <!-- 0 -->
      <g transform="translate(33.603125 154.642489) scale(0.1 -0.1)">
       <use xlink:href="#DejaVuSans-30"/>
      </g>
     </g>
    </g>
    <g id="ytick_2">
     <g id="line2d_6">
      <g>
       <use xlink:href="#m199d4ebc53" x="46.965625" y="113.102107" style="stroke: #000000; stroke-width: 0.8"/>
      </g>
     </g>
     <g id="text_7">
      <!-- 50 -->
      <g transform="translate(27.240625 116.901326) scale(0.1 -0.1)">
       <defs>
        <path id="DejaVuSans-35" d="M 691 4666 
L 3169 4666 
L 3169 4134 
L 1269 4134 
L 1269 2991 
Q 1406 3038 1543 3061 
Q 1681 3084 1819 3084 
Q 2600 3084 3056 2656 
Q 3513 2228 3513 1497 
Q 3513 744 3044 326 
Q 2575 -91 1722 -91 
Q 1428 -91 1123 -41 
Q 819 9 494 109 
L 494 744 
Q 775 591 1075 516 
Q 1375 441 1709 441 
Q 2250 441 2565 725 
Q 2881 1009 2881 1497 
Q 2881 1984 2565 2268 
Q 2250 2553 1709 2553 
Q 1456 2553 1204 2497 
Q 953 2441 691 2322 
L 691 4666 
z
" transform="scale(0.015625)"/>
       </defs>
       <use xlink:href="#DejaVuSans-35"/>
       <use xlink:href="#DejaVuSans-30" x="63.623047"/>
      </g>
     </g>
    </g>
    <g id="ytick_3">
     <g id="line2d_7">
      <g>
       <use xlink:href="#m199d4ebc53" x="46.965625" y="75.360944" style="stroke: #000000; stroke-width: 0.8"/>
      </g>
     </g>
     <g id="text_8">
      <!-- 100 -->
      <g transform="translate(20.878125 79.160163) scale(0.1 -0.1)">
       <use xlink:href="#DejaVuSans-31"/>
       <use xlink:href="#DejaVuSans-30" x="63.623047"/>
       <use xlink:href="#DejaVuSans-30" x="127.246094"/>
      </g>
     </g>
    </g>
    <g id="ytick_4">
     <g id="line2d_8">
      <g>
       <use xlink:href="#m199d4ebc53" x="46.965625" y="37.619781" style="stroke: #000000; stroke-width: 0.8"/>
      </g>
     </g>
     <g id="text_9">
      <!-- 150 -->
      <g transform="translate(20.878125 41.419) scale(0.1 -0.1)">
       <use xlink:href="#DejaVuSans-31"/>
       <use xlink:href="#DejaVuSans-35" x="63.623047"/>
       <use xlink:href="#DejaVuSans-30" x="127.246094"/>
      </g>
     </g>
    </g>
    <g id="text_10">
     <!-- Empirical Classification Error -->
     <g transform="translate(14.798437 150.707573) rotate(-90) scale(0.1 -0.1)">
      <defs>
       <path id="DejaVuSans-45" d="M 628 4666 
L 3578 4666 
L 3578 4134 
L 1259 4134 
L 1259 2753 
L 3481 2753 
L 3481 2222 
L 1259 2222 
L 1259 531 
L 3634 531 
L 3634 0 
L 628 0 
L 628 4666 
z
" transform="scale(0.015625)"/>
       <path id="DejaVuSans-72" d="M 2631 2963 
Q 2534 3019 2420 3045 
Q 2306 3072 2169 3072 
Q 1681 3072 1420 2755 
Q 1159 2438 1159 1844 
L 1159 0 
L 581 0 
L 581 3500 
L 1159 3500 
L 1159 2956 
Q 1341 3275 1631 3429 
Q 1922 3584 2338 3584 
Q 2397 3584 2469 3576 
Q 2541 3569 2628 3553 
L 2631 2963 
z
" transform="scale(0.015625)"/>
       <path id="DejaVuSans-63" d="M 3122 3366 
L 3122 2828 
Q 2878 2963 2633 3030 
Q 2388 3097 2138 3097 
Q 1578 3097 1268 2742 
Q 959 2388 959 1747 
Q 959 1106 1268 751 
Q 1578 397 2138 397 
Q 2388 397 2633 464 
Q 2878 531 3122 666 
L 3122 134 
Q 2881 22 2623 -34 
Q 2366 -91 2075 -91 
Q 1284 -91 818 406 
Q 353 903 353 1747 
Q 353 2603 823 3093 
Q 1294 3584 2113 3584 
Q 2378 3584 2631 3529 
Q 2884 3475 3122 3366 
z
" transform="scale(0.015625)"/>
       <path id="DejaVuSans-43" d="M 4122 4306 
L 4122 3641 
Q 3803 3938 3442 4084 
Q 3081 4231 2675 4231 
Q 1875 4231 1450 3742 
Q 1025 3253 1025 2328 
Q 1025 1406 1450 917 
Q 1875 428 2675 428 
Q 3081 428 3442 575 
Q 3803 722 4122 1019 
L 4122 359 
Q 3791 134 3420 21 
Q 3050 -91 2638 -91 
Q 1578 -91 968 557 
Q 359 1206 359 2328 
Q 359 3453 968 4101 
Q 1578 4750 2638 4750 
Q 3056 4750 3426 4639 
Q 3797 4528 4122 4306 
z
" transform="scale(0.015625)"/>
       <path id="DejaVuSans-73" d="M 2834 3397 
L 2834 2853 
Q 2591 2978 2328 3040 
Q 2066 3103 1784 3103 
Q 1356 3103 1142 2972 
Q 928 2841 928 2578 
Q 928 2378 1081 2264 
Q 1234 2150 1697 2047 
L 1894 2003 
Q 2506 1872 2764 1633 
Q 3022 1394 3022 966 
Q 3022 478 2636 193 
Q 2250 -91 1575 -91 
Q 1294 -91 989 -36 
Q 684 19 347 128 
L 347 722 
Q 666 556 975 473 
Q 1284 391 1588 391 
Q 1994 391 2212 530 
Q 2431 669 2431 922 
Q 2431 1156 2273 1281 
Q 2116 1406 1581 1522 
L 1381 1569 
Q 847 1681 609 1914 
Q 372 2147 372 2553 
Q 372 3047 722 3315 
Q 1072 3584 1716 3584 
Q 2034 3584 2315 3537 
Q 2597 3491 2834 3397 
z
" transform="scale(0.015625)"/>
       <path id="DejaVuSans-66" d="M 2375 4863 
L 2375 4384 
L 1825 4384 
Q 1516 4384 1395 4259 
Q 1275 4134 1275 3809 
L 1275 3500 
L 2222 3500 
L 2222 3053 
L 1275 3053 
L 1275 0 
L 697 0 
L 697 3053 
L 147 3053 
L 147 3500 
L 697 3500 
L 697 3744 
Q 697 4328 969 4595 
Q 1241 4863 1831 4863 
L 2375 4863 
z
" transform="scale(0.015625)"/>
       <path id="DejaVuSans-74" d="M 1172 4494 
L 1172 3500 
L 2356 3500 
L 2356 3053 
L 1172 3053 
L 1172 1153 
Q 1172 725 1289 603 
Q 1406 481 1766 481 
L 2356 481 
L 2356 0 
L 1766 0 
Q 1100 0 847 248 
Q 594 497 594 1153 
L 594 3053 
L 172 3053 
L 172 3500 
L 594 3500 
L 594 4494 
L 1172 4494 
z
" transform="scale(0.015625)"/>
       <path id="DejaVuSans-6f" d="M 1959 3097 
Q 1497 3097 1228 2736 
Q 959 2375 959 1747 
Q 959 1119 1226 758 
Q 1494 397 1959 397 
Q 2419 397 2687 759 
Q 2956 1122 2956 1747 
Q 2956 2369 2687 2733 
Q 2419 3097 1959 3097 
z
M 1959 3584 
Q 2709 3584 3137 3096 
Q 3566 2609 3566 1747 
Q 3566 888 3137 398 
Q 2709 -91 1959 -91 
Q 1206 -91 779 398 
Q 353 888 353 1747 
Q 353 2609 779 3096 
Q 1206 3584 1959 3584 
z
" transform="scale(0.015625)"/>
       <path id="DejaVuSans-6e" d="M 3513 2113 
L 3513 0 
L 2938 0 
L 2938 2094 
Q 2938 2591 2744 2837 
Q 2550 3084 2163 3084 
Q 1697 3084 1428 2787 
Q 1159 2491 1159 1978 
L 1159 0 
L 581 0 
L 581 3500 
L 1159 3500 
L 1159 2956 
Q 1366 3272 1645 3428 
Q 1925 3584 2291 3584 
Q 2894 3584 3203 3211 
Q 3513 2838 3513 2113 
z
" transform="scale(0.015625)"/>
      </defs>
      <use xlink:href="#DejaVuSans-45"/>
      <use xlink:href="#DejaVuSans-6d" x="63.183594"/>
      <use xlink:href="#DejaVuSans-70" x="160.595703"/>
      <use xlink:href="#DejaVuSans-69" x="224.072266"/>
      <use xlink:href="#DejaVuSans-72" x="251.855469"/>
      <use xlink:href="#DejaVuSans-69" x="292.96875"/>
      <use xlink:href="#DejaVuSans-63" x="320.751953"/>
      <use xlink:href="#DejaVuSans-61" x="375.732422"/>
      <use xlink:href="#DejaVuSans-6c" x="437.011719"/>
      <use xlink:href="#DejaVuSans-20" x="464.794922"/>
      <use xlink:href="#DejaVuSans-43" x="496.582031"/>
      <use xlink:href="#DejaVuSans-6c" x="566.40625"/>
      <use xlink:href="#DejaVuSans-61" x="594.189453"/>
      <use xlink:href="#DejaVuSans-73" x="655.46875"/>
      <use xlink:href="#DejaVuSans-73" x="707.568359"/>
      <use xlink:href="#DejaVuSans-69" x="759.667969"/>
      <use xlink:href="#DejaVuSans-66" x="787.451172"/>
      <use xlink:href="#DejaVuSans-69" x="822.65625"/>
      <use xlink:href="#DejaVuSans-63" x="850.439453"/>
      <use xlink:href="#DejaVuSans-61" x="905.419922"/>
      <use xlink:href="#DejaVuSans-74" x="966.699219"/>
      <use xlink:href="#DejaVuSans-69" x="1005.908203"/>
      <use xlink:href="#DejaVuSans-6f" x="1033.691406"/>
      <use xlink:href="#DejaVuSans-6e" x="1094.873047"/>
      <use xlink:href="#DejaVuSans-20" x="1158.251953"/>
      <use xlink:href="#DejaVuSans-45" x="1190.039062"/>
      <use xlink:href="#DejaVuSans-72" x="1253.222656"/>
      <use xlink:href="#DejaVuSans-72" x="1292.585938"/>
      <use xlink:href="#DejaVuSans-6f" x="1331.449219"/>
      <use xlink:href="#DejaVuSans-72" x="1392.630859"/>
     </g>
    </g>
   </g>
   <g id="line2d_9">
    <path d="M 47.502343 23.54698 
L 48.039061 18.227028 
L 48.575779 16.805271 
L 49.649215 50.632727 
L 50.185933 50.1545 
L 50.722651 41.98845 
L 51.259369 26.9411 
L 51.796087 28.885029 
L 52.332805 34.647018 
L 52.869523 46.315759 
L 53.942959 51.674487 
L 54.479677 39.819626 
L 55.016395 41.404238 
L 55.553113 41.117301 
L 56.089831 43.464491 
L 56.626549 48.001186 
L 57.163267 49.601308 
L 57.699985 57.638108 
L 58.236703 67.758426 
L 58.773421 66.414221 
L 59.310139 66.781292 
L 59.846857 68.994062 
L 60.383575 69.989291 
L 60.920293 69.841945 
L 61.457011 69.169842 
L 61.993729 62.451398 
L 62.530447 48.727574 
L 63.067165 58.005179 
L 64.140601 37.821412 
L 64.677319 35.838709 
L 65.214037 20.470817 
L 65.750755 40.595129 
L 66.287473 18.307163 
L 66.824191 38.235014 
L 67.360909 41.546413 
L 67.897627 66.230685 
L 68.434345 73.086134 
L 69.507781 67.536115 
L 70.044499 66.1764 
L 70.581217 72.868993 
L 71.117935 77.653849 
L 71.654653 79.390977 
L 72.191371 79.02649 
L 72.728089 77.379838 
L 73.801525 77.377253 
L 74.338243 76.493179 
L 74.874961 64.092881 
L 75.411679 68.368489 
L 75.948397 67.339655 
L 76.485116 74.867207 
L 77.021834 74.086534 
L 77.558552 76.635355 
L 78.09527 76.619845 
L 78.631988 76.917121 
L 79.168706 77.413443 
L 79.705424 80.507701 
L 80.242142 95.23451 
L 80.77886 88.200695 
L 81.315578 91.147607 
L 81.852296 88.554841 
L 82.925732 86.492002 
L 83.46245 87.507912 
L 83.999168 87.564782 
L 84.535886 87.955119 
L 85.072604 87.673352 
L 85.609322 88.565181 
L 86.14604 88.531576 
L 86.682758 88.293755 
L 87.219476 88.622051 
L 87.756194 88.642731 
L 88.292912 89.48286 
L 88.82963 89.542315 
L 89.366348 89.42599 
L 89.903066 90.597 
L 90.439784 92.551268 
L 92.049938 92.613309 
L 92.586656 92.822695 
L 93.123374 93.771394 
L 93.660092 94.249621 
L 94.19681 96.907012 
L 94.733528 96.894087 
L 95.270246 97.266329 
L 95.806964 97.219799 
L 96.343682 96.015183 
L 97.417118 96.046203 
L 97.953836 96.43137 
L 98.490554 95.21383 
L 99.027272 95.23451 
L 100.100708 93.97561 
L 100.637426 93.792074 
L 101.174144 93.745544 
L 101.710862 93.311262 
L 102.24758 93.484457 
L 102.784298 95.032879 
L 103.321016 94.097105 
L 103.857734 95.149205 
L 104.394452 95.717907 
L 104.93117 98.240878 
L 105.467888 97.928092 
L 106.004606 97.878976 
L 107.078042 96.790687 
L 107.61476 97.55585 
L 108.151478 97.235309 
L 108.688196 96.201304 
L 111.371786 97.527415 
L 111.908504 97.922922 
L 112.445222 97.798841 
L 112.98194 98.385639 
L 113.518658 99.393793 
L 114.055376 98.610535 
L 115.128812 98.556249 
L 115.66553 99.411888 
L 116.202248 99.093932 
L 116.738966 99.440323 
L 117.275684 100.551878 
L 117.812402 100.629428 
L 118.34912 100.363172 
L 118.885838 101.004255 
L 119.422556 103.519471 
L 119.959274 104.47851 
L 120.495992 105.69605 
L 121.03271 105.887341 
L 122.106146 105.959721 
L 122.642864 106.290603 
L 123.179582 105.882171 
L 123.7163 106.505159 
L 124.253018 105.915776 
L 124.789736 105.57714 
L 125.326454 105.74258 
L 126.39989 105.809791 
L 126.936608 105.887341 
L 127.473326 105.6702 
L 128.546762 105.60816 
L 129.08348 106.039857 
L 129.620198 105.724485 
L 130.156916 105.877001 
L 130.693634 108.04841 
L 132.303788 107.963105 
L 133.377224 107.906235 
L 133.913942 108.08977 
L 134.45066 107.709774 
L 134.987378 106.352643 
L 135.524097 106.432778 
L 136.060815 107.068691 
L 136.597533 107.278077 
L 137.134251 107.645149 
L 138.207687 107.988955 
L 138.744405 107.99154 
L 139.281123 107.639978 
L 139.817841 107.588278 
L 140.354559 107.766644 
L 140.891277 108.356027 
L 141.427995 108.337932 
L 141.964713 109.051395 
L 142.501431 109.03847 
L 143.574867 108.614528 
L 144.111585 109.002279 
L 144.648303 109.012619 
L 145.185021 110.439546 
L 145.721739 110.612741 
L 146.258457 110.460226 
L 147.868611 110.623081 
L 148.405329 109.687307 
L 148.942047 110.788522 
L 149.478765 110.760087 
L 150.015483 111.659671 
L 151.088919 111.739806 
L 151.625637 111.132329 
L 152.162355 111.116819 
L 152.699073 111.778581 
L 153.235791 111.938852 
L 153.772509 111.470965 
L 154.309227 111.308109 
L 154.845945 111.654501 
L 155.382663 111.199539 
L 155.919381 112.132728 
L 156.456099 111.817357 
L 156.992817 112.230958 
L 157.529535 110.946208 
L 158.066253 110.951378 
L 158.602971 111.129744 
L 159.676407 111.127159 
L 161.286561 111.631236 
L 162.359997 111.848377 
L 162.896715 112.068103 
L 163.433433 111.845792 
L 164.506869 111.799261 
L 165.043587 112.6549 
L 166.117023 112.58252 
L 166.653741 112.667825 
L 167.190459 112.949591 
L 167.727177 113.590674 
L 168.263895 113.014217 
L 168.800613 112.616125 
L 170.410767 112.326604 
L 170.947485 111.959532 
L 171.484203 112.52048 
L 172.020921 112.261978 
L 173.094357 112.63422 
L 174.167793 113.952576 
L 175.777947 114.019786 
L 176.314665 114.074071 
L 176.851383 113.934481 
L 177.388101 113.629449 
L 177.924819 113.510539 
L 178.461537 113.76904 
L 178.998255 113.187412 
L 179.534973 112.944421 
L 180.608409 113.551899 
L 181.145127 112.990952 
L 182.218563 113.148637 
L 182.755281 112.760886 
L 183.291999 112.753131 
L 183.828717 112.923741 
L 184.365435 112.59286 
L 185.438871 112.450684 
L 185.975589 112.773811 
L 187.585743 113.081427 
L 188.122461 112.915986 
L 188.659179 113.052992 
L 189.195897 113.404553 
L 189.732615 113.420063 
L 190.269333 113.719925 
L 190.806051 113.750945 
L 191.342769 113.652714 
L 192.416205 113.719925 
L 192.952923 114.366178 
L 194.026359 114.417878 
L 196.70995 115.431202 
L 198.320104 115.294197 
L 199.39354 115.400182 
L 200.466976 115.345897 
L 201.540412 115.338142 
L 202.07713 115.102906 
L 202.613848 115.084811 
L 203.687284 114.84182 
L 204.224002 114.983995 
L 204.76072 114.989165 
L 205.297438 115.115831 
L 205.834156 115.113246 
L 206.370874 114.82631 
L 206.907592 114.932295 
L 207.981028 114.469578 
L 208.517746 114.911615 
L 209.054464 115.097736 
L 209.591182 115.402767 
L 210.1279 115.074471 
L 210.664618 115.294197 
L 211.201336 115.177871 
L 211.738054 115.640588 
L 212.81149 115.656098 
L 213.348208 115.666438 
L 213.884926 115.304537 
L 214.421644 115.446712 
L 214.958362 115.423447 
L 216.031798 115.136511 
L 216.568516 114.699644 
L 217.105234 114.756514 
L 217.641952 114.585903 
L 218.715388 114.479918 
L 219.252106 113.975841 
L 220.325542 113.466594 
L 220.86226 113.453669 
L 221.398978 113.202923 
L 221.935696 113.370948 
L 222.472414 113.187412 
L 223.009132 113.241698 
L 223.54585 113.174487 
L 226.22944 113.621694 
L 227.302876 113.474349 
L 227.839594 113.629449 
L 229.449748 113.624279 
L 229.986466 113.096937 
L 230.523184 112.804831 
L 231.059902 112.672995 
L 232.133338 112.841021 
L 232.670056 112.533405 
L 233.743492 112.455854 
L 234.28021 112.51531 
L 235.353646 113.249453 
L 235.890364 113.76387 
L 236.427082 113.975841 
L 238.573954 113.634619 
L 239.110672 113.678565 
L 239.64739 113.531219 
L 240.184108 113.68632 
L 240.720826 112.771226 
L 241.257544 112.776396 
L 242.33098 112.55667 
L 242.867698 112.908231 
L 243.404416 112.996122 
L 243.404416 112.996122 
" clip-path="url(#pdfff73b7f8)" style="fill: none; stroke: #4c72b0; stroke-width: 1.5; stroke-linecap: square"/>
   </g>
   <g id="line2d_10">
    <path d="M 47.502343 13.793733 
L 48.039061 38.488345 
L 48.575779 33.527709 
L 49.112497 39.181128 
L 49.649215 36.172175 
L 50.185933 42.249536 
L 50.722651 43.273201 
L 51.259369 37.459511 
L 51.796087 43.18531 
L 52.869523 43.684217 
L 53.406241 46.041748 
L 53.942959 51.26347 
L 54.479677 52.27938 
L 55.016395 52.082919 
L 55.553113 52.302645 
L 56.089831 61.61127 
L 56.626549 53.60032 
L 57.163267 54.833371 
L 57.699985 53.993242 
L 58.236703 58.865988 
L 58.773421 59.478636 
L 59.310139 59.768157 
L 59.846857 62.030042 
L 60.383575 59.954278 
L 60.920293 60.365294 
L 61.457011 63.568123 
L 61.993729 63.544858 
L 62.530447 64.06703 
L 63.067165 72.817293 
L 63.603883 73.993473 
L 64.140601 74.709521 
L 64.677319 78.91792 
L 65.214037 78.873974 
L 65.750755 78.356972 
L 66.287473 78.367312 
L 66.824191 80.918718 
L 67.360909 87.22873 
L 67.897627 88.407495 
L 68.971063 91.892091 
L 69.507781 92.207462 
L 70.044499 96.47273 
L 70.581217 95.960898 
L 71.117935 98.140062 
L 71.654653 98.65448 
L 72.191371 98.597609 
L 72.728089 100.047801 
L 73.264807 100.003856 
L 73.801525 100.133106 
L 74.338243 101.298946 
L 74.874961 103.987358 
L 75.411679 103.591851 
L 75.948397 103.558246 
L 76.485116 103.718517 
L 77.021834 104.830071 
L 77.558552 104.703406 
L 78.09527 104.832656 
L 78.631988 105.667615 
L 79.168706 105.396189 
L 79.705424 104.892112 
L 81.315578 104.894697 
L 81.852296 105.434964 
L 82.389014 105.641765 
L 83.46245 105.789111 
L 83.999168 108.06392 
L 84.535886 108.110451 
L 85.072604 109.271121 
L 85.609322 109.007449 
L 86.14604 108.599018 
L 86.682758 108.728268 
L 87.219476 108.418067 
L 87.756194 108.570583 
L 88.292912 107.696849 
L 89.366348 107.810589 
L 89.903066 107.089371 
L 90.976502 107.355627 
L 91.51322 109.330576 
L 92.049938 109.483091 
L 93.123374 110.530021 
L 93.660092 110.113834 
L 94.733528 110.000094 
L 95.270246 109.739008 
L 95.806964 109.072075 
L 96.343682 109.11085 
L 96.8804 109.444316 
L 97.417118 108.645548 
L 97.953836 108.270721 
L 98.490554 108.283646 
L 99.027272 108.736023 
L 99.56399 108.309496 
L 101.174144 108.169906 
L 101.710862 108.02773 
L 102.24758 107.645149 
L 102.784298 107.839024 
L 103.857734 107.885555 
L 104.394452 109.004864 
L 105.467888 109.154795 
L 106.541324 109.16255 
L 107.078042 108.177661 
L 107.61476 109.501187 
L 108.151478 108.922144 
L 108.688196 108.816159 
L 109.761632 108.265551 
L 110.835068 108.071675 
L 112.98194 107.415083 
L 113.518658 108.702418 
L 114.055376 109.061735 
L 114.592094 108.575753 
L 115.128812 108.464597 
L 115.66553 108.865274 
L 116.202248 108.950579 
L 117.275684 108.785138 
L 117.812402 108.720513 
L 118.34912 108.516297 
L 118.885838 108.516297 
L 119.422556 108.283646 
L 120.495992 108.368952 
L 121.03271 108.353442 
L 121.569428 108.627453 
L 122.642864 108.751533 
L 123.7163 108.741193 
L 124.253018 108.288816 
L 125.863172 108.120791 
L 126.39989 109.565812 
L 126.936608 109.589077 
L 127.473326 109.935468 
L 129.08348 109.741593 
L 129.620198 109.759688 
L 130.156916 109.483091 
L 130.693634 109.017789 
L 131.230352 111.271919 
L 131.76707 111.38049 
L 132.303788 110.881582 
L 132.840506 110.811787 
L 133.377224 111.041853 
L 133.913942 110.336145 
L 135.524097 110.36458 
L 136.060815 110.26635 
L 136.597533 111.013418 
L 137.670969 110.703217 
L 138.207687 110.524851 
L 138.744405 110.573966 
L 139.281123 112.445514 
L 139.817841 112.887551 
L 140.891277 112.921156 
L 141.427995 112.569595 
L 141.964713 113.065917 
L 142.501431 112.926326 
L 143.038149 112.944421 
L 143.574867 112.445514 
L 144.111585 112.321434 
L 145.185021 112.662655 
L 146.258457 113.109862 
L 146.795175 112.616125 
L 147.331893 112.339529 
L 148.942047 112.63939 
L 149.478765 112.872041 
L 150.015483 113.761285 
L 151.088919 113.771625 
L 151.625637 112.952176 
L 152.699073 112.947006 
L 153.235791 112.68592 
L 153.772509 112.590275 
L 155.382663 112.72728 
L 155.919381 112.479119 
L 156.456099 112.616125 
L 156.992817 112.56184 
L 158.066253 113.890535 
L 159.676407 114.118016 
L 160.213125 113.598429 
L 160.749843 113.864685 
L 162.359997 113.926726 
L 162.896715 114.167132 
L 163.433433 114.022371 
L 164.506869 114.761684 
L 165.043587 115.108076 
L 165.580305 115.040865 
L 166.117023 115.544943 
L 166.653741 115.247666 
L 167.727177 114.98141 
L 168.263895 115.030525 
L 168.800613 115.446712 
L 169.337331 114.231757 
L 170.947485 114.260192 
L 174.167793 113.750945 
L 174.704511 114.032711 
L 175.777947 114.187812 
L 176.314665 113.87761 
L 177.924819 113.69666 
L 178.461537 113.761285 
L 179.534973 113.707 
L 180.071691 113.78455 
L 180.608409 114.231757 
L 181.681845 114.332572 
L 182.218563 112.466194 
L 182.755281 112.781566 
L 184.365435 112.789321 
L 184.902153 112.5515 
L 185.975589 112.471364 
L 186.512307 113.290813 
L 188.122461 113.264963 
L 188.659179 113.115032 
L 189.195897 113.096937 
L 189.732615 113.334758 
L 190.806051 113.448499 
L 191.342769 113.104692 
L 192.416205 112.993537 
L 192.952923 112.882381 
L 193.489641 113.293398 
L 194.563078 113.342513 
L 195.099796 112.833266 
L 195.636514 112.908231 
L 196.173232 112.766056 
L 197.246668 112.174088 
L 197.783386 112.130143 
L 198.320104 111.938852 
L 199.39354 112.078443 
L 199.930258 112.411909 
L 200.466976 112.61354 
L 201.540412 112.62905 
L 202.07713 112.432589 
L 203.687284 112.484289 
L 204.224002 112.504969 
L 205.297438 112.298169 
L 205.834156 112.58769 
L 206.370874 112.365379 
L 206.907592 112.355039 
L 207.44431 112.073273 
L 207.981028 112.127558 
L 208.517746 111.884567 
L 209.591182 111.900077 
L 210.1279 111.892322 
L 210.664618 111.569195 
L 211.201336 111.460625 
L 212.81149 111.414095 
L 213.348208 111.163349 
L 213.884926 111.54593 
L 214.421644 111.732051 
L 214.958362 111.54076 
L 216.031798 111.538175 
L 216.568516 111.770826 
L 217.105234 111.393415 
L 217.641952 111.672596 
L 218.17867 111.512325 
L 219.252106 111.45287 
L 219.788824 111.256409 
L 220.86226 111.318449 
L 221.398978 111.388245 
L 222.472414 111.308109 
L 223.009132 111.884567 
L 223.54585 111.887152 
L 224.082568 111.703616 
L 224.619286 112.003477 
L 227.839594 112.060348 
L 228.91303 112.326604 
L 229.986466 112.174088 
L 230.523184 112.517895 
L 232.133338 112.479119 
L 233.206774 113.011632 
L 233.743492 112.846191 
L 234.28021 112.954761 
L 234.816928 112.786736 
L 235.353646 113.078842 
L 235.890364 113.094352 
L 236.427082 112.941836 
L 236.9638 112.998707 
L 238.037236 112.600615 
L 238.573954 113.019387 
L 239.110672 112.843606 
L 240.184108 112.939251 
L 241.794262 113.109862 
L 242.33098 112.791906 
L 243.404416 112.879796 
L 243.404416 112.879796 
" clip-path="url(#pdfff73b7f8)" style="fill: none; stroke: #dd8452; stroke-width: 1.5; stroke-linecap: square"/>
   </g>
   <g id="line2d_11">
    <path d="M 47.502343 21.388496 
L 48.039061 21.874478 
L 48.575779 23.707251 
L 49.112497 25.956211 
L 49.649215 36.21612 
L 50.185933 32.873701 
L 50.722651 31.224464 
L 51.259369 37.265635 
L 51.796087 37.26305 
L 52.332805 36.624552 
L 52.869523 36.2885 
L 53.406241 38.289299 
L 53.942959 33.680224 
L 54.479677 38.695146 
L 55.016395 46.63113 
L 55.553113 46.044333 
L 56.089831 46.858611 
L 56.626549 49.200631 
L 57.163267 50.017495 
L 57.699985 63.322547 
L 58.773421 74.673331 
L 59.310139 74.608706 
L 59.846857 75.373869 
L 60.383575 79.649478 
L 60.920293 85.476093 
L 61.457011 84.72127 
L 61.993729 84.90222 
L 62.530447 84.72644 
L 63.067165 88.123144 
L 63.603883 95.761852 
L 64.140601 96.899257 
L 64.677319 94.771793 
L 65.214037 94.223771 
L 65.750755 89.963672 
L 66.824191 89.875782 
L 67.360909 86.166291 
L 67.897627 89.702586 
L 68.434345 89.57075 
L 68.971063 92.97004 
L 70.044499 92.82011 
L 70.581217 91.039037 
L 71.117935 92.94936 
L 71.654653 93.073441 
L 72.728089 99.016381 
L 73.264807 99.753109 
L 73.801525 101.629828 
L 74.338243 103.067094 
L 74.874961 103.074849 
L 75.411679 104.108853 
L 75.948397 103.995113 
L 76.485116 103.43675 
L 77.021834 103.731442 
L 77.558552 103.653891 
L 78.09527 103.868447 
L 78.631988 103.560831 
L 79.168706 103.684911 
L 79.705424 103.493621 
L 80.242142 103.496206 
L 80.77886 105.150613 
L 81.315578 105.734825 
L 81.852296 104.809391 
L 82.389014 105.535779 
L 82.925732 104.863677 
L 83.46245 104.845581 
L 83.999168 105.486664 
L 84.535886 105.075647 
L 85.072604 105.411699 
L 85.609322 105.414284 
L 86.682758 103.501376 
L 87.219476 103.478111 
L 87.756194 103.989943 
L 89.366348 104.695651 
L 89.903066 104.325994 
L 90.976502 104.225179 
L 91.51322 103.630626 
L 92.049938 103.633211 
L 92.586656 103.483281 
L 93.123374 104.512115 
L 93.660092 106.85672 
L 94.19681 107.598618 
L 95.270246 108.115621 
L 95.806964 108.164736 
L 96.343682 108.00188 
L 99.027272 108.066505 
L 99.56399 107.402157 
L 100.637426 106.706789 
L 101.710862 106.745565 
L 102.24758 106.626654 
L 102.784298 107.208282 
L 103.321016 107.179847 
L 103.857734 106.91359 
L 104.394452 106.957536 
L 104.93117 107.270322 
L 106.004606 106.71713 
L 106.541324 106.719715 
L 107.078042 107.660659 
L 107.61476 107.709774 
L 108.151478 107.968275 
L 108.688196 107.846779 
L 109.224914 108.875614 
L 109.761632 108.268136 
L 110.29835 108.030315 
L 111.371786 108.133716 
L 111.908504 108.979014 
L 113.518658 108.730853 
L 114.055376 109.498602 
L 114.592094 109.514112 
L 115.128812 110.566211 
L 116.202248 110.708387 
L 116.738966 110.325805 
L 117.275684 110.40077 
L 117.812402 110.633421 
L 118.34912 110.628251 
L 118.885838 110.274105 
L 119.959274 110.232745 
L 120.495992 109.865673 
L 121.03271 110.473151 
L 121.569428 110.24567 
L 122.106146 109.798463 
L 122.642864 109.777783 
L 123.179582 109.330576 
L 123.7163 109.382276 
L 124.789736 108.467182 
L 125.326454 108.580923 
L 126.39989 108.622283 
L 126.936608 108.787723 
L 127.473326 107.756304 
L 128.010044 107.751134 
L 128.546762 107.528823 
L 129.08348 107.510728 
L 129.620198 107.301342 
L 130.156916 107.795079 
L 131.230352 106.735225 
L 132.303788 107.324607 
L 132.840506 107.373722 
L 133.377224 106.890325 
L 133.913942 108.172491 
L 134.987378 108.211266 
L 135.524097 107.9812 
L 136.597533 107.93984 
L 137.670969 107.854534 
L 138.207687 108.451672 
L 139.817841 108.317251 
L 140.354559 108.555072 
L 140.891277 108.599018 
L 141.427995 108.441332 
L 142.501431 108.619698 
L 143.038149 108.823914 
L 143.574867 108.684323 
L 144.111585 108.673983 
L 144.648303 108.963504 
L 145.185021 109.007449 
L 145.721739 109.969074 
L 146.258457 110.085399 
L 147.868611 110.025944 
L 148.405329 110.147439 
L 149.478765 109.816558 
L 150.552201 109.873428 
L 151.625637 109.863088 
L 152.162355 110.243085 
L 152.699073 110.051794 
L 153.235791 110.142269 
L 153.772509 109.819143 
L 154.309227 109.994924 
L 154.845945 110.033699 
L 155.382663 109.938053 
L 156.456099 110.025944 
L 156.992817 110.511926 
L 157.529535 110.493831 
L 158.602971 110.744577 
L 159.139689 110.793692 
L 159.676407 110.387845 
L 160.749843 110.21465 
L 161.286561 110.716142 
L 161.823279 110.703217 
L 162.359997 111.36498 
L 162.896715 110.933283 
L 163.433433 111.189199 
L 164.506869 111.150424 
L 165.043587 111.137499 
L 165.580305 111.396 
L 166.117023 111.48389 
L 167.190459 112.145653 
L 168.800613 112.106878 
L 169.337331 112.274904 
L 170.410767 112.187013 
L 170.947485 112.440344 
L 171.484203 112.321434 
L 172.020921 112.334359 
L 172.557639 112.236128 
L 173.094357 111.807016 
L 173.631075 112.404154 
L 174.167793 112.370549 
L 174.704511 112.742791 
L 175.241229 112.978027 
L 176.314665 113.078842 
L 176.851383 112.72728 
L 177.388101 113.164147 
L 177.924819 114.009446 
L 178.461537 114.012031 
L 178.998255 114.130942 
L 182.218563 114.081826 
L 183.828717 114.195567 
L 184.365435 113.80523 
L 184.902153 114.012031 
L 185.438871 112.523065 
L 185.975589 112.683335 
L 187.049025 111.956947 
L 188.122461 111.902662 
L 188.659179 111.923342 
L 189.195897 112.59286 
L 190.806051 112.140483 
L 191.342769 112.616125 
L 191.879487 112.357624 
L 192.416205 112.533405 
L 195.099796 112.6549 
L 195.636514 112.347284 
L 197.246668 112.458439 
L 199.930258 112.926326 
L 200.466976 112.471364 
L 201.540412 112.210278 
L 202.613848 112.259393 
L 203.150566 112.029327 
L 204.224002 111.995722 
L 204.76072 111.913002 
L 205.834156 112.068103 
L 206.907592 111.982797 
L 207.981028 112.492044 
L 208.517746 112.409324 
L 209.054464 112.057763 
L 210.664618 111.946607 
L 212.274772 111.752731 
L 212.81149 111.941437 
L 213.348208 111.147839 
L 213.884926 110.873827 
L 214.958362 111.000493 
L 215.49508 111.186614 
L 216.031798 111.215049 
L 216.568516 111.129744 
L 217.105234 111.292599 
L 217.641952 111.641576 
L 218.17867 111.297769 
L 218.715388 111.434775 
L 219.252106 111.362395 
L 220.325542 111.408925 
L 221.935696 111.43736 
L 222.472414 112.189598 
L 223.009132 112.548915 
L 223.54585 112.58252 
L 224.082568 112.856531 
L 225.156004 112.861701 
L 225.692722 113.140882 
L 227.302876 113.215848 
L 227.839594 112.872041 
L 228.376312 112.735035 
L 228.91303 112.461024 
L 229.449748 112.437759 
L 229.986466 112.585105 
L 231.59662 112.039667 
L 232.133338 111.670011 
L 233.206774 111.507155 
L 234.28021 112.161163 
L 236.427082 111.918172 
L 236.9638 112.396399 
L 239.110672 112.51014 
L 239.64739 112.882381 
L 240.720826 112.998707 
L 241.257544 113.158977 
L 241.794262 112.853946 
L 243.404416 112.996122 
L 243.404416 112.996122 
" clip-path="url(#pdfff73b7f8)" style="fill: none; stroke: #55a868; stroke-width: 1.5; stroke-linecap: square"/>
   </g>
   <g id="line2d_12"/>
   <g id="line2d_13"/>
   <g id="line2d_14"/>
   <g id="patch_3">
    <path d="M 46.965625 150.84327 
L 46.965625 7.2 
" style="fill: none; stroke: #000000; stroke-width: 0.8; stroke-linejoin: miter; stroke-linecap: square"/>
   </g>
   <g id="patch_4">
    <path d="M 253.19952 150.84327 
L 253.19952 7.2 
" style="fill: none; stroke: #000000; stroke-width: 0.8; stroke-linejoin: miter; stroke-linecap: square"/>
   </g>
   <g id="patch_5">
    <path d="M 46.965625 150.84327 
L 253.19952 150.84327 
" style="fill: none; stroke: #000000; stroke-width: 0.8; stroke-linejoin: miter; stroke-linecap: square"/>
   </g>
   <g id="patch_6">
    <path d="M 46.965625 7.2 
L 253.19952 7.2 
" style="fill: none; stroke: #000000; stroke-width: 0.8; stroke-linejoin: miter; stroke-linecap: square"/>
   </g>
   <g id="legend_1">
    <g id="patch_7">
     <path d="M 97.754207 59.234375 
L 246.19952 59.234375 
Q 248.19952 59.234375 248.19952 57.234375 
L 248.19952 14.2 
Q 248.19952 12.2 246.19952 12.2 
L 97.754207 12.2 
Q 95.754207 12.2 95.754207 14.2 
L 95.754207 57.234375 
Q 95.754207 59.234375 97.754207 59.234375 
z
" style="fill: #ffffff; opacity: 0.8; stroke: #cccccc; stroke-linejoin: miter"/>
    </g>
    <g id="line2d_15">
     <path d="M 99.754207 20.298438 
L 109.754207 20.298438 
L 119.754207 20.298438 
" style="fill: none; stroke: #4c72b0; stroke-width: 1.5; stroke-linecap: square"/>
    </g>
    <g id="text_11">
     <!-- Random -->
     <g transform="translate(127.754207 23.798438) scale(0.1 -0.1)">
      <defs>
       <path id="DejaVuSans-52" d="M 2841 2188 
Q 3044 2119 3236 1894 
Q 3428 1669 3622 1275 
L 4263 0 
L 3584 0 
L 2988 1197 
Q 2756 1666 2539 1819 
Q 2322 1972 1947 1972 
L 1259 1972 
L 1259 0 
L 628 0 
L 628 4666 
L 2053 4666 
Q 2853 4666 3247 4331 
Q 3641 3997 3641 3322 
Q 3641 2881 3436 2590 
Q 3231 2300 2841 2188 
z
M 1259 4147 
L 1259 2491 
L 2053 2491 
Q 2509 2491 2742 2702 
Q 2975 2913 2975 3322 
Q 2975 3731 2742 3939 
Q 2509 4147 2053 4147 
L 1259 4147 
z
" transform="scale(0.015625)"/>
       <path id="DejaVuSans-64" d="M 2906 2969 
L 2906 4863 
L 3481 4863 
L 3481 0 
L 2906 0 
L 2906 525 
Q 2725 213 2448 61 
Q 2172 -91 1784 -91 
Q 1150 -91 751 415 
Q 353 922 353 1747 
Q 353 2572 751 3078 
Q 1150 3584 1784 3584 
Q 2172 3584 2448 3432 
Q 2725 3281 2906 2969 
z
M 947 1747 
Q 947 1113 1208 752 
Q 1469 391 1925 391 
Q 2381 391 2643 752 
Q 2906 1113 2906 1747 
Q 2906 2381 2643 2742 
Q 2381 3103 1925 3103 
Q 1469 3103 1208 2742 
Q 947 2381 947 1747 
z
" transform="scale(0.015625)"/>
      </defs>
      <use xlink:href="#DejaVuSans-52"/>
      <use xlink:href="#DejaVuSans-61" x="67.232422"/>
      <use xlink:href="#DejaVuSans-6e" x="128.511719"/>
      <use xlink:href="#DejaVuSans-64" x="191.890625"/>
      <use xlink:href="#DejaVuSans-6f" x="255.367188"/>
      <use xlink:href="#DejaVuSans-6d" x="316.548828"/>
     </g>
    </g>
    <g id="line2d_16">
     <path d="M 99.754207 34.976563 
L 109.754207 34.976563 
L 119.754207 34.976563 
" style="fill: none; stroke: #dd8452; stroke-width: 1.5; stroke-linecap: square"/>
    </g>
    <g id="text_12">
     <!-- Classification-optimal -->
     <g transform="translate(127.754207 38.476563) scale(0.1 -0.1)">
      <defs>
       <path id="DejaVuSans-2d" d="M 313 2009 
L 1997 2009 
L 1997 1497 
L 313 1497 
L 313 2009 
z
" transform="scale(0.015625)"/>
      </defs>
      <use xlink:href="#DejaVuSans-43"/>
      <use xlink:href="#DejaVuSans-6c" x="69.824219"/>
      <use xlink:href="#DejaVuSans-61" x="97.607422"/>
      <use xlink:href="#DejaVuSans-73" x="158.886719"/>
      <use xlink:href="#DejaVuSans-73" x="210.986328"/>
      <use xlink:href="#DejaVuSans-69" x="263.085938"/>
      <use xlink:href="#DejaVuSans-66" x="290.869141"/>
      <use xlink:href="#DejaVuSans-69" x="326.074219"/>
      <use xlink:href="#DejaVuSans-63" x="353.857422"/>
      <use xlink:href="#DejaVuSans-61" x="408.837891"/>
      <use xlink:href="#DejaVuSans-74" x="470.117188"/>
      <use xlink:href="#DejaVuSans-69" x="509.326172"/>
      <use xlink:href="#DejaVuSans-6f" x="537.109375"/>
      <use xlink:href="#DejaVuSans-6e" x="598.291016"/>
      <use xlink:href="#DejaVuSans-2d" x="661.669922"/>
      <use xlink:href="#DejaVuSans-6f" x="699.628906"/>
      <use xlink:href="#DejaVuSans-70" x="760.810547"/>
      <use xlink:href="#DejaVuSans-74" x="824.287109"/>
      <use xlink:href="#DejaVuSans-69" x="863.496094"/>
      <use xlink:href="#DejaVuSans-6d" x="891.279297"/>
      <use xlink:href="#DejaVuSans-61" x="988.691406"/>
      <use xlink:href="#DejaVuSans-6c" x="1049.970703"/>
     </g>
    </g>
    <g id="line2d_17">
     <path d="M 99.754207 49.654688 
L 109.754207 49.654688 
L 119.754207 49.654688 
" style="fill: none; stroke: #55a868; stroke-width: 1.5; stroke-linecap: square"/>
    </g>
    <g id="text_13">
     <!-- Reconstruction-optimal -->
     <g transform="translate(127.754207 53.154688) scale(0.1 -0.1)">
      <defs>
       <path id="DejaVuSans-75" d="M 544 1381 
L 544 3500 
L 1119 3500 
L 1119 1403 
Q 1119 906 1312 657 
Q 1506 409 1894 409 
Q 2359 409 2629 706 
Q 2900 1003 2900 1516 
L 2900 3500 
L 3475 3500 
L 3475 0 
L 2900 0 
L 2900 538 
Q 2691 219 2414 64 
Q 2138 -91 1772 -91 
Q 1169 -91 856 284 
Q 544 659 544 1381 
z
M 1991 3584 
L 1991 3584 
z
" transform="scale(0.015625)"/>
      </defs>
      <use xlink:href="#DejaVuSans-52"/>
      <use xlink:href="#DejaVuSans-65" x="64.982422"/>
      <use xlink:href="#DejaVuSans-63" x="126.505859"/>
      <use xlink:href="#DejaVuSans-6f" x="181.486328"/>
      <use xlink:href="#DejaVuSans-6e" x="242.667969"/>
      <use xlink:href="#DejaVuSans-73" x="306.046875"/>
      <use xlink:href="#DejaVuSans-74" x="358.146484"/>
      <use xlink:href="#DejaVuSans-72" x="397.355469"/>
      <use xlink:href="#DejaVuSans-75" x="438.46875"/>
      <use xlink:href="#DejaVuSans-63" x="501.847656"/>
      <use xlink:href="#DejaVuSans-74" x="556.828125"/>
      <use xlink:href="#DejaVuSans-69" x="596.037109"/>
      <use xlink:href="#DejaVuSans-6f" x="623.820312"/>
      <use xlink:href="#DejaVuSans-6e" x="685.001953"/>
      <use xlink:href="#DejaVuSans-2d" x="748.380859"/>
      <use xlink:href="#DejaVuSans-6f" x="786.339844"/>
      <use xlink:href="#DejaVuSans-70" x="847.521484"/>
      <use xlink:href="#DejaVuSans-74" x="910.998047"/>
      <use xlink:href="#DejaVuSans-69" x="950.207031"/>
      <use xlink:href="#DejaVuSans-6d" x="977.990234"/>
      <use xlink:href="#DejaVuSans-61" x="1075.402344"/>
      <use xlink:href="#DejaVuSans-6c" x="1136.681641"/>
     </g>
    </g>
   </g>
  </g>
 </g>
 <defs>
  <clipPath id="pdfff73b7f8">
   <rect x="46.965625" y="7.2" width="206.233895" height="143.64327"/>
  </clipPath>
 </defs>
</svg>
