<?xml version="1.0" encoding="utf-8" standalone="no"?>
<!DOCTYPE svg PUBLIC "-//W3C//DTD SVG 1.1//EN"
  "http://www.w3.org/Graphics/SVG/1.1/DTD/svg11.dtd">
<svg xmlns:xlink="http://www.w3.org/1999/xlink" width="260.39952pt" height="188.39952pt" viewBox="0 0 260.39952 188.39952" xmlns="http://www.w3.org/2000/svg" version="1.1">
 <metadata>
  <rdf:RDF xmlns:dc="http://purl.org/dc/elements/1.1/" xmlns:cc="http://creativecommons.org/ns#" xmlns:rdf="http://www.w3.org/1999/02/22-rdf-syntax-ns#">
   <cc:Work>
    <dc:type rdf:resource="http://purl.org/dc/dcmitype/StillImage"/>
    <dc:date>1980-01-01T00:00:00+00:00</dc:date>
    <dc:format>image/svg+xml</dc:format>
    <dc:creator>
     <cc:Agent>
      <dc:title>Matplotlib v3.7.5, https://matplotlib.org/</dc:title>
     </cc:Agent>
    </dc:creator>
   </cc:Work>
  </rdf:RDF>
 </metadata>
 <defs>
  <style type="text/css">*{stroke-linejoin: round; stroke-linecap: butt}</style>
 </defs>
 <g id="figure_1">
  <g id="patch_1">
   <path d="M 0 188.39952 
L 260.39952 188.39952 
L 260.39952 0 
L 0 0 
z
" style="fill: #ffffff"/>
  </g>
  <g id="axes_1">
   <g id="patch_2">
    <path d="M 46.965625 150.84327 
L 253.19952 150.84327 
L 253.19952 7.2 
L 46.965625 7.2 
z
" style="fill: #ffffff"/>
   </g>
   <g id="PolyCollection_1">
    <defs>
     <path id="m23bd75b687" d="M 47.502343 -174.359364 
L 47.502343 -173.683589 
L 48.039061 -170.189684 
L 48.575779 -164.077493 
L 49.112497 -162.698645 
L 49.649215 -161.078627 
L 50.185933 -162.515878 
L 50.722651 -158.394572 
L 51.259369 -149.880126 
L 51.796087 -141.807775 
L 52.332805 -134.649449 
L 52.869523 -144.532458 
L 53.406241 -140.479523 
L 53.942959 -131.00801 
L 54.479677 -126.251875 
L 55.016395 -126.239242 
L 55.553113 -120.835583 
L 56.089831 -120.502869 
L 56.626549 -120.876148 
L 57.163267 -107.729994 
L 57.699985 -107.1563 
L 58.236703 -101.010907 
L 58.773421 -86.694446 
L 59.310139 -87.159204 
L 59.846857 -87.303945 
L 60.383575 -81.48625 
L 60.920293 -82.113524 
L 61.457011 -67.62674 
L 61.993729 -72.677435 
L 62.530447 -65.503937 
L 63.067165 -67.845057 
L 63.603883 -67.261078 
L 64.140601 -57.807277 
L 64.677319 -58.370878 
L 65.214037 -57.880727 
L 65.750755 -42.124475 
L 66.287473 -37.55625 
L 66.824191 -37.55625 
L 67.360909 -37.55625 
L 67.897627 -37.55625 
L 68.434345 -37.55625 
L 68.971063 -37.55625 
L 69.507781 -37.55625 
L 70.044499 -37.55625 
L 70.581217 -37.55625 
L 71.117935 -37.55625 
L 71.654653 -37.55625 
L 72.191371 -37.55625 
L 72.728089 -37.55625 
L 73.264807 -37.55625 
L 73.801525 -37.55625 
L 74.338243 -37.55625 
L 74.874961 -37.55625 
L 75.411679 -37.55625 
L 75.948397 -37.55625 
L 76.485116 -37.55625 
L 77.021834 -37.55625 
L 77.558552 -37.55625 
L 78.09527 -37.55625 
L 78.631988 -37.55625 
L 79.168706 -37.55625 
L 79.705424 -37.55625 
L 80.242142 -37.55625 
L 80.77886 -37.55625 
L 81.315578 -37.55625 
L 81.852296 -37.55625 
L 82.389014 -37.55625 
L 82.925732 -37.55625 
L 83.46245 -37.55625 
L 83.999168 -37.55625 
L 84.535886 -37.55625 
L 85.072604 -37.55625 
L 85.609322 -37.55625 
L 86.14604 -37.55625 
L 86.682758 -37.55625 
L 87.219476 -37.55625 
L 87.756194 -37.55625 
L 88.292912 -37.55625 
L 88.82963 -37.55625 
L 89.366348 -37.55625 
L 89.903066 -37.55625 
L 90.439784 -37.55625 
L 90.976502 -37.55625 
L 91.51322 -37.55625 
L 92.049938 -37.55625 
L 92.586656 -37.55625 
L 93.123374 -37.55625 
L 93.660092 -37.55625 
L 94.19681 -37.55625 
L 94.733528 -37.55625 
L 95.270246 -37.55625 
L 95.806964 -37.55625 
L 96.343682 -37.55625 
L 96.8804 -37.55625 
L 97.417118 -37.55625 
L 97.953836 -37.55625 
L 98.490554 -37.55625 
L 99.027272 -37.55625 
L 99.56399 -37.55625 
L 100.100708 -37.55625 
L 100.637426 -37.55625 
L 101.174144 -37.55625 
L 101.710862 -37.55625 
L 102.24758 -37.55625 
L 102.784298 -37.55625 
L 103.321016 -37.55625 
L 103.857734 -37.55625 
L 104.394452 -37.55625 
L 104.93117 -37.55625 
L 105.467888 -37.55625 
L 106.004606 -37.55625 
L 106.541324 -37.55625 
L 107.078042 -37.55625 
L 107.61476 -37.55625 
L 108.151478 -37.55625 
L 108.688196 -37.55625 
L 109.224914 -37.55625 
L 109.761632 -37.55625 
L 110.29835 -37.55625 
L 110.835068 -37.55625 
L 111.371786 -37.55625 
L 111.908504 -37.55625 
L 112.445222 -37.55625 
L 112.98194 -37.55625 
L 113.518658 -37.55625 
L 114.055376 -37.55625 
L 114.592094 -37.55625 
L 115.128812 -37.55625 
L 115.66553 -37.55625 
L 116.202248 -37.55625 
L 116.738966 -37.55625 
L 117.275684 -37.55625 
L 117.812402 -37.55625 
L 118.34912 -37.55625 
L 118.885838 -37.55625 
L 119.422556 -37.55625 
L 119.959274 -37.55625 
L 120.495992 -37.55625 
L 121.03271 -37.55625 
L 121.569428 -37.55625 
L 122.106146 -37.55625 
L 122.642864 -37.55625 
L 123.179582 -37.55625 
L 123.7163 -37.55625 
L 124.253018 -37.55625 
L 124.789736 -37.55625 
L 125.326454 -37.55625 
L 125.863172 -37.55625 
L 126.39989 -37.55625 
L 126.936608 -37.55625 
L 127.473326 -37.55625 
L 128.010044 -37.55625 
L 128.546762 -37.55625 
L 129.08348 -37.55625 
L 129.620198 -37.55625 
L 130.156916 -37.55625 
L 130.693634 -37.55625 
L 131.230352 -37.55625 
L 131.76707 -37.55625 
L 132.303788 -37.55625 
L 132.840506 -37.55625 
L 133.377224 -37.55625 
L 133.913942 -37.55625 
L 134.45066 -37.55625 
L 134.987378 -37.55625 
L 135.524097 -37.55625 
L 136.060815 -37.55625 
L 136.597533 -37.55625 
L 137.134251 -37.55625 
L 137.670969 -37.55625 
L 138.207687 -37.55625 
L 138.744405 -37.55625 
L 139.281123 -37.55625 
L 139.817841 -37.55625 
L 140.354559 -37.55625 
L 140.891277 -37.55625 
L 141.427995 -37.55625 
L 141.964713 -37.55625 
L 142.501431 -37.55625 
L 143.038149 -37.55625 
L 143.574867 -37.55625 
L 144.111585 -37.55625 
L 144.648303 -37.55625 
L 145.185021 -37.55625 
L 145.721739 -37.55625 
L 146.258457 -37.55625 
L 146.795175 -37.55625 
L 147.331893 -37.55625 
L 147.868611 -37.55625 
L 148.405329 -37.55625 
L 148.942047 -37.55625 
L 149.478765 -37.55625 
L 150.015483 -37.55625 
L 150.552201 -37.55625 
L 151.088919 -37.55625 
L 151.625637 -37.55625 
L 152.162355 -37.55625 
L 152.699073 -37.55625 
L 153.235791 -37.55625 
L 153.772509 -37.55625 
L 154.309227 -37.55625 
L 154.845945 -37.55625 
L 155.382663 -37.55625 
L 155.919381 -37.55625 
L 156.456099 -37.55625 
L 156.992817 -37.55625 
L 157.529535 -37.55625 
L 158.066253 -37.55625 
L 158.602971 -37.55625 
L 159.139689 -37.55625 
L 159.676407 -37.55625 
L 160.213125 -37.55625 
L 160.749843 -37.55625 
L 161.286561 -37.55625 
L 161.823279 -37.55625 
L 162.359997 -37.55625 
L 162.896715 -37.55625 
L 163.433433 -37.55625 
L 163.970151 -37.55625 
L 164.506869 -37.55625 
L 165.043587 -37.55625 
L 165.580305 -37.55625 
L 166.117023 -37.55625 
L 166.653741 -37.55625 
L 167.190459 -37.55625 
L 167.727177 -37.55625 
L 168.263895 -37.55625 
L 168.800613 -37.55625 
L 169.337331 -37.55625 
L 169.874049 -37.55625 
L 170.410767 -37.55625 
L 170.947485 -37.55625 
L 171.484203 -37.55625 
L 172.020921 -37.55625 
L 172.557639 -37.55625 
L 173.094357 -37.55625 
L 173.631075 -37.55625 
L 174.167793 -37.55625 
L 174.704511 -37.55625 
L 175.241229 -37.55625 
L 175.777947 -37.55625 
L 176.314665 -37.55625 
L 176.851383 -37.55625 
L 177.388101 -37.55625 
L 177.924819 -37.55625 
L 178.461537 -37.55625 
L 178.998255 -37.55625 
L 179.534973 -37.55625 
L 180.071691 -37.55625 
L 180.608409 -37.55625 
L 181.145127 -37.55625 
L 181.681845 -37.55625 
L 182.218563 -37.55625 
L 182.755281 -37.55625 
L 183.291999 -37.55625 
L 183.828717 -37.55625 
L 184.365435 -37.55625 
L 184.902153 -37.55625 
L 185.438871 -37.55625 
L 185.975589 -37.55625 
L 186.512307 -37.55625 
L 187.049025 -37.55625 
L 187.585743 -37.55625 
L 188.122461 -37.55625 
L 188.659179 -37.55625 
L 189.195897 -37.55625 
L 189.732615 -37.55625 
L 190.269333 -37.55625 
L 190.806051 -37.55625 
L 191.342769 -37.55625 
L 191.879487 -37.55625 
L 192.416205 -37.55625 
L 192.952923 -37.55625 
L 193.489641 -37.55625 
L 194.026359 -37.55625 
L 194.563078 -37.55625 
L 195.099796 -37.55625 
L 195.636514 -37.55625 
L 196.173232 -37.55625 
L 196.70995 -37.55625 
L 197.246668 -37.55625 
L 197.783386 -37.55625 
L 198.320104 -37.55625 
L 198.856822 -37.55625 
L 199.39354 -37.55625 
L 199.930258 -37.55625 
L 200.466976 -37.55625 
L 201.003694 -37.55625 
L 201.540412 -37.55625 
L 202.07713 -37.55625 
L 202.613848 -37.55625 
L 203.150566 -37.55625 
L 203.687284 -37.55625 
L 204.224002 -37.55625 
L 204.76072 -37.55625 
L 205.297438 -37.55625 
L 205.834156 -37.55625 
L 206.370874 -37.55625 
L 206.907592 -37.55625 
L 207.44431 -37.55625 
L 207.981028 -37.55625 
L 208.517746 -37.55625 
L 209.054464 -37.55625 
L 209.591182 -37.55625 
L 210.1279 -37.55625 
L 210.664618 -37.55625 
L 211.201336 -37.55625 
L 211.738054 -37.55625 
L 212.274772 -37.55625 
L 212.81149 -37.55625 
L 213.348208 -37.55625 
L 213.884926 -37.55625 
L 214.421644 -37.55625 
L 214.958362 -37.55625 
L 215.49508 -37.55625 
L 216.031798 -37.55625 
L 216.568516 -37.55625 
L 217.105234 -37.55625 
L 217.641952 -37.55625 
L 218.17867 -37.55625 
L 218.715388 -37.55625 
L 219.252106 -37.55625 
L 219.788824 -37.55625 
L 220.325542 -37.55625 
L 220.86226 -37.55625 
L 221.398978 -37.55625 
L 221.935696 -37.55625 
L 222.472414 -37.55625 
L 223.009132 -37.55625 
L 223.54585 -37.55625 
L 224.082568 -37.55625 
L 224.619286 -37.55625 
L 225.156004 -37.55625 
L 225.692722 -37.55625 
L 226.22944 -37.55625 
L 226.766158 -37.55625 
L 227.302876 -37.55625 
L 227.839594 -37.55625 
L 228.376312 -37.55625 
L 228.91303 -37.55625 
L 229.449748 -37.55625 
L 229.986466 -37.55625 
L 230.523184 -37.55625 
L 231.059902 -37.55625 
L 231.59662 -37.55625 
L 232.133338 -37.55625 
L 232.670056 -37.55625 
L 233.206774 -37.55625 
L 233.743492 -37.55625 
L 234.28021 -37.55625 
L 234.816928 -37.55625 
L 235.353646 -37.55625 
L 235.890364 -37.55625 
L 236.427082 -37.55625 
L 236.9638 -37.55625 
L 237.500518 -37.55625 
L 238.037236 -37.55625 
L 238.573954 -37.55625 
L 239.110672 -37.55625 
L 239.64739 -37.55625 
L 240.184108 -37.55625 
L 240.720826 -37.55625 
L 241.257544 -37.55625 
L 241.794262 -37.55625 
L 242.33098 -37.55625 
L 242.867698 -37.55625 
L 243.404416 -37.55625 
L 243.404416 -37.55625 
L 243.404416 -37.55625 
L 242.867698 -37.55625 
L 242.33098 -37.55625 
L 241.794262 -37.55625 
L 241.257544 -37.55625 
L 240.720826 -37.55625 
L 240.184108 -37.55625 
L 239.64739 -37.55625 
L 239.110672 -37.55625 
L 238.573954 -37.55625 
L 238.037236 -37.55625 
L 237.500518 -37.55625 
L 236.9638 -37.55625 
L 236.427082 -37.55625 
L 235.890364 -37.55625 
L 235.353646 -37.55625 
L 234.816928 -37.55625 
L 234.28021 -37.55625 
L 233.743492 -37.55625 
L 233.206774 -37.55625 
L 232.670056 -37.55625 
L 232.133338 -37.55625 
L 231.59662 -37.55625 
L 231.059902 -37.55625 
L 230.523184 -37.55625 
L 229.986466 -37.55625 
L 229.449748 -37.55625 
L 228.91303 -37.55625 
L 228.376312 -37.55625 
L 227.839594 -37.55625 
L 227.302876 -37.55625 
L 226.766158 -37.55625 
L 226.22944 -37.55625 
L 225.692722 -37.55625 
L 225.156004 -37.55625 
L 224.619286 -37.55625 
L 224.082568 -37.55625 
L 223.54585 -37.55625 
L 223.009132 -37.55625 
L 222.472414 -37.55625 
L 221.935696 -37.55625 
L 221.398978 -37.55625 
L 220.86226 -37.55625 
L 220.325542 -37.55625 
L 219.788824 -37.55625 
L 219.252106 -37.55625 
L 218.715388 -37.55625 
L 218.17867 -37.55625 
L 217.641952 -37.55625 
L 217.105234 -37.55625 
L 216.568516 -37.55625 
L 216.031798 -37.55625 
L 215.49508 -37.55625 
L 214.958362 -37.55625 
L 214.421644 -37.55625 
L 213.884926 -37.55625 
L 213.348208 -37.55625 
L 212.81149 -37.55625 
L 212.274772 -37.55625 
L 211.738054 -37.55625 
L 211.201336 -37.55625 
L 210.664618 -37.55625 
L 210.1279 -37.55625 
L 209.591182 -37.55625 
L 209.054464 -37.55625 
L 208.517746 -37.55625 
L 207.981028 -37.55625 
L 207.44431 -37.55625 
L 206.907592 -37.55625 
L 206.370874 -37.55625 
L 205.834156 -37.55625 
L 205.297438 -37.55625 
L 204.76072 -37.55625 
L 204.224002 -37.55625 
L 203.687284 -37.55625 
L 203.150566 -37.55625 
L 202.613848 -37.55625 
L 202.07713 -37.55625 
L 201.540412 -37.55625 
L 201.003694 -37.55625 
L 200.466976 -37.55625 
L 199.930258 -37.55625 
L 199.39354 -37.55625 
L 198.856822 -37.55625 
L 198.320104 -37.55625 
L 197.783386 -37.55625 
L 197.246668 -37.55625 
L 196.70995 -37.55625 
L 196.173232 -37.55625 
L 195.636514 -37.55625 
L 195.099796 -37.55625 
L 194.563078 -37.55625 
L 194.026359 -37.55625 
L 193.489641 -37.55625 
L 192.952923 -37.55625 
L 192.416205 -37.55625 
L 191.879487 -37.55625 
L 191.342769 -37.55625 
L 190.806051 -37.55625 
L 190.269333 -37.55625 
L 189.732615 -37.55625 
L 189.195897 -37.55625 
L 188.659179 -37.55625 
L 188.122461 -37.55625 
L 187.585743 -37.55625 
L 187.049025 -37.55625 
L 186.512307 -37.55625 
L 185.975589 -37.55625 
L 185.438871 -37.55625 
L 184.902153 -37.55625 
L 184.365435 -37.55625 
L 183.828717 -37.55625 
L 183.291999 -37.55625 
L 182.755281 -37.55625 
L 182.218563 -37.55625 
L 181.681845 -37.55625 
L 181.145127 -37.55625 
L 180.608409 -37.55625 
L 180.071691 -37.55625 
L 179.534973 -37.55625 
L 178.998255 -37.55625 
L 178.461537 -37.55625 
L 177.924819 -37.55625 
L 177.388101 -37.55625 
L 176.851383 -37.55625 
L 176.314665 -37.55625 
L 175.777947 -37.55625 
L 175.241229 -37.55625 
L 174.704511 -37.55625 
L 174.167793 -37.55625 
L 173.631075 -37.55625 
L 173.094357 -37.55625 
L 172.557639 -37.55625 
L 172.020921 -37.55625 
L 171.484203 -37.55625 
L 170.947485 -37.55625 
L 170.410767 -37.55625 
L 169.874049 -37.55625 
L 169.337331 -37.55625 
L 168.800613 -37.55625 
L 168.263895 -37.55625 
L 167.727177 -37.55625 
L 167.190459 -37.55625 
L 166.653741 -37.55625 
L 166.117023 -37.55625 
L 165.580305 -37.55625 
L 165.043587 -37.55625 
L 164.506869 -37.55625 
L 163.970151 -37.55625 
L 163.433433 -37.55625 
L 162.896715 -37.55625 
L 162.359997 -37.55625 
L 161.823279 -37.55625 
L 161.286561 -37.55625 
L 160.749843 -37.55625 
L 160.213125 -37.55625 
L 159.676407 -37.55625 
L 159.139689 -37.55625 
L 158.602971 -37.55625 
L 158.066253 -37.55625 
L 157.529535 -37.55625 
L 156.992817 -37.55625 
L 156.456099 -37.55625 
L 155.919381 -37.55625 
L 155.382663 -37.55625 
L 154.845945 -37.55625 
L 154.309227 -37.55625 
L 153.772509 -37.55625 
L 153.235791 -37.55625 
L 152.699073 -37.55625 
L 152.162355 -37.55625 
L 151.625637 -37.55625 
L 151.088919 -37.55625 
L 150.552201 -37.55625 
L 150.015483 -37.55625 
L 149.478765 -37.55625 
L 148.942047 -37.55625 
L 148.405329 -37.55625 
L 147.868611 -37.55625 
L 147.331893 -37.55625 
L 146.795175 -37.55625 
L 146.258457 -37.55625 
L 145.721739 -37.55625 
L 145.185021 -37.55625 
L 144.648303 -37.55625 
L 144.111585 -37.55625 
L 143.574867 -37.55625 
L 143.038149 -37.55625 
L 142.501431 -37.55625 
L 141.964713 -37.55625 
L 141.427995 -37.55625 
L 140.891277 -37.55625 
L 140.354559 -37.55625 
L 139.817841 -37.55625 
L 139.281123 -37.55625 
L 138.744405 -37.55625 
L 138.207687 -37.55625 
L 137.670969 -37.55625 
L 137.134251 -37.55625 
L 136.597533 -37.55625 
L 136.060815 -37.55625 
L 135.524097 -37.55625 
L 134.987378 -37.55625 
L 134.45066 -37.55625 
L 133.913942 -37.55625 
L 133.377224 -37.55625 
L 132.840506 -37.55625 
L 132.303788 -37.55625 
L 131.76707 -37.55625 
L 131.230352 -37.55625 
L 130.693634 -37.55625 
L 130.156916 -37.55625 
L 129.620198 -37.55625 
L 129.08348 -37.55625 
L 128.546762 -37.55625 
L 128.010044 -37.55625 
L 127.473326 -37.55625 
L 126.936608 -37.55625 
L 126.39989 -37.55625 
L 125.863172 -37.55625 
L 125.326454 -37.55625 
L 124.789736 -37.55625 
L 124.253018 -37.55625 
L 123.7163 -37.55625 
L 123.179582 -37.55625 
L 122.642864 -37.55625 
L 122.106146 -37.55625 
L 121.569428 -37.55625 
L 121.03271 -37.55625 
L 120.495992 -37.55625 
L 119.959274 -37.55625 
L 119.422556 -37.55625 
L 118.885838 -37.55625 
L 118.34912 -37.55625 
L 117.812402 -37.55625 
L 117.275684 -37.55625 
L 116.738966 -37.55625 
L 116.202248 -37.55625 
L 115.66553 -37.55625 
L 115.128812 -37.55625 
L 114.592094 -37.55625 
L 114.055376 -37.55625 
L 113.518658 -37.55625 
L 112.98194 -37.55625 
L 112.445222 -37.55625 
L 111.908504 -37.55625 
L 111.371786 -37.55625 
L 110.835068 -37.55625 
L 110.29835 -37.55625 
L 109.761632 -37.55625 
L 109.224914 -37.55625 
L 108.688196 -37.55625 
L 108.151478 -37.55625 
L 107.61476 -37.55625 
L 107.078042 -37.55625 
L 106.541324 -37.55625 
L 106.004606 -37.55625 
L 105.467888 -37.55625 
L 104.93117 -37.55625 
L 104.394452 -37.55625 
L 103.857734 -37.55625 
L 103.321016 -37.55625 
L 102.784298 -37.55625 
L 102.24758 -37.55625 
L 101.710862 -37.55625 
L 101.174144 -37.55625 
L 100.637426 -37.55625 
L 100.100708 -37.55625 
L 99.56399 -37.55625 
L 99.027272 -37.55625 
L 98.490554 -37.55625 
L 97.953836 -37.55625 
L 97.417118 -37.55625 
L 96.8804 -37.55625 
L 96.343682 -37.55625 
L 95.806964 -37.55625 
L 95.270246 -37.55625 
L 94.733528 -37.55625 
L 94.19681 -37.55625 
L 93.660092 -37.55625 
L 93.123374 -37.55625 
L 92.586656 -37.55625 
L 92.049938 -37.55625 
L 91.51322 -37.55625 
L 90.976502 -37.55625 
L 90.439784 -37.55625 
L 89.903066 -37.55625 
L 89.366348 -37.55625 
L 88.82963 -37.55625 
L 88.292912 -37.55625 
L 87.756194 -37.55625 
L 87.219476 -37.55625 
L 86.682758 -37.55625 
L 86.14604 -37.55625 
L 85.609322 -37.55625 
L 85.072604 -37.55625 
L 84.535886 -37.55625 
L 83.999168 -37.55625 
L 83.46245 -37.55625 
L 82.925732 -37.55625 
L 82.389014 -37.55625 
L 81.852296 -37.55625 
L 81.315578 -37.55625 
L 80.77886 -37.55625 
L 80.242142 -37.55625 
L 79.705424 -37.55625 
L 79.168706 -37.55625 
L 78.631988 -37.55625 
L 78.09527 -37.55625 
L 77.558552 -37.55625 
L 77.021834 -37.55625 
L 76.485116 -37.55625 
L 75.948397 -37.55625 
L 75.411679 -37.55625 
L 74.874961 -37.55625 
L 74.338243 -37.55625 
L 73.801525 -37.55625 
L 73.264807 -37.55625 
L 72.728089 -37.55625 
L 72.191371 -37.55625 
L 71.654653 -37.55625 
L 71.117935 -37.55625 
L 70.581217 -37.55625 
L 70.044499 -37.55625 
L 69.507781 -37.55625 
L 68.971063 -37.55625 
L 68.434345 -37.55625 
L 67.897627 -37.55625 
L 67.360909 -37.55625 
L 66.824191 -37.55625 
L 66.287473 -37.55625 
L 65.750755 -42.436811 
L 65.214037 -58.54882 
L 64.677319 -59.023608 
L 64.140601 -58.498034 
L 63.603883 -67.829948 
L 63.067165 -68.383582 
L 62.530447 -66.039795 
L 61.993729 -73.253986 
L 61.457011 -68.226145 
L 60.920293 -82.756098 
L 60.383575 -82.068007 
L 59.846857 -87.974387 
L 59.310139 -87.796572 
L 58.773421 -87.215069 
L 58.236703 -101.706996 
L 57.699985 -107.846993 
L 57.163267 -108.383106 
L 56.626549 -121.597504 
L 56.089831 -121.117574 
L 55.553113 -121.467999 
L 55.016395 -126.909685 
L 54.479677 -126.922381 
L 53.942959 -131.62773 
L 53.406241 -141.018175 
L 52.869523 -145.035242 
L 52.332805 -135.25133 
L 51.796087 -142.567157 
L 51.259369 -150.59653 
L 50.722651 -158.97106 
L 50.185933 -163.094969 
L 49.649215 -161.611946 
L 49.112497 -163.437649 
L 48.575779 -164.81656 
L 48.039061 -170.83486 
L 47.502343 -174.359364 
z
" style="stroke: #4c72b0; stroke-opacity: 0.2"/>
    </defs>
    <g clip-path="url(#p3801adfb90)">
     <use xlink:href="#m23bd75b687" x="0" y="188.39952" style="fill: #4c72b0; fill-opacity: 0.2; stroke: #4c72b0; stroke-opacity: 0.2"/>
    </g>
   </g>
   <g id="PolyCollection_2">
    <defs>
     <path id="mf15f04bd17" d="M 47.502343 -167.487918 
L 47.502343 -166.352718 
L 48.039061 -158.346135 
L 48.575779 -158.564643 
L 49.112497 -150.448932 
L 49.649215 -152.7293 
L 50.185933 -144.527316 
L 50.722651 -136.566631 
L 51.259369 -135.850418 
L 51.796087 -133.940981 
L 52.332805 -133.26546 
L 52.869523 -139.14651 
L 53.406241 -122.394658 
L 53.942959 -115.276898 
L 54.479677 -114.053012 
L 55.016395 -112.907782 
L 55.553113 -118.509127 
L 56.089831 -109.312177 
L 56.626549 -101.948104 
L 57.163267 -101.006018 
L 57.699985 -103.78917 
L 58.236703 -88.441558 
L 58.773421 -86.912637 
L 59.310139 -86.699525 
L 59.846857 -85.010818 
L 60.383575 -81.247618 
L 60.920293 -79.457339 
L 61.457011 -76.252852 
L 61.993729 -73.355431 
L 62.530447 -65.948317 
L 63.067165 -59.008309 
L 63.603883 -56.270865 
L 64.140601 -55.887492 
L 64.677319 -54.435005 
L 65.214037 -50.816483 
L 65.750755 -41.850229 
L 66.287473 -37.55625 
L 66.824191 -37.55625 
L 67.360909 -37.55625 
L 67.897627 -37.55625 
L 68.434345 -37.55625 
L 68.971063 -37.55625 
L 69.507781 -37.55625 
L 70.044499 -37.55625 
L 70.581217 -37.55625 
L 71.117935 -37.55625 
L 71.654653 -37.55625 
L 72.191371 -37.55625 
L 72.728089 -37.55625 
L 73.264807 -37.55625 
L 73.801525 -37.55625 
L 74.338243 -37.55625 
L 74.874961 -37.55625 
L 75.411679 -37.55625 
L 75.948397 -37.55625 
L 76.485116 -37.55625 
L 77.021834 -37.55625 
L 77.558552 -37.55625 
L 78.09527 -37.55625 
L 78.631988 -37.55625 
L 79.168706 -37.55625 
L 79.705424 -37.55625 
L 80.242142 -37.55625 
L 80.77886 -37.55625 
L 81.315578 -37.55625 
L 81.852296 -37.55625 
L 82.389014 -37.55625 
L 82.925732 -37.55625 
L 83.46245 -37.55625 
L 83.999168 -37.55625 
L 84.535886 -37.55625 
L 85.072604 -37.55625 
L 85.609322 -37.55625 
L 86.14604 -37.55625 
L 86.682758 -37.55625 
L 87.219476 -37.55625 
L 87.756194 -37.55625 
L 88.292912 -37.55625 
L 88.82963 -37.55625 
L 89.366348 -37.55625 
L 89.903066 -37.55625 
L 90.439784 -37.55625 
L 90.976502 -37.55625 
L 91.51322 -37.55625 
L 92.049938 -37.55625 
L 92.586656 -37.55625 
L 93.123374 -37.55625 
L 93.660092 -37.55625 
L 94.19681 -37.55625 
L 94.733528 -37.55625 
L 95.270246 -37.55625 
L 95.806964 -37.55625 
L 96.343682 -37.55625 
L 96.8804 -37.55625 
L 97.417118 -37.55625 
L 97.953836 -37.55625 
L 98.490554 -37.55625 
L 99.027272 -37.55625 
L 99.56399 -37.55625 
L 100.100708 -37.55625 
L 100.637426 -37.55625 
L 101.174144 -37.55625 
L 101.710862 -37.55625 
L 102.24758 -37.55625 
L 102.784298 -37.55625 
L 103.321016 -37.55625 
L 103.857734 -37.55625 
L 104.394452 -37.55625 
L 104.93117 -37.55625 
L 105.467888 -37.55625 
L 106.004606 -37.55625 
L 106.541324 -37.55625 
L 107.078042 -37.55625 
L 107.61476 -37.55625 
L 108.151478 -37.55625 
L 108.688196 -37.55625 
L 109.224914 -37.55625 
L 109.761632 -37.55625 
L 110.29835 -37.55625 
L 110.835068 -37.55625 
L 111.371786 -37.55625 
L 111.908504 -37.55625 
L 112.445222 -37.55625 
L 112.98194 -37.55625 
L 113.518658 -37.55625 
L 114.055376 -37.55625 
L 114.592094 -37.55625 
L 115.128812 -37.55625 
L 115.66553 -37.55625 
L 116.202248 -37.55625 
L 116.738966 -37.55625 
L 117.275684 -37.55625 
L 117.812402 -37.55625 
L 118.34912 -37.55625 
L 118.885838 -37.55625 
L 119.422556 -37.55625 
L 119.959274 -37.55625 
L 120.495992 -37.55625 
L 121.03271 -37.55625 
L 121.569428 -37.55625 
L 122.106146 -37.55625 
L 122.642864 -37.55625 
L 123.179582 -37.55625 
L 123.7163 -37.55625 
L 124.253018 -37.55625 
L 124.789736 -37.55625 
L 125.326454 -37.55625 
L 125.863172 -37.55625 
L 126.39989 -37.55625 
L 126.936608 -37.55625 
L 127.473326 -37.55625 
L 128.010044 -37.55625 
L 128.546762 -37.55625 
L 129.08348 -37.55625 
L 129.620198 -37.55625 
L 130.156916 -37.55625 
L 130.693634 -37.55625 
L 131.230352 -37.55625 
L 131.76707 -37.55625 
L 132.303788 -37.55625 
L 132.840506 -37.55625 
L 133.377224 -37.55625 
L 133.913942 -37.55625 
L 134.45066 -37.55625 
L 134.987378 -37.55625 
L 135.524097 -37.55625 
L 136.060815 -37.55625 
L 136.597533 -37.55625 
L 137.134251 -37.55625 
L 137.670969 -37.55625 
L 138.207687 -37.55625 
L 138.744405 -37.55625 
L 139.281123 -37.55625 
L 139.817841 -37.55625 
L 140.354559 -37.55625 
L 140.891277 -37.55625 
L 141.427995 -37.55625 
L 141.964713 -37.55625 
L 142.501431 -37.55625 
L 143.038149 -37.55625 
L 143.574867 -37.55625 
L 144.111585 -37.55625 
L 144.648303 -37.55625 
L 145.185021 -37.55625 
L 145.721739 -37.55625 
L 146.258457 -37.55625 
L 146.795175 -37.55625 
L 147.331893 -37.55625 
L 147.868611 -37.55625 
L 148.405329 -37.55625 
L 148.942047 -37.55625 
L 149.478765 -37.55625 
L 150.015483 -37.55625 
L 150.552201 -37.55625 
L 151.088919 -37.55625 
L 151.625637 -37.55625 
L 152.162355 -37.55625 
L 152.699073 -37.55625 
L 153.235791 -37.55625 
L 153.772509 -37.55625 
L 154.309227 -37.55625 
L 154.845945 -37.55625 
L 155.382663 -37.55625 
L 155.919381 -37.55625 
L 156.456099 -37.55625 
L 156.992817 -37.55625 
L 157.529535 -37.55625 
L 158.066253 -37.55625 
L 158.602971 -37.55625 
L 159.139689 -37.55625 
L 159.676407 -37.55625 
L 160.213125 -37.55625 
L 160.749843 -37.55625 
L 161.286561 -37.55625 
L 161.823279 -37.55625 
L 162.359997 -37.55625 
L 162.896715 -37.55625 
L 163.433433 -37.55625 
L 163.970151 -37.55625 
L 164.506869 -37.55625 
L 165.043587 -37.55625 
L 165.580305 -37.55625 
L 166.117023 -37.55625 
L 166.653741 -37.55625 
L 167.190459 -37.55625 
L 167.727177 -37.55625 
L 168.263895 -37.55625 
L 168.800613 -37.55625 
L 169.337331 -37.55625 
L 169.874049 -37.55625 
L 170.410767 -37.55625 
L 170.947485 -37.55625 
L 171.484203 -37.55625 
L 172.020921 -37.55625 
L 172.557639 -37.55625 
L 173.094357 -37.55625 
L 173.631075 -37.55625 
L 174.167793 -37.55625 
L 174.704511 -37.55625 
L 175.241229 -37.55625 
L 175.777947 -37.55625 
L 176.314665 -37.55625 
L 176.851383 -37.55625 
L 177.388101 -37.55625 
L 177.924819 -37.55625 
L 178.461537 -37.55625 
L 178.998255 -37.55625 
L 179.534973 -37.55625 
L 180.071691 -37.55625 
L 180.608409 -37.55625 
L 181.145127 -37.55625 
L 181.681845 -37.55625 
L 182.218563 -37.55625 
L 182.755281 -37.55625 
L 183.291999 -37.55625 
L 183.828717 -37.55625 
L 184.365435 -37.55625 
L 184.902153 -37.55625 
L 185.438871 -37.55625 
L 185.975589 -37.55625 
L 186.512307 -37.55625 
L 187.049025 -37.55625 
L 187.585743 -37.55625 
L 188.122461 -37.55625 
L 188.659179 -37.55625 
L 189.195897 -37.55625 
L 189.732615 -37.55625 
L 190.269333 -37.55625 
L 190.806051 -37.55625 
L 191.342769 -37.55625 
L 191.879487 -37.55625 
L 192.416205 -37.55625 
L 192.952923 -37.55625 
L 193.489641 -37.55625 
L 194.026359 -37.55625 
L 194.563078 -37.55625 
L 195.099796 -37.55625 
L 195.636514 -37.55625 
L 196.173232 -37.55625 
L 196.70995 -37.55625 
L 197.246668 -37.55625 
L 197.783386 -37.55625 
L 198.320104 -37.55625 
L 198.856822 -37.55625 
L 199.39354 -37.55625 
L 199.930258 -37.55625 
L 200.466976 -37.55625 
L 201.003694 -37.55625 
L 201.540412 -37.55625 
L 202.07713 -37.55625 
L 202.613848 -37.55625 
L 203.150566 -37.55625 
L 203.687284 -37.55625 
L 204.224002 -37.55625 
L 204.76072 -37.55625 
L 205.297438 -37.55625 
L 205.834156 -37.55625 
L 206.370874 -37.55625 
L 206.907592 -37.55625 
L 207.44431 -37.55625 
L 207.981028 -37.55625 
L 208.517746 -37.55625 
L 209.054464 -37.55625 
L 209.591182 -37.55625 
L 210.1279 -37.55625 
L 210.664618 -37.55625 
L 211.201336 -37.55625 
L 211.738054 -37.55625 
L 212.274772 -37.55625 
L 212.81149 -37.55625 
L 213.348208 -37.55625 
L 213.884926 -37.55625 
L 214.421644 -37.55625 
L 214.958362 -37.55625 
L 215.49508 -37.55625 
L 216.031798 -37.55625 
L 216.568516 -37.55625 
L 217.105234 -37.55625 
L 217.641952 -37.55625 
L 218.17867 -37.55625 
L 218.715388 -37.55625 
L 219.252106 -37.55625 
L 219.788824 -37.55625 
L 220.325542 -37.55625 
L 220.86226 -37.55625 
L 221.398978 -37.55625 
L 221.935696 -37.55625 
L 222.472414 -37.55625 
L 223.009132 -37.55625 
L 223.54585 -37.55625 
L 224.082568 -37.55625 
L 224.619286 -37.55625 
L 225.156004 -37.55625 
L 225.692722 -37.55625 
L 226.22944 -37.55625 
L 226.766158 -37.55625 
L 227.302876 -37.55625 
L 227.839594 -37.55625 
L 228.376312 -37.55625 
L 228.91303 -37.55625 
L 229.449748 -37.55625 
L 229.986466 -37.55625 
L 230.523184 -37.55625 
L 231.059902 -37.55625 
L 231.59662 -37.55625 
L 232.133338 -37.55625 
L 232.670056 -37.55625 
L 233.206774 -37.55625 
L 233.743492 -37.55625 
L 234.28021 -37.55625 
L 234.816928 -37.55625 
L 235.353646 -37.55625 
L 235.890364 -37.55625 
L 236.427082 -37.55625 
L 236.9638 -37.55625 
L 237.500518 -37.55625 
L 238.037236 -37.55625 
L 238.573954 -37.55625 
L 239.110672 -37.55625 
L 239.64739 -37.55625 
L 240.184108 -37.55625 
L 240.720826 -37.55625 
L 241.257544 -37.55625 
L 241.794262 -37.55625 
L 242.33098 -37.55625 
L 242.867698 -37.55625 
L 243.404416 -37.55625 
L 243.404416 -37.55625 
L 243.404416 -37.55625 
L 242.867698 -37.55625 
L 242.33098 -37.55625 
L 241.794262 -37.55625 
L 241.257544 -37.55625 
L 240.720826 -37.55625 
L 240.184108 -37.55625 
L 239.64739 -37.55625 
L 239.110672 -37.55625 
L 238.573954 -37.55625 
L 238.037236 -37.55625 
L 237.500518 -37.55625 
L 236.9638 -37.55625 
L 236.427082 -37.55625 
L 235.890364 -37.55625 
L 235.353646 -37.55625 
L 234.816928 -37.55625 
L 234.28021 -37.55625 
L 233.743492 -37.55625 
L 233.206774 -37.55625 
L 232.670056 -37.55625 
L 232.133338 -37.55625 
L 231.59662 -37.55625 
L 231.059902 -37.55625 
L 230.523184 -37.55625 
L 229.986466 -37.55625 
L 229.449748 -37.55625 
L 228.91303 -37.55625 
L 228.376312 -37.55625 
L 227.839594 -37.55625 
L 227.302876 -37.55625 
L 226.766158 -37.55625 
L 226.22944 -37.55625 
L 225.692722 -37.55625 
L 225.156004 -37.55625 
L 224.619286 -37.55625 
L 224.082568 -37.55625 
L 223.54585 -37.55625 
L 223.009132 -37.55625 
L 222.472414 -37.55625 
L 221.935696 -37.55625 
L 221.398978 -37.55625 
L 220.86226 -37.55625 
L 220.325542 -37.55625 
L 219.788824 -37.55625 
L 219.252106 -37.55625 
L 218.715388 -37.55625 
L 218.17867 -37.55625 
L 217.641952 -37.55625 
L 217.105234 -37.55625 
L 216.568516 -37.55625 
L 216.031798 -37.55625 
L 215.49508 -37.55625 
L 214.958362 -37.55625 
L 214.421644 -37.55625 
L 213.884926 -37.55625 
L 213.348208 -37.55625 
L 212.81149 -37.55625 
L 212.274772 -37.55625 
L 211.738054 -37.55625 
L 211.201336 -37.55625 
L 210.664618 -37.55625 
L 210.1279 -37.55625 
L 209.591182 -37.55625 
L 209.054464 -37.55625 
L 208.517746 -37.55625 
L 207.981028 -37.55625 
L 207.44431 -37.55625 
L 206.907592 -37.55625 
L 206.370874 -37.55625 
L 205.834156 -37.55625 
L 205.297438 -37.55625 
L 204.76072 -37.55625 
L 204.224002 -37.55625 
L 203.687284 -37.55625 
L 203.150566 -37.55625 
L 202.613848 -37.55625 
L 202.07713 -37.55625 
L 201.540412 -37.55625 
L 201.003694 -37.55625 
L 200.466976 -37.55625 
L 199.930258 -37.55625 
L 199.39354 -37.55625 
L 198.856822 -37.55625 
L 198.320104 -37.55625 
L 197.783386 -37.55625 
L 197.246668 -37.55625 
L 196.70995 -37.55625 
L 196.173232 -37.55625 
L 195.636514 -37.55625 
L 195.099796 -37.55625 
L 194.563078 -37.55625 
L 194.026359 -37.55625 
L 193.489641 -37.55625 
L 192.952923 -37.55625 
L 192.416205 -37.55625 
L 191.879487 -37.55625 
L 191.342769 -37.55625 
L 190.806051 -37.55625 
L 190.269333 -37.55625 
L 189.732615 -37.55625 
L 189.195897 -37.55625 
L 188.659179 -37.55625 
L 188.122461 -37.55625 
L 187.585743 -37.55625 
L 187.049025 -37.55625 
L 186.512307 -37.55625 
L 185.975589 -37.55625 
L 185.438871 -37.55625 
L 184.902153 -37.55625 
L 184.365435 -37.55625 
L 183.828717 -37.55625 
L 183.291999 -37.55625 
L 182.755281 -37.55625 
L 182.218563 -37.55625 
L 181.681845 -37.55625 
L 181.145127 -37.55625 
L 180.608409 -37.55625 
L 180.071691 -37.55625 
L 179.534973 -37.55625 
L 178.998255 -37.55625 
L 178.461537 -37.55625 
L 177.924819 -37.55625 
L 177.388101 -37.55625 
L 176.851383 -37.55625 
L 176.314665 -37.55625 
L 175.777947 -37.55625 
L 175.241229 -37.55625 
L 174.704511 -37.55625 
L 174.167793 -37.55625 
L 173.631075 -37.55625 
L 173.094357 -37.55625 
L 172.557639 -37.55625 
L 172.020921 -37.55625 
L 171.484203 -37.55625 
L 170.947485 -37.55625 
L 170.410767 -37.55625 
L 169.874049 -37.55625 
L 169.337331 -37.55625 
L 168.800613 -37.55625 
L 168.263895 -37.55625 
L 167.727177 -37.55625 
L 167.190459 -37.55625 
L 166.653741 -37.55625 
L 166.117023 -37.55625 
L 165.580305 -37.55625 
L 165.043587 -37.55625 
L 164.506869 -37.55625 
L 163.970151 -37.55625 
L 163.433433 -37.55625 
L 162.896715 -37.55625 
L 162.359997 -37.55625 
L 161.823279 -37.55625 
L 161.286561 -37.55625 
L 160.749843 -37.55625 
L 160.213125 -37.55625 
L 159.676407 -37.55625 
L 159.139689 -37.55625 
L 158.602971 -37.55625 
L 158.066253 -37.55625 
L 157.529535 -37.55625 
L 156.992817 -37.55625 
L 156.456099 -37.55625 
L 155.919381 -37.55625 
L 155.382663 -37.55625 
L 154.845945 -37.55625 
L 154.309227 -37.55625 
L 153.772509 -37.55625 
L 153.235791 -37.55625 
L 152.699073 -37.55625 
L 152.162355 -37.55625 
L 151.625637 -37.55625 
L 151.088919 -37.55625 
L 150.552201 -37.55625 
L 150.015483 -37.55625 
L 149.478765 -37.55625 
L 148.942047 -37.55625 
L 148.405329 -37.55625 
L 147.868611 -37.55625 
L 147.331893 -37.55625 
L 146.795175 -37.55625 
L 146.258457 -37.55625 
L 145.721739 -37.55625 
L 145.185021 -37.55625 
L 144.648303 -37.55625 
L 144.111585 -37.55625 
L 143.574867 -37.55625 
L 143.038149 -37.55625 
L 142.501431 -37.55625 
L 141.964713 -37.55625 
L 141.427995 -37.55625 
L 140.891277 -37.55625 
L 140.354559 -37.55625 
L 139.817841 -37.55625 
L 139.281123 -37.55625 
L 138.744405 -37.55625 
L 138.207687 -37.55625 
L 137.670969 -37.55625 
L 137.134251 -37.55625 
L 136.597533 -37.55625 
L 136.060815 -37.55625 
L 135.524097 -37.55625 
L 134.987378 -37.55625 
L 134.45066 -37.55625 
L 133.913942 -37.55625 
L 133.377224 -37.55625 
L 132.840506 -37.55625 
L 132.303788 -37.55625 
L 131.76707 -37.55625 
L 131.230352 -37.55625 
L 130.693634 -37.55625 
L 130.156916 -37.55625 
L 129.620198 -37.55625 
L 129.08348 -37.55625 
L 128.546762 -37.55625 
L 128.010044 -37.55625 
L 127.473326 -37.55625 
L 126.936608 -37.55625 
L 126.39989 -37.55625 
L 125.863172 -37.55625 
L 125.326454 -37.55625 
L 124.789736 -37.55625 
L 124.253018 -37.55625 
L 123.7163 -37.55625 
L 123.179582 -37.55625 
L 122.642864 -37.55625 
L 122.106146 -37.55625 
L 121.569428 -37.55625 
L 121.03271 -37.55625 
L 120.495992 -37.55625 
L 119.959274 -37.55625 
L 119.422556 -37.55625 
L 118.885838 -37.55625 
L 118.34912 -37.55625 
L 117.812402 -37.55625 
L 117.275684 -37.55625 
L 116.738966 -37.55625 
L 116.202248 -37.55625 
L 115.66553 -37.55625 
L 115.128812 -37.55625 
L 114.592094 -37.55625 
L 114.055376 -37.55625 
L 113.518658 -37.55625 
L 112.98194 -37.55625 
L 112.445222 -37.55625 
L 111.908504 -37.55625 
L 111.371786 -37.55625 
L 110.835068 -37.55625 
L 110.29835 -37.55625 
L 109.761632 -37.55625 
L 109.224914 -37.55625 
L 108.688196 -37.55625 
L 108.151478 -37.55625 
L 107.61476 -37.55625 
L 107.078042 -37.55625 
L 106.541324 -37.55625 
L 106.004606 -37.55625 
L 105.467888 -37.55625 
L 104.93117 -37.55625 
L 104.394452 -37.55625 
L 103.857734 -37.55625 
L 103.321016 -37.55625 
L 102.784298 -37.55625 
L 102.24758 -37.55625 
L 101.710862 -37.55625 
L 101.174144 -37.55625 
L 100.637426 -37.55625 
L 100.100708 -37.55625 
L 99.56399 -37.55625 
L 99.027272 -37.55625 
L 98.490554 -37.55625 
L 97.953836 -37.55625 
L 97.417118 -37.55625 
L 96.8804 -37.55625 
L 96.343682 -37.55625 
L 95.806964 -37.55625 
L 95.270246 -37.55625 
L 94.733528 -37.55625 
L 94.19681 -37.55625 
L 93.660092 -37.55625 
L 93.123374 -37.55625 
L 92.586656 -37.55625 
L 92.049938 -37.55625 
L 91.51322 -37.55625 
L 90.976502 -37.55625 
L 90.439784 -37.55625 
L 89.903066 -37.55625 
L 89.366348 -37.55625 
L 88.82963 -37.55625 
L 88.292912 -37.55625 
L 87.756194 -37.55625 
L 87.219476 -37.55625 
L 86.682758 -37.55625 
L 86.14604 -37.55625 
L 85.609322 -37.55625 
L 85.072604 -37.55625 
L 84.535886 -37.55625 
L 83.999168 -37.55625 
L 83.46245 -37.55625 
L 82.925732 -37.55625 
L 82.389014 -37.55625 
L 81.852296 -37.55625 
L 81.315578 -37.55625 
L 80.77886 -37.55625 
L 80.242142 -37.55625 
L 79.705424 -37.55625 
L 79.168706 -37.55625 
L 78.631988 -37.55625 
L 78.09527 -37.55625 
L 77.558552 -37.55625 
L 77.021834 -37.55625 
L 76.485116 -37.55625 
L 75.948397 -37.55625 
L 75.411679 -37.55625 
L 74.874961 -37.55625 
L 74.338243 -37.55625 
L 73.801525 -37.55625 
L 73.264807 -37.55625 
L 72.728089 -37.55625 
L 72.191371 -37.55625 
L 71.654653 -37.55625 
L 71.117935 -37.55625 
L 70.581217 -37.55625 
L 70.044499 -37.55625 
L 69.507781 -37.55625 
L 68.971063 -37.55625 
L 68.434345 -37.55625 
L 67.897627 -37.55625 
L 67.360909 -37.55625 
L 66.824191 -37.55625 
L 66.287473 -37.55625 
L 65.750755 -42.114382 
L 65.214037 -51.187286 
L 64.677319 -54.833741 
L 64.140601 -56.357329 
L 63.603883 -56.763619 
L 63.067165 -59.490969 
L 62.530447 -66.570639 
L 61.993729 -73.888878 
L 61.457011 -76.763254 
L 60.920293 -80.221863 
L 60.383575 -81.923203 
L 59.846857 -85.722143 
L 59.310139 -87.415738 
L 58.773421 -87.639198 
L 58.236703 -89.142408 
L 57.699985 -104.518016 
L 57.163267 -101.861894 
L 56.626549 -102.890253 
L 56.089831 -110.091746 
L 55.553113 -119.385698 
L 55.016395 -113.502172 
L 54.479677 -114.708282 
L 53.942959 -115.92455 
L 53.406241 -123.032153 
L 52.869523 -139.738361 
L 52.332805 -133.900415 
L 51.796087 -134.578412 
L 51.259369 -136.442268 
L 50.722651 -137.127883 
L 50.185933 -145.149512 
L 49.649215 -153.712077 
L 49.112497 -151.386447 
L 48.575779 -159.247781 
L 48.039061 -158.978741 
L 47.502343 -167.487918 
z
" style="stroke: #dd8452; stroke-opacity: 0.2"/>
    </defs>
    <g clip-path="url(#p3801adfb90)">
     <use xlink:href="#mf15f04bd17" x="0" y="188.39952" style="fill: #dd8452; fill-opacity: 0.2; stroke: #dd8452; stroke-opacity: 0.2"/>
    </g>
   </g>
   <g id="PolyCollection_3">
    <defs>
     <path id="m46e95f2a85" d="M 47.502343 -165.903386 
L 47.502343 -165.370003 
L 48.039061 -166.337545 
L 48.575779 -163.996171 
L 49.112497 -167.317657 
L 49.649215 -147.828488 
L 50.185933 -142.483232 
L 50.722651 -142.25463 
L 51.259369 -140.276569 
L 51.796087 -137.198857 
L 52.332805 -135.847878 
L 52.869523 -136.54619 
L 53.406241 -134.375203 
L 53.942959 -133.250224 
L 54.479677 -131.985646 
L 55.016395 -121.165694 
L 55.553113 -117.732541 
L 56.089831 -115.401261 
L 56.626549 -111.521317 
L 57.163267 -110.84332 
L 57.699985 -101.074453 
L 58.236703 -97.247834 
L 58.773421 -92.067698 
L 59.310139 -92.278143 
L 59.846857 -93.05803 
L 60.383575 -85.226723 
L 60.920293 -75.960767 
L 61.457011 -72.195028 
L 61.993729 -70.000934 
L 62.530447 -68.060962 
L 63.067165 -62.784268 
L 63.603883 -51.97441 
L 64.140601 -48.934915 
L 64.677319 -47.302009 
L 65.214037 -45.941 
L 65.750755 -44.529205 
L 66.287473 -37.55625 
L 66.824191 -37.55625 
L 67.360909 -37.55625 
L 67.897627 -37.55625 
L 68.434345 -37.55625 
L 68.971063 -37.55625 
L 69.507781 -37.55625 
L 70.044499 -37.55625 
L 70.581217 -37.55625 
L 71.117935 -37.55625 
L 71.654653 -37.55625 
L 72.191371 -37.55625 
L 72.728089 -37.55625 
L 73.264807 -37.55625 
L 73.801525 -37.55625 
L 74.338243 -37.55625 
L 74.874961 -37.55625 
L 75.411679 -37.55625 
L 75.948397 -37.55625 
L 76.485116 -37.55625 
L 77.021834 -37.55625 
L 77.558552 -37.55625 
L 78.09527 -37.55625 
L 78.631988 -37.55625 
L 79.168706 -37.55625 
L 79.705424 -37.55625 
L 80.242142 -37.55625 
L 80.77886 -37.55625 
L 81.315578 -37.55625 
L 81.852296 -37.55625 
L 82.389014 -37.55625 
L 82.925732 -37.55625 
L 83.46245 -37.55625 
L 83.999168 -37.55625 
L 84.535886 -37.55625 
L 85.072604 -37.55625 
L 85.609322 -37.55625 
L 86.14604 -37.55625 
L 86.682758 -37.55625 
L 87.219476 -37.55625 
L 87.756194 -37.55625 
L 88.292912 -37.55625 
L 88.82963 -37.55625 
L 89.366348 -37.55625 
L 89.903066 -37.55625 
L 90.439784 -37.55625 
L 90.976502 -37.55625 
L 91.51322 -37.55625 
L 92.049938 -37.55625 
L 92.586656 -37.55625 
L 93.123374 -37.55625 
L 93.660092 -37.55625 
L 94.19681 -37.55625 
L 94.733528 -37.55625 
L 95.270246 -37.55625 
L 95.806964 -37.55625 
L 96.343682 -37.55625 
L 96.8804 -37.55625 
L 97.417118 -37.55625 
L 97.953836 -37.55625 
L 98.490554 -37.55625 
L 99.027272 -37.55625 
L 99.56399 -37.55625 
L 100.100708 -37.55625 
L 100.637426 -37.55625 
L 101.174144 -37.55625 
L 101.710862 -37.55625 
L 102.24758 -37.55625 
L 102.784298 -37.55625 
L 103.321016 -37.55625 
L 103.857734 -37.55625 
L 104.394452 -37.55625 
L 104.93117 -37.55625 
L 105.467888 -37.55625 
L 106.004606 -37.55625 
L 106.541324 -37.55625 
L 107.078042 -37.55625 
L 107.61476 -37.55625 
L 108.151478 -37.55625 
L 108.688196 -37.55625 
L 109.224914 -37.55625 
L 109.761632 -37.55625 
L 110.29835 -37.55625 
L 110.835068 -37.55625 
L 111.371786 -37.55625 
L 111.908504 -37.55625 
L 112.445222 -37.55625 
L 112.98194 -37.55625 
L 113.518658 -37.55625 
L 114.055376 -37.55625 
L 114.592094 -37.55625 
L 115.128812 -37.55625 
L 115.66553 -37.55625 
L 116.202248 -37.55625 
L 116.738966 -37.55625 
L 117.275684 -37.55625 
L 117.812402 -37.55625 
L 118.34912 -37.55625 
L 118.885838 -37.55625 
L 119.422556 -37.55625 
L 119.959274 -37.55625 
L 120.495992 -37.55625 
L 121.03271 -37.55625 
L 121.569428 -37.55625 
L 122.106146 -37.55625 
L 122.642864 -37.55625 
L 123.179582 -37.55625 
L 123.7163 -37.55625 
L 124.253018 -37.55625 
L 124.789736 -37.55625 
L 125.326454 -37.55625 
L 125.863172 -37.55625 
L 126.39989 -37.55625 
L 126.936608 -37.55625 
L 127.473326 -37.55625 
L 128.010044 -37.55625 
L 128.546762 -37.55625 
L 129.08348 -37.55625 
L 129.620198 -37.55625 
L 130.156916 -37.55625 
L 130.693634 -37.55625 
L 131.230352 -37.55625 
L 131.76707 -37.55625 
L 132.303788 -37.55625 
L 132.840506 -37.55625 
L 133.377224 -37.55625 
L 133.913942 -37.55625 
L 134.45066 -37.55625 
L 134.987378 -37.55625 
L 135.524097 -37.55625 
L 136.060815 -37.55625 
L 136.597533 -37.55625 
L 137.134251 -37.55625 
L 137.670969 -37.55625 
L 138.207687 -37.55625 
L 138.744405 -37.55625 
L 139.281123 -37.55625 
L 139.817841 -37.55625 
L 140.354559 -37.55625 
L 140.891277 -37.55625 
L 141.427995 -37.55625 
L 141.964713 -37.55625 
L 142.501431 -37.55625 
L 143.038149 -37.55625 
L 143.574867 -37.55625 
L 144.111585 -37.55625 
L 144.648303 -37.55625 
L 145.185021 -37.55625 
L 145.721739 -37.55625 
L 146.258457 -37.55625 
L 146.795175 -37.55625 
L 147.331893 -37.55625 
L 147.868611 -37.55625 
L 148.405329 -37.55625 
L 148.942047 -37.55625 
L 149.478765 -37.55625 
L 150.015483 -37.55625 
L 150.552201 -37.55625 
L 151.088919 -37.55625 
L 151.625637 -37.55625 
L 152.162355 -37.55625 
L 152.699073 -37.55625 
L 153.235791 -37.55625 
L 153.772509 -37.55625 
L 154.309227 -37.55625 
L 154.845945 -37.55625 
L 155.382663 -37.55625 
L 155.919381 -37.55625 
L 156.456099 -37.55625 
L 156.992817 -37.55625 
L 157.529535 -37.55625 
L 158.066253 -37.55625 
L 158.602971 -37.55625 
L 159.139689 -37.55625 
L 159.676407 -37.55625 
L 160.213125 -37.55625 
L 160.749843 -37.55625 
L 161.286561 -37.55625 
L 161.823279 -37.55625 
L 162.359997 -37.55625 
L 162.896715 -37.55625 
L 163.433433 -37.55625 
L 163.970151 -37.55625 
L 164.506869 -37.55625 
L 165.043587 -37.55625 
L 165.580305 -37.55625 
L 166.117023 -37.55625 
L 166.653741 -37.55625 
L 167.190459 -37.55625 
L 167.727177 -37.55625 
L 168.263895 -37.55625 
L 168.800613 -37.55625 
L 169.337331 -37.55625 
L 169.874049 -37.55625 
L 170.410767 -37.55625 
L 170.947485 -37.55625 
L 171.484203 -37.55625 
L 172.020921 -37.55625 
L 172.557639 -37.55625 
L 173.094357 -37.55625 
L 173.631075 -37.55625 
L 174.167793 -37.55625 
L 174.704511 -37.55625 
L 175.241229 -37.55625 
L 175.777947 -37.55625 
L 176.314665 -37.55625 
L 176.851383 -37.55625 
L 177.388101 -37.55625 
L 177.924819 -37.55625 
L 178.461537 -37.55625 
L 178.998255 -37.55625 
L 179.534973 -37.55625 
L 180.071691 -37.55625 
L 180.608409 -37.55625 
L 181.145127 -37.55625 
L 181.681845 -37.55625 
L 182.218563 -37.55625 
L 182.755281 -37.55625 
L 183.291999 -37.55625 
L 183.828717 -37.55625 
L 184.365435 -37.55625 
L 184.902153 -37.55625 
L 185.438871 -37.55625 
L 185.975589 -37.55625 
L 186.512307 -37.55625 
L 187.049025 -37.55625 
L 187.585743 -37.55625 
L 188.122461 -37.55625 
L 188.659179 -37.55625 
L 189.195897 -37.55625 
L 189.732615 -37.55625 
L 190.269333 -37.55625 
L 190.806051 -37.55625 
L 191.342769 -37.55625 
L 191.879487 -37.55625 
L 192.416205 -37.55625 
L 192.952923 -37.55625 
L 193.489641 -37.55625 
L 194.026359 -37.55625 
L 194.563078 -37.55625 
L 195.099796 -37.55625 
L 195.636514 -37.55625 
L 196.173232 -37.55625 
L 196.70995 -37.55625 
L 197.246668 -37.55625 
L 197.783386 -37.55625 
L 198.320104 -37.55625 
L 198.856822 -37.55625 
L 199.39354 -37.55625 
L 199.930258 -37.55625 
L 200.466976 -37.55625 
L 201.003694 -37.55625 
L 201.540412 -37.55625 
L 202.07713 -37.55625 
L 202.613848 -37.55625 
L 203.150566 -37.55625 
L 203.687284 -37.55625 
L 204.224002 -37.55625 
L 204.76072 -37.55625 
L 205.297438 -37.55625 
L 205.834156 -37.55625 
L 206.370874 -37.55625 
L 206.907592 -37.55625 
L 207.44431 -37.55625 
L 207.981028 -37.55625 
L 208.517746 -37.55625 
L 209.054464 -37.55625 
L 209.591182 -37.55625 
L 210.1279 -37.55625 
L 210.664618 -37.55625 
L 211.201336 -37.55625 
L 211.738054 -37.55625 
L 212.274772 -37.55625 
L 212.81149 -37.55625 
L 213.348208 -37.55625 
L 213.884926 -37.55625 
L 214.421644 -37.55625 
L 214.958362 -37.55625 
L 215.49508 -37.55625 
L 216.031798 -37.55625 
L 216.568516 -37.55625 
L 217.105234 -37.55625 
L 217.641952 -37.55625 
L 218.17867 -37.55625 
L 218.715388 -37.55625 
L 219.252106 -37.55625 
L 219.788824 -37.55625 
L 220.325542 -37.55625 
L 220.86226 -37.55625 
L 221.398978 -37.55625 
L 221.935696 -37.55625 
L 222.472414 -37.55625 
L 223.009132 -37.55625 
L 223.54585 -37.55625 
L 224.082568 -37.55625 
L 224.619286 -37.55625 
L 225.156004 -37.55625 
L 225.692722 -37.55625 
L 226.22944 -37.55625 
L 226.766158 -37.55625 
L 227.302876 -37.55625 
L 227.839594 -37.55625 
L 228.376312 -37.55625 
L 228.91303 -37.55625 
L 229.449748 -37.55625 
L 229.986466 -37.55625 
L 230.523184 -37.55625 
L 231.059902 -37.55625 
L 231.59662 -37.55625 
L 232.133338 -37.55625 
L 232.670056 -37.55625 
L 233.206774 -37.55625 
L 233.743492 -37.55625 
L 234.28021 -37.55625 
L 234.816928 -37.55625 
L 235.353646 -37.55625 
L 235.890364 -37.55625 
L 236.427082 -37.55625 
L 236.9638 -37.55625 
L 237.500518 -37.55625 
L 238.037236 -37.55625 
L 238.573954 -37.55625 
L 239.110672 -37.55625 
L 239.64739 -37.55625 
L 240.184108 -37.55625 
L 240.720826 -37.55625 
L 241.257544 -37.55625 
L 241.794262 -37.55625 
L 242.33098 -37.55625 
L 242.867698 -37.55625 
L 243.404416 -37.55625 
L 243.404416 -37.55625 
L 243.404416 -37.55625 
L 242.867698 -37.55625 
L 242.33098 -37.55625 
L 241.794262 -37.55625 
L 241.257544 -37.55625 
L 240.720826 -37.55625 
L 240.184108 -37.55625 
L 239.64739 -37.55625 
L 239.110672 -37.55625 
L 238.573954 -37.55625 
L 238.037236 -37.55625 
L 237.500518 -37.55625 
L 236.9638 -37.55625 
L 236.427082 -37.55625 
L 235.890364 -37.55625 
L 235.353646 -37.55625 
L 234.816928 -37.55625 
L 234.28021 -37.55625 
L 233.743492 -37.55625 
L 233.206774 -37.55625 
L 232.670056 -37.55625 
L 232.133338 -37.55625 
L 231.59662 -37.55625 
L 231.059902 -37.55625 
L 230.523184 -37.55625 
L 229.986466 -37.55625 
L 229.449748 -37.55625 
L 228.91303 -37.55625 
L 228.376312 -37.55625 
L 227.839594 -37.55625 
L 227.302876 -37.55625 
L 226.766158 -37.55625 
L 226.22944 -37.55625 
L 225.692722 -37.55625 
L 225.156004 -37.55625 
L 224.619286 -37.55625 
L 224.082568 -37.55625 
L 223.54585 -37.55625 
L 223.009132 -37.55625 
L 222.472414 -37.55625 
L 221.935696 -37.55625 
L 221.398978 -37.55625 
L 220.86226 -37.55625 
L 220.325542 -37.55625 
L 219.788824 -37.55625 
L 219.252106 -37.55625 
L 218.715388 -37.55625 
L 218.17867 -37.55625 
L 217.641952 -37.55625 
L 217.105234 -37.55625 
L 216.568516 -37.55625 
L 216.031798 -37.55625 
L 215.49508 -37.55625 
L 214.958362 -37.55625 
L 214.421644 -37.55625 
L 213.884926 -37.55625 
L 213.348208 -37.55625 
L 212.81149 -37.55625 
L 212.274772 -37.55625 
L 211.738054 -37.55625 
L 211.201336 -37.55625 
L 210.664618 -37.55625 
L 210.1279 -37.55625 
L 209.591182 -37.55625 
L 209.054464 -37.55625 
L 208.517746 -37.55625 
L 207.981028 -37.55625 
L 207.44431 -37.55625 
L 206.907592 -37.55625 
L 206.370874 -37.55625 
L 205.834156 -37.55625 
L 205.297438 -37.55625 
L 204.76072 -37.55625 
L 204.224002 -37.55625 
L 203.687284 -37.55625 
L 203.150566 -37.55625 
L 202.613848 -37.55625 
L 202.07713 -37.55625 
L 201.540412 -37.55625 
L 201.003694 -37.55625 
L 200.466976 -37.55625 
L 199.930258 -37.55625 
L 199.39354 -37.55625 
L 198.856822 -37.55625 
L 198.320104 -37.55625 
L 197.783386 -37.55625 
L 197.246668 -37.55625 
L 196.70995 -37.55625 
L 196.173232 -37.55625 
L 195.636514 -37.55625 
L 195.099796 -37.55625 
L 194.563078 -37.55625 
L 194.026359 -37.55625 
L 193.489641 -37.55625 
L 192.952923 -37.55625 
L 192.416205 -37.55625 
L 191.879487 -37.55625 
L 191.342769 -37.55625 
L 190.806051 -37.55625 
L 190.269333 -37.55625 
L 189.732615 -37.55625 
L 189.195897 -37.55625 
L 188.659179 -37.55625 
L 188.122461 -37.55625 
L 187.585743 -37.55625 
L 187.049025 -37.55625 
L 186.512307 -37.55625 
L 185.975589 -37.55625 
L 185.438871 -37.55625 
L 184.902153 -37.55625 
L 184.365435 -37.55625 
L 183.828717 -37.55625 
L 183.291999 -37.55625 
L 182.755281 -37.55625 
L 182.218563 -37.55625 
L 181.681845 -37.55625 
L 181.145127 -37.55625 
L 180.608409 -37.55625 
L 180.071691 -37.55625 
L 179.534973 -37.55625 
L 178.998255 -37.55625 
L 178.461537 -37.55625 
L 177.924819 -37.55625 
L 177.388101 -37.55625 
L 176.851383 -37.55625 
L 176.314665 -37.55625 
L 175.777947 -37.55625 
L 175.241229 -37.55625 
L 174.704511 -37.55625 
L 174.167793 -37.55625 
L 173.631075 -37.55625 
L 173.094357 -37.55625 
L 172.557639 -37.55625 
L 172.020921 -37.55625 
L 171.484203 -37.55625 
L 170.947485 -37.55625 
L 170.410767 -37.55625 
L 169.874049 -37.55625 
L 169.337331 -37.55625 
L 168.800613 -37.55625 
L 168.263895 -37.55625 
L 167.727177 -37.55625 
L 167.190459 -37.55625 
L 166.653741 -37.55625 
L 166.117023 -37.55625 
L 165.580305 -37.55625 
L 165.043587 -37.55625 
L 164.506869 -37.55625 
L 163.970151 -37.55625 
L 163.433433 -37.55625 
L 162.896715 -37.55625 
L 162.359997 -37.55625 
L 161.823279 -37.55625 
L 161.286561 -37.55625 
L 160.749843 -37.55625 
L 160.213125 -37.55625 
L 159.676407 -37.55625 
L 159.139689 -37.55625 
L 158.602971 -37.55625 
L 158.066253 -37.55625 
L 157.529535 -37.55625 
L 156.992817 -37.55625 
L 156.456099 -37.55625 
L 155.919381 -37.55625 
L 155.382663 -37.55625 
L 154.845945 -37.55625 
L 154.309227 -37.55625 
L 153.772509 -37.55625 
L 153.235791 -37.55625 
L 152.699073 -37.55625 
L 152.162355 -37.55625 
L 151.625637 -37.55625 
L 151.088919 -37.55625 
L 150.552201 -37.55625 
L 150.015483 -37.55625 
L 149.478765 -37.55625 
L 148.942047 -37.55625 
L 148.405329 -37.55625 
L 147.868611 -37.55625 
L 147.331893 -37.55625 
L 146.795175 -37.55625 
L 146.258457 -37.55625 
L 145.721739 -37.55625 
L 145.185021 -37.55625 
L 144.648303 -37.55625 
L 144.111585 -37.55625 
L 143.574867 -37.55625 
L 143.038149 -37.55625 
L 142.501431 -37.55625 
L 141.964713 -37.55625 
L 141.427995 -37.55625 
L 140.891277 -37.55625 
L 140.354559 -37.55625 
L 139.817841 -37.55625 
L 139.281123 -37.55625 
L 138.744405 -37.55625 
L 138.207687 -37.55625 
L 137.670969 -37.55625 
L 137.134251 -37.55625 
L 136.597533 -37.55625 
L 136.060815 -37.55625 
L 135.524097 -37.55625 
L 134.987378 -37.55625 
L 134.45066 -37.55625 
L 133.913942 -37.55625 
L 133.377224 -37.55625 
L 132.840506 -37.55625 
L 132.303788 -37.55625 
L 131.76707 -37.55625 
L 131.230352 -37.55625 
L 130.693634 -37.55625 
L 130.156916 -37.55625 
L 129.620198 -37.55625 
L 129.08348 -37.55625 
L 128.546762 -37.55625 
L 128.010044 -37.55625 
L 127.473326 -37.55625 
L 126.936608 -37.55625 
L 126.39989 -37.55625 
L 125.863172 -37.55625 
L 125.326454 -37.55625 
L 124.789736 -37.55625 
L 124.253018 -37.55625 
L 123.7163 -37.55625 
L 123.179582 -37.55625 
L 122.642864 -37.55625 
L 122.106146 -37.55625 
L 121.569428 -37.55625 
L 121.03271 -37.55625 
L 120.495992 -37.55625 
L 119.959274 -37.55625 
L 119.422556 -37.55625 
L 118.885838 -37.55625 
L 118.34912 -37.55625 
L 117.812402 -37.55625 
L 117.275684 -37.55625 
L 116.738966 -37.55625 
L 116.202248 -37.55625 
L 115.66553 -37.55625 
L 115.128812 -37.55625 
L 114.592094 -37.55625 
L 114.055376 -37.55625 
L 113.518658 -37.55625 
L 112.98194 -37.55625 
L 112.445222 -37.55625 
L 111.908504 -37.55625 
L 111.371786 -37.55625 
L 110.835068 -37.55625 
L 110.29835 -37.55625 
L 109.761632 -37.55625 
L 109.224914 -37.55625 
L 108.688196 -37.55625 
L 108.151478 -37.55625 
L 107.61476 -37.55625 
L 107.078042 -37.55625 
L 106.541324 -37.55625 
L 106.004606 -37.55625 
L 105.467888 -37.55625 
L 104.93117 -37.55625 
L 104.394452 -37.55625 
L 103.857734 -37.55625 
L 103.321016 -37.55625 
L 102.784298 -37.55625 
L 102.24758 -37.55625 
L 101.710862 -37.55625 
L 101.174144 -37.55625 
L 100.637426 -37.55625 
L 100.100708 -37.55625 
L 99.56399 -37.55625 
L 99.027272 -37.55625 
L 98.490554 -37.55625 
L 97.953836 -37.55625 
L 97.417118 -37.55625 
L 96.8804 -37.55625 
L 96.343682 -37.55625 
L 95.806964 -37.55625 
L 95.270246 -37.55625 
L 94.733528 -37.55625 
L 94.19681 -37.55625 
L 93.660092 -37.55625 
L 93.123374 -37.55625 
L 92.586656 -37.55625 
L 92.049938 -37.55625 
L 91.51322 -37.55625 
L 90.976502 -37.55625 
L 90.439784 -37.55625 
L 89.903066 -37.55625 
L 89.366348 -37.55625 
L 88.82963 -37.55625 
L 88.292912 -37.55625 
L 87.756194 -37.55625 
L 87.219476 -37.55625 
L 86.682758 -37.55625 
L 86.14604 -37.55625 
L 85.609322 -37.55625 
L 85.072604 -37.55625 
L 84.535886 -37.55625 
L 83.999168 -37.55625 
L 83.46245 -37.55625 
L 82.925732 -37.55625 
L 82.389014 -37.55625 
L 81.852296 -37.55625 
L 81.315578 -37.55625 
L 80.77886 -37.55625 
L 80.242142 -37.55625 
L 79.705424 -37.55625 
L 79.168706 -37.55625 
L 78.631988 -37.55625 
L 78.09527 -37.55625 
L 77.558552 -37.55625 
L 77.021834 -37.55625 
L 76.485116 -37.55625 
L 75.948397 -37.55625 
L 75.411679 -37.55625 
L 74.874961 -37.55625 
L 74.338243 -37.55625 
L 73.801525 -37.55625 
L 73.264807 -37.55625 
L 72.728089 -37.55625 
L 72.191371 -37.55625 
L 71.654653 -37.55625 
L 71.117935 -37.55625 
L 70.581217 -37.55625 
L 70.044499 -37.55625 
L 69.507781 -37.55625 
L 68.971063 -37.55625 
L 68.434345 -37.55625 
L 67.897627 -37.55625 
L 67.360909 -37.55625 
L 66.824191 -37.55625 
L 66.287473 -37.55625 
L 65.750755 -45.029514 
L 65.214037 -46.492095 
L 64.677319 -47.766894 
L 64.140601 -49.384373 
L 63.603883 -52.436882 
L 63.067165 -63.30743 
L 62.530447 -68.523181 
L 61.993729 -70.508924 
L 61.457011 -72.667341 
L 60.920293 -76.453521 
L 60.383575 -85.874375 
L 59.846857 -93.665053 
L 59.310139 -92.877739 
L 58.773421 -92.661961 
L 58.236703 -97.778678 
L 57.699985 -101.727247 
L 57.163267 -111.333534 
L 56.626549 -111.963348 
L 56.089831 -115.929629 
L 55.553113 -118.390224 
L 55.016395 -121.795443 
L 54.479677 -132.567276 
L 53.942959 -133.928665 
L 53.406241 -135.098908 
L 52.869523 -137.346518 
L 52.332805 -136.625162 
L 51.796087 -137.935321 
L 51.259369 -141.013033 
L 50.722651 -142.983667 
L 50.185933 -143.108094 
L 49.649215 -148.430368 
L 49.112497 -167.927219 
L 48.575779 -164.455914 
L 48.039061 -166.830236 
L 47.502343 -165.903386 
z
" style="stroke: #55a868; stroke-opacity: 0.2"/>
    </defs>
    <g clip-path="url(#p3801adfb90)">
     <use xlink:href="#m46e95f2a85" x="0" y="188.39952" style="fill: #55a868; fill-opacity: 0.2; stroke: #55a868; stroke-opacity: 0.2"/>
    </g>
   </g>
   <g id="matplotlib.axis_1">
    <g id="xtick_1">
     <g id="line2d_1">
      <defs>
       <path id="mb6b5aee536" d="M 0 0 
L 0 3.5 
" style="stroke: #000000; stroke-width: 0.8"/>
      </defs>
      <g>
       <use xlink:href="#mb6b5aee536" x="46.965625" y="150.84327" style="stroke: #000000; stroke-width: 0.8"/>
      </g>
     </g>
     <g id="text_1">
      <!-- 0 -->
      <g transform="translate(43.784375 165.441708) scale(0.1 -0.1)">
       <defs>
        <path id="DejaVuSans-30" d="M 2034 4250 
Q 1547 4250 1301 3770 
Q 1056 3291 1056 2328 
Q 1056 1369 1301 889 
Q 1547 409 2034 409 
Q 2525 409 2770 889 
Q 3016 1369 3016 2328 
Q 3016 3291 2770 3770 
Q 2525 4250 2034 4250 
z
M 2034 4750 
Q 2819 4750 3233 4129 
Q 3647 3509 3647 2328 
Q 3647 1150 3233 529 
Q 2819 -91 2034 -91 
Q 1250 -91 836 529 
Q 422 1150 422 2328 
Q 422 3509 836 4129 
Q 1250 4750 2034 4750 
z
" transform="scale(0.015625)"/>
       </defs>
       <use xlink:href="#DejaVuSans-30"/>
      </g>
     </g>
    </g>
    <g id="xtick_2">
     <g id="line2d_2">
      <g>
       <use xlink:href="#mb6b5aee536" x="100.637426" y="150.84327" style="stroke: #000000; stroke-width: 0.8"/>
      </g>
     </g>
     <g id="text_2">
      <!-- 100 -->
      <g transform="translate(91.093676 165.441708) scale(0.1 -0.1)">
       <defs>
        <path id="DejaVuSans-31" d="M 794 531 
L 1825 531 
L 1825 4091 
L 703 3866 
L 703 4441 
L 1819 4666 
L 2450 4666 
L 2450 531 
L 3481 531 
L 3481 0 
L 794 0 
L 794 531 
z
" transform="scale(0.015625)"/>
       </defs>
       <use xlink:href="#DejaVuSans-31"/>
       <use xlink:href="#DejaVuSans-30" x="63.623047"/>
       <use xlink:href="#DejaVuSans-30" x="127.246094"/>
      </g>
     </g>
    </g>
    <g id="xtick_3">
     <g id="line2d_3">
      <g>
       <use xlink:href="#mb6b5aee536" x="154.309227" y="150.84327" style="stroke: #000000; stroke-width: 0.8"/>
      </g>
     </g>
     <g id="text_3">
      <!-- 200 -->
      <g transform="translate(144.765477 165.441708) scale(0.1 -0.1)">
       <defs>
        <path id="DejaVuSans-32" d="M 1228 531 
L 3431 531 
L 3431 0 
L 469 0 
L 469 531 
Q 828 903 1448 1529 
Q 2069 2156 2228 2338 
Q 2531 2678 2651 2914 
Q 2772 3150 2772 3378 
Q 2772 3750 2511 3984 
Q 2250 4219 1831 4219 
Q 1534 4219 1204 4116 
Q 875 4013 500 3803 
L 500 4441 
Q 881 4594 1212 4672 
Q 1544 4750 1819 4750 
Q 2544 4750 2975 4387 
Q 3406 4025 3406 3419 
Q 3406 3131 3298 2873 
Q 3191 2616 2906 2266 
Q 2828 2175 2409 1742 
Q 1991 1309 1228 531 
z
" transform="scale(0.015625)"/>
       </defs>
       <use xlink:href="#DejaVuSans-32"/>
       <use xlink:href="#DejaVuSans-30" x="63.623047"/>
       <use xlink:href="#DejaVuSans-30" x="127.246094"/>
      </g>
     </g>
    </g>
    <g id="xtick_4">
     <g id="line2d_4">
      <g>
       <use xlink:href="#mb6b5aee536" x="207.981028" y="150.84327" style="stroke: #000000; stroke-width: 0.8"/>
      </g>
     </g>
     <g id="text_4">
      <!-- 300 -->
      <g transform="translate(198.437278 165.441708) scale(0.1 -0.1)">
       <defs>
        <path id="DejaVuSans-33" d="M 2597 2516 
Q 3050 2419 3304 2112 
Q 3559 1806 3559 1356 
Q 3559 666 3084 287 
Q 2609 -91 1734 -91 
Q 1441 -91 1130 -33 
Q 819 25 488 141 
L 488 750 
Q 750 597 1062 519 
Q 1375 441 1716 441 
Q 2309 441 2620 675 
Q 2931 909 2931 1356 
Q 2931 1769 2642 2001 
Q 2353 2234 1838 2234 
L 1294 2234 
L 1294 2753 
L 1863 2753 
Q 2328 2753 2575 2939 
Q 2822 3125 2822 3475 
Q 2822 3834 2567 4026 
Q 2313 4219 1838 4219 
Q 1578 4219 1281 4162 
Q 984 4106 628 3988 
L 628 4550 
Q 988 4650 1302 4700 
Q 1616 4750 1894 4750 
Q 2613 4750 3031 4423 
Q 3450 4097 3450 3541 
Q 3450 3153 3228 2886 
Q 3006 2619 2597 2516 
z
" transform="scale(0.015625)"/>
       </defs>
       <use xlink:href="#DejaVuSans-33"/>
       <use xlink:href="#DejaVuSans-30" x="63.623047"/>
       <use xlink:href="#DejaVuSans-30" x="127.246094"/>
      </g>
     </g>
    </g>
    <g id="text_5">
     <!-- Sample Size -->
     <g transform="translate(119.48101 179.119833) scale(0.1 -0.1)">
      <defs>
       <path id="DejaVuSans-53" d="M 3425 4513 
L 3425 3897 
Q 3066 4069 2747 4153 
Q 2428 4238 2131 4238 
Q 1616 4238 1336 4038 
Q 1056 3838 1056 3469 
Q 1056 3159 1242 3001 
Q 1428 2844 1947 2747 
L 2328 2669 
Q 3034 2534 3370 2195 
Q 3706 1856 3706 1288 
Q 3706 609 3251 259 
Q 2797 -91 1919 -91 
Q 1588 -91 1214 -16 
Q 841 59 441 206 
L 441 856 
Q 825 641 1194 531 
Q 1563 422 1919 422 
Q 2459 422 2753 634 
Q 3047 847 3047 1241 
Q 3047 1584 2836 1778 
Q 2625 1972 2144 2069 
L 1759 2144 
Q 1053 2284 737 2584 
Q 422 2884 422 3419 
Q 422 4038 858 4394 
Q 1294 4750 2059 4750 
Q 2388 4750 2728 4690 
Q 3069 4631 3425 4513 
z
" transform="scale(0.015625)"/>
       <path id="DejaVuSans-61" d="M 2194 1759 
Q 1497 1759 1228 1600 
Q 959 1441 959 1056 
Q 959 750 1161 570 
Q 1363 391 1709 391 
Q 2188 391 2477 730 
Q 2766 1069 2766 1631 
L 2766 1759 
L 2194 1759 
z
M 3341 1997 
L 3341 0 
L 2766 0 
L 2766 531 
Q 2569 213 2275 61 
Q 1981 -91 1556 -91 
Q 1019 -91 701 211 
Q 384 513 384 1019 
Q 384 1609 779 1909 
Q 1175 2209 1959 2209 
L 2766 2209 
L 2766 2266 
Q 2766 2663 2505 2880 
Q 2244 3097 1772 3097 
Q 1472 3097 1187 3025 
Q 903 2953 641 2809 
L 641 3341 
Q 956 3463 1253 3523 
Q 1550 3584 1831 3584 
Q 2591 3584 2966 3190 
Q 3341 2797 3341 1997 
z
" transform="scale(0.015625)"/>
       <path id="DejaVuSans-6d" d="M 3328 2828 
Q 3544 3216 3844 3400 
Q 4144 3584 4550 3584 
Q 5097 3584 5394 3201 
Q 5691 2819 5691 2113 
L 5691 0 
L 5113 0 
L 5113 2094 
Q 5113 2597 4934 2840 
Q 4756 3084 4391 3084 
Q 3944 3084 3684 2787 
Q 3425 2491 3425 1978 
L 3425 0 
L 2847 0 
L 2847 2094 
Q 2847 2600 2669 2842 
Q 2491 3084 2119 3084 
Q 1678 3084 1418 2786 
Q 1159 2488 1159 1978 
L 1159 0 
L 581 0 
L 581 3500 
L 1159 3500 
L 1159 2956 
Q 1356 3278 1631 3431 
Q 1906 3584 2284 3584 
Q 2666 3584 2933 3390 
Q 3200 3197 3328 2828 
z
" transform="scale(0.015625)"/>
       <path id="DejaVuSans-70" d="M 1159 525 
L 1159 -1331 
L 581 -1331 
L 581 3500 
L 1159 3500 
L 1159 2969 
Q 1341 3281 1617 3432 
Q 1894 3584 2278 3584 
Q 2916 3584 3314 3078 
Q 3713 2572 3713 1747 
Q 3713 922 3314 415 
Q 2916 -91 2278 -91 
Q 1894 -91 1617 61 
Q 1341 213 1159 525 
z
M 3116 1747 
Q 3116 2381 2855 2742 
Q 2594 3103 2138 3103 
Q 1681 3103 1420 2742 
Q 1159 2381 1159 1747 
Q 1159 1113 1420 752 
Q 1681 391 2138 391 
Q 2594 391 2855 752 
Q 3116 1113 3116 1747 
z
" transform="scale(0.015625)"/>
       <path id="DejaVuSans-6c" d="M 603 4863 
L 1178 4863 
L 1178 0 
L 603 0 
L 603 4863 
z
" transform="scale(0.015625)"/>
       <path id="DejaVuSans-65" d="M 3597 1894 
L 3597 1613 
L 953 1613 
Q 991 1019 1311 708 
Q 1631 397 2203 397 
Q 2534 397 2845 478 
Q 3156 559 3463 722 
L 3463 178 
Q 3153 47 2828 -22 
Q 2503 -91 2169 -91 
Q 1331 -91 842 396 
Q 353 884 353 1716 
Q 353 2575 817 3079 
Q 1281 3584 2069 3584 
Q 2775 3584 3186 3129 
Q 3597 2675 3597 1894 
z
M 3022 2063 
Q 3016 2534 2758 2815 
Q 2500 3097 2075 3097 
Q 1594 3097 1305 2825 
Q 1016 2553 972 2059 
L 3022 2063 
z
" transform="scale(0.015625)"/>
       <path id="DejaVuSans-20" transform="scale(0.015625)"/>
       <path id="DejaVuSans-69" d="M 603 3500 
L 1178 3500 
L 1178 0 
L 603 0 
L 603 3500 
z
M 603 4863 
L 1178 4863 
L 1178 4134 
L 603 4134 
L 603 4863 
z
" transform="scale(0.015625)"/>
       <path id="DejaVuSans-7a" d="M 353 3500 
L 3084 3500 
L 3084 2975 
L 922 459 
L 3084 459 
L 3084 0 
L 275 0 
L 275 525 
L 2438 3041 
L 353 3041 
L 353 3500 
z
" transform="scale(0.015625)"/>
      </defs>
      <use xlink:href="#DejaVuSans-53"/>
      <use xlink:href="#DejaVuSans-61" x="63.476562"/>
      <use xlink:href="#DejaVuSans-6d" x="124.755859"/>
      <use xlink:href="#DejaVuSans-70" x="222.167969"/>
      <use xlink:href="#DejaVuSans-6c" x="285.644531"/>
      <use xlink:href="#DejaVuSans-65" x="313.427734"/>
      <use xlink:href="#DejaVuSans-20" x="374.951172"/>
      <use xlink:href="#DejaVuSans-53" x="406.738281"/>
      <use xlink:href="#DejaVuSans-69" x="470.214844"/>
      <use xlink:href="#DejaVuSans-7a" x="497.998047"/>
      <use xlink:href="#DejaVuSans-65" x="550.488281"/>
     </g>
    </g>
   </g>
   <g id="matplotlib.axis_2">
    <g id="ytick_1">
     <g id="line2d_5">
      <defs>
       <path id="m2bc46e3959" d="M 0 0 
L -3.5 0 
" style="stroke: #000000; stroke-width: 0.8"/>
      </defs>
      <g>
       <use xlink:href="#m2bc46e3959" x="46.965625" y="150.84327" style="stroke: #000000; stroke-width: 0.8"/>
      </g>
     </g>
     <g id="text_6">
      <!-- 0 -->
      <g transform="translate(33.603125 154.642489) scale(0.1 -0.1)">
       <use xlink:href="#DejaVuSans-30"/>
      </g>
     </g>
    </g>
    <g id="ytick_2">
     <g id="line2d_6">
      <g>
       <use xlink:href="#m2bc46e3959" x="46.965625" y="113.76929" style="stroke: #000000; stroke-width: 0.8"/>
      </g>
     </g>
     <g id="text_7">
      <!-- 50 -->
      <g transform="translate(27.240625 117.568508) scale(0.1 -0.1)">
       <defs>
        <path id="DejaVuSans-35" d="M 691 4666 
L 3169 4666 
L 3169 4134 
L 1269 4134 
L 1269 2991 
Q 1406 3038 1543 3061 
Q 1681 3084 1819 3084 
Q 2600 3084 3056 2656 
Q 3513 2228 3513 1497 
Q 3513 744 3044 326 
Q 2575 -91 1722 -91 
Q 1428 -91 1123 -41 
Q 819 9 494 109 
L 494 744 
Q 775 591 1075 516 
Q 1375 441 1709 441 
Q 2250 441 2565 725 
Q 2881 1009 2881 1497 
Q 2881 1984 2565 2268 
Q 2250 2553 1709 2553 
Q 1456 2553 1204 2497 
Q 953 2441 691 2322 
L 691 4666 
z
" transform="scale(0.015625)"/>
       </defs>
       <use xlink:href="#DejaVuSans-35"/>
       <use xlink:href="#DejaVuSans-30" x="63.623047"/>
      </g>
     </g>
    </g>
    <g id="ytick_3">
     <g id="line2d_7">
      <g>
       <use xlink:href="#m2bc46e3959" x="46.965625" y="76.695309" style="stroke: #000000; stroke-width: 0.8"/>
      </g>
     </g>
     <g id="text_8">
      <!-- 100 -->
      <g transform="translate(20.878125 80.494528) scale(0.1 -0.1)">
       <use xlink:href="#DejaVuSans-31"/>
       <use xlink:href="#DejaVuSans-30" x="63.623047"/>
       <use xlink:href="#DejaVuSans-30" x="127.246094"/>
      </g>
     </g>
    </g>
    <g id="ytick_4">
     <g id="line2d_8">
      <g>
       <use xlink:href="#m2bc46e3959" x="46.965625" y="39.621329" style="stroke: #000000; stroke-width: 0.8"/>
      </g>
     </g>
     <g id="text_9">
      <!-- 150 -->
      <g transform="translate(20.878125 43.420548) scale(0.1 -0.1)">
       <use xlink:href="#DejaVuSans-31"/>
       <use xlink:href="#DejaVuSans-35" x="63.623047"/>
       <use xlink:href="#DejaVuSans-30" x="127.246094"/>
      </g>
     </g>
    </g>
    <g id="text_10">
     <!-- Empirical Classification Error -->
     <g transform="translate(14.798437 150.707573) rotate(-90) scale(0.1 -0.1)">
      <defs>
       <path id="DejaVuSans-45" d="M 628 4666 
L 3578 4666 
L 3578 4134 
L 1259 4134 
L 1259 2753 
L 3481 2753 
L 3481 2222 
L 1259 2222 
L 1259 531 
L 3634 531 
L 3634 0 
L 628 0 
L 628 4666 
z
" transform="scale(0.015625)"/>
       <path id="DejaVuSans-72" d="M 2631 2963 
Q 2534 3019 2420 3045 
Q 2306 3072 2169 3072 
Q 1681 3072 1420 2755 
Q 1159 2438 1159 1844 
L 1159 0 
L 581 0 
L 581 3500 
L 1159 3500 
L 1159 2956 
Q 1341 3275 1631 3429 
Q 1922 3584 2338 3584 
Q 2397 3584 2469 3576 
Q 2541 3569 2628 3553 
L 2631 2963 
z
" transform="scale(0.015625)"/>
       <path id="DejaVuSans-63" d="M 3122 3366 
L 3122 2828 
Q 2878 2963 2633 3030 
Q 2388 3097 2138 3097 
Q 1578 3097 1268 2742 
Q 959 2388 959 1747 
Q 959 1106 1268 751 
Q 1578 397 2138 397 
Q 2388 397 2633 464 
Q 2878 531 3122 666 
L 3122 134 
Q 2881 22 2623 -34 
Q 2366 -91 2075 -91 
Q 1284 -91 818 406 
Q 353 903 353 1747 
Q 353 2603 823 3093 
Q 1294 3584 2113 3584 
Q 2378 3584 2631 3529 
Q 2884 3475 3122 3366 
z
" transform="scale(0.015625)"/>
       <path id="DejaVuSans-43" d="M 4122 4306 
L 4122 3641 
Q 3803 3938 3442 4084 
Q 3081 4231 2675 4231 
Q 1875 4231 1450 3742 
Q 1025 3253 1025 2328 
Q 1025 1406 1450 917 
Q 1875 428 2675 428 
Q 3081 428 3442 575 
Q 3803 722 4122 1019 
L 4122 359 
Q 3791 134 3420 21 
Q 3050 -91 2638 -91 
Q 1578 -91 968 557 
Q 359 1206 359 2328 
Q 359 3453 968 4101 
Q 1578 4750 2638 4750 
Q 3056 4750 3426 4639 
Q 3797 4528 4122 4306 
z
" transform="scale(0.015625)"/>
       <path id="DejaVuSans-73" d="M 2834 3397 
L 2834 2853 
Q 2591 2978 2328 3040 
Q 2066 3103 1784 3103 
Q 1356 3103 1142 2972 
Q 928 2841 928 2578 
Q 928 2378 1081 2264 
Q 1234 2150 1697 2047 
L 1894 2003 
Q 2506 1872 2764 1633 
Q 3022 1394 3022 966 
Q 3022 478 2636 193 
Q 2250 -91 1575 -91 
Q 1294 -91 989 -36 
Q 684 19 347 128 
L 347 722 
Q 666 556 975 473 
Q 1284 391 1588 391 
Q 1994 391 2212 530 
Q 2431 669 2431 922 
Q 2431 1156 2273 1281 
Q 2116 1406 1581 1522 
L 1381 1569 
Q 847 1681 609 1914 
Q 372 2147 372 2553 
Q 372 3047 722 3315 
Q 1072 3584 1716 3584 
Q 2034 3584 2315 3537 
Q 2597 3491 2834 3397 
z
" transform="scale(0.015625)"/>
       <path id="DejaVuSans-66" d="M 2375 4863 
L 2375 4384 
L 1825 4384 
Q 1516 4384 1395 4259 
Q 1275 4134 1275 3809 
L 1275 3500 
L 2222 3500 
L 2222 3053 
L 1275 3053 
L 1275 0 
L 697 0 
L 697 3053 
L 147 3053 
L 147 3500 
L 697 3500 
L 697 3744 
Q 697 4328 969 4595 
Q 1241 4863 1831 4863 
L 2375 4863 
z
" transform="scale(0.015625)"/>
       <path id="DejaVuSans-74" d="M 1172 4494 
L 1172 3500 
L 2356 3500 
L 2356 3053 
L 1172 3053 
L 1172 1153 
Q 1172 725 1289 603 
Q 1406 481 1766 481 
L 2356 481 
L 2356 0 
L 1766 0 
Q 1100 0 847 248 
Q 594 497 594 1153 
L 594 3053 
L 172 3053 
L 172 3500 
L 594 3500 
L 594 4494 
L 1172 4494 
z
" transform="scale(0.015625)"/>
       <path id="DejaVuSans-6f" d="M 1959 3097 
Q 1497 3097 1228 2736 
Q 959 2375 959 1747 
Q 959 1119 1226 758 
Q 1494 397 1959 397 
Q 2419 397 2687 759 
Q 2956 1122 2956 1747 
Q 2956 2369 2687 2733 
Q 2419 3097 1959 3097 
z
M 1959 3584 
Q 2709 3584 3137 3096 
Q 3566 2609 3566 1747 
Q 3566 888 3137 398 
Q 2709 -91 1959 -91 
Q 1206 -91 779 398 
Q 353 888 353 1747 
Q 353 2609 779 3096 
Q 1206 3584 1959 3584 
z
" transform="scale(0.015625)"/>
       <path id="DejaVuSans-6e" d="M 3513 2113 
L 3513 0 
L 2938 0 
L 2938 2094 
Q 2938 2591 2744 2837 
Q 2550 3084 2163 3084 
Q 1697 3084 1428 2787 
Q 1159 2491 1159 1978 
L 1159 0 
L 581 0 
L 581 3500 
L 1159 3500 
L 1159 2956 
Q 1366 3272 1645 3428 
Q 1925 3584 2291 3584 
Q 2894 3584 3203 3211 
Q 3513 2838 3513 2113 
z
" transform="scale(0.015625)"/>
      </defs>
      <use xlink:href="#DejaVuSans-45"/>
      <use xlink:href="#DejaVuSans-6d" x="63.183594"/>
      <use xlink:href="#DejaVuSans-70" x="160.595703"/>
      <use xlink:href="#DejaVuSans-69" x="224.072266"/>
      <use xlink:href="#DejaVuSans-72" x="251.855469"/>
      <use xlink:href="#DejaVuSans-69" x="292.96875"/>
      <use xlink:href="#DejaVuSans-63" x="320.751953"/>
      <use xlink:href="#DejaVuSans-61" x="375.732422"/>
      <use xlink:href="#DejaVuSans-6c" x="437.011719"/>
      <use xlink:href="#DejaVuSans-20" x="464.794922"/>
      <use xlink:href="#DejaVuSans-43" x="496.582031"/>
      <use xlink:href="#DejaVuSans-6c" x="566.40625"/>
      <use xlink:href="#DejaVuSans-61" x="594.189453"/>
      <use xlink:href="#DejaVuSans-73" x="655.46875"/>
      <use xlink:href="#DejaVuSans-73" x="707.568359"/>
      <use xlink:href="#DejaVuSans-69" x="759.667969"/>
      <use xlink:href="#DejaVuSans-66" x="787.451172"/>
      <use xlink:href="#DejaVuSans-69" x="822.65625"/>
      <use xlink:href="#DejaVuSans-63" x="850.439453"/>
      <use xlink:href="#DejaVuSans-61" x="905.419922"/>
      <use xlink:href="#DejaVuSans-74" x="966.699219"/>
      <use xlink:href="#DejaVuSans-69" x="1005.908203"/>
      <use xlink:href="#DejaVuSans-6f" x="1033.691406"/>
      <use xlink:href="#DejaVuSans-6e" x="1094.873047"/>
      <use xlink:href="#DejaVuSans-20" x="1158.251953"/>
      <use xlink:href="#DejaVuSans-45" x="1190.039062"/>
      <use xlink:href="#DejaVuSans-72" x="1253.222656"/>
      <use xlink:href="#DejaVuSans-72" x="1292.585938"/>
      <use xlink:href="#DejaVuSans-6f" x="1331.449219"/>
      <use xlink:href="#DejaVuSans-72" x="1392.630859"/>
     </g>
    </g>
   </g>
   <g id="line2d_9">
    <path d="M 47.502343 14.380551 
L 48.039061 17.894961 
L 48.575779 23.948685 
L 49.112497 25.33515 
L 49.649215 27.054265 
L 50.185933 25.604317 
L 50.722651 29.710388 
L 52.332805 53.45805 
L 52.869523 43.618209 
L 53.406241 47.640482 
L 53.942959 57.086729 
L 54.479677 61.81747 
L 55.016395 61.830167 
L 55.553113 67.249062 
L 56.089831 67.584252 
L 56.626549 67.155108 
L 57.163267 80.331607 
L 57.699985 80.897874 
L 58.236703 87.048091 
L 58.773421 101.440922 
L 59.310139 100.925441 
L 59.846857 100.765464 
L 60.383575 106.618582 
L 60.920293 105.963439 
L 61.457011 120.467999 
L 61.993729 115.424922 
L 62.530447 122.644191 
L 63.067165 120.287708 
L 63.603883 120.843818 
L 64.140601 130.236739 
L 64.677319 129.700944 
L 65.214037 130.201189 
L 65.750755 146.127764 
L 66.287473 150.84327 
L 243.404416 150.84327 
L 243.404416 150.84327 
" clip-path="url(#p3801adfb90)" style="fill: none; stroke: #4c72b0; stroke-width: 1.5; stroke-linecap: square"/>
   </g>
   <g id="line2d_10">
    <path d="M 47.502343 21.505865 
L 48.039061 29.753556 
L 48.575779 29.484389 
L 49.112497 37.462912 
L 49.649215 35.164834 
L 50.722651 51.563722 
L 51.259369 52.239179 
L 51.796087 54.148743 
L 52.332805 54.839436 
L 52.869523 48.953307 
L 53.406241 65.697542 
L 53.942959 72.802541 
L 55.016395 75.186957 
L 55.553113 69.453187 
L 56.089831 78.711524 
L 56.626549 85.984119 
L 57.163267 86.961755 
L 57.699985 84.252307 
L 58.236703 99.610076 
L 58.773421 101.123507 
L 59.310139 101.329192 
L 59.846857 103.025453 
L 60.383575 106.821727 
L 60.920293 108.58655 
L 61.993729 114.785015 
L 63.067165 129.152452 
L 63.603883 131.879675 
L 64.140601 132.275808 
L 64.677319 133.774003 
L 65.214037 137.405222 
L 65.750755 146.414707 
L 66.287473 150.84327 
L 243.404416 150.84327 
L 243.404416 150.84327 
" clip-path="url(#p3801adfb90)" style="fill: none; stroke: #dd8452; stroke-width: 1.5; stroke-linecap: square"/>
   </g>
   <g id="line2d_11">
    <path d="M 47.502343 22.74505 
L 48.039061 21.815661 
L 48.575779 24.174684 
L 49.112497 20.774543 
L 49.649215 40.266315 
L 50.185933 45.598874 
L 50.722651 45.779165 
L 51.259369 47.749672 
L 51.796087 50.832399 
L 52.332805 52.175696 
L 52.869523 51.462149 
L 53.406241 53.658655 
L 54.479677 56.126868 
L 55.016395 66.913873 
L 55.553113 70.341946 
L 56.089831 72.746677 
L 56.626549 76.667377 
L 57.163267 77.314902 
L 57.699985 86.994766 
L 58.236703 90.895152 
L 58.773421 96.037262 
L 59.310139 95.813802 
L 59.846857 95.021537 
L 60.920293 112.192376 
L 61.457011 115.960717 
L 62.530447 120.109956 
L 63.067165 125.346021 
L 63.603883 136.19143 
L 64.140601 139.243685 
L 65.214037 142.176592 
L 65.750755 143.631619 
L 66.287473 150.84327 
L 243.404416 150.84327 
L 243.404416 150.84327 
" clip-path="url(#p3801adfb90)" style="fill: none; stroke: #55a868; stroke-width: 1.5; stroke-linecap: square"/>
   </g>
   <g id="line2d_12"/>
   <g id="line2d_13"/>
   <g id="line2d_14"/>
   <g id="line2d_15">
    <path d="M 51.259369 150.84327 
L 51.259369 7.2 
" clip-path="url(#p3801adfb90)" style="fill: none; stroke-dasharray: 5.55,2.4; stroke-dashoffset: 0; stroke: #808080; stroke-width: 1.5"/>
   </g>
   <g id="patch_3">
    <path d="M 46.965625 150.84327 
L 46.965625 7.2 
" style="fill: none; stroke: #000000; stroke-width: 0.8; stroke-linejoin: miter; stroke-linecap: square"/>
   </g>
   <g id="patch_4">
    <path d="M 253.19952 150.84327 
L 253.19952 7.2 
" style="fill: none; stroke: #000000; stroke-width: 0.8; stroke-linejoin: miter; stroke-linecap: square"/>
   </g>
   <g id="patch_5">
    <path d="M 46.965625 150.84327 
L 253.19952 150.84327 
" style="fill: none; stroke: #000000; stroke-width: 0.8; stroke-linejoin: miter; stroke-linecap: square"/>
   </g>
   <g id="patch_6">
    <path d="M 46.965625 7.2 
L 253.19952 7.2 
" style="fill: none; stroke: #000000; stroke-width: 0.8; stroke-linejoin: miter; stroke-linecap: square"/>
   </g>
   <g id="legend_1">
    <g id="patch_7">
     <path d="M 97.754207 59.234375 
L 246.19952 59.234375 
Q 248.19952 59.234375 248.19952 57.234375 
L 248.19952 14.2 
Q 248.19952 12.2 246.19952 12.2 
L 97.754207 12.2 
Q 95.754207 12.2 95.754207 14.2 
L 95.754207 57.234375 
Q 95.754207 59.234375 97.754207 59.234375 
z
" style="fill: #ffffff; opacity: 0.8; stroke: #cccccc; stroke-linejoin: miter"/>
    </g>
    <g id="line2d_16">
     <path d="M 99.754207 20.298438 
L 109.754207 20.298438 
L 119.754207 20.298438 
" style="fill: none; stroke: #4c72b0; stroke-width: 1.5; stroke-linecap: square"/>
    </g>
    <g id="text_11">
     <!-- Random -->
     <g transform="translate(127.754207 23.798438) scale(0.1 -0.1)">
      <defs>
       <path id="DejaVuSans-52" d="M 2841 2188 
Q 3044 2119 3236 1894 
Q 3428 1669 3622 1275 
L 4263 0 
L 3584 0 
L 2988 1197 
Q 2756 1666 2539 1819 
Q 2322 1972 1947 1972 
L 1259 1972 
L 1259 0 
L 628 0 
L 628 4666 
L 2053 4666 
Q 2853 4666 3247 4331 
Q 3641 3997 3641 3322 
Q 3641 2881 3436 2590 
Q 3231 2300 2841 2188 
z
M 1259 4147 
L 1259 2491 
L 2053 2491 
Q 2509 2491 2742 2702 
Q 2975 2913 2975 3322 
Q 2975 3731 2742 3939 
Q 2509 4147 2053 4147 
L 1259 4147 
z
" transform="scale(0.015625)"/>
       <path id="DejaVuSans-64" d="M 2906 2969 
L 2906 4863 
L 3481 4863 
L 3481 0 
L 2906 0 
L 2906 525 
Q 2725 213 2448 61 
Q 2172 -91 1784 -91 
Q 1150 -91 751 415 
Q 353 922 353 1747 
Q 353 2572 751 3078 
Q 1150 3584 1784 3584 
Q 2172 3584 2448 3432 
Q 2725 3281 2906 2969 
z
M 947 1747 
Q 947 1113 1208 752 
Q 1469 391 1925 391 
Q 2381 391 2643 752 
Q 2906 1113 2906 1747 
Q 2906 2381 2643 2742 
Q 2381 3103 1925 3103 
Q 1469 3103 1208 2742 
Q 947 2381 947 1747 
z
" transform="scale(0.015625)"/>
      </defs>
      <use xlink:href="#DejaVuSans-52"/>
      <use xlink:href="#DejaVuSans-61" x="67.232422"/>
      <use xlink:href="#DejaVuSans-6e" x="128.511719"/>
      <use xlink:href="#DejaVuSans-64" x="191.890625"/>
      <use xlink:href="#DejaVuSans-6f" x="255.367188"/>
      <use xlink:href="#DejaVuSans-6d" x="316.548828"/>
     </g>
    </g>
    <g id="line2d_17">
     <path d="M 99.754207 34.976563 
L 109.754207 34.976563 
L 119.754207 34.976563 
" style="fill: none; stroke: #dd8452; stroke-width: 1.5; stroke-linecap: square"/>
    </g>
    <g id="text_12">
     <!-- Classification-optimal -->
     <g transform="translate(127.754207 38.476563) scale(0.1 -0.1)">
      <defs>
       <path id="DejaVuSans-2d" d="M 313 2009 
L 1997 2009 
L 1997 1497 
L 313 1497 
L 313 2009 
z
" transform="scale(0.015625)"/>
      </defs>
      <use xlink:href="#DejaVuSans-43"/>
      <use xlink:href="#DejaVuSans-6c" x="69.824219"/>
      <use xlink:href="#DejaVuSans-61" x="97.607422"/>
      <use xlink:href="#DejaVuSans-73" x="158.886719"/>
      <use xlink:href="#DejaVuSans-73" x="210.986328"/>
      <use xlink:href="#DejaVuSans-69" x="263.085938"/>
      <use xlink:href="#DejaVuSans-66" x="290.869141"/>
      <use xlink:href="#DejaVuSans-69" x="326.074219"/>
      <use xlink:href="#DejaVuSans-63" x="353.857422"/>
      <use xlink:href="#DejaVuSans-61" x="408.837891"/>
      <use xlink:href="#DejaVuSans-74" x="470.117188"/>
      <use xlink:href="#DejaVuSans-69" x="509.326172"/>
      <use xlink:href="#DejaVuSans-6f" x="537.109375"/>
      <use xlink:href="#DejaVuSans-6e" x="598.291016"/>
      <use xlink:href="#DejaVuSans-2d" x="661.669922"/>
      <use xlink:href="#DejaVuSans-6f" x="699.628906"/>
      <use xlink:href="#DejaVuSans-70" x="760.810547"/>
      <use xlink:href="#DejaVuSans-74" x="824.287109"/>
      <use xlink:href="#DejaVuSans-69" x="863.496094"/>
      <use xlink:href="#DejaVuSans-6d" x="891.279297"/>
      <use xlink:href="#DejaVuSans-61" x="988.691406"/>
      <use xlink:href="#DejaVuSans-6c" x="1049.970703"/>
     </g>
    </g>
    <g id="line2d_18">
     <path d="M 99.754207 49.654688 
L 109.754207 49.654688 
L 119.754207 49.654688 
" style="fill: none; stroke: #55a868; stroke-width: 1.5; stroke-linecap: square"/>
    </g>
    <g id="text_13">
     <!-- Reconstruction-optimal -->
     <g transform="translate(127.754207 53.154688) scale(0.1 -0.1)">
      <defs>
       <path id="DejaVuSans-75" d="M 544 1381 
L 544 3500 
L 1119 3500 
L 1119 1403 
Q 1119 906 1312 657 
Q 1506 409 1894 409 
Q 2359 409 2629 706 
Q 2900 1003 2900 1516 
L 2900 3500 
L 3475 3500 
L 3475 0 
L 2900 0 
L 2900 538 
Q 2691 219 2414 64 
Q 2138 -91 1772 -91 
Q 1169 -91 856 284 
Q 544 659 544 1381 
z
M 1991 3584 
L 1991 3584 
z
" transform="scale(0.015625)"/>
      </defs>
      <use xlink:href="#DejaVuSans-52"/>
      <use xlink:href="#DejaVuSans-65" x="64.982422"/>
      <use xlink:href="#DejaVuSans-63" x="126.505859"/>
      <use xlink:href="#DejaVuSans-6f" x="181.486328"/>
      <use xlink:href="#DejaVuSans-6e" x="242.667969"/>
      <use xlink:href="#DejaVuSans-73" x="306.046875"/>
      <use xlink:href="#DejaVuSans-74" x="358.146484"/>
      <use xlink:href="#DejaVuSans-72" x="397.355469"/>
      <use xlink:href="#DejaVuSans-75" x="438.46875"/>
      <use xlink:href="#DejaVuSans-63" x="501.847656"/>
      <use xlink:href="#DejaVuSans-74" x="556.828125"/>
      <use xlink:href="#DejaVuSans-69" x="596.037109"/>
      <use xlink:href="#DejaVuSans-6f" x="623.820312"/>
      <use xlink:href="#DejaVuSans-6e" x="685.001953"/>
      <use xlink:href="#DejaVuSans-2d" x="748.380859"/>
      <use xlink:href="#DejaVuSans-6f" x="786.339844"/>
      <use xlink:href="#DejaVuSans-70" x="847.521484"/>
      <use xlink:href="#DejaVuSans-74" x="910.998047"/>
      <use xlink:href="#DejaVuSans-69" x="950.207031"/>
      <use xlink:href="#DejaVuSans-6d" x="977.990234"/>
      <use xlink:href="#DejaVuSans-61" x="1075.402344"/>
      <use xlink:href="#DejaVuSans-6c" x="1136.681641"/>
     </g>
    </g>
   </g>
  </g>
 </g>
 <defs>
  <clipPath id="p3801adfb90">
   <rect x="46.965625" y="7.2" width="206.233895" height="143.64327"/>
  </clipPath>
 </defs>
</svg>
