<?xml version="1.0" encoding="utf-8" standalone="no"?>
<!DOCTYPE svg PUBLIC "-//W3C//DTD SVG 1.1//EN"
  "http://www.w3.org/Graphics/SVG/1.1/DTD/svg11.dtd">
<svg xmlns:xlink="http://www.w3.org/1999/xlink" width="260.39952pt" height="188.39952pt" viewBox="0 0 260.39952 188.39952" xmlns="http://www.w3.org/2000/svg" version="1.1">
 <metadata>
  <rdf:RDF xmlns:dc="http://purl.org/dc/elements/1.1/" xmlns:cc="http://creativecommons.org/ns#" xmlns:rdf="http://www.w3.org/1999/02/22-rdf-syntax-ns#">
   <cc:Work>
    <dc:type rdf:resource="http://purl.org/dc/dcmitype/StillImage"/>
    <dc:date>1980-01-01T00:00:00+00:00</dc:date>
    <dc:format>image/svg+xml</dc:format>
    <dc:creator>
     <cc:Agent>
      <dc:title>Matplotlib v3.7.5, https://matplotlib.org/</dc:title>
     </cc:Agent>
    </dc:creator>
   </cc:Work>
  </rdf:RDF>
 </metadata>
 <defs>
  <style type="text/css">*{stroke-linejoin: round; stroke-linecap: butt}</style>
 </defs>
 <g id="figure_1">
  <g id="patch_1">
   <path d="M -0 188.39952 
L 260.39952 188.39952 
L 260.39952 0 
L -0 0 
z
" style="fill: #ffffff"/>
  </g>
  <g id="axes_1">
   <g id="patch_2">
    <path d="M 40.603125 150.84327 
L 253.19952 150.84327 
L 253.19952 7.2 
L 40.603125 7.2 
z
" style="fill: #ffffff"/>
   </g>
   <g id="PolyCollection_1">
    <defs>
     <path id="m79e7935ffc" d="M 45.209764 -164.089641 
L 45.209764 -155.067006 
L 49.816403 -146.733895 
L 54.423042 -158.271986 
L 59.029681 -159.088958 
L 63.636321 -158.924746 
L 68.24296 -159.481104 
L 72.849599 -127.716428 
L 77.456238 -128.271969 
L 82.062877 -147.847427 
L 86.669516 -128.270335 
L 91.276155 -117.226512 
L 95.882794 -101.802086 
L 100.489433 -113.5338 
L 105.096073 -113.076295 
L 109.702712 -113.794413 
L 114.309351 -110.462803 
L 118.91599 -110.298592 
L 123.522629 -108.436713 
L 128.129268 -107.847677 
L 132.735907 -108.53475 
L 137.342546 -109.513482 
L 141.949185 -103.664782 
L 146.555825 -104.57979 
L 151.162464 -102.651737 
L 155.769103 -102.488342 
L 160.375742 -99.842171 
L 164.982381 -99.024382 
L 169.58902 -98.762952 
L 174.195659 -98.468842 
L 178.802298 -97.194366 
L 183.408937 -95.852898 
L 188.015577 -96.049789 
L 192.622216 -95.397845 
L 197.228855 -96.148642 
L 201.835494 -95.560423 
L 206.442133 -95.429707 
L 211.048772 -95.494248 
L 215.655411 -94.906028 
L 220.26205 -94.67891 
L 224.868689 -94.253268 
L 229.475329 -94.089873 
L 234.081968 -93.859487 
L 238.688607 -93.043333 
L 243.295246 -93.371755 
L 243.295246 -100.822537 
L 243.295246 -100.822537 
L 238.688607 -101.051289 
L 234.081968 -101.672188 
L 229.475329 -101.966297 
L 224.868689 -102.130509 
L 220.26205 -102.360078 
L 215.655411 -102.62396 
L 211.048772 -102.816765 
L 206.442133 -103.012021 
L 201.835494 -103.175416 
L 197.228855 -104.092058 
L 192.622216 -103.469525 
L 188.015577 -103.797131 
L 183.408937 -103.667233 
L 178.802298 -104.580607 
L 174.195659 -105.855083 
L 169.58902 -106.41144 
L 164.982381 -106.770908 
L 160.375742 -107.685916 
L 155.769103 -110.495482 
L 151.162464 -110.920307 
L 146.555825 -112.068152 
L 141.949185 -111.60738 
L 137.342546 -119.351455 
L 132.735907 -118.207695 
L 128.129268 -117.783686 
L 123.522629 -117.979759 
L 118.91599 -120.073658 
L 114.309351 -119.744418 
L 109.702712 -123.928947 
L 105.096073 -123.403634 
L 100.489433 -124.123386 
L 95.882794 -110.462803 
L 91.276155 -126.347183 
L 86.669516 -141.24793 
L 82.062877 -155.984465 
L 77.456238 -136.21375 
L 72.849599 -135.985815 
L 68.24296 -166.508694 
L 63.636321 -169.417931 
L 59.029681 -167.977609 
L 54.423042 -166.343666 
L 49.816403 -155.134815 
L 45.209764 -164.089641 
z
" style="stroke: #4c72b0; stroke-opacity: 0.2"/>
    </defs>
    <g clip-path="url(#p89b697f5bf)">
     <use xlink:href="#m79e7935ffc" x="0" y="188.39952" style="fill: #4c72b0; fill-opacity: 0.2; stroke: #4c72b0; stroke-opacity: 0.2"/>
    </g>
   </g>
   <g id="PolyCollection_2">
    <defs>
     <path id="m7c2aedcd85" d="M 45.209764 -176.996977 
L 45.209764 -171.015927 
L 49.816403 -165.199906 
L 54.423042 -151.246029 
L 59.029681 -123.49922 
L 63.636321 -114.546844 
L 68.24296 -114.022349 
L 72.849599 -108.860722 
L 77.456238 -97.683732 
L 82.062877 -99.515382 
L 86.669516 -104.089607 
L 91.276155 -103.175416 
L 95.882794 -103.894351 
L 100.489433 -104.253001 
L 105.096073 -104.253818 
L 109.702712 -104.384534 
L 114.309351 -103.33881 
L 118.91599 -99.940208 
L 123.522629 -98.794813 
L 128.129268 -100.691005 
L 132.735907 -99.906712 
L 137.342546 -98.633053 
L 141.949185 -98.468842 
L 146.555825 -97.292402 
L 151.162464 -104.221139 
L 155.769103 -103.99157 
L 160.375742 -102.421351 
L 164.982381 -101.344582 
L 169.58902 -101.539838 
L 174.195659 -99.775996 
L 178.802298 -100.136281 
L 183.408937 -99.548061 
L 188.015577 -98.14287 
L 192.622216 -97.946797 
L 197.228855 -97.391256 
L 201.835494 -99.350354 
L 206.442133 -99.414078 
L 211.048772 -99.057061 
L 215.655411 -97.946797 
L 220.26205 -97.520338 
L 224.868689 -96.181321 
L 229.475329 -96.246679 
L 234.081968 -95.885577 
L 238.688607 -94.285947 
L 243.295246 -93.500837 
L 243.295246 -100.953253 
L 243.295246 -100.953253 
L 238.688607 -102.195867 
L 234.081968 -103.699911 
L 229.475329 -104.48257 
L 224.868689 -103.797131 
L 220.26205 -105.201505 
L 215.655411 -105.757046 
L 211.048772 -107.000477 
L 206.442133 -107.261908 
L 201.835494 -106.836266 
L 197.228855 -105.202322 
L 192.622216 -105.694956 
L 188.015577 -106.346083 
L 183.408937 -107.815815 
L 178.802298 -108.207961 
L 174.195659 -107.654054 
L 169.58902 -109.711189 
L 164.982381 -109.743868 
L 160.375742 -110.364766 
L 155.769103 -111.835315 
L 151.162464 -111.966848 
L 146.555825 -105.757863 
L 141.949185 -107.489026 
L 137.342546 -107.489843 
L 132.735907 -109.221006 
L 128.129268 -109.646648 
L 123.522629 -108.436713 
L 118.91599 -109.156465 
L 114.309351 -112.325498 
L 109.702712 -112.946397 
L 105.096073 -112.818949 
L 100.489433 -112.946397 
L 95.882794 -113.077929 
L 91.276155 -114.090157 
L 86.669516 -114.646515 
L 82.062877 -108.993071 
L 77.456238 -107.065018 
L 72.849599 -118.275503 
L 68.24296 -124.058846 
L 63.636321 -124.97222 
L 59.029681 -134.286514 
L 54.423042 -160.691856 
L 49.816403 -176.901391 
L 45.209764 -176.996977 
z
" style="stroke: #dd8452; stroke-opacity: 0.2"/>
    </defs>
    <g clip-path="url(#p89b697f5bf)">
     <use xlink:href="#m7c2aedcd85" x="0" y="188.39952" style="fill: #dd8452; fill-opacity: 0.2; stroke: #dd8452; stroke-opacity: 0.2"/>
    </g>
   </g>
   <g id="PolyCollection_3">
    <defs>
     <path id="m1ced06f2bd" d="M 45.209764 -171.016744 
L 45.209764 -162.976926 
L 49.816403 -167.191683 
L 54.423042 -156.735262 
L 59.029681 -140.690755 
L 63.636321 -121.01726 
L 68.24296 -111.409673 
L 72.849599 -103.077379 
L 77.456238 -102.586379 
L 82.062877 -103.664782 
L 86.669516 -97.718045 
L 91.276155 -98.273585 
L 95.882794 -97.55465 
L 100.489433 -98.829126 
L 105.096073 -97.881439 
L 109.702712 -98.829126 
L 114.309351 -98.175549 
L 118.91599 -97.651053 
L 123.522629 -98.370805 
L 128.129268 -97.195183 
L 132.735907 -96.965614 
L 137.342546 -97.390439 
L 141.949185 -96.99911 
L 146.555825 -96.084101 
L 151.162464 -96.050606 
L 155.769103 -95.429707 
L 160.375742 -95.789175 
L 164.982381 -95.200138 
L 169.58902 -95.233634 
L 174.195659 -95.364349 
L 178.802298 -94.254085 
L 183.408937 -94.809626 
L 188.015577 -94.220589 
L 192.622216 -95.233634 
L 197.228855 -94.612735 
L 201.835494 -94.972203 
L 206.442133 -94.676459 
L 211.048772 -94.97302 
L 215.655411 -94.415845 
L 220.26205 -95.135597 
L 224.868689 -94.155231 
L 229.475329 -94.448524 
L 234.081968 -93.926479 
L 238.688607 -93.468158 
L 243.295246 -92.946113 
L 243.295246 -100.69509 
L 243.295246 -100.69509 
L 238.688607 -100.857667 
L 234.081968 -101.247362 
L 229.475329 -101.477748 
L 224.868689 -101.90094 
L 220.26205 -102.523472 
L 215.655411 -102.521838 
L 211.048772 -102.753041 
L 206.442133 -102.816765 
L 201.835494 -103.377208 
L 197.228855 -103.437663 
L 192.622216 -103.504655 
L 188.015577 -102.784903 
L 183.408937 -103.33881 
L 178.802298 -102.358444 
L 174.195659 -103.699094 
L 169.58902 -103.503838 
L 164.982381 -103.634554 
L 160.375742 -104.451525 
L 155.769103 -103.634554 
L 151.162464 -104.286497 
L 146.555825 -104.712139 
L 141.949185 -106.475981 
L 137.342546 -106.051156 
L 132.735907 -106.510294 
L 128.129268 -106.639375 
L 123.522629 -107.129559 
L 118.91599 -106.933485 
L 114.309351 -106.642643 
L 109.702712 -107.033156 
L 105.096073 -106.542156 
L 100.489433 -107.162237 
L 95.882794 -105.467021 
L 91.276155 -106.314221 
L 86.669516 -106.149192 
L 82.062877 -112.129425 
L 77.456238 -110.761815 
L 72.849599 -111.836949 
L 68.24296 -122.423268 
L 63.636321 -129.318509 
L 59.029681 -148.340061 
L 54.423042 -162.226946 
L 49.816403 -175.330355 
L 45.209764 -171.016744 
z
" style="stroke: #55a868; stroke-opacity: 0.2"/>
    </defs>
    <g clip-path="url(#p89b697f5bf)">
     <use xlink:href="#m1ced06f2bd" x="0" y="188.39952" style="fill: #55a868; fill-opacity: 0.2; stroke: #55a868; stroke-opacity: 0.2"/>
    </g>
   </g>
   <g id="matplotlib.axis_1">
    <g id="xtick_1">
     <g id="line2d_1">
      <defs>
       <path id="m8020d9aece" d="M 0 0 
L 0 3.5 
" style="stroke: #000000; stroke-width: 0.8"/>
      </defs>
      <g>
       <use xlink:href="#m8020d9aece" x="40.603125" y="150.84327" style="stroke: #000000; stroke-width: 0.8"/>
      </g>
     </g>
     <g id="text_1">
      <!-- 0 -->
      <g transform="translate(37.421875 165.441708) scale(0.1 -0.1)">
       <defs>
        <path id="DejaVuSans-30" d="M 2034 4250 
Q 1547 4250 1301 3770 
Q 1056 3291 1056 2328 
Q 1056 1369 1301 889 
Q 1547 409 2034 409 
Q 2525 409 2770 889 
Q 3016 1369 3016 2328 
Q 3016 3291 2770 3770 
Q 2525 4250 2034 4250 
z
M 2034 4750 
Q 2819 4750 3233 4129 
Q 3647 3509 3647 2328 
Q 3647 1150 3233 529 
Q 2819 -91 2034 -91 
Q 1250 -91 836 529 
Q 422 1150 422 2328 
Q 422 3509 836 4129 
Q 1250 4750 2034 4750 
z
" transform="scale(0.015625)"/>
       </defs>
       <use xlink:href="#DejaVuSans-30"/>
      </g>
     </g>
    </g>
    <g id="xtick_2">
     <g id="line2d_2">
      <g>
       <use xlink:href="#m8020d9aece" x="86.669516" y="150.84327" style="stroke: #000000; stroke-width: 0.8"/>
      </g>
     </g>
     <g id="text_2">
      <!-- 10 -->
      <g transform="translate(80.307016 165.441708) scale(0.1 -0.1)">
       <defs>
        <path id="DejaVuSans-31" d="M 794 531 
L 1825 531 
L 1825 4091 
L 703 3866 
L 703 4441 
L 1819 4666 
L 2450 4666 
L 2450 531 
L 3481 531 
L 3481 0 
L 794 0 
L 794 531 
z
" transform="scale(0.015625)"/>
       </defs>
       <use xlink:href="#DejaVuSans-31"/>
       <use xlink:href="#DejaVuSans-30" x="63.623047"/>
      </g>
     </g>
    </g>
    <g id="xtick_3">
     <g id="line2d_3">
      <g>
       <use xlink:href="#m8020d9aece" x="132.735907" y="150.84327" style="stroke: #000000; stroke-width: 0.8"/>
      </g>
     </g>
     <g id="text_3">
      <!-- 20 -->
      <g transform="translate(126.373407 165.441708) scale(0.1 -0.1)">
       <defs>
        <path id="DejaVuSans-32" d="M 1228 531 
L 3431 531 
L 3431 0 
L 469 0 
L 469 531 
Q 828 903 1448 1529 
Q 2069 2156 2228 2338 
Q 2531 2678 2651 2914 
Q 2772 3150 2772 3378 
Q 2772 3750 2511 3984 
Q 2250 4219 1831 4219 
Q 1534 4219 1204 4116 
Q 875 4013 500 3803 
L 500 4441 
Q 881 4594 1212 4672 
Q 1544 4750 1819 4750 
Q 2544 4750 2975 4387 
Q 3406 4025 3406 3419 
Q 3406 3131 3298 2873 
Q 3191 2616 2906 2266 
Q 2828 2175 2409 1742 
Q 1991 1309 1228 531 
z
" transform="scale(0.015625)"/>
       </defs>
       <use xlink:href="#DejaVuSans-32"/>
       <use xlink:href="#DejaVuSans-30" x="63.623047"/>
      </g>
     </g>
    </g>
    <g id="xtick_4">
     <g id="line2d_4">
      <g>
       <use xlink:href="#m8020d9aece" x="178.802298" y="150.84327" style="stroke: #000000; stroke-width: 0.8"/>
      </g>
     </g>
     <g id="text_4">
      <!-- 30 -->
      <g transform="translate(172.439798 165.441708) scale(0.1 -0.1)">
       <defs>
        <path id="DejaVuSans-33" d="M 2597 2516 
Q 3050 2419 3304 2112 
Q 3559 1806 3559 1356 
Q 3559 666 3084 287 
Q 2609 -91 1734 -91 
Q 1441 -91 1130 -33 
Q 819 25 488 141 
L 488 750 
Q 750 597 1062 519 
Q 1375 441 1716 441 
Q 2309 441 2620 675 
Q 2931 909 2931 1356 
Q 2931 1769 2642 2001 
Q 2353 2234 1838 2234 
L 1294 2234 
L 1294 2753 
L 1863 2753 
Q 2328 2753 2575 2939 
Q 2822 3125 2822 3475 
Q 2822 3834 2567 4026 
Q 2313 4219 1838 4219 
Q 1578 4219 1281 4162 
Q 984 4106 628 3988 
L 628 4550 
Q 988 4650 1302 4700 
Q 1616 4750 1894 4750 
Q 2613 4750 3031 4423 
Q 3450 4097 3450 3541 
Q 3450 3153 3228 2886 
Q 3006 2619 2597 2516 
z
" transform="scale(0.015625)"/>
       </defs>
       <use xlink:href="#DejaVuSans-33"/>
       <use xlink:href="#DejaVuSans-30" x="63.623047"/>
      </g>
     </g>
    </g>
    <g id="xtick_5">
     <g id="line2d_5">
      <g>
       <use xlink:href="#m8020d9aece" x="224.868689" y="150.84327" style="stroke: #000000; stroke-width: 0.8"/>
      </g>
     </g>
     <g id="text_5">
      <!-- 40 -->
      <g transform="translate(218.506189 165.441708) scale(0.1 -0.1)">
       <defs>
        <path id="DejaVuSans-34" d="M 2419 4116 
L 825 1625 
L 2419 1625 
L 2419 4116 
z
M 2253 4666 
L 3047 4666 
L 3047 1625 
L 3713 1625 
L 3713 1100 
L 3047 1100 
L 3047 0 
L 2419 0 
L 2419 1100 
L 313 1100 
L 313 1709 
L 2253 4666 
z
" transform="scale(0.015625)"/>
       </defs>
       <use xlink:href="#DejaVuSans-34"/>
       <use xlink:href="#DejaVuSans-30" x="63.623047"/>
      </g>
     </g>
    </g>
    <g id="text_6">
     <!-- Sample Size -->
     <g transform="translate(116.29976 179.119833) scale(0.1 -0.1)">
      <defs>
       <path id="DejaVuSans-53" d="M 3425 4513 
L 3425 3897 
Q 3066 4069 2747 4153 
Q 2428 4238 2131 4238 
Q 1616 4238 1336 4038 
Q 1056 3838 1056 3469 
Q 1056 3159 1242 3001 
Q 1428 2844 1947 2747 
L 2328 2669 
Q 3034 2534 3370 2195 
Q 3706 1856 3706 1288 
Q 3706 609 3251 259 
Q 2797 -91 1919 -91 
Q 1588 -91 1214 -16 
Q 841 59 441 206 
L 441 856 
Q 825 641 1194 531 
Q 1563 422 1919 422 
Q 2459 422 2753 634 
Q 3047 847 3047 1241 
Q 3047 1584 2836 1778 
Q 2625 1972 2144 2069 
L 1759 2144 
Q 1053 2284 737 2584 
Q 422 2884 422 3419 
Q 422 4038 858 4394 
Q 1294 4750 2059 4750 
Q 2388 4750 2728 4690 
Q 3069 4631 3425 4513 
z
" transform="scale(0.015625)"/>
       <path id="DejaVuSans-61" d="M 2194 1759 
Q 1497 1759 1228 1600 
Q 959 1441 959 1056 
Q 959 750 1161 570 
Q 1363 391 1709 391 
Q 2188 391 2477 730 
Q 2766 1069 2766 1631 
L 2766 1759 
L 2194 1759 
z
M 3341 1997 
L 3341 0 
L 2766 0 
L 2766 531 
Q 2569 213 2275 61 
Q 1981 -91 1556 -91 
Q 1019 -91 701 211 
Q 384 513 384 1019 
Q 384 1609 779 1909 
Q 1175 2209 1959 2209 
L 2766 2209 
L 2766 2266 
Q 2766 2663 2505 2880 
Q 2244 3097 1772 3097 
Q 1472 3097 1187 3025 
Q 903 2953 641 2809 
L 641 3341 
Q 956 3463 1253 3523 
Q 1550 3584 1831 3584 
Q 2591 3584 2966 3190 
Q 3341 2797 3341 1997 
z
" transform="scale(0.015625)"/>
       <path id="DejaVuSans-6d" d="M 3328 2828 
Q 3544 3216 3844 3400 
Q 4144 3584 4550 3584 
Q 5097 3584 5394 3201 
Q 5691 2819 5691 2113 
L 5691 0 
L 5113 0 
L 5113 2094 
Q 5113 2597 4934 2840 
Q 4756 3084 4391 3084 
Q 3944 3084 3684 2787 
Q 3425 2491 3425 1978 
L 3425 0 
L 2847 0 
L 2847 2094 
Q 2847 2600 2669 2842 
Q 2491 3084 2119 3084 
Q 1678 3084 1418 2786 
Q 1159 2488 1159 1978 
L 1159 0 
L 581 0 
L 581 3500 
L 1159 3500 
L 1159 2956 
Q 1356 3278 1631 3431 
Q 1906 3584 2284 3584 
Q 2666 3584 2933 3390 
Q 3200 3197 3328 2828 
z
" transform="scale(0.015625)"/>
       <path id="DejaVuSans-70" d="M 1159 525 
L 1159 -1331 
L 581 -1331 
L 581 3500 
L 1159 3500 
L 1159 2969 
Q 1341 3281 1617 3432 
Q 1894 3584 2278 3584 
Q 2916 3584 3314 3078 
Q 3713 2572 3713 1747 
Q 3713 922 3314 415 
Q 2916 -91 2278 -91 
Q 1894 -91 1617 61 
Q 1341 213 1159 525 
z
M 3116 1747 
Q 3116 2381 2855 2742 
Q 2594 3103 2138 3103 
Q 1681 3103 1420 2742 
Q 1159 2381 1159 1747 
Q 1159 1113 1420 752 
Q 1681 391 2138 391 
Q 2594 391 2855 752 
Q 3116 1113 3116 1747 
z
" transform="scale(0.015625)"/>
       <path id="DejaVuSans-6c" d="M 603 4863 
L 1178 4863 
L 1178 0 
L 603 0 
L 603 4863 
z
" transform="scale(0.015625)"/>
       <path id="DejaVuSans-65" d="M 3597 1894 
L 3597 1613 
L 953 1613 
Q 991 1019 1311 708 
Q 1631 397 2203 397 
Q 2534 397 2845 478 
Q 3156 559 3463 722 
L 3463 178 
Q 3153 47 2828 -22 
Q 2503 -91 2169 -91 
Q 1331 -91 842 396 
Q 353 884 353 1716 
Q 353 2575 817 3079 
Q 1281 3584 2069 3584 
Q 2775 3584 3186 3129 
Q 3597 2675 3597 1894 
z
M 3022 2063 
Q 3016 2534 2758 2815 
Q 2500 3097 2075 3097 
Q 1594 3097 1305 2825 
Q 1016 2553 972 2059 
L 3022 2063 
z
" transform="scale(0.015625)"/>
       <path id="DejaVuSans-20" transform="scale(0.015625)"/>
       <path id="DejaVuSans-69" d="M 603 3500 
L 1178 3500 
L 1178 0 
L 603 0 
L 603 3500 
z
M 603 4863 
L 1178 4863 
L 1178 4134 
L 603 4134 
L 603 4863 
z
" transform="scale(0.015625)"/>
       <path id="DejaVuSans-7a" d="M 353 3500 
L 3084 3500 
L 3084 2975 
L 922 459 
L 3084 459 
L 3084 0 
L 275 0 
L 275 525 
L 2438 3041 
L 353 3041 
L 353 3500 
z
" transform="scale(0.015625)"/>
      </defs>
      <use xlink:href="#DejaVuSans-53"/>
      <use xlink:href="#DejaVuSans-61" x="63.476562"/>
      <use xlink:href="#DejaVuSans-6d" x="124.755859"/>
      <use xlink:href="#DejaVuSans-70" x="222.167969"/>
      <use xlink:href="#DejaVuSans-6c" x="285.644531"/>
      <use xlink:href="#DejaVuSans-65" x="313.427734"/>
      <use xlink:href="#DejaVuSans-20" x="374.951172"/>
      <use xlink:href="#DejaVuSans-53" x="406.738281"/>
      <use xlink:href="#DejaVuSans-69" x="470.214844"/>
      <use xlink:href="#DejaVuSans-7a" x="497.998047"/>
      <use xlink:href="#DejaVuSans-65" x="550.488281"/>
     </g>
    </g>
   </g>
   <g id="matplotlib.axis_2">
    <g id="ytick_1">
     <g id="line2d_6">
      <defs>
       <path id="m1e7a185c30" d="M 0 0 
L -3.5 0 
" style="stroke: #000000; stroke-width: 0.8"/>
      </defs>
      <g>
       <use xlink:href="#m1e7a185c30" x="40.603125" y="150.84327" style="stroke: #000000; stroke-width: 0.8"/>
      </g>
     </g>
     <g id="text_7">
      <!-- 0 -->
      <g transform="translate(27.240625 154.642489) scale(0.1 -0.1)">
       <use xlink:href="#DejaVuSans-30"/>
      </g>
     </g>
    </g>
    <g id="ytick_2">
     <g id="line2d_7">
      <g>
       <use xlink:href="#m1e7a185c30" x="40.603125" y="119.798346" style="stroke: #000000; stroke-width: 0.8"/>
      </g>
     </g>
     <g id="text_8">
      <!-- 5 -->
      <g transform="translate(27.240625 123.597565) scale(0.1 -0.1)">
       <defs>
        <path id="DejaVuSans-35" d="M 691 4666 
L 3169 4666 
L 3169 4134 
L 1269 4134 
L 1269 2991 
Q 1406 3038 1543 3061 
Q 1681 3084 1819 3084 
Q 2600 3084 3056 2656 
Q 3513 2228 3513 1497 
Q 3513 744 3044 326 
Q 2575 -91 1722 -91 
Q 1428 -91 1123 -41 
Q 819 9 494 109 
L 494 744 
Q 775 591 1075 516 
Q 1375 441 1709 441 
Q 2250 441 2565 725 
Q 2881 1009 2881 1497 
Q 2881 1984 2565 2268 
Q 2250 2553 1709 2553 
Q 1456 2553 1204 2497 
Q 953 2441 691 2322 
L 691 4666 
z
" transform="scale(0.015625)"/>
       </defs>
       <use xlink:href="#DejaVuSans-35"/>
      </g>
     </g>
    </g>
    <g id="ytick_3">
     <g id="line2d_8">
      <g>
       <use xlink:href="#m1e7a185c30" x="40.603125" y="88.753422" style="stroke: #000000; stroke-width: 0.8"/>
      </g>
     </g>
     <g id="text_9">
      <!-- 10 -->
      <g transform="translate(20.878125 92.552641) scale(0.1 -0.1)">
       <use xlink:href="#DejaVuSans-31"/>
       <use xlink:href="#DejaVuSans-30" x="63.623047"/>
      </g>
     </g>
    </g>
    <g id="ytick_4">
     <g id="line2d_9">
      <g>
       <use xlink:href="#m1e7a185c30" x="40.603125" y="57.708498" style="stroke: #000000; stroke-width: 0.8"/>
      </g>
     </g>
     <g id="text_10">
      <!-- 15 -->
      <g transform="translate(20.878125 61.507717) scale(0.1 -0.1)">
       <use xlink:href="#DejaVuSans-31"/>
       <use xlink:href="#DejaVuSans-35" x="63.623047"/>
      </g>
     </g>
    </g>
    <g id="ytick_5">
     <g id="line2d_10">
      <g>
       <use xlink:href="#m1e7a185c30" x="40.603125" y="26.663574" style="stroke: #000000; stroke-width: 0.8"/>
      </g>
     </g>
     <g id="text_11">
      <!-- 20 -->
      <g transform="translate(20.878125 30.462793) scale(0.1 -0.1)">
       <use xlink:href="#DejaVuSans-32"/>
       <use xlink:href="#DejaVuSans-30" x="63.623047"/>
      </g>
     </g>
    </g>
    <g id="text_12">
     <!-- Empirical Classification Error -->
     <g transform="translate(14.798438 150.707573) rotate(-90) scale(0.1 -0.1)">
      <defs>
       <path id="DejaVuSans-45" d="M 628 4666 
L 3578 4666 
L 3578 4134 
L 1259 4134 
L 1259 2753 
L 3481 2753 
L 3481 2222 
L 1259 2222 
L 1259 531 
L 3634 531 
L 3634 0 
L 628 0 
L 628 4666 
z
" transform="scale(0.015625)"/>
       <path id="DejaVuSans-72" d="M 2631 2963 
Q 2534 3019 2420 3045 
Q 2306 3072 2169 3072 
Q 1681 3072 1420 2755 
Q 1159 2438 1159 1844 
L 1159 0 
L 581 0 
L 581 3500 
L 1159 3500 
L 1159 2956 
Q 1341 3275 1631 3429 
Q 1922 3584 2338 3584 
Q 2397 3584 2469 3576 
Q 2541 3569 2628 3553 
L 2631 2963 
z
" transform="scale(0.015625)"/>
       <path id="DejaVuSans-63" d="M 3122 3366 
L 3122 2828 
Q 2878 2963 2633 3030 
Q 2388 3097 2138 3097 
Q 1578 3097 1268 2742 
Q 959 2388 959 1747 
Q 959 1106 1268 751 
Q 1578 397 2138 397 
Q 2388 397 2633 464 
Q 2878 531 3122 666 
L 3122 134 
Q 2881 22 2623 -34 
Q 2366 -91 2075 -91 
Q 1284 -91 818 406 
Q 353 903 353 1747 
Q 353 2603 823 3093 
Q 1294 3584 2113 3584 
Q 2378 3584 2631 3529 
Q 2884 3475 3122 3366 
z
" transform="scale(0.015625)"/>
       <path id="DejaVuSans-43" d="M 4122 4306 
L 4122 3641 
Q 3803 3938 3442 4084 
Q 3081 4231 2675 4231 
Q 1875 4231 1450 3742 
Q 1025 3253 1025 2328 
Q 1025 1406 1450 917 
Q 1875 428 2675 428 
Q 3081 428 3442 575 
Q 3803 722 4122 1019 
L 4122 359 
Q 3791 134 3420 21 
Q 3050 -91 2638 -91 
Q 1578 -91 968 557 
Q 359 1206 359 2328 
Q 359 3453 968 4101 
Q 1578 4750 2638 4750 
Q 3056 4750 3426 4639 
Q 3797 4528 4122 4306 
z
" transform="scale(0.015625)"/>
       <path id="DejaVuSans-73" d="M 2834 3397 
L 2834 2853 
Q 2591 2978 2328 3040 
Q 2066 3103 1784 3103 
Q 1356 3103 1142 2972 
Q 928 2841 928 2578 
Q 928 2378 1081 2264 
Q 1234 2150 1697 2047 
L 1894 2003 
Q 2506 1872 2764 1633 
Q 3022 1394 3022 966 
Q 3022 478 2636 193 
Q 2250 -91 1575 -91 
Q 1294 -91 989 -36 
Q 684 19 347 128 
L 347 722 
Q 666 556 975 473 
Q 1284 391 1588 391 
Q 1994 391 2212 530 
Q 2431 669 2431 922 
Q 2431 1156 2273 1281 
Q 2116 1406 1581 1522 
L 1381 1569 
Q 847 1681 609 1914 
Q 372 2147 372 2553 
Q 372 3047 722 3315 
Q 1072 3584 1716 3584 
Q 2034 3584 2315 3537 
Q 2597 3491 2834 3397 
z
" transform="scale(0.015625)"/>
       <path id="DejaVuSans-66" d="M 2375 4863 
L 2375 4384 
L 1825 4384 
Q 1516 4384 1395 4259 
Q 1275 4134 1275 3809 
L 1275 3500 
L 2222 3500 
L 2222 3053 
L 1275 3053 
L 1275 0 
L 697 0 
L 697 3053 
L 147 3053 
L 147 3500 
L 697 3500 
L 697 3744 
Q 697 4328 969 4595 
Q 1241 4863 1831 4863 
L 2375 4863 
z
" transform="scale(0.015625)"/>
       <path id="DejaVuSans-74" d="M 1172 4494 
L 1172 3500 
L 2356 3500 
L 2356 3053 
L 1172 3053 
L 1172 1153 
Q 1172 725 1289 603 
Q 1406 481 1766 481 
L 2356 481 
L 2356 0 
L 1766 0 
Q 1100 0 847 248 
Q 594 497 594 1153 
L 594 3053 
L 172 3053 
L 172 3500 
L 594 3500 
L 594 4494 
L 1172 4494 
z
" transform="scale(0.015625)"/>
       <path id="DejaVuSans-6f" d="M 1959 3097 
Q 1497 3097 1228 2736 
Q 959 2375 959 1747 
Q 959 1119 1226 758 
Q 1494 397 1959 397 
Q 2419 397 2687 759 
Q 2956 1122 2956 1747 
Q 2956 2369 2687 2733 
Q 2419 3097 1959 3097 
z
M 1959 3584 
Q 2709 3584 3137 3096 
Q 3566 2609 3566 1747 
Q 3566 888 3137 398 
Q 2709 -91 1959 -91 
Q 1206 -91 779 398 
Q 353 888 353 1747 
Q 353 2609 779 3096 
Q 1206 3584 1959 3584 
z
" transform="scale(0.015625)"/>
       <path id="DejaVuSans-6e" d="M 3513 2113 
L 3513 0 
L 2938 0 
L 2938 2094 
Q 2938 2591 2744 2837 
Q 2550 3084 2163 3084 
Q 1697 3084 1428 2787 
Q 1159 2491 1159 1978 
L 1159 0 
L 581 0 
L 581 3500 
L 1159 3500 
L 1159 2956 
Q 1366 3272 1645 3428 
Q 1925 3584 2291 3584 
Q 2894 3584 3203 3211 
Q 3513 2838 3513 2113 
z
" transform="scale(0.015625)"/>
      </defs>
      <use xlink:href="#DejaVuSans-45"/>
      <use xlink:href="#DejaVuSans-6d" x="63.183594"/>
      <use xlink:href="#DejaVuSans-70" x="160.595703"/>
      <use xlink:href="#DejaVuSans-69" x="224.072266"/>
      <use xlink:href="#DejaVuSans-72" x="251.855469"/>
      <use xlink:href="#DejaVuSans-69" x="292.96875"/>
      <use xlink:href="#DejaVuSans-63" x="320.751953"/>
      <use xlink:href="#DejaVuSans-61" x="375.732422"/>
      <use xlink:href="#DejaVuSans-6c" x="437.011719"/>
      <use xlink:href="#DejaVuSans-20" x="464.794922"/>
      <use xlink:href="#DejaVuSans-43" x="496.582031"/>
      <use xlink:href="#DejaVuSans-6c" x="566.40625"/>
      <use xlink:href="#DejaVuSans-61" x="594.189453"/>
      <use xlink:href="#DejaVuSans-73" x="655.46875"/>
      <use xlink:href="#DejaVuSans-73" x="707.568359"/>
      <use xlink:href="#DejaVuSans-69" x="759.667969"/>
      <use xlink:href="#DejaVuSans-66" x="787.451172"/>
      <use xlink:href="#DejaVuSans-69" x="822.65625"/>
      <use xlink:href="#DejaVuSans-63" x="850.439453"/>
      <use xlink:href="#DejaVuSans-61" x="905.419922"/>
      <use xlink:href="#DejaVuSans-74" x="966.699219"/>
      <use xlink:href="#DejaVuSans-69" x="1005.908203"/>
      <use xlink:href="#DejaVuSans-6f" x="1033.691406"/>
      <use xlink:href="#DejaVuSans-6e" x="1094.873047"/>
      <use xlink:href="#DejaVuSans-20" x="1158.251953"/>
      <use xlink:href="#DejaVuSans-45" x="1190.039062"/>
      <use xlink:href="#DejaVuSans-72" x="1253.222656"/>
      <use xlink:href="#DejaVuSans-72" x="1292.585938"/>
      <use xlink:href="#DejaVuSans-6f" x="1331.449219"/>
      <use xlink:href="#DejaVuSans-72" x="1392.630859"/>
     </g>
    </g>
   </g>
   <g id="line2d_11">
    <path d="M 45.209764 28.951095 
L 49.816403 37.512958 
L 54.423042 26.075355 
L 59.029681 24.833558 
L 63.636321 24.245338 
L 68.24296 25.35642 
L 72.849599 56.401343 
L 77.456238 56.20527 
L 82.062877 36.271161 
L 86.669516 53.787034 
L 91.276155 66.662508 
L 95.882794 82.47908 
L 100.489433 69.603606 
L 105.096073 70.518614 
L 109.702712 69.603606 
L 114.309351 73.459712 
L 118.91599 73.263639 
L 123.522629 75.159013 
L 128.129268 75.485802 
L 132.735907 74.96294 
L 137.342546 74.11329 
L 141.949185 80.714421 
L 146.555825 80.387632 
L 151.162464 81.694787 
L 155.769103 82.152291 
L 160.375742 84.570527 
L 164.982381 85.550893 
L 169.58902 85.877682 
L 174.195659 86.20447 
L 178.802298 87.511625 
L 183.408937 88.491991 
L 188.015577 88.622707 
L 192.622216 88.81878 
L 197.228855 88.426633 
L 201.835494 89.210926 
L 206.442133 89.210926 
L 211.048772 89.537715 
L 215.655411 89.603073 
L 220.26205 89.864504 
L 224.868689 90.25665 
L 229.475329 90.25665 
L 234.081968 90.518081 
L 238.688607 91.367731 
L 243.295246 91.106301 
" clip-path="url(#p89b697f5bf)" style="fill: none; stroke: #4c72b0; stroke-width: 1.5; stroke-linecap: square"/>
   </g>
   <g id="line2d_12">
    <path d="M 45.209764 14.343641 
L 49.816403 17.513491 
L 54.423042 32.676486 
L 59.029681 59.701909 
L 63.636321 68.62324 
L 68.24296 69.603606 
L 72.849599 74.636151 
L 77.456238 86.073755 
L 82.062877 84.570527 
L 86.669516 78.819046 
L 91.276155 79.799412 
L 95.882794 79.995486 
L 100.489433 79.86477 
L 105.096073 79.799412 
L 109.702712 79.668697 
L 114.309351 80.779778 
L 118.91599 84.047665 
L 123.522629 84.635885 
L 128.129268 83.263372 
L 132.735907 84.113023 
L 137.342546 85.35482 
L 141.949185 85.289462 
L 146.555825 86.988763 
L 151.162464 80.518348 
L 155.769103 80.649063 
L 160.375742 82.086933 
L 164.982381 82.805868 
L 169.58902 82.805868 
L 174.195659 84.701243 
L 178.802298 84.309096 
L 183.408937 84.7666 
L 188.015577 86.465901 
L 192.622216 86.465901 
L 197.228855 87.054121 
L 201.835494 85.550893 
L 206.442133 85.093389 
L 211.048772 85.420178 
L 215.655411 86.727332 
L 220.26205 86.988763 
L 224.868689 88.361276 
L 229.475329 87.903772 
L 234.081968 88.688064 
L 238.688607 90.25665 
L 243.295246 90.975585 
" clip-path="url(#p89b697f5bf)" style="fill: none; stroke: #dd8452; stroke-width: 1.5; stroke-linecap: square"/>
   </g>
   <g id="line2d_13">
    <path d="M 45.209764 21.467634 
L 49.816403 17.317418 
L 54.423042 29.016453 
L 59.029681 43.918016 
L 63.636321 63.13319 
L 68.24296 71.629696 
L 72.849599 80.779778 
L 77.456238 81.694787 
L 82.062877 80.45299 
L 86.669516 86.400544 
L 91.276155 86.335186 
L 95.882794 86.858048 
L 100.489433 85.485535 
L 105.096073 86.139113 
L 109.702712 85.616251 
L 114.309351 86.20447 
L 118.91599 86.139113 
L 123.522629 85.681609 
L 128.129268 86.661975 
L 132.735907 86.661975 
L 137.342546 86.858048 
L 141.949185 86.727332 
L 146.555825 88.034487 
L 151.162464 88.295918 
L 155.769103 88.884138 
L 160.375742 88.557349 
L 164.982381 89.145569 
L 169.58902 89.210926 
L 174.195659 89.210926 
L 178.802298 90.125935 
L 183.408937 89.603073 
L 188.015577 90.125935 
L 192.622216 89.341642 
L 197.228855 89.603073 
L 201.835494 89.406999 
L 206.442133 89.929861 
L 211.048772 89.472357 
L 215.655411 89.799146 
L 220.26205 89.603073 
L 224.868689 90.452723 
L 229.475329 90.452723 
L 234.081968 90.84487 
L 238.688607 91.433089 
L 243.295246 91.629162 
" clip-path="url(#p89b697f5bf)" style="fill: none; stroke: #55a868; stroke-width: 1.5; stroke-linecap: square"/>
   </g>
   <g id="line2d_14"/>
   <g id="line2d_15"/>
   <g id="line2d_16"/>
   <g id="patch_3">
    <path d="M 40.603125 150.84327 
L 40.603125 7.2 
" style="fill: none; stroke: #000000; stroke-width: 0.8; stroke-linejoin: miter; stroke-linecap: square"/>
   </g>
   <g id="patch_4">
    <path d="M 253.19952 150.84327 
L 253.19952 7.2 
" style="fill: none; stroke: #000000; stroke-width: 0.8; stroke-linejoin: miter; stroke-linecap: square"/>
   </g>
   <g id="patch_5">
    <path d="M 40.603125 150.84327 
L 253.19952 150.84327 
" style="fill: none; stroke: #000000; stroke-width: 0.8; stroke-linejoin: miter; stroke-linecap: square"/>
   </g>
   <g id="patch_6">
    <path d="M 40.603125 7.2 
L 253.19952 7.2 
" style="fill: none; stroke: #000000; stroke-width: 0.8; stroke-linejoin: miter; stroke-linecap: square"/>
   </g>
   <g id="legend_1">
    <g id="patch_7">
     <path d="M 97.754208 59.234375 
L 246.19952 59.234375 
Q 248.19952 59.234375 248.19952 57.234375 
L 248.19952 14.2 
Q 248.19952 12.2 246.19952 12.2 
L 97.754208 12.2 
Q 95.754208 12.2 95.754208 14.2 
L 95.754208 57.234375 
Q 95.754208 59.234375 97.754208 59.234375 
z
" style="fill: #ffffff; opacity: 0.8; stroke: #cccccc; stroke-linejoin: miter"/>
    </g>
    <g id="line2d_17">
     <path d="M 99.754208 20.298438 
L 109.754208 20.298438 
L 119.754208 20.298438 
" style="fill: none; stroke: #4c72b0; stroke-width: 1.5; stroke-linecap: square"/>
    </g>
    <g id="text_13">
     <!-- Random -->
     <g transform="translate(127.754208 23.798438) scale(0.1 -0.1)">
      <defs>
       <path id="DejaVuSans-52" d="M 2841 2188 
Q 3044 2119 3236 1894 
Q 3428 1669 3622 1275 
L 4263 0 
L 3584 0 
L 2988 1197 
Q 2756 1666 2539 1819 
Q 2322 1972 1947 1972 
L 1259 1972 
L 1259 0 
L 628 0 
L 628 4666 
L 2053 4666 
Q 2853 4666 3247 4331 
Q 3641 3997 3641 3322 
Q 3641 2881 3436 2590 
Q 3231 2300 2841 2188 
z
M 1259 4147 
L 1259 2491 
L 2053 2491 
Q 2509 2491 2742 2702 
Q 2975 2913 2975 3322 
Q 2975 3731 2742 3939 
Q 2509 4147 2053 4147 
L 1259 4147 
z
" transform="scale(0.015625)"/>
       <path id="DejaVuSans-64" d="M 2906 2969 
L 2906 4863 
L 3481 4863 
L 3481 0 
L 2906 0 
L 2906 525 
Q 2725 213 2448 61 
Q 2172 -91 1784 -91 
Q 1150 -91 751 415 
Q 353 922 353 1747 
Q 353 2572 751 3078 
Q 1150 3584 1784 3584 
Q 2172 3584 2448 3432 
Q 2725 3281 2906 2969 
z
M 947 1747 
Q 947 1113 1208 752 
Q 1469 391 1925 391 
Q 2381 391 2643 752 
Q 2906 1113 2906 1747 
Q 2906 2381 2643 2742 
Q 2381 3103 1925 3103 
Q 1469 3103 1208 2742 
Q 947 2381 947 1747 
z
" transform="scale(0.015625)"/>
      </defs>
      <use xlink:href="#DejaVuSans-52"/>
      <use xlink:href="#DejaVuSans-61" x="67.232422"/>
      <use xlink:href="#DejaVuSans-6e" x="128.511719"/>
      <use xlink:href="#DejaVuSans-64" x="191.890625"/>
      <use xlink:href="#DejaVuSans-6f" x="255.367188"/>
      <use xlink:href="#DejaVuSans-6d" x="316.548828"/>
     </g>
    </g>
    <g id="line2d_18">
     <path d="M 99.754208 34.976563 
L 109.754208 34.976563 
L 119.754208 34.976563 
" style="fill: none; stroke: #dd8452; stroke-width: 1.5; stroke-linecap: square"/>
    </g>
    <g id="text_14">
     <!-- Classification-optimal -->
     <g transform="translate(127.754208 38.476563) scale(0.1 -0.1)">
      <defs>
       <path id="DejaVuSans-2d" d="M 313 2009 
L 1997 2009 
L 1997 1497 
L 313 1497 
L 313 2009 
z
" transform="scale(0.015625)"/>
      </defs>
      <use xlink:href="#DejaVuSans-43"/>
      <use xlink:href="#DejaVuSans-6c" x="69.824219"/>
      <use xlink:href="#DejaVuSans-61" x="97.607422"/>
      <use xlink:href="#DejaVuSans-73" x="158.886719"/>
      <use xlink:href="#DejaVuSans-73" x="210.986328"/>
      <use xlink:href="#DejaVuSans-69" x="263.085938"/>
      <use xlink:href="#DejaVuSans-66" x="290.869141"/>
      <use xlink:href="#DejaVuSans-69" x="326.074219"/>
      <use xlink:href="#DejaVuSans-63" x="353.857422"/>
      <use xlink:href="#DejaVuSans-61" x="408.837891"/>
      <use xlink:href="#DejaVuSans-74" x="470.117188"/>
      <use xlink:href="#DejaVuSans-69" x="509.326172"/>
      <use xlink:href="#DejaVuSans-6f" x="537.109375"/>
      <use xlink:href="#DejaVuSans-6e" x="598.291016"/>
      <use xlink:href="#DejaVuSans-2d" x="661.669922"/>
      <use xlink:href="#DejaVuSans-6f" x="699.628906"/>
      <use xlink:href="#DejaVuSans-70" x="760.810547"/>
      <use xlink:href="#DejaVuSans-74" x="824.287109"/>
      <use xlink:href="#DejaVuSans-69" x="863.496094"/>
      <use xlink:href="#DejaVuSans-6d" x="891.279297"/>
      <use xlink:href="#DejaVuSans-61" x="988.691406"/>
      <use xlink:href="#DejaVuSans-6c" x="1049.970703"/>
     </g>
    </g>
    <g id="line2d_19">
     <path d="M 99.754208 49.654688 
L 109.754208 49.654688 
L 119.754208 49.654688 
" style="fill: none; stroke: #55a868; stroke-width: 1.5; stroke-linecap: square"/>
    </g>
    <g id="text_15">
     <!-- Reconstruction-optimal -->
     <g transform="translate(127.754208 53.154688) scale(0.1 -0.1)">
      <defs>
       <path id="DejaVuSans-75" d="M 544 1381 
L 544 3500 
L 1119 3500 
L 1119 1403 
Q 1119 906 1312 657 
Q 1506 409 1894 409 
Q 2359 409 2629 706 
Q 2900 1003 2900 1516 
L 2900 3500 
L 3475 3500 
L 3475 0 
L 2900 0 
L 2900 538 
Q 2691 219 2414 64 
Q 2138 -91 1772 -91 
Q 1169 -91 856 284 
Q 544 659 544 1381 
z
M 1991 3584 
L 1991 3584 
z
" transform="scale(0.015625)"/>
      </defs>
      <use xlink:href="#DejaVuSans-52"/>
      <use xlink:href="#DejaVuSans-65" x="64.982422"/>
      <use xlink:href="#DejaVuSans-63" x="126.505859"/>
      <use xlink:href="#DejaVuSans-6f" x="181.486328"/>
      <use xlink:href="#DejaVuSans-6e" x="242.667969"/>
      <use xlink:href="#DejaVuSans-73" x="306.046875"/>
      <use xlink:href="#DejaVuSans-74" x="358.146484"/>
      <use xlink:href="#DejaVuSans-72" x="397.355469"/>
      <use xlink:href="#DejaVuSans-75" x="438.46875"/>
      <use xlink:href="#DejaVuSans-63" x="501.847656"/>
      <use xlink:href="#DejaVuSans-74" x="556.828125"/>
      <use xlink:href="#DejaVuSans-69" x="596.037109"/>
      <use xlink:href="#DejaVuSans-6f" x="623.820312"/>
      <use xlink:href="#DejaVuSans-6e" x="685.001953"/>
      <use xlink:href="#DejaVuSans-2d" x="748.380859"/>
      <use xlink:href="#DejaVuSans-6f" x="786.339844"/>
      <use xlink:href="#DejaVuSans-70" x="847.521484"/>
      <use xlink:href="#DejaVuSans-74" x="910.998047"/>
      <use xlink:href="#DejaVuSans-69" x="950.207031"/>
      <use xlink:href="#DejaVuSans-6d" x="977.990234"/>
      <use xlink:href="#DejaVuSans-61" x="1075.402344"/>
      <use xlink:href="#DejaVuSans-6c" x="1136.681641"/>
     </g>
    </g>
   </g>
  </g>
 </g>
 <defs>
  <clipPath id="p89b697f5bf">
   <rect x="40.603125" y="7.2" width="212.596395" height="143.64327"/>
  </clipPath>
 </defs>
</svg>
