<?xml version="1.0" encoding="utf-8" standalone="no"?>
<!DOCTYPE svg PUBLIC "-//W3C//DTD SVG 1.1//EN"
  "http://www.w3.org/Graphics/SVG/1.1/DTD/svg11.dtd">
<svg xmlns:xlink="http://www.w3.org/1999/xlink" width="236.740625pt" height="183.35625pt" viewBox="0 0 236.740625 183.35625" xmlns="http://www.w3.org/2000/svg" version="1.1">
 <metadata>
  <rdf:RDF xmlns:dc="http://purl.org/dc/elements/1.1/" xmlns:cc="http://creativecommons.org/ns#" xmlns:rdf="http://www.w3.org/1999/02/22-rdf-syntax-ns#">
   <cc:Work>
    <dc:type rdf:resource="http://purl.org/dc/dcmitype/StillImage"/>
    <dc:date>1980-01-01T00:00:00+00:00</dc:date>
    <dc:format>image/svg+xml</dc:format>
    <dc:creator>
     <cc:Agent>
      <dc:title>Matplotlib v3.7.5, https://matplotlib.org/</dc:title>
     </cc:Agent>
    </dc:creator>
   </cc:Work>
  </rdf:RDF>
 </metadata>
 <defs>
  <style type="text/css">*{stroke-linejoin: round; stroke-linecap: butt}</style>
 </defs>
 <g id="figure_1">
  <g id="patch_1">
   <path d="M 0 183.35625 
L 236.740625 183.35625 
L 236.740625 0 
L 0 0 
z
" style="fill: #ffffff"/>
  </g>
  <g id="axes_1">
   <g id="patch_2">
    <path d="M 34.240625 145.8 
L 229.540625 145.8 
L 229.540625 7.2 
L 34.240625 7.2 
z
" style="fill: #ffffff"/>
   </g>
   <g id="PolyCollection_1"/>
   <g id="PolyCollection_2"/>
   <g id="PolyCollection_3"/>
   <g id="PolyCollection_4"/>
   <g id="PolyCollection_5"/>
   <g id="PolyCollection_6"/>
   <g id="PolyCollection_7"/>
   <g id="PolyCollection_8"/>
   <g id="PolyCollection_9"/>
   <g id="PolyCollection_10"/>
   <g id="matplotlib.axis_1">
    <g id="xtick_1">
     <g id="line2d_1">
      <defs>
       <path id="m0c3a8b50a4" d="M 0 0 
L 0 3.5 
" style="stroke: #000000; stroke-width: 0.8"/>
      </defs>
      <g>
       <use xlink:href="#m0c3a8b50a4" x="42.632801" y="145.8" style="stroke: #000000; stroke-width: 0.8"/>
      </g>
     </g>
     <g id="text_1">
      <!-- 0 -->
      <g transform="translate(39.451551 160.398438) scale(0.1 -0.1)">
       <defs>
        <path id="DejaVuSans-30" d="M 2034 4250 
Q 1547 4250 1301 3770 
Q 1056 3291 1056 2328 
Q 1056 1369 1301 889 
Q 1547 409 2034 409 
Q 2525 409 2770 889 
Q 3016 1369 3016 2328 
Q 3016 3291 2770 3770 
Q 2525 4250 2034 4250 
z
M 2034 4750 
Q 2819 4750 3233 4129 
Q 3647 3509 3647 2328 
Q 3647 1150 3233 529 
Q 2819 -91 2034 -91 
Q 1250 -91 836 529 
Q 422 1150 422 2328 
Q 422 3509 836 4129 
Q 1250 4750 2034 4750 
z
" transform="scale(0.015625)"/>
       </defs>
       <use xlink:href="#DejaVuSans-30"/>
      </g>
     </g>
    </g>
    <g id="xtick_2">
     <g id="line2d_2">
      <g>
       <use xlink:href="#m0c3a8b50a4" x="91.142488" y="145.8" style="stroke: #000000; stroke-width: 0.8"/>
      </g>
     </g>
     <g id="text_2">
      <!-- 100 -->
      <g transform="translate(81.598738 160.398438) scale(0.1 -0.1)">
       <defs>
        <path id="DejaVuSans-31" d="M 794 531 
L 1825 531 
L 1825 4091 
L 703 3866 
L 703 4441 
L 1819 4666 
L 2450 4666 
L 2450 531 
L 3481 531 
L 3481 0 
L 794 0 
L 794 531 
z
" transform="scale(0.015625)"/>
       </defs>
       <use xlink:href="#DejaVuSans-31"/>
       <use xlink:href="#DejaVuSans-30" x="63.623047"/>
       <use xlink:href="#DejaVuSans-30" x="127.246094"/>
      </g>
     </g>
    </g>
    <g id="xtick_3">
     <g id="line2d_3">
      <g>
       <use xlink:href="#m0c3a8b50a4" x="139.652175" y="145.8" style="stroke: #000000; stroke-width: 0.8"/>
      </g>
     </g>
     <g id="text_3">
      <!-- 200 -->
      <g transform="translate(130.108425 160.398438) scale(0.1 -0.1)">
       <defs>
        <path id="DejaVuSans-32" d="M 1228 531 
L 3431 531 
L 3431 0 
L 469 0 
L 469 531 
Q 828 903 1448 1529 
Q 2069 2156 2228 2338 
Q 2531 2678 2651 2914 
Q 2772 3150 2772 3378 
Q 2772 3750 2511 3984 
Q 2250 4219 1831 4219 
Q 1534 4219 1204 4116 
Q 875 4013 500 3803 
L 500 4441 
Q 881 4594 1212 4672 
Q 1544 4750 1819 4750 
Q 2544 4750 2975 4387 
Q 3406 4025 3406 3419 
Q 3406 3131 3298 2873 
Q 3191 2616 2906 2266 
Q 2828 2175 2409 1742 
Q 1991 1309 1228 531 
z
" transform="scale(0.015625)"/>
       </defs>
       <use xlink:href="#DejaVuSans-32"/>
       <use xlink:href="#DejaVuSans-30" x="63.623047"/>
       <use xlink:href="#DejaVuSans-30" x="127.246094"/>
      </g>
     </g>
    </g>
    <g id="xtick_4">
     <g id="line2d_4">
      <g>
       <use xlink:href="#m0c3a8b50a4" x="188.161862" y="145.8" style="stroke: #000000; stroke-width: 0.8"/>
      </g>
     </g>
     <g id="text_4">
      <!-- 300 -->
      <g transform="translate(178.618112 160.398438) scale(0.1 -0.1)">
       <defs>
        <path id="DejaVuSans-33" d="M 2597 2516 
Q 3050 2419 3304 2112 
Q 3559 1806 3559 1356 
Q 3559 666 3084 287 
Q 2609 -91 1734 -91 
Q 1441 -91 1130 -33 
Q 819 25 488 141 
L 488 750 
Q 750 597 1062 519 
Q 1375 441 1716 441 
Q 2309 441 2620 675 
Q 2931 909 2931 1356 
Q 2931 1769 2642 2001 
Q 2353 2234 1838 2234 
L 1294 2234 
L 1294 2753 
L 1863 2753 
Q 2328 2753 2575 2939 
Q 2822 3125 2822 3475 
Q 2822 3834 2567 4026 
Q 2313 4219 1838 4219 
Q 1578 4219 1281 4162 
Q 984 4106 628 3988 
L 628 4550 
Q 988 4650 1302 4700 
Q 1616 4750 1894 4750 
Q 2613 4750 3031 4423 
Q 3450 4097 3450 3541 
Q 3450 3153 3228 2886 
Q 3006 2619 2597 2516 
z
" transform="scale(0.015625)"/>
       </defs>
       <use xlink:href="#DejaVuSans-33"/>
       <use xlink:href="#DejaVuSans-30" x="63.623047"/>
       <use xlink:href="#DejaVuSans-30" x="127.246094"/>
      </g>
     </g>
    </g>
    <g id="text_5">
     <!-- Sample Size -->
     <g transform="translate(101.289062 174.076563) scale(0.1 -0.1)">
      <defs>
       <path id="DejaVuSans-53" d="M 3425 4513 
L 3425 3897 
Q 3066 4069 2747 4153 
Q 2428 4238 2131 4238 
Q 1616 4238 1336 4038 
Q 1056 3838 1056 3469 
Q 1056 3159 1242 3001 
Q 1428 2844 1947 2747 
L 2328 2669 
Q 3034 2534 3370 2195 
Q 3706 1856 3706 1288 
Q 3706 609 3251 259 
Q 2797 -91 1919 -91 
Q 1588 -91 1214 -16 
Q 841 59 441 206 
L 441 856 
Q 825 641 1194 531 
Q 1563 422 1919 422 
Q 2459 422 2753 634 
Q 3047 847 3047 1241 
Q 3047 1584 2836 1778 
Q 2625 1972 2144 2069 
L 1759 2144 
Q 1053 2284 737 2584 
Q 422 2884 422 3419 
Q 422 4038 858 4394 
Q 1294 4750 2059 4750 
Q 2388 4750 2728 4690 
Q 3069 4631 3425 4513 
z
" transform="scale(0.015625)"/>
       <path id="DejaVuSans-61" d="M 2194 1759 
Q 1497 1759 1228 1600 
Q 959 1441 959 1056 
Q 959 750 1161 570 
Q 1363 391 1709 391 
Q 2188 391 2477 730 
Q 2766 1069 2766 1631 
L 2766 1759 
L 2194 1759 
z
M 3341 1997 
L 3341 0 
L 2766 0 
L 2766 531 
Q 2569 213 2275 61 
Q 1981 -91 1556 -91 
Q 1019 -91 701 211 
Q 384 513 384 1019 
Q 384 1609 779 1909 
Q 1175 2209 1959 2209 
L 2766 2209 
L 2766 2266 
Q 2766 2663 2505 2880 
Q 2244 3097 1772 3097 
Q 1472 3097 1187 3025 
Q 903 2953 641 2809 
L 641 3341 
Q 956 3463 1253 3523 
Q 1550 3584 1831 3584 
Q 2591 3584 2966 3190 
Q 3341 2797 3341 1997 
z
" transform="scale(0.015625)"/>
       <path id="DejaVuSans-6d" d="M 3328 2828 
Q 3544 3216 3844 3400 
Q 4144 3584 4550 3584 
Q 5097 3584 5394 3201 
Q 5691 2819 5691 2113 
L 5691 0 
L 5113 0 
L 5113 2094 
Q 5113 2597 4934 2840 
Q 4756 3084 4391 3084 
Q 3944 3084 3684 2787 
Q 3425 2491 3425 1978 
L 3425 0 
L 2847 0 
L 2847 2094 
Q 2847 2600 2669 2842 
Q 2491 3084 2119 3084 
Q 1678 3084 1418 2786 
Q 1159 2488 1159 1978 
L 1159 0 
L 581 0 
L 581 3500 
L 1159 3500 
L 1159 2956 
Q 1356 3278 1631 3431 
Q 1906 3584 2284 3584 
Q 2666 3584 2933 3390 
Q 3200 3197 3328 2828 
z
" transform="scale(0.015625)"/>
       <path id="DejaVuSans-70" d="M 1159 525 
L 1159 -1331 
L 581 -1331 
L 581 3500 
L 1159 3500 
L 1159 2969 
Q 1341 3281 1617 3432 
Q 1894 3584 2278 3584 
Q 2916 3584 3314 3078 
Q 3713 2572 3713 1747 
Q 3713 922 3314 415 
Q 2916 -91 2278 -91 
Q 1894 -91 1617 61 
Q 1341 213 1159 525 
z
M 3116 1747 
Q 3116 2381 2855 2742 
Q 2594 3103 2138 3103 
Q 1681 3103 1420 2742 
Q 1159 2381 1159 1747 
Q 1159 1113 1420 752 
Q 1681 391 2138 391 
Q 2594 391 2855 752 
Q 3116 1113 3116 1747 
z
" transform="scale(0.015625)"/>
       <path id="DejaVuSans-6c" d="M 603 4863 
L 1178 4863 
L 1178 0 
L 603 0 
L 603 4863 
z
" transform="scale(0.015625)"/>
       <path id="DejaVuSans-65" d="M 3597 1894 
L 3597 1613 
L 953 1613 
Q 991 1019 1311 708 
Q 1631 397 2203 397 
Q 2534 397 2845 478 
Q 3156 559 3463 722 
L 3463 178 
Q 3153 47 2828 -22 
Q 2503 -91 2169 -91 
Q 1331 -91 842 396 
Q 353 884 353 1716 
Q 353 2575 817 3079 
Q 1281 3584 2069 3584 
Q 2775 3584 3186 3129 
Q 3597 2675 3597 1894 
z
M 3022 2063 
Q 3016 2534 2758 2815 
Q 2500 3097 2075 3097 
Q 1594 3097 1305 2825 
Q 1016 2553 972 2059 
L 3022 2063 
z
" transform="scale(0.015625)"/>
       <path id="DejaVuSans-20" transform="scale(0.015625)"/>
       <path id="DejaVuSans-69" d="M 603 3500 
L 1178 3500 
L 1178 0 
L 603 0 
L 603 3500 
z
M 603 4863 
L 1178 4863 
L 1178 4134 
L 603 4134 
L 603 4863 
z
" transform="scale(0.015625)"/>
       <path id="DejaVuSans-7a" d="M 353 3500 
L 3084 3500 
L 3084 2975 
L 922 459 
L 3084 459 
L 3084 0 
L 275 0 
L 275 525 
L 2438 3041 
L 353 3041 
L 353 3500 
z
" transform="scale(0.015625)"/>
      </defs>
      <use xlink:href="#DejaVuSans-53"/>
      <use xlink:href="#DejaVuSans-61" x="63.476562"/>
      <use xlink:href="#DejaVuSans-6d" x="124.755859"/>
      <use xlink:href="#DejaVuSans-70" x="222.167969"/>
      <use xlink:href="#DejaVuSans-6c" x="285.644531"/>
      <use xlink:href="#DejaVuSans-65" x="313.427734"/>
      <use xlink:href="#DejaVuSans-20" x="374.951172"/>
      <use xlink:href="#DejaVuSans-53" x="406.738281"/>
      <use xlink:href="#DejaVuSans-69" x="470.214844"/>
      <use xlink:href="#DejaVuSans-7a" x="497.998047"/>
      <use xlink:href="#DejaVuSans-65" x="550.488281"/>
     </g>
    </g>
   </g>
   <g id="matplotlib.axis_2">
    <g id="ytick_1">
     <g id="line2d_5">
      <defs>
       <path id="md2960a08de" d="M 0 0 
L -3.5 0 
" style="stroke: #000000; stroke-width: 0.8"/>
      </defs>
      <g>
       <use xlink:href="#md2960a08de" x="34.240625" y="136.206128" style="stroke: #000000; stroke-width: 0.8"/>
      </g>
     </g>
     <g id="text_6">
      <!-- 0 -->
      <g transform="translate(20.878125 140.005346) scale(0.1 -0.1)">
       <use xlink:href="#DejaVuSans-30"/>
      </g>
     </g>
    </g>
    <g id="ytick_2">
     <g id="line2d_6">
      <g>
       <use xlink:href="#md2960a08de" x="34.240625" y="106.03283" style="stroke: #000000; stroke-width: 0.8"/>
      </g>
     </g>
     <g id="text_7">
      <!-- 2 -->
      <g transform="translate(20.878125 109.832049) scale(0.1 -0.1)">
       <use xlink:href="#DejaVuSans-32"/>
      </g>
     </g>
    </g>
    <g id="ytick_3">
     <g id="line2d_7">
      <g>
       <use xlink:href="#md2960a08de" x="34.240625" y="75.859532" style="stroke: #000000; stroke-width: 0.8"/>
      </g>
     </g>
     <g id="text_8">
      <!-- 4 -->
      <g transform="translate(20.878125 79.658751) scale(0.1 -0.1)">
       <defs>
        <path id="DejaVuSans-34" d="M 2419 4116 
L 825 1625 
L 2419 1625 
L 2419 4116 
z
M 2253 4666 
L 3047 4666 
L 3047 1625 
L 3713 1625 
L 3713 1100 
L 3047 1100 
L 3047 0 
L 2419 0 
L 2419 1100 
L 313 1100 
L 313 1709 
L 2253 4666 
z
" transform="scale(0.015625)"/>
       </defs>
       <use xlink:href="#DejaVuSans-34"/>
      </g>
     </g>
    </g>
    <g id="ytick_4">
     <g id="line2d_8">
      <g>
       <use xlink:href="#md2960a08de" x="34.240625" y="45.686235" style="stroke: #000000; stroke-width: 0.8"/>
      </g>
     </g>
     <g id="text_9">
      <!-- 6 -->
      <g transform="translate(20.878125 49.485453) scale(0.1 -0.1)">
       <defs>
        <path id="DejaVuSans-36" d="M 2113 2584 
Q 1688 2584 1439 2293 
Q 1191 2003 1191 1497 
Q 1191 994 1439 701 
Q 1688 409 2113 409 
Q 2538 409 2786 701 
Q 3034 994 3034 1497 
Q 3034 2003 2786 2293 
Q 2538 2584 2113 2584 
z
M 3366 4563 
L 3366 3988 
Q 3128 4100 2886 4159 
Q 2644 4219 2406 4219 
Q 1781 4219 1451 3797 
Q 1122 3375 1075 2522 
Q 1259 2794 1537 2939 
Q 1816 3084 2150 3084 
Q 2853 3084 3261 2657 
Q 3669 2231 3669 1497 
Q 3669 778 3244 343 
Q 2819 -91 2113 -91 
Q 1303 -91 875 529 
Q 447 1150 447 2328 
Q 447 3434 972 4092 
Q 1497 4750 2381 4750 
Q 2619 4750 2861 4703 
Q 3103 4656 3366 4563 
z
" transform="scale(0.015625)"/>
       </defs>
       <use xlink:href="#DejaVuSans-36"/>
      </g>
     </g>
    </g>
    <g id="ytick_5">
     <g id="line2d_9">
      <g>
       <use xlink:href="#md2960a08de" x="34.240625" y="15.512937" style="stroke: #000000; stroke-width: 0.8"/>
      </g>
     </g>
     <g id="text_10">
      <!-- 8 -->
      <g transform="translate(20.878125 19.312156) scale(0.1 -0.1)">
       <defs>
        <path id="DejaVuSans-38" d="M 2034 2216 
Q 1584 2216 1326 1975 
Q 1069 1734 1069 1313 
Q 1069 891 1326 650 
Q 1584 409 2034 409 
Q 2484 409 2743 651 
Q 3003 894 3003 1313 
Q 3003 1734 2745 1975 
Q 2488 2216 2034 2216 
z
M 1403 2484 
Q 997 2584 770 2862 
Q 544 3141 544 3541 
Q 544 4100 942 4425 
Q 1341 4750 2034 4750 
Q 2731 4750 3128 4425 
Q 3525 4100 3525 3541 
Q 3525 3141 3298 2862 
Q 3072 2584 2669 2484 
Q 3125 2378 3379 2068 
Q 3634 1759 3634 1313 
Q 3634 634 3220 271 
Q 2806 -91 2034 -91 
Q 1263 -91 848 271 
Q 434 634 434 1313 
Q 434 1759 690 2068 
Q 947 2378 1403 2484 
z
M 1172 3481 
Q 1172 3119 1398 2916 
Q 1625 2713 2034 2713 
Q 2441 2713 2670 2916 
Q 2900 3119 2900 3481 
Q 2900 3844 2670 4047 
Q 2441 4250 2034 4250 
Q 1625 4250 1398 4047 
Q 1172 3844 1172 3481 
z
" transform="scale(0.015625)"/>
       </defs>
       <use xlink:href="#DejaVuSans-38"/>
      </g>
     </g>
    </g>
    <g id="text_11">
     <!-- log MSE -->
     <g transform="translate(14.798438 96.359375) rotate(-90) scale(0.1 -0.1)">
      <defs>
       <path id="DejaVuSans-6f" d="M 1959 3097 
Q 1497 3097 1228 2736 
Q 959 2375 959 1747 
Q 959 1119 1226 758 
Q 1494 397 1959 397 
Q 2419 397 2687 759 
Q 2956 1122 2956 1747 
Q 2956 2369 2687 2733 
Q 2419 3097 1959 3097 
z
M 1959 3584 
Q 2709 3584 3137 3096 
Q 3566 2609 3566 1747 
Q 3566 888 3137 398 
Q 2709 -91 1959 -91 
Q 1206 -91 779 398 
Q 353 888 353 1747 
Q 353 2609 779 3096 
Q 1206 3584 1959 3584 
z
" transform="scale(0.015625)"/>
       <path id="DejaVuSans-67" d="M 2906 1791 
Q 2906 2416 2648 2759 
Q 2391 3103 1925 3103 
Q 1463 3103 1205 2759 
Q 947 2416 947 1791 
Q 947 1169 1205 825 
Q 1463 481 1925 481 
Q 2391 481 2648 825 
Q 2906 1169 2906 1791 
z
M 3481 434 
Q 3481 -459 3084 -895 
Q 2688 -1331 1869 -1331 
Q 1566 -1331 1297 -1286 
Q 1028 -1241 775 -1147 
L 775 -588 
Q 1028 -725 1275 -790 
Q 1522 -856 1778 -856 
Q 2344 -856 2625 -561 
Q 2906 -266 2906 331 
L 2906 616 
Q 2728 306 2450 153 
Q 2172 0 1784 0 
Q 1141 0 747 490 
Q 353 981 353 1791 
Q 353 2603 747 3093 
Q 1141 3584 1784 3584 
Q 2172 3584 2450 3431 
Q 2728 3278 2906 2969 
L 2906 3500 
L 3481 3500 
L 3481 434 
z
" transform="scale(0.015625)"/>
       <path id="DejaVuSans-4d" d="M 628 4666 
L 1569 4666 
L 2759 1491 
L 3956 4666 
L 4897 4666 
L 4897 0 
L 4281 0 
L 4281 4097 
L 3078 897 
L 2444 897 
L 1241 4097 
L 1241 0 
L 628 0 
L 628 4666 
z
" transform="scale(0.015625)"/>
       <path id="DejaVuSans-45" d="M 628 4666 
L 3578 4666 
L 3578 4134 
L 1259 4134 
L 1259 2753 
L 3481 2753 
L 3481 2222 
L 1259 2222 
L 1259 531 
L 3634 531 
L 3634 0 
L 628 0 
L 628 4666 
z
" transform="scale(0.015625)"/>
      </defs>
      <use xlink:href="#DejaVuSans-6c"/>
      <use xlink:href="#DejaVuSans-6f" x="27.783203"/>
      <use xlink:href="#DejaVuSans-67" x="88.964844"/>
      <use xlink:href="#DejaVuSans-20" x="152.441406"/>
      <use xlink:href="#DejaVuSans-4d" x="184.228516"/>
      <use xlink:href="#DejaVuSans-53" x="270.507812"/>
      <use xlink:href="#DejaVuSans-45" x="333.984375"/>
     </g>
    </g>
   </g>
   <g id="line2d_10">
    <path d="M 43.117898 70.804102 
L 43.602995 81.825326 
L 44.088091 88.119035 
L 44.573188 91.405017 
L 45.058285 92.565947 
L 45.543382 94.945864 
L 46.028479 96.277677 
L 46.513576 96.035473 
L 46.998673 97.716473 
L 47.968866 98.599931 
L 48.453963 97.911571 
L 48.93906 98.490703 
L 49.424157 98.685521 
L 49.909254 99.790187 
L 50.879448 98.609334 
L 51.364545 98.806745 
L 51.849641 98.670669 
L 52.334738 99.591582 
L 52.819835 99.601686 
L 53.304932 100.368632 
L 53.790029 99.219414 
L 54.275126 99.168906 
L 54.760223 100.04148 
L 55.245319 99.276623 
L 55.730416 99.083698 
L 56.215513 99.538203 
L 56.70061 99.463722 
L 57.670804 98.608701 
L 58.640998 98.580663 
L 59.126094 97.728983 
L 59.611191 97.727548 
L 60.096288 97.522307 
L 60.581385 97.490672 
L 61.066482 97.609047 
L 61.551579 97.233549 
L 62.036676 97.411985 
L 62.521773 96.945718 
L 63.006869 97.065273 
L 63.491966 97.01288 
L 63.977063 96.631763 
L 64.46216 96.420641 
L 64.947257 96.692954 
L 65.432354 96.043297 
L 65.917451 96.2029 
L 66.402548 95.839717 
L 66.887644 95.724 
L 67.372741 95.240759 
L 67.857838 95.517683 
L 68.342935 95.046463 
L 69.313129 94.933562 
L 71.253516 94.608572 
L 72.22371 94.083649 
L 73.679001 93.716269 
L 74.649194 93.263983 
L 75.619388 93.220133 
L 76.589582 92.831286 
L 77.074679 92.843468 
L 78.044872 92.499454 
L 78.529969 92.376327 
L 79.015066 92.073127 
L 79.500163 92.215073 
L 79.98526 91.783717 
L 80.955454 91.654422 
L 81.44055 91.689467 
L 82.895841 91.025983 
L 83.866035 91.047622 
L 84.351132 90.603785 
L 84.836229 90.65366 
L 86.291519 90.156506 
L 86.776616 90.277586 
L 88.231907 89.695684 
L 89.2021 89.562612 
L 90.172294 89.350328 
L 90.657391 89.119491 
L 91.627585 88.950881 
L 92.112682 88.776307 
L 92.597779 88.93109 
L 93.082875 88.692128 
L 93.567972 88.688143 
L 94.538166 88.250701 
L 95.993457 88.061315 
L 96.478553 87.850898 
L 97.933844 87.661595 
L 98.418941 87.450904 
L 100.359328 87.092685 
L 100.844425 86.927845 
L 101.329522 86.889382 
L 101.814619 86.690292 
L 102.299716 86.762979 
L 104.240103 86.170725 
L 104.7252 86.128015 
L 105.210297 85.968646 
L 105.695394 86.062785 
L 106.665588 85.768321 
L 109.091072 85.275883 
L 110.061266 85.113848 
L 116.367525 83.983643 
L 116.852622 83.956645 
L 117.337719 83.710172 
L 117.822816 83.604012 
L 118.307913 83.636989 
L 119.278106 83.403673 
L 119.763203 83.472817 
L 120.2483 83.239775 
L 120.733397 83.259206 
L 125.099269 82.425867 
L 126.554559 82.266591 
L 127.039656 82.101057 
L 127.524753 82.120182 
L 128.980044 81.854105 
L 129.465141 81.880043 
L 131.890625 81.383943 
L 132.375722 81.441037 
L 132.860819 81.288915 
L 133.831012 81.201794 
L 136.741594 80.638445 
L 137.711787 80.552982 
L 140.137272 80.210492 
L 140.622369 80.224096 
L 141.592562 80.006938 
L 142.077659 80.024631 
L 142.562756 79.860816 
L 143.047853 79.909249 
L 143.53295 79.763454 
L 144.018047 79.813236 
L 144.98824 79.596844 
L 145.958434 79.529523 
L 147.413725 79.193516 
L 148.383919 79.138918 
L 151.2945 78.820182 
L 151.779597 78.621016 
L 152.264694 78.703918 
L 154.690178 78.30131 
L 155.175275 78.333545 
L 156.145469 78.068606 
L 158.570953 77.892316 
L 162.451728 77.397446 
L 162.936825 77.371257 
L 163.421922 77.229735 
L 163.907018 77.271111 
L 165.847406 76.992298 
L 166.332503 77.014861 
L 166.8176 76.870128 
L 167.302697 76.888282 
L 168.27289 76.718754 
L 170.213278 76.53653 
L 171.183471 76.371064 
L 171.668568 76.405839 
L 172.153665 76.242365 
L 172.638762 76.250041 
L 173.123859 76.072903 
L 173.608956 76.164632 
L 177.489731 75.738071 
L 178.459925 75.585733 
L 181.855603 75.319193 
L 182.3407 75.176294 
L 183.79599 75.155194 
L 184.281087 75.032409 
L 184.766184 75.047704 
L 185.251281 74.908322 
L 186.221474 74.8085 
L 187.191668 74.75128 
L 188.161862 74.583735 
L 188.646959 74.662896 
L 190.102249 74.434001 
L 191.072443 74.347207 
L 192.042637 74.210804 
L 193.012831 74.28011 
L 193.497928 74.077128 
L 193.983024 74.131369 
L 195.438315 73.92492 
L 197.378702 73.757921 
L 201.259477 73.420535 
L 201.744574 73.409594 
L 202.229671 73.216503 
L 202.714768 73.341683 
L 203.684962 73.136205 
L 204.170059 73.157218 
L 204.655156 73.062813 
L 205.140252 73.115501 
L 207.565737 72.86173 
L 208.050834 72.883146 
L 209.021027 72.723629 
L 212.416705 72.41171 
L 213.386899 72.384135 
L 213.871996 72.278213 
L 215.327287 72.198979 
L 220.663352 71.693725 
L 220.663352 71.693725 
" clip-path="url(#paf30f655c2)" style="fill: none; stroke: #4c72b0; stroke-width: 1.5; stroke-linecap: square"/>
    <defs>
     <path id="mab503cbad5" d="M 0 3.5 
C 0.928211 3.5 1.81853 3.131218 2.474874 2.474874 
C 3.131218 1.81853 3.5 0.928211 3.5 0 
C 3.5 -0.928211 3.131218 -1.81853 2.474874 -2.474874 
C 1.81853 -3.131218 0.928211 -3.5 0 -3.5 
C -0.928211 -3.5 -1.81853 -3.131218 -2.474874 -2.474874 
C -3.131218 -1.81853 -3.5 -0.928211 -3.5 0 
C -3.5 0.928211 -3.131218 1.81853 -2.474874 2.474874 
C -1.81853 3.131218 -0.928211 3.5 0 3.5 
z
" style="stroke: #ffffff; stroke-width: 0.75"/>
    </defs>
    <g clip-path="url(#paf30f655c2)">
     <use xlink:href="#mab503cbad5" x="43.117898" y="70.804102" style="fill: #4c72b0; stroke: #ffffff; stroke-width: 0.75"/>
     <use xlink:href="#mab503cbad5" x="60.581385" y="97.490672" style="fill: #4c72b0; stroke: #ffffff; stroke-width: 0.75"/>
     <use xlink:href="#mab503cbad5" x="78.044872" y="92.499454" style="fill: #4c72b0; stroke: #ffffff; stroke-width: 0.75"/>
     <use xlink:href="#mab503cbad5" x="95.50836" y="88.05679" style="fill: #4c72b0; stroke: #ffffff; stroke-width: 0.75"/>
     <use xlink:href="#mab503cbad5" x="112.971847" y="84.535608" style="fill: #4c72b0; stroke: #ffffff; stroke-width: 0.75"/>
     <use xlink:href="#mab503cbad5" x="130.435334" y="81.713372" style="fill: #4c72b0; stroke: #ffffff; stroke-width: 0.75"/>
     <use xlink:href="#mab503cbad5" x="147.898822" y="79.220845" style="fill: #4c72b0; stroke: #ffffff; stroke-width: 0.75"/>
     <use xlink:href="#mab503cbad5" x="165.362309" y="76.968087" style="fill: #4c72b0; stroke: #ffffff; stroke-width: 0.75"/>
     <use xlink:href="#mab503cbad5" x="182.825796" y="75.182862" style="fill: #4c72b0; stroke: #ffffff; stroke-width: 0.75"/>
     <use xlink:href="#mab503cbad5" x="200.289284" y="73.484108" style="fill: #4c72b0; stroke: #ffffff; stroke-width: 0.75"/>
     <use xlink:href="#mab503cbad5" x="217.752771" y="71.969365" style="fill: #4c72b0; stroke: #ffffff; stroke-width: 0.75"/>
    </g>
   </g>
   <g id="line2d_11">
    <path d="M 43.117898 70.911787 
L 43.602995 82.101179 
L 45.058285 94.037652 
L 45.543382 96.220086 
L 46.028479 96.522902 
L 46.513576 99.098399 
L 46.998673 99.385208 
L 47.48377 98.644839 
L 47.968866 98.957179 
L 48.453963 99.663553 
L 48.93906 100.671803 
L 49.424157 99.666107 
L 49.909254 99.951632 
L 50.394351 101.070276 
L 50.879448 100.55873 
L 51.364545 100.535195 
L 51.849641 101.510508 
L 52.334738 101.145121 
L 52.819835 101.084264 
L 53.304932 101.37749 
L 53.790029 100.818972 
L 54.275126 101.341884 
L 55.245319 101.0817 
L 55.730416 101.305051 
L 57.185707 100.731074 
L 57.670804 100.149708 
L 59.126094 99.631803 
L 59.611191 100.125774 
L 60.581385 99.40298 
L 61.066482 99.392189 
L 61.551579 99.079119 
L 62.036676 99.096284 
L 62.521773 99.231075 
L 63.006869 98.766207 
L 63.491966 98.763876 
L 63.977063 98.997951 
L 64.46216 98.659439 
L 64.947257 98.698096 
L 65.432354 98.136596 
L 65.917451 98.112126 
L 66.402548 97.903075 
L 66.887644 98.065711 
L 67.372741 97.679 
L 67.857838 97.574268 
L 68.342935 97.276985 
L 68.828032 97.399389 
L 69.313129 97.044191 
L 70.283322 96.953498 
L 70.768419 96.755602 
L 71.253516 96.74416 
L 71.738613 96.438751 
L 72.22371 96.529063 
L 72.708807 96.37278 
L 73.193904 96.013827 
L 73.679001 96.15837 
L 74.164097 95.872385 
L 74.649194 95.81769 
L 75.134291 95.420354 
L 76.104485 95.599546 
L 76.589582 95.217077 
L 77.559776 94.969643 
L 78.044872 94.897194 
L 78.529969 94.661127 
L 79.98526 94.527788 
L 80.470357 94.106569 
L 80.955454 94.146236 
L 81.44055 94.070337 
L 82.410744 93.750789 
L 83.380938 93.589214 
L 83.866035 93.266684 
L 85.806422 92.918763 
L 87.261713 92.575277 
L 87.74681 92.551847 
L 88.231907 92.343555 
L 89.2021 92.178431 
L 90.172294 91.877345 
L 90.657391 91.906499 
L 92.112682 91.698092 
L 92.597779 91.354495 
L 94.053069 91.275283 
L 94.538166 90.927196 
L 96.478553 90.647592 
L 96.96365 90.477202 
L 98.418941 90.281902 
L 99.874232 89.973756 
L 100.844425 89.759828 
L 103.755007 89.250401 
L 105.210297 88.990613 
L 105.695394 88.840469 
L 107.150685 88.722349 
L 108.120878 88.410171 
L 108.605975 88.510616 
L 109.091072 88.239968 
L 109.576169 88.18828 
L 110.061266 87.987909 
L 110.546363 88.055114 
L 113.456944 87.71721 
L 113.942041 87.391472 
L 114.427138 87.434052 
L 115.397331 87.178447 
L 115.882428 87.296513 
L 116.852622 86.90759 
L 117.337719 86.992935 
L 117.822816 86.809502 
L 119.763203 86.593783 
L 126.554559 85.645615 
L 127.524753 85.560555 
L 128.494947 85.318916 
L 128.980044 85.311478 
L 129.465141 85.17755 
L 129.950238 85.247719 
L 130.920431 84.943526 
L 132.375722 84.857883 
L 133.831012 84.744101 
L 134.801206 84.501261 
L 135.7714 84.478636 
L 136.256497 84.310497 
L 137.226691 84.296224 
L 139.652175 84.025314 
L 140.137272 83.730095 
L 140.622369 83.915884 
L 141.107466 83.733793 
L 141.592562 83.77896 
L 144.018047 83.428114 
L 144.98824 83.382217 
L 145.958434 83.286636 
L 148.869015 82.850453 
L 149.354112 82.975465 
L 149.839209 82.754127 
L 150.809403 82.713716 
L 152.264694 82.499569 
L 153.719984 82.335009 
L 154.690178 82.228126 
L 158.085856 81.838211 
L 159.05605 81.798389 
L 159.541147 81.706829 
L 160.026243 81.729551 
L 160.51134 81.592356 
L 161.481534 81.550502 
L 161.966631 81.433285 
L 162.936825 81.362347 
L 164.392115 81.215386 
L 166.332503 80.996962 
L 169.728181 80.748885 
L 170.213278 80.762492 
L 171.183471 80.450476 
L 171.668568 80.528551 
L 172.638762 80.407784 
L 175.549343 80.026307 
L 176.03444 80.147945 
L 176.519537 79.978644 
L 178.459925 79.897746 
L 179.430118 79.739013 
L 185.251281 79.17939 
L 186.221474 79.185469 
L 186.706571 79.003705 
L 187.676765 79.006759 
L 188.161862 78.896923 
L 189.617153 78.874967 
L 190.102249 78.718004 
L 192.527734 78.608963 
L 194.468121 78.358325 
L 196.408509 78.266387 
L 197.863799 78.050484 
L 198.348896 78.088411 
L 199.31909 77.944727 
L 199.804187 77.976215 
L 201.259477 77.788926 
L 202.714768 77.68496 
L 204.170059 77.547607 
L 205.140252 77.471579 
L 208.535931 77.177375 
L 209.021027 77.219275 
L 209.991221 77.062132 
L 210.476318 77.044964 
L 210.961415 76.9065 
L 211.446512 76.977076 
L 216.782577 76.456509 
L 217.267674 76.528796 
L 219.208062 76.328253 
L 220.663352 76.174236 
L 220.663352 76.174236 
" clip-path="url(#paf30f655c2)" style="fill: none; stroke-dasharray: 6,2.25; stroke-dashoffset: 0; stroke: #4c72b0; stroke-width: 1.5"/>
    <defs>
     <path id="m802341161a" d="M -1.75 3.5 
L 0 1.75 
L 1.75 3.5 
L 3.5 1.75 
L 1.75 0 
L 3.5 -1.75 
L 1.75 -3.5 
L 0 -1.75 
L -1.75 -3.5 
L -3.5 -1.75 
L -1.75 0 
L -3.5 1.75 
z
" style="stroke: #ffffff; stroke-width: 0.75; stroke-linejoin: miter"/>
    </defs>
    <g clip-path="url(#paf30f655c2)">
     <use xlink:href="#m802341161a" x="43.117898" y="70.911787" style="fill: #4c72b0; stroke: #ffffff; stroke-width: 0.75; stroke-linejoin: miter"/>
     <use xlink:href="#m802341161a" x="60.581385" y="99.40298" style="fill: #4c72b0; stroke: #ffffff; stroke-width: 0.75; stroke-linejoin: miter"/>
     <use xlink:href="#m802341161a" x="78.044872" y="94.897194" style="fill: #4c72b0; stroke: #ffffff; stroke-width: 0.75; stroke-linejoin: miter"/>
     <use xlink:href="#m802341161a" x="95.50836" y="90.883278" style="fill: #4c72b0; stroke: #ffffff; stroke-width: 0.75; stroke-linejoin: miter"/>
     <use xlink:href="#m802341161a" x="112.971847" y="87.580699" style="fill: #4c72b0; stroke: #ffffff; stroke-width: 0.75; stroke-linejoin: miter"/>
     <use xlink:href="#m802341161a" x="130.435334" y="85.085198" style="fill: #4c72b0; stroke: #ffffff; stroke-width: 0.75; stroke-linejoin: miter"/>
     <use xlink:href="#m802341161a" x="147.898822" y="82.947844" style="fill: #4c72b0; stroke: #ffffff; stroke-width: 0.75; stroke-linejoin: miter"/>
     <use xlink:href="#m802341161a" x="165.362309" y="81.139563" style="fill: #4c72b0; stroke: #ffffff; stroke-width: 0.75; stroke-linejoin: miter"/>
     <use xlink:href="#m802341161a" x="182.825796" y="79.462369" style="fill: #4c72b0; stroke: #ffffff; stroke-width: 0.75; stroke-linejoin: miter"/>
     <use xlink:href="#m802341161a" x="200.289284" y="77.890698" style="fill: #4c72b0; stroke: #ffffff; stroke-width: 0.75; stroke-linejoin: miter"/>
     <use xlink:href="#m802341161a" x="217.752771" y="76.460732" style="fill: #4c72b0; stroke: #ffffff; stroke-width: 0.75; stroke-linejoin: miter"/>
    </g>
   </g>
   <g id="line2d_12">
    <path d="M 43.117898 71.562552 
L 43.602995 81.689639 
L 44.088091 89.307629 
L 44.573188 91.497976 
L 45.058285 96.135609 
L 46.028479 101.956306 
L 46.513576 101.887478 
L 46.998673 105.461611 
L 47.48377 105.222192 
L 47.968866 108.74271 
L 48.453963 109.993641 
L 48.93906 108.733839 
L 49.424157 110.907455 
L 49.909254 112.041305 
L 50.394351 112.378117 
L 50.879448 114.32729 
L 51.364545 115.373506 
L 51.849641 115.345184 
L 52.334738 115.452407 
L 53.304932 118.371016 
L 53.790029 118.921381 
L 54.275126 118.998715 
L 54.760223 118.878513 
L 55.245319 119.057655 
L 55.730416 119.547455 
L 56.215513 120.411089 
L 56.70061 120.973294 
L 57.185707 122.128382 
L 57.670804 122.825417 
L 58.155901 122.83226 
L 58.640998 121.784925 
L 59.126094 123.947356 
L 59.611191 124.384493 
L 60.096288 124.5092 
L 60.581385 125.012046 
L 61.066482 122.718519 
L 61.551579 126.188352 
L 62.036676 125.021212 
L 62.521773 125.131555 
L 63.006869 125.962327 
L 63.491966 125.887191 
L 63.977063 126.855567 
L 64.46216 125.972012 
L 64.947257 127.108176 
L 65.432354 126.419172 
L 65.917451 126.775228 
L 66.402548 127.8189 
L 66.887644 128.155317 
L 67.372741 126.947248 
L 67.857838 128.691791 
L 68.342935 129.100897 
L 68.828032 128.072578 
L 69.313129 127.707019 
L 69.798226 127.504473 
L 70.283322 129.163206 
L 70.768419 128.676844 
L 71.253516 129.574737 
L 71.738613 129.826127 
L 72.22371 129.02082 
L 73.193904 129.487165 
L 73.679001 129.23912 
L 74.164097 129.495316 
L 74.649194 130.14194 
L 75.134291 129.5959 
L 75.619388 131.195127 
L 76.104485 130.893981 
L 76.589582 130.333619 
L 77.559776 130.379056 
L 78.044872 131.359883 
L 79.015066 131.679323 
L 79.500163 132.521497 
L 79.98526 131.581234 
L 80.470357 131.660107 
L 80.955454 131.95603 
L 81.44055 131.69238 
L 81.925647 130.751415 
L 82.410744 130.802503 
L 82.895841 133.000917 
L 83.380938 131.166901 
L 83.866035 132.62973 
L 84.351132 132.656334 
L 84.836229 132.412688 
L 85.321325 132.343742 
L 86.291519 132.798153 
L 86.776616 132.637315 
L 87.261713 132.848449 
L 87.74681 132.827031 
L 88.231907 133.337873 
L 89.687197 133.465847 
L 91.142488 132.760019 
L 91.627585 133.723916 
L 92.112682 133.496152 
L 92.597779 132.735484 
L 93.082875 133.548552 
L 93.567972 133.310134 
L 94.053069 134.224856 
L 94.538166 132.874402 
L 95.50836 134.180561 
L 95.993457 133.436768 
L 96.478553 134.019587 
L 96.96365 133.649627 
L 97.448747 134.274892 
L 97.933844 134.523083 
L 98.418941 134.255149 
L 98.904038 134.164667 
L 99.389135 134.314172 
L 99.874232 134.315246 
L 100.359328 134.7832 
L 100.844425 134.177525 
L 101.329522 134.336861 
L 101.814619 134.32947 
L 102.299716 134.596057 
L 102.784813 135.566474 
L 103.26991 134.381703 
L 103.755007 134.207405 
L 104.240103 135.258897 
L 104.7252 134.842356 
L 105.210297 134.197367 
L 105.695394 135.015046 
L 106.180491 135.245234 
L 107.150685 134.183553 
L 107.635781 134.883825 
L 108.120878 134.544827 
L 108.605975 135.025382 
L 109.091072 134.961459 
L 109.576169 135.296826 
L 110.061266 134.370117 
L 110.546363 134.421466 
L 111.03146 134.735634 
L 111.516556 134.900674 
L 112.001653 135.442625 
L 112.48675 135.050166 
L 112.971847 135.50509 
L 113.456944 134.914659 
L 113.942041 135.564284 
L 114.427138 135.90928 
L 114.912235 134.939187 
L 115.397331 135.559994 
L 115.882428 135.676563 
L 116.367525 135.309965 
L 116.852622 135.133362 
L 117.337719 134.74213 
L 117.822816 135.891019 
L 118.307913 135.740559 
L 118.79301 135.824483 
L 119.278106 135.574589 
L 119.763203 134.955004 
L 120.733397 136.320419 
L 121.218494 135.322491 
L 122.188688 135.149669 
L 122.673784 136.393643 
L 123.158881 135.569891 
L 123.643978 135.549522 
L 124.129075 135.719611 
L 124.614172 135.682784 
L 125.099269 135.897801 
L 125.584366 135.063163 
L 126.554559 135.653479 
L 127.039656 135.856092 
L 127.524753 136.438755 
L 128.00985 136.400245 
L 128.494947 136.038953 
L 129.465141 136.141845 
L 129.950238 136.596915 
L 130.435334 136.01556 
L 130.920431 135.791661 
L 131.405528 136.19034 
L 131.890625 135.709482 
L 132.860819 135.972685 
L 133.345916 136.363419 
L 133.831012 136.068748 
L 134.316109 136.325135 
L 135.286303 136.494272 
L 136.256497 135.819849 
L 136.741594 136.214429 
L 137.226691 136.068222 
L 138.196884 136.362829 
L 139.167078 136.133028 
L 139.652175 136.533132 
L 140.137272 136.054536 
L 140.622369 136.534678 
L 141.107466 136.195878 
L 141.592562 136.101291 
L 142.077659 136.220043 
L 142.562756 136.125872 
L 143.047853 136.608659 
L 143.53295 135.723901 
L 144.018047 136.750742 
L 144.503144 136.619231 
L 144.98824 136.244719 
L 145.473337 136.241962 
L 145.958434 136.818882 
L 146.443531 136.417975 
L 146.928628 136.521009 
L 147.413725 136.017583 
L 147.898822 136.106057 
L 148.383919 136.542552 
L 148.869015 135.973185 
L 149.354112 136.716398 
L 149.839209 136.58343 
L 150.324306 136.599724 
L 151.2945 136.347903 
L 151.779597 136.564193 
L 152.264694 136.959661 
L 153.719984 136.471795 
L 154.205081 136.820269 
L 154.690178 136.81144 
L 155.175275 137.015705 
L 155.660372 137.556022 
L 156.145469 137.036772 
L 157.115662 136.553143 
L 157.600759 136.75025 
L 158.085856 136.532127 
L 158.570953 137.144249 
L 159.05605 136.6774 
L 159.541147 136.76206 
L 160.026243 136.676999 
L 160.51134 136.44111 
L 160.996437 136.376227 
L 161.481534 136.616545 
L 161.966631 136.692467 
L 162.451728 136.648871 
L 163.421922 136.999827 
L 163.907018 136.635368 
L 164.877212 137.239851 
L 165.362309 136.877475 
L 165.847406 136.29402 
L 166.332503 136.931974 
L 167.302697 136.946832 
L 167.787793 137.188409 
L 168.27289 136.440935 
L 168.757987 137.102189 
L 169.243084 137.127022 
L 169.728181 136.812482 
L 170.698375 136.985081 
L 171.183471 136.695396 
L 171.668568 137.291038 
L 172.153665 137.099328 
L 173.123859 137.017625 
L 173.608956 137.090114 
L 174.094053 136.6638 
L 174.57915 137.037371 
L 175.064246 136.550112 
L 175.549343 137.0863 
L 176.03444 136.907839 
L 176.519537 136.595476 
L 178.459925 137.189555 
L 179.430118 136.624308 
L 179.915215 137.449401 
L 180.885409 136.974209 
L 181.370506 137.543078 
L 181.855603 137.066595 
L 182.3407 137.105676 
L 182.825796 136.744722 
L 183.310893 137.040383 
L 183.79599 137.009343 
L 184.281087 137.117699 
L 184.766184 137.474584 
L 185.251281 136.711953 
L 185.736378 137.344884 
L 186.221474 137.240971 
L 186.706571 136.657375 
L 187.191668 137.207802 
L 187.676765 137.086325 
L 188.161862 137.145855 
L 188.646959 137.578115 
L 189.132056 137.266656 
L 190.102249 137.236752 
L 190.587346 137.540308 
L 191.072443 137.294453 
L 191.55754 137.214894 
L 192.042637 137.582519 
L 192.527734 137.260473 
L 193.012831 137.359255 
L 193.497928 137.13284 
L 193.983024 137.107048 
L 194.468121 137.377577 
L 195.438315 136.803712 
L 195.923412 137.312251 
L 196.408509 137.59775 
L 196.893606 136.947438 
L 197.378702 137.473314 
L 197.863799 137.205946 
L 198.348896 137.511073 
L 198.833993 137.128391 
L 199.31909 137.383279 
L 199.804187 137.334401 
L 200.289284 137.025737 
L 200.774381 137.678522 
L 201.259477 137.177822 
L 201.744574 137.336958 
L 202.229671 137.256877 
L 203.199865 137.338545 
L 203.684962 136.944323 
L 205.140252 137.315581 
L 205.625349 137.245377 
L 206.110446 137.300828 
L 206.595543 137.225639 
L 207.08064 137.46625 
L 207.565737 137.461697 
L 208.050834 137.134061 
L 209.021027 137.05091 
L 209.506124 137.049218 
L 210.476318 137.420502 
L 210.961415 137.840626 
L 211.446512 137.473785 
L 211.931609 137.559081 
L 212.416705 137.238881 
L 212.901802 137.149363 
L 213.386899 137.398599 
L 213.871996 137.367901 
L 214.357093 137.565944 
L 214.84219 137.611264 
L 215.812384 137.400122 
L 216.29748 137.180959 
L 216.782577 137.473715 
L 217.267674 137.591911 
L 217.752771 137.490456 
L 218.237868 137.524983 
L 218.722965 137.772357 
L 220.178255 137.408131 
L 220.663352 137.592169 
L 220.663352 137.592169 
" clip-path="url(#paf30f655c2)" style="fill: none; stroke-dasharray: 1.5,1.5; stroke-dashoffset: 0; stroke: #4c72b0; stroke-width: 1.5"/>
    <defs>
     <path id="m25c62c9d31" d="M -2.474874 -2.474874 
L -2.474874 2.474874 
L 2.474874 2.474874 
L 2.474874 -2.474874 
z
" style="stroke: #ffffff; stroke-width: 0.75; stroke-linejoin: miter"/>
    </defs>
    <g clip-path="url(#paf30f655c2)">
     <use xlink:href="#m25c62c9d31" x="43.117898" y="71.562552" style="fill: #4c72b0; stroke: #ffffff; stroke-width: 0.75; stroke-linejoin: miter"/>
     <use xlink:href="#m25c62c9d31" x="60.581385" y="125.012046" style="fill: #4c72b0; stroke: #ffffff; stroke-width: 0.75; stroke-linejoin: miter"/>
     <use xlink:href="#m25c62c9d31" x="78.044872" y="131.359883" style="fill: #4c72b0; stroke: #ffffff; stroke-width: 0.75; stroke-linejoin: miter"/>
     <use xlink:href="#m25c62c9d31" x="95.50836" y="134.180561" style="fill: #4c72b0; stroke: #ffffff; stroke-width: 0.75; stroke-linejoin: miter"/>
     <use xlink:href="#m25c62c9d31" x="112.971847" y="135.50509" style="fill: #4c72b0; stroke: #ffffff; stroke-width: 0.75; stroke-linejoin: miter"/>
     <use xlink:href="#m25c62c9d31" x="130.435334" y="136.01556" style="fill: #4c72b0; stroke: #ffffff; stroke-width: 0.75; stroke-linejoin: miter"/>
     <use xlink:href="#m25c62c9d31" x="147.898822" y="136.106057" style="fill: #4c72b0; stroke: #ffffff; stroke-width: 0.75; stroke-linejoin: miter"/>
     <use xlink:href="#m25c62c9d31" x="165.362309" y="136.877475" style="fill: #4c72b0; stroke: #ffffff; stroke-width: 0.75; stroke-linejoin: miter"/>
     <use xlink:href="#m25c62c9d31" x="182.825796" y="136.744722" style="fill: #4c72b0; stroke: #ffffff; stroke-width: 0.75; stroke-linejoin: miter"/>
     <use xlink:href="#m25c62c9d31" x="200.289284" y="137.025737" style="fill: #4c72b0; stroke: #ffffff; stroke-width: 0.75; stroke-linejoin: miter"/>
     <use xlink:href="#m25c62c9d31" x="217.752771" y="137.490456" style="fill: #4c72b0; stroke: #ffffff; stroke-width: 0.75; stroke-linejoin: miter"/>
    </g>
   </g>
   <g id="line2d_13">
    <path d="M 43.117898 71.803892 
L 43.602995 81.156113 
L 44.088091 86.49778 
L 45.058285 92.9667 
L 45.543382 92.406879 
L 46.028479 93.320106 
L 46.513576 95.26815 
L 47.48377 96.192206 
L 47.968866 96.08914 
L 48.453963 96.24242 
L 48.93906 96.243671 
L 49.424157 96.753005 
L 49.909254 96.355234 
L 50.394351 97.240134 
L 51.364545 96.969803 
L 51.849641 96.648122 
L 52.334738 97.177771 
L 52.819835 96.387477 
L 53.304932 96.83054 
L 53.790029 96.718176 
L 54.275126 96.852701 
L 54.760223 96.384981 
L 55.730416 96.173625 
L 56.215513 96.349191 
L 56.70061 96.244866 
L 57.185707 96.368122 
L 57.670804 96.107283 
L 59.611191 95.716979 
L 60.096288 95.387604 
L 60.581385 95.415646 
L 61.066482 95.229896 
L 61.551579 95.226853 
L 63.491966 94.507084 
L 63.977063 94.583196 
L 64.46216 94.487283 
L 64.947257 94.177947 
L 65.432354 94.365034 
L 65.917451 94.177972 
L 66.402548 94.212837 
L 66.887644 93.80189 
L 67.372741 93.793387 
L 67.857838 93.586189 
L 68.342935 93.630975 
L 68.828032 93.513463 
L 69.313129 93.175649 
L 69.798226 93.113239 
L 70.283322 92.864654 
L 70.768419 92.871733 
L 71.738613 92.588122 
L 72.22371 92.32393 
L 72.708807 92.589564 
L 74.164097 91.818651 
L 74.649194 91.792174 
L 75.134291 91.562991 
L 75.619388 91.603115 
L 76.104485 91.426347 
L 76.589582 91.412391 
L 77.559776 90.966054 
L 78.044872 91.172241 
L 78.529969 90.773981 
L 79.015066 90.788869 
L 79.500163 90.523983 
L 79.98526 90.669965 
L 80.470357 90.393544 
L 81.44055 90.273259 
L 81.925647 89.970933 
L 82.410744 90.034656 
L 83.380938 89.678883 
L 83.866035 89.645021 
L 84.351132 89.733578 
L 84.836229 89.380884 
L 88.231907 88.870094 
L 88.717004 88.459992 
L 89.2021 88.625416 
L 90.172294 88.294724 
L 90.657391 88.300029 
L 91.142488 87.985211 
L 91.627585 87.98915 
L 92.112682 87.821971 
L 93.082875 87.734569 
L 93.567972 87.538043 
L 94.053069 87.594094 
L 95.50836 87.190378 
L 97.448747 86.832162 
L 97.933844 86.860456 
L 99.389135 86.467541 
L 100.359328 86.295043 
L 101.329522 86.060083 
L 102.299716 85.985386 
L 105.210297 85.35544 
L 105.695394 85.382039 
L 111.516556 84.195963 
L 112.001653 84.274733 
L 112.971847 84.061431 
L 113.456944 84.049043 
L 114.427138 83.805919 
L 115.397331 83.570729 
L 115.882428 83.627162 
L 116.852622 83.378059 
L 117.337719 83.510125 
L 118.307913 82.994381 
L 119.278106 83.0242 
L 120.733397 82.821066 
L 121.703591 82.642899 
L 122.188688 82.586489 
L 122.673784 82.41244 
L 124.129075 82.344113 
L 124.614172 82.106168 
L 125.099269 82.182225 
L 126.069463 81.971423 
L 128.494947 81.628408 
L 128.980044 81.425538 
L 129.465141 81.533489 
L 130.920431 81.174727 
L 131.890625 81.162839 
L 132.375722 81.007955 
L 132.860819 81.0259 
L 133.345916 80.882155 
L 133.831012 80.883472 
L 135.286303 80.576265 
L 135.7714 80.589286 
L 136.741594 80.406255 
L 137.226691 80.342751 
L 137.711787 80.402871 
L 138.681981 80.188144 
L 140.137272 79.997787 
L 143.047853 79.621868 
L 143.53295 79.601966 
L 144.503144 79.399041 
L 145.958434 79.283468 
L 146.928628 79.027783 
L 147.413725 79.132533 
L 147.898822 78.951884 
L 148.869015 78.907088 
L 149.354112 78.728806 
L 150.324306 78.725777 
L 151.779597 78.450636 
L 154.205081 78.289073 
L 154.690178 78.225411 
L 155.175275 78.044736 
L 156.630565 77.912484 
L 161.966631 77.333316 
L 164.877212 76.976313 
L 166.332503 76.936495 
L 167.302697 76.667466 
L 167.787793 76.677113 
L 169.243084 76.463357 
L 171.183471 76.302858 
L 172.153665 76.229805 
L 175.064246 75.906203 
L 176.03444 75.866665 
L 177.004634 75.636335 
L 178.459925 75.539937 
L 199.804187 73.515092 
L 200.289284 73.542853 
L 201.744574 73.283183 
L 202.714768 73.289866 
L 213.871996 72.315067 
L 214.357093 72.132005 
L 215.327287 72.184642 
L 215.812384 72.032966 
L 217.267674 72.085115 
L 218.237868 71.906239 
L 218.722965 71.959697 
L 220.178255 71.706314 
L 220.663352 71.721939 
L 220.663352 71.721939 
" clip-path="url(#paf30f655c2)" style="fill: none; stroke: #dd8452; stroke-width: 1.5; stroke-linecap: square"/>
    <defs>
     <path id="ma68491fb8d" d="M 0 3.5 
C 0.928211 3.5 1.81853 3.131218 2.474874 2.474874 
C 3.131218 1.81853 3.5 0.928211 3.5 0 
C 3.5 -0.928211 3.131218 -1.81853 2.474874 -2.474874 
C 1.81853 -3.131218 0.928211 -3.5 0 -3.5 
C -0.928211 -3.5 -1.81853 -3.131218 -2.474874 -2.474874 
C -3.131218 -1.81853 -3.5 -0.928211 -3.5 0 
C -3.5 0.928211 -3.131218 1.81853 -2.474874 2.474874 
C -1.81853 3.131218 -0.928211 3.5 0 3.5 
z
" style="stroke: #ffffff; stroke-width: 0.75"/>
    </defs>
    <g clip-path="url(#paf30f655c2)">
     <use xlink:href="#ma68491fb8d" x="43.117898" y="71.803892" style="fill: #dd8452; stroke: #ffffff; stroke-width: 0.75"/>
     <use xlink:href="#ma68491fb8d" x="60.581385" y="95.415646" style="fill: #dd8452; stroke: #ffffff; stroke-width: 0.75"/>
     <use xlink:href="#ma68491fb8d" x="78.044872" y="91.172241" style="fill: #dd8452; stroke: #ffffff; stroke-width: 0.75"/>
     <use xlink:href="#ma68491fb8d" x="95.50836" y="87.190378" style="fill: #dd8452; stroke: #ffffff; stroke-width: 0.75"/>
     <use xlink:href="#ma68491fb8d" x="112.971847" y="84.061431" style="fill: #dd8452; stroke: #ffffff; stroke-width: 0.75"/>
     <use xlink:href="#ma68491fb8d" x="130.435334" y="81.329949" style="fill: #dd8452; stroke: #ffffff; stroke-width: 0.75"/>
     <use xlink:href="#ma68491fb8d" x="147.898822" y="78.951884" style="fill: #dd8452; stroke: #ffffff; stroke-width: 0.75"/>
     <use xlink:href="#ma68491fb8d" x="165.362309" y="76.987575" style="fill: #dd8452; stroke: #ffffff; stroke-width: 0.75"/>
     <use xlink:href="#ma68491fb8d" x="182.825796" y="75.081356" style="fill: #dd8452; stroke: #ffffff; stroke-width: 0.75"/>
     <use xlink:href="#ma68491fb8d" x="200.289284" y="73.542853" style="fill: #dd8452; stroke: #ffffff; stroke-width: 0.75"/>
     <use xlink:href="#ma68491fb8d" x="217.752771" y="71.995084" style="fill: #dd8452; stroke: #ffffff; stroke-width: 0.75"/>
    </g>
   </g>
   <g id="line2d_14">
    <path d="M 43.117898 72.18993 
L 43.602995 82.423292 
L 44.088091 87.098494 
L 44.573188 89.894904 
L 46.028479 96.381254 
L 46.513576 95.708184 
L 46.998673 96.983158 
L 48.453963 99.213749 
L 48.93906 98.956043 
L 49.424157 99.301529 
L 49.909254 98.61024 
L 50.394351 99.22805 
L 50.879448 98.897898 
L 51.364545 99.195048 
L 51.849641 99.739251 
L 52.334738 99.762872 
L 52.819835 99.490389 
L 53.304932 99.398229 
L 53.790029 99.888739 
L 54.275126 99.372136 
L 54.760223 99.538354 
L 55.245319 99.165812 
L 56.70061 99.923381 
L 57.670804 99.673455 
L 58.155901 99.225374 
L 59.126094 98.612604 
L 59.611191 99.272174 
L 60.096288 98.897269 
L 60.581385 98.856264 
L 61.551579 98.577911 
L 62.036676 98.755226 
L 62.521773 98.238087 
L 63.006869 98.301022 
L 63.491966 98.124657 
L 63.977063 98.240184 
L 64.46216 98.053967 
L 64.947257 98.118093 
L 65.432354 97.84706 
L 65.917451 97.720077 
L 66.402548 97.78365 
L 66.887644 97.639725 
L 67.372741 97.252116 
L 67.857838 97.342482 
L 68.342935 97.087883 
L 68.828032 97.19063 
L 69.313129 96.720114 
L 69.798226 96.878916 
L 70.283322 96.697551 
L 70.768419 96.379481 
L 71.253516 96.583301 
L 71.738613 96.202267 
L 72.22371 96.241722 
L 72.708807 95.971534 
L 73.193904 95.879683 
L 73.679001 95.96206 
L 74.649194 95.752711 
L 75.134291 95.48421 
L 75.619388 95.441856 
L 76.104485 95.226846 
L 76.589582 95.146595 
L 77.074679 95.180812 
L 77.559776 94.790667 
L 78.044872 94.898543 
L 81.44055 94.086196 
L 81.925647 93.858405 
L 82.895841 93.916845 
L 83.866035 93.530095 
L 84.351132 93.5605 
L 85.321325 93.312592 
L 85.806422 93.464994 
L 87.261713 92.820322 
L 88.231907 92.705576 
L 88.717004 92.673294 
L 89.2021 92.448183 
L 90.172294 92.484652 
L 90.657391 92.22973 
L 92.597779 91.815356 
L 98.418941 90.695399 
L 99.389135 90.541274 
L 101.329522 90.045281 
L 101.814619 90.104228 
L 103.26991 89.661783 
L 106.665588 89.162672 
L 107.150685 88.977376 
L 108.120878 88.919875 
L 108.605975 88.699235 
L 109.091072 88.639386 
L 109.576169 88.721421 
L 110.061266 88.49758 
L 110.546363 88.642853 
L 111.03146 88.344462 
L 111.516556 88.344308 
L 112.001653 88.110215 
L 112.971847 88.090706 
L 113.456944 87.940703 
L 113.942041 87.949145 
L 115.397331 87.601242 
L 116.367525 87.628233 
L 116.852622 87.352866 
L 117.337719 87.435617 
L 117.822816 87.234088 
L 118.307913 87.262072 
L 119.763203 86.847323 
L 120.733397 86.875178 
L 122.188688 86.615317 
L 122.673784 86.582866 
L 124.129075 86.186034 
L 125.099269 86.081568 
L 136.741594 84.468572 
L 137.226691 84.357221 
L 138.196884 84.272751 
L 139.652175 84.171896 
L 140.137272 83.993132 
L 140.622369 84.036939 
L 141.107466 83.831921 
L 141.592562 83.880638 
L 142.077659 83.720887 
L 142.562756 83.755529 
L 144.018047 83.447009 
L 144.503144 83.545069 
L 149.354112 82.858284 
L 154.690178 82.272911 
L 155.175275 82.113588 
L 156.630565 82.047308 
L 157.115662 81.887589 
L 157.600759 81.947597 
L 159.05605 81.696858 
L 159.541147 81.746906 
L 160.51134 81.550506 
L 167.787793 80.797717 
L 168.27289 80.659714 
L 170.213278 80.491136 
L 171.668568 80.37312 
L 172.153665 80.378167 
L 173.608956 80.115015 
L 174.094053 80.198932 
L 175.064246 79.970494 
L 175.549343 79.986734 
L 176.03444 79.854399 
L 177.004634 79.870707 
L 177.489731 79.720614 
L 177.974828 79.754472 
L 178.459925 79.65752 
L 179.430118 79.656582 
L 180.400312 79.456434 
L 181.370506 79.423374 
L 182.3407 79.285594 
L 183.79599 79.245945 
L 184.281087 79.123649 
L 185.251281 79.070482 
L 186.221474 78.919666 
L 187.191668 78.916638 
L 188.161862 78.756786 
L 188.646959 78.774418 
L 189.617153 78.606125 
L 191.072443 78.583953 
L 191.55754 78.441015 
L 193.983024 78.304018 
L 194.953218 78.102539 
L 195.923412 78.125297 
L 196.893606 77.966643 
L 198.348896 77.905031 
L 201.744574 77.52385 
L 202.229671 77.608245 
L 203.199865 77.491376 
L 204.170059 77.401367 
L 206.110446 77.283117 
L 207.565737 77.111191 
L 209.021027 77.113317 
L 209.991221 76.965551 
L 210.476318 76.968036 
L 210.961415 76.833587 
L 211.931609 76.841277 
L 216.782577 76.449646 
L 220.663352 76.189969 
L 220.663352 76.189969 
" clip-path="url(#paf30f655c2)" style="fill: none; stroke-dasharray: 6,2.25; stroke-dashoffset: 0; stroke: #dd8452; stroke-width: 1.5"/>
    <defs>
     <path id="m78ab6b2f36" d="M -1.75 3.5 
L 0 1.75 
L 1.75 3.5 
L 3.5 1.75 
L 1.75 0 
L 3.5 -1.75 
L 1.75 -3.5 
L 0 -1.75 
L -1.75 -3.5 
L -3.5 -1.75 
L -1.75 0 
L -3.5 1.75 
z
" style="stroke: #ffffff; stroke-width: 0.75; stroke-linejoin: miter"/>
    </defs>
    <g clip-path="url(#paf30f655c2)">
     <use xlink:href="#m78ab6b2f36" x="43.117898" y="72.18993" style="fill: #dd8452; stroke: #ffffff; stroke-width: 0.75; stroke-linejoin: miter"/>
     <use xlink:href="#m78ab6b2f36" x="60.581385" y="98.856264" style="fill: #dd8452; stroke: #ffffff; stroke-width: 0.75; stroke-linejoin: miter"/>
     <use xlink:href="#m78ab6b2f36" x="78.044872" y="94.898543" style="fill: #dd8452; stroke: #ffffff; stroke-width: 0.75; stroke-linejoin: miter"/>
     <use xlink:href="#m78ab6b2f36" x="95.50836" y="91.200042" style="fill: #dd8452; stroke: #ffffff; stroke-width: 0.75; stroke-linejoin: miter"/>
     <use xlink:href="#m78ab6b2f36" x="112.971847" y="88.090706" style="fill: #dd8452; stroke: #ffffff; stroke-width: 0.75; stroke-linejoin: miter"/>
     <use xlink:href="#m78ab6b2f36" x="130.435334" y="85.403624" style="fill: #dd8452; stroke: #ffffff; stroke-width: 0.75; stroke-linejoin: miter"/>
     <use xlink:href="#m78ab6b2f36" x="147.898822" y="82.95215" style="fill: #dd8452; stroke: #ffffff; stroke-width: 0.75; stroke-linejoin: miter"/>
     <use xlink:href="#m78ab6b2f36" x="165.362309" y="80.979974" style="fill: #dd8452; stroke: #ffffff; stroke-width: 0.75; stroke-linejoin: miter"/>
     <use xlink:href="#m78ab6b2f36" x="182.825796" y="79.278928" style="fill: #dd8452; stroke: #ffffff; stroke-width: 0.75; stroke-linejoin: miter"/>
     <use xlink:href="#m78ab6b2f36" x="200.289284" y="77.772362" style="fill: #dd8452; stroke: #ffffff; stroke-width: 0.75; stroke-linejoin: miter"/>
     <use xlink:href="#m78ab6b2f36" x="217.752771" y="76.43224" style="fill: #dd8452; stroke: #ffffff; stroke-width: 0.75; stroke-linejoin: miter"/>
    </g>
   </g>
   <g id="line2d_15">
    <path d="M 43.117898 70.704639 
L 43.602995 82.205282 
L 44.088091 88.218426 
L 45.543382 99.094068 
L 46.028479 101.393173 
L 46.513576 102.675927 
L 46.998673 104.928621 
L 47.48377 106.154304 
L 47.968866 108.568689 
L 48.453963 109.09489 
L 48.93906 111.926088 
L 49.424157 110.336792 
L 49.909254 113.845905 
L 50.394351 113.066317 
L 50.879448 114.116999 
L 51.364545 114.638105 
L 51.849641 114.925033 
L 52.819835 116.739975 
L 53.304932 117.094008 
L 53.790029 118.437588 
L 54.275126 119.021428 
L 54.760223 119.263999 
L 55.245319 120.737497 
L 55.730416 119.910557 
L 56.215513 121.414846 
L 57.185707 122.300526 
L 57.670804 123.723588 
L 58.155901 123.610932 
L 58.640998 122.684601 
L 59.126094 123.893946 
L 59.611191 123.420621 
L 60.096288 123.943117 
L 60.581385 124.194298 
L 61.066482 125.946808 
L 61.551579 124.767347 
L 62.036676 125.095984 
L 62.521773 126.052302 
L 63.006869 126.461345 
L 63.491966 126.076357 
L 63.977063 127.564086 
L 64.46216 127.195204 
L 64.947257 127.509312 
L 65.432354 128.122883 
L 66.402548 128.218472 
L 66.887644 129.046959 
L 67.372741 128.483505 
L 67.857838 129.16757 
L 68.342935 130.364398 
L 68.828032 130.393189 
L 69.313129 128.946747 
L 69.798226 131.417149 
L 70.283322 130.594781 
L 70.768419 130.067565 
L 71.253516 131.767504 
L 71.738613 129.921654 
L 72.22371 131.186797 
L 72.708807 131.089 
L 73.193904 131.326252 
L 73.679001 132.539266 
L 74.649194 132.113641 
L 75.134291 132.658031 
L 75.619388 132.976137 
L 76.104485 131.385935 
L 76.589582 133.265796 
L 77.074679 132.236122 
L 77.559776 133.418308 
L 79.015066 132.520184 
L 79.500163 133.77218 
L 79.98526 132.792339 
L 80.470357 133.327898 
L 80.955454 133.554263 
L 81.44055 133.303411 
L 81.925647 133.465484 
L 82.410744 134.546706 
L 82.895841 133.213442 
L 83.380938 134.216369 
L 83.866035 133.464726 
L 84.351132 134.271618 
L 84.836229 134.643979 
L 85.321325 134.681308 
L 85.806422 135.375701 
L 86.291519 134.7289 
L 86.776616 135.049606 
L 87.261713 135.636982 
L 88.231907 134.313391 
L 88.717004 136.114705 
L 89.2021 135.766423 
L 89.687197 134.811549 
L 90.172294 135.627547 
L 90.657391 136.024318 
L 91.142488 135.561709 
L 91.627585 135.54146 
L 92.112682 136.647781 
L 92.597779 136.232416 
L 93.082875 135.532908 
L 93.567972 135.546908 
L 94.053069 137.156668 
L 94.538166 135.749351 
L 95.023263 136.884146 
L 95.50836 136.074081 
L 95.993457 136.345282 
L 96.478553 135.663601 
L 96.96365 137.017942 
L 97.448747 136.219155 
L 97.933844 136.004144 
L 98.418941 136.021191 
L 98.904038 137.385469 
L 99.389135 136.693604 
L 99.874232 136.544536 
L 100.359328 137.149782 
L 101.329522 136.755686 
L 102.299716 136.794196 
L 102.784813 137.603533 
L 103.26991 137.272659 
L 103.755007 137.357938 
L 104.240103 137.701276 
L 104.7252 137.412273 
L 105.210297 137.796484 
L 105.695394 138.32381 
L 106.180491 137.171072 
L 107.150685 137.839425 
L 107.635781 137.372101 
L 108.120878 137.763131 
L 108.605975 137.685973 
L 109.091072 136.779312 
L 111.03146 138.167932 
L 111.516556 137.389316 
L 112.001653 138.809938 
L 112.971847 137.480606 
L 113.456944 137.242431 
L 113.942041 137.746187 
L 114.912235 137.918837 
L 115.882428 137.493707 
L 116.367525 137.710239 
L 116.852622 138.393346 
L 117.337719 137.850034 
L 117.822816 138.42376 
L 118.307913 138.05242 
L 118.79301 138.15031 
L 119.278106 138.609332 
L 120.2483 137.788723 
L 120.733397 138.775188 
L 121.218494 138.068576 
L 121.703591 138.643154 
L 122.188688 137.781182 
L 122.673784 139.079052 
L 123.158881 139.181281 
L 123.643978 138.213028 
L 124.129075 138.811936 
L 124.614172 137.906034 
L 125.099269 138.615725 
L 125.584366 137.925521 
L 126.069463 138.545683 
L 126.554559 138.432126 
L 127.039656 139.5 
L 127.524753 138.485966 
L 128.00985 138.387915 
L 128.494947 138.729554 
L 129.950238 138.136245 
L 130.920431 138.435258 
L 131.405528 138.092422 
L 131.890625 138.376215 
L 132.375722 138.392469 
L 132.860819 138.531709 
L 133.345916 137.670539 
L 133.831012 138.35175 
L 134.316109 138.368932 
L 134.801206 138.607872 
L 135.286303 139.144574 
L 135.7714 138.073878 
L 136.741594 138.539296 
L 137.226691 138.040169 
L 137.711787 137.988458 
L 138.196884 138.693331 
L 138.681981 138.540962 
L 139.167078 137.860351 
L 139.652175 138.573375 
L 141.592562 138.446945 
L 142.077659 138.312154 
L 142.562756 138.4706 
L 143.53295 138.337778 
L 144.018047 138.924899 
L 144.503144 138.445922 
L 144.98824 138.60227 
L 145.473337 138.611213 
L 145.958434 138.45843 
L 146.443531 139.124811 
L 147.413725 138.125583 
L 147.898822 138.719025 
L 148.383919 138.391681 
L 148.869015 138.712112 
L 149.354112 138.634901 
L 149.839209 138.976751 
L 150.324306 138.705268 
L 150.809403 138.030498 
L 151.2945 138.116633 
L 151.779597 138.854028 
L 152.264694 138.634729 
L 152.74979 138.674205 
L 153.719984 138.468098 
L 154.205081 138.259039 
L 154.690178 138.472298 
L 155.175275 138.056843 
L 155.660372 138.052288 
L 156.145469 138.666476 
L 156.630565 138.161433 
L 157.115662 138.071213 
L 157.600759 138.569156 
L 159.05605 137.849947 
L 160.026243 138.600313 
L 161.481534 138.309816 
L 161.966631 138.816365 
L 162.451728 138.642002 
L 162.936825 138.642061 
L 163.421922 138.019829 
L 164.392115 138.649546 
L 164.877212 137.941678 
L 165.362309 138.271511 
L 165.847406 138.346517 
L 166.332503 137.805366 
L 166.8176 138.402031 
L 167.302697 137.363766 
L 167.787793 138.365569 
L 168.27289 138.324178 
L 168.757987 137.716323 
L 169.243084 138.214673 
L 169.728181 137.686255 
L 170.213278 138.425669 
L 170.698375 137.533814 
L 171.183471 137.777956 
L 171.668568 137.704905 
L 173.123859 138.027988 
L 174.094053 137.59635 
L 174.57915 137.930941 
L 175.549343 137.485601 
L 176.03444 137.961265 
L 176.519537 138.261346 
L 177.004634 137.567816 
L 177.974828 137.507298 
L 178.459925 137.371557 
L 178.945021 137.862437 
L 179.430118 137.2381 
L 179.915215 137.833476 
L 180.400312 137.623333 
L 180.885409 137.694638 
L 181.370506 137.422713 
L 181.855603 137.817817 
L 182.3407 137.313208 
L 182.825796 137.334282 
L 183.310893 137.525453 
L 183.79599 137.536649 
L 184.281087 137.69395 
L 184.766184 137.525361 
L 185.251281 137.544378 
L 185.736378 137.435964 
L 186.221474 137.654252 
L 186.706571 137.145667 
L 187.191668 137.491004 
L 187.676765 137.164236 
L 188.161862 137.778313 
L 188.646959 137.818401 
L 190.102249 137.358144 
L 190.587346 137.920488 
L 191.072443 137.827352 
L 191.55754 137.880043 
L 192.042637 137.46922 
L 193.497928 137.343532 
L 193.983024 137.592988 
L 194.468121 137.640454 
L 194.953218 137.451245 
L 195.438315 137.023462 
L 196.408509 137.556573 
L 196.893606 137.157704 
L 197.378702 137.666373 
L 198.833993 137.670386 
L 199.31909 137.387514 
L 199.804187 137.466564 
L 200.289284 137.72158 
L 200.774381 137.416456 
L 201.259477 137.397443 
L 201.744574 137.593983 
L 202.229671 137.152661 
L 202.714768 137.741018 
L 203.199865 137.235891 
L 203.684962 137.193587 
L 204.170059 137.503265 
L 204.655156 137.167928 
L 205.140252 137.523928 
L 205.625349 137.13812 
L 206.110446 137.403908 
L 206.595543 137.185533 
L 207.08064 137.50701 
L 207.565737 137.591413 
L 208.050834 137.365083 
L 208.535931 137.485127 
L 209.506124 137.167254 
L 209.991221 137.549925 
L 210.476318 137.452889 
L 210.961415 137.157792 
L 211.931609 137.378908 
L 212.901802 137.654341 
L 213.871996 137.286369 
L 214.357093 137.312882 
L 214.84219 137.542431 
L 215.327287 137.367102 
L 216.29748 137.574002 
L 216.782577 137.309034 
L 217.752771 137.348732 
L 218.237868 137.122671 
L 218.722965 137.764108 
L 219.208062 137.285941 
L 219.693159 137.153541 
L 220.178255 137.679989 
L 220.663352 137.182113 
L 220.663352 137.182113 
" clip-path="url(#paf30f655c2)" style="fill: none; stroke-dasharray: 1.5,1.5; stroke-dashoffset: 0; stroke: #dd8452; stroke-width: 1.5"/>
    <defs>
     <path id="m12108e7c60" d="M -2.474874 -2.474874 
L -2.474874 2.474874 
L 2.474874 2.474874 
L 2.474874 -2.474874 
z
" style="stroke: #ffffff; stroke-width: 0.75; stroke-linejoin: miter"/>
    </defs>
    <g clip-path="url(#paf30f655c2)">
     <use xlink:href="#m12108e7c60" x="43.117898" y="70.704639" style="fill: #dd8452; stroke: #ffffff; stroke-width: 0.75; stroke-linejoin: miter"/>
     <use xlink:href="#m12108e7c60" x="60.581385" y="124.194298" style="fill: #dd8452; stroke: #ffffff; stroke-width: 0.75; stroke-linejoin: miter"/>
     <use xlink:href="#m12108e7c60" x="78.044872" y="133.079816" style="fill: #dd8452; stroke: #ffffff; stroke-width: 0.75; stroke-linejoin: miter"/>
     <use xlink:href="#m12108e7c60" x="95.50836" y="136.074081" style="fill: #dd8452; stroke: #ffffff; stroke-width: 0.75; stroke-linejoin: miter"/>
     <use xlink:href="#m12108e7c60" x="112.971847" y="137.480606" style="fill: #dd8452; stroke: #ffffff; stroke-width: 0.75; stroke-linejoin: miter"/>
     <use xlink:href="#m12108e7c60" x="130.435334" y="138.246296" style="fill: #dd8452; stroke: #ffffff; stroke-width: 0.75; stroke-linejoin: miter"/>
     <use xlink:href="#m12108e7c60" x="147.898822" y="138.719025" style="fill: #dd8452; stroke: #ffffff; stroke-width: 0.75; stroke-linejoin: miter"/>
     <use xlink:href="#m12108e7c60" x="165.362309" y="138.271511" style="fill: #dd8452; stroke: #ffffff; stroke-width: 0.75; stroke-linejoin: miter"/>
     <use xlink:href="#m12108e7c60" x="182.825796" y="137.334282" style="fill: #dd8452; stroke: #ffffff; stroke-width: 0.75; stroke-linejoin: miter"/>
     <use xlink:href="#m12108e7c60" x="200.289284" y="137.72158" style="fill: #dd8452; stroke: #ffffff; stroke-width: 0.75; stroke-linejoin: miter"/>
     <use xlink:href="#m12108e7c60" x="217.752771" y="137.348732" style="fill: #dd8452; stroke: #ffffff; stroke-width: 0.75; stroke-linejoin: miter"/>
    </g>
   </g>
   <g id="line2d_16">
    <path d="M 43.117898 71.426062 
L 43.602995 78.668391 
L 44.573188 87.525404 
L 45.058285 91.483697 
L 45.543382 91.994692 
L 46.028479 93.295391 
L 46.513576 93.601081 
L 46.998673 95.379964 
L 47.48377 95.638591 
L 47.968866 95.748582 
L 48.93906 97.890655 
L 49.424157 97.623586 
L 49.909254 97.812458 
L 50.394351 97.449271 
L 50.879448 98.428192 
L 51.364545 98.664694 
L 52.334738 98.152354 
L 53.304932 98.479247 
L 53.790029 98.406139 
L 54.275126 98.058747 
L 54.760223 98.467755 
L 55.245319 97.889529 
L 55.730416 98.128121 
L 56.215513 97.652786 
L 57.185707 97.952206 
L 57.670804 97.789919 
L 58.155901 97.282999 
L 58.640998 97.720718 
L 59.126094 97.280082 
L 59.611191 97.462573 
L 60.096288 97.010639 
L 61.066482 96.668045 
L 61.551579 96.375999 
L 62.521773 96.289068 
L 63.006869 96.616731 
L 63.491966 96.423079 
L 63.977063 95.940227 
L 64.947257 95.628282 
L 65.432354 95.761549 
L 66.402548 95.235295 
L 70.768419 93.993632 
L 71.253516 93.753152 
L 71.738613 93.81107 
L 72.708807 93.177991 
L 73.193904 93.035027 
L 74.164097 93.043739 
L 74.649194 92.747779 
L 75.134291 92.706109 
L 75.619388 92.35599 
L 76.104485 92.395027 
L 77.074679 92.122016 
L 79.015066 91.326126 
L 79.98526 91.352419 
L 80.955454 90.956134 
L 81.925647 90.753856 
L 82.410744 90.484622 
L 82.895841 90.551644 
L 83.380938 90.077747 
L 84.351132 90.037821 
L 85.321325 89.839731 
L 85.806422 89.543649 
L 86.291519 89.638698 
L 86.776616 89.380154 
L 87.74681 89.103254 
L 88.231907 89.200652 
L 88.717004 88.870453 
L 89.2021 88.757495 
L 89.687197 88.765149 
L 90.172294 88.541276 
L 90.657391 88.492617 
L 91.142488 88.331218 
L 91.627585 88.368015 
L 93.567972 87.923024 
L 94.538166 87.805274 
L 95.023263 87.466968 
L 96.96365 87.176476 
L 97.448747 86.979331 
L 97.933844 86.996021 
L 99.389135 86.683145 
L 99.874232 86.672779 
L 100.359328 86.417018 
L 102.299716 85.955049 
L 102.784813 86.086312 
L 103.26991 85.833534 
L 106.180491 85.315395 
L 108.120878 84.934095 
L 109.091072 84.793404 
L 109.576169 84.653415 
L 110.061266 84.659652 
L 111.03146 84.305321 
L 112.48675 84.235436 
L 112.971847 84.026886 
L 115.397331 83.705154 
L 115.882428 83.501006 
L 117.822816 83.327102 
L 118.79301 83.041221 
L 119.763203 82.922511 
L 121.218494 82.664024 
L 121.703591 82.664697 
L 122.188688 82.454269 
L 123.158881 82.364414 
L 123.643978 82.365935 
L 125.099269 82.057228 
L 125.584366 82.040308 
L 126.069463 81.867587 
L 129.465141 81.496207 
L 130.435334 81.270484 
L 131.405528 81.245547 
L 131.890625 81.045348 
L 134.801206 80.691273 
L 135.286303 80.50538 
L 135.7714 80.446825 
L 136.256497 80.508423 
L 136.741594 80.3265 
L 138.196884 80.221394 
L 138.681981 80.057878 
L 139.652175 79.982457 
L 141.592562 79.723891 
L 142.077659 79.774263 
L 142.562756 79.594103 
L 143.047853 79.549504 
L 143.53295 79.367881 
L 144.503144 79.275939 
L 152.264694 78.378176 
L 153.234887 78.305338 
L 155.660372 77.959057 
L 156.145469 77.973442 
L 156.630565 77.79039 
L 157.115662 77.837128 
L 157.600759 77.672533 
L 158.085856 77.745853 
L 160.026243 77.37207 
L 160.996437 77.30726 
L 165.847406 76.847064 
L 166.332503 76.614008 
L 167.302697 76.70932 
L 168.27289 76.48227 
L 171.183471 76.266504 
L 173.608956 75.94938 
L 175.064246 75.869445 
L 175.549343 75.715216 
L 177.489731 75.568849 
L 178.945021 75.301913 
L 179.430118 75.378816 
L 179.915215 75.324977 
L 180.400312 75.399657 
L 181.370506 75.153288 
L 190.587346 74.306015 
L 191.072443 74.174691 
L 191.55754 74.258802 
L 193.012831 73.945602 
L 193.497928 74.035921 
L 195.923412 73.775496 
L 196.893606 73.73239 
L 198.348896 73.56196 
L 198.833993 73.476518 
L 199.804187 73.57006 
L 200.774381 73.340331 
L 201.259477 73.368171 
L 201.744574 73.235099 
L 202.229671 73.305419 
L 206.595543 72.895138 
L 208.050834 72.759893 
L 209.021027 72.655237 
L 213.871996 72.279436 
L 214.357093 72.147781 
L 215.327287 72.172211 
L 216.29748 72.096783 
L 219.693159 71.821244 
L 220.663352 71.653533 
L 220.663352 71.653533 
" clip-path="url(#paf30f655c2)" style="fill: none; stroke: #55a868; stroke-width: 1.5; stroke-linecap: square"/>
    <defs>
     <path id="m753bb2d88b" d="M 0 3.5 
C 0.928211 3.5 1.81853 3.131218 2.474874 2.474874 
C 3.131218 1.81853 3.5 0.928211 3.5 0 
C 3.5 -0.928211 3.131218 -1.81853 2.474874 -2.474874 
C 1.81853 -3.131218 0.928211 -3.5 0 -3.5 
C -0.928211 -3.5 -1.81853 -3.131218 -2.474874 -2.474874 
C -3.131218 -1.81853 -3.5 -0.928211 -3.5 0 
C -3.5 0.928211 -3.131218 1.81853 -2.474874 2.474874 
C -1.81853 3.131218 -0.928211 3.5 0 3.5 
z
" style="stroke: #ffffff; stroke-width: 0.75"/>
    </defs>
    <g clip-path="url(#paf30f655c2)">
     <use xlink:href="#m753bb2d88b" x="43.117898" y="71.426062" style="fill: #55a868; stroke: #ffffff; stroke-width: 0.75"/>
     <use xlink:href="#m753bb2d88b" x="60.581385" y="96.852726" style="fill: #55a868; stroke: #ffffff; stroke-width: 0.75"/>
     <use xlink:href="#m753bb2d88b" x="78.044872" y="91.792285" style="fill: #55a868; stroke: #ffffff; stroke-width: 0.75"/>
     <use xlink:href="#m753bb2d88b" x="95.50836" y="87.39836" style="fill: #55a868; stroke: #ffffff; stroke-width: 0.75"/>
     <use xlink:href="#m753bb2d88b" x="112.971847" y="84.026886" style="fill: #55a868; stroke: #ffffff; stroke-width: 0.75"/>
     <use xlink:href="#m753bb2d88b" x="130.435334" y="81.270484" style="fill: #55a868; stroke: #ffffff; stroke-width: 0.75"/>
     <use xlink:href="#m753bb2d88b" x="147.898822" y="78.903815" style="fill: #55a868; stroke: #ffffff; stroke-width: 0.75"/>
     <use xlink:href="#m753bb2d88b" x="165.362309" y="76.842331" style="fill: #55a868; stroke: #ffffff; stroke-width: 0.75"/>
     <use xlink:href="#m753bb2d88b" x="182.825796" y="75.065026" style="fill: #55a868; stroke: #ffffff; stroke-width: 0.75"/>
     <use xlink:href="#m753bb2d88b" x="200.289284" y="73.413845" style="fill: #55a868; stroke: #ffffff; stroke-width: 0.75"/>
     <use xlink:href="#m753bb2d88b" x="217.752771" y="72.017528" style="fill: #55a868; stroke: #ffffff; stroke-width: 0.75"/>
    </g>
   </g>
   <g id="line2d_17">
    <path d="M 43.117898 71.508303 
L 43.602995 82.446553 
L 45.543382 94.516584 
L 46.028479 95.268347 
L 46.513576 97.773039 
L 46.998673 98.822639 
L 47.48377 99.133559 
L 47.968866 98.640138 
L 48.453963 99.278663 
L 48.93906 100.287068 
L 49.424157 100.542224 
L 49.909254 100.604332 
L 50.394351 101.388169 
L 50.879448 100.823465 
L 51.364545 100.787556 
L 51.849641 100.415795 
L 52.334738 100.72707 
L 52.819835 100.469968 
L 53.304932 100.542217 
L 54.275126 100.235196 
L 54.760223 100.747278 
L 55.245319 100.468684 
L 56.70061 100.295521 
L 57.185707 100.239059 
L 57.670804 100.057407 
L 58.155901 100.461228 
L 58.640998 100.007744 
L 59.126094 100.193504 
L 61.066482 99.32074 
L 61.551579 99.347936 
L 62.521773 99.090032 
L 63.006869 98.711343 
L 63.491966 99.21372 
L 63.977063 98.756262 
L 65.917451 98.303882 
L 66.402548 97.949019 
L 66.887644 97.991661 
L 67.372741 97.717462 
L 67.857838 97.681885 
L 68.342935 97.781028 
L 68.828032 97.358315 
L 69.798226 97.384048 
L 70.283322 96.95439 
L 70.768419 96.97236 
L 71.253516 96.87475 
L 71.738613 96.603628 
L 72.22371 96.571385 
L 72.708807 96.679847 
L 73.193904 96.659107 
L 73.679001 96.31102 
L 74.164097 96.154241 
L 74.649194 95.744913 
L 75.134291 95.912296 
L 75.619388 95.863277 
L 76.104485 95.594 
L 76.589582 95.641961 
L 77.074679 95.267398 
L 77.559776 95.263776 
L 78.044872 95.088882 
L 78.529969 95.124236 
L 79.015066 94.789624 
L 79.500163 94.751122 
L 79.98526 94.55933 
L 80.470357 94.62596 
L 80.955454 94.473194 
L 81.44055 94.199158 
L 81.925647 94.228811 
L 82.410744 94.063215 
L 82.895841 94.074635 
L 83.380938 93.659808 
L 83.866035 93.765698 
L 84.351132 93.472562 
L 85.806422 93.356608 
L 86.291519 93.101146 
L 87.74681 92.828149 
L 88.231907 92.660471 
L 89.2021 92.568591 
L 89.687197 92.342908 
L 91.627585 92.064523 
L 92.112682 91.889133 
L 92.597779 91.840006 
L 93.082875 91.634826 
L 93.567972 91.605967 
L 94.538166 91.312928 
L 95.50836 91.205481 
L 95.993457 90.977349 
L 96.478553 90.994153 
L 97.448747 90.716168 
L 98.418941 90.713877 
L 98.904038 90.524124 
L 99.389135 90.5107 
L 99.874232 90.332504 
L 100.844425 90.286834 
L 101.329522 89.971012 
L 101.814619 90.077884 
L 102.784813 89.797787 
L 105.210297 89.338386 
L 105.695394 89.162161 
L 106.180491 89.24761 
L 106.665588 89.172517 
L 107.150685 88.855436 
L 108.120878 88.830981 
L 109.576169 88.433692 
L 110.061266 88.622121 
L 112.001653 88.171068 
L 113.942041 87.875684 
L 114.427138 87.809026 
L 114.912235 87.62733 
L 118.307913 87.217121 
L 118.79301 87.063532 
L 119.278106 87.059935 
L 119.763203 86.900634 
L 120.2483 86.861593 
L 120.733397 86.68189 
L 123.158881 86.487774 
L 123.643978 86.265997 
L 124.614172 86.112167 
L 125.099269 85.942949 
L 125.584366 86.138676 
L 126.554559 85.876945 
L 127.524753 85.828926 
L 128.00985 85.821114 
L 128.494947 85.580604 
L 128.980044 85.647522 
L 129.950238 85.374694 
L 131.890625 85.204016 
L 134.316109 84.948382 
L 134.801206 84.775261 
L 136.741594 84.596263 
L 137.226691 84.44121 
L 138.196884 84.360102 
L 138.681981 84.280089 
L 139.167078 84.367447 
L 139.652175 84.146984 
L 142.562756 83.857082 
L 143.53295 83.67226 
L 144.98824 83.390095 
L 145.473337 83.489892 
L 145.958434 83.455836 
L 146.443531 83.279518 
L 146.928628 83.27705 
L 147.413725 83.154657 
L 148.383919 83.16825 
L 148.869015 82.974307 
L 150.324306 82.867158 
L 151.2945 82.682998 
L 154.205081 82.436838 
L 154.690178 82.215821 
L 156.145469 82.17492 
L 157.115662 82.02878 
L 157.600759 82.10915 
L 160.996437 81.610909 
L 162.936825 81.382845 
L 170.213278 80.722426 
L 171.183471 80.536954 
L 176.03444 80.071934 
L 176.519537 79.963008 
L 177.489731 80.011466 
L 178.459925 79.831627 
L 180.400312 79.664243 
L 180.885409 79.694731 
L 181.370506 79.503492 
L 182.825796 79.452204 
L 183.310893 79.291118 
L 183.79599 79.391103 
L 184.766184 79.186991 
L 185.251281 79.220942 
L 186.221474 79.133342 
L 188.646959 78.82534 
L 193.012831 78.445072 
L 193.497928 78.30632 
L 194.468121 78.332822 
L 211.446512 76.900011 
L 211.931609 76.924557 
L 212.416705 76.781981 
L 212.901802 76.822548 
L 214.84219 76.600512 
L 217.267674 76.494967 
L 218.722965 76.317602 
L 220.663352 76.097786 
L 220.663352 76.097786 
" clip-path="url(#paf30f655c2)" style="fill: none; stroke-dasharray: 6,2.25; stroke-dashoffset: 0; stroke: #55a868; stroke-width: 1.5"/>
    <defs>
     <path id="mf41c69729f" d="M -1.75 3.5 
L 0 1.75 
L 1.75 3.5 
L 3.5 1.75 
L 1.75 0 
L 3.5 -1.75 
L 1.75 -3.5 
L 0 -1.75 
L -1.75 -3.5 
L -3.5 -1.75 
L -1.75 0 
L -3.5 1.75 
z
" style="stroke: #ffffff; stroke-width: 0.75; stroke-linejoin: miter"/>
    </defs>
    <g clip-path="url(#paf30f655c2)">
     <use xlink:href="#mf41c69729f" x="43.117898" y="71.508303" style="fill: #55a868; stroke: #ffffff; stroke-width: 0.75; stroke-linejoin: miter"/>
     <use xlink:href="#mf41c69729f" x="60.581385" y="99.635324" style="fill: #55a868; stroke: #ffffff; stroke-width: 0.75; stroke-linejoin: miter"/>
     <use xlink:href="#mf41c69729f" x="78.044872" y="95.088882" style="fill: #55a868; stroke: #ffffff; stroke-width: 0.75; stroke-linejoin: miter"/>
     <use xlink:href="#mf41c69729f" x="95.50836" y="91.205481" style="fill: #55a868; stroke: #ffffff; stroke-width: 0.75; stroke-linejoin: miter"/>
     <use xlink:href="#mf41c69729f" x="112.971847" y="88.109154" style="fill: #55a868; stroke: #ffffff; stroke-width: 0.75; stroke-linejoin: miter"/>
     <use xlink:href="#mf41c69729f" x="130.435334" y="85.352735" style="fill: #55a868; stroke: #ffffff; stroke-width: 0.75; stroke-linejoin: miter"/>
     <use xlink:href="#mf41c69729f" x="147.898822" y="83.171577" style="fill: #55a868; stroke: #ffffff; stroke-width: 0.75; stroke-linejoin: miter"/>
     <use xlink:href="#mf41c69729f" x="165.362309" y="81.173925" style="fill: #55a868; stroke: #ffffff; stroke-width: 0.75; stroke-linejoin: miter"/>
     <use xlink:href="#mf41c69729f" x="182.825796" y="79.452204" style="fill: #55a868; stroke: #ffffff; stroke-width: 0.75; stroke-linejoin: miter"/>
     <use xlink:href="#mf41c69729f" x="200.289284" y="77.862631" style="fill: #55a868; stroke: #ffffff; stroke-width: 0.75; stroke-linejoin: miter"/>
     <use xlink:href="#mf41c69729f" x="217.752771" y="76.400224" style="fill: #55a868; stroke: #ffffff; stroke-width: 0.75; stroke-linejoin: miter"/>
    </g>
   </g>
   <g id="line2d_18">
    <path d="M 43.117898 72.45711 
L 43.602995 82.923514 
L 44.573188 94.359621 
L 45.058285 95.584507 
L 45.543382 99.293655 
L 46.028479 99.882765 
L 46.513576 103.392199 
L 47.968866 106.234541 
L 48.93906 111.498405 
L 49.424157 110.790681 
L 49.909254 111.573342 
L 50.394351 113.974053 
L 50.879448 111.502049 
L 51.849641 117.116987 
L 52.334738 116.030492 
L 52.819835 116.62392 
L 53.304932 117.448691 
L 53.790029 117.517761 
L 54.275126 119.495773 
L 54.760223 118.553008 
L 55.245319 119.583016 
L 55.730416 120.191899 
L 56.215513 119.239579 
L 56.70061 121.785063 
L 57.185707 121.360408 
L 57.670804 122.682031 
L 58.155901 122.534951 
L 58.640998 122.903467 
L 59.126094 123.506066 
L 59.611191 122.147467 
L 60.096288 124.334824 
L 60.581385 125.209429 
L 61.066482 124.403191 
L 61.551579 125.11956 
L 62.036676 124.741266 
L 62.521773 125.135982 
L 63.006869 126.532084 
L 63.491966 126.638514 
L 64.46216 127.49707 
L 64.947257 126.33483 
L 65.432354 127.428121 
L 66.887644 128.312957 
L 67.372741 126.802151 
L 67.857838 128.924406 
L 68.342935 129.09095 
L 68.828032 129.628994 
L 69.313129 128.467209 
L 70.283322 129.98355 
L 70.768419 130.374645 
L 71.253516 129.867809 
L 71.738613 130.918752 
L 72.708807 130.695687 
L 73.193904 131.73884 
L 73.679001 130.930301 
L 74.164097 130.647683 
L 74.649194 130.78378 
L 75.134291 132.421309 
L 76.104485 130.749971 
L 76.589582 131.498933 
L 78.044872 132.946712 
L 78.529969 132.485088 
L 79.015066 131.579806 
L 79.500163 132.124277 
L 79.98526 132.857436 
L 80.470357 132.425274 
L 80.955454 133.395834 
L 81.44055 133.472959 
L 82.410744 133.902333 
L 82.895841 133.066475 
L 83.380938 133.466816 
L 83.866035 134.039705 
L 84.351132 134.319835 
L 84.836229 134.38321 
L 85.321325 134.983587 
L 85.806422 134.52816 
L 86.291519 134.403589 
L 86.776616 134.666095 
L 87.261713 134.199169 
L 87.74681 134.431977 
L 88.231907 135.832511 
L 88.717004 134.925169 
L 89.2021 134.666475 
L 89.687197 134.270103 
L 90.172294 134.814298 
L 90.657391 135.050228 
L 91.142488 134.521148 
L 91.627585 134.828823 
L 92.597779 135.750712 
L 93.082875 134.595632 
L 93.567972 135.576076 
L 94.053069 135.135006 
L 95.023263 136.428672 
L 95.50836 136.173007 
L 95.993457 135.251849 
L 96.478553 135.817141 
L 96.96365 136.045777 
L 97.448747 135.177534 
L 97.933844 135.8633 
L 98.904038 136.050682 
L 99.389135 135.971612 
L 100.359328 136.292186 
L 100.844425 135.947256 
L 101.329522 136.35054 
L 101.814619 135.399566 
L 102.299716 135.589769 
L 102.784813 136.204367 
L 103.26991 136.58598 
L 103.755007 137.180412 
L 104.240103 136.435914 
L 104.7252 136.60106 
L 105.210297 136.942579 
L 105.695394 137.042186 
L 106.180491 136.191621 
L 106.665588 136.790322 
L 107.150685 136.574817 
L 108.120878 136.476202 
L 108.605975 137.308798 
L 109.091072 136.167252 
L 109.576169 136.308718 
L 110.061266 137.091492 
L 110.546363 136.239786 
L 111.03146 136.812014 
L 111.516556 137.030838 
L 112.001653 137.495269 
L 112.48675 137.365993 
L 112.971847 137.502115 
L 113.456944 136.528917 
L 113.942041 137.523446 
L 114.427138 137.317546 
L 114.912235 136.640949 
L 115.397331 136.75569 
L 115.882428 137.040351 
L 116.367525 137.568559 
L 116.852622 137.588963 
L 117.337719 137.462625 
L 117.822816 137.139834 
L 118.307913 137.387713 
L 118.79301 137.043402 
L 119.278106 137.619105 
L 119.763203 137.16291 
L 120.2483 137.161525 
L 120.733397 137.61655 
L 121.218494 137.090379 
L 121.703591 137.414001 
L 122.188688 137.020422 
L 122.673784 136.905417 
L 123.158881 137.110781 
L 123.643978 137.693289 
L 124.129075 137.548122 
L 124.614172 137.62036 
L 125.099269 137.129214 
L 125.584366 137.702055 
L 126.069463 137.441433 
L 127.039656 137.650088 
L 127.524753 136.878559 
L 128.00985 136.957815 
L 128.980044 138.04907 
L 129.950238 137.340859 
L 130.435334 136.922256 
L 130.920431 137.289455 
L 131.405528 137.143365 
L 131.890625 137.749571 
L 132.375722 137.110076 
L 132.860819 137.421978 
L 133.345916 137.514849 
L 133.831012 137.806021 
L 134.316109 137.791557 
L 134.801206 137.340151 
L 135.7714 137.615871 
L 136.256497 137.226786 
L 136.741594 137.056106 
L 137.226691 137.266257 
L 137.711787 137.794915 
L 138.196884 137.711135 
L 138.681981 137.353135 
L 139.167078 137.675594 
L 139.652175 137.657999 
L 140.137272 137.263849 
L 140.622369 137.198602 
L 141.107466 137.840637 
L 141.592562 138.068292 
L 142.077659 138.089153 
L 142.562756 137.684944 
L 143.53295 137.867606 
L 144.018047 138.18689 
L 144.503144 137.639088 
L 144.98824 137.739387 
L 145.473337 138.199532 
L 145.958434 137.644963 
L 146.443531 137.621224 
L 146.928628 137.947706 
L 147.413725 137.478559 
L 147.898822 137.300464 
L 148.383919 137.815539 
L 148.869015 137.498065 
L 149.354112 138.250549 
L 149.839209 138.220728 
L 150.809403 137.752369 
L 151.2945 138.046456 
L 151.779597 137.267375 
L 152.264694 137.477321 
L 152.74979 137.43718 
L 153.234887 138.065596 
L 153.719984 138.050052 
L 154.205081 137.911129 
L 154.690178 138.312094 
L 155.175275 137.927976 
L 155.660372 138.231035 
L 156.145469 137.845212 
L 156.630565 137.860891 
L 157.115662 137.521767 
L 157.600759 137.570936 
L 158.085856 137.979515 
L 159.05605 137.581735 
L 159.541147 138.166812 
L 160.51134 138.198914 
L 160.996437 137.769615 
L 161.481534 137.8491 
L 161.966631 137.592789 
L 162.451728 138.006112 
L 162.936825 137.17676 
L 163.421922 137.959047 
L 163.907018 138.105539 
L 164.392115 137.920878 
L 164.877212 138.003191 
L 165.362309 137.59998 
L 165.847406 137.530379 
L 166.332503 137.66472 
L 166.8176 137.963536 
L 167.302697 138.096972 
L 167.787793 137.618488 
L 168.27289 137.787479 
L 168.757987 137.70809 
L 169.243084 137.805738 
L 169.728181 137.786151 
L 170.213278 138.129842 
L 170.698375 138.300609 
L 171.183471 137.662192 
L 172.153665 137.436593 
L 172.638762 138.104209 
L 173.123859 137.803899 
L 173.608956 137.165666 
L 174.57915 137.779939 
L 175.064246 137.444165 
L 175.549343 137.965822 
L 176.03444 138.264749 
L 176.519537 138.185206 
L 177.004634 137.444799 
L 177.489731 137.452444 
L 177.974828 137.819718 
L 178.459925 137.141491 
L 178.945021 137.80697 
L 179.430118 137.671781 
L 179.915215 138.01342 
L 180.400312 137.592932 
L 180.885409 137.773012 
L 181.370506 137.617289 
L 181.855603 137.585349 
L 182.3407 137.286409 
L 182.825796 137.80809 
L 183.310893 137.951546 
L 183.79599 137.543962 
L 184.766184 137.900755 
L 185.251281 137.923268 
L 185.736378 137.570332 
L 188.646959 138.017153 
L 189.132056 137.68497 
L 189.617153 137.73026 
L 190.102249 137.594093 
L 190.587346 137.885859 
L 192.042637 137.681037 
L 192.527734 137.38102 
L 193.012831 137.847404 
L 193.497928 137.980963 
L 193.983024 137.503999 
L 194.468121 137.382256 
L 194.953218 137.410291 
L 195.438315 138.168553 
L 195.923412 137.338655 
L 196.408509 137.613468 
L 196.893606 137.745171 
L 197.378702 137.132829 
L 198.348896 137.518152 
L 198.833993 137.390362 
L 199.31909 137.498305 
L 199.804187 137.329862 
L 200.774381 137.982863 
L 201.259477 137.617604 
L 203.684962 137.648317 
L 204.170059 137.817215 
L 204.655156 137.548702 
L 205.625349 137.41286 
L 206.595543 137.632667 
L 207.08064 137.653649 
L 207.565737 137.517997 
L 208.050834 137.245835 
L 208.535931 137.477816 
L 209.021027 137.08143 
L 209.506124 137.671053 
L 209.991221 137.463287 
L 210.476318 137.680368 
L 210.961415 137.350016 
L 211.446512 137.475962 
L 211.931609 137.769058 
L 212.416705 137.559126 
L 213.386899 137.579828 
L 213.871996 137.610927 
L 214.357093 137.294374 
L 214.84219 137.691356 
L 215.327287 137.746508 
L 215.812384 137.365805 
L 216.29748 137.334274 
L 216.782577 137.869711 
L 217.267674 137.659719 
L 217.752771 137.657987 
L 218.237868 137.026505 
L 218.722965 137.540432 
L 219.693159 137.283528 
L 220.178255 137.630531 
L 220.663352 137.290135 
L 220.663352 137.290135 
" clip-path="url(#paf30f655c2)" style="fill: none; stroke-dasharray: 1.5,1.5; stroke-dashoffset: 0; stroke: #55a868; stroke-width: 1.5"/>
    <defs>
     <path id="mc2cfbf5428" d="M -2.474874 -2.474874 
L -2.474874 2.474874 
L 2.474874 2.474874 
L 2.474874 -2.474874 
z
" style="stroke: #ffffff; stroke-width: 0.75; stroke-linejoin: miter"/>
    </defs>
    <g clip-path="url(#paf30f655c2)">
     <use xlink:href="#mc2cfbf5428" x="43.117898" y="72.45711" style="fill: #55a868; stroke: #ffffff; stroke-width: 0.75; stroke-linejoin: miter"/>
     <use xlink:href="#mc2cfbf5428" x="60.581385" y="125.209429" style="fill: #55a868; stroke: #ffffff; stroke-width: 0.75; stroke-linejoin: miter"/>
     <use xlink:href="#mc2cfbf5428" x="78.044872" y="132.946712" style="fill: #55a868; stroke: #ffffff; stroke-width: 0.75; stroke-linejoin: miter"/>
     <use xlink:href="#mc2cfbf5428" x="95.50836" y="136.173007" style="fill: #55a868; stroke: #ffffff; stroke-width: 0.75; stroke-linejoin: miter"/>
     <use xlink:href="#mc2cfbf5428" x="112.971847" y="137.502115" style="fill: #55a868; stroke: #ffffff; stroke-width: 0.75; stroke-linejoin: miter"/>
     <use xlink:href="#mc2cfbf5428" x="130.435334" y="136.922256" style="fill: #55a868; stroke: #ffffff; stroke-width: 0.75; stroke-linejoin: miter"/>
     <use xlink:href="#mc2cfbf5428" x="147.898822" y="137.300464" style="fill: #55a868; stroke: #ffffff; stroke-width: 0.75; stroke-linejoin: miter"/>
     <use xlink:href="#mc2cfbf5428" x="165.362309" y="137.59998" style="fill: #55a868; stroke: #ffffff; stroke-width: 0.75; stroke-linejoin: miter"/>
     <use xlink:href="#mc2cfbf5428" x="182.825796" y="137.80809" style="fill: #55a868; stroke: #ffffff; stroke-width: 0.75; stroke-linejoin: miter"/>
     <use xlink:href="#mc2cfbf5428" x="200.289284" y="137.599833" style="fill: #55a868; stroke: #ffffff; stroke-width: 0.75; stroke-linejoin: miter"/>
     <use xlink:href="#mc2cfbf5428" x="217.752771" y="137.657987" style="fill: #55a868; stroke: #ffffff; stroke-width: 0.75; stroke-linejoin: miter"/>
    </g>
   </g>
   <g id="line2d_19"/>
   <g id="line2d_20"/>
   <g id="line2d_21"/>
   <g id="line2d_22"/>
   <g id="line2d_23"/>
   <g id="line2d_24"/>
   <g id="line2d_25"/>
   <g id="line2d_26"/>
   <g id="line2d_27">
    <path d="M 43.117898 13.5 
L 43.602995 23.718384 
L 44.088091 29.559607 
L 44.573188 33.629521 
L 45.543382 39.175584 
L 46.513576 42.914457 
L 47.48377 45.66278 
L 48.453963 47.780614 
L 49.424157 49.463411 
L 50.879448 51.417492 
L 52.334738 52.883911 
L 53.790029 54.003509 
L 55.245319 54.865589 
L 57.185707 55.716161 
L 59.126094 56.312863 
L 61.551579 56.797901 
L 64.46216 57.108127 
L 67.857838 57.213112 
L 71.738613 57.10957 
L 77.074679 56.726592 
L 84.351132 55.963186 
L 97.933844 54.266678 
L 124.614172 50.939501 
L 143.53295 48.822401 
L 162.936825 46.877344 
L 183.310893 45.064881 
L 203.684962 43.474734 
L 216.782577 42.634318 
L 220.178255 42.573576 
L 220.663352 42.650859 
L 220.663352 42.650859 
" clip-path="url(#paf30f655c2)" style="fill: none; stroke: #64b5cd; stroke-width: 1.5; stroke-linecap: square"/>
   </g>
   <g id="patch_3">
    <path d="M 34.240625 145.8 
L 34.240625 7.2 
" style="fill: none; stroke: #000000; stroke-width: 0.8; stroke-linejoin: miter; stroke-linecap: square"/>
   </g>
   <g id="patch_4">
    <path d="M 229.540625 145.8 
L 229.540625 7.2 
" style="fill: none; stroke: #000000; stroke-width: 0.8; stroke-linejoin: miter; stroke-linecap: square"/>
   </g>
   <g id="patch_5">
    <path d="M 34.240625 145.8 
L 229.540625 145.8 
" style="fill: none; stroke: #000000; stroke-width: 0.8; stroke-linejoin: miter; stroke-linecap: square"/>
   </g>
   <g id="patch_6">
    <path d="M 34.240625 7.2 
L 229.540625 7.2 
" style="fill: none; stroke: #000000; stroke-width: 0.8; stroke-linejoin: miter; stroke-linecap: square"/>
   </g>
   <g id="legend_1">
    <g id="patch_7">
     <path d="M 39.140625 43.624063 
L 120.568125 43.624063 
Q 121.968125 43.624063 121.968125 42.224063 
L 121.968125 12.1 
Q 121.968125 10.7 120.568125 10.7 
L 39.140625 10.7 
Q 37.740625 10.7 37.740625 12.1 
L 37.740625 42.224063 
Q 37.740625 43.624063 39.140625 43.624063 
z
" style="fill: #ffffff; opacity: 0.8; stroke: #cccccc; stroke-linejoin: miter"/>
    </g>
    <g id="line2d_28">
     <path d="M 40.540625 16.368906 
L 47.540625 16.368906 
L 54.540625 16.368906 
" style="fill: none; stroke: #4c72b0; stroke-width: 1.5; stroke-linecap: square"/>
    </g>
    <g id="text_12">
     <!-- MMSE -->
     <g transform="translate(60.140625 18.818906) scale(0.07 -0.07)">
      <use xlink:href="#DejaVuSans-4d"/>
      <use xlink:href="#DejaVuSans-4d" x="86.279297"/>
      <use xlink:href="#DejaVuSans-53" x="172.558594"/>
      <use xlink:href="#DejaVuSans-45" x="236.035156"/>
     </g>
    </g>
    <g id="line2d_29">
     <path d="M 40.540625 26.643594 
L 47.540625 26.643594 
L 54.540625 26.643594 
" style="fill: none; stroke: #dd8452; stroke-width: 1.5; stroke-linecap: square"/>
    </g>
    <g id="text_13">
     <!-- WMSE -->
     <g transform="translate(60.140625 29.093594) scale(0.07 -0.07)">
      <defs>
       <path id="DejaVuSans-57" d="M 213 4666 
L 850 4666 
L 1831 722 
L 2809 4666 
L 3519 4666 
L 4500 722 
L 5478 4666 
L 6119 4666 
L 4947 0 
L 4153 0 
L 3169 4050 
L 2175 0 
L 1381 0 
L 213 4666 
z
" transform="scale(0.015625)"/>
      </defs>
      <use xlink:href="#DejaVuSans-57"/>
      <use xlink:href="#DejaVuSans-4d" x="98.876953"/>
      <use xlink:href="#DejaVuSans-53" x="185.15625"/>
      <use xlink:href="#DejaVuSans-45" x="248.632812"/>
     </g>
    </g>
    <g id="line2d_30">
     <path d="M 40.540625 36.918281 
L 47.540625 36.918281 
L 54.540625 36.918281 
" style="fill: none; stroke: #55a868; stroke-width: 1.5; stroke-linecap: square"/>
    </g>
    <g id="text_14">
     <!-- Uniform Random -->
     <g transform="translate(60.140625 39.368281) scale(0.07 -0.07)">
      <defs>
       <path id="DejaVuSans-55" d="M 556 4666 
L 1191 4666 
L 1191 1831 
Q 1191 1081 1462 751 
Q 1734 422 2344 422 
Q 2950 422 3222 751 
Q 3494 1081 3494 1831 
L 3494 4666 
L 4128 4666 
L 4128 1753 
Q 4128 841 3676 375 
Q 3225 -91 2344 -91 
Q 1459 -91 1007 375 
Q 556 841 556 1753 
L 556 4666 
z
" transform="scale(0.015625)"/>
       <path id="DejaVuSans-6e" d="M 3513 2113 
L 3513 0 
L 2938 0 
L 2938 2094 
Q 2938 2591 2744 2837 
Q 2550 3084 2163 3084 
Q 1697 3084 1428 2787 
Q 1159 2491 1159 1978 
L 1159 0 
L 581 0 
L 581 3500 
L 1159 3500 
L 1159 2956 
Q 1366 3272 1645 3428 
Q 1925 3584 2291 3584 
Q 2894 3584 3203 3211 
Q 3513 2838 3513 2113 
z
" transform="scale(0.015625)"/>
       <path id="DejaVuSans-66" d="M 2375 4863 
L 2375 4384 
L 1825 4384 
Q 1516 4384 1395 4259 
Q 1275 4134 1275 3809 
L 1275 3500 
L 2222 3500 
L 2222 3053 
L 1275 3053 
L 1275 0 
L 697 0 
L 697 3053 
L 147 3053 
L 147 3500 
L 697 3500 
L 697 3744 
Q 697 4328 969 4595 
Q 1241 4863 1831 4863 
L 2375 4863 
z
" transform="scale(0.015625)"/>
       <path id="DejaVuSans-72" d="M 2631 2963 
Q 2534 3019 2420 3045 
Q 2306 3072 2169 3072 
Q 1681 3072 1420 2755 
Q 1159 2438 1159 1844 
L 1159 0 
L 581 0 
L 581 3500 
L 1159 3500 
L 1159 2956 
Q 1341 3275 1631 3429 
Q 1922 3584 2338 3584 
Q 2397 3584 2469 3576 
Q 2541 3569 2628 3553 
L 2631 2963 
z
" transform="scale(0.015625)"/>
       <path id="DejaVuSans-52" d="M 2841 2188 
Q 3044 2119 3236 1894 
Q 3428 1669 3622 1275 
L 4263 0 
L 3584 0 
L 2988 1197 
Q 2756 1666 2539 1819 
Q 2322 1972 1947 1972 
L 1259 1972 
L 1259 0 
L 628 0 
L 628 4666 
L 2053 4666 
Q 2853 4666 3247 4331 
Q 3641 3997 3641 3322 
Q 3641 2881 3436 2590 
Q 3231 2300 2841 2188 
z
M 1259 4147 
L 1259 2491 
L 2053 2491 
Q 2509 2491 2742 2702 
Q 2975 2913 2975 3322 
Q 2975 3731 2742 3939 
Q 2509 4147 2053 4147 
L 1259 4147 
z
" transform="scale(0.015625)"/>
       <path id="DejaVuSans-64" d="M 2906 2969 
L 2906 4863 
L 3481 4863 
L 3481 0 
L 2906 0 
L 2906 525 
Q 2725 213 2448 61 
Q 2172 -91 1784 -91 
Q 1150 -91 751 415 
Q 353 922 353 1747 
Q 353 2572 751 3078 
Q 1150 3584 1784 3584 
Q 2172 3584 2448 3432 
Q 2725 3281 2906 2969 
z
M 947 1747 
Q 947 1113 1208 752 
Q 1469 391 1925 391 
Q 2381 391 2643 752 
Q 2906 1113 2906 1747 
Q 2906 2381 2643 2742 
Q 2381 3103 1925 3103 
Q 1469 3103 1208 2742 
Q 947 2381 947 1747 
z
" transform="scale(0.015625)"/>
      </defs>
      <use xlink:href="#DejaVuSans-55"/>
      <use xlink:href="#DejaVuSans-6e" x="73.193359"/>
      <use xlink:href="#DejaVuSans-69" x="136.572266"/>
      <use xlink:href="#DejaVuSans-66" x="164.355469"/>
      <use xlink:href="#DejaVuSans-6f" x="199.560547"/>
      <use xlink:href="#DejaVuSans-72" x="260.742188"/>
      <use xlink:href="#DejaVuSans-6d" x="300.105469"/>
      <use xlink:href="#DejaVuSans-20" x="397.517578"/>
      <use xlink:href="#DejaVuSans-52" x="429.304688"/>
      <use xlink:href="#DejaVuSans-61" x="496.537109"/>
      <use xlink:href="#DejaVuSans-6e" x="557.816406"/>
      <use xlink:href="#DejaVuSans-64" x="621.195312"/>
      <use xlink:href="#DejaVuSans-6f" x="684.671875"/>
      <use xlink:href="#DejaVuSans-6d" x="745.853516"/>
     </g>
    </g>
   </g>
   <g id="legend_2">
    <g id="patch_8">
     <path d="M 177.747188 53.89875 
L 224.640625 53.89875 
Q 226.040625 53.89875 226.040625 52.49875 
L 226.040625 12.1 
Q 226.040625 10.7 224.640625 10.7 
L 177.747188 10.7 
Q 176.347188 10.7 176.347188 12.1 
L 176.347188 52.49875 
Q 176.347188 53.89875 177.747188 53.89875 
z
" style="fill: #ffffff; opacity: 0.8; stroke: #cccccc; stroke-linejoin: miter"/>
    </g>
    <g id="line2d_31">
     <path d="M 179.147188 16.368906 
L 186.147188 16.368906 
L 193.147188 16.368906 
" style="fill: none"/>
    </g>
    <g id="text_15">
     <!--  -->
     <g transform="translate(198.747188 18.818906) scale(0.07 -0.07)">
      <defs>
       <path id="DejaVuSans-3bc" d="M 544 -1331 
L 544 3500 
L 1119 3500 
L 1119 1325 
Q 1119 872 1334 640 
Q 1550 409 1972 409 
Q 2434 409 2667 671 
Q 2900 934 2900 1459 
L 2900 3500 
L 3475 3500 
L 3475 806 
Q 3475 619 3529 530 
Q 3584 441 3700 441 
Q 3728 441 3778 458 
Q 3828 475 3916 513 
L 3916 50 
Q 3788 -22 3673 -56 
Q 3559 -91 3450 -91 
Q 3234 -91 3106 31 
Q 2978 153 2931 403 
Q 2775 156 2548 32 
Q 2322 -91 2016 -91 
Q 1697 -91 1473 31 
Q 1250 153 1119 397 
L 1119 -1331 
L 544 -1331 
z
" transform="scale(0.015625)"/>
      </defs>
      <use xlink:href="#DejaVuSans-3bc"/>
     </g>
    </g>
    <g id="line2d_32">
     <path d="M 179.147188 26.643594 
L 186.147188 26.643594 
L 193.147188 26.643594 
" style="fill: none; stroke: #333333; stroke-width: 1.5; stroke-linecap: square"/>
     <defs>
      <path id="m38bac1c782" d="M 0 3.5 
C 0.928211 3.5 1.81853 3.131218 2.474874 2.474874 
C 3.131218 1.81853 3.5 0.928211 3.5 0 
C 3.5 -0.928211 3.131218 -1.81853 2.474874 -2.474874 
C 1.81853 -3.131218 0.928211 -3.5 0 -3.5 
C -0.928211 -3.5 -1.81853 -3.131218 -2.474874 -2.474874 
C -3.131218 -1.81853 -3.5 -0.928211 -3.5 0 
C -3.5 0.928211 -3.131218 1.81853 -2.474874 2.474874 
C -1.81853 3.131218 -0.928211 3.5 0 3.5 
z
" style="stroke: #ffffff; stroke-width: 0.75"/>
     </defs>
     <g>
      <use xlink:href="#m38bac1c782" x="186.147188" y="26.643594" style="fill: #333333; stroke: #ffffff; stroke-width: 0.75"/>
     </g>
    </g>
    <g id="text_16">
     <!-- 0.0001 -->
     <g transform="translate(198.747188 29.093594) scale(0.07 -0.07)">
      <defs>
       <path id="DejaVuSans-2e" d="M 684 794 
L 1344 794 
L 1344 0 
L 684 0 
L 684 794 
z
" transform="scale(0.015625)"/>
      </defs>
      <use xlink:href="#DejaVuSans-30"/>
      <use xlink:href="#DejaVuSans-2e" x="63.623047"/>
      <use xlink:href="#DejaVuSans-30" x="95.410156"/>
      <use xlink:href="#DejaVuSans-30" x="159.033203"/>
      <use xlink:href="#DejaVuSans-30" x="222.65625"/>
      <use xlink:href="#DejaVuSans-31" x="286.279297"/>
     </g>
    </g>
    <g id="line2d_33">
     <path d="M 179.147188 36.918281 
L 186.147188 36.918281 
L 193.147188 36.918281 
" style="fill: none; stroke-dasharray: 6,2.25; stroke-dashoffset: 0; stroke: #333333; stroke-width: 1.5"/>
     <defs>
      <path id="m261ef7beaa" d="M -1.75 3.5 
L 0 1.75 
L 1.75 3.5 
L 3.5 1.75 
L 1.75 0 
L 3.5 -1.75 
L 1.75 -3.5 
L 0 -1.75 
L -1.75 -3.5 
L -3.5 -1.75 
L -1.75 0 
L -3.5 1.75 
z
" style="stroke: #ffffff; stroke-width: 0.75; stroke-linejoin: miter"/>
     </defs>
     <g>
      <use xlink:href="#m261ef7beaa" x="186.147188" y="36.918281" style="fill: #333333; stroke: #ffffff; stroke-width: 0.75; stroke-linejoin: miter"/>
     </g>
    </g>
    <g id="text_17">
     <!-- 0.01 -->
     <g transform="translate(198.747188 39.368281) scale(0.07 -0.07)">
      <use xlink:href="#DejaVuSans-30"/>
      <use xlink:href="#DejaVuSans-2e" x="63.623047"/>
      <use xlink:href="#DejaVuSans-30" x="95.410156"/>
      <use xlink:href="#DejaVuSans-31" x="159.033203"/>
     </g>
    </g>
    <g id="line2d_34">
     <path d="M 179.147188 47.192969 
L 186.147188 47.192969 
L 193.147188 47.192969 
" style="fill: none; stroke-dasharray: 1.5,1.5; stroke-dashoffset: 0; stroke: #333333; stroke-width: 1.5"/>
     <defs>
      <path id="m115a839e01" d="M -2.474874 -2.474874 
L -2.474874 2.474874 
L 2.474874 2.474874 
L 2.474874 -2.474874 
z
" style="stroke: #ffffff; stroke-width: 0.75; stroke-linejoin: miter"/>
     </defs>
     <g>
      <use xlink:href="#m115a839e01" x="186.147188" y="47.192969" style="fill: #333333; stroke: #ffffff; stroke-width: 0.75; stroke-linejoin: miter"/>
     </g>
    </g>
    <g id="text_18">
     <!-- 1.0 -->
     <g transform="translate(198.747188 49.642969) scale(0.07 -0.07)">
      <use xlink:href="#DejaVuSans-31"/>
      <use xlink:href="#DejaVuSans-2e" x="63.623047"/>
      <use xlink:href="#DejaVuSans-30" x="95.410156"/>
     </g>
    </g>
   </g>
  </g>
 </g>
 <defs>
  <clipPath id="paf30f655c2">
   <rect x="34.240625" y="7.2" width="195.3" height="138.6"/>
  </clipPath>
 </defs>
</svg>
