<?xml version="1.0" encoding="utf-8" standalone="no"?>
<!DOCTYPE svg PUBLIC "-//W3C//DTD SVG 1.1//EN"
  "http://www.w3.org/Graphics/SVG/1.1/DTD/svg11.dtd">
<svg xmlns:xlink="http://www.w3.org/1999/xlink" width="236.740625pt" height="183.35625pt" viewBox="0 0 236.740625 183.35625" xmlns="http://www.w3.org/2000/svg" version="1.1">
 <metadata>
  <rdf:RDF xmlns:dc="http://purl.org/dc/elements/1.1/" xmlns:cc="http://creativecommons.org/ns#" xmlns:rdf="http://www.w3.org/1999/02/22-rdf-syntax-ns#">
   <cc:Work>
    <dc:type rdf:resource="http://purl.org/dc/dcmitype/StillImage"/>
    <dc:date>1980-01-01T00:00:00+00:00</dc:date>
    <dc:format>image/svg+xml</dc:format>
    <dc:creator>
     <cc:Agent>
      <dc:title>Matplotlib v3.7.5, https://matplotlib.org/</dc:title>
     </cc:Agent>
    </dc:creator>
   </cc:Work>
  </rdf:RDF>
 </metadata>
 <defs>
  <style type="text/css">*{stroke-linejoin: round; stroke-linecap: butt}</style>
 </defs>
 <g id="figure_1">
  <g id="patch_1">
   <path d="M 0 183.35625 
L 236.740625 183.35625 
L 236.740625 0 
L 0 0 
z
" style="fill: #ffffff"/>
  </g>
  <g id="axes_1">
   <g id="patch_2">
    <path d="M 34.240625 145.8 
L 229.540625 145.8 
L 229.540625 7.2 
L 34.240625 7.2 
z
" style="fill: #ffffff"/>
   </g>
   <g id="PolyCollection_1"/>
   <g id="PolyCollection_2"/>
   <g id="PolyCollection_3"/>
   <g id="PolyCollection_4"/>
   <g id="PolyCollection_5"/>
   <g id="PolyCollection_6"/>
   <g id="PolyCollection_7"/>
   <g id="PolyCollection_8"/>
   <g id="PolyCollection_9"/>
   <g id="PolyCollection_10"/>
   <g id="matplotlib.axis_1">
    <g id="xtick_1">
     <g id="line2d_1">
      <defs>
       <path id="m00ec628dad" d="M 0 0 
L 0 3.5 
" style="stroke: #000000; stroke-width: 0.8"/>
      </defs>
      <g>
       <use xlink:href="#m00ec628dad" x="42.632801" y="145.8" style="stroke: #000000; stroke-width: 0.8"/>
      </g>
     </g>
     <g id="text_1">
      <!-- 0 -->
      <g transform="translate(39.451551 160.398438) scale(0.1 -0.1)">
       <defs>
        <path id="DejaVuSans-30" d="M 2034 4250 
Q 1547 4250 1301 3770 
Q 1056 3291 1056 2328 
Q 1056 1369 1301 889 
Q 1547 409 2034 409 
Q 2525 409 2770 889 
Q 3016 1369 3016 2328 
Q 3016 3291 2770 3770 
Q 2525 4250 2034 4250 
z
M 2034 4750 
Q 2819 4750 3233 4129 
Q 3647 3509 3647 2328 
Q 3647 1150 3233 529 
Q 2819 -91 2034 -91 
Q 1250 -91 836 529 
Q 422 1150 422 2328 
Q 422 3509 836 4129 
Q 1250 4750 2034 4750 
z
" transform="scale(0.015625)"/>
       </defs>
       <use xlink:href="#DejaVuSans-30"/>
      </g>
     </g>
    </g>
    <g id="xtick_2">
     <g id="line2d_2">
      <g>
       <use xlink:href="#m00ec628dad" x="91.142488" y="145.8" style="stroke: #000000; stroke-width: 0.8"/>
      </g>
     </g>
     <g id="text_2">
      <!-- 100 -->
      <g transform="translate(81.598738 160.398438) scale(0.1 -0.1)">
       <defs>
        <path id="DejaVuSans-31" d="M 794 531 
L 1825 531 
L 1825 4091 
L 703 3866 
L 703 4441 
L 1819 4666 
L 2450 4666 
L 2450 531 
L 3481 531 
L 3481 0 
L 794 0 
L 794 531 
z
" transform="scale(0.015625)"/>
       </defs>
       <use xlink:href="#DejaVuSans-31"/>
       <use xlink:href="#DejaVuSans-30" x="63.623047"/>
       <use xlink:href="#DejaVuSans-30" x="127.246094"/>
      </g>
     </g>
    </g>
    <g id="xtick_3">
     <g id="line2d_3">
      <g>
       <use xlink:href="#m00ec628dad" x="139.652175" y="145.8" style="stroke: #000000; stroke-width: 0.8"/>
      </g>
     </g>
     <g id="text_3">
      <!-- 200 -->
      <g transform="translate(130.108425 160.398438) scale(0.1 -0.1)">
       <defs>
        <path id="DejaVuSans-32" d="M 1228 531 
L 3431 531 
L 3431 0 
L 469 0 
L 469 531 
Q 828 903 1448 1529 
Q 2069 2156 2228 2338 
Q 2531 2678 2651 2914 
Q 2772 3150 2772 3378 
Q 2772 3750 2511 3984 
Q 2250 4219 1831 4219 
Q 1534 4219 1204 4116 
Q 875 4013 500 3803 
L 500 4441 
Q 881 4594 1212 4672 
Q 1544 4750 1819 4750 
Q 2544 4750 2975 4387 
Q 3406 4025 3406 3419 
Q 3406 3131 3298 2873 
Q 3191 2616 2906 2266 
Q 2828 2175 2409 1742 
Q 1991 1309 1228 531 
z
" transform="scale(0.015625)"/>
       </defs>
       <use xlink:href="#DejaVuSans-32"/>
       <use xlink:href="#DejaVuSans-30" x="63.623047"/>
       <use xlink:href="#DejaVuSans-30" x="127.246094"/>
      </g>
     </g>
    </g>
    <g id="xtick_4">
     <g id="line2d_4">
      <g>
       <use xlink:href="#m00ec628dad" x="188.161862" y="145.8" style="stroke: #000000; stroke-width: 0.8"/>
      </g>
     </g>
     <g id="text_4">
      <!-- 300 -->
      <g transform="translate(178.618112 160.398438) scale(0.1 -0.1)">
       <defs>
        <path id="DejaVuSans-33" d="M 2597 2516 
Q 3050 2419 3304 2112 
Q 3559 1806 3559 1356 
Q 3559 666 3084 287 
Q 2609 -91 1734 -91 
Q 1441 -91 1130 -33 
Q 819 25 488 141 
L 488 750 
Q 750 597 1062 519 
Q 1375 441 1716 441 
Q 2309 441 2620 675 
Q 2931 909 2931 1356 
Q 2931 1769 2642 2001 
Q 2353 2234 1838 2234 
L 1294 2234 
L 1294 2753 
L 1863 2753 
Q 2328 2753 2575 2939 
Q 2822 3125 2822 3475 
Q 2822 3834 2567 4026 
Q 2313 4219 1838 4219 
Q 1578 4219 1281 4162 
Q 984 4106 628 3988 
L 628 4550 
Q 988 4650 1302 4700 
Q 1616 4750 1894 4750 
Q 2613 4750 3031 4423 
Q 3450 4097 3450 3541 
Q 3450 3153 3228 2886 
Q 3006 2619 2597 2516 
z
" transform="scale(0.015625)"/>
       </defs>
       <use xlink:href="#DejaVuSans-33"/>
       <use xlink:href="#DejaVuSans-30" x="63.623047"/>
       <use xlink:href="#DejaVuSans-30" x="127.246094"/>
      </g>
     </g>
    </g>
    <g id="text_5">
     <!-- Sample Size -->
     <g transform="translate(101.289062 174.076563) scale(0.1 -0.1)">
      <defs>
       <path id="DejaVuSans-53" d="M 3425 4513 
L 3425 3897 
Q 3066 4069 2747 4153 
Q 2428 4238 2131 4238 
Q 1616 4238 1336 4038 
Q 1056 3838 1056 3469 
Q 1056 3159 1242 3001 
Q 1428 2844 1947 2747 
L 2328 2669 
Q 3034 2534 3370 2195 
Q 3706 1856 3706 1288 
Q 3706 609 3251 259 
Q 2797 -91 1919 -91 
Q 1588 -91 1214 -16 
Q 841 59 441 206 
L 441 856 
Q 825 641 1194 531 
Q 1563 422 1919 422 
Q 2459 422 2753 634 
Q 3047 847 3047 1241 
Q 3047 1584 2836 1778 
Q 2625 1972 2144 2069 
L 1759 2144 
Q 1053 2284 737 2584 
Q 422 2884 422 3419 
Q 422 4038 858 4394 
Q 1294 4750 2059 4750 
Q 2388 4750 2728 4690 
Q 3069 4631 3425 4513 
z
" transform="scale(0.015625)"/>
       <path id="DejaVuSans-61" d="M 2194 1759 
Q 1497 1759 1228 1600 
Q 959 1441 959 1056 
Q 959 750 1161 570 
Q 1363 391 1709 391 
Q 2188 391 2477 730 
Q 2766 1069 2766 1631 
L 2766 1759 
L 2194 1759 
z
M 3341 1997 
L 3341 0 
L 2766 0 
L 2766 531 
Q 2569 213 2275 61 
Q 1981 -91 1556 -91 
Q 1019 -91 701 211 
Q 384 513 384 1019 
Q 384 1609 779 1909 
Q 1175 2209 1959 2209 
L 2766 2209 
L 2766 2266 
Q 2766 2663 2505 2880 
Q 2244 3097 1772 3097 
Q 1472 3097 1187 3025 
Q 903 2953 641 2809 
L 641 3341 
Q 956 3463 1253 3523 
Q 1550 3584 1831 3584 
Q 2591 3584 2966 3190 
Q 3341 2797 3341 1997 
z
" transform="scale(0.015625)"/>
       <path id="DejaVuSans-6d" d="M 3328 2828 
Q 3544 3216 3844 3400 
Q 4144 3584 4550 3584 
Q 5097 3584 5394 3201 
Q 5691 2819 5691 2113 
L 5691 0 
L 5113 0 
L 5113 2094 
Q 5113 2597 4934 2840 
Q 4756 3084 4391 3084 
Q 3944 3084 3684 2787 
Q 3425 2491 3425 1978 
L 3425 0 
L 2847 0 
L 2847 2094 
Q 2847 2600 2669 2842 
Q 2491 3084 2119 3084 
Q 1678 3084 1418 2786 
Q 1159 2488 1159 1978 
L 1159 0 
L 581 0 
L 581 3500 
L 1159 3500 
L 1159 2956 
Q 1356 3278 1631 3431 
Q 1906 3584 2284 3584 
Q 2666 3584 2933 3390 
Q 3200 3197 3328 2828 
z
" transform="scale(0.015625)"/>
       <path id="DejaVuSans-70" d="M 1159 525 
L 1159 -1331 
L 581 -1331 
L 581 3500 
L 1159 3500 
L 1159 2969 
Q 1341 3281 1617 3432 
Q 1894 3584 2278 3584 
Q 2916 3584 3314 3078 
Q 3713 2572 3713 1747 
Q 3713 922 3314 415 
Q 2916 -91 2278 -91 
Q 1894 -91 1617 61 
Q 1341 213 1159 525 
z
M 3116 1747 
Q 3116 2381 2855 2742 
Q 2594 3103 2138 3103 
Q 1681 3103 1420 2742 
Q 1159 2381 1159 1747 
Q 1159 1113 1420 752 
Q 1681 391 2138 391 
Q 2594 391 2855 752 
Q 3116 1113 3116 1747 
z
" transform="scale(0.015625)"/>
       <path id="DejaVuSans-6c" d="M 603 4863 
L 1178 4863 
L 1178 0 
L 603 0 
L 603 4863 
z
" transform="scale(0.015625)"/>
       <path id="DejaVuSans-65" d="M 3597 1894 
L 3597 1613 
L 953 1613 
Q 991 1019 1311 708 
Q 1631 397 2203 397 
Q 2534 397 2845 478 
Q 3156 559 3463 722 
L 3463 178 
Q 3153 47 2828 -22 
Q 2503 -91 2169 -91 
Q 1331 -91 842 396 
Q 353 884 353 1716 
Q 353 2575 817 3079 
Q 1281 3584 2069 3584 
Q 2775 3584 3186 3129 
Q 3597 2675 3597 1894 
z
M 3022 2063 
Q 3016 2534 2758 2815 
Q 2500 3097 2075 3097 
Q 1594 3097 1305 2825 
Q 1016 2553 972 2059 
L 3022 2063 
z
" transform="scale(0.015625)"/>
       <path id="DejaVuSans-20" transform="scale(0.015625)"/>
       <path id="DejaVuSans-69" d="M 603 3500 
L 1178 3500 
L 1178 0 
L 603 0 
L 603 3500 
z
M 603 4863 
L 1178 4863 
L 1178 4134 
L 603 4134 
L 603 4863 
z
" transform="scale(0.015625)"/>
       <path id="DejaVuSans-7a" d="M 353 3500 
L 3084 3500 
L 3084 2975 
L 922 459 
L 3084 459 
L 3084 0 
L 275 0 
L 275 525 
L 2438 3041 
L 353 3041 
L 353 3500 
z
" transform="scale(0.015625)"/>
      </defs>
      <use xlink:href="#DejaVuSans-53"/>
      <use xlink:href="#DejaVuSans-61" x="63.476562"/>
      <use xlink:href="#DejaVuSans-6d" x="124.755859"/>
      <use xlink:href="#DejaVuSans-70" x="222.167969"/>
      <use xlink:href="#DejaVuSans-6c" x="285.644531"/>
      <use xlink:href="#DejaVuSans-65" x="313.427734"/>
      <use xlink:href="#DejaVuSans-20" x="374.951172"/>
      <use xlink:href="#DejaVuSans-53" x="406.738281"/>
      <use xlink:href="#DejaVuSans-69" x="470.214844"/>
      <use xlink:href="#DejaVuSans-7a" x="497.998047"/>
      <use xlink:href="#DejaVuSans-65" x="550.488281"/>
     </g>
    </g>
   </g>
   <g id="matplotlib.axis_2">
    <g id="ytick_1">
     <g id="line2d_5">
      <defs>
       <path id="m6cd592b702" d="M 0 0 
L -3.5 0 
" style="stroke: #000000; stroke-width: 0.8"/>
      </defs>
      <g>
       <use xlink:href="#m6cd592b702" x="34.240625" y="129.637823" style="stroke: #000000; stroke-width: 0.8"/>
      </g>
     </g>
     <g id="text_6">
      <!-- 2 -->
      <g transform="translate(20.878125 133.437042) scale(0.1 -0.1)">
       <use xlink:href="#DejaVuSans-32"/>
      </g>
     </g>
    </g>
    <g id="ytick_2">
     <g id="line2d_6">
      <g>
       <use xlink:href="#m6cd592b702" x="34.240625" y="97.013261" style="stroke: #000000; stroke-width: 0.8"/>
      </g>
     </g>
     <g id="text_7">
      <!-- 4 -->
      <g transform="translate(20.878125 100.812479) scale(0.1 -0.1)">
       <defs>
        <path id="DejaVuSans-34" d="M 2419 4116 
L 825 1625 
L 2419 1625 
L 2419 4116 
z
M 2253 4666 
L 3047 4666 
L 3047 1625 
L 3713 1625 
L 3713 1100 
L 3047 1100 
L 3047 0 
L 2419 0 
L 2419 1100 
L 313 1100 
L 313 1709 
L 2253 4666 
z
" transform="scale(0.015625)"/>
       </defs>
       <use xlink:href="#DejaVuSans-34"/>
      </g>
     </g>
    </g>
    <g id="ytick_3">
     <g id="line2d_7">
      <g>
       <use xlink:href="#m6cd592b702" x="34.240625" y="64.388698" style="stroke: #000000; stroke-width: 0.8"/>
      </g>
     </g>
     <g id="text_8">
      <!-- 6 -->
      <g transform="translate(20.878125 68.187917) scale(0.1 -0.1)">
       <defs>
        <path id="DejaVuSans-36" d="M 2113 2584 
Q 1688 2584 1439 2293 
Q 1191 2003 1191 1497 
Q 1191 994 1439 701 
Q 1688 409 2113 409 
Q 2538 409 2786 701 
Q 3034 994 3034 1497 
Q 3034 2003 2786 2293 
Q 2538 2584 2113 2584 
z
M 3366 4563 
L 3366 3988 
Q 3128 4100 2886 4159 
Q 2644 4219 2406 4219 
Q 1781 4219 1451 3797 
Q 1122 3375 1075 2522 
Q 1259 2794 1537 2939 
Q 1816 3084 2150 3084 
Q 2853 3084 3261 2657 
Q 3669 2231 3669 1497 
Q 3669 778 3244 343 
Q 2819 -91 2113 -91 
Q 1303 -91 875 529 
Q 447 1150 447 2328 
Q 447 3434 972 4092 
Q 1497 4750 2381 4750 
Q 2619 4750 2861 4703 
Q 3103 4656 3366 4563 
z
" transform="scale(0.015625)"/>
       </defs>
       <use xlink:href="#DejaVuSans-36"/>
      </g>
     </g>
    </g>
    <g id="ytick_4">
     <g id="line2d_8">
      <g>
       <use xlink:href="#m6cd592b702" x="34.240625" y="31.764135" style="stroke: #000000; stroke-width: 0.8"/>
      </g>
     </g>
     <g id="text_9">
      <!-- 8 -->
      <g transform="translate(20.878125 35.563354) scale(0.1 -0.1)">
       <defs>
        <path id="DejaVuSans-38" d="M 2034 2216 
Q 1584 2216 1326 1975 
Q 1069 1734 1069 1313 
Q 1069 891 1326 650 
Q 1584 409 2034 409 
Q 2484 409 2743 651 
Q 3003 894 3003 1313 
Q 3003 1734 2745 1975 
Q 2488 2216 2034 2216 
z
M 1403 2484 
Q 997 2584 770 2862 
Q 544 3141 544 3541 
Q 544 4100 942 4425 
Q 1341 4750 2034 4750 
Q 2731 4750 3128 4425 
Q 3525 4100 3525 3541 
Q 3525 3141 3298 2862 
Q 3072 2584 2669 2484 
Q 3125 2378 3379 2068 
Q 3634 1759 3634 1313 
Q 3634 634 3220 271 
Q 2806 -91 2034 -91 
Q 1263 -91 848 271 
Q 434 634 434 1313 
Q 434 1759 690 2068 
Q 947 2378 1403 2484 
z
M 1172 3481 
Q 1172 3119 1398 2916 
Q 1625 2713 2034 2713 
Q 2441 2713 2670 2916 
Q 2900 3119 2900 3481 
Q 2900 3844 2670 4047 
Q 2441 4250 2034 4250 
Q 1625 4250 1398 4047 
Q 1172 3844 1172 3481 
z
" transform="scale(0.015625)"/>
       </defs>
       <use xlink:href="#DejaVuSans-38"/>
      </g>
     </g>
    </g>
    <g id="text_10">
     <!-- log MSE -->
     <g transform="translate(14.798438 96.359375) rotate(-90) scale(0.1 -0.1)">
      <defs>
       <path id="DejaVuSans-6f" d="M 1959 3097 
Q 1497 3097 1228 2736 
Q 959 2375 959 1747 
Q 959 1119 1226 758 
Q 1494 397 1959 397 
Q 2419 397 2687 759 
Q 2956 1122 2956 1747 
Q 2956 2369 2687 2733 
Q 2419 3097 1959 3097 
z
M 1959 3584 
Q 2709 3584 3137 3096 
Q 3566 2609 3566 1747 
Q 3566 888 3137 398 
Q 2709 -91 1959 -91 
Q 1206 -91 779 398 
Q 353 888 353 1747 
Q 353 2609 779 3096 
Q 1206 3584 1959 3584 
z
" transform="scale(0.015625)"/>
       <path id="DejaVuSans-67" d="M 2906 1791 
Q 2906 2416 2648 2759 
Q 2391 3103 1925 3103 
Q 1463 3103 1205 2759 
Q 947 2416 947 1791 
Q 947 1169 1205 825 
Q 1463 481 1925 481 
Q 2391 481 2648 825 
Q 2906 1169 2906 1791 
z
M 3481 434 
Q 3481 -459 3084 -895 
Q 2688 -1331 1869 -1331 
Q 1566 -1331 1297 -1286 
Q 1028 -1241 775 -1147 
L 775 -588 
Q 1028 -725 1275 -790 
Q 1522 -856 1778 -856 
Q 2344 -856 2625 -561 
Q 2906 -266 2906 331 
L 2906 616 
Q 2728 306 2450 153 
Q 2172 0 1784 0 
Q 1141 0 747 490 
Q 353 981 353 1791 
Q 353 2603 747 3093 
Q 1141 3584 1784 3584 
Q 2172 3584 2450 3431 
Q 2728 3278 2906 2969 
L 2906 3500 
L 3481 3500 
L 3481 434 
z
" transform="scale(0.015625)"/>
       <path id="DejaVuSans-4d" d="M 628 4666 
L 1569 4666 
L 2759 1491 
L 3956 4666 
L 4897 4666 
L 4897 0 
L 4281 0 
L 4281 4097 
L 3078 897 
L 2444 897 
L 1241 4097 
L 1241 0 
L 628 0 
L 628 4666 
z
" transform="scale(0.015625)"/>
       <path id="DejaVuSans-45" d="M 628 4666 
L 3578 4666 
L 3578 4134 
L 1259 4134 
L 1259 2753 
L 3481 2753 
L 3481 2222 
L 1259 2222 
L 1259 531 
L 3634 531 
L 3634 0 
L 628 0 
L 628 4666 
z
" transform="scale(0.015625)"/>
      </defs>
      <use xlink:href="#DejaVuSans-6c"/>
      <use xlink:href="#DejaVuSans-6f" x="27.783203"/>
      <use xlink:href="#DejaVuSans-67" x="88.964844"/>
      <use xlink:href="#DejaVuSans-20" x="152.441406"/>
      <use xlink:href="#DejaVuSans-4d" x="184.228516"/>
      <use xlink:href="#DejaVuSans-53" x="270.507812"/>
      <use xlink:href="#DejaVuSans-45" x="333.984375"/>
     </g>
    </g>
   </g>
   <g id="line2d_9">
    <path d="M 43.117898 67.011961 
L 43.602995 76.847951 
L 44.088091 83.78135 
L 44.573188 87.930413 
L 45.058285 90.82139 
L 46.513576 97.745339 
L 46.998673 97.777739 
L 48.453963 100.120101 
L 48.93906 100.372126 
L 49.424157 101.003405 
L 49.909254 101.097452 
L 50.394351 100.182611 
L 50.879448 101.103784 
L 51.364545 100.311 
L 51.849641 100.067255 
L 52.334738 100.325662 
L 52.819835 99.608328 
L 53.304932 99.645636 
L 53.790029 99.434969 
L 54.275126 99.814822 
L 55.245319 99.256982 
L 55.730416 99.349337 
L 56.215513 98.650943 
L 56.70061 98.513979 
L 57.185707 97.9377 
L 57.670804 97.995936 
L 58.640998 97.348346 
L 59.126094 97.463348 
L 60.096288 96.364395 
L 60.581385 96.454996 
L 61.066482 96.363337 
L 61.551579 95.883952 
L 62.036676 95.902278 
L 63.006869 94.927268 
L 63.491966 94.906741 
L 63.977063 95.026628 
L 64.46216 94.616812 
L 64.947257 94.706838 
L 65.917451 94.014842 
L 66.402548 93.955976 
L 66.887644 93.430738 
L 67.372741 93.303664 
L 67.857838 93.327186 
L 68.828032 92.613005 
L 69.313129 92.613713 
L 71.253516 91.726924 
L 71.738613 91.701808 
L 72.708807 91.160392 
L 73.679001 91.06937 
L 74.164097 90.557309 
L 75.134291 90.611384 
L 76.104485 90.126204 
L 76.589582 90.123801 
L 77.074679 89.558388 
L 77.559776 89.702092 
L 79.015066 89.091278 
L 79.500163 88.973826 
L 79.98526 88.687024 
L 80.955454 88.464145 
L 81.44055 88.255414 
L 81.925647 88.260804 
L 82.895841 87.875778 
L 83.380938 87.712667 
L 83.866035 87.716922 
L 84.836229 87.360349 
L 87.74681 86.267972 
L 88.717004 86.056216 
L 90.172294 85.818884 
L 90.657391 85.630898 
L 91.627585 85.430856 
L 92.112682 85.109021 
L 92.597779 85.117966 
L 93.082875 84.941702 
L 94.053069 84.936218 
L 94.538166 84.786081 
L 95.023263 84.340524 
L 95.993457 84.238356 
L 96.478553 84.02926 
L 97.448747 83.966404 
L 98.418941 83.618169 
L 98.904038 83.541522 
L 99.389135 83.343665 
L 99.874232 83.392241 
L 100.359328 83.207615 
L 100.844425 83.218854 
L 101.814619 82.777879 
L 103.26991 82.431675 
L 104.240103 82.254718 
L 104.7252 82.202619 
L 105.210297 81.903551 
L 105.695394 81.963717 
L 108.605975 81.180239 
L 109.091072 81.238779 
L 110.061266 80.931816 
L 111.03146 80.704044 
L 111.516556 80.545444 
L 112.48675 80.383383 
L 114.427138 80.057877 
L 114.912235 79.871594 
L 115.397331 79.836864 
L 116.367525 79.592338 
L 117.337719 79.449349 
L 118.307913 79.368704 
L 119.278106 79.060014 
L 119.763203 79.070834 
L 121.218494 78.612995 
L 122.188688 78.599057 
L 123.158881 78.330091 
L 123.643978 78.499681 
L 124.129075 78.192135 
L 124.614172 78.027025 
L 125.099269 78.040318 
L 126.069463 77.817532 
L 126.554559 77.824843 
L 127.039656 77.580045 
L 128.980044 77.438394 
L 129.465141 77.156905 
L 131.890625 76.810389 
L 133.831012 76.417383 
L 134.316109 76.478575 
L 135.286303 76.317463 
L 137.226691 76.065531 
L 137.711787 75.889485 
L 138.196884 75.963783 
L 138.681981 75.660391 
L 140.137272 75.590199 
L 144.018047 74.949291 
L 145.473337 74.752064 
L 146.928628 74.469128 
L 147.413725 74.550637 
L 147.898822 74.511186 
L 148.383919 74.306056 
L 149.839209 74.129691 
L 150.809403 73.992077 
L 151.779597 73.939301 
L 152.264694 73.722971 
L 153.234887 73.667473 
L 154.690178 73.45966 
L 156.145469 73.206585 
L 158.570953 72.828786 
L 160.51134 72.715409 
L 161.966631 72.474484 
L 162.451728 72.463727 
L 163.907018 72.147624 
L 164.392115 72.223743 
L 165.362309 72.046296 
L 169.728181 71.516882 
L 170.213278 71.60578 
L 170.698375 71.337242 
L 185.251281 69.77574 
L 186.221474 69.687036 
L 187.676765 69.367006 
L 189.132056 69.309711 
L 192.042637 68.919294 
L 193.012831 68.814202 
L 193.497928 68.86732 
L 195.438315 68.565716 
L 195.923412 68.634305 
L 196.408509 68.502323 
L 197.378702 68.414638 
L 199.804187 68.212488 
L 202.229671 67.973173 
L 202.714768 67.989554 
L 203.199865 67.85842 
L 203.684962 67.903285 
L 204.655156 67.706743 
L 205.140252 67.783164 
L 206.110446 67.653236 
L 215.327287 66.791727 
L 216.29748 66.71546 
L 217.267674 66.58995 
L 219.208062 66.41787 
L 219.693159 66.490877 
L 220.663352 66.26799 
L 220.663352 66.26799 
" clip-path="url(#p42d03af7f2)" style="fill: none; stroke: #4c72b0; stroke-width: 1.5; stroke-linecap: square"/>
    <defs>
     <path id="mdd5391a4ce" d="M 0 3.5 
C 0.928211 3.5 1.81853 3.131218 2.474874 2.474874 
C 3.131218 1.81853 3.5 0.928211 3.5 0 
C 3.5 -0.928211 3.131218 -1.81853 2.474874 -2.474874 
C 1.81853 -3.131218 0.928211 -3.5 0 -3.5 
C -0.928211 -3.5 -1.81853 -3.131218 -2.474874 -2.474874 
C -3.131218 -1.81853 -3.5 -0.928211 -3.5 0 
C -3.5 0.928211 -3.131218 1.81853 -2.474874 2.474874 
C -1.81853 3.131218 -0.928211 3.5 0 3.5 
z
" style="stroke: #ffffff; stroke-width: 0.75"/>
    </defs>
    <g clip-path="url(#p42d03af7f2)">
     <use xlink:href="#mdd5391a4ce" x="43.117898" y="67.011961" style="fill: #4c72b0; stroke: #ffffff; stroke-width: 0.75"/>
     <use xlink:href="#mdd5391a4ce" x="60.581385" y="96.454996" style="fill: #4c72b0; stroke: #ffffff; stroke-width: 0.75"/>
     <use xlink:href="#mdd5391a4ce" x="78.044872" y="89.459783" style="fill: #4c72b0; stroke: #ffffff; stroke-width: 0.75"/>
     <use xlink:href="#mdd5391a4ce" x="95.50836" y="84.301625" style="fill: #4c72b0; stroke: #ffffff; stroke-width: 0.75"/>
     <use xlink:href="#mdd5391a4ce" x="112.971847" y="80.314685" style="fill: #4c72b0; stroke: #ffffff; stroke-width: 0.75"/>
     <use xlink:href="#mdd5391a4ce" x="130.435334" y="77.131657" style="fill: #4c72b0; stroke: #ffffff; stroke-width: 0.75"/>
     <use xlink:href="#mdd5391a4ce" x="147.898822" y="74.511186" style="fill: #4c72b0; stroke: #ffffff; stroke-width: 0.75"/>
     <use xlink:href="#mdd5391a4ce" x="165.362309" y="72.046296" style="fill: #4c72b0; stroke: #ffffff; stroke-width: 0.75"/>
     <use xlink:href="#mdd5391a4ce" x="182.825796" y="70.009836" style="fill: #4c72b0; stroke: #ffffff; stroke-width: 0.75"/>
     <use xlink:href="#mdd5391a4ce" x="200.289284" y="68.153295" style="fill: #4c72b0; stroke: #ffffff; stroke-width: 0.75"/>
     <use xlink:href="#mdd5391a4ce" x="217.752771" y="66.526704" style="fill: #4c72b0; stroke: #ffffff; stroke-width: 0.75"/>
    </g>
   </g>
   <g id="line2d_10">
    <path d="M 43.117898 67.839464 
L 43.602995 77.240459 
L 44.573188 88.042164 
L 45.058285 91.47602 
L 45.543382 93.096792 
L 46.513576 98.958132 
L 46.998673 100.10384 
L 47.48377 99.150295 
L 47.968866 99.922968 
L 48.453963 102.125402 
L 48.93906 101.335072 
L 49.424157 101.824272 
L 50.394351 103.05529 
L 50.879448 103.529377 
L 51.364545 103.24144 
L 51.849641 101.8476 
L 52.334738 102.890728 
L 53.304932 102.921884 
L 53.790029 102.411445 
L 54.275126 103.063803 
L 54.760223 102.267122 
L 55.245319 102.432015 
L 55.730416 101.717644 
L 56.215513 101.411587 
L 56.70061 101.655382 
L 57.185707 101.087776 
L 57.670804 101.037544 
L 58.155901 100.866425 
L 58.640998 100.95325 
L 59.126094 100.578725 
L 59.611191 100.611394 
L 60.581385 99.480386 
L 61.066482 99.438201 
L 61.551579 98.840858 
L 62.036676 98.585804 
L 62.521773 98.792917 
L 63.006869 98.638867 
L 64.46216 97.723847 
L 64.947257 97.662694 
L 65.432354 97.307031 
L 65.917451 96.807758 
L 66.402548 96.884646 
L 66.887644 96.526868 
L 67.857838 96.040117 
L 69.313129 95.322289 
L 69.798226 95.310637 
L 70.283322 94.769897 
L 70.768419 94.877207 
L 71.253516 94.611679 
L 71.738613 94.562878 
L 72.22371 94.296237 
L 72.708807 94.305743 
L 73.193904 94.002661 
L 74.649194 93.623329 
L 75.619388 93.295473 
L 76.104485 93.381719 
L 77.074679 93.047454 
L 77.559776 92.964429 
L 78.044872 92.559382 
L 78.529969 92.370641 
L 79.015066 92.400346 
L 79.500163 92.172551 
L 80.470357 92.071978 
L 81.44055 91.630878 
L 82.410744 91.490075 
L 83.380938 91.153243 
L 83.866035 91.221273 
L 84.351132 90.876585 
L 84.836229 90.776867 
L 85.321325 90.823856 
L 86.776616 90.222041 
L 87.261713 90.312611 
L 89.687197 89.579009 
L 90.172294 89.318871 
L 90.657391 89.190358 
L 91.627585 89.275911 
L 92.597779 88.838981 
L 93.082875 88.862891 
L 93.567972 88.762147 
L 94.053069 88.530307 
L 97.933844 87.670252 
L 98.418941 87.465527 
L 98.904038 87.545014 
L 99.874232 87.229674 
L 100.359328 87.067924 
L 100.844425 87.133223 
L 101.329522 86.754886 
L 101.814619 86.803197 
L 104.240103 86.466085 
L 104.7252 86.221855 
L 105.695394 86.109131 
L 106.180491 85.860265 
L 107.635781 85.920904 
L 108.605975 85.485553 
L 119.278106 83.572332 
L 119.763203 83.362387 
L 120.2483 83.456808 
L 121.218494 83.189242 
L 121.703591 83.19156 
L 122.673784 82.997305 
L 124.129075 82.760518 
L 124.614172 82.605722 
L 125.099269 82.595626 
L 126.554559 82.286454 
L 128.00985 82.229206 
L 128.494947 81.970134 
L 128.980044 81.854323 
L 129.950238 81.823622 
L 130.920431 81.705298 
L 131.405528 81.44975 
L 131.890625 81.558008 
L 132.375722 81.39888 
L 134.316109 81.229134 
L 134.801206 81.0563 
L 135.7714 81.086744 
L 136.256497 80.780279 
L 136.741594 80.877539 
L 138.196884 80.47922 
L 139.652175 80.331059 
L 144.018047 79.722632 
L 145.473337 79.60196 
L 145.958434 79.431607 
L 146.928628 79.351343 
L 147.413725 79.192401 
L 148.869015 79.037341 
L 149.354112 78.899836 
L 149.839209 78.93658 
L 151.779597 78.596015 
L 152.264694 78.507366 
L 152.74979 78.595867 
L 153.719984 78.337659 
L 155.660372 78.220899 
L 156.145469 78.049605 
L 157.115662 78.037308 
L 157.600759 77.846156 
L 158.085856 77.8982 
L 158.570953 77.679327 
L 159.05605 77.82041 
L 159.541147 77.542118 
L 160.996437 77.461791 
L 161.481534 77.366258 
L 162.451728 77.346081 
L 162.936825 77.304623 
L 163.421922 77.115517 
L 164.392115 77.095417 
L 165.362309 76.93275 
L 165.847406 76.727792 
L 166.8176 76.694182 
L 167.787793 76.57228 
L 168.757987 76.44407 
L 169.243084 76.455987 
L 169.728181 76.305508 
L 171.668568 76.192263 
L 172.638762 75.990237 
L 173.123859 76.010453 
L 174.57915 75.80264 
L 183.310893 74.772785 
L 184.281087 74.670703 
L 184.766184 74.661307 
L 186.221474 74.347133 
L 187.676765 74.234535 
L 189.132056 73.966658 
L 192.042637 73.722116 
L 198.348896 73.095021 
L 199.804187 73.044011 
L 203.199865 72.701789 
L 203.684962 72.784371 
L 205.625349 72.482332 
L 208.050834 72.256793 
L 208.535931 72.371134 
L 209.021027 72.104299 
L 209.506124 72.181522 
L 218.237868 71.327558 
L 219.693159 71.195739 
L 220.663352 71.08454 
L 220.663352 71.08454 
" clip-path="url(#p42d03af7f2)" style="fill: none; stroke-dasharray: 6,2.25; stroke-dashoffset: 0; stroke: #4c72b0; stroke-width: 1.5"/>
    <defs>
     <path id="mb7e345c88a" d="M -1.75 3.5 
L 0 1.75 
L 1.75 3.5 
L 3.5 1.75 
L 1.75 0 
L 3.5 -1.75 
L 1.75 -3.5 
L 0 -1.75 
L -1.75 -3.5 
L -3.5 -1.75 
L -1.75 0 
L -3.5 1.75 
z
" style="stroke: #ffffff; stroke-width: 0.75; stroke-linejoin: miter"/>
    </defs>
    <g clip-path="url(#p42d03af7f2)">
     <use xlink:href="#mb7e345c88a" x="43.117898" y="67.839464" style="fill: #4c72b0; stroke: #ffffff; stroke-width: 0.75; stroke-linejoin: miter"/>
     <use xlink:href="#mb7e345c88a" x="60.581385" y="99.480386" style="fill: #4c72b0; stroke: #ffffff; stroke-width: 0.75; stroke-linejoin: miter"/>
     <use xlink:href="#mb7e345c88a" x="78.044872" y="92.559382" style="fill: #4c72b0; stroke: #ffffff; stroke-width: 0.75; stroke-linejoin: miter"/>
     <use xlink:href="#mb7e345c88a" x="95.50836" y="88.24552" style="fill: #4c72b0; stroke: #ffffff; stroke-width: 0.75; stroke-linejoin: miter"/>
     <use xlink:href="#mb7e345c88a" x="112.971847" y="84.704868" style="fill: #4c72b0; stroke: #ffffff; stroke-width: 0.75; stroke-linejoin: miter"/>
     <use xlink:href="#mb7e345c88a" x="130.435334" y="81.768155" style="fill: #4c72b0; stroke: #ffffff; stroke-width: 0.75; stroke-linejoin: miter"/>
     <use xlink:href="#mb7e345c88a" x="147.898822" y="79.165651" style="fill: #4c72b0; stroke: #ffffff; stroke-width: 0.75; stroke-linejoin: miter"/>
     <use xlink:href="#mb7e345c88a" x="165.362309" y="76.93275" style="fill: #4c72b0; stroke: #ffffff; stroke-width: 0.75; stroke-linejoin: miter"/>
     <use xlink:href="#mb7e345c88a" x="182.825796" y="74.895333" style="fill: #4c72b0; stroke: #ffffff; stroke-width: 0.75; stroke-linejoin: miter"/>
     <use xlink:href="#mb7e345c88a" x="200.289284" y="72.995428" style="fill: #4c72b0; stroke: #ffffff; stroke-width: 0.75; stroke-linejoin: miter"/>
     <use xlink:href="#mb7e345c88a" x="217.752771" y="71.369436" style="fill: #4c72b0; stroke: #ffffff; stroke-width: 0.75; stroke-linejoin: miter"/>
    </g>
   </g>
   <g id="line2d_11">
    <path d="M 43.117898 65.456099 
L 43.602995 77.023453 
L 44.088091 85.030919 
L 44.573188 88.348746 
L 45.543382 97.173217 
L 46.028479 97.604314 
L 46.998673 101.038905 
L 47.48377 105.012416 
L 47.968866 105.882893 
L 48.453963 105.352401 
L 48.93906 109.228788 
L 49.424157 109.92558 
L 49.909254 110.183668 
L 50.394351 110.142649 
L 50.879448 111.589806 
L 51.364545 112.397252 
L 51.849641 114.944097 
L 52.334738 113.523472 
L 52.819835 115.830011 
L 53.304932 114.465347 
L 53.790029 115.970736 
L 54.275126 118.531742 
L 54.760223 118.984735 
L 55.245319 119.170621 
L 55.730416 119.155344 
L 56.215513 119.354196 
L 56.70061 120.794571 
L 57.185707 120.779337 
L 57.670804 121.569721 
L 58.640998 121.525268 
L 59.126094 123.317684 
L 59.611191 123.007945 
L 60.096288 124.299866 
L 60.581385 123.511854 
L 61.066482 124.186711 
L 61.551579 124.089938 
L 62.036676 124.363932 
L 63.006869 124.134744 
L 63.491966 124.746617 
L 63.977063 125.648262 
L 64.46216 125.450779 
L 64.947257 125.484276 
L 65.432354 126.531729 
L 65.917451 126.875013 
L 66.402548 126.351984 
L 66.887644 126.349702 
L 67.372741 127.477061 
L 67.857838 127.712534 
L 68.342935 128.606545 
L 68.828032 126.957708 
L 69.313129 127.220867 
L 69.798226 129.087232 
L 70.283322 128.731756 
L 70.768419 128.7253 
L 71.253516 128.989295 
L 71.738613 128.429569 
L 72.22371 128.931219 
L 72.708807 129.186934 
L 73.193904 129.890556 
L 73.679001 129.220342 
L 74.164097 130.105085 
L 74.649194 129.718931 
L 75.134291 130.984173 
L 75.619388 130.110752 
L 76.104485 129.799091 
L 76.589582 130.952214 
L 77.559776 129.918359 
L 78.044872 130.427859 
L 78.529969 130.618247 
L 79.015066 130.560003 
L 79.500163 131.755133 
L 79.98526 132.004364 
L 80.955454 131.025449 
L 81.44055 129.797445 
L 81.925647 131.553033 
L 82.410744 131.260476 
L 82.895841 132.08343 
L 83.380938 131.875137 
L 83.866035 131.848609 
L 84.836229 132.355033 
L 85.321325 131.837416 
L 85.806422 131.604993 
L 86.291519 132.052986 
L 86.776616 131.815991 
L 87.261713 132.989622 
L 87.74681 132.152682 
L 88.231907 133.107562 
L 88.717004 132.75566 
L 89.687197 133.150677 
L 90.172294 132.713144 
L 90.657391 132.669749 
L 91.627585 133.557354 
L 92.112682 133.191533 
L 92.597779 133.318169 
L 93.082875 132.350537 
L 94.053069 134.227424 
L 94.538166 133.93902 
L 95.023263 133.242088 
L 95.50836 133.831714 
L 95.993457 133.627857 
L 96.478553 134.163336 
L 96.96365 134.265786 
L 97.448747 133.680879 
L 97.933844 133.449564 
L 98.418941 134.88583 
L 98.904038 134.532409 
L 99.389135 133.557179 
L 99.874232 133.793597 
L 100.844425 133.958071 
L 101.329522 134.732794 
L 101.814619 134.874851 
L 102.299716 134.543709 
L 102.784813 134.864021 
L 103.26991 133.777286 
L 103.755007 134.839393 
L 104.240103 134.50611 
L 105.210297 134.908855 
L 105.695394 134.491516 
L 106.180491 134.842771 
L 106.665588 134.938788 
L 107.150685 135.360162 
L 107.635781 134.844 
L 108.120878 134.855251 
L 108.605975 134.587069 
L 109.091072 134.511962 
L 109.576169 135.162648 
L 110.061266 135.466091 
L 110.546363 134.661006 
L 111.03146 134.918695 
L 111.516556 135.953868 
L 112.001653 134.857484 
L 112.48675 135.577527 
L 112.971847 135.893717 
L 113.456944 134.465342 
L 113.942041 135.182846 
L 114.427138 136.126786 
L 114.912235 136.244106 
L 115.397331 135.506807 
L 115.882428 135.086158 
L 116.367525 135.328355 
L 117.337719 135.307141 
L 117.822816 136.748469 
L 118.307913 135.517154 
L 118.79301 135.46247 
L 119.278106 135.132898 
L 119.763203 135.819214 
L 120.2483 135.335692 
L 120.733397 136.083675 
L 121.218494 136.034698 
L 121.703591 135.366846 
L 122.188688 135.887218 
L 122.673784 135.497912 
L 123.158881 136.015259 
L 123.643978 135.770219 
L 124.129075 136.128847 
L 125.099269 136.245945 
L 125.584366 135.357146 
L 126.069463 135.621935 
L 126.554559 136.405498 
L 127.039656 136.657604 
L 127.524753 135.89993 
L 128.00985 136.779236 
L 128.980044 135.77093 
L 129.465141 136.122515 
L 129.950238 136.74062 
L 130.435334 135.792189 
L 130.920431 136.050523 
L 131.405528 135.699885 
L 131.890625 135.781822 
L 132.860819 136.291466 
L 133.345916 136.000054 
L 134.316109 136.549684 
L 134.801206 135.666935 
L 135.286303 135.879879 
L 135.7714 135.707036 
L 136.256497 136.510064 
L 136.741594 136.484156 
L 137.226691 136.852159 
L 137.711787 136.186247 
L 138.196884 136.414077 
L 138.681981 135.867648 
L 139.167078 136.333422 
L 139.652175 136.039367 
L 140.137272 136.16145 
L 140.622369 135.848356 
L 141.107466 136.555837 
L 141.592562 136.229263 
L 142.077659 136.660101 
L 142.562756 136.156491 
L 143.047853 136.881046 
L 144.018047 136.316364 
L 144.503144 136.51791 
L 144.98824 136.890177 
L 145.958434 136.096441 
L 146.443531 136.095591 
L 146.928628 136.522377 
L 147.413725 136.399227 
L 147.898822 136.996083 
L 148.869015 136.558715 
L 149.354112 136.911877 
L 149.839209 136.839311 
L 150.324306 136.481109 
L 150.809403 137.567691 
L 151.2945 136.454169 
L 151.779597 136.87621 
L 152.264694 136.944256 
L 153.234887 136.700453 
L 153.719984 137.008027 
L 154.205081 136.517766 
L 154.690178 136.851235 
L 155.175275 136.977981 
L 155.660372 136.69221 
L 156.145469 136.651879 
L 156.630565 136.278037 
L 157.115662 137.171062 
L 159.541147 136.562783 
L 160.026243 136.904272 
L 160.51134 136.62156 
L 160.996437 136.673843 
L 161.481534 136.368176 
L 161.966631 136.96179 
L 162.451728 136.710822 
L 162.936825 136.98551 
L 163.421922 136.572282 
L 163.907018 136.468347 
L 164.392115 137.044248 
L 164.877212 136.79549 
L 165.362309 137.002533 
L 165.847406 137.076563 
L 166.332503 136.782077 
L 166.8176 136.956843 
L 167.302697 136.672058 
L 167.787793 136.84385 
L 168.27289 137.261665 
L 168.757987 137.104001 
L 169.243084 136.612556 
L 169.728181 137.211793 
L 170.213278 137.20621 
L 170.698375 137.048524 
L 171.183471 137.248254 
L 171.668568 136.862461 
L 172.153665 137.496733 
L 172.638762 137.505503 
L 173.123859 136.903772 
L 173.608956 137.41158 
L 175.064246 137.029475 
L 175.549343 137.116357 
L 176.03444 136.961652 
L 176.519537 136.443623 
L 177.004634 137.300016 
L 177.974828 137.321982 
L 178.459925 137.124798 
L 178.945021 137.116769 
L 179.430118 136.925615 
L 179.915215 137.44815 
L 180.400312 137.027247 
L 180.885409 137.060427 
L 181.370506 137.314258 
L 181.855603 137.210305 
L 182.3407 137.283384 
L 182.825796 137.002934 
L 183.310893 137.370258 
L 183.79599 137.068806 
L 184.281087 137.421933 
L 184.766184 137.381261 
L 185.251281 137.111875 
L 186.221474 137.246754 
L 187.191668 137.024027 
L 187.676765 137.473953 
L 188.161862 137.559251 
L 188.646959 137.454287 
L 189.132056 137.048851 
L 189.617153 137.4539 
L 190.102249 137.20739 
L 190.587346 137.206854 
L 191.55754 137.597083 
L 192.042637 137.744408 
L 193.012831 137.236954 
L 193.497928 137.208495 
L 194.468121 137.537219 
L 195.438315 137.29869 
L 195.923412 137.491001 
L 196.893606 137.090152 
L 197.378702 137.665328 
L 197.863799 137.186614 
L 198.348896 137.100987 
L 198.833993 137.326427 
L 199.31909 137.684035 
L 199.804187 137.644103 
L 200.289284 137.244205 
L 201.259477 137.593754 
L 201.744574 137.266358 
L 203.199865 137.486981 
L 203.684962 137.461896 
L 204.170059 137.140219 
L 204.655156 137.307269 
L 205.140252 137.710923 
L 205.625349 137.12903 
L 206.110446 137.530972 
L 206.595543 137.30892 
L 207.565737 137.461939 
L 208.050834 137.772354 
L 208.535931 137.290787 
L 209.021027 137.530211 
L 209.506124 137.360819 
L 209.991221 137.419576 
L 210.476318 137.934206 
L 211.446512 136.951087 
L 211.931609 138.135102 
L 212.416705 137.556342 
L 212.901802 137.663811 
L 213.871996 137.349486 
L 214.357093 137.360039 
L 214.84219 137.502052 
L 215.327287 137.457286 
L 215.812384 137.677968 
L 216.29748 137.526225 
L 216.782577 137.57501 
L 217.267674 137.225216 
L 217.752771 137.389508 
L 218.237868 137.298188 
L 219.208062 137.447769 
L 219.693159 137.798393 
L 220.178255 137.704509 
L 220.663352 137.357055 
L 220.663352 137.357055 
" clip-path="url(#p42d03af7f2)" style="fill: none; stroke-dasharray: 1.5,1.5; stroke-dashoffset: 0; stroke: #4c72b0; stroke-width: 1.5"/>
    <defs>
     <path id="m8d8b812a49" d="M -2.474874 -2.474874 
L -2.474874 2.474874 
L 2.474874 2.474874 
L 2.474874 -2.474874 
z
" style="stroke: #ffffff; stroke-width: 0.75; stroke-linejoin: miter"/>
    </defs>
    <g clip-path="url(#p42d03af7f2)">
     <use xlink:href="#m8d8b812a49" x="43.117898" y="65.456099" style="fill: #4c72b0; stroke: #ffffff; stroke-width: 0.75; stroke-linejoin: miter"/>
     <use xlink:href="#m8d8b812a49" x="60.581385" y="123.511854" style="fill: #4c72b0; stroke: #ffffff; stroke-width: 0.75; stroke-linejoin: miter"/>
     <use xlink:href="#m8d8b812a49" x="78.044872" y="130.427859" style="fill: #4c72b0; stroke: #ffffff; stroke-width: 0.75; stroke-linejoin: miter"/>
     <use xlink:href="#m8d8b812a49" x="95.50836" y="133.831714" style="fill: #4c72b0; stroke: #ffffff; stroke-width: 0.75; stroke-linejoin: miter"/>
     <use xlink:href="#m8d8b812a49" x="112.971847" y="135.893717" style="fill: #4c72b0; stroke: #ffffff; stroke-width: 0.75; stroke-linejoin: miter"/>
     <use xlink:href="#m8d8b812a49" x="130.435334" y="135.792189" style="fill: #4c72b0; stroke: #ffffff; stroke-width: 0.75; stroke-linejoin: miter"/>
     <use xlink:href="#m8d8b812a49" x="147.898822" y="136.996083" style="fill: #4c72b0; stroke: #ffffff; stroke-width: 0.75; stroke-linejoin: miter"/>
     <use xlink:href="#m8d8b812a49" x="165.362309" y="137.002533" style="fill: #4c72b0; stroke: #ffffff; stroke-width: 0.75; stroke-linejoin: miter"/>
     <use xlink:href="#m8d8b812a49" x="182.825796" y="137.002934" style="fill: #4c72b0; stroke: #ffffff; stroke-width: 0.75; stroke-linejoin: miter"/>
     <use xlink:href="#m8d8b812a49" x="200.289284" y="137.244205" style="fill: #4c72b0; stroke: #ffffff; stroke-width: 0.75; stroke-linejoin: miter"/>
     <use xlink:href="#m8d8b812a49" x="217.752771" y="137.389508" style="fill: #4c72b0; stroke: #ffffff; stroke-width: 0.75; stroke-linejoin: miter"/>
    </g>
   </g>
   <g id="line2d_12">
    <path d="M 43.117898 65.871235 
L 43.602995 76.866774 
L 44.088091 82.104434 
L 44.573188 85.63632 
L 45.543382 90.128592 
L 46.998673 91.707953 
L 47.48377 91.5591 
L 47.968866 92.688525 
L 48.453963 93.074678 
L 48.93906 93.632857 
L 49.424157 93.469381 
L 49.909254 93.569231 
L 50.394351 93.43164 
L 51.364545 93.542411 
L 51.849641 93.611677 
L 52.334738 93.830978 
L 52.819835 93.64174 
L 53.304932 93.040967 
L 53.790029 93.136975 
L 54.275126 93.456375 
L 54.760223 93.128248 
L 55.245319 93.697907 
L 55.730416 92.92651 
L 56.215513 93.282032 
L 56.70061 92.868336 
L 57.670804 92.715438 
L 58.155901 92.268598 
L 59.126094 92.609373 
L 59.611191 92.446845 
L 60.096288 91.929899 
L 60.581385 92.080487 
L 61.066482 91.896219 
L 61.551579 91.567703 
L 62.036676 91.488939 
L 62.521773 91.269358 
L 63.006869 91.350097 
L 63.491966 90.957557 
L 63.977063 90.995258 
L 64.46216 91.245696 
L 64.947257 90.722403 
L 67.372741 90.146195 
L 69.313129 89.466744 
L 69.798226 89.558085 
L 70.283322 89.104944 
L 71.253516 89.002037 
L 72.22371 88.625451 
L 72.708807 88.447639 
L 73.193904 88.661573 
L 74.649194 87.995377 
L 75.134291 88.052097 
L 75.619388 87.881666 
L 76.104485 87.846648 
L 76.589582 87.441127 
L 77.074679 87.573405 
L 78.044872 86.946925 
L 78.529969 87.082321 
L 79.015066 87.070522 
L 79.500163 86.720825 
L 81.44055 86.074782 
L 81.925647 86.358924 
L 84.351132 85.586227 
L 84.836229 85.549809 
L 85.321325 85.238288 
L 85.806422 85.28982 
L 86.776616 85.055794 
L 87.261713 84.790795 
L 87.74681 84.787092 
L 88.717004 84.347509 
L 89.2021 84.534165 
L 89.687197 84.526115 
L 90.657391 84.07453 
L 91.142488 84.141828 
L 91.627585 83.917447 
L 93.082875 83.59254 
L 93.567972 83.417349 
L 94.053069 83.459756 
L 95.50836 83.016012 
L 96.478553 82.964356 
L 96.96365 82.79545 
L 97.448747 82.760993 
L 98.418941 82.368748 
L 98.904038 82.373229 
L 99.389135 82.171592 
L 100.359328 82.152371 
L 101.329522 81.782397 
L 101.814619 81.853747 
L 102.299716 81.649885 
L 103.755007 81.525837 
L 104.7252 81.107473 
L 105.210297 81.141853 
L 107.150685 80.842459 
L 107.635781 80.590076 
L 108.605975 80.549536 
L 111.03146 79.972969 
L 115.397331 79.151316 
L 115.882428 79.255366 
L 116.367525 78.958017 
L 116.852622 78.968681 
L 117.337719 78.721401 
L 118.79301 78.644326 
L 119.278106 78.4165 
L 120.2483 78.292311 
L 120.733397 78.176461 
L 121.218494 78.266511 
L 122.673784 77.923791 
L 123.158881 77.899359 
L 124.129075 77.681194 
L 125.099269 77.611446 
L 125.584366 77.372597 
L 127.039656 77.259096 
L 128.00985 77.023725 
L 128.494947 76.943476 
L 128.980044 77.007523 
L 131.405528 76.461439 
L 133.345916 76.249784 
L 133.831012 76.109471 
L 134.316109 76.09071 
L 135.286303 75.891974 
L 136.741594 75.802827 
L 137.226691 75.54836 
L 138.196884 75.468951 
L 142.077659 74.877069 
L 143.53295 74.777927 
L 144.98824 74.468483 
L 148.383919 74.139585 
L 149.839209 73.765441 
L 150.324306 73.823553 
L 152.264694 73.595687 
L 152.74979 73.622071 
L 154.690178 73.185568 
L 160.996437 72.503551 
L 161.966631 72.333728 
L 162.936825 72.198097 
L 164.392115 71.988877 
L 165.847406 71.909056 
L 168.27289 71.62262 
L 168.757987 71.468539 
L 169.243084 71.476707 
L 169.728181 71.351818 
L 170.213278 71.474202 
L 170.698375 71.230119 
L 171.668568 71.212618 
L 172.638762 71.037575 
L 174.094053 70.912204 
L 177.004634 70.558758 
L 177.974828 70.525973 
L 179.915215 70.300332 
L 180.400312 70.149036 
L 180.885409 70.232147 
L 181.370506 69.985451 
L 182.3407 70.077414 
L 182.825796 69.849782 
L 183.79599 69.909005 
L 184.281087 69.79769 
L 185.736378 69.716244 
L 187.191668 69.407445 
L 188.161862 69.468279 
L 190.587346 69.06485 
L 191.55754 69.079418 
L 193.012831 68.897842 
L 194.953218 68.711629 
L 195.438315 68.570453 
L 195.923412 68.644191 
L 200.289284 68.153684 
L 200.774381 68.223401 
L 201.259477 68.082209 
L 203.199865 67.971259 
L 204.170059 67.776172 
L 206.595543 67.541415 
L 208.050834 67.50271 
L 208.535931 67.335212 
L 209.021027 67.397081 
L 210.961415 67.130114 
L 211.446512 67.147428 
L 211.931609 67.043432 
L 212.416705 67.069606 
L 213.386899 66.936932 
L 215.812384 66.726513 
L 216.782577 66.688835 
L 217.267674 66.584497 
L 218.237868 66.602799 
L 218.722965 66.467161 
L 219.208062 66.485814 
L 220.178255 66.331212 
L 220.663352 66.311339 
L 220.663352 66.311339 
" clip-path="url(#p42d03af7f2)" style="fill: none; stroke: #dd8452; stroke-width: 1.5; stroke-linecap: square"/>
    <defs>
     <path id="m0262e11583" d="M 0 3.5 
C 0.928211 3.5 1.81853 3.131218 2.474874 2.474874 
C 3.131218 1.81853 3.5 0.928211 3.5 0 
C 3.5 -0.928211 3.131218 -1.81853 2.474874 -2.474874 
C 1.81853 -3.131218 0.928211 -3.5 0 -3.5 
C -0.928211 -3.5 -1.81853 -3.131218 -2.474874 -2.474874 
C -3.131218 -1.81853 -3.5 -0.928211 -3.5 0 
C -3.5 0.928211 -3.131218 1.81853 -2.474874 2.474874 
C -1.81853 3.131218 -0.928211 3.5 0 3.5 
z
" style="stroke: #ffffff; stroke-width: 0.75"/>
    </defs>
    <g clip-path="url(#p42d03af7f2)">
     <use xlink:href="#m0262e11583" x="43.117898" y="65.871235" style="fill: #dd8452; stroke: #ffffff; stroke-width: 0.75"/>
     <use xlink:href="#m0262e11583" x="60.581385" y="92.080487" style="fill: #dd8452; stroke: #ffffff; stroke-width: 0.75"/>
     <use xlink:href="#m0262e11583" x="78.044872" y="86.946925" style="fill: #dd8452; stroke: #ffffff; stroke-width: 0.75"/>
     <use xlink:href="#m0262e11583" x="95.50836" y="83.016012" style="fill: #dd8452; stroke: #ffffff; stroke-width: 0.75"/>
     <use xlink:href="#m0262e11583" x="112.971847" y="79.535455" style="fill: #dd8452; stroke: #ffffff; stroke-width: 0.75"/>
     <use xlink:href="#m0262e11583" x="130.435334" y="76.627164" style="fill: #dd8452; stroke: #ffffff; stroke-width: 0.75"/>
     <use xlink:href="#m0262e11583" x="147.898822" y="74.222128" style="fill: #dd8452; stroke: #ffffff; stroke-width: 0.75"/>
     <use xlink:href="#m0262e11583" x="165.362309" y="71.935416" style="fill: #dd8452; stroke: #ffffff; stroke-width: 0.75"/>
     <use xlink:href="#m0262e11583" x="182.825796" y="69.849782" style="fill: #dd8452; stroke: #ffffff; stroke-width: 0.75"/>
     <use xlink:href="#m0262e11583" x="200.289284" y="68.153684" style="fill: #dd8452; stroke: #ffffff; stroke-width: 0.75"/>
     <use xlink:href="#m0262e11583" x="217.752771" y="66.602255" style="fill: #dd8452; stroke: #ffffff; stroke-width: 0.75"/>
    </g>
   </g>
   <g id="line2d_13">
    <path d="M 43.117898 67.056943 
L 43.602995 77.858477 
L 44.088091 83.120615 
L 44.573188 85.351206 
L 45.058285 88.167387 
L 45.543382 91.916816 
L 46.028479 93.053716 
L 46.513576 92.403419 
L 46.998673 93.549536 
L 47.48377 94.180854 
L 47.968866 95.966379 
L 48.453963 96.100329 
L 48.93906 95.872386 
L 49.424157 95.176088 
L 49.909254 95.423796 
L 50.879448 96.819978 
L 51.364545 96.23172 
L 51.849641 96.095343 
L 52.334738 96.634971 
L 52.819835 96.841866 
L 53.304932 96.625528 
L 54.275126 96.932607 
L 55.245319 96.236302 
L 55.730416 97.024524 
L 56.215513 96.040561 
L 57.670804 96.649555 
L 58.155901 96.004306 
L 59.126094 96.167075 
L 60.096288 95.543278 
L 60.581385 96.080829 
L 61.066482 95.312807 
L 61.551579 95.513651 
L 62.036676 95.528134 
L 62.521773 95.196304 
L 63.006869 95.164366 
L 63.491966 95.488169 
L 63.977063 94.81225 
L 65.917451 94.367969 
L 66.402548 94.639813 
L 66.887644 94.133694 
L 67.857838 94.148426 
L 68.828032 93.635035 
L 69.313129 93.576511 
L 69.798226 93.348685 
L 70.283322 93.390921 
L 70.768419 93.134634 
L 74.164097 92.370999 
L 74.649194 92.087309 
L 75.134291 92.117457 
L 76.104485 91.767014 
L 76.589582 91.842417 
L 77.074679 91.597921 
L 78.044872 91.494446 
L 79.500163 90.847167 
L 79.98526 90.639549 
L 80.470357 90.763014 
L 80.955454 90.707018 
L 81.925647 90.376922 
L 82.410744 90.468737 
L 82.895841 90.216083 
L 86.291519 89.513539 
L 86.776616 89.18363 
L 87.74681 89.406844 
L 88.231907 88.881536 
L 89.2021 88.923329 
L 89.687197 88.604294 
L 90.172294 88.65378 
L 90.657391 88.58978 
L 91.142488 88.350122 
L 91.627585 88.248227 
L 92.112682 87.996015 
L 92.597779 88.045649 
L 93.082875 87.828408 
L 93.567972 87.943527 
L 94.053069 87.901338 
L 94.538166 87.504979 
L 95.50836 87.443717 
L 95.993457 87.17451 
L 96.478553 87.270463 
L 96.96365 87.054032 
L 97.933844 86.868527 
L 99.389135 86.502433 
L 99.874232 86.544102 
L 101.329522 86.191193 
L 102.784813 86.021252 
L 103.26991 85.705935 
L 103.755007 85.559944 
L 104.240103 85.593609 
L 104.7252 85.37892 
L 105.695394 85.262806 
L 106.665588 85.123574 
L 107.150685 84.958697 
L 107.635781 84.988076 
L 108.120878 84.748419 
L 109.576169 84.533722 
L 110.061266 84.404431 
L 110.546363 84.423021 
L 111.516556 84.138468 
L 112.001653 84.163661 
L 112.48675 84.010561 
L 112.971847 84.032185 
L 113.456944 83.831839 
L 114.427138 83.750408 
L 114.912235 83.559474 
L 115.882428 83.514142 
L 116.367525 83.481683 
L 116.852622 83.161272 
L 117.822816 83.10092 
L 118.307913 82.900364 
L 119.278106 82.7686 
L 119.763203 82.569164 
L 120.733397 82.680215 
L 121.703591 82.400989 
L 122.188688 82.420186 
L 122.673784 82.216138 
L 123.158881 82.165774 
L 123.643978 81.968026 
L 125.099269 81.887824 
L 125.584366 81.719812 
L 126.069463 81.760656 
L 132.860819 80.648406 
L 133.345916 80.672923 
L 137.226691 79.997331 
L 137.711787 80.079649 
L 138.196884 79.836538 
L 139.167078 79.635422 
L 139.652175 79.736711 
L 140.622369 79.508433 
L 143.53295 79.168755 
L 144.018047 78.974406 
L 144.503144 79.117791 
L 144.98824 78.864328 
L 152.264694 77.977897 
L 153.234887 77.739904 
L 153.719984 77.82223 
L 155.660372 77.454549 
L 156.630565 77.388146 
L 158.085856 77.235302 
L 158.570953 77.195275 
L 159.05605 77.026898 
L 160.026243 76.963101 
L 163.421922 76.560473 
L 163.907018 76.665581 
L 164.877212 76.378406 
L 166.332503 76.234165 
L 166.8176 76.201465 
L 167.302697 76.057185 
L 169.243084 75.951634 
L 170.698375 75.722602 
L 174.57915 75.293582 
L 175.064246 75.200973 
L 176.03444 75.200833 
L 176.519537 75.120693 
L 177.004634 74.922782 
L 177.974828 74.972828 
L 178.459925 74.963393 
L 178.945021 74.749085 
L 180.400312 74.728628 
L 192.042637 73.5718 
L 193.497928 73.410533 
L 193.983024 73.323206 
L 194.953218 73.336343 
L 195.923412 73.134644 
L 197.378702 73.07269 
L 197.863799 73.060462 
L 198.348896 72.865608 
L 198.833993 72.995125 
L 199.804187 72.785266 
L 200.774381 72.779082 
L 201.744574 72.659343 
L 202.714768 72.631349 
L 203.199865 72.415649 
L 203.684962 72.532463 
L 205.625349 72.285611 
L 206.110446 72.358657 
L 207.08064 72.201053 
L 208.050834 72.121435 
L 209.506124 71.98897 
L 212.416705 71.709737 
L 213.871996 71.683827 
L 214.357093 71.542091 
L 214.84219 71.620683 
L 215.812384 71.483482 
L 216.29748 71.529856 
L 217.267674 71.361883 
L 218.237868 71.374375 
L 219.208062 71.193841 
L 220.178255 71.195801 
L 220.663352 71.110722 
L 220.663352 71.110722 
" clip-path="url(#p42d03af7f2)" style="fill: none; stroke-dasharray: 6,2.25; stroke-dashoffset: 0; stroke: #dd8452; stroke-width: 1.5"/>
    <defs>
     <path id="mf71a799f26" d="M -1.75 3.5 
L 0 1.75 
L 1.75 3.5 
L 3.5 1.75 
L 1.75 0 
L 3.5 -1.75 
L 1.75 -3.5 
L 0 -1.75 
L -1.75 -3.5 
L -3.5 -1.75 
L -1.75 0 
L -3.5 1.75 
z
" style="stroke: #ffffff; stroke-width: 0.75; stroke-linejoin: miter"/>
    </defs>
    <g clip-path="url(#p42d03af7f2)">
     <use xlink:href="#mf71a799f26" x="43.117898" y="67.056943" style="fill: #dd8452; stroke: #ffffff; stroke-width: 0.75; stroke-linejoin: miter"/>
     <use xlink:href="#mf71a799f26" x="60.581385" y="96.080829" style="fill: #dd8452; stroke: #ffffff; stroke-width: 0.75; stroke-linejoin: miter"/>
     <use xlink:href="#mf71a799f26" x="78.044872" y="91.494446" style="fill: #dd8452; stroke: #ffffff; stroke-width: 0.75; stroke-linejoin: miter"/>
     <use xlink:href="#mf71a799f26" x="95.50836" y="87.443717" style="fill: #dd8452; stroke: #ffffff; stroke-width: 0.75; stroke-linejoin: miter"/>
     <use xlink:href="#mf71a799f26" x="112.971847" y="84.032185" style="fill: #dd8452; stroke: #ffffff; stroke-width: 0.75; stroke-linejoin: miter"/>
     <use xlink:href="#mf71a799f26" x="130.435334" y="80.984786" style="fill: #dd8452; stroke: #ffffff; stroke-width: 0.75; stroke-linejoin: miter"/>
     <use xlink:href="#mf71a799f26" x="147.898822" y="78.480741" style="fill: #dd8452; stroke: #ffffff; stroke-width: 0.75; stroke-linejoin: miter"/>
     <use xlink:href="#mf71a799f26" x="165.362309" y="76.362297" style="fill: #dd8452; stroke: #ffffff; stroke-width: 0.75; stroke-linejoin: miter"/>
     <use xlink:href="#mf71a799f26" x="182.825796" y="74.541988" style="fill: #dd8452; stroke: #ffffff; stroke-width: 0.75; stroke-linejoin: miter"/>
     <use xlink:href="#mf71a799f26" x="200.289284" y="72.813851" style="fill: #dd8452; stroke: #ffffff; stroke-width: 0.75; stroke-linejoin: miter"/>
     <use xlink:href="#mf71a799f26" x="217.752771" y="71.381531" style="fill: #dd8452; stroke: #ffffff; stroke-width: 0.75; stroke-linejoin: miter"/>
    </g>
   </g>
   <g id="line2d_14">
    <path d="M 43.117898 65.329009 
L 43.602995 77.957409 
L 44.088091 84.90344 
L 44.573188 88.341955 
L 45.058285 92.965463 
L 45.543382 95.697219 
L 46.028479 96.567673 
L 46.513576 101.991732 
L 46.998673 102.748117 
L 47.48377 104.018776 
L 47.968866 104.60029 
L 49.424157 108.209395 
L 49.909254 110.607492 
L 50.394351 110.326341 
L 50.879448 112.357493 
L 51.364545 113.299449 
L 51.849641 113.719272 
L 52.819835 115.805264 
L 53.304932 116.514809 
L 53.790029 117.675044 
L 54.275126 117.841756 
L 54.760223 117.229608 
L 55.245319 118.91016 
L 55.730416 118.388442 
L 56.215513 119.308903 
L 56.70061 120.842458 
L 57.185707 121.05288 
L 57.670804 119.715821 
L 58.155901 121.518882 
L 58.640998 121.789221 
L 59.611191 123.151003 
L 60.096288 123.031544 
L 60.581385 123.308191 
L 61.066482 124.707881 
L 61.551579 123.967721 
L 62.521773 125.845146 
L 63.006869 125.197929 
L 63.977063 126.832843 
L 64.46216 126.695101 
L 64.947257 127.160605 
L 65.432354 127.856277 
L 65.917451 127.425631 
L 66.402548 127.415562 
L 66.887644 126.713543 
L 67.372741 127.977545 
L 67.857838 128.019512 
L 68.342935 129.171607 
L 68.828032 129.230629 
L 69.313129 129.537615 
L 69.798226 128.991629 
L 70.283322 130.310529 
L 70.768419 129.567356 
L 72.22371 130.400388 
L 72.708807 131.38811 
L 73.193904 130.969241 
L 73.679001 131.604666 
L 74.164097 132.524701 
L 74.649194 130.610949 
L 75.134291 130.762764 
L 75.619388 132.035665 
L 76.104485 132.441706 
L 76.589582 131.905785 
L 77.074679 133.103152 
L 77.559776 132.82683 
L 78.044872 133.958676 
L 78.529969 133.377747 
L 79.015066 132.468542 
L 79.500163 133.538974 
L 79.98526 133.72933 
L 80.470357 133.365584 
L 80.955454 133.344301 
L 81.44055 132.690315 
L 81.925647 133.621636 
L 82.895841 134.759423 
L 83.380938 133.302996 
L 84.351132 134.804613 
L 84.836229 133.801923 
L 85.321325 134.473885 
L 85.806422 133.415499 
L 86.291519 134.018654 
L 86.776616 135.285284 
L 87.261713 135.844395 
L 87.74681 135.440957 
L 88.231907 134.762894 
L 88.717004 135.729143 
L 89.2021 135.507374 
L 89.687197 135.02842 
L 90.172294 135.544193 
L 90.657391 136.537976 
L 91.142488 136.736402 
L 91.627585 136.464051 
L 92.112682 134.143078 
L 93.082875 136.20103 
L 93.567972 134.994393 
L 94.053069 136.510532 
L 94.538166 136.060139 
L 95.023263 136.269549 
L 95.50836 137.500385 
L 95.993457 137.179501 
L 96.478553 136.257275 
L 96.96365 136.236108 
L 97.448747 136.962786 
L 98.418941 136.730948 
L 98.904038 137.067289 
L 99.389135 137.695877 
L 99.874232 136.292952 
L 100.359328 137.264261 
L 101.329522 136.327165 
L 101.814619 136.189718 
L 102.299716 136.487553 
L 102.784813 137.494388 
L 103.26991 137.093574 
L 103.755007 137.158268 
L 104.240103 137.989164 
L 104.7252 137.749818 
L 105.210297 137.225854 
L 105.695394 138.232217 
L 106.180491 137.417875 
L 106.665588 137.473062 
L 107.150685 137.193339 
L 107.635781 137.47265 
L 108.120878 138.375477 
L 108.605975 136.79656 
L 109.091072 137.895492 
L 109.576169 138.004423 
L 110.061266 136.9841 
L 110.546363 138.228823 
L 111.03146 137.019974 
L 111.516556 138.094581 
L 112.001653 138.63942 
L 113.942041 137.642281 
L 114.427138 138.106599 
L 114.912235 137.605764 
L 115.397331 137.968493 
L 115.882428 138.092112 
L 116.367525 137.778596 
L 117.337719 138.754603 
L 117.822816 138.741435 
L 118.307913 139.440842 
L 118.79301 138.247373 
L 119.278106 138.864132 
L 119.763203 138.59543 
L 120.2483 138.66183 
L 120.733397 138.417019 
L 121.218494 137.887284 
L 121.703591 139.081243 
L 122.188688 138.477109 
L 122.673784 138.390933 
L 123.158881 139.132952 
L 123.643978 138.502973 
L 124.129075 138.382997 
L 124.614172 138.781507 
L 125.584366 138.813748 
L 126.069463 139.094043 
L 127.039656 138.890663 
L 127.524753 138.508405 
L 128.00985 139.159937 
L 128.494947 138.990021 
L 128.980044 138.506427 
L 129.465141 138.509472 
L 129.950238 139.126449 
L 130.435334 138.424434 
L 130.920431 138.597818 
L 131.405528 138.149469 
L 131.890625 139.08866 
L 132.375722 138.749124 
L 132.860819 138.693555 
L 133.345916 138.823358 
L 133.831012 138.468844 
L 134.316109 139.5 
L 134.801206 138.627329 
L 135.286303 138.996668 
L 136.256497 139.249169 
L 136.741594 138.707033 
L 137.226691 138.583914 
L 137.711787 138.794868 
L 138.196884 138.229848 
L 138.681981 139.155651 
L 139.167078 139.252172 
L 139.652175 138.138266 
L 140.137272 138.71445 
L 140.622369 138.846844 
L 141.592562 139.497484 
L 142.077659 139.279363 
L 142.562756 138.540387 
L 143.047853 138.358365 
L 144.503144 139.09007 
L 144.98824 138.872124 
L 145.473337 138.794076 
L 145.958434 138.581952 
L 146.443531 139.003742 
L 146.928628 138.620616 
L 147.413725 139.398441 
L 147.898822 138.619098 
L 148.383919 138.106613 
L 148.869015 138.462612 
L 149.354112 139.295938 
L 149.839209 138.673141 
L 150.324306 138.711127 
L 150.809403 138.179738 
L 151.2945 138.276518 
L 151.779597 139.38891 
L 152.264694 138.649069 
L 152.74979 138.82593 
L 153.719984 138.549847 
L 154.205081 138.744315 
L 155.175275 138.519213 
L 155.660372 138.998311 
L 156.145469 138.791657 
L 156.630565 138.809847 
L 157.115662 138.461196 
L 157.600759 139.106651 
L 158.085856 138.379213 
L 158.570953 138.303717 
L 159.541147 138.325049 
L 160.026243 138.603928 
L 160.996437 138.802901 
L 161.481534 139.227794 
L 161.966631 138.901152 
L 162.451728 138.378027 
L 162.936825 138.937473 
L 163.421922 138.667869 
L 163.907018 139.001104 
L 164.877212 138.160915 
L 165.362309 138.351917 
L 165.847406 138.746946 
L 166.332503 138.135322 
L 166.8176 138.049691 
L 167.302697 138.659047 
L 167.787793 137.928363 
L 168.757987 138.645081 
L 169.243084 137.975558 
L 169.728181 138.47286 
L 170.213278 138.049514 
L 170.698375 138.155262 
L 171.183471 138.05998 
L 171.668568 138.218785 
L 172.153665 137.899128 
L 172.638762 138.604947 
L 173.123859 138.204205 
L 173.608956 137.383724 
L 174.57915 138.253193 
L 175.064246 137.854788 
L 175.549343 138.039472 
L 176.03444 137.731953 
L 176.519537 138.129333 
L 177.004634 137.380263 
L 177.489731 137.840142 
L 177.974828 137.810409 
L 178.459925 137.937998 
L 179.915215 137.996573 
L 180.400312 138.053605 
L 180.885409 138.3203 
L 181.370506 137.561601 
L 182.3407 138.044172 
L 182.825796 137.883992 
L 183.310893 138.184814 
L 183.79599 137.945152 
L 184.766184 137.75156 
L 185.251281 138.311324 
L 186.221474 137.629828 
L 186.706571 137.990261 
L 187.191668 137.586929 
L 187.676765 137.869894 
L 188.161862 137.801054 
L 188.646959 138.033347 
L 189.132056 137.573243 
L 189.617153 138.30123 
L 190.102249 137.336955 
L 191.072443 137.977685 
L 191.55754 137.94663 
L 192.042637 137.692474 
L 192.527734 137.143698 
L 193.012831 137.489682 
L 193.497928 138.142239 
L 193.983024 137.49567 
L 194.468121 137.439098 
L 194.953218 137.638402 
L 195.438315 137.220363 
L 195.923412 137.706512 
L 196.408509 137.323829 
L 196.893606 137.626769 
L 198.833993 137.683415 
L 199.31909 137.886203 
L 200.774381 137.308798 
L 201.744574 137.750038 
L 202.714768 137.217481 
L 203.199865 137.431446 
L 204.170059 137.301992 
L 205.140252 137.885921 
L 205.625349 137.074679 
L 206.110446 137.361762 
L 206.595543 137.318443 
L 207.565737 137.592436 
L 208.050834 137.387822 
L 208.535931 137.724064 
L 209.021027 137.246537 
L 209.991221 137.685606 
L 210.961415 137.650822 
L 211.931609 137.283705 
L 212.416705 137.396057 
L 212.901802 137.860116 
L 213.386899 137.457253 
L 213.871996 137.271328 
L 214.357093 137.506289 
L 214.84219 137.346585 
L 215.327287 137.358342 
L 215.812384 137.50907 
L 216.29748 137.193815 
L 216.782577 137.500949 
L 217.267674 137.430694 
L 217.752771 137.509085 
L 218.722965 137.811912 
L 219.208062 137.443672 
L 220.178255 137.718485 
L 220.663352 137.759436 
L 220.663352 137.759436 
" clip-path="url(#p42d03af7f2)" style="fill: none; stroke-dasharray: 1.5,1.5; stroke-dashoffset: 0; stroke: #dd8452; stroke-width: 1.5"/>
    <defs>
     <path id="macf291797d" d="M -2.474874 -2.474874 
L -2.474874 2.474874 
L 2.474874 2.474874 
L 2.474874 -2.474874 
z
" style="stroke: #ffffff; stroke-width: 0.75; stroke-linejoin: miter"/>
    </defs>
    <g clip-path="url(#p42d03af7f2)">
     <use xlink:href="#macf291797d" x="43.117898" y="65.329009" style="fill: #dd8452; stroke: #ffffff; stroke-width: 0.75; stroke-linejoin: miter"/>
     <use xlink:href="#macf291797d" x="60.581385" y="123.308191" style="fill: #dd8452; stroke: #ffffff; stroke-width: 0.75; stroke-linejoin: miter"/>
     <use xlink:href="#macf291797d" x="78.044872" y="133.958676" style="fill: #dd8452; stroke: #ffffff; stroke-width: 0.75; stroke-linejoin: miter"/>
     <use xlink:href="#macf291797d" x="95.50836" y="137.500385" style="fill: #dd8452; stroke: #ffffff; stroke-width: 0.75; stroke-linejoin: miter"/>
     <use xlink:href="#macf291797d" x="112.971847" y="138.073837" style="fill: #dd8452; stroke: #ffffff; stroke-width: 0.75; stroke-linejoin: miter"/>
     <use xlink:href="#macf291797d" x="130.435334" y="138.424434" style="fill: #dd8452; stroke: #ffffff; stroke-width: 0.75; stroke-linejoin: miter"/>
     <use xlink:href="#macf291797d" x="147.898822" y="138.619098" style="fill: #dd8452; stroke: #ffffff; stroke-width: 0.75; stroke-linejoin: miter"/>
     <use xlink:href="#macf291797d" x="165.362309" y="138.351917" style="fill: #dd8452; stroke: #ffffff; stroke-width: 0.75; stroke-linejoin: miter"/>
     <use xlink:href="#macf291797d" x="182.825796" y="137.883992" style="fill: #dd8452; stroke: #ffffff; stroke-width: 0.75; stroke-linejoin: miter"/>
     <use xlink:href="#macf291797d" x="200.289284" y="137.44042" style="fill: #dd8452; stroke: #ffffff; stroke-width: 0.75; stroke-linejoin: miter"/>
     <use xlink:href="#macf291797d" x="217.752771" y="137.509085" style="fill: #dd8452; stroke: #ffffff; stroke-width: 0.75; stroke-linejoin: miter"/>
    </g>
   </g>
   <g id="line2d_15">
    <path d="M 43.117898 65.276257 
L 43.602995 75.731881 
L 44.088091 83.054063 
L 44.573188 86.464849 
L 46.028479 92.839836 
L 46.998673 92.528315 
L 47.48377 93.124709 
L 47.968866 90.977493 
L 48.453963 93.543741 
L 48.93906 93.17687 
L 49.424157 93.089558 
L 50.394351 93.573773 
L 50.879448 93.521635 
L 52.334738 93.717882 
L 52.819835 93.55376 
L 53.304932 94.05 
L 53.790029 94.119382 
L 54.760223 93.41207 
L 55.245319 93.758041 
L 56.215513 93.038027 
L 56.70061 93.755684 
L 57.185707 93.494668 
L 57.670804 93.580035 
L 58.155901 93.032963 
L 58.640998 92.925631 
L 59.126094 93.052083 
L 59.611191 92.705365 
L 60.096288 92.736626 
L 60.581385 92.429251 
L 61.066482 92.540947 
L 61.551579 92.832501 
L 62.036676 92.304813 
L 63.491966 92.363796 
L 64.46216 91.697935 
L 64.947257 91.752398 
L 65.432354 91.339067 
L 65.917451 91.40288 
L 66.402548 91.144322 
L 66.887644 91.166311 
L 67.372741 91.02848 
L 67.857838 90.744455 
L 68.828032 90.561424 
L 69.313129 90.106634 
L 69.798226 90.157668 
L 70.283322 89.873464 
L 73.679001 88.801085 
L 74.164097 88.853355 
L 74.649194 88.358616 
L 75.134291 88.306525 
L 75.619388 88.450711 
L 76.104485 88.264724 
L 76.589582 87.951321 
L 77.074679 87.925917 
L 77.559776 87.65825 
L 78.529969 87.611775 
L 80.955454 86.860912 
L 81.44055 86.882722 
L 82.410744 86.511806 
L 82.895841 86.431122 
L 83.866035 86.08953 
L 84.351132 86.174018 
L 84.836229 85.801943 
L 86.291519 85.618608 
L 86.776616 85.279957 
L 87.261713 85.136657 
L 87.74681 85.158911 
L 88.717004 84.769591 
L 89.2021 84.834322 
L 90.172294 84.32944 
L 90.657391 84.46553 
L 91.142488 84.4044 
L 92.112682 83.968426 
L 92.597779 83.767886 
L 93.082875 83.907172 
L 94.053069 83.628779 
L 94.538166 83.432999 
L 95.023263 83.43527 
L 97.933844 82.698253 
L 98.418941 82.731909 
L 98.904038 82.417549 
L 99.389135 82.428563 
L 100.359328 82.069229 
L 100.844425 82.113589 
L 102.784813 81.557938 
L 103.26991 81.67133 
L 103.755007 81.478506 
L 104.7252 81.399129 
L 105.210297 81.20975 
L 105.695394 81.15062 
L 106.180491 80.944705 
L 107.150685 80.827727 
L 107.635781 80.567511 
L 109.576169 80.216741 
L 110.061266 80.026989 
L 110.546363 80.108047 
L 111.03146 79.897823 
L 112.001653 79.812791 
L 112.48675 79.65584 
L 112.971847 79.642111 
L 113.456944 79.460371 
L 114.427138 79.38927 
L 114.912235 79.237795 
L 115.397331 79.204504 
L 115.882428 78.992351 
L 116.367525 79.069683 
L 121.703591 78.032088 
L 122.188688 78.073912 
L 124.614172 77.599327 
L 125.099269 77.573604 
L 125.584366 77.354139 
L 127.524753 77.241595 
L 128.00985 76.987766 
L 129.465141 76.863328 
L 130.435334 76.625639 
L 130.920431 76.696608 
L 131.405528 76.492498 
L 139.167078 75.355528 
L 139.652175 75.140925 
L 140.137272 75.295518 
L 141.592562 74.959364 
L 142.077659 74.98308 
L 143.047853 74.756202 
L 146.928628 74.166825 
L 148.383919 74.057236 
L 153.234887 73.313879 
L 154.205081 73.327328 
L 155.660372 73.008433 
L 157.600759 72.831516 
L 158.570953 72.666001 
L 162.936825 72.133895 
L 165.362309 71.876356 
L 165.847406 71.759176 
L 166.332503 71.804438 
L 166.8176 71.640463 
L 167.787793 71.560806 
L 169.243084 71.34656 
L 169.728181 71.405349 
L 171.183471 71.165232 
L 173.123859 70.929744 
L 173.608956 70.976196 
L 175.064246 70.689146 
L 175.549343 70.754997 
L 178.459925 70.303467 
L 179.915215 70.170084 
L 180.400312 70.181627 
L 181.370506 69.964045 
L 181.855603 70.055168 
L 182.3407 69.92415 
L 182.825796 69.918028 
L 183.310893 69.769191 
L 183.79599 69.814165 
L 185.251281 69.635987 
L 186.706571 69.52023 
L 190.587346 69.007804 
L 191.072443 69.066584 
L 192.042637 68.956397 
L 193.012831 68.872306 
L 195.438315 68.567155 
L 195.923412 68.625041 
L 197.378702 68.374207 
L 202.714768 67.920942 
L 203.684962 67.802626 
L 205.625349 67.610183 
L 206.110446 67.636458 
L 206.595543 67.502329 
L 207.08064 67.531218 
L 207.565737 67.392289 
L 208.535931 67.397664 
L 209.021027 67.276245 
L 209.991221 67.260649 
L 212.416705 66.980249 
L 212.901802 66.925467 
L 213.386899 66.986557 
L 217.267674 66.507624 
L 218.237868 66.500157 
L 219.208062 66.388772 
L 220.663352 66.265773 
L 220.663352 66.265773 
" clip-path="url(#p42d03af7f2)" style="fill: none; stroke: #55a868; stroke-width: 1.5; stroke-linecap: square"/>
    <defs>
     <path id="m9e4ae4dcd6" d="M 0 3.5 
C 0.928211 3.5 1.81853 3.131218 2.474874 2.474874 
C 3.131218 1.81853 3.5 0.928211 3.5 0 
C 3.5 -0.928211 3.131218 -1.81853 2.474874 -2.474874 
C 1.81853 -3.131218 0.928211 -3.5 0 -3.5 
C -0.928211 -3.5 -1.81853 -3.131218 -2.474874 -2.474874 
C -3.131218 -1.81853 -3.5 -0.928211 -3.5 0 
C -3.5 0.928211 -3.131218 1.81853 -2.474874 2.474874 
C -1.81853 3.131218 -0.928211 3.5 0 3.5 
z
" style="stroke: #ffffff; stroke-width: 0.75"/>
    </defs>
    <g clip-path="url(#p42d03af7f2)">
     <use xlink:href="#m9e4ae4dcd6" x="43.117898" y="65.276257" style="fill: #55a868; stroke: #ffffff; stroke-width: 0.75"/>
     <use xlink:href="#m9e4ae4dcd6" x="60.581385" y="92.429251" style="fill: #55a868; stroke: #ffffff; stroke-width: 0.75"/>
     <use xlink:href="#m9e4ae4dcd6" x="78.044872" y="87.635475" style="fill: #55a868; stroke: #ffffff; stroke-width: 0.75"/>
     <use xlink:href="#m9e4ae4dcd6" x="95.50836" y="83.296381" style="fill: #55a868; stroke: #ffffff; stroke-width: 0.75"/>
     <use xlink:href="#m9e4ae4dcd6" x="112.971847" y="79.642111" style="fill: #55a868; stroke: #ffffff; stroke-width: 0.75"/>
     <use xlink:href="#m9e4ae4dcd6" x="130.435334" y="76.625639" style="fill: #55a868; stroke: #ffffff; stroke-width: 0.75"/>
     <use xlink:href="#m9e4ae4dcd6" x="147.898822" y="74.115247" style="fill: #55a868; stroke: #ffffff; stroke-width: 0.75"/>
     <use xlink:href="#m9e4ae4dcd6" x="165.362309" y="71.876356" style="fill: #55a868; stroke: #ffffff; stroke-width: 0.75"/>
     <use xlink:href="#m9e4ae4dcd6" x="182.825796" y="69.918028" style="fill: #55a868; stroke: #ffffff; stroke-width: 0.75"/>
     <use xlink:href="#m9e4ae4dcd6" x="200.289284" y="68.143533" style="fill: #55a868; stroke: #ffffff; stroke-width: 0.75"/>
     <use xlink:href="#m9e4ae4dcd6" x="217.752771" y="66.556651" style="fill: #55a868; stroke: #ffffff; stroke-width: 0.75"/>
    </g>
   </g>
   <g id="line2d_16">
    <path d="M 43.117898 65.356809 
L 43.602995 76.085747 
L 44.573188 87.991372 
L 45.058285 89.230136 
L 45.543382 92.009673 
L 46.028479 92.182717 
L 46.513576 94.421593 
L 46.998673 94.436963 
L 47.48377 94.659422 
L 48.453963 95.983608 
L 48.93906 96.012061 
L 49.424157 96.41815 
L 49.909254 96.529015 
L 50.394351 96.872255 
L 50.879448 97.416145 
L 51.849641 97.822694 
L 52.334738 97.654636 
L 52.819835 97.704297 
L 53.304932 98.129622 
L 53.790029 97.683801 
L 54.275126 97.491945 
L 54.760223 97.942355 
L 55.245319 97.54231 
L 56.215513 97.487605 
L 57.185707 97.617607 
L 57.670804 97.054217 
L 58.640998 97.419778 
L 59.611191 96.637242 
L 60.096288 96.555243 
L 60.581385 96.658842 
L 61.066482 95.990142 
L 62.521773 96.278475 
L 63.006869 95.725267 
L 63.491966 96.264062 
L 63.977063 95.696347 
L 64.947257 95.688639 
L 65.432354 95.30226 
L 65.917451 95.31171 
L 66.402548 94.836013 
L 67.372741 95.018951 
L 67.857838 94.571449 
L 68.342935 94.656762 
L 69.313129 94.211477 
L 69.798226 94.277842 
L 70.283322 94.038822 
L 70.768419 93.947707 
L 71.738613 93.472811 
L 72.708807 93.274122 
L 77.074679 92.093819 
L 77.559776 92.146649 
L 78.044872 91.554798 
L 78.529969 91.799465 
L 79.015066 91.776931 
L 79.98526 91.158898 
L 80.955454 91.031498 
L 82.895841 90.402544 
L 84.351132 90.023344 
L 85.321325 89.783578 
L 86.291519 89.794724 
L 87.74681 89.177391 
L 88.231907 89.196308 
L 90.172294 88.683742 
L 90.657391 88.703817 
L 92.112682 88.080962 
L 92.597779 88.270581 
L 93.082875 87.962623 
L 94.053069 87.760885 
L 94.538166 87.779638 
L 95.023263 87.421588 
L 95.50836 87.469798 
L 95.993457 87.306142 
L 96.478553 87.283274 
L 97.448747 87.007611 
L 98.904038 86.78295 
L 99.389135 86.44447 
L 99.874232 86.505273 
L 100.359328 86.364952 
L 100.844425 86.341563 
L 101.329522 86.119547 
L 101.814619 86.159753 
L 107.150685 84.96086 
L 107.635781 85.003959 
L 109.091072 84.661955 
L 109.576169 84.662352 
L 110.061266 84.412559 
L 113.942041 83.805486 
L 114.912235 83.52497 
L 115.397331 83.460425 
L 115.882428 83.532079 
L 116.852622 83.329361 
L 117.337719 83.251516 
L 117.822816 83.032549 
L 118.79301 82.928117 
L 119.278106 82.913315 
L 119.763203 82.608888 
L 120.2483 82.582053 
L 120.733397 82.736195 
L 121.218494 82.4778 
L 122.188688 82.268898 
L 123.158881 82.288523 
L 123.643978 82.255722 
L 124.614172 81.956296 
L 125.099269 81.953154 
L 125.584366 81.732919 
L 126.069463 81.866356 
L 127.039656 81.523768 
L 129.465141 81.32014 
L 130.920431 80.876333 
L 131.890625 80.942667 
L 132.860819 80.818338 
L 133.345916 80.497919 
L 133.831012 80.687725 
L 134.316109 80.399765 
L 134.801206 80.439107 
L 136.256497 80.279629 
L 137.226691 80.106149 
L 137.711787 79.968847 
L 138.196884 79.987592 
L 139.167078 79.789922 
L 140.137272 79.74613 
L 140.622369 79.674033 
L 141.107466 79.42001 
L 142.562756 79.390468 
L 143.047853 79.258369 
L 143.53295 79.378847 
L 144.98824 78.983997 
L 148.383919 78.564272 
L 148.869015 78.626755 
L 149.354112 78.410005 
L 152.264694 78.141482 
L 152.74979 77.973028 
L 154.690178 77.76719 
L 155.175275 77.623611 
L 155.660372 77.75746 
L 160.51134 77.066225 
L 160.996437 77.116932 
L 161.966631 76.926815 
L 163.421922 76.704192 
L 163.907018 76.741583 
L 164.392115 76.559166 
L 164.877212 76.613731 
L 167.302697 76.198696 
L 168.27289 76.162247 
L 170.213278 75.985889 
L 171.668568 75.73269 
L 172.153665 75.763718 
L 173.608956 75.503596 
L 175.064246 75.495724 
L 175.549343 75.352214 
L 176.03444 75.325714 
L 176.519537 75.179365 
L 178.945021 75.049965 
L 187.191668 74.164429 
L 187.676765 74.167672 
L 188.646959 73.97684 
L 189.617153 73.988157 
L 190.587346 73.832739 
L 192.527734 73.624475 
L 193.983024 73.529961 
L 194.953218 73.435096 
L 196.893606 73.245275 
L 197.378702 73.125551 
L 198.348896 73.172882 
L 199.31909 73.021781 
L 199.804187 73.007445 
L 200.289284 72.879197 
L 202.229671 72.758096 
L 204.655156 72.498814 
L 205.625349 72.442881 
L 206.110446 72.30298 
L 206.595543 72.417399 
L 207.08064 72.26293 
L 210.961415 71.907866 
L 212.416705 71.78829 
L 214.357093 71.665953 
L 215.327287 71.515948 
L 216.29748 71.490887 
L 217.267674 71.343713 
L 217.752771 71.402852 
L 219.208062 71.229746 
L 219.693159 71.24846 
L 220.178255 71.13965 
L 220.663352 71.145841 
L 220.663352 71.145841 
" clip-path="url(#p42d03af7f2)" style="fill: none; stroke-dasharray: 6,2.25; stroke-dashoffset: 0; stroke: #55a868; stroke-width: 1.5"/>
    <defs>
     <path id="mca448d0f71" d="M -1.75 3.5 
L 0 1.75 
L 1.75 3.5 
L 3.5 1.75 
L 1.75 0 
L 3.5 -1.75 
L 1.75 -3.5 
L 0 -1.75 
L -1.75 -3.5 
L -3.5 -1.75 
L -1.75 0 
L -3.5 1.75 
z
" style="stroke: #ffffff; stroke-width: 0.75; stroke-linejoin: miter"/>
    </defs>
    <g clip-path="url(#p42d03af7f2)">
     <use xlink:href="#mca448d0f71" x="43.117898" y="65.356809" style="fill: #55a868; stroke: #ffffff; stroke-width: 0.75; stroke-linejoin: miter"/>
     <use xlink:href="#mca448d0f71" x="60.581385" y="96.658842" style="fill: #55a868; stroke: #ffffff; stroke-width: 0.75; stroke-linejoin: miter"/>
     <use xlink:href="#mca448d0f71" x="78.044872" y="91.554798" style="fill: #55a868; stroke: #ffffff; stroke-width: 0.75; stroke-linejoin: miter"/>
     <use xlink:href="#mca448d0f71" x="95.50836" y="87.469798" style="fill: #55a868; stroke: #ffffff; stroke-width: 0.75; stroke-linejoin: miter"/>
     <use xlink:href="#mca448d0f71" x="112.971847" y="83.914476" style="fill: #55a868; stroke: #ffffff; stroke-width: 0.75; stroke-linejoin: miter"/>
     <use xlink:href="#mca448d0f71" x="130.435334" y="81.128164" style="fill: #55a868; stroke: #ffffff; stroke-width: 0.75; stroke-linejoin: miter"/>
     <use xlink:href="#mca448d0f71" x="147.898822" y="78.666697" style="fill: #55a868; stroke: #ffffff; stroke-width: 0.75; stroke-linejoin: miter"/>
     <use xlink:href="#mca448d0f71" x="165.362309" y="76.524762" style="fill: #55a868; stroke: #ffffff; stroke-width: 0.75; stroke-linejoin: miter"/>
     <use xlink:href="#mca448d0f71" x="182.825796" y="74.577402" style="fill: #55a868; stroke: #ffffff; stroke-width: 0.75; stroke-linejoin: miter"/>
     <use xlink:href="#mca448d0f71" x="200.289284" y="72.879197" style="fill: #55a868; stroke: #ffffff; stroke-width: 0.75; stroke-linejoin: miter"/>
     <use xlink:href="#mca448d0f71" x="217.752771" y="71.402852" style="fill: #55a868; stroke: #ffffff; stroke-width: 0.75; stroke-linejoin: miter"/>
    </g>
   </g>
   <g id="line2d_17">
    <path d="M 43.117898 66.767435 
L 43.602995 79.699188 
L 44.573188 89.502633 
L 45.058285 91.620743 
L 45.543382 95.500389 
L 46.028479 97.192434 
L 46.513576 100.688209 
L 46.998673 101.843481 
L 48.453963 107.044232 
L 48.93906 107.875908 
L 49.424157 108.460478 
L 49.909254 109.641213 
L 50.394351 109.508375 
L 50.879448 111.223806 
L 51.364545 112.507669 
L 51.849641 112.947302 
L 52.334738 115.842911 
L 52.819835 114.901807 
L 53.304932 116.603909 
L 53.790029 116.647425 
L 54.275126 117.039226 
L 54.760223 117.282955 
L 55.245319 120.110068 
L 55.730416 119.501148 
L 56.215513 118.410268 
L 56.70061 119.287513 
L 57.185707 120.427073 
L 57.670804 120.318262 
L 58.155901 122.463479 
L 58.640998 122.131365 
L 59.126094 123.510547 
L 59.611191 123.275332 
L 60.096288 123.634207 
L 60.581385 123.484101 
L 61.066482 125.066624 
L 61.551579 123.130507 
L 62.036676 123.803109 
L 62.521773 123.916999 
L 63.006869 125.252782 
L 63.491966 125.272675 
L 63.977063 127.746381 
L 64.46216 126.678261 
L 64.947257 126.289455 
L 65.432354 126.880345 
L 66.402548 126.070052 
L 66.887644 127.31416 
L 67.372741 127.75274 
L 67.857838 128.421973 
L 68.342935 129.349361 
L 69.313129 128.097665 
L 69.798226 128.933012 
L 70.283322 128.867102 
L 70.768419 129.220999 
L 71.253516 130.701636 
L 71.738613 129.74591 
L 72.22371 130.380874 
L 72.708807 130.582574 
L 73.193904 130.258283 
L 73.679001 129.760464 
L 74.164097 130.16237 
L 74.649194 130.737409 
L 75.134291 132.316135 
L 75.619388 131.371223 
L 76.104485 131.121524 
L 76.589582 131.248367 
L 77.074679 132.27885 
L 77.559776 131.454615 
L 78.044872 131.406484 
L 79.015066 132.779067 
L 79.500163 132.219863 
L 79.98526 132.739273 
L 80.470357 132.037159 
L 80.955454 132.986884 
L 81.44055 132.619429 
L 81.925647 133.374043 
L 82.410744 133.201396 
L 82.895841 133.768782 
L 83.380938 133.307371 
L 83.866035 132.40223 
L 84.351132 133.524148 
L 84.836229 132.792444 
L 85.321325 134.05128 
L 85.806422 133.619699 
L 86.291519 133.747401 
L 86.776616 134.202955 
L 87.261713 133.35863 
L 87.74681 133.984789 
L 88.231907 134.145197 
L 88.717004 133.949526 
L 89.2021 134.351538 
L 89.687197 133.859599 
L 90.172294 134.090722 
L 90.657391 134.720963 
L 91.142488 134.464084 
L 91.627585 134.341438 
L 93.567972 135.506721 
L 94.053069 133.912432 
L 94.538166 134.031725 
L 95.023263 134.547732 
L 95.50836 134.502155 
L 95.993457 136.296843 
L 96.478553 135.379163 
L 96.96365 134.732002 
L 97.933844 135.056709 
L 98.418941 135.418513 
L 98.904038 136.151027 
L 99.389135 134.895344 
L 99.874232 136.716885 
L 100.359328 134.786709 
L 100.844425 136.561348 
L 101.329522 136.191416 
L 102.299716 135.785066 
L 102.784813 135.837629 
L 103.26991 136.673593 
L 104.240103 135.161526 
L 104.7252 136.425537 
L 105.210297 136.625898 
L 105.695394 136.017683 
L 106.180491 136.675465 
L 106.665588 136.409974 
L 107.150685 136.668119 
L 107.635781 137.123396 
L 108.120878 136.500109 
L 108.605975 136.713569 
L 109.091072 136.014387 
L 110.061266 137.730355 
L 110.546363 136.745165 
L 111.03146 136.615088 
L 111.516556 137.763794 
L 112.001653 136.937149 
L 112.48675 137.079229 
L 112.971847 137.058724 
L 113.456944 136.62104 
L 113.942041 137.591916 
L 114.427138 136.892678 
L 114.912235 138.090809 
L 115.397331 137.299857 
L 115.882428 137.084734 
L 116.367525 137.640336 
L 116.852622 136.590542 
L 117.337719 136.921987 
L 117.822816 137.093716 
L 118.307913 137.757851 
L 118.79301 137.148003 
L 119.278106 137.350941 
L 119.763203 137.430631 
L 120.2483 137.00573 
L 120.733397 136.98411 
L 121.218494 137.319956 
L 121.703591 136.730917 
L 122.188688 137.463409 
L 122.673784 136.883671 
L 124.129075 136.794893 
L 124.614172 137.80575 
L 125.099269 137.458342 
L 126.554559 137.326601 
L 127.039656 137.76695 
L 128.00985 137.389578 
L 128.494947 137.997477 
L 128.980044 137.28558 
L 129.465141 136.892453 
L 129.950238 138.01708 
L 130.435334 138.173043 
L 130.920431 137.547708 
L 131.405528 137.417626 
L 131.890625 137.410157 
L 132.375722 137.943715 
L 132.860819 137.093508 
L 133.345916 137.957329 
L 133.831012 137.899856 
L 134.316109 138.572856 
L 134.801206 137.068882 
L 135.286303 137.697486 
L 135.7714 137.367326 
L 136.256497 138.252767 
L 136.741594 137.794607 
L 137.226691 138.48596 
L 137.711787 137.391429 
L 138.196884 138.62575 
L 138.681981 138.113236 
L 139.167078 138.267964 
L 139.652175 138.915291 
L 140.137272 137.635076 
L 140.622369 137.661285 
L 141.107466 138.308609 
L 141.592562 137.621952 
L 142.077659 137.659619 
L 142.562756 137.483374 
L 144.018047 138.987245 
L 144.503144 137.561163 
L 145.473337 138.512095 
L 145.958434 137.902907 
L 146.443531 137.76932 
L 146.928628 138.012242 
L 147.413725 138.600181 
L 147.898822 138.031147 
L 148.383919 138.088053 
L 148.869015 137.810479 
L 149.354112 137.717003 
L 150.324306 138.19807 
L 151.2945 138.235411 
L 151.779597 138.66785 
L 152.264694 138.205449 
L 152.74979 137.897462 
L 153.234887 138.471098 
L 154.205081 138.310196 
L 154.690178 138.47426 
L 155.175275 137.965407 
L 155.660372 138.370497 
L 156.145469 138.44429 
L 156.630565 138.292603 
L 158.085856 138.46652 
L 158.570953 138.23414 
L 159.05605 138.360823 
L 159.541147 138.789777 
L 160.026243 138.175466 
L 160.51134 138.193595 
L 160.996437 138.035075 
L 161.481534 138.132285 
L 161.966631 138.481394 
L 162.451728 138.180417 
L 162.936825 138.529394 
L 163.421922 138.385539 
L 163.907018 138.037683 
L 164.392115 137.845623 
L 164.877212 138.438025 
L 165.847406 138.154712 
L 166.332503 138.848316 
L 166.8176 137.977806 
L 167.302697 137.929186 
L 167.787793 138.326353 
L 168.757987 138.245103 
L 169.243084 138.426653 
L 169.728181 138.464642 
L 170.213278 138.36261 
L 170.698375 138.431615 
L 171.183471 138.356708 
L 171.668568 139.034266 
L 172.153665 138.445741 
L 173.608956 138.556241 
L 174.094053 138.150566 
L 174.57915 138.220934 
L 175.064246 139.009922 
L 175.549343 138.140736 
L 176.519537 138.399009 
L 177.004634 138.444634 
L 177.489731 137.831255 
L 177.974828 138.120954 
L 178.459925 138.745763 
L 178.945021 138.170083 
L 179.430118 138.106587 
L 179.915215 138.298021 
L 180.400312 138.252763 
L 181.370506 138.698403 
L 181.855603 138.329953 
L 182.3407 138.289727 
L 182.825796 138.502686 
L 183.310893 138.9314 
L 183.79599 138.141611 
L 185.251281 138.345613 
L 185.736378 138.184088 
L 186.706571 138.856769 
L 187.191668 138.168973 
L 187.676765 138.693093 
L 188.161862 138.213745 
L 189.132056 137.7748 
L 189.617153 137.950663 
L 190.102249 138.311374 
L 190.587346 138.49497 
L 191.55754 138.255781 
L 192.042637 138.260384 
L 192.527734 138.108032 
L 193.012831 137.745773 
L 193.497928 137.764256 
L 193.983024 137.96827 
L 194.468121 138.332448 
L 194.953218 137.788799 
L 195.438315 137.448945 
L 195.923412 138.127355 
L 196.408509 137.872888 
L 196.893606 138.402186 
L 197.378702 137.833382 
L 197.863799 138.047534 
L 198.348896 138.120683 
L 198.833993 137.922914 
L 199.31909 137.919017 
L 199.804187 138.161521 
L 200.289284 138.081864 
L 201.259477 138.074198 
L 201.744574 137.99506 
L 202.229671 137.389056 
L 202.714768 138.007698 
L 203.199865 138.243316 
L 203.684962 137.854082 
L 204.170059 137.987309 
L 204.655156 137.830016 
L 205.140252 138.326081 
L 205.625349 137.654829 
L 206.110446 138.160829 
L 206.595543 138.081195 
L 207.08064 138.407891 
L 207.565737 137.920874 
L 208.535931 138.098955 
L 209.021027 137.757962 
L 209.506124 137.911749 
L 209.991221 137.844387 
L 210.476318 137.409253 
L 210.961415 138.229062 
L 211.931609 137.833085 
L 212.416705 137.787517 
L 212.901802 137.932785 
L 213.386899 137.536325 
L 214.357093 137.998255 
L 214.84219 137.578172 
L 215.327287 137.50829 
L 215.812384 137.75719 
L 216.782577 137.526454 
L 217.752771 137.80182 
L 218.722965 137.757464 
L 219.208062 137.265889 
L 219.693159 137.68181 
L 220.178255 137.529181 
L 220.663352 137.769866 
L 220.663352 137.769866 
" clip-path="url(#p42d03af7f2)" style="fill: none; stroke-dasharray: 1.5,1.5; stroke-dashoffset: 0; stroke: #55a868; stroke-width: 1.5"/>
    <defs>
     <path id="m9fcafd7a0c" d="M -2.474874 -2.474874 
L -2.474874 2.474874 
L 2.474874 2.474874 
L 2.474874 -2.474874 
z
" style="stroke: #ffffff; stroke-width: 0.75; stroke-linejoin: miter"/>
    </defs>
    <g clip-path="url(#p42d03af7f2)">
     <use xlink:href="#m9fcafd7a0c" x="43.117898" y="66.767435" style="fill: #55a868; stroke: #ffffff; stroke-width: 0.75; stroke-linejoin: miter"/>
     <use xlink:href="#m9fcafd7a0c" x="60.581385" y="123.484101" style="fill: #55a868; stroke: #ffffff; stroke-width: 0.75; stroke-linejoin: miter"/>
     <use xlink:href="#m9fcafd7a0c" x="78.044872" y="131.406484" style="fill: #55a868; stroke: #ffffff; stroke-width: 0.75; stroke-linejoin: miter"/>
     <use xlink:href="#m9fcafd7a0c" x="95.50836" y="134.502155" style="fill: #55a868; stroke: #ffffff; stroke-width: 0.75; stroke-linejoin: miter"/>
     <use xlink:href="#m9fcafd7a0c" x="112.971847" y="137.058724" style="fill: #55a868; stroke: #ffffff; stroke-width: 0.75; stroke-linejoin: miter"/>
     <use xlink:href="#m9fcafd7a0c" x="130.435334" y="138.173043" style="fill: #55a868; stroke: #ffffff; stroke-width: 0.75; stroke-linejoin: miter"/>
     <use xlink:href="#m9fcafd7a0c" x="147.898822" y="138.031147" style="fill: #55a868; stroke: #ffffff; stroke-width: 0.75; stroke-linejoin: miter"/>
     <use xlink:href="#m9fcafd7a0c" x="165.362309" y="138.326939" style="fill: #55a868; stroke: #ffffff; stroke-width: 0.75; stroke-linejoin: miter"/>
     <use xlink:href="#m9fcafd7a0c" x="182.825796" y="138.502686" style="fill: #55a868; stroke: #ffffff; stroke-width: 0.75; stroke-linejoin: miter"/>
     <use xlink:href="#m9fcafd7a0c" x="200.289284" y="138.081864" style="fill: #55a868; stroke: #ffffff; stroke-width: 0.75; stroke-linejoin: miter"/>
     <use xlink:href="#m9fcafd7a0c" x="217.752771" y="137.80182" style="fill: #55a868; stroke: #ffffff; stroke-width: 0.75; stroke-linejoin: miter"/>
    </g>
   </g>
   <g id="line2d_18"/>
   <g id="line2d_19"/>
   <g id="line2d_20"/>
   <g id="line2d_21"/>
   <g id="line2d_22"/>
   <g id="line2d_23"/>
   <g id="line2d_24"/>
   <g id="line2d_25"/>
   <g id="line2d_26">
    <path d="M 43.117898 13.5 
L 43.602995 24.65468 
L 44.088091 31.074577 
L 44.573188 35.578869 
L 45.543382 41.778709 
L 46.513576 46.01807 
L 47.48377 49.18002 
L 48.453963 51.653245 
L 49.424157 53.64924 
L 50.879448 56.016048 
L 52.334738 57.841984 
L 53.790029 59.283119 
L 55.245319 60.436066 
L 57.185707 61.634306 
L 59.126094 62.540963 
L 61.066482 63.224698 
L 63.491966 63.842768 
L 66.402548 64.32654 
L 69.798226 64.634744 
L 73.679001 64.749616 
L 78.529969 64.654118 
L 84.836229 64.28524 
L 93.567972 63.529588 
L 108.605975 61.962603 
L 148.383919 57.762694 
L 169.243084 55.809669 
L 188.646959 54.214864 
L 205.140252 53.074666 
L 213.871996 52.658848 
L 218.237868 52.641802 
L 219.693159 52.763627 
L 220.178255 52.96282 
L 220.663352 53.29965 
L 220.663352 53.29965 
" clip-path="url(#p42d03af7f2)" style="fill: none; stroke: #17becf; stroke-width: 1.5; stroke-linecap: square"/>
   </g>
   <g id="patch_3">
    <path d="M 34.240625 145.8 
L 34.240625 7.2 
" style="fill: none; stroke: #000000; stroke-width: 0.8; stroke-linejoin: miter; stroke-linecap: square"/>
   </g>
   <g id="patch_4">
    <path d="M 229.540625 145.8 
L 229.540625 7.2 
" style="fill: none; stroke: #000000; stroke-width: 0.8; stroke-linejoin: miter; stroke-linecap: square"/>
   </g>
   <g id="patch_5">
    <path d="M 34.240625 145.8 
L 229.540625 145.8 
" style="fill: none; stroke: #000000; stroke-width: 0.8; stroke-linejoin: miter; stroke-linecap: square"/>
   </g>
   <g id="patch_6">
    <path d="M 34.240625 7.2 
L 229.540625 7.2 
" style="fill: none; stroke: #000000; stroke-width: 0.8; stroke-linejoin: miter; stroke-linecap: square"/>
   </g>
   <g id="legend_1">
    <g id="patch_7">
     <path d="M 39.140625 43.624063 
L 120.568125 43.624063 
Q 121.968125 43.624063 121.968125 42.224063 
L 121.968125 12.1 
Q 121.968125 10.7 120.568125 10.7 
L 39.140625 10.7 
Q 37.740625 10.7 37.740625 12.1 
L 37.740625 42.224063 
Q 37.740625 43.624063 39.140625 43.624063 
z
" style="fill: #ffffff; opacity: 0.8; stroke: #cccccc; stroke-linejoin: miter"/>
    </g>
    <g id="line2d_27">
     <path d="M 40.540625 16.368906 
L 47.540625 16.368906 
L 54.540625 16.368906 
" style="fill: none; stroke: #4c72b0; stroke-width: 1.5; stroke-linecap: square"/>
    </g>
    <g id="text_11">
     <!-- MMSE -->
     <g transform="translate(60.140625 18.818906) scale(0.07 -0.07)">
      <use xlink:href="#DejaVuSans-4d"/>
      <use xlink:href="#DejaVuSans-4d" x="86.279297"/>
      <use xlink:href="#DejaVuSans-53" x="172.558594"/>
      <use xlink:href="#DejaVuSans-45" x="236.035156"/>
     </g>
    </g>
    <g id="line2d_28">
     <path d="M 40.540625 26.643594 
L 47.540625 26.643594 
L 54.540625 26.643594 
" style="fill: none; stroke: #dd8452; stroke-width: 1.5; stroke-linecap: square"/>
    </g>
    <g id="text_12">
     <!-- WMSE -->
     <g transform="translate(60.140625 29.093594) scale(0.07 -0.07)">
      <defs>
       <path id="DejaVuSans-57" d="M 213 4666 
L 850 4666 
L 1831 722 
L 2809 4666 
L 3519 4666 
L 4500 722 
L 5478 4666 
L 6119 4666 
L 4947 0 
L 4153 0 
L 3169 4050 
L 2175 0 
L 1381 0 
L 213 4666 
z
" transform="scale(0.015625)"/>
      </defs>
      <use xlink:href="#DejaVuSans-57"/>
      <use xlink:href="#DejaVuSans-4d" x="98.876953"/>
      <use xlink:href="#DejaVuSans-53" x="185.15625"/>
      <use xlink:href="#DejaVuSans-45" x="248.632812"/>
     </g>
    </g>
    <g id="line2d_29">
     <path d="M 40.540625 36.918281 
L 47.540625 36.918281 
L 54.540625 36.918281 
" style="fill: none; stroke: #55a868; stroke-width: 1.5; stroke-linecap: square"/>
    </g>
    <g id="text_13">
     <!-- Uniform Random -->
     <g transform="translate(60.140625 39.368281) scale(0.07 -0.07)">
      <defs>
       <path id="DejaVuSans-55" d="M 556 4666 
L 1191 4666 
L 1191 1831 
Q 1191 1081 1462 751 
Q 1734 422 2344 422 
Q 2950 422 3222 751 
Q 3494 1081 3494 1831 
L 3494 4666 
L 4128 4666 
L 4128 1753 
Q 4128 841 3676 375 
Q 3225 -91 2344 -91 
Q 1459 -91 1007 375 
Q 556 841 556 1753 
L 556 4666 
z
" transform="scale(0.015625)"/>
       <path id="DejaVuSans-6e" d="M 3513 2113 
L 3513 0 
L 2938 0 
L 2938 2094 
Q 2938 2591 2744 2837 
Q 2550 3084 2163 3084 
Q 1697 3084 1428 2787 
Q 1159 2491 1159 1978 
L 1159 0 
L 581 0 
L 581 3500 
L 1159 3500 
L 1159 2956 
Q 1366 3272 1645 3428 
Q 1925 3584 2291 3584 
Q 2894 3584 3203 3211 
Q 3513 2838 3513 2113 
z
" transform="scale(0.015625)"/>
       <path id="DejaVuSans-66" d="M 2375 4863 
L 2375 4384 
L 1825 4384 
Q 1516 4384 1395 4259 
Q 1275 4134 1275 3809 
L 1275 3500 
L 2222 3500 
L 2222 3053 
L 1275 3053 
L 1275 0 
L 697 0 
L 697 3053 
L 147 3053 
L 147 3500 
L 697 3500 
L 697 3744 
Q 697 4328 969 4595 
Q 1241 4863 1831 4863 
L 2375 4863 
z
" transform="scale(0.015625)"/>
       <path id="DejaVuSans-72" d="M 2631 2963 
Q 2534 3019 2420 3045 
Q 2306 3072 2169 3072 
Q 1681 3072 1420 2755 
Q 1159 2438 1159 1844 
L 1159 0 
L 581 0 
L 581 3500 
L 1159 3500 
L 1159 2956 
Q 1341 3275 1631 3429 
Q 1922 3584 2338 3584 
Q 2397 3584 2469 3576 
Q 2541 3569 2628 3553 
L 2631 2963 
z
" transform="scale(0.015625)"/>
       <path id="DejaVuSans-52" d="M 2841 2188 
Q 3044 2119 3236 1894 
Q 3428 1669 3622 1275 
L 4263 0 
L 3584 0 
L 2988 1197 
Q 2756 1666 2539 1819 
Q 2322 1972 1947 1972 
L 1259 1972 
L 1259 0 
L 628 0 
L 628 4666 
L 2053 4666 
Q 2853 4666 3247 4331 
Q 3641 3997 3641 3322 
Q 3641 2881 3436 2590 
Q 3231 2300 2841 2188 
z
M 1259 4147 
L 1259 2491 
L 2053 2491 
Q 2509 2491 2742 2702 
Q 2975 2913 2975 3322 
Q 2975 3731 2742 3939 
Q 2509 4147 2053 4147 
L 1259 4147 
z
" transform="scale(0.015625)"/>
       <path id="DejaVuSans-64" d="M 2906 2969 
L 2906 4863 
L 3481 4863 
L 3481 0 
L 2906 0 
L 2906 525 
Q 2725 213 2448 61 
Q 2172 -91 1784 -91 
Q 1150 -91 751 415 
Q 353 922 353 1747 
Q 353 2572 751 3078 
Q 1150 3584 1784 3584 
Q 2172 3584 2448 3432 
Q 2725 3281 2906 2969 
z
M 947 1747 
Q 947 1113 1208 752 
Q 1469 391 1925 391 
Q 2381 391 2643 752 
Q 2906 1113 2906 1747 
Q 2906 2381 2643 2742 
Q 2381 3103 1925 3103 
Q 1469 3103 1208 2742 
Q 947 2381 947 1747 
z
" transform="scale(0.015625)"/>
      </defs>
      <use xlink:href="#DejaVuSans-55"/>
      <use xlink:href="#DejaVuSans-6e" x="73.193359"/>
      <use xlink:href="#DejaVuSans-69" x="136.572266"/>
      <use xlink:href="#DejaVuSans-66" x="164.355469"/>
      <use xlink:href="#DejaVuSans-6f" x="199.560547"/>
      <use xlink:href="#DejaVuSans-72" x="260.742188"/>
      <use xlink:href="#DejaVuSans-6d" x="300.105469"/>
      <use xlink:href="#DejaVuSans-20" x="397.517578"/>
      <use xlink:href="#DejaVuSans-52" x="429.304688"/>
      <use xlink:href="#DejaVuSans-61" x="496.537109"/>
      <use xlink:href="#DejaVuSans-6e" x="557.816406"/>
      <use xlink:href="#DejaVuSans-64" x="621.195312"/>
      <use xlink:href="#DejaVuSans-6f" x="684.671875"/>
      <use xlink:href="#DejaVuSans-6d" x="745.853516"/>
     </g>
    </g>
   </g>
   <g id="legend_2">
    <g id="patch_8">
     <path d="M 177.747188 53.89875 
L 224.640625 53.89875 
Q 226.040625 53.89875 226.040625 52.49875 
L 226.040625 12.1 
Q 226.040625 10.7 224.640625 10.7 
L 177.747188 10.7 
Q 176.347188 10.7 176.347188 12.1 
L 176.347188 52.49875 
Q 176.347188 53.89875 177.747188 53.89875 
z
" style="fill: #ffffff; opacity: 0.8; stroke: #cccccc; stroke-linejoin: miter"/>
    </g>
    <g id="line2d_30">
     <path d="M 179.147188 16.368906 
L 186.147188 16.368906 
L 193.147188 16.368906 
" style="fill: none"/>
    </g>
    <g id="text_14">
     <!--  -->
     <g transform="translate(198.747188 18.818906) scale(0.07 -0.07)">
      <defs>
       <path id="DejaVuSans-3bc" d="M 544 -1331 
L 544 3500 
L 1119 3500 
L 1119 1325 
Q 1119 872 1334 640 
Q 1550 409 1972 409 
Q 2434 409 2667 671 
Q 2900 934 2900 1459 
L 2900 3500 
L 3475 3500 
L 3475 806 
Q 3475 619 3529 530 
Q 3584 441 3700 441 
Q 3728 441 3778 458 
Q 3828 475 3916 513 
L 3916 50 
Q 3788 -22 3673 -56 
Q 3559 -91 3450 -91 
Q 3234 -91 3106 31 
Q 2978 153 2931 403 
Q 2775 156 2548 32 
Q 2322 -91 2016 -91 
Q 1697 -91 1473 31 
Q 1250 153 1119 397 
L 1119 -1331 
L 544 -1331 
z
" transform="scale(0.015625)"/>
      </defs>
      <use xlink:href="#DejaVuSans-3bc"/>
     </g>
    </g>
    <g id="line2d_31">
     <path d="M 179.147188 26.643594 
L 186.147188 26.643594 
L 193.147188 26.643594 
" style="fill: none; stroke: #333333; stroke-width: 1.5; stroke-linecap: square"/>
     <defs>
      <path id="mb56481e3bc" d="M 0 3.5 
C 0.928211 3.5 1.81853 3.131218 2.474874 2.474874 
C 3.131218 1.81853 3.5 0.928211 3.5 0 
C 3.5 -0.928211 3.131218 -1.81853 2.474874 -2.474874 
C 1.81853 -3.131218 0.928211 -3.5 0 -3.5 
C -0.928211 -3.5 -1.81853 -3.131218 -2.474874 -2.474874 
C -3.131218 -1.81853 -3.5 -0.928211 -3.5 0 
C -3.5 0.928211 -3.131218 1.81853 -2.474874 2.474874 
C -1.81853 3.131218 -0.928211 3.5 0 3.5 
z
" style="stroke: #ffffff; stroke-width: 0.75"/>
     </defs>
     <g>
      <use xlink:href="#mb56481e3bc" x="186.147188" y="26.643594" style="fill: #333333; stroke: #ffffff; stroke-width: 0.75"/>
     </g>
    </g>
    <g id="text_15">
     <!-- 0.0001 -->
     <g transform="translate(198.747188 29.093594) scale(0.07 -0.07)">
      <defs>
       <path id="DejaVuSans-2e" d="M 684 794 
L 1344 794 
L 1344 0 
L 684 0 
L 684 794 
z
" transform="scale(0.015625)"/>
      </defs>
      <use xlink:href="#DejaVuSans-30"/>
      <use xlink:href="#DejaVuSans-2e" x="63.623047"/>
      <use xlink:href="#DejaVuSans-30" x="95.410156"/>
      <use xlink:href="#DejaVuSans-30" x="159.033203"/>
      <use xlink:href="#DejaVuSans-30" x="222.65625"/>
      <use xlink:href="#DejaVuSans-31" x="286.279297"/>
     </g>
    </g>
    <g id="line2d_32">
     <path d="M 179.147188 36.918281 
L 186.147188 36.918281 
L 193.147188 36.918281 
" style="fill: none; stroke-dasharray: 6,2.25; stroke-dashoffset: 0; stroke: #333333; stroke-width: 1.5"/>
     <defs>
      <path id="mde0db13911" d="M -1.75 3.5 
L 0 1.75 
L 1.75 3.5 
L 3.5 1.75 
L 1.75 0 
L 3.5 -1.75 
L 1.75 -3.5 
L 0 -1.75 
L -1.75 -3.5 
L -3.5 -1.75 
L -1.75 0 
L -3.5 1.75 
z
" style="stroke: #ffffff; stroke-width: 0.75; stroke-linejoin: miter"/>
     </defs>
     <g>
      <use xlink:href="#mde0db13911" x="186.147188" y="36.918281" style="fill: #333333; stroke: #ffffff; stroke-width: 0.75; stroke-linejoin: miter"/>
     </g>
    </g>
    <g id="text_16">
     <!-- 0.01 -->
     <g transform="translate(198.747188 39.368281) scale(0.07 -0.07)">
      <use xlink:href="#DejaVuSans-30"/>
      <use xlink:href="#DejaVuSans-2e" x="63.623047"/>
      <use xlink:href="#DejaVuSans-30" x="95.410156"/>
      <use xlink:href="#DejaVuSans-31" x="159.033203"/>
     </g>
    </g>
    <g id="line2d_33">
     <path d="M 179.147188 47.192969 
L 186.147188 47.192969 
L 193.147188 47.192969 
" style="fill: none; stroke-dasharray: 1.5,1.5; stroke-dashoffset: 0; stroke: #333333; stroke-width: 1.5"/>
     <defs>
      <path id="ma0df477e37" d="M -2.474874 -2.474874 
L -2.474874 2.474874 
L 2.474874 2.474874 
L 2.474874 -2.474874 
z
" style="stroke: #ffffff; stroke-width: 0.75; stroke-linejoin: miter"/>
     </defs>
     <g>
      <use xlink:href="#ma0df477e37" x="186.147188" y="47.192969" style="fill: #333333; stroke: #ffffff; stroke-width: 0.75; stroke-linejoin: miter"/>
     </g>
    </g>
    <g id="text_17">
     <!-- 1.0 -->
     <g transform="translate(198.747188 49.642969) scale(0.07 -0.07)">
      <use xlink:href="#DejaVuSans-31"/>
      <use xlink:href="#DejaVuSans-2e" x="63.623047"/>
      <use xlink:href="#DejaVuSans-30" x="95.410156"/>
     </g>
    </g>
   </g>
  </g>
 </g>
 <defs>
  <clipPath id="p42d03af7f2">
   <rect x="34.240625" y="7.2" width="195.3" height="138.6"/>
  </clipPath>
 </defs>
</svg>
