<?xml version="1.0" encoding="utf-8" standalone="no"?>
<!DOCTYPE svg PUBLIC "-//W3C//DTD SVG 1.1//EN"
  "http://www.w3.org/Graphics/SVG/1.1/DTD/svg11.dtd">
<svg xmlns:xlink="http://www.w3.org/1999/xlink" width="251.482813pt" height="183.35625pt" viewBox="0 0 251.482813 183.35625" xmlns="http://www.w3.org/2000/svg" version="1.1">
 <metadata>
  <rdf:RDF xmlns:dc="http://purl.org/dc/elements/1.1/" xmlns:cc="http://creativecommons.org/ns#" xmlns:rdf="http://www.w3.org/1999/02/22-rdf-syntax-ns#">
   <cc:Work>
    <dc:type rdf:resource="http://purl.org/dc/dcmitype/StillImage"/>
    <dc:date>1980-01-01T00:00:00+00:00</dc:date>
    <dc:format>image/svg+xml</dc:format>
    <dc:creator>
     <cc:Agent>
      <dc:title>Matplotlib v3.7.5, https://matplotlib.org/</dc:title>
     </cc:Agent>
    </dc:creator>
   </cc:Work>
  </rdf:RDF>
 </metadata>
 <defs>
  <style type="text/css">*{stroke-linejoin: round; stroke-linecap: butt}</style>
 </defs>
 <g id="figure_1">
  <g id="patch_1">
   <path d="M -0 183.35625 
L 251.482813 183.35625 
L 251.482813 0 
L -0 0 
z
" style="fill: #ffffff"/>
  </g>
  <g id="axes_1">
   <g id="patch_2">
    <path d="M 48.982813 145.8 
L 244.282813 145.8 
L 244.282813 7.2 
L 48.982813 7.2 
z
" style="fill: #ffffff"/>
   </g>
   <g id="PolyCollection_1"/>
   <g id="PolyCollection_2"/>
   <g id="PolyCollection_3"/>
   <g id="PolyCollection_4"/>
   <g id="PolyCollection_5"/>
   <g id="PolyCollection_6"/>
   <g id="PolyCollection_7"/>
   <g id="PolyCollection_8"/>
   <g id="PolyCollection_9"/>
   <g id="PolyCollection_10"/>
   <g id="matplotlib.axis_1">
    <g id="xtick_1">
     <g id="line2d_1">
      <defs>
       <path id="ma807bcd7b5" d="M 0 0 
L 0 3.5 
" style="stroke: #000000; stroke-width: 0.8"/>
      </defs>
      <g>
       <use xlink:href="#ma807bcd7b5" x="57.374988" y="145.8" style="stroke: #000000; stroke-width: 0.8"/>
      </g>
     </g>
     <g id="text_1">
      <!-- 0 -->
      <g transform="translate(54.193738 160.398438) scale(0.1 -0.1)">
       <defs>
        <path id="DejaVuSans-30" d="M 2034 4250 
Q 1547 4250 1301 3770 
Q 1056 3291 1056 2328 
Q 1056 1369 1301 889 
Q 1547 409 2034 409 
Q 2525 409 2770 889 
Q 3016 1369 3016 2328 
Q 3016 3291 2770 3770 
Q 2525 4250 2034 4250 
z
M 2034 4750 
Q 2819 4750 3233 4129 
Q 3647 3509 3647 2328 
Q 3647 1150 3233 529 
Q 2819 -91 2034 -91 
Q 1250 -91 836 529 
Q 422 1150 422 2328 
Q 422 3509 836 4129 
Q 1250 4750 2034 4750 
z
" transform="scale(0.015625)"/>
       </defs>
       <use xlink:href="#DejaVuSans-30"/>
      </g>
     </g>
    </g>
    <g id="xtick_2">
     <g id="line2d_2">
      <g>
       <use xlink:href="#ma807bcd7b5" x="105.884675" y="145.8" style="stroke: #000000; stroke-width: 0.8"/>
      </g>
     </g>
     <g id="text_2">
      <!-- 100 -->
      <g transform="translate(96.340925 160.398438) scale(0.1 -0.1)">
       <defs>
        <path id="DejaVuSans-31" d="M 794 531 
L 1825 531 
L 1825 4091 
L 703 3866 
L 703 4441 
L 1819 4666 
L 2450 4666 
L 2450 531 
L 3481 531 
L 3481 0 
L 794 0 
L 794 531 
z
" transform="scale(0.015625)"/>
       </defs>
       <use xlink:href="#DejaVuSans-31"/>
       <use xlink:href="#DejaVuSans-30" x="63.623047"/>
       <use xlink:href="#DejaVuSans-30" x="127.246094"/>
      </g>
     </g>
    </g>
    <g id="xtick_3">
     <g id="line2d_3">
      <g>
       <use xlink:href="#ma807bcd7b5" x="154.394362" y="145.8" style="stroke: #000000; stroke-width: 0.8"/>
      </g>
     </g>
     <g id="text_3">
      <!-- 200 -->
      <g transform="translate(144.850612 160.398438) scale(0.1 -0.1)">
       <defs>
        <path id="DejaVuSans-32" d="M 1228 531 
L 3431 531 
L 3431 0 
L 469 0 
L 469 531 
Q 828 903 1448 1529 
Q 2069 2156 2228 2338 
Q 2531 2678 2651 2914 
Q 2772 3150 2772 3378 
Q 2772 3750 2511 3984 
Q 2250 4219 1831 4219 
Q 1534 4219 1204 4116 
Q 875 4013 500 3803 
L 500 4441 
Q 881 4594 1212 4672 
Q 1544 4750 1819 4750 
Q 2544 4750 2975 4387 
Q 3406 4025 3406 3419 
Q 3406 3131 3298 2873 
Q 3191 2616 2906 2266 
Q 2828 2175 2409 1742 
Q 1991 1309 1228 531 
z
" transform="scale(0.015625)"/>
       </defs>
       <use xlink:href="#DejaVuSans-32"/>
       <use xlink:href="#DejaVuSans-30" x="63.623047"/>
       <use xlink:href="#DejaVuSans-30" x="127.246094"/>
      </g>
     </g>
    </g>
    <g id="xtick_4">
     <g id="line2d_4">
      <g>
       <use xlink:href="#ma807bcd7b5" x="202.904049" y="145.8" style="stroke: #000000; stroke-width: 0.8"/>
      </g>
     </g>
     <g id="text_4">
      <!-- 300 -->
      <g transform="translate(193.360299 160.398438) scale(0.1 -0.1)">
       <defs>
        <path id="DejaVuSans-33" d="M 2597 2516 
Q 3050 2419 3304 2112 
Q 3559 1806 3559 1356 
Q 3559 666 3084 287 
Q 2609 -91 1734 -91 
Q 1441 -91 1130 -33 
Q 819 25 488 141 
L 488 750 
Q 750 597 1062 519 
Q 1375 441 1716 441 
Q 2309 441 2620 675 
Q 2931 909 2931 1356 
Q 2931 1769 2642 2001 
Q 2353 2234 1838 2234 
L 1294 2234 
L 1294 2753 
L 1863 2753 
Q 2328 2753 2575 2939 
Q 2822 3125 2822 3475 
Q 2822 3834 2567 4026 
Q 2313 4219 1838 4219 
Q 1578 4219 1281 4162 
Q 984 4106 628 3988 
L 628 4550 
Q 988 4650 1302 4700 
Q 1616 4750 1894 4750 
Q 2613 4750 3031 4423 
Q 3450 4097 3450 3541 
Q 3450 3153 3228 2886 
Q 3006 2619 2597 2516 
z
" transform="scale(0.015625)"/>
       </defs>
       <use xlink:href="#DejaVuSans-33"/>
       <use xlink:href="#DejaVuSans-30" x="63.623047"/>
       <use xlink:href="#DejaVuSans-30" x="127.246094"/>
      </g>
     </g>
    </g>
    <g id="text_5">
     <!-- Sample Size -->
     <g transform="translate(116.03125 174.076563) scale(0.1 -0.1)">
      <defs>
       <path id="DejaVuSans-53" d="M 3425 4513 
L 3425 3897 
Q 3066 4069 2747 4153 
Q 2428 4238 2131 4238 
Q 1616 4238 1336 4038 
Q 1056 3838 1056 3469 
Q 1056 3159 1242 3001 
Q 1428 2844 1947 2747 
L 2328 2669 
Q 3034 2534 3370 2195 
Q 3706 1856 3706 1288 
Q 3706 609 3251 259 
Q 2797 -91 1919 -91 
Q 1588 -91 1214 -16 
Q 841 59 441 206 
L 441 856 
Q 825 641 1194 531 
Q 1563 422 1919 422 
Q 2459 422 2753 634 
Q 3047 847 3047 1241 
Q 3047 1584 2836 1778 
Q 2625 1972 2144 2069 
L 1759 2144 
Q 1053 2284 737 2584 
Q 422 2884 422 3419 
Q 422 4038 858 4394 
Q 1294 4750 2059 4750 
Q 2388 4750 2728 4690 
Q 3069 4631 3425 4513 
z
" transform="scale(0.015625)"/>
       <path id="DejaVuSans-61" d="M 2194 1759 
Q 1497 1759 1228 1600 
Q 959 1441 959 1056 
Q 959 750 1161 570 
Q 1363 391 1709 391 
Q 2188 391 2477 730 
Q 2766 1069 2766 1631 
L 2766 1759 
L 2194 1759 
z
M 3341 1997 
L 3341 0 
L 2766 0 
L 2766 531 
Q 2569 213 2275 61 
Q 1981 -91 1556 -91 
Q 1019 -91 701 211 
Q 384 513 384 1019 
Q 384 1609 779 1909 
Q 1175 2209 1959 2209 
L 2766 2209 
L 2766 2266 
Q 2766 2663 2505 2880 
Q 2244 3097 1772 3097 
Q 1472 3097 1187 3025 
Q 903 2953 641 2809 
L 641 3341 
Q 956 3463 1253 3523 
Q 1550 3584 1831 3584 
Q 2591 3584 2966 3190 
Q 3341 2797 3341 1997 
z
" transform="scale(0.015625)"/>
       <path id="DejaVuSans-6d" d="M 3328 2828 
Q 3544 3216 3844 3400 
Q 4144 3584 4550 3584 
Q 5097 3584 5394 3201 
Q 5691 2819 5691 2113 
L 5691 0 
L 5113 0 
L 5113 2094 
Q 5113 2597 4934 2840 
Q 4756 3084 4391 3084 
Q 3944 3084 3684 2787 
Q 3425 2491 3425 1978 
L 3425 0 
L 2847 0 
L 2847 2094 
Q 2847 2600 2669 2842 
Q 2491 3084 2119 3084 
Q 1678 3084 1418 2786 
Q 1159 2488 1159 1978 
L 1159 0 
L 581 0 
L 581 3500 
L 1159 3500 
L 1159 2956 
Q 1356 3278 1631 3431 
Q 1906 3584 2284 3584 
Q 2666 3584 2933 3390 
Q 3200 3197 3328 2828 
z
" transform="scale(0.015625)"/>
       <path id="DejaVuSans-70" d="M 1159 525 
L 1159 -1331 
L 581 -1331 
L 581 3500 
L 1159 3500 
L 1159 2969 
Q 1341 3281 1617 3432 
Q 1894 3584 2278 3584 
Q 2916 3584 3314 3078 
Q 3713 2572 3713 1747 
Q 3713 922 3314 415 
Q 2916 -91 2278 -91 
Q 1894 -91 1617 61 
Q 1341 213 1159 525 
z
M 3116 1747 
Q 3116 2381 2855 2742 
Q 2594 3103 2138 3103 
Q 1681 3103 1420 2742 
Q 1159 2381 1159 1747 
Q 1159 1113 1420 752 
Q 1681 391 2138 391 
Q 2594 391 2855 752 
Q 3116 1113 3116 1747 
z
" transform="scale(0.015625)"/>
       <path id="DejaVuSans-6c" d="M 603 4863 
L 1178 4863 
L 1178 0 
L 603 0 
L 603 4863 
z
" transform="scale(0.015625)"/>
       <path id="DejaVuSans-65" d="M 3597 1894 
L 3597 1613 
L 953 1613 
Q 991 1019 1311 708 
Q 1631 397 2203 397 
Q 2534 397 2845 478 
Q 3156 559 3463 722 
L 3463 178 
Q 3153 47 2828 -22 
Q 2503 -91 2169 -91 
Q 1331 -91 842 396 
Q 353 884 353 1716 
Q 353 2575 817 3079 
Q 1281 3584 2069 3584 
Q 2775 3584 3186 3129 
Q 3597 2675 3597 1894 
z
M 3022 2063 
Q 3016 2534 2758 2815 
Q 2500 3097 2075 3097 
Q 1594 3097 1305 2825 
Q 1016 2553 972 2059 
L 3022 2063 
z
" transform="scale(0.015625)"/>
       <path id="DejaVuSans-20" transform="scale(0.015625)"/>
       <path id="DejaVuSans-69" d="M 603 3500 
L 1178 3500 
L 1178 0 
L 603 0 
L 603 3500 
z
M 603 4863 
L 1178 4863 
L 1178 4134 
L 603 4134 
L 603 4863 
z
" transform="scale(0.015625)"/>
       <path id="DejaVuSans-7a" d="M 353 3500 
L 3084 3500 
L 3084 2975 
L 922 459 
L 3084 459 
L 3084 0 
L 275 0 
L 275 525 
L 2438 3041 
L 353 3041 
L 353 3500 
z
" transform="scale(0.015625)"/>
      </defs>
      <use xlink:href="#DejaVuSans-53"/>
      <use xlink:href="#DejaVuSans-61" x="63.476562"/>
      <use xlink:href="#DejaVuSans-6d" x="124.755859"/>
      <use xlink:href="#DejaVuSans-70" x="222.167969"/>
      <use xlink:href="#DejaVuSans-6c" x="285.644531"/>
      <use xlink:href="#DejaVuSans-65" x="313.427734"/>
      <use xlink:href="#DejaVuSans-20" x="374.951172"/>
      <use xlink:href="#DejaVuSans-53" x="406.738281"/>
      <use xlink:href="#DejaVuSans-69" x="470.214844"/>
      <use xlink:href="#DejaVuSans-7a" x="497.998047"/>
      <use xlink:href="#DejaVuSans-65" x="550.488281"/>
     </g>
    </g>
   </g>
   <g id="matplotlib.axis_2">
    <g id="ytick_1">
     <g id="line2d_5">
      <defs>
       <path id="m95c4134a7a" d="M 0 0 
L -3.5 0 
" style="stroke: #000000; stroke-width: 0.8"/>
      </defs>
      <g>
       <use xlink:href="#m95c4134a7a" x="48.982813" y="121.950818" style="stroke: #000000; stroke-width: 0.8"/>
      </g>
     </g>
     <g id="text_6">
      <!-- −15 -->
      <g transform="translate(20.878125 125.750037) scale(0.1 -0.1)">
       <defs>
        <path id="DejaVuSans-2212" d="M 678 2272 
L 4684 2272 
L 4684 1741 
L 678 1741 
L 678 2272 
z
" transform="scale(0.015625)"/>
        <path id="DejaVuSans-35" d="M 691 4666 
L 3169 4666 
L 3169 4134 
L 1269 4134 
L 1269 2991 
Q 1406 3038 1543 3061 
Q 1681 3084 1819 3084 
Q 2600 3084 3056 2656 
Q 3513 2228 3513 1497 
Q 3513 744 3044 326 
Q 2575 -91 1722 -91 
Q 1428 -91 1123 -41 
Q 819 9 494 109 
L 494 744 
Q 775 591 1075 516 
Q 1375 441 1709 441 
Q 2250 441 2565 725 
Q 2881 1009 2881 1497 
Q 2881 1984 2565 2268 
Q 2250 2553 1709 2553 
Q 1456 2553 1204 2497 
Q 953 2441 691 2322 
L 691 4666 
z
" transform="scale(0.015625)"/>
       </defs>
       <use xlink:href="#DejaVuSans-2212"/>
       <use xlink:href="#DejaVuSans-31" x="83.789062"/>
       <use xlink:href="#DejaVuSans-35" x="147.412109"/>
      </g>
     </g>
    </g>
    <g id="ytick_2">
     <g id="line2d_6">
      <g>
       <use xlink:href="#m95c4134a7a" x="48.982813" y="97.944761" style="stroke: #000000; stroke-width: 0.8"/>
      </g>
     </g>
     <g id="text_7">
      <!-- −10 -->
      <g transform="translate(20.878125 101.74398) scale(0.1 -0.1)">
       <use xlink:href="#DejaVuSans-2212"/>
       <use xlink:href="#DejaVuSans-31" x="83.789062"/>
       <use xlink:href="#DejaVuSans-30" x="147.412109"/>
      </g>
     </g>
    </g>
    <g id="ytick_3">
     <g id="line2d_7">
      <g>
       <use xlink:href="#m95c4134a7a" x="48.982813" y="73.938704" style="stroke: #000000; stroke-width: 0.8"/>
      </g>
     </g>
     <g id="text_8">
      <!-- −5 -->
      <g transform="translate(27.240625 77.737923) scale(0.1 -0.1)">
       <use xlink:href="#DejaVuSans-2212"/>
       <use xlink:href="#DejaVuSans-35" x="83.789062"/>
      </g>
     </g>
    </g>
    <g id="ytick_4">
     <g id="line2d_8">
      <g>
       <use xlink:href="#m95c4134a7a" x="48.982813" y="49.932647" style="stroke: #000000; stroke-width: 0.8"/>
      </g>
     </g>
     <g id="text_9">
      <!-- 0 -->
      <g transform="translate(35.620313 53.731866) scale(0.1 -0.1)">
       <use xlink:href="#DejaVuSans-30"/>
      </g>
     </g>
    </g>
    <g id="ytick_5">
     <g id="line2d_9">
      <g>
       <use xlink:href="#m95c4134a7a" x="48.982813" y="25.926591" style="stroke: #000000; stroke-width: 0.8"/>
      </g>
     </g>
     <g id="text_10">
      <!-- 5 -->
      <g transform="translate(35.620313 29.725809) scale(0.1 -0.1)">
       <use xlink:href="#DejaVuSans-35"/>
      </g>
     </g>
    </g>
    <g id="text_11">
     <!-- log MSE -->
     <g transform="translate(14.798438 96.359375) rotate(-90) scale(0.1 -0.1)">
      <defs>
       <path id="DejaVuSans-6f" d="M 1959 3097 
Q 1497 3097 1228 2736 
Q 959 2375 959 1747 
Q 959 1119 1226 758 
Q 1494 397 1959 397 
Q 2419 397 2687 759 
Q 2956 1122 2956 1747 
Q 2956 2369 2687 2733 
Q 2419 3097 1959 3097 
z
M 1959 3584 
Q 2709 3584 3137 3096 
Q 3566 2609 3566 1747 
Q 3566 888 3137 398 
Q 2709 -91 1959 -91 
Q 1206 -91 779 398 
Q 353 888 353 1747 
Q 353 2609 779 3096 
Q 1206 3584 1959 3584 
z
" transform="scale(0.015625)"/>
       <path id="DejaVuSans-67" d="M 2906 1791 
Q 2906 2416 2648 2759 
Q 2391 3103 1925 3103 
Q 1463 3103 1205 2759 
Q 947 2416 947 1791 
Q 947 1169 1205 825 
Q 1463 481 1925 481 
Q 2391 481 2648 825 
Q 2906 1169 2906 1791 
z
M 3481 434 
Q 3481 -459 3084 -895 
Q 2688 -1331 1869 -1331 
Q 1566 -1331 1297 -1286 
Q 1028 -1241 775 -1147 
L 775 -588 
Q 1028 -725 1275 -790 
Q 1522 -856 1778 -856 
Q 2344 -856 2625 -561 
Q 2906 -266 2906 331 
L 2906 616 
Q 2728 306 2450 153 
Q 2172 0 1784 0 
Q 1141 0 747 490 
Q 353 981 353 1791 
Q 353 2603 747 3093 
Q 1141 3584 1784 3584 
Q 2172 3584 2450 3431 
Q 2728 3278 2906 2969 
L 2906 3500 
L 3481 3500 
L 3481 434 
z
" transform="scale(0.015625)"/>
       <path id="DejaVuSans-4d" d="M 628 4666 
L 1569 4666 
L 2759 1491 
L 3956 4666 
L 4897 4666 
L 4897 0 
L 4281 0 
L 4281 4097 
L 3078 897 
L 2444 897 
L 1241 4097 
L 1241 0 
L 628 0 
L 628 4666 
z
" transform="scale(0.015625)"/>
       <path id="DejaVuSans-45" d="M 628 4666 
L 3578 4666 
L 3578 4134 
L 1259 4134 
L 1259 2753 
L 3481 2753 
L 3481 2222 
L 1259 2222 
L 1259 531 
L 3634 531 
L 3634 0 
L 628 0 
L 628 4666 
z
" transform="scale(0.015625)"/>
      </defs>
      <use xlink:href="#DejaVuSans-6c"/>
      <use xlink:href="#DejaVuSans-6f" x="27.783203"/>
      <use xlink:href="#DejaVuSans-67" x="88.964844"/>
      <use xlink:href="#DejaVuSans-20" x="152.441406"/>
      <use xlink:href="#DejaVuSans-4d" x="184.228516"/>
      <use xlink:href="#DejaVuSans-53" x="270.507812"/>
      <use xlink:href="#DejaVuSans-45" x="333.984375"/>
     </g>
    </g>
   </g>
   <g id="line2d_10">
    <path d="M 57.860085 67.513542 
L 58.345182 67.445558 
L 58.830279 67.842417 
L 59.315376 68.038911 
L 64.166345 68.371291 
L 64.651441 68.594853 
L 65.621635 68.542172 
L 66.106732 69.078947 
L 67.076926 69.20549 
L 68.532216 69.258781 
L 69.50241 69.58178 
L 70.957701 69.686502 
L 74.838476 69.834731 
L 75.323573 70.589256 
L 77.26396 70.686846 
L 77.749057 70.791923 
L 78.234154 70.752799 
L 78.719251 70.986888 
L 79.204348 71.025379 
L 79.689444 71.285732 
L 80.174541 71.334203 
L 80.659638 71.511123 
L 81.629832 71.513305 
L 82.114929 71.952596 
L 83.085122 72.049998 
L 85.510607 72.195993 
L 86.965897 72.325113 
L 89.391382 72.408174 
L 90.361576 72.584414 
L 90.846672 73.337532 
L 92.301963 73.428886 
L 93.757254 73.514857 
L 94.727447 73.660662 
L 95.212544 73.717881 
L 95.697641 73.920694 
L 96.182738 73.990335 
L 96.667835 74.320745 
L 98.123125 74.385711 
L 98.608222 74.506658 
L 99.093319 74.958012 
L 100.063513 75.083395 
L 102.488997 75.181622 
L 102.974094 76.128434 
L 104.914482 76.200873 
L 105.399579 76.369221 
L 105.884675 76.371407 
L 106.369772 76.57583 
L 107.339966 76.591519 
L 107.825063 76.785284 
L 108.31016 77.251151 
L 109.76545 77.350843 
L 110.250547 77.810776 
L 111.705838 77.905529 
L 113.161128 77.962025 
L 113.646225 78.380139 
L 118.497194 78.761619 
L 118.982291 79.368133 
L 119.952485 79.450311 
L 120.437582 79.713992 
L 121.892872 79.920647 
L 122.377969 80.417871 
L 124.803453 80.521503 
L 125.28855 80.832728 
L 127.714035 80.900004 
L 128.199131 81.0483 
L 128.684228 81.442662 
L 131.109713 81.644788 
L 131.59481 81.820577 
L 134.990488 81.936512 
L 136.930875 82.022571 
L 137.415972 82.275093 
L 142.266941 82.759809 
L 142.752038 83.323632 
L 143.722231 83.355681 
L 144.207328 83.80071 
L 144.692425 83.800795 
L 145.177522 83.914754 
L 145.662619 84.55975 
L 146.632812 84.573796 
L 147.117909 84.802158 
L 148.088103 84.856188 
L 149.543394 85.145328 
L 150.998684 85.266473 
L 151.483781 85.32494 
L 151.968878 85.581196 
L 156.33475 85.705243 
L 156.819847 86.223372 
L 159.245331 86.362139 
L 159.730428 86.735716 
L 160.215525 86.882645 
L 161.185719 86.890614 
L 161.670815 87.434943 
L 165.066494 87.787691 
L 165.55159 88.032583 
L 167.491978 88.064367 
L 167.977075 88.660065 
L 168.947269 88.683294 
L 169.917462 89.232813 
L 172.342947 89.321948 
L 174.283334 89.532037 
L 174.768431 89.761979 
L 176.223722 89.80573 
L 177.193915 90.220866 
L 177.679012 90.683571 
L 178.649206 90.739226 
L 179.134303 91.002099 
L 183.015078 91.226936 
L 183.500175 91.501833 
L 185.925659 91.834336 
L 186.895853 92.81879 
L 187.38095 92.88738 
L 187.866046 93.212589 
L 188.351143 93.377595 
L 189.806434 93.446222 
L 190.291531 93.638641 
L 190.776628 93.644754 
L 191.261725 93.841239 
L 191.746821 93.841752 
L 192.717015 93.975045 
L 193.687209 94.031282 
L 194.657403 94.160628 
L 196.112693 94.283788 
L 196.59779 94.476363 
L 199.023274 94.694259 
L 199.993468 95.503276 
L 202.904049 95.742454 
L 203.389146 95.833306 
L 203.874243 96.27597 
L 204.35934 97.089104 
L 205.329534 97.200199 
L 207.269921 97.355169 
L 207.755018 98.425599 
L 208.725212 98.678664 
L 209.210309 98.865497 
L 211.150696 99.100668 
L 212.605987 99.341499 
L 213.091084 100.029682 
L 213.576181 100.048863 
L 214.061277 100.970509 
L 215.516568 101.167897 
L 216.001665 101.516997 
L 218.427149 101.691633 
L 218.912246 101.736083 
L 219.397343 103.820203 
L 219.88244 103.832419 
L 220.852634 104.475291 
L 221.337731 104.557077 
L 221.822827 104.77212 
L 222.307924 104.777111 
L 222.793021 104.942392 
L 224.733409 105.088515 
L 225.703602 106.29292 
L 226.673796 106.406131 
L 227.158893 106.648578 
L 227.64399 106.656128 
L 228.129087 106.881629 
L 228.614184 107.7916 
L 229.09928 107.969495 
L 229.584377 107.991386 
L 230.069474 108.431921 
L 230.554571 109.840083 
L 231.524765 109.964805 
L 232.494959 111.066183 
L 232.980055 111.068902 
L 233.465152 111.343703 
L 233.950249 114.626207 
L 234.435346 126.504285 
L 234.920443 129.34564 
L 235.40554 139.479084 
L 235.40554 139.479084 
" clip-path="url(#p029670d1cd)" style="fill: none; stroke: #4c72b0; stroke-width: 1.5; stroke-linecap: square"/>
    <defs>
     <path id="m79dd4adfc9" d="M 0 3.5 
C 0.928211 3.5 1.81853 3.131218 2.474874 2.474874 
C 3.131218 1.81853 3.5 0.928211 3.5 0 
C 3.5 -0.928211 3.131218 -1.81853 2.474874 -2.474874 
C 1.81853 -3.131218 0.928211 -3.5 0 -3.5 
C -0.928211 -3.5 -1.81853 -3.131218 -2.474874 -2.474874 
C -3.131218 -1.81853 -3.5 -0.928211 -3.5 0 
C -3.5 0.928211 -3.131218 1.81853 -2.474874 2.474874 
C -1.81853 3.131218 -0.928211 3.5 0 3.5 
z
" style="stroke: #ffffff; stroke-width: 0.75"/>
    </defs>
    <g clip-path="url(#p029670d1cd)">
     <use xlink:href="#m79dd4adfc9" x="57.860085" y="67.513542" style="fill: #4c72b0; stroke: #ffffff; stroke-width: 0.75"/>
     <use xlink:href="#m79dd4adfc9" x="75.323573" y="70.589256" style="fill: #4c72b0; stroke: #ffffff; stroke-width: 0.75"/>
     <use xlink:href="#m79dd4adfc9" x="92.78706" y="73.444804" style="fill: #4c72b0; stroke: #ffffff; stroke-width: 0.75"/>
     <use xlink:href="#m79dd4adfc9" x="110.250547" y="77.810776" style="fill: #4c72b0; stroke: #ffffff; stroke-width: 0.75"/>
     <use xlink:href="#m79dd4adfc9" x="127.714035" y="80.900004" style="fill: #4c72b0; stroke: #ffffff; stroke-width: 0.75"/>
     <use xlink:href="#m79dd4adfc9" x="145.177522" y="83.914754" style="fill: #4c72b0; stroke: #ffffff; stroke-width: 0.75"/>
     <use xlink:href="#m79dd4adfc9" x="162.641009" y="87.555924" style="fill: #4c72b0; stroke: #ffffff; stroke-width: 0.75"/>
     <use xlink:href="#m79dd4adfc9" x="180.104497" y="91.026065" style="fill: #4c72b0; stroke: #ffffff; stroke-width: 0.75"/>
     <use xlink:href="#m79dd4adfc9" x="197.567984" y="94.537449" style="fill: #4c72b0; stroke: #ffffff; stroke-width: 0.75"/>
     <use xlink:href="#m79dd4adfc9" x="215.031471" y="101.129888" style="fill: #4c72b0; stroke: #ffffff; stroke-width: 0.75"/>
     <use xlink:href="#m79dd4adfc9" x="232.494959" y="111.066183" style="fill: #4c72b0; stroke: #ffffff; stroke-width: 0.75"/>
    </g>
   </g>
   <g id="line2d_11">
    <path d="M 57.860085 67.513288 
L 58.345182 67.442712 
L 58.830279 67.829134 
L 59.315376 68.011828 
L 61.255763 68.075324 
L 63.196151 68.16412 
L 64.651441 68.100155 
L 65.621635 68.494813 
L 67.562023 68.618393 
L 74.353379 68.794845 
L 75.323573 68.787296 
L 75.808669 69.601892 
L 77.26396 69.725744 
L 77.749057 70.3015 
L 78.234154 70.538839 
L 80.174541 70.609511 
L 81.629832 70.812587 
L 82.114929 70.832766 
L 82.600026 71.761951 
L 83.570219 71.872195 
L 85.02551 71.948523 
L 85.995704 72.117332 
L 86.965897 72.230657 
L 87.936091 72.283595 
L 88.906285 72.366288 
L 90.361576 72.386015 
L 90.846672 72.500348 
L 91.331769 72.891402 
L 94.727447 73.133677 
L 97.638029 73.220031 
L 98.123125 73.742883 
L 98.608222 73.941236 
L 99.093319 74.311665 
L 99.578416 74.314884 
L 100.063513 74.909049 
L 102.0039 74.977809 
L 103.459191 75.209154 
L 103.944288 75.393494 
L 106.854869 75.774974 
L 107.339966 76.003781 
L 107.825063 76.437205 
L 110.735644 76.512379 
L 111.220741 76.988686 
L 112.190935 77.07577 
L 112.676032 77.219626 
L 113.161128 77.652217 
L 115.101516 77.91495 
L 118.497194 78.093903 
L 118.982291 78.775935 
L 119.952485 78.900357 
L 120.437582 79.498949 
L 124.803453 79.764159 
L 125.28855 79.947387 
L 127.714035 80.28834 
L 128.199131 80.459454 
L 132.565003 80.562969 
L 133.0501 80.799408 
L 135.960681 81.023776 
L 136.445778 81.245229 
L 137.901069 81.402687 
L 138.386166 81.971842 
L 141.781844 82.088819 
L 142.266941 82.29758 
L 143.722231 82.32484 
L 144.207328 82.717114 
L 144.692425 82.843214 
L 145.177522 83.378056 
L 149.543394 83.642927 
L 150.513587 83.738054 
L 151.483781 83.754066 
L 151.968878 83.968969 
L 152.453975 83.970526 
L 152.939072 84.206261 
L 154.394362 84.238676 
L 154.879459 84.449429 
L 158.275137 84.76733 
L 158.760234 84.95026 
L 160.215525 85.08891 
L 160.700622 85.139148 
L 161.185719 85.482684 
L 164.581397 85.732134 
L 165.066494 86.288636 
L 166.036687 86.292535 
L 166.521784 86.804931 
L 167.977075 86.845969 
L 168.462172 87.059052 
L 168.947269 87.059938 
L 169.432365 87.32622 
L 170.402559 87.380082 
L 171.372753 87.509076 
L 172.342947 87.544569 
L 173.31314 87.753206 
L 175.253528 87.784948 
L 175.738625 87.965708 
L 176.708818 88.049809 
L 177.193915 88.429642 
L 177.679012 88.629076 
L 181.07469 88.76921 
L 183.985272 89.15295 
L 184.470368 89.585696 
L 186.895853 90.046917 
L 187.866046 90.075778 
L 188.351143 90.339901 
L 188.83624 90.348907 
L 189.321337 90.59716 
L 190.291531 90.625059 
L 190.776628 90.767706 
L 191.261725 90.779758 
L 191.746821 90.933303 
L 193.202112 91.013826 
L 196.59779 91.232403 
L 197.082887 91.55796 
L 197.567984 91.560478 
L 198.053081 92.041751 
L 200.478565 92.127479 
L 200.963662 92.353035 
L 201.448759 92.931534 
L 202.418953 92.97054 
L 202.904049 93.259416 
L 204.35934 93.36221 
L 207.269921 93.675738 
L 209.210309 93.748711 
L 211.150696 94.695353 
L 213.091084 94.797556 
L 213.576181 94.831979 
L 214.061277 95.212546 
L 215.516568 95.456064 
L 216.486762 95.490936 
L 216.971859 96.286469 
L 217.456956 96.285146 
L 218.427149 96.401704 
L 219.397343 96.487721 
L 221.822827 96.642567 
L 222.307924 97.037675 
L 224.733409 97.122163 
L 225.703602 97.417161 
L 228.614184 97.550399 
L 229.09928 97.720913 
L 230.069474 97.798899 
L 230.554571 98.003672 
L 233.465152 98.185867 
L 234.435346 98.639378 
L 235.40554 98.660509 
L 235.40554 98.660509 
" clip-path="url(#p029670d1cd)" style="fill: none; stroke-dasharray: 6,2.25; stroke-dashoffset: 0; stroke: #4c72b0; stroke-width: 1.5"/>
    <defs>
     <path id="m3443657289" d="M -1.75 3.5 
L 0 1.75 
L 1.75 3.5 
L 3.5 1.75 
L 1.75 0 
L 3.5 -1.75 
L 1.75 -3.5 
L 0 -1.75 
L -1.75 -3.5 
L -3.5 -1.75 
L -1.75 0 
L -3.5 1.75 
z
" style="stroke: #ffffff; stroke-width: 0.75; stroke-linejoin: miter"/>
    </defs>
    <g clip-path="url(#p029670d1cd)">
     <use xlink:href="#m3443657289" x="57.860085" y="67.513288" style="fill: #4c72b0; stroke: #ffffff; stroke-width: 0.75; stroke-linejoin: miter"/>
     <use xlink:href="#m3443657289" x="75.323573" y="68.787296" style="fill: #4c72b0; stroke: #ffffff; stroke-width: 0.75; stroke-linejoin: miter"/>
     <use xlink:href="#m3443657289" x="92.78706" y="73.027344" style="fill: #4c72b0; stroke: #ffffff; stroke-width: 0.75; stroke-linejoin: miter"/>
     <use xlink:href="#m3443657289" x="110.250547" y="76.503469" style="fill: #4c72b0; stroke: #ffffff; stroke-width: 0.75; stroke-linejoin: miter"/>
     <use xlink:href="#m3443657289" x="127.714035" y="80.28834" style="fill: #4c72b0; stroke: #ffffff; stroke-width: 0.75; stroke-linejoin: miter"/>
     <use xlink:href="#m3443657289" x="145.177522" y="83.378056" style="fill: #4c72b0; stroke: #ffffff; stroke-width: 0.75; stroke-linejoin: miter"/>
     <use xlink:href="#m3443657289" x="162.641009" y="85.609074" style="fill: #4c72b0; stroke: #ffffff; stroke-width: 0.75; stroke-linejoin: miter"/>
     <use xlink:href="#m3443657289" x="180.104497" y="88.662561" style="fill: #4c72b0; stroke: #ffffff; stroke-width: 0.75; stroke-linejoin: miter"/>
     <use xlink:href="#m3443657289" x="197.567984" y="91.560478" style="fill: #4c72b0; stroke: #ffffff; stroke-width: 0.75; stroke-linejoin: miter"/>
     <use xlink:href="#m3443657289" x="215.031471" y="95.445084" style="fill: #4c72b0; stroke: #ffffff; stroke-width: 0.75; stroke-linejoin: miter"/>
     <use xlink:href="#m3443657289" x="232.494959" y="98.157584" style="fill: #4c72b0; stroke: #ffffff; stroke-width: 0.75; stroke-linejoin: miter"/>
    </g>
   </g>
   <g id="line2d_12">
    <path d="M 57.860085 67.515424 
L 58.345182 67.428811 
L 58.830279 67.734984 
L 59.800473 67.782591 
L 78.234154 68.023721 
L 81.629832 68.141118 
L 82.600026 68.136856 
L 83.085122 68.292565 
L 85.02551 68.316128 
L 86.965897 68.371344 
L 91.331769 68.438026 
L 92.301963 68.540045 
L 100.54861 68.612912 
L 108.795257 68.756128 
L 110.250547 68.803222 
L 112.190935 68.823365 
L 113.161128 68.903402 
L 130.624616 69.339528 
L 135.960681 69.458269 
L 141.781844 69.582787 
L 145.177522 69.654906 
L 182.044884 70.109513 
L 192.717015 70.216453 
L 215.031471 70.398254 
L 235.40554 70.481036 
L 235.40554 70.481036 
" clip-path="url(#p029670d1cd)" style="fill: none; stroke-dasharray: 1.5,1.5; stroke-dashoffset: 0; stroke: #4c72b0; stroke-width: 1.5"/>
    <defs>
     <path id="m7a1c8173b7" d="M -2.474874 -2.474874 
L -2.474874 2.474874 
L 2.474874 2.474874 
L 2.474874 -2.474874 
z
" style="stroke: #ffffff; stroke-width: 0.75; stroke-linejoin: miter"/>
    </defs>
    <g clip-path="url(#p029670d1cd)">
     <use xlink:href="#m7a1c8173b7" x="57.860085" y="67.515424" style="fill: #4c72b0; stroke: #ffffff; stroke-width: 0.75; stroke-linejoin: miter"/>
     <use xlink:href="#m7a1c8173b7" x="75.323573" y="67.952304" style="fill: #4c72b0; stroke: #ffffff; stroke-width: 0.75; stroke-linejoin: miter"/>
     <use xlink:href="#m7a1c8173b7" x="92.78706" y="68.537906" style="fill: #4c72b0; stroke: #ffffff; stroke-width: 0.75; stroke-linejoin: miter"/>
     <use xlink:href="#m7a1c8173b7" x="110.250547" y="68.803222" style="fill: #4c72b0; stroke: #ffffff; stroke-width: 0.75; stroke-linejoin: miter"/>
     <use xlink:href="#m7a1c8173b7" x="127.714035" y="69.279007" style="fill: #4c72b0; stroke: #ffffff; stroke-width: 0.75; stroke-linejoin: miter"/>
     <use xlink:href="#m7a1c8173b7" x="145.177522" y="69.654906" style="fill: #4c72b0; stroke: #ffffff; stroke-width: 0.75; stroke-linejoin: miter"/>
     <use xlink:href="#m7a1c8173b7" x="162.641009" y="69.864271" style="fill: #4c72b0; stroke: #ffffff; stroke-width: 0.75; stroke-linejoin: miter"/>
     <use xlink:href="#m7a1c8173b7" x="180.104497" y="70.091145" style="fill: #4c72b0; stroke: #ffffff; stroke-width: 0.75; stroke-linejoin: miter"/>
     <use xlink:href="#m7a1c8173b7" x="197.567984" y="70.252021" style="fill: #4c72b0; stroke: #ffffff; stroke-width: 0.75; stroke-linejoin: miter"/>
     <use xlink:href="#m7a1c8173b7" x="215.031471" y="70.398254" style="fill: #4c72b0; stroke: #ffffff; stroke-width: 0.75; stroke-linejoin: miter"/>
     <use xlink:href="#m7a1c8173b7" x="232.494959" y="70.468124" style="fill: #4c72b0; stroke: #ffffff; stroke-width: 0.75; stroke-linejoin: miter"/>
    </g>
   </g>
   <g id="line2d_13">
    <path d="M 57.860085 63.923702 
L 58.345182 67.59047 
L 59.315376 67.924732 
L 60.28557 68.046236 
L 61.255763 68.215042 
L 62.225957 68.726845 
L 66.106732 69.049189 
L 66.591829 69.363493 
L 67.562023 69.409883 
L 70.472604 69.853261 
L 71.442798 69.852114 
L 71.927894 70.367938 
L 74.353379 70.473992 
L 78.234154 70.837125 
L 80.659638 71.022167 
L 81.144735 71.274001 
L 82.600026 71.372376 
L 84.540413 71.552817 
L 86.480801 71.655334 
L 87.936091 71.759282 
L 88.421188 71.787558 
L 88.906285 72.053787 
L 91.331769 72.104866 
L 91.816866 72.252594 
L 95.212544 72.393809 
L 100.54861 72.795236 
L 103.459191 72.860548 
L 103.944288 73.171999 
L 108.31016 73.245979 
L 108.795257 73.316293 
L 109.280353 73.567717 
L 114.616419 73.687956 
L 116.556807 73.744367 
L 117.041903 73.890771 
L 117.527 74.234515 
L 118.982291 74.314413 
L 119.467388 74.314044 
L 119.952485 74.761161 
L 122.377969 74.819163 
L 122.863066 74.979677 
L 124.803453 75.09522 
L 125.28855 75.261726 
L 126.743841 75.280032 
L 127.228938 75.536833 
L 129.654422 75.588075 
L 130.139519 75.970585 
L 133.535197 76.046531 
L 135.960681 76.423258 
L 137.415972 76.529747 
L 137.901069 76.667619 
L 138.386166 76.672193 
L 138.871263 77.211611 
L 139.356359 77.211948 
L 139.841456 77.510068 
L 141.296747 77.525192 
L 142.266941 77.641537 
L 143.237134 77.690663 
L 144.207328 77.792694 
L 145.662619 77.834281 
L 146.147716 78.414542 
L 148.088103 78.629413 
L 148.5732 78.781782 
L 153.909266 79.133486 
L 154.394362 79.386013 
L 160.700622 79.877849 
L 161.185719 80.365723 
L 161.670815 80.566014 
L 163.611203 80.684327 
L 165.55159 80.917468 
L 166.036687 80.927914 
L 166.521784 81.223345 
L 171.372753 81.75758 
L 172.828043 81.833274 
L 174.768431 81.946593 
L 180.589593 82.170184 
L 181.07469 82.180303 
L 181.559787 82.395007 
L 185.440562 82.511116 
L 185.925659 82.936108 
L 189.321337 83.116655 
L 189.806434 83.239998 
L 190.776628 83.314404 
L 191.746821 84.547477 
L 193.687209 84.981118 
L 195.1425 85.071279 
L 196.112693 85.166937 
L 196.59779 85.396566 
L 197.082887 85.408331 
L 197.567984 85.598214 
L 199.023274 85.660519 
L 199.993468 85.805383 
L 201.448759 86.435224 
L 201.933856 87.066227 
L 202.418953 87.102342 
L 202.904049 88.072215 
L 203.389146 88.07485 
L 203.874243 89.215519 
L 205.329534 89.358153 
L 205.814631 89.388162 
L 206.299728 90.308458 
L 207.269921 90.3111 
L 207.755018 90.731854 
L 208.240115 90.733063 
L 208.725212 92.800232 
L 211.150696 92.932376 
L 212.12089 93.388909 
L 216.486762 93.474139 
L 216.971859 95.422245 
L 218.427149 95.531459 
L 218.912246 96.91468 
L 220.852634 97.053797 
L 222.307924 97.372554 
L 222.793021 98.031021 
L 223.763215 98.084034 
L 224.733409 99.589436 
L 225.218505 101.119096 
L 225.703602 101.344061 
L 226.188699 101.361666 
L 226.673796 103.516373 
L 227.158893 104.723901 
L 228.614184 105.080864 
L 229.09928 106.122401 
L 229.584377 106.157663 
L 230.069474 107.581974 
L 230.554571 110.987734 
L 231.039668 111.013476 
L 232.009862 113.305194 
L 232.494959 115.245228 
L 232.980055 115.295141 
L 233.465152 117.057156 
L 233.950249 117.273253 
L 234.435346 118.897556 
L 234.920443 119.572104 
L 235.40554 139.5 
L 235.40554 139.5 
" clip-path="url(#p029670d1cd)" style="fill: none; stroke: #dd8452; stroke-width: 1.5; stroke-linecap: square"/>
    <defs>
     <path id="m7f99fa855f" d="M 0 3.5 
C 0.928211 3.5 1.81853 3.131218 2.474874 2.474874 
C 3.131218 1.81853 3.5 0.928211 3.5 0 
C 3.5 -0.928211 3.131218 -1.81853 2.474874 -2.474874 
C 1.81853 -3.131218 0.928211 -3.5 0 -3.5 
C -0.928211 -3.5 -1.81853 -3.131218 -2.474874 -2.474874 
C -3.131218 -1.81853 -3.5 -0.928211 -3.5 0 
C -3.5 0.928211 -3.131218 1.81853 -2.474874 2.474874 
C -1.81853 3.131218 -0.928211 3.5 0 3.5 
z
" style="stroke: #ffffff; stroke-width: 0.75"/>
    </defs>
    <g clip-path="url(#p029670d1cd)">
     <use xlink:href="#m7f99fa855f" x="57.860085" y="63.923702" style="fill: #dd8452; stroke: #ffffff; stroke-width: 0.75"/>
     <use xlink:href="#m7f99fa855f" x="75.323573" y="70.66308" style="fill: #dd8452; stroke: #ffffff; stroke-width: 0.75"/>
     <use xlink:href="#m7f99fa855f" x="92.78706" y="72.305289" style="fill: #dd8452; stroke: #ffffff; stroke-width: 0.75"/>
     <use xlink:href="#m7f99fa855f" x="110.250547" y="73.56942" style="fill: #dd8452; stroke: #ffffff; stroke-width: 0.75"/>
     <use xlink:href="#m7f99fa855f" x="127.714035" y="75.536971" style="fill: #dd8452; stroke: #ffffff; stroke-width: 0.75"/>
     <use xlink:href="#m7f99fa855f" x="145.177522" y="77.834096" style="fill: #dd8452; stroke: #ffffff; stroke-width: 0.75"/>
     <use xlink:href="#m7f99fa855f" x="162.641009" y="80.585199" style="fill: #dd8452; stroke: #ffffff; stroke-width: 0.75"/>
     <use xlink:href="#m7f99fa855f" x="180.104497" y="82.167261" style="fill: #dd8452; stroke: #ffffff; stroke-width: 0.75"/>
     <use xlink:href="#m7f99fa855f" x="197.567984" y="85.598214" style="fill: #dd8452; stroke: #ffffff; stroke-width: 0.75"/>
     <use xlink:href="#m7f99fa855f" x="215.031471" y="93.447788" style="fill: #dd8452; stroke: #ffffff; stroke-width: 0.75"/>
     <use xlink:href="#m7f99fa855f" x="232.494959" y="115.245228" style="fill: #dd8452; stroke: #ffffff; stroke-width: 0.75"/>
    </g>
   </g>
   <g id="line2d_14">
    <path d="M 57.860085 63.922207 
L 58.830279 67.578973 
L 59.800473 67.870649 
L 60.770666 68.193699 
L 61.255763 68.2378 
L 62.225957 68.682076 
L 64.651441 68.784647 
L 65.136538 68.80115 
L 65.621635 68.968191 
L 66.106732 69.010837 
L 66.591829 69.217123 
L 69.017313 69.325223 
L 69.987507 69.654613 
L 70.957701 69.673198 
L 71.927894 69.765046 
L 72.412991 69.770003 
L 72.898088 70.14681 
L 75.323573 70.237147 
L 76.293766 70.399445 
L 79.204348 70.510982 
L 79.689444 70.5999 
L 80.174541 70.948163 
L 87.450994 71.562607 
L 88.421188 71.680014 
L 88.906285 71.68554 
L 89.391382 71.826508 
L 92.301963 71.967768 
L 93.272157 72.059893 
L 96.667835 72.163184 
L 97.638029 72.163543 
L 98.123125 72.399992 
L 99.578416 72.478699 
L 101.518804 72.493248 
L 102.0039 72.81391 
L 102.488997 72.827035 
L 103.459191 72.990684 
L 108.795257 73.057337 
L 109.280353 73.289867 
L 110.735644 73.36883 
L 113.161128 73.603706 
L 114.131322 73.610696 
L 115.101516 74.02333 
L 117.041903 74.18627 
L 118.982291 74.235623 
L 119.467388 74.403779 
L 122.377969 74.534614 
L 122.863066 74.855617 
L 126.743841 75.09897 
L 127.714035 75.19556 
L 129.169325 75.207907 
L 129.654422 75.464193 
L 137.415972 75.81758 
L 137.901069 76.227961 
L 139.841456 76.459258 
L 141.296747 76.488327 
L 141.781844 76.621217 
L 142.266941 77.161872 
L 146.632812 77.295641 
L 149.543394 77.539231 
L 150.513587 77.631757 
L 151.483781 77.821653 
L 152.453975 77.928565 
L 153.424169 77.96898 
L 154.394362 78.21246 
L 155.849653 78.319397 
L 156.33475 78.774607 
L 157.790041 78.880047 
L 158.275137 79.19388 
L 159.245331 79.244732 
L 160.215525 79.510098 
L 161.185719 79.545522 
L 162.155912 80.487522 
L 164.581397 80.557247 
L 165.066494 81.026276 
L 167.006881 81.165405 
L 168.462172 81.260722 
L 168.947269 81.941469 
L 169.917462 82.028315 
L 171.85785 82.066319 
L 172.342947 82.245519 
L 172.828043 82.271978 
L 173.798237 82.463582 
L 175.253528 82.566891 
L 181.559787 82.97604 
L 183.500175 83.154006 
L 183.985272 83.166541 
L 184.470368 83.910031 
L 184.955465 84.245249 
L 185.925659 84.340335 
L 186.895853 84.403426 
L 187.38095 84.786295 
L 187.866046 85.02627 
L 188.351143 85.026909 
L 188.83624 85.688095 
L 190.291531 85.816029 
L 191.261725 85.829051 
L 191.746821 86.026305 
L 193.202112 86.09876 
L 194.172306 87.782409 
L 195.1425 87.892568 
L 196.59779 87.951323 
L 197.082887 88.133246 
L 197.567984 88.191692 
L 198.053081 88.716829 
L 199.993468 88.765973 
L 200.478565 89.723233 
L 200.963662 89.925373 
L 201.933856 89.97542 
L 202.418953 90.143159 
L 202.904049 90.619724 
L 204.35934 90.839026 
L 204.844437 90.902749 
L 205.329534 92.204005 
L 207.755018 92.301519 
L 208.240115 92.333369 
L 208.725212 92.539387 
L 209.210309 92.541155 
L 209.695406 92.690616 
L 211.635793 92.802874 
L 212.12089 92.99484 
L 214.061277 93.011145 
L 214.546374 93.223436 
L 218.427149 93.488818 
L 220.367537 93.501208 
L 220.852634 93.937828 
L 221.337731 94.114579 
L 222.307924 94.277639 
L 222.793021 94.839571 
L 223.278118 94.842479 
L 223.763215 95.152756 
L 224.248312 95.154656 
L 224.733409 95.796864 
L 225.703602 95.824304 
L 226.188699 96.129073 
L 227.64399 96.193895 
L 228.129087 96.216377 
L 228.614184 96.417459 
L 229.09928 96.803543 
L 230.069474 96.807138 
L 230.554571 97.070496 
L 231.039668 97.104667 
L 231.524765 98.004771 
L 234.920443 98.260561 
L 235.40554 98.660655 
L 235.40554 98.660655 
" clip-path="url(#p029670d1cd)" style="fill: none; stroke-dasharray: 6,2.25; stroke-dashoffset: 0; stroke: #dd8452; stroke-width: 1.5"/>
    <defs>
     <path id="m9583c298aa" d="M -1.75 3.5 
L 0 1.75 
L 1.75 3.5 
L 3.5 1.75 
L 1.75 0 
L 3.5 -1.75 
L 1.75 -3.5 
L 0 -1.75 
L -1.75 -3.5 
L -3.5 -1.75 
L -1.75 0 
L -3.5 1.75 
z
" style="stroke: #ffffff; stroke-width: 0.75; stroke-linejoin: miter"/>
    </defs>
    <g clip-path="url(#p029670d1cd)">
     <use xlink:href="#m9583c298aa" x="57.860085" y="63.922207" style="fill: #dd8452; stroke: #ffffff; stroke-width: 0.75; stroke-linejoin: miter"/>
     <use xlink:href="#m9583c298aa" x="75.323573" y="70.237147" style="fill: #dd8452; stroke: #ffffff; stroke-width: 0.75; stroke-linejoin: miter"/>
     <use xlink:href="#m9583c298aa" x="92.78706" y="72.054916" style="fill: #dd8452; stroke: #ffffff; stroke-width: 0.75; stroke-linejoin: miter"/>
     <use xlink:href="#m9583c298aa" x="110.250547" y="73.343871" style="fill: #dd8452; stroke: #ffffff; stroke-width: 0.75; stroke-linejoin: miter"/>
     <use xlink:href="#m9583c298aa" x="127.714035" y="75.19556" style="fill: #dd8452; stroke: #ffffff; stroke-width: 0.75; stroke-linejoin: miter"/>
     <use xlink:href="#m9583c298aa" x="145.177522" y="77.277289" style="fill: #dd8452; stroke: #ffffff; stroke-width: 0.75; stroke-linejoin: miter"/>
     <use xlink:href="#m9583c298aa" x="162.641009" y="80.488595" style="fill: #dd8452; stroke: #ffffff; stroke-width: 0.75; stroke-linejoin: miter"/>
     <use xlink:href="#m9583c298aa" x="180.104497" y="82.819846" style="fill: #dd8452; stroke: #ffffff; stroke-width: 0.75; stroke-linejoin: miter"/>
     <use xlink:href="#m9583c298aa" x="197.567984" y="88.191692" style="fill: #dd8452; stroke: #ffffff; stroke-width: 0.75; stroke-linejoin: miter"/>
     <use xlink:href="#m9583c298aa" x="215.031471" y="93.266193" style="fill: #dd8452; stroke: #ffffff; stroke-width: 0.75; stroke-linejoin: miter"/>
     <use xlink:href="#m9583c298aa" x="232.494959" y="98.028278" style="fill: #dd8452; stroke: #ffffff; stroke-width: 0.75; stroke-linejoin: miter"/>
    </g>
   </g>
   <g id="line2d_15">
    <path d="M 57.860085 63.922043 
L 58.830279 67.428505 
L 61.74086 67.819617 
L 63.681248 67.852019 
L 68.04712 67.928452 
L 80.174541 68.105453 
L 83.570219 68.180563 
L 93.757254 68.275113 
L 96.182738 68.329838 
L 108.31016 68.540077 
L 116.07171 68.6555 
L 120.437582 68.756937 
L 137.901069 68.996939 
L 145.177522 69.15932 
L 147.117909 69.211292 
L 150.998684 69.28045 
L 158.275137 69.371497 
L 184.470368 69.872142 
L 191.261725 70.061218 
L 203.389146 70.152577 
L 210.665599 70.24141 
L 213.091084 70.305976 
L 226.673796 70.414937 
L 235.40554 70.481036 
L 235.40554 70.481036 
" clip-path="url(#p029670d1cd)" style="fill: none; stroke-dasharray: 1.5,1.5; stroke-dashoffset: 0; stroke: #dd8452; stroke-width: 1.5"/>
    <defs>
     <path id="m6384a67300" d="M -2.474874 -2.474874 
L -2.474874 2.474874 
L 2.474874 2.474874 
L 2.474874 -2.474874 
z
" style="stroke: #ffffff; stroke-width: 0.75; stroke-linejoin: miter"/>
    </defs>
    <g clip-path="url(#p029670d1cd)">
     <use xlink:href="#m6384a67300" x="57.860085" y="63.922043" style="fill: #dd8452; stroke: #ffffff; stroke-width: 0.75; stroke-linejoin: miter"/>
     <use xlink:href="#m6384a67300" x="75.323573" y="67.992392" style="fill: #dd8452; stroke: #ffffff; stroke-width: 0.75; stroke-linejoin: miter"/>
     <use xlink:href="#m6384a67300" x="92.78706" y="68.281068" style="fill: #dd8452; stroke: #ffffff; stroke-width: 0.75; stroke-linejoin: miter"/>
     <use xlink:href="#m6384a67300" x="110.250547" y="68.542741" style="fill: #dd8452; stroke: #ffffff; stroke-width: 0.75; stroke-linejoin: miter"/>
     <use xlink:href="#m6384a67300" x="127.714035" y="68.900824" style="fill: #dd8452; stroke: #ffffff; stroke-width: 0.75; stroke-linejoin: miter"/>
     <use xlink:href="#m6384a67300" x="145.177522" y="69.15932" style="fill: #dd8452; stroke: #ffffff; stroke-width: 0.75; stroke-linejoin: miter"/>
     <use xlink:href="#m6384a67300" x="162.641009" y="69.455252" style="fill: #dd8452; stroke: #ffffff; stroke-width: 0.75; stroke-linejoin: miter"/>
     <use xlink:href="#m6384a67300" x="180.104497" y="69.685258" style="fill: #dd8452; stroke: #ffffff; stroke-width: 0.75; stroke-linejoin: miter"/>
     <use xlink:href="#m6384a67300" x="197.567984" y="70.12123" style="fill: #dd8452; stroke: #ffffff; stroke-width: 0.75; stroke-linejoin: miter"/>
     <use xlink:href="#m6384a67300" x="215.031471" y="70.307056" style="fill: #dd8452; stroke: #ffffff; stroke-width: 0.75; stroke-linejoin: miter"/>
     <use xlink:href="#m6384a67300" x="232.494959" y="70.473147" style="fill: #dd8452; stroke: #ffffff; stroke-width: 0.75; stroke-linejoin: miter"/>
    </g>
   </g>
   <g id="line2d_16">
    <path d="M 57.860085 67.757111 
L 58.345182 67.547119 
L 58.830279 67.783679 
L 59.800473 67.823823 
L 60.28557 68.163933 
L 61.255763 68.076595 
L 61.74086 67.956506 
L 62.225957 68.607048 
L 62.711054 68.602521 
L 63.681248 68.755092 
L 64.651441 68.793412 
L 65.136538 68.668996 
L 65.621635 68.883394 
L 66.106732 68.855524 
L 68.532216 69.213792 
L 69.987507 69.23202 
L 70.472604 69.426619 
L 71.927894 69.359262 
L 74.353379 69.308406 
L 74.838476 69.991284 
L 76.293766 70.010099 
L 76.778863 70.315806 
L 79.204348 70.358055 
L 79.689444 70.957762 
L 80.659638 71.014802 
L 83.085122 71.11152 
L 83.570219 71.339155 
L 89.391382 71.556956 
L 90.361576 71.674327 
L 97.152932 71.921078 
L 97.638029 72.602572 
L 98.123125 72.61406 
L 99.093319 72.87156 
L 104.914482 73.083677 
L 109.76545 73.157977 
L 110.250547 73.875588 
L 110.735644 73.871236 
L 111.220741 74.117776 
L 113.161128 74.177241 
L 114.131322 74.235078 
L 115.101516 74.865541 
L 115.586613 75.331703 
L 118.982291 75.447508 
L 119.952485 75.494104 
L 120.922678 75.620996 
L 122.377969 75.721565 
L 125.28855 75.820647 
L 128.199131 75.906257 
L 129.169325 76.013183 
L 131.59481 76.096934 
L 132.565003 76.188306 
L 133.0501 76.333859 
L 136.445778 76.547336 
L 136.930875 76.714437 
L 140.326553 76.800275 
L 141.296747 76.913319 
L 144.692425 77.073295 
L 149.058297 77.347015 
L 156.33475 77.73589 
L 156.819847 77.821895 
L 157.304944 78.333337 
L 159.245331 78.421161 
L 161.185719 78.460506 
L 162.155912 78.932985 
L 163.126106 78.996807 
L 168.947269 79.119889 
L 170.402559 79.164908 
L 170.887656 79.361056 
L 173.31314 79.411734 
L 174.283334 79.51886 
L 175.253528 79.570836 
L 175.738625 79.810256 
L 176.708818 79.837917 
L 177.193915 79.955791 
L 177.679012 79.955754 
L 178.164109 80.236743 
L 181.07469 80.278252 
L 181.559787 80.657855 
L 183.015078 80.6825 
L 183.500175 80.82244 
L 183.985272 80.844979 
L 184.470368 81.125913 
L 187.38095 81.207379 
L 188.351143 81.378314 
L 191.746821 81.503995 
L 192.717015 81.524119 
L 193.202112 81.730613 
L 195.627596 81.74739 
L 196.59779 81.908612 
L 197.082887 82.379419 
L 199.023274 82.702221 
L 200.963662 82.819887 
L 201.448759 82.833292 
L 201.933856 83.274751 
L 202.418953 83.284852 
L 202.904049 83.433853 
L 209.210309 83.560905 
L 212.12089 83.791823 
L 212.605987 84.357652 
L 214.546374 84.461247 
L 215.031471 84.886493 
L 216.001665 85.036966 
L 216.486762 85.037703 
L 216.971859 85.227895 
L 217.456956 85.225864 
L 218.427149 86.951686 
L 218.912246 86.959543 
L 219.397343 87.20547 
L 221.822827 87.334384 
L 222.307924 90.691616 
L 223.763215 90.762954 
L 225.218505 90.89393 
L 226.188699 91.86642 
L 228.129087 92.079723 
L 228.614184 92.482304 
L 231.039668 92.646298 
L 231.524765 92.898182 
L 232.494959 92.933557 
L 232.980055 100.301131 
L 233.465152 105.904208 
L 233.950249 105.93327 
L 234.920443 132.421829 
L 235.40554 139.487573 
L 235.40554 139.487573 
" clip-path="url(#p029670d1cd)" style="fill: none; stroke: #55a868; stroke-width: 1.5; stroke-linecap: square"/>
    <defs>
     <path id="mb2c5e65a28" d="M 0 3.5 
C 0.928211 3.5 1.81853 3.131218 2.474874 2.474874 
C 3.131218 1.81853 3.5 0.928211 3.5 0 
C 3.5 -0.928211 3.131218 -1.81853 2.474874 -2.474874 
C 1.81853 -3.131218 0.928211 -3.5 0 -3.5 
C -0.928211 -3.5 -1.81853 -3.131218 -2.474874 -2.474874 
C -3.131218 -1.81853 -3.5 -0.928211 -3.5 0 
C -3.5 0.928211 -3.131218 1.81853 -2.474874 2.474874 
C -1.81853 3.131218 -0.928211 3.5 0 3.5 
z
" style="stroke: #ffffff; stroke-width: 0.75"/>
    </defs>
    <g clip-path="url(#p029670d1cd)">
     <use xlink:href="#mb2c5e65a28" x="57.860085" y="67.757111" style="fill: #55a868; stroke: #ffffff; stroke-width: 0.75"/>
     <use xlink:href="#mb2c5e65a28" x="75.323573" y="70.014687" style="fill: #55a868; stroke: #ffffff; stroke-width: 0.75"/>
     <use xlink:href="#mb2c5e65a28" x="92.78706" y="71.691351" style="fill: #55a868; stroke: #ffffff; stroke-width: 0.75"/>
     <use xlink:href="#mb2c5e65a28" x="110.250547" y="73.875588" style="fill: #55a868; stroke: #ffffff; stroke-width: 0.75"/>
     <use xlink:href="#mb2c5e65a28" x="127.714035" y="75.903549" style="fill: #55a868; stroke: #ffffff; stroke-width: 0.75"/>
     <use xlink:href="#mb2c5e65a28" x="145.177522" y="77.114419" style="fill: #55a868; stroke: #ffffff; stroke-width: 0.75"/>
     <use xlink:href="#mb2c5e65a28" x="162.641009" y="78.993416" style="fill: #55a868; stroke: #ffffff; stroke-width: 0.75"/>
     <use xlink:href="#mb2c5e65a28" x="180.104497" y="80.257479" style="fill: #55a868; stroke: #ffffff; stroke-width: 0.75"/>
     <use xlink:href="#mb2c5e65a28" x="197.567984" y="82.480878" style="fill: #55a868; stroke: #ffffff; stroke-width: 0.75"/>
     <use xlink:href="#mb2c5e65a28" x="215.031471" y="84.886493" style="fill: #55a868; stroke: #ffffff; stroke-width: 0.75"/>
     <use xlink:href="#mb2c5e65a28" x="232.494959" y="92.933557" style="fill: #55a868; stroke: #ffffff; stroke-width: 0.75"/>
    </g>
   </g>
   <g id="line2d_17">
    <path d="M 57.860085 66.704499 
L 58.345182 67.93695 
L 59.315376 67.802524 
L 59.800473 68.239659 
L 60.28557 67.964239 
L 60.770666 68.439339 
L 61.74086 68.674104 
L 62.225957 68.674644 
L 63.196151 68.886295 
L 63.681248 68.821187 
L 66.591829 69.224545 
L 67.076926 69.508059 
L 69.50241 69.829632 
L 69.987507 70.162817 
L 70.957701 70.157112 
L 72.898088 70.667773 
L 73.868282 70.734129 
L 75.808669 70.895163 
L 76.293766 71.294699 
L 78.234154 71.413315 
L 78.719251 71.458089 
L 79.204348 71.64399 
L 81.144735 71.754806 
L 81.629832 71.894894 
L 82.114929 71.895199 
L 82.600026 72.035008 
L 83.570219 72.063623 
L 84.540413 72.439791 
L 88.421188 72.495549 
L 90.361576 72.6889 
L 100.063513 73.511883 
L 100.54861 73.710179 
L 101.033707 74.089482 
L 107.339966 74.400096 
L 107.825063 74.663685 
L 109.76545 74.695837 
L 110.735644 74.806326 
L 119.467388 75.393208 
L 122.863066 75.481011 
L 127.228938 75.954641 
L 127.714035 76.214918 
L 130.624616 76.416541 
L 131.109713 76.787727 
L 132.079906 76.861535 
L 132.565003 77.122803 
L 134.990488 77.297912 
L 138.386166 77.615568 
L 139.356359 77.68969 
L 142.752038 77.777186 
L 143.237134 78.005846 
L 144.207328 78.09766 
L 145.177522 78.136774 
L 146.147716 78.2414 
L 149.058297 78.420456 
L 150.998684 78.760761 
L 153.424169 78.865594 
L 154.394362 78.941328 
L 156.33475 78.982603 
L 156.819847 79.220803 
L 160.215525 79.333407 
L 161.185719 79.411675 
L 169.432365 79.78709 
L 169.917462 79.956047 
L 170.402559 80.007229 
L 171.372753 80.47246 
L 173.31314 80.590691 
L 174.283334 80.673851 
L 178.649206 80.837431 
L 179.134303 81.527368 
L 179.6194 81.538686 
L 180.104497 81.727248 
L 180.589593 81.754151 
L 181.07469 82.570593 
L 181.559787 82.959073 
L 182.044884 83.089425 
L 186.410756 83.286654 
L 187.38095 83.330757 
L 188.351143 84.452689 
L 189.806434 84.558498 
L 190.291531 84.583853 
L 190.776628 84.750775 
L 194.172306 84.828269 
L 195.1425 85.107488 
L 195.627596 85.115575 
L 196.112693 85.495983 
L 198.538178 85.679105 
L 199.023274 85.911991 
L 201.933856 85.977429 
L 202.418953 86.146387 
L 204.35934 86.267541 
L 204.844437 86.531195 
L 205.814631 86.643371 
L 206.784824 86.972929 
L 207.269921 86.974511 
L 207.755018 87.509252 
L 208.240115 87.511398 
L 208.725212 87.774935 
L 215.516568 88.14181 
L 216.001665 88.921176 
L 217.942052 89.360561 
L 222.307924 89.464207 
L 224.248312 89.62256 
L 224.733409 89.79002 
L 225.703602 89.817749 
L 226.188699 90.11613 
L 227.64399 90.185472 
L 228.129087 90.451843 
L 229.09928 90.663287 
L 229.584377 91.047173 
L 230.069474 91.2675 
L 232.009862 91.313343 
L 232.494959 93.608581 
L 233.465152 93.890992 
L 233.950249 97.970746 
L 234.920443 97.981245 
L 235.40554 98.660852 
L 235.40554 98.660852 
" clip-path="url(#p029670d1cd)" style="fill: none; stroke-dasharray: 6,2.25; stroke-dashoffset: 0; stroke: #55a868; stroke-width: 1.5"/>
    <defs>
     <path id="ma05002dc33" d="M -1.75 3.5 
L 0 1.75 
L 1.75 3.5 
L 3.5 1.75 
L 1.75 0 
L 3.5 -1.75 
L 1.75 -3.5 
L 0 -1.75 
L -1.75 -3.5 
L -3.5 -1.75 
L -1.75 0 
L -3.5 1.75 
z
" style="stroke: #ffffff; stroke-width: 0.75; stroke-linejoin: miter"/>
    </defs>
    <g clip-path="url(#p029670d1cd)">
     <use xlink:href="#ma05002dc33" x="57.860085" y="66.704499" style="fill: #55a868; stroke: #ffffff; stroke-width: 0.75; stroke-linejoin: miter"/>
     <use xlink:href="#ma05002dc33" x="75.323573" y="70.745448" style="fill: #55a868; stroke: #ffffff; stroke-width: 0.75; stroke-linejoin: miter"/>
     <use xlink:href="#ma05002dc33" x="92.78706" y="72.805817" style="fill: #55a868; stroke: #ffffff; stroke-width: 0.75; stroke-linejoin: miter"/>
     <use xlink:href="#ma05002dc33" x="110.250547" y="74.786399" style="fill: #55a868; stroke: #ffffff; stroke-width: 0.75; stroke-linejoin: miter"/>
     <use xlink:href="#ma05002dc33" x="127.714035" y="76.214918" style="fill: #55a868; stroke: #ffffff; stroke-width: 0.75; stroke-linejoin: miter"/>
     <use xlink:href="#ma05002dc33" x="145.177522" y="78.136774" style="fill: #55a868; stroke: #ffffff; stroke-width: 0.75; stroke-linejoin: miter"/>
     <use xlink:href="#ma05002dc33" x="162.641009" y="79.469187" style="fill: #55a868; stroke: #ffffff; stroke-width: 0.75; stroke-linejoin: miter"/>
     <use xlink:href="#ma05002dc33" x="180.104497" y="81.727248" style="fill: #55a868; stroke: #ffffff; stroke-width: 0.75; stroke-linejoin: miter"/>
     <use xlink:href="#ma05002dc33" x="197.567984" y="85.610086" style="fill: #55a868; stroke: #ffffff; stroke-width: 0.75; stroke-linejoin: miter"/>
     <use xlink:href="#ma05002dc33" x="215.031471" y="88.123749" style="fill: #55a868; stroke: #ffffff; stroke-width: 0.75; stroke-linejoin: miter"/>
     <use xlink:href="#ma05002dc33" x="232.494959" y="93.608581" style="fill: #55a868; stroke: #ffffff; stroke-width: 0.75; stroke-linejoin: miter"/>
    </g>
   </g>
   <g id="line2d_18">
    <path d="M 57.860085 66.410208 
L 58.345182 64.523033 
L 58.830279 65.780072 
L 59.315376 67.780392 
L 60.28557 67.825005 
L 60.770666 67.725825 
L 62.711054 67.856945 
L 64.166345 67.445394 
L 64.651441 67.673215 
L 67.076926 67.508716 
L 68.04712 67.801211 
L 69.017313 67.739961 
L 70.472604 67.69487 
L 71.442798 67.781052 
L 73.383185 68.006154 
L 74.353379 67.950749 
L 74.838476 68.110392 
L 81.629832 68.16974 
L 82.600026 68.271572 
L 89.876479 68.395486 
L 91.816866 68.453188 
L 103.944288 68.627444 
L 105.399579 68.663936 
L 114.616419 68.763527 
L 117.041903 68.802583 
L 125.28855 68.887172 
L 126.743841 68.950954 
L 138.386166 69.105033 
L 167.006881 69.60849 
L 167.977075 69.68135 
L 190.291531 69.872641 
L 214.061277 70.132437 
L 220.367537 70.240284 
L 235.40554 70.481036 
L 235.40554 70.481036 
" clip-path="url(#p029670d1cd)" style="fill: none; stroke-dasharray: 1.5,1.5; stroke-dashoffset: 0; stroke: #55a868; stroke-width: 1.5"/>
    <defs>
     <path id="m1962044de8" d="M -2.474874 -2.474874 
L -2.474874 2.474874 
L 2.474874 2.474874 
L 2.474874 -2.474874 
z
" style="stroke: #ffffff; stroke-width: 0.75; stroke-linejoin: miter"/>
    </defs>
    <g clip-path="url(#p029670d1cd)">
     <use xlink:href="#m1962044de8" x="57.860085" y="66.410208" style="fill: #55a868; stroke: #ffffff; stroke-width: 0.75; stroke-linejoin: miter"/>
     <use xlink:href="#m1962044de8" x="75.323573" y="68.107113" style="fill: #55a868; stroke: #ffffff; stroke-width: 0.75; stroke-linejoin: miter"/>
     <use xlink:href="#m1962044de8" x="92.78706" y="68.462344" style="fill: #55a868; stroke: #ffffff; stroke-width: 0.75; stroke-linejoin: miter"/>
     <use xlink:href="#m1962044de8" x="110.250547" y="68.743522" style="fill: #55a868; stroke: #ffffff; stroke-width: 0.75; stroke-linejoin: miter"/>
     <use xlink:href="#m1962044de8" x="127.714035" y="68.952526" style="fill: #55a868; stroke: #ffffff; stroke-width: 0.75; stroke-linejoin: miter"/>
     <use xlink:href="#m1962044de8" x="145.177522" y="69.149872" style="fill: #55a868; stroke: #ffffff; stroke-width: 0.75; stroke-linejoin: miter"/>
     <use xlink:href="#m1962044de8" x="162.641009" y="69.464622" style="fill: #55a868; stroke: #ffffff; stroke-width: 0.75; stroke-linejoin: miter"/>
     <use xlink:href="#m1962044de8" x="180.104497" y="69.803652" style="fill: #55a868; stroke: #ffffff; stroke-width: 0.75; stroke-linejoin: miter"/>
     <use xlink:href="#m1962044de8" x="197.567984" y="69.993929" style="fill: #55a868; stroke: #ffffff; stroke-width: 0.75; stroke-linejoin: miter"/>
     <use xlink:href="#m1962044de8" x="215.031471" y="70.136608" style="fill: #55a868; stroke: #ffffff; stroke-width: 0.75; stroke-linejoin: miter"/>
     <use xlink:href="#m1962044de8" x="232.494959" y="70.442181" style="fill: #55a868; stroke: #ffffff; stroke-width: 0.75; stroke-linejoin: miter"/>
    </g>
   </g>
   <g id="line2d_19"/>
   <g id="line2d_20"/>
   <g id="line2d_21"/>
   <g id="line2d_22"/>
   <g id="line2d_23"/>
   <g id="line2d_24"/>
   <g id="line2d_25"/>
   <g id="line2d_26"/>
   <g id="line2d_27">
    <path d="M 57.860085 13.5 
L 58.345182 16.716048 
L 58.830279 18.540264 
L 59.315376 19.801371 
L 60.28557 21.50085 
L 61.255763 22.628889 
L 62.225957 23.445143 
L 63.681248 24.320296 
L 65.136538 24.933572 
L 67.076926 25.497407 
L 69.50241 25.943123 
L 72.412991 26.244894 
L 76.293766 26.414795 
L 81.629832 26.412532 
L 89.876479 26.162794 
L 107.825063 25.3316 
L 140.326553 23.871761 
L 169.917462 22.781939 
L 204.35934 21.742753 
L 235.40554 20.959231 
L 235.40554 20.959231 
" clip-path="url(#p029670d1cd)" style="fill: none; stroke: #64b5cd; stroke-width: 1.5; stroke-linecap: square"/>
   </g>
   <g id="patch_3">
    <path d="M 48.982813 145.8 
L 48.982813 7.2 
" style="fill: none; stroke: #000000; stroke-width: 0.8; stroke-linejoin: miter; stroke-linecap: square"/>
   </g>
   <g id="patch_4">
    <path d="M 244.282813 145.8 
L 244.282813 7.2 
" style="fill: none; stroke: #000000; stroke-width: 0.8; stroke-linejoin: miter; stroke-linecap: square"/>
   </g>
   <g id="patch_5">
    <path d="M 48.982813 145.8 
L 244.282813 145.8 
" style="fill: none; stroke: #000000; stroke-width: 0.8; stroke-linejoin: miter; stroke-linecap: square"/>
   </g>
   <g id="patch_6">
    <path d="M 48.982813 7.2 
L 244.282813 7.2 
" style="fill: none; stroke: #000000; stroke-width: 0.8; stroke-linejoin: miter; stroke-linecap: square"/>
   </g>
   <g id="legend_1">
    <g id="patch_7">
     <path d="M 53.882813 43.624063 
L 135.310312 43.624063 
Q 136.710312 43.624063 136.710312 42.224063 
L 136.710312 12.1 
Q 136.710312 10.7 135.310312 10.7 
L 53.882813 10.7 
Q 52.482813 10.7 52.482813 12.1 
L 52.482813 42.224063 
Q 52.482813 43.624063 53.882813 43.624063 
z
" style="fill: #ffffff; opacity: 0.8; stroke: #cccccc; stroke-linejoin: miter"/>
    </g>
    <g id="line2d_28">
     <path d="M 55.282813 16.368906 
L 62.282813 16.368906 
L 69.282813 16.368906 
" style="fill: none; stroke: #4c72b0; stroke-width: 1.5; stroke-linecap: square"/>
    </g>
    <g id="text_12">
     <!-- MMSE -->
     <g transform="translate(74.882812 18.818906) scale(0.07 -0.07)">
      <use xlink:href="#DejaVuSans-4d"/>
      <use xlink:href="#DejaVuSans-4d" x="86.279297"/>
      <use xlink:href="#DejaVuSans-53" x="172.558594"/>
      <use xlink:href="#DejaVuSans-45" x="236.035156"/>
     </g>
    </g>
    <g id="line2d_29">
     <path d="M 55.282813 26.643594 
L 62.282813 26.643594 
L 69.282813 26.643594 
" style="fill: none; stroke: #dd8452; stroke-width: 1.5; stroke-linecap: square"/>
    </g>
    <g id="text_13">
     <!-- WMSE -->
     <g transform="translate(74.882812 29.093594) scale(0.07 -0.07)">
      <defs>
       <path id="DejaVuSans-57" d="M 213 4666 
L 850 4666 
L 1831 722 
L 2809 4666 
L 3519 4666 
L 4500 722 
L 5478 4666 
L 6119 4666 
L 4947 0 
L 4153 0 
L 3169 4050 
L 2175 0 
L 1381 0 
L 213 4666 
z
" transform="scale(0.015625)"/>
      </defs>
      <use xlink:href="#DejaVuSans-57"/>
      <use xlink:href="#DejaVuSans-4d" x="98.876953"/>
      <use xlink:href="#DejaVuSans-53" x="185.15625"/>
      <use xlink:href="#DejaVuSans-45" x="248.632812"/>
     </g>
    </g>
    <g id="line2d_30">
     <path d="M 55.282813 36.918281 
L 62.282813 36.918281 
L 69.282813 36.918281 
" style="fill: none; stroke: #55a868; stroke-width: 1.5; stroke-linecap: square"/>
    </g>
    <g id="text_14">
     <!-- Uniform Random -->
     <g transform="translate(74.882812 39.368281) scale(0.07 -0.07)">
      <defs>
       <path id="DejaVuSans-55" d="M 556 4666 
L 1191 4666 
L 1191 1831 
Q 1191 1081 1462 751 
Q 1734 422 2344 422 
Q 2950 422 3222 751 
Q 3494 1081 3494 1831 
L 3494 4666 
L 4128 4666 
L 4128 1753 
Q 4128 841 3676 375 
Q 3225 -91 2344 -91 
Q 1459 -91 1007 375 
Q 556 841 556 1753 
L 556 4666 
z
" transform="scale(0.015625)"/>
       <path id="DejaVuSans-6e" d="M 3513 2113 
L 3513 0 
L 2938 0 
L 2938 2094 
Q 2938 2591 2744 2837 
Q 2550 3084 2163 3084 
Q 1697 3084 1428 2787 
Q 1159 2491 1159 1978 
L 1159 0 
L 581 0 
L 581 3500 
L 1159 3500 
L 1159 2956 
Q 1366 3272 1645 3428 
Q 1925 3584 2291 3584 
Q 2894 3584 3203 3211 
Q 3513 2838 3513 2113 
z
" transform="scale(0.015625)"/>
       <path id="DejaVuSans-66" d="M 2375 4863 
L 2375 4384 
L 1825 4384 
Q 1516 4384 1395 4259 
Q 1275 4134 1275 3809 
L 1275 3500 
L 2222 3500 
L 2222 3053 
L 1275 3053 
L 1275 0 
L 697 0 
L 697 3053 
L 147 3053 
L 147 3500 
L 697 3500 
L 697 3744 
Q 697 4328 969 4595 
Q 1241 4863 1831 4863 
L 2375 4863 
z
" transform="scale(0.015625)"/>
       <path id="DejaVuSans-72" d="M 2631 2963 
Q 2534 3019 2420 3045 
Q 2306 3072 2169 3072 
Q 1681 3072 1420 2755 
Q 1159 2438 1159 1844 
L 1159 0 
L 581 0 
L 581 3500 
L 1159 3500 
L 1159 2956 
Q 1341 3275 1631 3429 
Q 1922 3584 2338 3584 
Q 2397 3584 2469 3576 
Q 2541 3569 2628 3553 
L 2631 2963 
z
" transform="scale(0.015625)"/>
       <path id="DejaVuSans-52" d="M 2841 2188 
Q 3044 2119 3236 1894 
Q 3428 1669 3622 1275 
L 4263 0 
L 3584 0 
L 2988 1197 
Q 2756 1666 2539 1819 
Q 2322 1972 1947 1972 
L 1259 1972 
L 1259 0 
L 628 0 
L 628 4666 
L 2053 4666 
Q 2853 4666 3247 4331 
Q 3641 3997 3641 3322 
Q 3641 2881 3436 2590 
Q 3231 2300 2841 2188 
z
M 1259 4147 
L 1259 2491 
L 2053 2491 
Q 2509 2491 2742 2702 
Q 2975 2913 2975 3322 
Q 2975 3731 2742 3939 
Q 2509 4147 2053 4147 
L 1259 4147 
z
" transform="scale(0.015625)"/>
       <path id="DejaVuSans-64" d="M 2906 2969 
L 2906 4863 
L 3481 4863 
L 3481 0 
L 2906 0 
L 2906 525 
Q 2725 213 2448 61 
Q 2172 -91 1784 -91 
Q 1150 -91 751 415 
Q 353 922 353 1747 
Q 353 2572 751 3078 
Q 1150 3584 1784 3584 
Q 2172 3584 2448 3432 
Q 2725 3281 2906 2969 
z
M 947 1747 
Q 947 1113 1208 752 
Q 1469 391 1925 391 
Q 2381 391 2643 752 
Q 2906 1113 2906 1747 
Q 2906 2381 2643 2742 
Q 2381 3103 1925 3103 
Q 1469 3103 1208 2742 
Q 947 2381 947 1747 
z
" transform="scale(0.015625)"/>
      </defs>
      <use xlink:href="#DejaVuSans-55"/>
      <use xlink:href="#DejaVuSans-6e" x="73.193359"/>
      <use xlink:href="#DejaVuSans-69" x="136.572266"/>
      <use xlink:href="#DejaVuSans-66" x="164.355469"/>
      <use xlink:href="#DejaVuSans-6f" x="199.560547"/>
      <use xlink:href="#DejaVuSans-72" x="260.742188"/>
      <use xlink:href="#DejaVuSans-6d" x="300.105469"/>
      <use xlink:href="#DejaVuSans-20" x="397.517578"/>
      <use xlink:href="#DejaVuSans-52" x="429.304688"/>
      <use xlink:href="#DejaVuSans-61" x="496.537109"/>
      <use xlink:href="#DejaVuSans-6e" x="557.816406"/>
      <use xlink:href="#DejaVuSans-64" x="621.195312"/>
      <use xlink:href="#DejaVuSans-6f" x="684.671875"/>
      <use xlink:href="#DejaVuSans-6d" x="745.853516"/>
     </g>
    </g>
   </g>
   <g id="legend_2">
    <g id="patch_8">
     <path d="M 192.489375 53.89875 
L 239.382813 53.89875 
Q 240.782813 53.89875 240.782813 52.49875 
L 240.782813 12.1 
Q 240.782813 10.7 239.382813 10.7 
L 192.489375 10.7 
Q 191.089375 10.7 191.089375 12.1 
L 191.089375 52.49875 
Q 191.089375 53.89875 192.489375 53.89875 
z
" style="fill: #ffffff; opacity: 0.8; stroke: #cccccc; stroke-linejoin: miter"/>
    </g>
    <g id="line2d_31">
     <path d="M 193.889375 16.368906 
L 200.889375 16.368906 
L 207.889375 16.368906 
" style="fill: none"/>
    </g>
    <g id="text_15">
     <!-- μ -->
     <g transform="translate(213.489375 18.818906) scale(0.07 -0.07)">
      <defs>
       <path id="DejaVuSans-3bc" d="M 544 -1331 
L 544 3500 
L 1119 3500 
L 1119 1325 
Q 1119 872 1334 640 
Q 1550 409 1972 409 
Q 2434 409 2667 671 
Q 2900 934 2900 1459 
L 2900 3500 
L 3475 3500 
L 3475 806 
Q 3475 619 3529 530 
Q 3584 441 3700 441 
Q 3728 441 3778 458 
Q 3828 475 3916 513 
L 3916 50 
Q 3788 -22 3673 -56 
Q 3559 -91 3450 -91 
Q 3234 -91 3106 31 
Q 2978 153 2931 403 
Q 2775 156 2548 32 
Q 2322 -91 2016 -91 
Q 1697 -91 1473 31 
Q 1250 153 1119 397 
L 1119 -1331 
L 544 -1331 
z
" transform="scale(0.015625)"/>
      </defs>
      <use xlink:href="#DejaVuSans-3bc"/>
     </g>
    </g>
    <g id="line2d_32">
     <path d="M 193.889375 26.643594 
L 200.889375 26.643594 
L 207.889375 26.643594 
" style="fill: none; stroke: #333333; stroke-width: 1.5; stroke-linecap: square"/>
     <defs>
      <path id="m32ce62ecf7" d="M 0 3.5 
C 0.928211 3.5 1.81853 3.131218 2.474874 2.474874 
C 3.131218 1.81853 3.5 0.928211 3.5 0 
C 3.5 -0.928211 3.131218 -1.81853 2.474874 -2.474874 
C 1.81853 -3.131218 0.928211 -3.5 0 -3.5 
C -0.928211 -3.5 -1.81853 -3.131218 -2.474874 -2.474874 
C -3.131218 -1.81853 -3.5 -0.928211 -3.5 0 
C -3.5 0.928211 -3.131218 1.81853 -2.474874 2.474874 
C -1.81853 3.131218 -0.928211 3.5 0 3.5 
z
" style="stroke: #ffffff; stroke-width: 0.75"/>
     </defs>
     <g>
      <use xlink:href="#m32ce62ecf7" x="200.889375" y="26.643594" style="fill: #333333; stroke: #ffffff; stroke-width: 0.75"/>
     </g>
    </g>
    <g id="text_16">
     <!-- 0.0001 -->
     <g transform="translate(213.489375 29.093594) scale(0.07 -0.07)">
      <defs>
       <path id="DejaVuSans-2e" d="M 684 794 
L 1344 794 
L 1344 0 
L 684 0 
L 684 794 
z
" transform="scale(0.015625)"/>
      </defs>
      <use xlink:href="#DejaVuSans-30"/>
      <use xlink:href="#DejaVuSans-2e" x="63.623047"/>
      <use xlink:href="#DejaVuSans-30" x="95.410156"/>
      <use xlink:href="#DejaVuSans-30" x="159.033203"/>
      <use xlink:href="#DejaVuSans-30" x="222.65625"/>
      <use xlink:href="#DejaVuSans-31" x="286.279297"/>
     </g>
    </g>
    <g id="line2d_33">
     <path d="M 193.889375 36.918281 
L 200.889375 36.918281 
L 207.889375 36.918281 
" style="fill: none; stroke-dasharray: 6,2.25; stroke-dashoffset: 0; stroke: #333333; stroke-width: 1.5"/>
     <defs>
      <path id="mb230e03ca9" d="M -1.75 3.5 
L 0 1.75 
L 1.75 3.5 
L 3.5 1.75 
L 1.75 0 
L 3.5 -1.75 
L 1.75 -3.5 
L 0 -1.75 
L -1.75 -3.5 
L -3.5 -1.75 
L -1.75 0 
L -3.5 1.75 
z
" style="stroke: #ffffff; stroke-width: 0.75; stroke-linejoin: miter"/>
     </defs>
     <g>
      <use xlink:href="#mb230e03ca9" x="200.889375" y="36.918281" style="fill: #333333; stroke: #ffffff; stroke-width: 0.75; stroke-linejoin: miter"/>
     </g>
    </g>
    <g id="text_17">
     <!-- 0.01 -->
     <g transform="translate(213.489375 39.368281) scale(0.07 -0.07)">
      <use xlink:href="#DejaVuSans-30"/>
      <use xlink:href="#DejaVuSans-2e" x="63.623047"/>
      <use xlink:href="#DejaVuSans-30" x="95.410156"/>
      <use xlink:href="#DejaVuSans-31" x="159.033203"/>
     </g>
    </g>
    <g id="line2d_34">
     <path d="M 193.889375 47.192969 
L 200.889375 47.192969 
L 207.889375 47.192969 
" style="fill: none; stroke-dasharray: 1.5,1.5; stroke-dashoffset: 0; stroke: #333333; stroke-width: 1.5"/>
     <defs>
      <path id="m7ff217a784" d="M -2.474874 -2.474874 
L -2.474874 2.474874 
L 2.474874 2.474874 
L 2.474874 -2.474874 
z
" style="stroke: #ffffff; stroke-width: 0.75; stroke-linejoin: miter"/>
     </defs>
     <g>
      <use xlink:href="#m7ff217a784" x="200.889375" y="47.192969" style="fill: #333333; stroke: #ffffff; stroke-width: 0.75; stroke-linejoin: miter"/>
     </g>
    </g>
    <g id="text_18">
     <!-- 1.0 -->
     <g transform="translate(213.489375 49.642969) scale(0.07 -0.07)">
      <use xlink:href="#DejaVuSans-31"/>
      <use xlink:href="#DejaVuSans-2e" x="63.623047"/>
      <use xlink:href="#DejaVuSans-30" x="95.410156"/>
     </g>
    </g>
   </g>
  </g>
 </g>
 <defs>
  <clipPath id="p029670d1cd">
   <rect x="48.982813" y="7.2" width="195.3" height="138.6"/>
  </clipPath>
 </defs>
</svg>
