<?xml version="1.0" encoding="utf-8" standalone="no"?>
<!DOCTYPE svg PUBLIC "-//W3C//DTD SVG 1.1//EN"
  "http://www.w3.org/Graphics/SVG/1.1/DTD/svg11.dtd">
<svg xmlns:xlink="http://www.w3.org/1999/xlink" width="251.482813pt" height="183.35625pt" viewBox="0 0 251.482813 183.35625" xmlns="http://www.w3.org/2000/svg" version="1.1">
 <metadata>
  <rdf:RDF xmlns:dc="http://purl.org/dc/elements/1.1/" xmlns:cc="http://creativecommons.org/ns#" xmlns:rdf="http://www.w3.org/1999/02/22-rdf-syntax-ns#">
   <cc:Work>
    <dc:type rdf:resource="http://purl.org/dc/dcmitype/StillImage"/>
    <dc:date>1980-01-01T00:00:00+00:00</dc:date>
    <dc:format>image/svg+xml</dc:format>
    <dc:creator>
     <cc:Agent>
      <dc:title>Matplotlib v3.7.5, https://matplotlib.org/</dc:title>
     </cc:Agent>
    </dc:creator>
   </cc:Work>
  </rdf:RDF>
 </metadata>
 <defs>
  <style type="text/css">*{stroke-linejoin: round; stroke-linecap: butt}</style>
 </defs>
 <g id="figure_1">
  <g id="patch_1">
   <path d="M -0 183.35625 
L 251.482813 183.35625 
L 251.482813 0 
L -0 0 
z
" style="fill: #ffffff"/>
  </g>
  <g id="axes_1">
   <g id="patch_2">
    <path d="M 48.982813 145.8 
L 244.282813 145.8 
L 244.282813 7.2 
L 48.982813 7.2 
z
" style="fill: #ffffff"/>
   </g>
   <g id="PolyCollection_1"/>
   <g id="PolyCollection_2"/>
   <g id="PolyCollection_3"/>
   <g id="PolyCollection_4"/>
   <g id="PolyCollection_5"/>
   <g id="PolyCollection_6"/>
   <g id="PolyCollection_7"/>
   <g id="PolyCollection_8"/>
   <g id="PolyCollection_9"/>
   <g id="PolyCollection_10"/>
   <g id="matplotlib.axis_1">
    <g id="xtick_1">
     <g id="line2d_1">
      <defs>
       <path id="mea31ee7e15" d="M 0 0 
L 0 3.5 
" style="stroke: #000000; stroke-width: 0.8"/>
      </defs>
      <g>
       <use xlink:href="#mea31ee7e15" x="53.824961" y="145.8" style="stroke: #000000; stroke-width: 0.8"/>
      </g>
     </g>
     <g id="text_1">
      <!-- 0 -->
      <g transform="translate(50.643711 160.398438) scale(0.1 -0.1)">
       <defs>
        <path id="DejaVuSans-30" d="M 2034 4250 
Q 1547 4250 1301 3770 
Q 1056 3291 1056 2328 
Q 1056 1369 1301 889 
Q 1547 409 2034 409 
Q 2525 409 2770 889 
Q 3016 1369 3016 2328 
Q 3016 3291 2770 3770 
Q 2525 4250 2034 4250 
z
M 2034 4750 
Q 2819 4750 3233 4129 
Q 3647 3509 3647 2328 
Q 3647 1150 3233 529 
Q 2819 -91 2034 -91 
Q 1250 -91 836 529 
Q 422 1150 422 2328 
Q 422 3509 836 4129 
Q 1250 4750 2034 4750 
z
" transform="scale(0.015625)"/>
       </defs>
       <use xlink:href="#DejaVuSans-30"/>
      </g>
     </g>
    </g>
    <g id="xtick_2">
     <g id="line2d_2">
      <g>
       <use xlink:href="#mea31ee7e15" x="94.176201" y="145.8" style="stroke: #000000; stroke-width: 0.8"/>
      </g>
     </g>
     <g id="text_2">
      <!-- 10 -->
      <g transform="translate(87.813701 160.398438) scale(0.1 -0.1)">
       <defs>
        <path id="DejaVuSans-31" d="M 794 531 
L 1825 531 
L 1825 4091 
L 703 3866 
L 703 4441 
L 1819 4666 
L 2450 4666 
L 2450 531 
L 3481 531 
L 3481 0 
L 794 0 
L 794 531 
z
" transform="scale(0.015625)"/>
       </defs>
       <use xlink:href="#DejaVuSans-31"/>
       <use xlink:href="#DejaVuSans-30" x="63.623047"/>
      </g>
     </g>
    </g>
    <g id="xtick_3">
     <g id="line2d_3">
      <g>
       <use xlink:href="#mea31ee7e15" x="134.527441" y="145.8" style="stroke: #000000; stroke-width: 0.8"/>
      </g>
     </g>
     <g id="text_3">
      <!-- 20 -->
      <g transform="translate(128.164941 160.398438) scale(0.1 -0.1)">
       <defs>
        <path id="DejaVuSans-32" d="M 1228 531 
L 3431 531 
L 3431 0 
L 469 0 
L 469 531 
Q 828 903 1448 1529 
Q 2069 2156 2228 2338 
Q 2531 2678 2651 2914 
Q 2772 3150 2772 3378 
Q 2772 3750 2511 3984 
Q 2250 4219 1831 4219 
Q 1534 4219 1204 4116 
Q 875 4013 500 3803 
L 500 4441 
Q 881 4594 1212 4672 
Q 1544 4750 1819 4750 
Q 2544 4750 2975 4387 
Q 3406 4025 3406 3419 
Q 3406 3131 3298 2873 
Q 3191 2616 2906 2266 
Q 2828 2175 2409 1742 
Q 1991 1309 1228 531 
z
" transform="scale(0.015625)"/>
       </defs>
       <use xlink:href="#DejaVuSans-32"/>
       <use xlink:href="#DejaVuSans-30" x="63.623047"/>
      </g>
     </g>
    </g>
    <g id="xtick_4">
     <g id="line2d_4">
      <g>
       <use xlink:href="#mea31ee7e15" x="174.87868" y="145.8" style="stroke: #000000; stroke-width: 0.8"/>
      </g>
     </g>
     <g id="text_4">
      <!-- 30 -->
      <g transform="translate(168.51618 160.398438) scale(0.1 -0.1)">
       <defs>
        <path id="DejaVuSans-33" d="M 2597 2516 
Q 3050 2419 3304 2112 
Q 3559 1806 3559 1356 
Q 3559 666 3084 287 
Q 2609 -91 1734 -91 
Q 1441 -91 1130 -33 
Q 819 25 488 141 
L 488 750 
Q 750 597 1062 519 
Q 1375 441 1716 441 
Q 2309 441 2620 675 
Q 2931 909 2931 1356 
Q 2931 1769 2642 2001 
Q 2353 2234 1838 2234 
L 1294 2234 
L 1294 2753 
L 1863 2753 
Q 2328 2753 2575 2939 
Q 2822 3125 2822 3475 
Q 2822 3834 2567 4026 
Q 2313 4219 1838 4219 
Q 1578 4219 1281 4162 
Q 984 4106 628 3988 
L 628 4550 
Q 988 4650 1302 4700 
Q 1616 4750 1894 4750 
Q 2613 4750 3031 4423 
Q 3450 4097 3450 3541 
Q 3450 3153 3228 2886 
Q 3006 2619 2597 2516 
z
" transform="scale(0.015625)"/>
       </defs>
       <use xlink:href="#DejaVuSans-33"/>
       <use xlink:href="#DejaVuSans-30" x="63.623047"/>
      </g>
     </g>
    </g>
    <g id="xtick_5">
     <g id="line2d_5">
      <g>
       <use xlink:href="#mea31ee7e15" x="215.22992" y="145.8" style="stroke: #000000; stroke-width: 0.8"/>
      </g>
     </g>
     <g id="text_5">
      <!-- 40 -->
      <g transform="translate(208.86742 160.398438) scale(0.1 -0.1)">
       <defs>
        <path id="DejaVuSans-34" d="M 2419 4116 
L 825 1625 
L 2419 1625 
L 2419 4116 
z
M 2253 4666 
L 3047 4666 
L 3047 1625 
L 3713 1625 
L 3713 1100 
L 3047 1100 
L 3047 0 
L 2419 0 
L 2419 1100 
L 313 1100 
L 313 1709 
L 2253 4666 
z
" transform="scale(0.015625)"/>
       </defs>
       <use xlink:href="#DejaVuSans-34"/>
       <use xlink:href="#DejaVuSans-30" x="63.623047"/>
      </g>
     </g>
    </g>
    <g id="text_6">
     <!-- Sample Size -->
     <g transform="translate(116.03125 174.076563) scale(0.1 -0.1)">
      <defs>
       <path id="DejaVuSans-53" d="M 3425 4513 
L 3425 3897 
Q 3066 4069 2747 4153 
Q 2428 4238 2131 4238 
Q 1616 4238 1336 4038 
Q 1056 3838 1056 3469 
Q 1056 3159 1242 3001 
Q 1428 2844 1947 2747 
L 2328 2669 
Q 3034 2534 3370 2195 
Q 3706 1856 3706 1288 
Q 3706 609 3251 259 
Q 2797 -91 1919 -91 
Q 1588 -91 1214 -16 
Q 841 59 441 206 
L 441 856 
Q 825 641 1194 531 
Q 1563 422 1919 422 
Q 2459 422 2753 634 
Q 3047 847 3047 1241 
Q 3047 1584 2836 1778 
Q 2625 1972 2144 2069 
L 1759 2144 
Q 1053 2284 737 2584 
Q 422 2884 422 3419 
Q 422 4038 858 4394 
Q 1294 4750 2059 4750 
Q 2388 4750 2728 4690 
Q 3069 4631 3425 4513 
z
" transform="scale(0.015625)"/>
       <path id="DejaVuSans-61" d="M 2194 1759 
Q 1497 1759 1228 1600 
Q 959 1441 959 1056 
Q 959 750 1161 570 
Q 1363 391 1709 391 
Q 2188 391 2477 730 
Q 2766 1069 2766 1631 
L 2766 1759 
L 2194 1759 
z
M 3341 1997 
L 3341 0 
L 2766 0 
L 2766 531 
Q 2569 213 2275 61 
Q 1981 -91 1556 -91 
Q 1019 -91 701 211 
Q 384 513 384 1019 
Q 384 1609 779 1909 
Q 1175 2209 1959 2209 
L 2766 2209 
L 2766 2266 
Q 2766 2663 2505 2880 
Q 2244 3097 1772 3097 
Q 1472 3097 1187 3025 
Q 903 2953 641 2809 
L 641 3341 
Q 956 3463 1253 3523 
Q 1550 3584 1831 3584 
Q 2591 3584 2966 3190 
Q 3341 2797 3341 1997 
z
" transform="scale(0.015625)"/>
       <path id="DejaVuSans-6d" d="M 3328 2828 
Q 3544 3216 3844 3400 
Q 4144 3584 4550 3584 
Q 5097 3584 5394 3201 
Q 5691 2819 5691 2113 
L 5691 0 
L 5113 0 
L 5113 2094 
Q 5113 2597 4934 2840 
Q 4756 3084 4391 3084 
Q 3944 3084 3684 2787 
Q 3425 2491 3425 1978 
L 3425 0 
L 2847 0 
L 2847 2094 
Q 2847 2600 2669 2842 
Q 2491 3084 2119 3084 
Q 1678 3084 1418 2786 
Q 1159 2488 1159 1978 
L 1159 0 
L 581 0 
L 581 3500 
L 1159 3500 
L 1159 2956 
Q 1356 3278 1631 3431 
Q 1906 3584 2284 3584 
Q 2666 3584 2933 3390 
Q 3200 3197 3328 2828 
z
" transform="scale(0.015625)"/>
       <path id="DejaVuSans-70" d="M 1159 525 
L 1159 -1331 
L 581 -1331 
L 581 3500 
L 1159 3500 
L 1159 2969 
Q 1341 3281 1617 3432 
Q 1894 3584 2278 3584 
Q 2916 3584 3314 3078 
Q 3713 2572 3713 1747 
Q 3713 922 3314 415 
Q 2916 -91 2278 -91 
Q 1894 -91 1617 61 
Q 1341 213 1159 525 
z
M 3116 1747 
Q 3116 2381 2855 2742 
Q 2594 3103 2138 3103 
Q 1681 3103 1420 2742 
Q 1159 2381 1159 1747 
Q 1159 1113 1420 752 
Q 1681 391 2138 391 
Q 2594 391 2855 752 
Q 3116 1113 3116 1747 
z
" transform="scale(0.015625)"/>
       <path id="DejaVuSans-6c" d="M 603 4863 
L 1178 4863 
L 1178 0 
L 603 0 
L 603 4863 
z
" transform="scale(0.015625)"/>
       <path id="DejaVuSans-65" d="M 3597 1894 
L 3597 1613 
L 953 1613 
Q 991 1019 1311 708 
Q 1631 397 2203 397 
Q 2534 397 2845 478 
Q 3156 559 3463 722 
L 3463 178 
Q 3153 47 2828 -22 
Q 2503 -91 2169 -91 
Q 1331 -91 842 396 
Q 353 884 353 1716 
Q 353 2575 817 3079 
Q 1281 3584 2069 3584 
Q 2775 3584 3186 3129 
Q 3597 2675 3597 1894 
z
M 3022 2063 
Q 3016 2534 2758 2815 
Q 2500 3097 2075 3097 
Q 1594 3097 1305 2825 
Q 1016 2553 972 2059 
L 3022 2063 
z
" transform="scale(0.015625)"/>
       <path id="DejaVuSans-20" transform="scale(0.015625)"/>
       <path id="DejaVuSans-69" d="M 603 3500 
L 1178 3500 
L 1178 0 
L 603 0 
L 603 3500 
z
M 603 4863 
L 1178 4863 
L 1178 4134 
L 603 4134 
L 603 4863 
z
" transform="scale(0.015625)"/>
       <path id="DejaVuSans-7a" d="M 353 3500 
L 3084 3500 
L 3084 2975 
L 922 459 
L 3084 459 
L 3084 0 
L 275 0 
L 275 525 
L 2438 3041 
L 353 3041 
L 353 3500 
z
" transform="scale(0.015625)"/>
      </defs>
      <use xlink:href="#DejaVuSans-53"/>
      <use xlink:href="#DejaVuSans-61" x="63.476562"/>
      <use xlink:href="#DejaVuSans-6d" x="124.755859"/>
      <use xlink:href="#DejaVuSans-70" x="222.167969"/>
      <use xlink:href="#DejaVuSans-6c" x="285.644531"/>
      <use xlink:href="#DejaVuSans-65" x="313.427734"/>
      <use xlink:href="#DejaVuSans-20" x="374.951172"/>
      <use xlink:href="#DejaVuSans-53" x="406.738281"/>
      <use xlink:href="#DejaVuSans-69" x="470.214844"/>
      <use xlink:href="#DejaVuSans-7a" x="497.998047"/>
      <use xlink:href="#DejaVuSans-65" x="550.488281"/>
     </g>
    </g>
   </g>
   <g id="matplotlib.axis_2">
    <g id="ytick_1">
     <g id="line2d_6">
      <defs>
       <path id="mb61ab7d626" d="M 0 0 
L -3.5 0 
" style="stroke: #000000; stroke-width: 0.8"/>
      </defs>
      <g>
       <use xlink:href="#mb61ab7d626" x="48.982813" y="135.124242" style="stroke: #000000; stroke-width: 0.8"/>
      </g>
     </g>
     <g id="text_7">
      <!-- −20 -->
      <g transform="translate(20.878125 138.923461) scale(0.1 -0.1)">
       <defs>
        <path id="DejaVuSans-2212" d="M 678 2272 
L 4684 2272 
L 4684 1741 
L 678 1741 
L 678 2272 
z
" transform="scale(0.015625)"/>
       </defs>
       <use xlink:href="#DejaVuSans-2212"/>
       <use xlink:href="#DejaVuSans-32" x="83.789062"/>
       <use xlink:href="#DejaVuSans-30" x="147.412109"/>
      </g>
     </g>
    </g>
    <g id="ytick_2">
     <g id="line2d_7">
      <g>
       <use xlink:href="#mb61ab7d626" x="48.982813" y="111.841249" style="stroke: #000000; stroke-width: 0.8"/>
      </g>
     </g>
     <g id="text_8">
      <!-- −15 -->
      <g transform="translate(20.878125 115.640468) scale(0.1 -0.1)">
       <defs>
        <path id="DejaVuSans-35" d="M 691 4666 
L 3169 4666 
L 3169 4134 
L 1269 4134 
L 1269 2991 
Q 1406 3038 1543 3061 
Q 1681 3084 1819 3084 
Q 2600 3084 3056 2656 
Q 3513 2228 3513 1497 
Q 3513 744 3044 326 
Q 2575 -91 1722 -91 
Q 1428 -91 1123 -41 
Q 819 9 494 109 
L 494 744 
Q 775 591 1075 516 
Q 1375 441 1709 441 
Q 2250 441 2565 725 
Q 2881 1009 2881 1497 
Q 2881 1984 2565 2268 
Q 2250 2553 1709 2553 
Q 1456 2553 1204 2497 
Q 953 2441 691 2322 
L 691 4666 
z
" transform="scale(0.015625)"/>
       </defs>
       <use xlink:href="#DejaVuSans-2212"/>
       <use xlink:href="#DejaVuSans-31" x="83.789062"/>
       <use xlink:href="#DejaVuSans-35" x="147.412109"/>
      </g>
     </g>
    </g>
    <g id="ytick_3">
     <g id="line2d_8">
      <g>
       <use xlink:href="#mb61ab7d626" x="48.982813" y="88.558256" style="stroke: #000000; stroke-width: 0.8"/>
      </g>
     </g>
     <g id="text_9">
      <!-- −10 -->
      <g transform="translate(20.878125 92.357474) scale(0.1 -0.1)">
       <use xlink:href="#DejaVuSans-2212"/>
       <use xlink:href="#DejaVuSans-31" x="83.789062"/>
       <use xlink:href="#DejaVuSans-30" x="147.412109"/>
      </g>
     </g>
    </g>
    <g id="ytick_4">
     <g id="line2d_9">
      <g>
       <use xlink:href="#mb61ab7d626" x="48.982813" y="65.275262" style="stroke: #000000; stroke-width: 0.8"/>
      </g>
     </g>
     <g id="text_10">
      <!-- −5 -->
      <g transform="translate(27.240625 69.074481) scale(0.1 -0.1)">
       <use xlink:href="#DejaVuSans-2212"/>
       <use xlink:href="#DejaVuSans-35" x="83.789062"/>
      </g>
     </g>
    </g>
    <g id="ytick_5">
     <g id="line2d_10">
      <g>
       <use xlink:href="#mb61ab7d626" x="48.982813" y="41.992269" style="stroke: #000000; stroke-width: 0.8"/>
      </g>
     </g>
     <g id="text_11">
      <!-- 0 -->
      <g transform="translate(35.620313 45.791488) scale(0.1 -0.1)">
       <use xlink:href="#DejaVuSans-30"/>
      </g>
     </g>
    </g>
    <g id="ytick_6">
     <g id="line2d_11">
      <g>
       <use xlink:href="#mb61ab7d626" x="48.982813" y="18.709276" style="stroke: #000000; stroke-width: 0.8"/>
      </g>
     </g>
     <g id="text_12">
      <!-- 5 -->
      <g transform="translate(35.620313 22.508494) scale(0.1 -0.1)">
       <use xlink:href="#DejaVuSans-35"/>
      </g>
     </g>
    </g>
    <g id="text_13">
     <!-- log MSE -->
     <g transform="translate(14.798438 96.359375) rotate(-90) scale(0.1 -0.1)">
      <defs>
       <path id="DejaVuSans-6f" d="M 1959 3097 
Q 1497 3097 1228 2736 
Q 959 2375 959 1747 
Q 959 1119 1226 758 
Q 1494 397 1959 397 
Q 2419 397 2687 759 
Q 2956 1122 2956 1747 
Q 2956 2369 2687 2733 
Q 2419 3097 1959 3097 
z
M 1959 3584 
Q 2709 3584 3137 3096 
Q 3566 2609 3566 1747 
Q 3566 888 3137 398 
Q 2709 -91 1959 -91 
Q 1206 -91 779 398 
Q 353 888 353 1747 
Q 353 2609 779 3096 
Q 1206 3584 1959 3584 
z
" transform="scale(0.015625)"/>
       <path id="DejaVuSans-67" d="M 2906 1791 
Q 2906 2416 2648 2759 
Q 2391 3103 1925 3103 
Q 1463 3103 1205 2759 
Q 947 2416 947 1791 
Q 947 1169 1205 825 
Q 1463 481 1925 481 
Q 2391 481 2648 825 
Q 2906 1169 2906 1791 
z
M 3481 434 
Q 3481 -459 3084 -895 
Q 2688 -1331 1869 -1331 
Q 1566 -1331 1297 -1286 
Q 1028 -1241 775 -1147 
L 775 -588 
Q 1028 -725 1275 -790 
Q 1522 -856 1778 -856 
Q 2344 -856 2625 -561 
Q 2906 -266 2906 331 
L 2906 616 
Q 2728 306 2450 153 
Q 2172 0 1784 0 
Q 1141 0 747 490 
Q 353 981 353 1791 
Q 353 2603 747 3093 
Q 1141 3584 1784 3584 
Q 2172 3584 2450 3431 
Q 2728 3278 2906 2969 
L 2906 3500 
L 3481 3500 
L 3481 434 
z
" transform="scale(0.015625)"/>
       <path id="DejaVuSans-4d" d="M 628 4666 
L 1569 4666 
L 2759 1491 
L 3956 4666 
L 4897 4666 
L 4897 0 
L 4281 0 
L 4281 4097 
L 3078 897 
L 2444 897 
L 1241 4097 
L 1241 0 
L 628 0 
L 628 4666 
z
" transform="scale(0.015625)"/>
       <path id="DejaVuSans-45" d="M 628 4666 
L 3578 4666 
L 3578 4134 
L 1259 4134 
L 1259 2753 
L 3481 2753 
L 3481 2222 
L 1259 2222 
L 1259 531 
L 3634 531 
L 3634 0 
L 628 0 
L 628 4666 
z
" transform="scale(0.015625)"/>
      </defs>
      <use xlink:href="#DejaVuSans-6c"/>
      <use xlink:href="#DejaVuSans-6f" x="27.783203"/>
      <use xlink:href="#DejaVuSans-67" x="88.964844"/>
      <use xlink:href="#DejaVuSans-20" x="152.441406"/>
      <use xlink:href="#DejaVuSans-4d" x="184.228516"/>
      <use xlink:href="#DejaVuSans-53" x="270.507812"/>
      <use xlink:href="#DejaVuSans-45" x="333.984375"/>
     </g>
    </g>
   </g>
   <g id="line2d_12">
    <path d="M 57.860085 54.763061 
L 61.895209 58.908361 
L 65.930333 59.664504 
L 69.965457 65.225669 
L 74.000581 67.212369 
L 78.035705 67.560281 
L 82.070829 68.57414 
L 86.105953 69.423254 
L 90.141077 70.785682 
L 94.176201 71.807972 
L 98.211325 75.400807 
L 102.246449 76.940897 
L 106.281573 78.211306 
L 110.316697 78.618131 
L 114.351821 79.320367 
L 118.386945 79.528373 
L 122.422069 80.257583 
L 126.457193 80.697541 
L 130.492317 82.11943 
L 134.527441 82.467826 
L 138.562565 83.25781 
L 142.597689 83.572965 
L 146.632812 84.002554 
L 150.667936 85.504286 
L 154.70306 86.902421 
L 158.738184 87.882003 
L 162.773308 88.132775 
L 166.808432 88.321748 
L 170.843556 88.97684 
L 174.87868 89.466771 
L 178.913804 90.009504 
L 182.948928 90.977575 
L 186.984052 91.785771 
L 191.019176 92.160514 
L 195.0543 93.370703 
L 199.089424 95.787078 
L 203.124548 96.04885 
L 207.159672 97.01344 
L 211.194796 98.004582 
L 215.22992 99.343222 
L 219.265044 100.29552 
L 223.300168 105.108784 
L 227.335292 106.108181 
L 231.370416 107.55895 
L 235.40554 139.468958 
" clip-path="url(#pe23b7d2ecc)" style="fill: none; stroke: #4c72b0; stroke-width: 1.5; stroke-linecap: square"/>
    <defs>
     <path id="m654d6b1bcf" d="M 0 3.5 
C 0.928211 3.5 1.81853 3.131218 2.474874 2.474874 
C 3.131218 1.81853 3.5 0.928211 3.5 0 
C 3.5 -0.928211 3.131218 -1.81853 2.474874 -2.474874 
C 1.81853 -3.131218 0.928211 -3.5 0 -3.5 
C -0.928211 -3.5 -1.81853 -3.131218 -2.474874 -2.474874 
C -3.131218 -1.81853 -3.5 -0.928211 -3.5 0 
C -3.5 0.928211 -3.131218 1.81853 -2.474874 2.474874 
C -1.81853 3.131218 -0.928211 3.5 0 3.5 
z
" style="stroke: #ffffff; stroke-width: 0.75"/>
    </defs>
    <g clip-path="url(#pe23b7d2ecc)">
     <use xlink:href="#m654d6b1bcf" x="57.860085" y="54.763061" style="fill: #4c72b0; stroke: #ffffff; stroke-width: 0.75"/>
     <use xlink:href="#m654d6b1bcf" x="74.000581" y="67.212369" style="fill: #4c72b0; stroke: #ffffff; stroke-width: 0.75"/>
     <use xlink:href="#m654d6b1bcf" x="90.141077" y="70.785682" style="fill: #4c72b0; stroke: #ffffff; stroke-width: 0.75"/>
     <use xlink:href="#m654d6b1bcf" x="106.281573" y="78.211306" style="fill: #4c72b0; stroke: #ffffff; stroke-width: 0.75"/>
     <use xlink:href="#m654d6b1bcf" x="122.422069" y="80.257583" style="fill: #4c72b0; stroke: #ffffff; stroke-width: 0.75"/>
     <use xlink:href="#m654d6b1bcf" x="138.562565" y="83.25781" style="fill: #4c72b0; stroke: #ffffff; stroke-width: 0.75"/>
     <use xlink:href="#m654d6b1bcf" x="154.70306" y="86.902421" style="fill: #4c72b0; stroke: #ffffff; stroke-width: 0.75"/>
     <use xlink:href="#m654d6b1bcf" x="170.843556" y="88.97684" style="fill: #4c72b0; stroke: #ffffff; stroke-width: 0.75"/>
     <use xlink:href="#m654d6b1bcf" x="186.984052" y="91.785771" style="fill: #4c72b0; stroke: #ffffff; stroke-width: 0.75"/>
     <use xlink:href="#m654d6b1bcf" x="203.124548" y="96.04885" style="fill: #4c72b0; stroke: #ffffff; stroke-width: 0.75"/>
     <use xlink:href="#m654d6b1bcf" x="219.265044" y="100.29552" style="fill: #4c72b0; stroke: #ffffff; stroke-width: 0.75"/>
     <use xlink:href="#m654d6b1bcf" x="235.40554" y="139.468958" style="fill: #4c72b0; stroke: #ffffff; stroke-width: 0.75"/>
    </g>
   </g>
   <g id="line2d_13">
    <path d="M 57.860085 54.763228 
L 61.895209 58.876791 
L 65.930333 59.661447 
L 69.965457 65.176957 
L 74.000581 67.135962 
L 78.035705 67.464107 
L 82.070829 68.456555 
L 86.105953 69.283335 
L 90.141077 70.607063 
L 94.176201 71.598989 
L 98.211325 75.117077 
L 102.246449 76.67748 
L 106.281573 77.941481 
L 110.316697 78.3522 
L 114.351821 79.046802 
L 118.386945 79.253212 
L 122.422069 79.623403 
L 126.457193 80.395401 
L 130.492317 81.78342 
L 134.527441 82.123982 
L 138.562565 82.904977 
L 142.597689 83.206873 
L 146.632812 83.630293 
L 150.667936 85.133699 
L 154.70306 85.841508 
L 158.738184 87.485029 
L 162.773308 87.754066 
L 166.808432 87.947906 
L 170.843556 88.611657 
L 174.87868 89.092742 
L 178.913804 89.627069 
L 182.948928 90.558765 
L 186.984052 91.329213 
L 191.019176 91.685687 
L 195.0543 93.414423 
L 199.089424 95.304967 
L 203.124548 95.56606 
L 207.159672 96.499093 
L 211.194796 97.435101 
L 215.22992 98.718888 
L 219.265044 99.627643 
L 223.300168 104.072811 
L 227.335292 104.985776 
L 231.370416 106.256565 
L 235.40554 115.015181 
" clip-path="url(#pe23b7d2ecc)" style="fill: none; stroke-dasharray: 6,2.25; stroke-dashoffset: 0; stroke: #4c72b0; stroke-width: 1.5"/>
    <defs>
     <path id="m8a23fce1b0" d="M -1.75 3.5 
L 0 1.75 
L 1.75 3.5 
L 3.5 1.75 
L 1.75 0 
L 3.5 -1.75 
L 1.75 -3.5 
L 0 -1.75 
L -1.75 -3.5 
L -3.5 -1.75 
L -1.75 0 
L -3.5 1.75 
z
" style="stroke: #ffffff; stroke-width: 0.75; stroke-linejoin: miter"/>
    </defs>
    <g clip-path="url(#pe23b7d2ecc)">
     <use xlink:href="#m8a23fce1b0" x="57.860085" y="54.763228" style="fill: #4c72b0; stroke: #ffffff; stroke-width: 0.75; stroke-linejoin: miter"/>
     <use xlink:href="#m8a23fce1b0" x="74.000581" y="67.135962" style="fill: #4c72b0; stroke: #ffffff; stroke-width: 0.75; stroke-linejoin: miter"/>
     <use xlink:href="#m8a23fce1b0" x="90.141077" y="70.607063" style="fill: #4c72b0; stroke: #ffffff; stroke-width: 0.75; stroke-linejoin: miter"/>
     <use xlink:href="#m8a23fce1b0" x="106.281573" y="77.941481" style="fill: #4c72b0; stroke: #ffffff; stroke-width: 0.75; stroke-linejoin: miter"/>
     <use xlink:href="#m8a23fce1b0" x="122.422069" y="79.623403" style="fill: #4c72b0; stroke: #ffffff; stroke-width: 0.75; stroke-linejoin: miter"/>
     <use xlink:href="#m8a23fce1b0" x="138.562565" y="82.904977" style="fill: #4c72b0; stroke: #ffffff; stroke-width: 0.75; stroke-linejoin: miter"/>
     <use xlink:href="#m8a23fce1b0" x="154.70306" y="85.841508" style="fill: #4c72b0; stroke: #ffffff; stroke-width: 0.75; stroke-linejoin: miter"/>
     <use xlink:href="#m8a23fce1b0" x="170.843556" y="88.611657" style="fill: #4c72b0; stroke: #ffffff; stroke-width: 0.75; stroke-linejoin: miter"/>
     <use xlink:href="#m8a23fce1b0" x="186.984052" y="91.329213" style="fill: #4c72b0; stroke: #ffffff; stroke-width: 0.75; stroke-linejoin: miter"/>
     <use xlink:href="#m8a23fce1b0" x="203.124548" y="95.56606" style="fill: #4c72b0; stroke: #ffffff; stroke-width: 0.75; stroke-linejoin: miter"/>
     <use xlink:href="#m8a23fce1b0" x="219.265044" y="99.627643" style="fill: #4c72b0; stroke: #ffffff; stroke-width: 0.75; stroke-linejoin: miter"/>
     <use xlink:href="#m8a23fce1b0" x="235.40554" y="115.015181" style="fill: #4c72b0; stroke: #ffffff; stroke-width: 0.75; stroke-linejoin: miter"/>
    </g>
   </g>
   <g id="line2d_14">
    <path d="M 57.860085 54.763289 
L 61.895209 56.689199 
L 65.930333 58.154531 
L 69.965457 62.213299 
L 74.000581 62.700719 
L 78.035705 62.821484 
L 82.070829 63.178841 
L 86.105953 63.568448 
L 90.141077 63.714462 
L 94.176201 63.88441 
L 98.211325 65.895213 
L 102.246449 66.079401 
L 106.281573 66.87421 
L 110.316697 67.985066 
L 114.351821 68.227245 
L 118.386945 68.320006 
L 122.422069 68.41418 
L 126.457193 68.706831 
L 130.492317 68.833716 
L 134.527441 69.201636 
L 138.562565 69.757106 
L 142.597689 70.849597 
L 146.632812 71.028298 
L 150.667936 71.404909 
L 154.70306 71.558679 
L 158.738184 71.860899 
L 162.773308 71.91804 
L 166.808432 72.012959 
L 170.843556 72.105791 
L 174.87868 72.2822 
L 178.913804 72.8778 
L 182.948928 72.931979 
L 186.984052 73.352763 
L 191.019176 73.396774 
L 195.0543 73.56861 
L 199.089424 73.815487 
L 203.124548 73.929731 
L 207.159672 74.003296 
L 211.194796 74.300549 
L 215.22992 74.414169 
L 219.265044 74.779535 
L 223.300168 74.849037 
L 227.335292 74.898193 
L 231.370416 75.118792 
L 235.40554 75.157267 
" clip-path="url(#pe23b7d2ecc)" style="fill: none; stroke-dasharray: 1.5,1.5; stroke-dashoffset: 0; stroke: #4c72b0; stroke-width: 1.5"/>
    <defs>
     <path id="m6744f0245d" d="M -2.474874 -2.474874 
L -2.474874 2.474874 
L 2.474874 2.474874 
L 2.474874 -2.474874 
z
" style="stroke: #ffffff; stroke-width: 0.75; stroke-linejoin: miter"/>
    </defs>
    <g clip-path="url(#pe23b7d2ecc)">
     <use xlink:href="#m6744f0245d" x="57.860085" y="54.763289" style="fill: #4c72b0; stroke: #ffffff; stroke-width: 0.75; stroke-linejoin: miter"/>
     <use xlink:href="#m6744f0245d" x="74.000581" y="62.700719" style="fill: #4c72b0; stroke: #ffffff; stroke-width: 0.75; stroke-linejoin: miter"/>
     <use xlink:href="#m6744f0245d" x="90.141077" y="63.714462" style="fill: #4c72b0; stroke: #ffffff; stroke-width: 0.75; stroke-linejoin: miter"/>
     <use xlink:href="#m6744f0245d" x="106.281573" y="66.87421" style="fill: #4c72b0; stroke: #ffffff; stroke-width: 0.75; stroke-linejoin: miter"/>
     <use xlink:href="#m6744f0245d" x="122.422069" y="68.41418" style="fill: #4c72b0; stroke: #ffffff; stroke-width: 0.75; stroke-linejoin: miter"/>
     <use xlink:href="#m6744f0245d" x="138.562565" y="69.757106" style="fill: #4c72b0; stroke: #ffffff; stroke-width: 0.75; stroke-linejoin: miter"/>
     <use xlink:href="#m6744f0245d" x="154.70306" y="71.558679" style="fill: #4c72b0; stroke: #ffffff; stroke-width: 0.75; stroke-linejoin: miter"/>
     <use xlink:href="#m6744f0245d" x="170.843556" y="72.105791" style="fill: #4c72b0; stroke: #ffffff; stroke-width: 0.75; stroke-linejoin: miter"/>
     <use xlink:href="#m6744f0245d" x="186.984052" y="73.352763" style="fill: #4c72b0; stroke: #ffffff; stroke-width: 0.75; stroke-linejoin: miter"/>
     <use xlink:href="#m6744f0245d" x="203.124548" y="73.929731" style="fill: #4c72b0; stroke: #ffffff; stroke-width: 0.75; stroke-linejoin: miter"/>
     <use xlink:href="#m6744f0245d" x="219.265044" y="74.779535" style="fill: #4c72b0; stroke: #ffffff; stroke-width: 0.75; stroke-linejoin: miter"/>
     <use xlink:href="#m6744f0245d" x="235.40554" y="75.157267" style="fill: #4c72b0; stroke: #ffffff; stroke-width: 0.75; stroke-linejoin: miter"/>
    </g>
   </g>
   <g id="line2d_15">
    <path d="M 57.860085 54.597739 
L 61.895209 54.629948 
L 65.930333 54.94589 
L 69.965457 56.284962 
L 74.000581 61.877351 
L 78.035705 63.888995 
L 82.070829 64.0886 
L 86.105953 65.70134 
L 90.141077 68.923724 
L 94.176201 70.470042 
L 98.211325 71.379439 
L 102.246449 73.642808 
L 106.281573 75.032914 
L 110.316697 75.854077 
L 114.351821 76.266401 
L 118.386945 76.407508 
L 122.422069 76.80599 
L 126.457193 77.557482 
L 130.492317 78.574106 
L 134.527441 78.938509 
L 138.562565 80.075156 
L 142.597689 80.984151 
L 146.632812 82.356009 
L 150.667936 82.970232 
L 154.70306 84.167532 
L 158.738184 84.480317 
L 162.773308 84.700611 
L 166.808432 85.47379 
L 170.843556 85.76989 
L 174.87868 86.091419 
L 178.913804 86.705201 
L 182.948928 87.559249 
L 186.984052 88.63606 
L 191.019176 89.881447 
L 195.0543 90.650718 
L 199.089424 90.761211 
L 203.124548 91.294685 
L 207.159672 91.846606 
L 211.194796 93.184212 
L 215.22992 95.302445 
L 219.265044 95.445974 
L 223.300168 95.959713 
L 227.335292 99.357469 
L 231.370416 103.51954 
L 235.40554 139.436096 
" clip-path="url(#pe23b7d2ecc)" style="fill: none; stroke: #dd8452; stroke-width: 1.5; stroke-linecap: square"/>
    <defs>
     <path id="mfb319322e8" d="M 0 3.5 
C 0.928211 3.5 1.81853 3.131218 2.474874 2.474874 
C 3.131218 1.81853 3.5 0.928211 3.5 0 
C 3.5 -0.928211 3.131218 -1.81853 2.474874 -2.474874 
C 1.81853 -3.131218 0.928211 -3.5 0 -3.5 
C -0.928211 -3.5 -1.81853 -3.131218 -2.474874 -2.474874 
C -3.131218 -1.81853 -3.5 -0.928211 -3.5 0 
C -3.5 0.928211 -3.131218 1.81853 -2.474874 2.474874 
C -1.81853 3.131218 -0.928211 3.5 0 3.5 
z
" style="stroke: #ffffff; stroke-width: 0.75"/>
    </defs>
    <g clip-path="url(#pe23b7d2ecc)">
     <use xlink:href="#mfb319322e8" x="57.860085" y="54.597739" style="fill: #dd8452; stroke: #ffffff; stroke-width: 0.75"/>
     <use xlink:href="#mfb319322e8" x="74.000581" y="61.877351" style="fill: #dd8452; stroke: #ffffff; stroke-width: 0.75"/>
     <use xlink:href="#mfb319322e8" x="90.141077" y="68.923724" style="fill: #dd8452; stroke: #ffffff; stroke-width: 0.75"/>
     <use xlink:href="#mfb319322e8" x="106.281573" y="75.032914" style="fill: #dd8452; stroke: #ffffff; stroke-width: 0.75"/>
     <use xlink:href="#mfb319322e8" x="122.422069" y="76.80599" style="fill: #dd8452; stroke: #ffffff; stroke-width: 0.75"/>
     <use xlink:href="#mfb319322e8" x="138.562565" y="80.075156" style="fill: #dd8452; stroke: #ffffff; stroke-width: 0.75"/>
     <use xlink:href="#mfb319322e8" x="154.70306" y="84.167532" style="fill: #dd8452; stroke: #ffffff; stroke-width: 0.75"/>
     <use xlink:href="#mfb319322e8" x="170.843556" y="85.76989" style="fill: #dd8452; stroke: #ffffff; stroke-width: 0.75"/>
     <use xlink:href="#mfb319322e8" x="186.984052" y="88.63606" style="fill: #dd8452; stroke: #ffffff; stroke-width: 0.75"/>
     <use xlink:href="#mfb319322e8" x="203.124548" y="91.294685" style="fill: #dd8452; stroke: #ffffff; stroke-width: 0.75"/>
     <use xlink:href="#mfb319322e8" x="219.265044" y="95.445974" style="fill: #dd8452; stroke: #ffffff; stroke-width: 0.75"/>
     <use xlink:href="#mfb319322e8" x="235.40554" y="139.436096" style="fill: #dd8452; stroke: #ffffff; stroke-width: 0.75"/>
    </g>
   </g>
   <g id="line2d_16">
    <path d="M 57.860085 54.594997 
L 61.895209 54.608913 
L 65.930333 54.927768 
L 69.965457 56.258727 
L 74.000581 57.900538 
L 78.035705 57.58447 
L 82.070829 59.479638 
L 86.105953 61.110309 
L 90.141077 63.887417 
L 94.176201 69.506611 
L 98.211325 71.436098 
L 102.246449 73.162121 
L 106.281573 73.81223 
L 110.316697 74.400659 
L 114.351821 75.921381 
L 118.386945 76.946393 
L 122.422069 77.828951 
L 126.457193 78.070601 
L 130.492317 79.105575 
L 134.527441 79.374279 
L 138.562565 80.702004 
L 142.597689 81.016529 
L 146.632812 81.54415 
L 150.667936 82.628741 
L 154.70306 83.02322 
L 158.738184 83.695245 
L 162.773308 84.129248 
L 166.808432 84.929356 
L 170.843556 85.79098 
L 174.87868 86.296396 
L 178.913804 86.691888 
L 182.948928 87.751974 
L 186.984052 88.422542 
L 191.019176 89.814962 
L 195.0543 90.84851 
L 199.089424 91.231851 
L 203.124548 91.368843 
L 207.159672 92.029242 
L 211.194796 92.739152 
L 215.22992 94.800026 
L 219.265044 97.742872 
L 223.300168 97.921284 
L 227.335292 98.388931 
L 231.370416 101.770327 
L 235.40554 115.00232 
" clip-path="url(#pe23b7d2ecc)" style="fill: none; stroke-dasharray: 6,2.25; stroke-dashoffset: 0; stroke: #dd8452; stroke-width: 1.5"/>
    <defs>
     <path id="me2296bf3fa" d="M -1.75 3.5 
L 0 1.75 
L 1.75 3.5 
L 3.5 1.75 
L 1.75 0 
L 3.5 -1.75 
L 1.75 -3.5 
L 0 -1.75 
L -1.75 -3.5 
L -3.5 -1.75 
L -1.75 0 
L -3.5 1.75 
z
" style="stroke: #ffffff; stroke-width: 0.75; stroke-linejoin: miter"/>
    </defs>
    <g clip-path="url(#pe23b7d2ecc)">
     <use xlink:href="#me2296bf3fa" x="57.860085" y="54.594997" style="fill: #dd8452; stroke: #ffffff; stroke-width: 0.75; stroke-linejoin: miter"/>
     <use xlink:href="#me2296bf3fa" x="74.000581" y="57.900538" style="fill: #dd8452; stroke: #ffffff; stroke-width: 0.75; stroke-linejoin: miter"/>
     <use xlink:href="#me2296bf3fa" x="90.141077" y="63.887417" style="fill: #dd8452; stroke: #ffffff; stroke-width: 0.75; stroke-linejoin: miter"/>
     <use xlink:href="#me2296bf3fa" x="106.281573" y="73.81223" style="fill: #dd8452; stroke: #ffffff; stroke-width: 0.75; stroke-linejoin: miter"/>
     <use xlink:href="#me2296bf3fa" x="122.422069" y="77.828951" style="fill: #dd8452; stroke: #ffffff; stroke-width: 0.75; stroke-linejoin: miter"/>
     <use xlink:href="#me2296bf3fa" x="138.562565" y="80.702004" style="fill: #dd8452; stroke: #ffffff; stroke-width: 0.75; stroke-linejoin: miter"/>
     <use xlink:href="#me2296bf3fa" x="154.70306" y="83.02322" style="fill: #dd8452; stroke: #ffffff; stroke-width: 0.75; stroke-linejoin: miter"/>
     <use xlink:href="#me2296bf3fa" x="170.843556" y="85.79098" style="fill: #dd8452; stroke: #ffffff; stroke-width: 0.75; stroke-linejoin: miter"/>
     <use xlink:href="#me2296bf3fa" x="186.984052" y="88.422542" style="fill: #dd8452; stroke: #ffffff; stroke-width: 0.75; stroke-linejoin: miter"/>
     <use xlink:href="#me2296bf3fa" x="203.124548" y="91.368843" style="fill: #dd8452; stroke: #ffffff; stroke-width: 0.75; stroke-linejoin: miter"/>
     <use xlink:href="#me2296bf3fa" x="219.265044" y="97.742872" style="fill: #dd8452; stroke: #ffffff; stroke-width: 0.75; stroke-linejoin: miter"/>
     <use xlink:href="#me2296bf3fa" x="235.40554" y="115.00232" style="fill: #dd8452; stroke: #ffffff; stroke-width: 0.75; stroke-linejoin: miter"/>
    </g>
   </g>
   <g id="line2d_17">
    <path d="M 57.860085 54.594993 
L 61.895209 54.877836 
L 65.930333 56.835929 
L 69.965457 59.761744 
L 74.000581 62.450348 
L 78.035705 63.025384 
L 82.070829 63.267423 
L 86.105953 63.438479 
L 90.141077 63.451132 
L 94.176201 63.496839 
L 98.211325 65.051926 
L 102.246449 65.634405 
L 106.281573 66.30756 
L 110.316697 66.467063 
L 114.351821 66.632932 
L 118.386945 66.820442 
L 122.422069 67.461773 
L 126.457193 67.835504 
L 130.492317 69.073788 
L 134.527441 69.091458 
L 138.562565 69.537606 
L 142.597689 69.651424 
L 146.632812 69.986379 
L 150.667936 70.111346 
L 154.70306 70.20241 
L 158.738184 70.62508 
L 162.773308 70.845188 
L 166.808432 71.202499 
L 170.843556 71.366767 
L 174.87868 71.891985 
L 178.913804 71.933654 
L 182.948928 72.224977 
L 186.984052 72.44092 
L 191.019176 72.79158 
L 195.0543 73.005993 
L 199.089424 73.053117 
L 203.124548 73.267294 
L 207.159672 73.924719 
L 211.194796 74.07036 
L 215.22992 74.207888 
L 219.265044 74.492204 
L 223.300168 74.606965 
L 227.335292 74.951419 
L 231.370416 75.109748 
L 235.40554 75.157292 
" clip-path="url(#pe23b7d2ecc)" style="fill: none; stroke-dasharray: 1.5,1.5; stroke-dashoffset: 0; stroke: #dd8452; stroke-width: 1.5"/>
    <defs>
     <path id="m176443d159" d="M -2.474874 -2.474874 
L -2.474874 2.474874 
L 2.474874 2.474874 
L 2.474874 -2.474874 
z
" style="stroke: #ffffff; stroke-width: 0.75; stroke-linejoin: miter"/>
    </defs>
    <g clip-path="url(#pe23b7d2ecc)">
     <use xlink:href="#m176443d159" x="57.860085" y="54.594993" style="fill: #dd8452; stroke: #ffffff; stroke-width: 0.75; stroke-linejoin: miter"/>
     <use xlink:href="#m176443d159" x="74.000581" y="62.450348" style="fill: #dd8452; stroke: #ffffff; stroke-width: 0.75; stroke-linejoin: miter"/>
     <use xlink:href="#m176443d159" x="90.141077" y="63.451132" style="fill: #dd8452; stroke: #ffffff; stroke-width: 0.75; stroke-linejoin: miter"/>
     <use xlink:href="#m176443d159" x="106.281573" y="66.30756" style="fill: #dd8452; stroke: #ffffff; stroke-width: 0.75; stroke-linejoin: miter"/>
     <use xlink:href="#m176443d159" x="122.422069" y="67.461773" style="fill: #dd8452; stroke: #ffffff; stroke-width: 0.75; stroke-linejoin: miter"/>
     <use xlink:href="#m176443d159" x="138.562565" y="69.537606" style="fill: #dd8452; stroke: #ffffff; stroke-width: 0.75; stroke-linejoin: miter"/>
     <use xlink:href="#m176443d159" x="154.70306" y="70.20241" style="fill: #dd8452; stroke: #ffffff; stroke-width: 0.75; stroke-linejoin: miter"/>
     <use xlink:href="#m176443d159" x="170.843556" y="71.366767" style="fill: #dd8452; stroke: #ffffff; stroke-width: 0.75; stroke-linejoin: miter"/>
     <use xlink:href="#m176443d159" x="186.984052" y="72.44092" style="fill: #dd8452; stroke: #ffffff; stroke-width: 0.75; stroke-linejoin: miter"/>
     <use xlink:href="#m176443d159" x="203.124548" y="73.267294" style="fill: #dd8452; stroke: #ffffff; stroke-width: 0.75; stroke-linejoin: miter"/>
     <use xlink:href="#m176443d159" x="219.265044" y="74.492204" style="fill: #dd8452; stroke: #ffffff; stroke-width: 0.75; stroke-linejoin: miter"/>
     <use xlink:href="#m176443d159" x="235.40554" y="75.157292" style="fill: #dd8452; stroke: #ffffff; stroke-width: 0.75; stroke-linejoin: miter"/>
    </g>
   </g>
   <g id="line2d_18">
    <path d="M 57.860085 54.522081 
L 61.895209 54.583516 
L 65.930333 54.767091 
L 69.965457 55.21398 
L 74.000581 57.703469 
L 78.035705 60.226343 
L 82.070829 65.027672 
L 86.105953 67.049975 
L 90.141077 67.846091 
L 94.176201 68.603921 
L 98.211325 69.313824 
L 102.246449 69.34273 
L 106.281573 69.856659 
L 110.316697 69.981836 
L 114.351821 73.576332 
L 118.386945 73.555431 
L 122.422069 73.595575 
L 126.457193 73.629838 
L 130.492317 73.826205 
L 134.527441 81.197859 
L 138.562565 82.003315 
L 142.597689 82.323449 
L 146.632812 82.504246 
L 150.667936 82.603682 
L 154.70306 84.658445 
L 158.738184 85.203705 
L 162.773308 85.848556 
L 166.808432 86.302485 
L 170.843556 86.494704 
L 174.87868 86.610056 
L 178.913804 86.647865 
L 182.948928 86.665194 
L 186.984052 86.855809 
L 191.019176 89.023802 
L 195.0543 89.257494 
L 199.089424 91.008328 
L 203.124548 91.429657 
L 207.159672 92.24216 
L 211.194796 92.505495 
L 215.22992 94.27205 
L 219.265044 94.84618 
L 223.300168 96.028258 
L 227.335292 96.727554 
L 231.370416 99.776204 
L 235.40554 139.5 
" clip-path="url(#pe23b7d2ecc)" style="fill: none; stroke: #55a868; stroke-width: 1.5; stroke-linecap: square"/>
    <defs>
     <path id="m3cade72807" d="M 0 3.5 
C 0.928211 3.5 1.81853 3.131218 2.474874 2.474874 
C 3.131218 1.81853 3.5 0.928211 3.5 0 
C 3.5 -0.928211 3.131218 -1.81853 2.474874 -2.474874 
C 1.81853 -3.131218 0.928211 -3.5 0 -3.5 
C -0.928211 -3.5 -1.81853 -3.131218 -2.474874 -2.474874 
C -3.131218 -1.81853 -3.5 -0.928211 -3.5 0 
C -3.5 0.928211 -3.131218 1.81853 -2.474874 2.474874 
C -1.81853 3.131218 -0.928211 3.5 0 3.5 
z
" style="stroke: #ffffff; stroke-width: 0.75"/>
    </defs>
    <g clip-path="url(#pe23b7d2ecc)">
     <use xlink:href="#m3cade72807" x="57.860085" y="54.522081" style="fill: #55a868; stroke: #ffffff; stroke-width: 0.75"/>
     <use xlink:href="#m3cade72807" x="74.000581" y="57.703469" style="fill: #55a868; stroke: #ffffff; stroke-width: 0.75"/>
     <use xlink:href="#m3cade72807" x="90.141077" y="67.846091" style="fill: #55a868; stroke: #ffffff; stroke-width: 0.75"/>
     <use xlink:href="#m3cade72807" x="106.281573" y="69.856659" style="fill: #55a868; stroke: #ffffff; stroke-width: 0.75"/>
     <use xlink:href="#m3cade72807" x="122.422069" y="73.595575" style="fill: #55a868; stroke: #ffffff; stroke-width: 0.75"/>
     <use xlink:href="#m3cade72807" x="138.562565" y="82.003315" style="fill: #55a868; stroke: #ffffff; stroke-width: 0.75"/>
     <use xlink:href="#m3cade72807" x="154.70306" y="84.658445" style="fill: #55a868; stroke: #ffffff; stroke-width: 0.75"/>
     <use xlink:href="#m3cade72807" x="170.843556" y="86.494704" style="fill: #55a868; stroke: #ffffff; stroke-width: 0.75"/>
     <use xlink:href="#m3cade72807" x="186.984052" y="86.855809" style="fill: #55a868; stroke: #ffffff; stroke-width: 0.75"/>
     <use xlink:href="#m3cade72807" x="203.124548" y="91.429657" style="fill: #55a868; stroke: #ffffff; stroke-width: 0.75"/>
     <use xlink:href="#m3cade72807" x="219.265044" y="94.84618" style="fill: #55a868; stroke: #ffffff; stroke-width: 0.75"/>
     <use xlink:href="#m3cade72807" x="235.40554" y="139.5" style="fill: #55a868; stroke: #ffffff; stroke-width: 0.75"/>
    </g>
   </g>
   <g id="line2d_19">
    <path d="M 57.860085 52.336286 
L 61.895209 55.361481 
L 65.930333 60.08105 
L 69.965457 59.981517 
L 74.000581 62.94784 
L 78.035705 62.882153 
L 82.070829 65.534377 
L 86.105953 65.958953 
L 90.141077 66.003189 
L 94.176201 70.220358 
L 98.211325 70.487379 
L 102.246449 70.851207 
L 106.281573 71.152063 
L 110.316697 71.173415 
L 114.351821 71.247369 
L 118.386945 71.358815 
L 122.422069 71.674948 
L 126.457193 72.75826 
L 130.492317 72.851925 
L 134.527441 73.048403 
L 138.562565 77.975191 
L 142.597689 78.866158 
L 146.632812 79.592082 
L 150.667936 79.723012 
L 154.70306 80.069934 
L 158.738184 80.17123 
L 162.773308 80.369578 
L 166.808432 80.382412 
L 170.843556 81.079239 
L 174.87868 85.08155 
L 178.913804 86.720465 
L 182.948928 86.922862 
L 186.984052 87.717167 
L 191.019176 88.118724 
L 195.0543 88.435719 
L 199.089424 88.689257 
L 203.124548 89.086001 
L 207.159672 89.449997 
L 211.194796 89.572814 
L 215.22992 89.841599 
L 219.265044 91.640079 
L 223.300168 91.976453 
L 227.335292 95.748584 
L 231.370416 96.839397 
L 235.40554 115.019026 
" clip-path="url(#pe23b7d2ecc)" style="fill: none; stroke-dasharray: 6,2.25; stroke-dashoffset: 0; stroke: #55a868; stroke-width: 1.5"/>
    <defs>
     <path id="m82867fc370" d="M -1.75 3.5 
L 0 1.75 
L 1.75 3.5 
L 3.5 1.75 
L 1.75 0 
L 3.5 -1.75 
L 1.75 -3.5 
L 0 -1.75 
L -1.75 -3.5 
L -3.5 -1.75 
L -1.75 0 
L -3.5 1.75 
z
" style="stroke: #ffffff; stroke-width: 0.75; stroke-linejoin: miter"/>
    </defs>
    <g clip-path="url(#pe23b7d2ecc)">
     <use xlink:href="#m82867fc370" x="57.860085" y="52.336286" style="fill: #55a868; stroke: #ffffff; stroke-width: 0.75; stroke-linejoin: miter"/>
     <use xlink:href="#m82867fc370" x="74.000581" y="62.94784" style="fill: #55a868; stroke: #ffffff; stroke-width: 0.75; stroke-linejoin: miter"/>
     <use xlink:href="#m82867fc370" x="90.141077" y="66.003189" style="fill: #55a868; stroke: #ffffff; stroke-width: 0.75; stroke-linejoin: miter"/>
     <use xlink:href="#m82867fc370" x="106.281573" y="71.152063" style="fill: #55a868; stroke: #ffffff; stroke-width: 0.75; stroke-linejoin: miter"/>
     <use xlink:href="#m82867fc370" x="122.422069" y="71.674948" style="fill: #55a868; stroke: #ffffff; stroke-width: 0.75; stroke-linejoin: miter"/>
     <use xlink:href="#m82867fc370" x="138.562565" y="77.975191" style="fill: #55a868; stroke: #ffffff; stroke-width: 0.75; stroke-linejoin: miter"/>
     <use xlink:href="#m82867fc370" x="154.70306" y="80.069934" style="fill: #55a868; stroke: #ffffff; stroke-width: 0.75; stroke-linejoin: miter"/>
     <use xlink:href="#m82867fc370" x="170.843556" y="81.079239" style="fill: #55a868; stroke: #ffffff; stroke-width: 0.75; stroke-linejoin: miter"/>
     <use xlink:href="#m82867fc370" x="186.984052" y="87.717167" style="fill: #55a868; stroke: #ffffff; stroke-width: 0.75; stroke-linejoin: miter"/>
     <use xlink:href="#m82867fc370" x="203.124548" y="89.086001" style="fill: #55a868; stroke: #ffffff; stroke-width: 0.75; stroke-linejoin: miter"/>
     <use xlink:href="#m82867fc370" x="219.265044" y="91.640079" style="fill: #55a868; stroke: #ffffff; stroke-width: 0.75; stroke-linejoin: miter"/>
     <use xlink:href="#m82867fc370" x="235.40554" y="115.019026" style="fill: #55a868; stroke: #ffffff; stroke-width: 0.75; stroke-linejoin: miter"/>
    </g>
   </g>
   <g id="line2d_20">
    <path d="M 57.860085 47.20931 
L 61.895209 55.12002 
L 65.930333 60.512486 
L 69.965457 60.753094 
L 74.000581 63.255211 
L 78.035705 63.506745 
L 82.070829 63.578825 
L 86.105953 63.585257 
L 90.141077 64.250765 
L 94.176201 64.262804 
L 98.211325 65.827113 
L 102.246449 66.139599 
L 106.281573 66.216675 
L 110.316697 66.336155 
L 114.351821 66.457196 
L 118.386945 66.534052 
L 122.422069 66.540871 
L 126.457193 67.582297 
L 130.492317 68.124246 
L 134.527441 68.51247 
L 138.562565 68.671968 
L 142.597689 68.908705 
L 146.632812 69.71547 
L 150.667936 69.770948 
L 154.70306 69.859239 
L 158.738184 69.906375 
L 162.773308 70.101669 
L 166.808432 70.192714 
L 170.843556 70.221329 
L 174.87868 70.580664 
L 178.913804 71.679771 
L 182.948928 71.710488 
L 186.984052 72.277708 
L 191.019176 72.506913 
L 195.0543 72.620089 
L 199.089424 72.765155 
L 203.124548 73.049396 
L 207.159672 73.107891 
L 211.194796 73.626799 
L 215.22992 73.693745 
L 219.265044 73.786566 
L 223.300168 73.875912 
L 227.335292 74.763881 
L 231.370416 74.816708 
L 235.40554 75.157312 
" clip-path="url(#pe23b7d2ecc)" style="fill: none; stroke-dasharray: 1.5,1.5; stroke-dashoffset: 0; stroke: #55a868; stroke-width: 1.5"/>
    <defs>
     <path id="mcae0614e7e" d="M -2.474874 -2.474874 
L -2.474874 2.474874 
L 2.474874 2.474874 
L 2.474874 -2.474874 
z
" style="stroke: #ffffff; stroke-width: 0.75; stroke-linejoin: miter"/>
    </defs>
    <g clip-path="url(#pe23b7d2ecc)">
     <use xlink:href="#mcae0614e7e" x="57.860085" y="47.20931" style="fill: #55a868; stroke: #ffffff; stroke-width: 0.75; stroke-linejoin: miter"/>
     <use xlink:href="#mcae0614e7e" x="74.000581" y="63.255211" style="fill: #55a868; stroke: #ffffff; stroke-width: 0.75; stroke-linejoin: miter"/>
     <use xlink:href="#mcae0614e7e" x="90.141077" y="64.250765" style="fill: #55a868; stroke: #ffffff; stroke-width: 0.75; stroke-linejoin: miter"/>
     <use xlink:href="#mcae0614e7e" x="106.281573" y="66.216675" style="fill: #55a868; stroke: #ffffff; stroke-width: 0.75; stroke-linejoin: miter"/>
     <use xlink:href="#mcae0614e7e" x="122.422069" y="66.540871" style="fill: #55a868; stroke: #ffffff; stroke-width: 0.75; stroke-linejoin: miter"/>
     <use xlink:href="#mcae0614e7e" x="138.562565" y="68.671968" style="fill: #55a868; stroke: #ffffff; stroke-width: 0.75; stroke-linejoin: miter"/>
     <use xlink:href="#mcae0614e7e" x="154.70306" y="69.859239" style="fill: #55a868; stroke: #ffffff; stroke-width: 0.75; stroke-linejoin: miter"/>
     <use xlink:href="#mcae0614e7e" x="170.843556" y="70.221329" style="fill: #55a868; stroke: #ffffff; stroke-width: 0.75; stroke-linejoin: miter"/>
     <use xlink:href="#mcae0614e7e" x="186.984052" y="72.277708" style="fill: #55a868; stroke: #ffffff; stroke-width: 0.75; stroke-linejoin: miter"/>
     <use xlink:href="#mcae0614e7e" x="203.124548" y="73.049396" style="fill: #55a868; stroke: #ffffff; stroke-width: 0.75; stroke-linejoin: miter"/>
     <use xlink:href="#mcae0614e7e" x="219.265044" y="73.786566" style="fill: #55a868; stroke: #ffffff; stroke-width: 0.75; stroke-linejoin: miter"/>
     <use xlink:href="#mcae0614e7e" x="235.40554" y="75.157312" style="fill: #55a868; stroke: #ffffff; stroke-width: 0.75; stroke-linejoin: miter"/>
    </g>
   </g>
   <g id="line2d_21"/>
   <g id="line2d_22"/>
   <g id="line2d_23"/>
   <g id="line2d_24"/>
   <g id="line2d_25"/>
   <g id="line2d_26"/>
   <g id="line2d_27"/>
   <g id="line2d_28"/>
   <g id="line2d_29">
    <path d="M 57.860085 13.5 
L 61.895209 16.450787 
L 65.930333 18.106064 
L 69.965457 19.225196 
L 74.000581 20.038798 
L 78.035705 20.657341 
L 82.070829 21.140437 
L 86.105953 21.524405 
L 90.141077 21.83294 
L 94.176201 22.082422 
L 98.211325 22.284668 
L 102.246449 22.448499 
L 106.281573 22.580676 
L 110.316697 22.686494 
L 114.351821 22.770172 
L 118.386945 22.835122 
L 122.422069 22.884136 
L 126.457193 22.919523 
L 130.492317 22.943209 
L 134.527441 22.956812 
L 138.562565 22.9617 
L 142.597689 22.959038 
L 146.632812 22.949821 
L 150.667936 22.934905 
L 154.70306 22.915026 
L 158.738184 22.890824 
L 162.773308 22.862852 
L 166.808432 22.831592 
L 170.843556 22.797467 
L 174.87868 22.760845 
L 178.913804 22.72205 
L 182.948928 22.681367 
L 186.984052 22.639046 
L 191.019176 22.59531 
L 195.0543 22.550353 
L 199.089424 22.504349 
L 203.124548 22.457451 
L 207.159672 22.409796 
L 211.194796 22.361505 
L 215.22992 22.312685 
L 219.265044 22.263432 
L 223.300168 22.213832 
L 227.335292 22.16396 
L 231.370416 22.113885 
L 235.40554 22.063666 
" clip-path="url(#pe23b7d2ecc)" style="fill: none; stroke: #64b5cd; stroke-width: 1.5; stroke-linecap: square"/>
   </g>
   <g id="patch_3">
    <path d="M 48.982813 145.8 
L 48.982813 7.2 
" style="fill: none; stroke: #000000; stroke-width: 0.8; stroke-linejoin: miter; stroke-linecap: square"/>
   </g>
   <g id="patch_4">
    <path d="M 244.282813 145.8 
L 244.282813 7.2 
" style="fill: none; stroke: #000000; stroke-width: 0.8; stroke-linejoin: miter; stroke-linecap: square"/>
   </g>
   <g id="patch_5">
    <path d="M 48.982813 145.8 
L 244.282812 145.8 
" style="fill: none; stroke: #000000; stroke-width: 0.8; stroke-linejoin: miter; stroke-linecap: square"/>
   </g>
   <g id="patch_6">
    <path d="M 48.982813 7.2 
L 244.282812 7.2 
" style="fill: none; stroke: #000000; stroke-width: 0.8; stroke-linejoin: miter; stroke-linecap: square"/>
   </g>
   <g id="legend_1">
    <g id="patch_7">
     <path d="M 53.882813 43.624063 
L 135.310312 43.624063 
Q 136.710312 43.624063 136.710312 42.224063 
L 136.710312 12.1 
Q 136.710312 10.7 135.310312 10.7 
L 53.882813 10.7 
Q 52.482813 10.7 52.482813 12.1 
L 52.482813 42.224063 
Q 52.482813 43.624063 53.882813 43.624063 
z
" style="fill: #ffffff; opacity: 0.8; stroke: #cccccc; stroke-linejoin: miter"/>
    </g>
    <g id="line2d_30">
     <path d="M 55.282813 16.368906 
L 62.282813 16.368906 
L 69.282813 16.368906 
" style="fill: none; stroke: #4c72b0; stroke-width: 1.5; stroke-linecap: square"/>
    </g>
    <g id="text_14">
     <!-- MMSE -->
     <g transform="translate(74.882812 18.818906) scale(0.07 -0.07)">
      <use xlink:href="#DejaVuSans-4d"/>
      <use xlink:href="#DejaVuSans-4d" x="86.279297"/>
      <use xlink:href="#DejaVuSans-53" x="172.558594"/>
      <use xlink:href="#DejaVuSans-45" x="236.035156"/>
     </g>
    </g>
    <g id="line2d_31">
     <path d="M 55.282813 26.643594 
L 62.282813 26.643594 
L 69.282813 26.643594 
" style="fill: none; stroke: #dd8452; stroke-width: 1.5; stroke-linecap: square"/>
    </g>
    <g id="text_15">
     <!-- WMSE -->
     <g transform="translate(74.882812 29.093594) scale(0.07 -0.07)">
      <defs>
       <path id="DejaVuSans-57" d="M 213 4666 
L 850 4666 
L 1831 722 
L 2809 4666 
L 3519 4666 
L 4500 722 
L 5478 4666 
L 6119 4666 
L 4947 0 
L 4153 0 
L 3169 4050 
L 2175 0 
L 1381 0 
L 213 4666 
z
" transform="scale(0.015625)"/>
      </defs>
      <use xlink:href="#DejaVuSans-57"/>
      <use xlink:href="#DejaVuSans-4d" x="98.876953"/>
      <use xlink:href="#DejaVuSans-53" x="185.15625"/>
      <use xlink:href="#DejaVuSans-45" x="248.632812"/>
     </g>
    </g>
    <g id="line2d_32">
     <path d="M 55.282813 36.918281 
L 62.282813 36.918281 
L 69.282813 36.918281 
" style="fill: none; stroke: #55a868; stroke-width: 1.5; stroke-linecap: square"/>
    </g>
    <g id="text_16">
     <!-- Uniform Random -->
     <g transform="translate(74.882812 39.368281) scale(0.07 -0.07)">
      <defs>
       <path id="DejaVuSans-55" d="M 556 4666 
L 1191 4666 
L 1191 1831 
Q 1191 1081 1462 751 
Q 1734 422 2344 422 
Q 2950 422 3222 751 
Q 3494 1081 3494 1831 
L 3494 4666 
L 4128 4666 
L 4128 1753 
Q 4128 841 3676 375 
Q 3225 -91 2344 -91 
Q 1459 -91 1007 375 
Q 556 841 556 1753 
L 556 4666 
z
" transform="scale(0.015625)"/>
       <path id="DejaVuSans-6e" d="M 3513 2113 
L 3513 0 
L 2938 0 
L 2938 2094 
Q 2938 2591 2744 2837 
Q 2550 3084 2163 3084 
Q 1697 3084 1428 2787 
Q 1159 2491 1159 1978 
L 1159 0 
L 581 0 
L 581 3500 
L 1159 3500 
L 1159 2956 
Q 1366 3272 1645 3428 
Q 1925 3584 2291 3584 
Q 2894 3584 3203 3211 
Q 3513 2838 3513 2113 
z
" transform="scale(0.015625)"/>
       <path id="DejaVuSans-66" d="M 2375 4863 
L 2375 4384 
L 1825 4384 
Q 1516 4384 1395 4259 
Q 1275 4134 1275 3809 
L 1275 3500 
L 2222 3500 
L 2222 3053 
L 1275 3053 
L 1275 0 
L 697 0 
L 697 3053 
L 147 3053 
L 147 3500 
L 697 3500 
L 697 3744 
Q 697 4328 969 4595 
Q 1241 4863 1831 4863 
L 2375 4863 
z
" transform="scale(0.015625)"/>
       <path id="DejaVuSans-72" d="M 2631 2963 
Q 2534 3019 2420 3045 
Q 2306 3072 2169 3072 
Q 1681 3072 1420 2755 
Q 1159 2438 1159 1844 
L 1159 0 
L 581 0 
L 581 3500 
L 1159 3500 
L 1159 2956 
Q 1341 3275 1631 3429 
Q 1922 3584 2338 3584 
Q 2397 3584 2469 3576 
Q 2541 3569 2628 3553 
L 2631 2963 
z
" transform="scale(0.015625)"/>
       <path id="DejaVuSans-52" d="M 2841 2188 
Q 3044 2119 3236 1894 
Q 3428 1669 3622 1275 
L 4263 0 
L 3584 0 
L 2988 1197 
Q 2756 1666 2539 1819 
Q 2322 1972 1947 1972 
L 1259 1972 
L 1259 0 
L 628 0 
L 628 4666 
L 2053 4666 
Q 2853 4666 3247 4331 
Q 3641 3997 3641 3322 
Q 3641 2881 3436 2590 
Q 3231 2300 2841 2188 
z
M 1259 4147 
L 1259 2491 
L 2053 2491 
Q 2509 2491 2742 2702 
Q 2975 2913 2975 3322 
Q 2975 3731 2742 3939 
Q 2509 4147 2053 4147 
L 1259 4147 
z
" transform="scale(0.015625)"/>
       <path id="DejaVuSans-64" d="M 2906 2969 
L 2906 4863 
L 3481 4863 
L 3481 0 
L 2906 0 
L 2906 525 
Q 2725 213 2448 61 
Q 2172 -91 1784 -91 
Q 1150 -91 751 415 
Q 353 922 353 1747 
Q 353 2572 751 3078 
Q 1150 3584 1784 3584 
Q 2172 3584 2448 3432 
Q 2725 3281 2906 2969 
z
M 947 1747 
Q 947 1113 1208 752 
Q 1469 391 1925 391 
Q 2381 391 2643 752 
Q 2906 1113 2906 1747 
Q 2906 2381 2643 2742 
Q 2381 3103 1925 3103 
Q 1469 3103 1208 2742 
Q 947 2381 947 1747 
z
" transform="scale(0.015625)"/>
      </defs>
      <use xlink:href="#DejaVuSans-55"/>
      <use xlink:href="#DejaVuSans-6e" x="73.193359"/>
      <use xlink:href="#DejaVuSans-69" x="136.572266"/>
      <use xlink:href="#DejaVuSans-66" x="164.355469"/>
      <use xlink:href="#DejaVuSans-6f" x="199.560547"/>
      <use xlink:href="#DejaVuSans-72" x="260.742188"/>
      <use xlink:href="#DejaVuSans-6d" x="300.105469"/>
      <use xlink:href="#DejaVuSans-20" x="397.517578"/>
      <use xlink:href="#DejaVuSans-52" x="429.304688"/>
      <use xlink:href="#DejaVuSans-61" x="496.537109"/>
      <use xlink:href="#DejaVuSans-6e" x="557.816406"/>
      <use xlink:href="#DejaVuSans-64" x="621.195312"/>
      <use xlink:href="#DejaVuSans-6f" x="684.671875"/>
      <use xlink:href="#DejaVuSans-6d" x="745.853516"/>
     </g>
    </g>
   </g>
   <g id="legend_2">
    <g id="patch_8">
     <path d="M 192.489375 53.89875 
L 239.382813 53.89875 
Q 240.782813 53.89875 240.782813 52.49875 
L 240.782813 12.1 
Q 240.782813 10.7 239.382813 10.7 
L 192.489375 10.7 
Q 191.089375 10.7 191.089375 12.1 
L 191.089375 52.49875 
Q 191.089375 53.89875 192.489375 53.89875 
z
" style="fill: #ffffff; opacity: 0.8; stroke: #cccccc; stroke-linejoin: miter"/>
    </g>
    <g id="line2d_33">
     <path d="M 193.889375 16.368906 
L 200.889375 16.368906 
L 207.889375 16.368906 
" style="fill: none"/>
    </g>
    <g id="text_17">
     <!-- μ -->
     <g transform="translate(213.489375 18.818906) scale(0.07 -0.07)">
      <defs>
       <path id="DejaVuSans-3bc" d="M 544 -1331 
L 544 3500 
L 1119 3500 
L 1119 1325 
Q 1119 872 1334 640 
Q 1550 409 1972 409 
Q 2434 409 2667 671 
Q 2900 934 2900 1459 
L 2900 3500 
L 3475 3500 
L 3475 806 
Q 3475 619 3529 530 
Q 3584 441 3700 441 
Q 3728 441 3778 458 
Q 3828 475 3916 513 
L 3916 50 
Q 3788 -22 3673 -56 
Q 3559 -91 3450 -91 
Q 3234 -91 3106 31 
Q 2978 153 2931 403 
Q 2775 156 2548 32 
Q 2322 -91 2016 -91 
Q 1697 -91 1473 31 
Q 1250 153 1119 397 
L 1119 -1331 
L 544 -1331 
z
" transform="scale(0.015625)"/>
      </defs>
      <use xlink:href="#DejaVuSans-3bc"/>
     </g>
    </g>
    <g id="line2d_34">
     <path d="M 193.889375 26.643594 
L 200.889375 26.643594 
L 207.889375 26.643594 
" style="fill: none; stroke: #333333; stroke-width: 1.5; stroke-linecap: square"/>
     <defs>
      <path id="m0465460ce4" d="M 0 3.5 
C 0.928211 3.5 1.81853 3.131218 2.474874 2.474874 
C 3.131218 1.81853 3.5 0.928211 3.5 0 
C 3.5 -0.928211 3.131218 -1.81853 2.474874 -2.474874 
C 1.81853 -3.131218 0.928211 -3.5 0 -3.5 
C -0.928211 -3.5 -1.81853 -3.131218 -2.474874 -2.474874 
C -3.131218 -1.81853 -3.5 -0.928211 -3.5 0 
C -3.5 0.928211 -3.131218 1.81853 -2.474874 2.474874 
C -1.81853 3.131218 -0.928211 3.5 0 3.5 
z
" style="stroke: #ffffff; stroke-width: 0.75"/>
     </defs>
     <g>
      <use xlink:href="#m0465460ce4" x="200.889375" y="26.643594" style="fill: #333333; stroke: #ffffff; stroke-width: 0.75"/>
     </g>
    </g>
    <g id="text_18">
     <!-- 0.0001 -->
     <g transform="translate(213.489375 29.093594) scale(0.07 -0.07)">
      <defs>
       <path id="DejaVuSans-2e" d="M 684 794 
L 1344 794 
L 1344 0 
L 684 0 
L 684 794 
z
" transform="scale(0.015625)"/>
      </defs>
      <use xlink:href="#DejaVuSans-30"/>
      <use xlink:href="#DejaVuSans-2e" x="63.623047"/>
      <use xlink:href="#DejaVuSans-30" x="95.410156"/>
      <use xlink:href="#DejaVuSans-30" x="159.033203"/>
      <use xlink:href="#DejaVuSans-30" x="222.65625"/>
      <use xlink:href="#DejaVuSans-31" x="286.279297"/>
     </g>
    </g>
    <g id="line2d_35">
     <path d="M 193.889375 36.918281 
L 200.889375 36.918281 
L 207.889375 36.918281 
" style="fill: none; stroke-dasharray: 6,2.25; stroke-dashoffset: 0; stroke: #333333; stroke-width: 1.5"/>
     <defs>
      <path id="m9de39b7a5c" d="M -1.75 3.5 
L 0 1.75 
L 1.75 3.5 
L 3.5 1.75 
L 1.75 0 
L 3.5 -1.75 
L 1.75 -3.5 
L 0 -1.75 
L -1.75 -3.5 
L -3.5 -1.75 
L -1.75 0 
L -3.5 1.75 
z
" style="stroke: #ffffff; stroke-width: 0.75; stroke-linejoin: miter"/>
     </defs>
     <g>
      <use xlink:href="#m9de39b7a5c" x="200.889375" y="36.918281" style="fill: #333333; stroke: #ffffff; stroke-width: 0.75; stroke-linejoin: miter"/>
     </g>
    </g>
    <g id="text_19">
     <!-- 0.01 -->
     <g transform="translate(213.489375 39.368281) scale(0.07 -0.07)">
      <use xlink:href="#DejaVuSans-30"/>
      <use xlink:href="#DejaVuSans-2e" x="63.623047"/>
      <use xlink:href="#DejaVuSans-30" x="95.410156"/>
      <use xlink:href="#DejaVuSans-31" x="159.033203"/>
     </g>
    </g>
    <g id="line2d_36">
     <path d="M 193.889375 47.192969 
L 200.889375 47.192969 
L 207.889375 47.192969 
" style="fill: none; stroke-dasharray: 1.5,1.5; stroke-dashoffset: 0; stroke: #333333; stroke-width: 1.5"/>
     <defs>
      <path id="mdb6f97938b" d="M -2.474874 -2.474874 
L -2.474874 2.474874 
L 2.474874 2.474874 
L 2.474874 -2.474874 
z
" style="stroke: #ffffff; stroke-width: 0.75; stroke-linejoin: miter"/>
     </defs>
     <g>
      <use xlink:href="#mdb6f97938b" x="200.889375" y="47.192969" style="fill: #333333; stroke: #ffffff; stroke-width: 0.75; stroke-linejoin: miter"/>
     </g>
    </g>
    <g id="text_20">
     <!-- 1.0 -->
     <g transform="translate(213.489375 49.642969) scale(0.07 -0.07)">
      <use xlink:href="#DejaVuSans-31"/>
      <use xlink:href="#DejaVuSans-2e" x="63.623047"/>
      <use xlink:href="#DejaVuSans-30" x="95.410156"/>
     </g>
    </g>
   </g>
  </g>
 </g>
 <defs>
  <clipPath id="pe23b7d2ecc">
   <rect x="48.982813" y="7.2" width="195.3" height="138.6"/>
  </clipPath>
 </defs>
</svg>
