<?xml version="1.0" encoding="utf-8" standalone="no"?>
<!DOCTYPE svg PUBLIC "-//W3C//DTD SVG 1.1//EN"
  "http://www.w3.org/Graphics/SVG/1.1/DTD/svg11.dtd">
<svg xmlns:xlink="http://www.w3.org/1999/xlink" width="236.740625pt" height="183.35625pt" viewBox="0 0 236.740625 183.35625" xmlns="http://www.w3.org/2000/svg" version="1.1">
 <metadata>
  <rdf:RDF xmlns:dc="http://purl.org/dc/elements/1.1/" xmlns:cc="http://creativecommons.org/ns#" xmlns:rdf="http://www.w3.org/1999/02/22-rdf-syntax-ns#">
   <cc:Work>
    <dc:type rdf:resource="http://purl.org/dc/dcmitype/StillImage"/>
    <dc:date>1980-01-01T00:00:00+00:00</dc:date>
    <dc:format>image/svg+xml</dc:format>
    <dc:creator>
     <cc:Agent>
      <dc:title>Matplotlib v3.7.5, https://matplotlib.org/</dc:title>
     </cc:Agent>
    </dc:creator>
   </cc:Work>
  </rdf:RDF>
 </metadata>
 <defs>
  <style type="text/css">*{stroke-linejoin: round; stroke-linecap: butt}</style>
 </defs>
 <g id="figure_1">
  <g id="patch_1">
   <path d="M 0 183.35625 
L 236.740625 183.35625 
L 236.740625 0 
L 0 0 
z
" style="fill: #ffffff"/>
  </g>
  <g id="axes_1">
   <g id="patch_2">
    <path d="M 34.240625 145.8 
L 229.540625 145.8 
L 229.540625 7.2 
L 34.240625 7.2 
z
" style="fill: #ffffff"/>
   </g>
   <g id="PolyCollection_1"/>
   <g id="PolyCollection_2"/>
   <g id="PolyCollection_3"/>
   <g id="PolyCollection_4"/>
   <g id="PolyCollection_5"/>
   <g id="PolyCollection_6"/>
   <g id="PolyCollection_7"/>
   <g id="PolyCollection_8"/>
   <g id="PolyCollection_9"/>
   <g id="PolyCollection_10"/>
   <g id="matplotlib.axis_1">
    <g id="xtick_1">
     <g id="line2d_1">
      <defs>
       <path id="m6b6df3472f" d="M 0 0 
L 0 3.5 
" style="stroke: #000000; stroke-width: 0.8"/>
      </defs>
      <g>
       <use xlink:href="#m6b6df3472f" x="39.082774" y="145.8" style="stroke: #000000; stroke-width: 0.8"/>
      </g>
     </g>
     <g id="text_1">
      <!-- 0 -->
      <g transform="translate(35.901524 160.398438) scale(0.1 -0.1)">
       <defs>
        <path id="DejaVuSans-30" d="M 2034 4250 
Q 1547 4250 1301 3770 
Q 1056 3291 1056 2328 
Q 1056 1369 1301 889 
Q 1547 409 2034 409 
Q 2525 409 2770 889 
Q 3016 1369 3016 2328 
Q 3016 3291 2770 3770 
Q 2525 4250 2034 4250 
z
M 2034 4750 
Q 2819 4750 3233 4129 
Q 3647 3509 3647 2328 
Q 3647 1150 3233 529 
Q 2819 -91 2034 -91 
Q 1250 -91 836 529 
Q 422 1150 422 2328 
Q 422 3509 836 4129 
Q 1250 4750 2034 4750 
z
" transform="scale(0.015625)"/>
       </defs>
       <use xlink:href="#DejaVuSans-30"/>
      </g>
     </g>
    </g>
    <g id="xtick_2">
     <g id="line2d_2">
      <g>
       <use xlink:href="#m6b6df3472f" x="79.434013" y="145.8" style="stroke: #000000; stroke-width: 0.8"/>
      </g>
     </g>
     <g id="text_2">
      <!-- 10 -->
      <g transform="translate(73.071513 160.398438) scale(0.1 -0.1)">
       <defs>
        <path id="DejaVuSans-31" d="M 794 531 
L 1825 531 
L 1825 4091 
L 703 3866 
L 703 4441 
L 1819 4666 
L 2450 4666 
L 2450 531 
L 3481 531 
L 3481 0 
L 794 0 
L 794 531 
z
" transform="scale(0.015625)"/>
       </defs>
       <use xlink:href="#DejaVuSans-31"/>
       <use xlink:href="#DejaVuSans-30" x="63.623047"/>
      </g>
     </g>
    </g>
    <g id="xtick_3">
     <g id="line2d_3">
      <g>
       <use xlink:href="#m6b6df3472f" x="119.785253" y="145.8" style="stroke: #000000; stroke-width: 0.8"/>
      </g>
     </g>
     <g id="text_3">
      <!-- 20 -->
      <g transform="translate(113.422753 160.398438) scale(0.1 -0.1)">
       <defs>
        <path id="DejaVuSans-32" d="M 1228 531 
L 3431 531 
L 3431 0 
L 469 0 
L 469 531 
Q 828 903 1448 1529 
Q 2069 2156 2228 2338 
Q 2531 2678 2651 2914 
Q 2772 3150 2772 3378 
Q 2772 3750 2511 3984 
Q 2250 4219 1831 4219 
Q 1534 4219 1204 4116 
Q 875 4013 500 3803 
L 500 4441 
Q 881 4594 1212 4672 
Q 1544 4750 1819 4750 
Q 2544 4750 2975 4387 
Q 3406 4025 3406 3419 
Q 3406 3131 3298 2873 
Q 3191 2616 2906 2266 
Q 2828 2175 2409 1742 
Q 1991 1309 1228 531 
z
" transform="scale(0.015625)"/>
       </defs>
       <use xlink:href="#DejaVuSans-32"/>
       <use xlink:href="#DejaVuSans-30" x="63.623047"/>
      </g>
     </g>
    </g>
    <g id="xtick_4">
     <g id="line2d_4">
      <g>
       <use xlink:href="#m6b6df3472f" x="160.136493" y="145.8" style="stroke: #000000; stroke-width: 0.8"/>
      </g>
     </g>
     <g id="text_4">
      <!-- 30 -->
      <g transform="translate(153.773993 160.398438) scale(0.1 -0.1)">
       <defs>
        <path id="DejaVuSans-33" d="M 2597 2516 
Q 3050 2419 3304 2112 
Q 3559 1806 3559 1356 
Q 3559 666 3084 287 
Q 2609 -91 1734 -91 
Q 1441 -91 1130 -33 
Q 819 25 488 141 
L 488 750 
Q 750 597 1062 519 
Q 1375 441 1716 441 
Q 2309 441 2620 675 
Q 2931 909 2931 1356 
Q 2931 1769 2642 2001 
Q 2353 2234 1838 2234 
L 1294 2234 
L 1294 2753 
L 1863 2753 
Q 2328 2753 2575 2939 
Q 2822 3125 2822 3475 
Q 2822 3834 2567 4026 
Q 2313 4219 1838 4219 
Q 1578 4219 1281 4162 
Q 984 4106 628 3988 
L 628 4550 
Q 988 4650 1302 4700 
Q 1616 4750 1894 4750 
Q 2613 4750 3031 4423 
Q 3450 4097 3450 3541 
Q 3450 3153 3228 2886 
Q 3006 2619 2597 2516 
z
" transform="scale(0.015625)"/>
       </defs>
       <use xlink:href="#DejaVuSans-33"/>
       <use xlink:href="#DejaVuSans-30" x="63.623047"/>
      </g>
     </g>
    </g>
    <g id="xtick_5">
     <g id="line2d_5">
      <g>
       <use xlink:href="#m6b6df3472f" x="200.487732" y="145.8" style="stroke: #000000; stroke-width: 0.8"/>
      </g>
     </g>
     <g id="text_5">
      <!-- 40 -->
      <g transform="translate(194.125232 160.398438) scale(0.1 -0.1)">
       <defs>
        <path id="DejaVuSans-34" d="M 2419 4116 
L 825 1625 
L 2419 1625 
L 2419 4116 
z
M 2253 4666 
L 3047 4666 
L 3047 1625 
L 3713 1625 
L 3713 1100 
L 3047 1100 
L 3047 0 
L 2419 0 
L 2419 1100 
L 313 1100 
L 313 1709 
L 2253 4666 
z
" transform="scale(0.015625)"/>
       </defs>
       <use xlink:href="#DejaVuSans-34"/>
       <use xlink:href="#DejaVuSans-30" x="63.623047"/>
      </g>
     </g>
    </g>
    <g id="text_6">
     <!-- Sample Size -->
     <g transform="translate(101.289062 174.076563) scale(0.1 -0.1)">
      <defs>
       <path id="DejaVuSans-53" d="M 3425 4513 
L 3425 3897 
Q 3066 4069 2747 4153 
Q 2428 4238 2131 4238 
Q 1616 4238 1336 4038 
Q 1056 3838 1056 3469 
Q 1056 3159 1242 3001 
Q 1428 2844 1947 2747 
L 2328 2669 
Q 3034 2534 3370 2195 
Q 3706 1856 3706 1288 
Q 3706 609 3251 259 
Q 2797 -91 1919 -91 
Q 1588 -91 1214 -16 
Q 841 59 441 206 
L 441 856 
Q 825 641 1194 531 
Q 1563 422 1919 422 
Q 2459 422 2753 634 
Q 3047 847 3047 1241 
Q 3047 1584 2836 1778 
Q 2625 1972 2144 2069 
L 1759 2144 
Q 1053 2284 737 2584 
Q 422 2884 422 3419 
Q 422 4038 858 4394 
Q 1294 4750 2059 4750 
Q 2388 4750 2728 4690 
Q 3069 4631 3425 4513 
z
" transform="scale(0.015625)"/>
       <path id="DejaVuSans-61" d="M 2194 1759 
Q 1497 1759 1228 1600 
Q 959 1441 959 1056 
Q 959 750 1161 570 
Q 1363 391 1709 391 
Q 2188 391 2477 730 
Q 2766 1069 2766 1631 
L 2766 1759 
L 2194 1759 
z
M 3341 1997 
L 3341 0 
L 2766 0 
L 2766 531 
Q 2569 213 2275 61 
Q 1981 -91 1556 -91 
Q 1019 -91 701 211 
Q 384 513 384 1019 
Q 384 1609 779 1909 
Q 1175 2209 1959 2209 
L 2766 2209 
L 2766 2266 
Q 2766 2663 2505 2880 
Q 2244 3097 1772 3097 
Q 1472 3097 1187 3025 
Q 903 2953 641 2809 
L 641 3341 
Q 956 3463 1253 3523 
Q 1550 3584 1831 3584 
Q 2591 3584 2966 3190 
Q 3341 2797 3341 1997 
z
" transform="scale(0.015625)"/>
       <path id="DejaVuSans-6d" d="M 3328 2828 
Q 3544 3216 3844 3400 
Q 4144 3584 4550 3584 
Q 5097 3584 5394 3201 
Q 5691 2819 5691 2113 
L 5691 0 
L 5113 0 
L 5113 2094 
Q 5113 2597 4934 2840 
Q 4756 3084 4391 3084 
Q 3944 3084 3684 2787 
Q 3425 2491 3425 1978 
L 3425 0 
L 2847 0 
L 2847 2094 
Q 2847 2600 2669 2842 
Q 2491 3084 2119 3084 
Q 1678 3084 1418 2786 
Q 1159 2488 1159 1978 
L 1159 0 
L 581 0 
L 581 3500 
L 1159 3500 
L 1159 2956 
Q 1356 3278 1631 3431 
Q 1906 3584 2284 3584 
Q 2666 3584 2933 3390 
Q 3200 3197 3328 2828 
z
" transform="scale(0.015625)"/>
       <path id="DejaVuSans-70" d="M 1159 525 
L 1159 -1331 
L 581 -1331 
L 581 3500 
L 1159 3500 
L 1159 2969 
Q 1341 3281 1617 3432 
Q 1894 3584 2278 3584 
Q 2916 3584 3314 3078 
Q 3713 2572 3713 1747 
Q 3713 922 3314 415 
Q 2916 -91 2278 -91 
Q 1894 -91 1617 61 
Q 1341 213 1159 525 
z
M 3116 1747 
Q 3116 2381 2855 2742 
Q 2594 3103 2138 3103 
Q 1681 3103 1420 2742 
Q 1159 2381 1159 1747 
Q 1159 1113 1420 752 
Q 1681 391 2138 391 
Q 2594 391 2855 752 
Q 3116 1113 3116 1747 
z
" transform="scale(0.015625)"/>
       <path id="DejaVuSans-6c" d="M 603 4863 
L 1178 4863 
L 1178 0 
L 603 0 
L 603 4863 
z
" transform="scale(0.015625)"/>
       <path id="DejaVuSans-65" d="M 3597 1894 
L 3597 1613 
L 953 1613 
Q 991 1019 1311 708 
Q 1631 397 2203 397 
Q 2534 397 2845 478 
Q 3156 559 3463 722 
L 3463 178 
Q 3153 47 2828 -22 
Q 2503 -91 2169 -91 
Q 1331 -91 842 396 
Q 353 884 353 1716 
Q 353 2575 817 3079 
Q 1281 3584 2069 3584 
Q 2775 3584 3186 3129 
Q 3597 2675 3597 1894 
z
M 3022 2063 
Q 3016 2534 2758 2815 
Q 2500 3097 2075 3097 
Q 1594 3097 1305 2825 
Q 1016 2553 972 2059 
L 3022 2063 
z
" transform="scale(0.015625)"/>
       <path id="DejaVuSans-20" transform="scale(0.015625)"/>
       <path id="DejaVuSans-69" d="M 603 3500 
L 1178 3500 
L 1178 0 
L 603 0 
L 603 3500 
z
M 603 4863 
L 1178 4863 
L 1178 4134 
L 603 4134 
L 603 4863 
z
" transform="scale(0.015625)"/>
       <path id="DejaVuSans-7a" d="M 353 3500 
L 3084 3500 
L 3084 2975 
L 922 459 
L 3084 459 
L 3084 0 
L 275 0 
L 275 525 
L 2438 3041 
L 353 3041 
L 353 3500 
z
" transform="scale(0.015625)"/>
      </defs>
      <use xlink:href="#DejaVuSans-53"/>
      <use xlink:href="#DejaVuSans-61" x="63.476562"/>
      <use xlink:href="#DejaVuSans-6d" x="124.755859"/>
      <use xlink:href="#DejaVuSans-70" x="222.167969"/>
      <use xlink:href="#DejaVuSans-6c" x="285.644531"/>
      <use xlink:href="#DejaVuSans-65" x="313.427734"/>
      <use xlink:href="#DejaVuSans-20" x="374.951172"/>
      <use xlink:href="#DejaVuSans-53" x="406.738281"/>
      <use xlink:href="#DejaVuSans-69" x="470.214844"/>
      <use xlink:href="#DejaVuSans-7a" x="497.998047"/>
      <use xlink:href="#DejaVuSans-65" x="550.488281"/>
     </g>
    </g>
   </g>
   <g id="matplotlib.axis_2">
    <g id="ytick_1">
     <g id="line2d_6">
      <defs>
       <path id="mdf22631fa7" d="M 0 0 
L -3.5 0 
" style="stroke: #000000; stroke-width: 0.8"/>
      </defs>
      <g>
       <use xlink:href="#mdf22631fa7" x="34.240625" y="116.98652" style="stroke: #000000; stroke-width: 0.8"/>
      </g>
     </g>
     <g id="text_7">
      <!-- 2 -->
      <g transform="translate(20.878125 120.785739) scale(0.1 -0.1)">
       <use xlink:href="#DejaVuSans-32"/>
      </g>
     </g>
    </g>
    <g id="ytick_2">
     <g id="line2d_7">
      <g>
       <use xlink:href="#mdf22631fa7" x="34.240625" y="77.200614" style="stroke: #000000; stroke-width: 0.8"/>
      </g>
     </g>
     <g id="text_8">
      <!-- 4 -->
      <g transform="translate(20.878125 80.999833) scale(0.1 -0.1)">
       <use xlink:href="#DejaVuSans-34"/>
      </g>
     </g>
    </g>
    <g id="ytick_3">
     <g id="line2d_8">
      <g>
       <use xlink:href="#mdf22631fa7" x="34.240625" y="37.414707" style="stroke: #000000; stroke-width: 0.8"/>
      </g>
     </g>
     <g id="text_9">
      <!-- 6 -->
      <g transform="translate(20.878125 41.213926) scale(0.1 -0.1)">
       <defs>
        <path id="DejaVuSans-36" d="M 2113 2584 
Q 1688 2584 1439 2293 
Q 1191 2003 1191 1497 
Q 1191 994 1439 701 
Q 1688 409 2113 409 
Q 2538 409 2786 701 
Q 3034 994 3034 1497 
Q 3034 2003 2786 2293 
Q 2538 2584 2113 2584 
z
M 3366 4563 
L 3366 3988 
Q 3128 4100 2886 4159 
Q 2644 4219 2406 4219 
Q 1781 4219 1451 3797 
Q 1122 3375 1075 2522 
Q 1259 2794 1537 2939 
Q 1816 3084 2150 3084 
Q 2853 3084 3261 2657 
Q 3669 2231 3669 1497 
Q 3669 778 3244 343 
Q 2819 -91 2113 -91 
Q 1303 -91 875 529 
Q 447 1150 447 2328 
Q 447 3434 972 4092 
Q 1497 4750 2381 4750 
Q 2619 4750 2861 4703 
Q 3103 4656 3366 4563 
z
" transform="scale(0.015625)"/>
       </defs>
       <use xlink:href="#DejaVuSans-36"/>
      </g>
     </g>
    </g>
    <g id="text_10">
     <!-- log MSE -->
     <g transform="translate(14.798438 96.359375) rotate(-90) scale(0.1 -0.1)">
      <defs>
       <path id="DejaVuSans-6f" d="M 1959 3097 
Q 1497 3097 1228 2736 
Q 959 2375 959 1747 
Q 959 1119 1226 758 
Q 1494 397 1959 397 
Q 2419 397 2687 759 
Q 2956 1122 2956 1747 
Q 2956 2369 2687 2733 
Q 2419 3097 1959 3097 
z
M 1959 3584 
Q 2709 3584 3137 3096 
Q 3566 2609 3566 1747 
Q 3566 888 3137 398 
Q 2709 -91 1959 -91 
Q 1206 -91 779 398 
Q 353 888 353 1747 
Q 353 2609 779 3096 
Q 1206 3584 1959 3584 
z
" transform="scale(0.015625)"/>
       <path id="DejaVuSans-67" d="M 2906 1791 
Q 2906 2416 2648 2759 
Q 2391 3103 1925 3103 
Q 1463 3103 1205 2759 
Q 947 2416 947 1791 
Q 947 1169 1205 825 
Q 1463 481 1925 481 
Q 2391 481 2648 825 
Q 2906 1169 2906 1791 
z
M 3481 434 
Q 3481 -459 3084 -895 
Q 2688 -1331 1869 -1331 
Q 1566 -1331 1297 -1286 
Q 1028 -1241 775 -1147 
L 775 -588 
Q 1028 -725 1275 -790 
Q 1522 -856 1778 -856 
Q 2344 -856 2625 -561 
Q 2906 -266 2906 331 
L 2906 616 
Q 2728 306 2450 153 
Q 2172 0 1784 0 
Q 1141 0 747 490 
Q 353 981 353 1791 
Q 353 2603 747 3093 
Q 1141 3584 1784 3584 
Q 2172 3584 2450 3431 
Q 2728 3278 2906 2969 
L 2906 3500 
L 3481 3500 
L 3481 434 
z
" transform="scale(0.015625)"/>
       <path id="DejaVuSans-4d" d="M 628 4666 
L 1569 4666 
L 2759 1491 
L 3956 4666 
L 4897 4666 
L 4897 0 
L 4281 0 
L 4281 4097 
L 3078 897 
L 2444 897 
L 1241 4097 
L 1241 0 
L 628 0 
L 628 4666 
z
" transform="scale(0.015625)"/>
       <path id="DejaVuSans-45" d="M 628 4666 
L 3578 4666 
L 3578 4134 
L 1259 4134 
L 1259 2753 
L 3481 2753 
L 3481 2222 
L 1259 2222 
L 1259 531 
L 3634 531 
L 3634 0 
L 628 0 
L 628 4666 
z
" transform="scale(0.015625)"/>
      </defs>
      <use xlink:href="#DejaVuSans-6c"/>
      <use xlink:href="#DejaVuSans-6f" x="27.783203"/>
      <use xlink:href="#DejaVuSans-67" x="88.964844"/>
      <use xlink:href="#DejaVuSans-20" x="152.441406"/>
      <use xlink:href="#DejaVuSans-4d" x="184.228516"/>
      <use xlink:href="#DejaVuSans-53" x="270.507812"/>
      <use xlink:href="#DejaVuSans-45" x="333.984375"/>
     </g>
    </g>
   </g>
   <g id="line2d_9">
    <path d="M 43.117898 102.170901 
L 47.153022 111.850545 
L 51.188146 118.730969 
L 55.22327 116.605997 
L 59.258394 116.779002 
L 63.293518 115.639722 
L 67.328642 114.255654 
L 71.363765 113.162048 
L 75.398889 112.081902 
L 79.434013 112.846383 
L 83.469137 113.635009 
L 87.504261 113.715092 
L 91.539385 113.546679 
L 95.574509 113.073579 
L 99.609633 113.388201 
L 103.644757 113.083895 
L 107.679881 113.002825 
L 111.715005 112.961254 
L 115.750129 111.840974 
L 119.785253 111.33329 
L 123.820377 111.195776 
L 127.855501 110.698597 
L 131.890625 110.463594 
L 135.925749 110.435744 
L 139.960873 109.736368 
L 143.995997 109.080821 
L 148.031121 108.771625 
L 152.066245 108.262826 
L 156.101369 108.016691 
L 160.136493 107.336002 
L 164.171617 107.298847 
L 168.206741 106.547356 
L 172.241865 106.297446 
L 176.276989 105.993842 
L 180.312113 105.566474 
L 184.347237 105.092079 
L 188.382361 104.454792 
L 192.417485 104.371826 
L 196.452608 103.837202 
L 200.487732 103.535609 
L 204.522856 103.223226 
L 208.55798 102.783241 
L 212.593104 102.50486 
L 216.628228 102.19021 
L 220.663352 101.444691 
" clip-path="url(#pbdc5311137)" style="fill: none; stroke: #4c72b0; stroke-width: 1.5; stroke-linecap: square"/>
    <defs>
     <path id="m4682f91f5c" d="M 0 3.5 
C 0.928211 3.5 1.81853 3.131218 2.474874 2.474874 
C 3.131218 1.81853 3.5 0.928211 3.5 0 
C 3.5 -0.928211 3.131218 -1.81853 2.474874 -2.474874 
C 1.81853 -3.131218 0.928211 -3.5 0 -3.5 
C -0.928211 -3.5 -1.81853 -3.131218 -2.474874 -2.474874 
C -3.131218 -1.81853 -3.5 -0.928211 -3.5 0 
C -3.5 0.928211 -3.131218 1.81853 -2.474874 2.474874 
C -1.81853 3.131218 -0.928211 3.5 0 3.5 
z
" style="stroke: #ffffff; stroke-width: 0.75"/>
    </defs>
    <g clip-path="url(#pbdc5311137)">
     <use xlink:href="#m4682f91f5c" x="43.117898" y="102.170901" style="fill: #4c72b0; stroke: #ffffff; stroke-width: 0.75"/>
     <use xlink:href="#m4682f91f5c" x="59.258394" y="116.779002" style="fill: #4c72b0; stroke: #ffffff; stroke-width: 0.75"/>
     <use xlink:href="#m4682f91f5c" x="75.398889" y="112.081902" style="fill: #4c72b0; stroke: #ffffff; stroke-width: 0.75"/>
     <use xlink:href="#m4682f91f5c" x="91.539385" y="113.546679" style="fill: #4c72b0; stroke: #ffffff; stroke-width: 0.75"/>
     <use xlink:href="#m4682f91f5c" x="107.679881" y="113.002825" style="fill: #4c72b0; stroke: #ffffff; stroke-width: 0.75"/>
     <use xlink:href="#m4682f91f5c" x="123.820377" y="111.195776" style="fill: #4c72b0; stroke: #ffffff; stroke-width: 0.75"/>
     <use xlink:href="#m4682f91f5c" x="139.960873" y="109.736368" style="fill: #4c72b0; stroke: #ffffff; stroke-width: 0.75"/>
     <use xlink:href="#m4682f91f5c" x="156.101369" y="108.016691" style="fill: #4c72b0; stroke: #ffffff; stroke-width: 0.75"/>
     <use xlink:href="#m4682f91f5c" x="172.241865" y="106.297446" style="fill: #4c72b0; stroke: #ffffff; stroke-width: 0.75"/>
     <use xlink:href="#m4682f91f5c" x="188.382361" y="104.454792" style="fill: #4c72b0; stroke: #ffffff; stroke-width: 0.75"/>
     <use xlink:href="#m4682f91f5c" x="204.522856" y="103.223226" style="fill: #4c72b0; stroke: #ffffff; stroke-width: 0.75"/>
     <use xlink:href="#m4682f91f5c" x="220.663352" y="101.444691" style="fill: #4c72b0; stroke: #ffffff; stroke-width: 0.75"/>
    </g>
   </g>
   <g id="line2d_10">
    <path d="M 43.117898 101.615528 
L 47.153022 112.143378 
L 51.188146 117.697737 
L 55.22327 116.25256 
L 59.258394 117.872677 
L 63.293518 117.244263 
L 67.328642 115.400981 
L 71.363765 113.551061 
L 75.398889 112.754144 
L 79.434013 113.607449 
L 83.469137 113.675091 
L 87.504261 113.894258 
L 91.539385 114.664445 
L 95.574509 114.205973 
L 99.609633 113.623385 
L 103.644757 112.927969 
L 107.679881 113.228718 
L 111.715005 113.3611 
L 115.750129 113.089297 
L 119.785253 112.563818 
L 123.820377 112.471603 
L 127.855501 111.857612 
L 131.890625 111.313721 
L 135.925749 110.660009 
L 139.960873 111.142561 
L 143.995997 110.253799 
L 148.031121 109.634046 
L 152.066245 109.326572 
L 156.101369 108.911084 
L 160.136493 108.365376 
L 164.171617 108.105909 
L 168.206741 107.656956 
L 172.241865 107.547709 
L 176.276989 107.133767 
L 180.312113 106.462787 
L 184.347237 106.071151 
L 188.382361 105.574394 
L 192.417485 105.702423 
L 196.452608 105.03582 
L 200.487732 104.827751 
L 204.522856 104.247425 
L 208.55798 104.137197 
L 212.593104 103.666976 
L 216.628228 103.433865 
L 220.663352 102.817115 
" clip-path="url(#pbdc5311137)" style="fill: none; stroke-dasharray: 6,2.25; stroke-dashoffset: 0; stroke: #4c72b0; stroke-width: 1.5"/>
    <defs>
     <path id="m56cc5ca2f5" d="M -1.75 3.5 
L 0 1.75 
L 1.75 3.5 
L 3.5 1.75 
L 1.75 0 
L 3.5 -1.75 
L 1.75 -3.5 
L 0 -1.75 
L -1.75 -3.5 
L -3.5 -1.75 
L -1.75 0 
L -3.5 1.75 
z
" style="stroke: #ffffff; stroke-width: 0.75; stroke-linejoin: miter"/>
    </defs>
    <g clip-path="url(#pbdc5311137)">
     <use xlink:href="#m56cc5ca2f5" x="43.117898" y="101.615528" style="fill: #4c72b0; stroke: #ffffff; stroke-width: 0.75; stroke-linejoin: miter"/>
     <use xlink:href="#m56cc5ca2f5" x="59.258394" y="117.872677" style="fill: #4c72b0; stroke: #ffffff; stroke-width: 0.75; stroke-linejoin: miter"/>
     <use xlink:href="#m56cc5ca2f5" x="75.398889" y="112.754144" style="fill: #4c72b0; stroke: #ffffff; stroke-width: 0.75; stroke-linejoin: miter"/>
     <use xlink:href="#m56cc5ca2f5" x="91.539385" y="114.664445" style="fill: #4c72b0; stroke: #ffffff; stroke-width: 0.75; stroke-linejoin: miter"/>
     <use xlink:href="#m56cc5ca2f5" x="107.679881" y="113.228718" style="fill: #4c72b0; stroke: #ffffff; stroke-width: 0.75; stroke-linejoin: miter"/>
     <use xlink:href="#m56cc5ca2f5" x="123.820377" y="112.471603" style="fill: #4c72b0; stroke: #ffffff; stroke-width: 0.75; stroke-linejoin: miter"/>
     <use xlink:href="#m56cc5ca2f5" x="139.960873" y="111.142561" style="fill: #4c72b0; stroke: #ffffff; stroke-width: 0.75; stroke-linejoin: miter"/>
     <use xlink:href="#m56cc5ca2f5" x="156.101369" y="108.911084" style="fill: #4c72b0; stroke: #ffffff; stroke-width: 0.75; stroke-linejoin: miter"/>
     <use xlink:href="#m56cc5ca2f5" x="172.241865" y="107.547709" style="fill: #4c72b0; stroke: #ffffff; stroke-width: 0.75; stroke-linejoin: miter"/>
     <use xlink:href="#m56cc5ca2f5" x="188.382361" y="105.574394" style="fill: #4c72b0; stroke: #ffffff; stroke-width: 0.75; stroke-linejoin: miter"/>
     <use xlink:href="#m56cc5ca2f5" x="204.522856" y="104.247425" style="fill: #4c72b0; stroke: #ffffff; stroke-width: 0.75; stroke-linejoin: miter"/>
     <use xlink:href="#m56cc5ca2f5" x="220.663352" y="102.817115" style="fill: #4c72b0; stroke: #ffffff; stroke-width: 0.75; stroke-linejoin: miter"/>
    </g>
   </g>
   <g id="line2d_11">
    <path d="M 43.117898 101.239036 
L 47.153022 111.974742 
L 51.188146 119.488179 
L 55.22327 124.202126 
L 59.258394 125.79265 
L 63.293518 124.351789 
L 67.328642 127.509694 
L 71.363765 128.177461 
L 75.398889 129.407301 
L 79.434013 129.584987 
L 83.469137 130.191633 
L 87.504261 131.298973 
L 91.539385 131.589762 
L 95.574509 132.455422 
L 99.609633 133.017148 
L 103.644757 132.655779 
L 107.679881 134.001529 
L 111.715005 133.763137 
L 115.750129 134.148965 
L 119.785253 133.936991 
L 123.820377 134.813567 
L 127.855501 135.308379 
L 131.890625 135.773424 
L 135.925749 135.76318 
L 139.960873 136.375567 
L 143.995997 136.974923 
L 148.031121 136.618254 
L 152.066245 137.338756 
L 156.101369 137.517144 
L 160.136493 137.929878 
L 164.171617 137.968492 
L 168.206741 137.93281 
L 172.241865 138.060314 
L 176.276989 138.596789 
L 180.312113 138.911123 
L 184.347237 138.465095 
L 188.382361 139.074726 
L 192.417485 138.936239 
L 196.452608 138.628384 
L 200.487732 138.941154 
L 204.522856 139.5 
L 208.55798 139.462992 
L 212.593104 139.087272 
L 216.628228 138.779892 
L 220.663352 139.338933 
" clip-path="url(#pbdc5311137)" style="fill: none; stroke-dasharray: 1.5,1.5; stroke-dashoffset: 0; stroke: #4c72b0; stroke-width: 1.5"/>
    <defs>
     <path id="madd90b6b78" d="M -2.474874 -2.474874 
L -2.474874 2.474874 
L 2.474874 2.474874 
L 2.474874 -2.474874 
z
" style="stroke: #ffffff; stroke-width: 0.75; stroke-linejoin: miter"/>
    </defs>
    <g clip-path="url(#pbdc5311137)">
     <use xlink:href="#madd90b6b78" x="43.117898" y="101.239036" style="fill: #4c72b0; stroke: #ffffff; stroke-width: 0.75; stroke-linejoin: miter"/>
     <use xlink:href="#madd90b6b78" x="59.258394" y="125.79265" style="fill: #4c72b0; stroke: #ffffff; stroke-width: 0.75; stroke-linejoin: miter"/>
     <use xlink:href="#madd90b6b78" x="75.398889" y="129.407301" style="fill: #4c72b0; stroke: #ffffff; stroke-width: 0.75; stroke-linejoin: miter"/>
     <use xlink:href="#madd90b6b78" x="91.539385" y="131.589762" style="fill: #4c72b0; stroke: #ffffff; stroke-width: 0.75; stroke-linejoin: miter"/>
     <use xlink:href="#madd90b6b78" x="107.679881" y="134.001529" style="fill: #4c72b0; stroke: #ffffff; stroke-width: 0.75; stroke-linejoin: miter"/>
     <use xlink:href="#madd90b6b78" x="123.820377" y="134.813567" style="fill: #4c72b0; stroke: #ffffff; stroke-width: 0.75; stroke-linejoin: miter"/>
     <use xlink:href="#madd90b6b78" x="139.960873" y="136.375567" style="fill: #4c72b0; stroke: #ffffff; stroke-width: 0.75; stroke-linejoin: miter"/>
     <use xlink:href="#madd90b6b78" x="156.101369" y="137.517144" style="fill: #4c72b0; stroke: #ffffff; stroke-width: 0.75; stroke-linejoin: miter"/>
     <use xlink:href="#madd90b6b78" x="172.241865" y="138.060314" style="fill: #4c72b0; stroke: #ffffff; stroke-width: 0.75; stroke-linejoin: miter"/>
     <use xlink:href="#madd90b6b78" x="188.382361" y="139.074726" style="fill: #4c72b0; stroke: #ffffff; stroke-width: 0.75; stroke-linejoin: miter"/>
     <use xlink:href="#madd90b6b78" x="204.522856" y="139.5" style="fill: #4c72b0; stroke: #ffffff; stroke-width: 0.75; stroke-linejoin: miter"/>
     <use xlink:href="#madd90b6b78" x="220.663352" y="139.338933" style="fill: #4c72b0; stroke: #ffffff; stroke-width: 0.75; stroke-linejoin: miter"/>
    </g>
   </g>
   <g id="line2d_12">
    <path d="M 43.117898 101.64324 
L 47.153022 112.386649 
L 51.188146 110.217364 
L 55.22327 110.289176 
L 59.258394 109.76261 
L 63.293518 110.823453 
L 67.328642 111.495301 
L 71.363765 110.983842 
L 75.398889 110.820498 
L 79.434013 110.895378 
L 83.469137 110.974105 
L 87.504261 110.387329 
L 91.539385 110.145107 
L 95.574509 109.683068 
L 99.609633 109.539876 
L 103.644757 109.271773 
L 107.679881 110.289436 
L 111.715005 109.899574 
L 115.750129 109.917004 
L 119.785253 110.421373 
L 123.820377 109.747262 
L 127.855501 109.28142 
L 131.890625 109.129022 
L 135.925749 108.904425 
L 139.960873 108.419658 
L 143.995997 107.755398 
L 148.031121 108.024526 
L 152.066245 107.254036 
L 156.101369 107.207803 
L 160.136493 106.482062 
L 164.171617 106.724317 
L 168.206741 105.946807 
L 172.241865 105.815668 
L 176.276989 106.047863 
L 180.312113 105.108001 
L 184.347237 104.839504 
L 188.382361 104.579785 
L 192.417485 104.033551 
L 196.452608 103.639236 
L 200.487732 103.447667 
L 204.522856 102.87068 
L 208.55798 102.707346 
L 212.593104 102.375902 
L 216.628228 101.81035 
L 220.663352 101.750675 
" clip-path="url(#pbdc5311137)" style="fill: none; stroke: #dd8452; stroke-width: 1.5; stroke-linecap: square"/>
    <defs>
     <path id="m345063823f" d="M 0 3.5 
C 0.928211 3.5 1.81853 3.131218 2.474874 2.474874 
C 3.131218 1.81853 3.5 0.928211 3.5 0 
C 3.5 -0.928211 3.131218 -1.81853 2.474874 -2.474874 
C 1.81853 -3.131218 0.928211 -3.5 0 -3.5 
C -0.928211 -3.5 -1.81853 -3.131218 -2.474874 -2.474874 
C -3.131218 -1.81853 -3.5 -0.928211 -3.5 0 
C -3.5 0.928211 -3.131218 1.81853 -2.474874 2.474874 
C -1.81853 3.131218 -0.928211 3.5 0 3.5 
z
" style="stroke: #ffffff; stroke-width: 0.75"/>
    </defs>
    <g clip-path="url(#pbdc5311137)">
     <use xlink:href="#m345063823f" x="43.117898" y="101.64324" style="fill: #dd8452; stroke: #ffffff; stroke-width: 0.75"/>
     <use xlink:href="#m345063823f" x="59.258394" y="109.76261" style="fill: #dd8452; stroke: #ffffff; stroke-width: 0.75"/>
     <use xlink:href="#m345063823f" x="75.398889" y="110.820498" style="fill: #dd8452; stroke: #ffffff; stroke-width: 0.75"/>
     <use xlink:href="#m345063823f" x="91.539385" y="110.145107" style="fill: #dd8452; stroke: #ffffff; stroke-width: 0.75"/>
     <use xlink:href="#m345063823f" x="107.679881" y="110.289436" style="fill: #dd8452; stroke: #ffffff; stroke-width: 0.75"/>
     <use xlink:href="#m345063823f" x="123.820377" y="109.747262" style="fill: #dd8452; stroke: #ffffff; stroke-width: 0.75"/>
     <use xlink:href="#m345063823f" x="139.960873" y="108.419658" style="fill: #dd8452; stroke: #ffffff; stroke-width: 0.75"/>
     <use xlink:href="#m345063823f" x="156.101369" y="107.207803" style="fill: #dd8452; stroke: #ffffff; stroke-width: 0.75"/>
     <use xlink:href="#m345063823f" x="172.241865" y="105.815668" style="fill: #dd8452; stroke: #ffffff; stroke-width: 0.75"/>
     <use xlink:href="#m345063823f" x="188.382361" y="104.579785" style="fill: #dd8452; stroke: #ffffff; stroke-width: 0.75"/>
     <use xlink:href="#m345063823f" x="204.522856" y="102.87068" style="fill: #dd8452; stroke: #ffffff; stroke-width: 0.75"/>
     <use xlink:href="#m345063823f" x="220.663352" y="101.750675" style="fill: #dd8452; stroke: #ffffff; stroke-width: 0.75"/>
    </g>
   </g>
   <g id="line2d_13">
    <path d="M 43.117898 101.770244 
L 47.153022 112.856727 
L 51.188146 111.90285 
L 55.22327 110.082833 
L 59.258394 109.620272 
L 63.293518 109.586883 
L 67.328642 109.969085 
L 71.363765 110.929683 
L 75.398889 111.000209 
L 79.434013 110.422203 
L 83.469137 111.899999 
L 87.504261 111.299004 
L 91.539385 112.056143 
L 95.574509 111.217285 
L 99.609633 111.051375 
L 103.644757 110.736716 
L 107.679881 110.808854 
L 111.715005 110.409089 
L 115.750129 109.972173 
L 119.785253 109.658742 
L 123.820377 109.3966 
L 127.855501 109.708276 
L 131.890625 109.522337 
L 135.925749 109.566484 
L 139.960873 109.697946 
L 143.995997 109.183579 
L 148.031121 108.963895 
L 152.066245 108.923719 
L 156.101369 108.14526 
L 160.136493 107.839721 
L 164.171617 107.797889 
L 168.206741 107.151856 
L 172.241865 106.883003 
L 176.276989 106.776711 
L 180.312113 106.153923 
L 184.347237 105.728375 
L 188.382361 105.539624 
L 192.417485 105.354904 
L 196.452608 104.852594 
L 200.487732 104.600056 
L 204.522856 104.46617 
L 208.55798 104.058394 
L 212.593104 103.703017 
L 216.628228 103.54002 
L 220.663352 103.104071 
" clip-path="url(#pbdc5311137)" style="fill: none; stroke-dasharray: 6,2.25; stroke-dashoffset: 0; stroke: #dd8452; stroke-width: 1.5"/>
    <defs>
     <path id="m6b4d324a63" d="M -1.75 3.5 
L 0 1.75 
L 1.75 3.5 
L 3.5 1.75 
L 1.75 0 
L 3.5 -1.75 
L 1.75 -3.5 
L 0 -1.75 
L -1.75 -3.5 
L -3.5 -1.75 
L -1.75 0 
L -3.5 1.75 
z
" style="stroke: #ffffff; stroke-width: 0.75; stroke-linejoin: miter"/>
    </defs>
    <g clip-path="url(#pbdc5311137)">
     <use xlink:href="#m6b4d324a63" x="43.117898" y="101.770244" style="fill: #dd8452; stroke: #ffffff; stroke-width: 0.75; stroke-linejoin: miter"/>
     <use xlink:href="#m6b4d324a63" x="59.258394" y="109.620272" style="fill: #dd8452; stroke: #ffffff; stroke-width: 0.75; stroke-linejoin: miter"/>
     <use xlink:href="#m6b4d324a63" x="75.398889" y="111.000209" style="fill: #dd8452; stroke: #ffffff; stroke-width: 0.75; stroke-linejoin: miter"/>
     <use xlink:href="#m6b4d324a63" x="91.539385" y="112.056143" style="fill: #dd8452; stroke: #ffffff; stroke-width: 0.75; stroke-linejoin: miter"/>
     <use xlink:href="#m6b4d324a63" x="107.679881" y="110.808854" style="fill: #dd8452; stroke: #ffffff; stroke-width: 0.75; stroke-linejoin: miter"/>
     <use xlink:href="#m6b4d324a63" x="123.820377" y="109.3966" style="fill: #dd8452; stroke: #ffffff; stroke-width: 0.75; stroke-linejoin: miter"/>
     <use xlink:href="#m6b4d324a63" x="139.960873" y="109.697946" style="fill: #dd8452; stroke: #ffffff; stroke-width: 0.75; stroke-linejoin: miter"/>
     <use xlink:href="#m6b4d324a63" x="156.101369" y="108.14526" style="fill: #dd8452; stroke: #ffffff; stroke-width: 0.75; stroke-linejoin: miter"/>
     <use xlink:href="#m6b4d324a63" x="172.241865" y="106.883003" style="fill: #dd8452; stroke: #ffffff; stroke-width: 0.75; stroke-linejoin: miter"/>
     <use xlink:href="#m6b4d324a63" x="188.382361" y="105.539624" style="fill: #dd8452; stroke: #ffffff; stroke-width: 0.75; stroke-linejoin: miter"/>
     <use xlink:href="#m6b4d324a63" x="204.522856" y="104.46617" style="fill: #dd8452; stroke: #ffffff; stroke-width: 0.75; stroke-linejoin: miter"/>
     <use xlink:href="#m6b4d324a63" x="220.663352" y="103.104071" style="fill: #dd8452; stroke: #ffffff; stroke-width: 0.75; stroke-linejoin: miter"/>
    </g>
   </g>
   <g id="line2d_14">
    <path d="M 43.117898 102.530822 
L 47.153022 114.268246 
L 51.188146 117.395017 
L 55.22327 120.074964 
L 59.258394 122.521777 
L 63.293518 124.854251 
L 67.328642 125.156888 
L 71.363765 127.511433 
L 75.398889 128.306308 
L 79.434013 129.078726 
L 83.469137 129.808122 
L 87.504261 130.396619 
L 91.539385 130.118532 
L 95.574509 131.996409 
L 99.609633 132.249252 
L 103.644757 132.527921 
L 107.679881 133.318568 
L 111.715005 133.904654 
L 115.750129 134.003912 
L 119.785253 134.690969 
L 123.820377 134.366645 
L 127.855501 135.03594 
L 131.890625 135.659627 
L 135.925749 135.006278 
L 139.960873 136.345099 
L 143.995997 136.380844 
L 148.031121 136.302859 
L 152.066245 136.790697 
L 156.101369 137.03761 
L 160.136493 136.984106 
L 164.171617 137.80486 
L 168.206741 137.371291 
L 172.241865 138.216198 
L 176.276989 138.110587 
L 180.312113 138.01891 
L 184.347237 137.96559 
L 188.382361 138.454689 
L 192.417485 138.369818 
L 196.452608 138.538816 
L 200.487732 138.449248 
L 204.522856 139.183309 
L 208.55798 138.961778 
L 212.593104 139.382502 
L 216.628228 139.409037 
L 220.663352 139.287179 
" clip-path="url(#pbdc5311137)" style="fill: none; stroke-dasharray: 1.5,1.5; stroke-dashoffset: 0; stroke: #dd8452; stroke-width: 1.5"/>
    <defs>
     <path id="md75fcfaeba" d="M -2.474874 -2.474874 
L -2.474874 2.474874 
L 2.474874 2.474874 
L 2.474874 -2.474874 
z
" style="stroke: #ffffff; stroke-width: 0.75; stroke-linejoin: miter"/>
    </defs>
    <g clip-path="url(#pbdc5311137)">
     <use xlink:href="#md75fcfaeba" x="43.117898" y="102.530822" style="fill: #dd8452; stroke: #ffffff; stroke-width: 0.75; stroke-linejoin: miter"/>
     <use xlink:href="#md75fcfaeba" x="59.258394" y="122.521777" style="fill: #dd8452; stroke: #ffffff; stroke-width: 0.75; stroke-linejoin: miter"/>
     <use xlink:href="#md75fcfaeba" x="75.398889" y="128.306308" style="fill: #dd8452; stroke: #ffffff; stroke-width: 0.75; stroke-linejoin: miter"/>
     <use xlink:href="#md75fcfaeba" x="91.539385" y="130.118532" style="fill: #dd8452; stroke: #ffffff; stroke-width: 0.75; stroke-linejoin: miter"/>
     <use xlink:href="#md75fcfaeba" x="107.679881" y="133.318568" style="fill: #dd8452; stroke: #ffffff; stroke-width: 0.75; stroke-linejoin: miter"/>
     <use xlink:href="#md75fcfaeba" x="123.820377" y="134.366645" style="fill: #dd8452; stroke: #ffffff; stroke-width: 0.75; stroke-linejoin: miter"/>
     <use xlink:href="#md75fcfaeba" x="139.960873" y="136.345099" style="fill: #dd8452; stroke: #ffffff; stroke-width: 0.75; stroke-linejoin: miter"/>
     <use xlink:href="#md75fcfaeba" x="156.101369" y="137.03761" style="fill: #dd8452; stroke: #ffffff; stroke-width: 0.75; stroke-linejoin: miter"/>
     <use xlink:href="#md75fcfaeba" x="172.241865" y="138.216198" style="fill: #dd8452; stroke: #ffffff; stroke-width: 0.75; stroke-linejoin: miter"/>
     <use xlink:href="#md75fcfaeba" x="188.382361" y="138.454689" style="fill: #dd8452; stroke: #ffffff; stroke-width: 0.75; stroke-linejoin: miter"/>
     <use xlink:href="#md75fcfaeba" x="204.522856" y="139.183309" style="fill: #dd8452; stroke: #ffffff; stroke-width: 0.75; stroke-linejoin: miter"/>
     <use xlink:href="#md75fcfaeba" x="220.663352" y="139.287179" style="fill: #dd8452; stroke: #ffffff; stroke-width: 0.75; stroke-linejoin: miter"/>
    </g>
   </g>
   <g id="line2d_15">
    <path d="M 43.117898 100.607829 
L 47.153022 107.637538 
L 51.188146 107.996857 
L 55.22327 111.15466 
L 59.258394 111.602969 
L 63.293518 111.512911 
L 67.328642 112.580332 
L 71.363765 112.850594 
L 75.398889 110.71772 
L 79.434013 112.278915 
L 83.469137 112.976967 
L 87.504261 112.35019 
L 91.539385 111.005853 
L 95.574509 111.766455 
L 99.609633 111.868412 
L 103.644757 110.735961 
L 107.679881 110.797471 
L 111.715005 110.788356 
L 115.750129 110.061092 
L 119.785253 110.071645 
L 123.820377 109.516864 
L 127.855501 109.357059 
L 131.890625 108.830237 
L 135.925749 109.025619 
L 139.960873 108.400397 
L 143.995997 108.43945 
L 148.031121 108.036531 
L 152.066245 107.565566 
L 156.101369 107.436745 
L 160.136493 106.565763 
L 164.171617 106.295118 
L 168.206741 106.08352 
L 172.241865 105.65728 
L 176.276989 105.171522 
L 180.312113 105.045547 
L 184.347237 104.590841 
L 188.382361 104.028993 
L 192.417485 103.828907 
L 196.452608 103.442853 
L 200.487732 102.932224 
L 204.522856 102.937256 
L 208.55798 102.798907 
L 212.593104 102.334753 
L 216.628228 102.04312 
L 220.663352 101.472417 
" clip-path="url(#pbdc5311137)" style="fill: none; stroke: #55a868; stroke-width: 1.5; stroke-linecap: square"/>
    <defs>
     <path id="m1eed9394b8" d="M 0 3.5 
C 0.928211 3.5 1.81853 3.131218 2.474874 2.474874 
C 3.131218 1.81853 3.5 0.928211 3.5 0 
C 3.5 -0.928211 3.131218 -1.81853 2.474874 -2.474874 
C 1.81853 -3.131218 0.928211 -3.5 0 -3.5 
C -0.928211 -3.5 -1.81853 -3.131218 -2.474874 -2.474874 
C -3.131218 -1.81853 -3.5 -0.928211 -3.5 0 
C -3.5 0.928211 -3.131218 1.81853 -2.474874 2.474874 
C -1.81853 3.131218 -0.928211 3.5 0 3.5 
z
" style="stroke: #ffffff; stroke-width: 0.75"/>
    </defs>
    <g clip-path="url(#pbdc5311137)">
     <use xlink:href="#m1eed9394b8" x="43.117898" y="100.607829" style="fill: #55a868; stroke: #ffffff; stroke-width: 0.75"/>
     <use xlink:href="#m1eed9394b8" x="59.258394" y="111.602969" style="fill: #55a868; stroke: #ffffff; stroke-width: 0.75"/>
     <use xlink:href="#m1eed9394b8" x="75.398889" y="110.71772" style="fill: #55a868; stroke: #ffffff; stroke-width: 0.75"/>
     <use xlink:href="#m1eed9394b8" x="91.539385" y="111.005853" style="fill: #55a868; stroke: #ffffff; stroke-width: 0.75"/>
     <use xlink:href="#m1eed9394b8" x="107.679881" y="110.797471" style="fill: #55a868; stroke: #ffffff; stroke-width: 0.75"/>
     <use xlink:href="#m1eed9394b8" x="123.820377" y="109.516864" style="fill: #55a868; stroke: #ffffff; stroke-width: 0.75"/>
     <use xlink:href="#m1eed9394b8" x="139.960873" y="108.400397" style="fill: #55a868; stroke: #ffffff; stroke-width: 0.75"/>
     <use xlink:href="#m1eed9394b8" x="156.101369" y="107.436745" style="fill: #55a868; stroke: #ffffff; stroke-width: 0.75"/>
     <use xlink:href="#m1eed9394b8" x="172.241865" y="105.65728" style="fill: #55a868; stroke: #ffffff; stroke-width: 0.75"/>
     <use xlink:href="#m1eed9394b8" x="188.382361" y="104.028993" style="fill: #55a868; stroke: #ffffff; stroke-width: 0.75"/>
     <use xlink:href="#m1eed9394b8" x="204.522856" y="102.937256" style="fill: #55a868; stroke: #ffffff; stroke-width: 0.75"/>
     <use xlink:href="#m1eed9394b8" x="220.663352" y="101.472417" style="fill: #55a868; stroke: #ffffff; stroke-width: 0.75"/>
    </g>
   </g>
   <g id="line2d_16">
    <path d="M 43.117898 101.777506 
L 47.153022 108.348937 
L 51.188146 112.15221 
L 55.22327 112.575523 
L 59.258394 112.50799 
L 63.293518 113.887381 
L 67.328642 113.972496 
L 71.363765 113.528276 
L 75.398889 112.148382 
L 79.434013 112.438047 
L 83.469137 112.38626 
L 87.504261 112.071942 
L 91.539385 111.516644 
L 95.574509 110.878612 
L 99.609633 109.86064 
L 103.644757 110.505193 
L 107.679881 109.752939 
L 111.715005 110.651207 
L 115.750129 110.925116 
L 119.785253 110.496433 
L 123.820377 110.885361 
L 127.855501 110.421866 
L 131.890625 109.559981 
L 135.925749 109.649341 
L 139.960873 109.250676 
L 143.995997 108.606498 
L 148.031121 108.544253 
L 152.066245 108.548834 
L 156.101369 108.200505 
L 160.136493 107.452572 
L 164.171617 107.359864 
L 168.206741 107.077156 
L 172.241865 106.782469 
L 176.276989 106.643712 
L 180.312113 106.478229 
L 184.347237 105.732895 
L 188.382361 105.604023 
L 192.417485 105.424767 
L 196.452608 105.085956 
L 200.487732 104.46027 
L 204.522856 104.189212 
L 208.55798 103.932775 
L 212.593104 103.471623 
L 216.628228 103.165079 
L 220.663352 103.236141 
" clip-path="url(#pbdc5311137)" style="fill: none; stroke-dasharray: 6,2.25; stroke-dashoffset: 0; stroke: #55a868; stroke-width: 1.5"/>
    <defs>
     <path id="m0424b096eb" d="M -1.75 3.5 
L 0 1.75 
L 1.75 3.5 
L 3.5 1.75 
L 1.75 0 
L 3.5 -1.75 
L 1.75 -3.5 
L 0 -1.75 
L -1.75 -3.5 
L -3.5 -1.75 
L -1.75 0 
L -3.5 1.75 
z
" style="stroke: #ffffff; stroke-width: 0.75; stroke-linejoin: miter"/>
    </defs>
    <g clip-path="url(#pbdc5311137)">
     <use xlink:href="#m0424b096eb" x="43.117898" y="101.777506" style="fill: #55a868; stroke: #ffffff; stroke-width: 0.75; stroke-linejoin: miter"/>
     <use xlink:href="#m0424b096eb" x="59.258394" y="112.50799" style="fill: #55a868; stroke: #ffffff; stroke-width: 0.75; stroke-linejoin: miter"/>
     <use xlink:href="#m0424b096eb" x="75.398889" y="112.148382" style="fill: #55a868; stroke: #ffffff; stroke-width: 0.75; stroke-linejoin: miter"/>
     <use xlink:href="#m0424b096eb" x="91.539385" y="111.516644" style="fill: #55a868; stroke: #ffffff; stroke-width: 0.75; stroke-linejoin: miter"/>
     <use xlink:href="#m0424b096eb" x="107.679881" y="109.752939" style="fill: #55a868; stroke: #ffffff; stroke-width: 0.75; stroke-linejoin: miter"/>
     <use xlink:href="#m0424b096eb" x="123.820377" y="110.885361" style="fill: #55a868; stroke: #ffffff; stroke-width: 0.75; stroke-linejoin: miter"/>
     <use xlink:href="#m0424b096eb" x="139.960873" y="109.250676" style="fill: #55a868; stroke: #ffffff; stroke-width: 0.75; stroke-linejoin: miter"/>
     <use xlink:href="#m0424b096eb" x="156.101369" y="108.200505" style="fill: #55a868; stroke: #ffffff; stroke-width: 0.75; stroke-linejoin: miter"/>
     <use xlink:href="#m0424b096eb" x="172.241865" y="106.782469" style="fill: #55a868; stroke: #ffffff; stroke-width: 0.75; stroke-linejoin: miter"/>
     <use xlink:href="#m0424b096eb" x="188.382361" y="105.604023" style="fill: #55a868; stroke: #ffffff; stroke-width: 0.75; stroke-linejoin: miter"/>
     <use xlink:href="#m0424b096eb" x="204.522856" y="104.189212" style="fill: #55a868; stroke: #ffffff; stroke-width: 0.75; stroke-linejoin: miter"/>
     <use xlink:href="#m0424b096eb" x="220.663352" y="103.236141" style="fill: #55a868; stroke: #ffffff; stroke-width: 0.75; stroke-linejoin: miter"/>
    </g>
   </g>
   <g id="line2d_17">
    <path d="M 43.117898 101.944326 
L 47.153022 114.381249 
L 51.188146 116.081585 
L 55.22327 120.924599 
L 59.258394 123.292042 
L 63.293518 125.383833 
L 67.328642 126.173361 
L 71.363765 127.018546 
L 75.398889 128.291264 
L 79.434013 128.653878 
L 83.469137 130.938236 
L 87.504261 130.777003 
L 91.539385 133.052914 
L 95.574509 133.398777 
L 99.609633 133.577765 
L 103.644757 133.777316 
L 107.679881 134.737584 
L 111.715005 134.82042 
L 115.750129 135.873122 
L 119.785253 135.607003 
L 123.820377 135.832354 
L 127.855501 135.839231 
L 131.890625 136.348052 
L 135.925749 136.84371 
L 139.960873 136.49144 
L 143.995997 136.941814 
L 148.031121 136.958881 
L 152.066245 137.462522 
L 156.101369 138.014101 
L 160.136493 137.099997 
L 164.171617 137.180699 
L 168.206741 137.594187 
L 172.241865 137.245137 
L 176.276989 137.413823 
L 180.312113 137.631285 
L 184.347237 137.855203 
L 188.382361 138.551708 
L 192.417485 138.833796 
L 196.452608 138.489517 
L 200.487732 138.477981 
L 204.522856 138.994498 
L 208.55798 138.835035 
L 212.593104 138.358595 
L 216.628228 138.992272 
L 220.663352 138.419617 
" clip-path="url(#pbdc5311137)" style="fill: none; stroke-dasharray: 1.5,1.5; stroke-dashoffset: 0; stroke: #55a868; stroke-width: 1.5"/>
    <defs>
     <path id="mc70ea8a4fb" d="M -2.474874 -2.474874 
L -2.474874 2.474874 
L 2.474874 2.474874 
L 2.474874 -2.474874 
z
" style="stroke: #ffffff; stroke-width: 0.75; stroke-linejoin: miter"/>
    </defs>
    <g clip-path="url(#pbdc5311137)">
     <use xlink:href="#mc70ea8a4fb" x="43.117898" y="101.944326" style="fill: #55a868; stroke: #ffffff; stroke-width: 0.75; stroke-linejoin: miter"/>
     <use xlink:href="#mc70ea8a4fb" x="59.258394" y="123.292042" style="fill: #55a868; stroke: #ffffff; stroke-width: 0.75; stroke-linejoin: miter"/>
     <use xlink:href="#mc70ea8a4fb" x="75.398889" y="128.291264" style="fill: #55a868; stroke: #ffffff; stroke-width: 0.75; stroke-linejoin: miter"/>
     <use xlink:href="#mc70ea8a4fb" x="91.539385" y="133.052914" style="fill: #55a868; stroke: #ffffff; stroke-width: 0.75; stroke-linejoin: miter"/>
     <use xlink:href="#mc70ea8a4fb" x="107.679881" y="134.737584" style="fill: #55a868; stroke: #ffffff; stroke-width: 0.75; stroke-linejoin: miter"/>
     <use xlink:href="#mc70ea8a4fb" x="123.820377" y="135.832354" style="fill: #55a868; stroke: #ffffff; stroke-width: 0.75; stroke-linejoin: miter"/>
     <use xlink:href="#mc70ea8a4fb" x="139.960873" y="136.49144" style="fill: #55a868; stroke: #ffffff; stroke-width: 0.75; stroke-linejoin: miter"/>
     <use xlink:href="#mc70ea8a4fb" x="156.101369" y="138.014101" style="fill: #55a868; stroke: #ffffff; stroke-width: 0.75; stroke-linejoin: miter"/>
     <use xlink:href="#mc70ea8a4fb" x="172.241865" y="137.245137" style="fill: #55a868; stroke: #ffffff; stroke-width: 0.75; stroke-linejoin: miter"/>
     <use xlink:href="#mc70ea8a4fb" x="188.382361" y="138.551708" style="fill: #55a868; stroke: #ffffff; stroke-width: 0.75; stroke-linejoin: miter"/>
     <use xlink:href="#mc70ea8a4fb" x="204.522856" y="138.994498" style="fill: #55a868; stroke: #ffffff; stroke-width: 0.75; stroke-linejoin: miter"/>
     <use xlink:href="#mc70ea8a4fb" x="220.663352" y="138.419617" style="fill: #55a868; stroke: #ffffff; stroke-width: 0.75; stroke-linejoin: miter"/>
    </g>
   </g>
   <g id="line2d_18"/>
   <g id="line2d_19"/>
   <g id="line2d_20"/>
   <g id="line2d_21"/>
   <g id="line2d_22"/>
   <g id="line2d_23"/>
   <g id="line2d_24"/>
   <g id="line2d_25"/>
   <g id="line2d_26">
    <path d="M 43.117898 13.5 
L 47.153022 26.315525 
L 51.188146 33.53074 
L 55.22327 38.486327 
L 59.258394 42.121 
L 63.293518 44.93547 
L 67.328642 47.194166 
L 71.363765 49.052132 
L 75.398889 50.614621 
L 79.434013 51.935758 
L 83.469137 53.057344 
L 87.504261 54.018023 
L 91.539385 54.844049 
L 95.574509 55.559138 
L 99.609633 56.178445 
L 103.644757 56.715315 
L 107.679881 57.180875 
L 111.715005 57.583931 
L 115.750129 57.932555 
L 119.785253 58.232846 
L 123.820377 58.49023 
L 127.855501 58.709441 
L 131.890625 58.894607 
L 135.925749 59.049336 
L 139.960873 59.17679 
L 143.995997 59.279765 
L 148.031121 59.360788 
L 152.066245 59.422221 
L 156.101369 59.466536 
L 160.136493 59.495166 
L 164.171617 59.510255 
L 168.206741 59.513371 
L 172.241865 59.50632 
L 176.276989 59.492798 
L 180.312113 59.471151 
L 184.347237 59.444229 
L 188.382361 59.409353 
L 192.417485 59.37851 
L 196.452608 59.380563 
L 200.487732 59.416973 
L 204.522856 59.502095 
L 208.55798 59.64146 
L 212.593104 59.790546 
L 216.628228 60.518428 
L 220.663352 63.70586 
" clip-path="url(#pbdc5311137)" style="fill: none; stroke: #64b5cd; stroke-width: 1.5; stroke-linecap: square"/>
   </g>
   <g id="patch_3">
    <path d="M 34.240625 145.8 
L 34.240625 7.2 
" style="fill: none; stroke: #000000; stroke-width: 0.8; stroke-linejoin: miter; stroke-linecap: square"/>
   </g>
   <g id="patch_4">
    <path d="M 229.540625 145.8 
L 229.540625 7.2 
" style="fill: none; stroke: #000000; stroke-width: 0.8; stroke-linejoin: miter; stroke-linecap: square"/>
   </g>
   <g id="patch_5">
    <path d="M 34.240625 145.8 
L 229.540625 145.8 
" style="fill: none; stroke: #000000; stroke-width: 0.8; stroke-linejoin: miter; stroke-linecap: square"/>
   </g>
   <g id="patch_6">
    <path d="M 34.240625 7.2 
L 229.540625 7.2 
" style="fill: none; stroke: #000000; stroke-width: 0.8; stroke-linejoin: miter; stroke-linecap: square"/>
   </g>
   <g id="legend_1">
    <g id="patch_7">
     <path d="M 39.140625 43.624063 
L 120.568125 43.624063 
Q 121.968125 43.624063 121.968125 42.224063 
L 121.968125 12.1 
Q 121.968125 10.7 120.568125 10.7 
L 39.140625 10.7 
Q 37.740625 10.7 37.740625 12.1 
L 37.740625 42.224063 
Q 37.740625 43.624063 39.140625 43.624063 
z
" style="fill: #ffffff; opacity: 0.8; stroke: #cccccc; stroke-linejoin: miter"/>
    </g>
    <g id="line2d_27">
     <path d="M 40.540625 16.368906 
L 47.540625 16.368906 
L 54.540625 16.368906 
" style="fill: none; stroke: #4c72b0; stroke-width: 1.5; stroke-linecap: square"/>
    </g>
    <g id="text_11">
     <!-- MMSE -->
     <g transform="translate(60.140625 18.818906) scale(0.07 -0.07)">
      <use xlink:href="#DejaVuSans-4d"/>
      <use xlink:href="#DejaVuSans-4d" x="86.279297"/>
      <use xlink:href="#DejaVuSans-53" x="172.558594"/>
      <use xlink:href="#DejaVuSans-45" x="236.035156"/>
     </g>
    </g>
    <g id="line2d_28">
     <path d="M 40.540625 26.643594 
L 47.540625 26.643594 
L 54.540625 26.643594 
" style="fill: none; stroke: #dd8452; stroke-width: 1.5; stroke-linecap: square"/>
    </g>
    <g id="text_12">
     <!-- WMSE -->
     <g transform="translate(60.140625 29.093594) scale(0.07 -0.07)">
      <defs>
       <path id="DejaVuSans-57" d="M 213 4666 
L 850 4666 
L 1831 722 
L 2809 4666 
L 3519 4666 
L 4500 722 
L 5478 4666 
L 6119 4666 
L 4947 0 
L 4153 0 
L 3169 4050 
L 2175 0 
L 1381 0 
L 213 4666 
z
" transform="scale(0.015625)"/>
      </defs>
      <use xlink:href="#DejaVuSans-57"/>
      <use xlink:href="#DejaVuSans-4d" x="98.876953"/>
      <use xlink:href="#DejaVuSans-53" x="185.15625"/>
      <use xlink:href="#DejaVuSans-45" x="248.632812"/>
     </g>
    </g>
    <g id="line2d_29">
     <path d="M 40.540625 36.918281 
L 47.540625 36.918281 
L 54.540625 36.918281 
" style="fill: none; stroke: #55a868; stroke-width: 1.5; stroke-linecap: square"/>
    </g>
    <g id="text_13">
     <!-- Uniform Random -->
     <g transform="translate(60.140625 39.368281) scale(0.07 -0.07)">
      <defs>
       <path id="DejaVuSans-55" d="M 556 4666 
L 1191 4666 
L 1191 1831 
Q 1191 1081 1462 751 
Q 1734 422 2344 422 
Q 2950 422 3222 751 
Q 3494 1081 3494 1831 
L 3494 4666 
L 4128 4666 
L 4128 1753 
Q 4128 841 3676 375 
Q 3225 -91 2344 -91 
Q 1459 -91 1007 375 
Q 556 841 556 1753 
L 556 4666 
z
" transform="scale(0.015625)"/>
       <path id="DejaVuSans-6e" d="M 3513 2113 
L 3513 0 
L 2938 0 
L 2938 2094 
Q 2938 2591 2744 2837 
Q 2550 3084 2163 3084 
Q 1697 3084 1428 2787 
Q 1159 2491 1159 1978 
L 1159 0 
L 581 0 
L 581 3500 
L 1159 3500 
L 1159 2956 
Q 1366 3272 1645 3428 
Q 1925 3584 2291 3584 
Q 2894 3584 3203 3211 
Q 3513 2838 3513 2113 
z
" transform="scale(0.015625)"/>
       <path id="DejaVuSans-66" d="M 2375 4863 
L 2375 4384 
L 1825 4384 
Q 1516 4384 1395 4259 
Q 1275 4134 1275 3809 
L 1275 3500 
L 2222 3500 
L 2222 3053 
L 1275 3053 
L 1275 0 
L 697 0 
L 697 3053 
L 147 3053 
L 147 3500 
L 697 3500 
L 697 3744 
Q 697 4328 969 4595 
Q 1241 4863 1831 4863 
L 2375 4863 
z
" transform="scale(0.015625)"/>
       <path id="DejaVuSans-72" d="M 2631 2963 
Q 2534 3019 2420 3045 
Q 2306 3072 2169 3072 
Q 1681 3072 1420 2755 
Q 1159 2438 1159 1844 
L 1159 0 
L 581 0 
L 581 3500 
L 1159 3500 
L 1159 2956 
Q 1341 3275 1631 3429 
Q 1922 3584 2338 3584 
Q 2397 3584 2469 3576 
Q 2541 3569 2628 3553 
L 2631 2963 
z
" transform="scale(0.015625)"/>
       <path id="DejaVuSans-52" d="M 2841 2188 
Q 3044 2119 3236 1894 
Q 3428 1669 3622 1275 
L 4263 0 
L 3584 0 
L 2988 1197 
Q 2756 1666 2539 1819 
Q 2322 1972 1947 1972 
L 1259 1972 
L 1259 0 
L 628 0 
L 628 4666 
L 2053 4666 
Q 2853 4666 3247 4331 
Q 3641 3997 3641 3322 
Q 3641 2881 3436 2590 
Q 3231 2300 2841 2188 
z
M 1259 4147 
L 1259 2491 
L 2053 2491 
Q 2509 2491 2742 2702 
Q 2975 2913 2975 3322 
Q 2975 3731 2742 3939 
Q 2509 4147 2053 4147 
L 1259 4147 
z
" transform="scale(0.015625)"/>
       <path id="DejaVuSans-64" d="M 2906 2969 
L 2906 4863 
L 3481 4863 
L 3481 0 
L 2906 0 
L 2906 525 
Q 2725 213 2448 61 
Q 2172 -91 1784 -91 
Q 1150 -91 751 415 
Q 353 922 353 1747 
Q 353 2572 751 3078 
Q 1150 3584 1784 3584 
Q 2172 3584 2448 3432 
Q 2725 3281 2906 2969 
z
M 947 1747 
Q 947 1113 1208 752 
Q 1469 391 1925 391 
Q 2381 391 2643 752 
Q 2906 1113 2906 1747 
Q 2906 2381 2643 2742 
Q 2381 3103 1925 3103 
Q 1469 3103 1208 2742 
Q 947 2381 947 1747 
z
" transform="scale(0.015625)"/>
      </defs>
      <use xlink:href="#DejaVuSans-55"/>
      <use xlink:href="#DejaVuSans-6e" x="73.193359"/>
      <use xlink:href="#DejaVuSans-69" x="136.572266"/>
      <use xlink:href="#DejaVuSans-66" x="164.355469"/>
      <use xlink:href="#DejaVuSans-6f" x="199.560547"/>
      <use xlink:href="#DejaVuSans-72" x="260.742188"/>
      <use xlink:href="#DejaVuSans-6d" x="300.105469"/>
      <use xlink:href="#DejaVuSans-20" x="397.517578"/>
      <use xlink:href="#DejaVuSans-52" x="429.304688"/>
      <use xlink:href="#DejaVuSans-61" x="496.537109"/>
      <use xlink:href="#DejaVuSans-6e" x="557.816406"/>
      <use xlink:href="#DejaVuSans-64" x="621.195312"/>
      <use xlink:href="#DejaVuSans-6f" x="684.671875"/>
      <use xlink:href="#DejaVuSans-6d" x="745.853516"/>
     </g>
    </g>
   </g>
   <g id="legend_2">
    <g id="patch_8">
     <path d="M 177.747188 53.89875 
L 224.640625 53.89875 
Q 226.040625 53.89875 226.040625 52.49875 
L 226.040625 12.1 
Q 226.040625 10.7 224.640625 10.7 
L 177.747188 10.7 
Q 176.347188 10.7 176.347188 12.1 
L 176.347188 52.49875 
Q 176.347188 53.89875 177.747188 53.89875 
z
" style="fill: #ffffff; opacity: 0.8; stroke: #cccccc; stroke-linejoin: miter"/>
    </g>
    <g id="line2d_30">
     <path d="M 179.147188 16.368906 
L 186.147188 16.368906 
L 193.147188 16.368906 
" style="fill: none"/>
    </g>
    <g id="text_14">
     <!--  -->
     <g transform="translate(198.747188 18.818906) scale(0.07 -0.07)">
      <defs>
       <path id="DejaVuSans-3bc" d="M 544 -1331 
L 544 3500 
L 1119 3500 
L 1119 1325 
Q 1119 872 1334 640 
Q 1550 409 1972 409 
Q 2434 409 2667 671 
Q 2900 934 2900 1459 
L 2900 3500 
L 3475 3500 
L 3475 806 
Q 3475 619 3529 530 
Q 3584 441 3700 441 
Q 3728 441 3778 458 
Q 3828 475 3916 513 
L 3916 50 
Q 3788 -22 3673 -56 
Q 3559 -91 3450 -91 
Q 3234 -91 3106 31 
Q 2978 153 2931 403 
Q 2775 156 2548 32 
Q 2322 -91 2016 -91 
Q 1697 -91 1473 31 
Q 1250 153 1119 397 
L 1119 -1331 
L 544 -1331 
z
" transform="scale(0.015625)"/>
      </defs>
      <use xlink:href="#DejaVuSans-3bc"/>
     </g>
    </g>
    <g id="line2d_31">
     <path d="M 179.147188 26.643594 
L 186.147188 26.643594 
L 193.147188 26.643594 
" style="fill: none; stroke: #333333; stroke-width: 1.5; stroke-linecap: square"/>
     <defs>
      <path id="m856e039624" d="M 0 3.5 
C 0.928211 3.5 1.81853 3.131218 2.474874 2.474874 
C 3.131218 1.81853 3.5 0.928211 3.5 0 
C 3.5 -0.928211 3.131218 -1.81853 2.474874 -2.474874 
C 1.81853 -3.131218 0.928211 -3.5 0 -3.5 
C -0.928211 -3.5 -1.81853 -3.131218 -2.474874 -2.474874 
C -3.131218 -1.81853 -3.5 -0.928211 -3.5 0 
C -3.5 0.928211 -3.131218 1.81853 -2.474874 2.474874 
C -1.81853 3.131218 -0.928211 3.5 0 3.5 
z
" style="stroke: #ffffff; stroke-width: 0.75"/>
     </defs>
     <g>
      <use xlink:href="#m856e039624" x="186.147188" y="26.643594" style="fill: #333333; stroke: #ffffff; stroke-width: 0.75"/>
     </g>
    </g>
    <g id="text_15">
     <!-- 0.0001 -->
     <g transform="translate(198.747188 29.093594) scale(0.07 -0.07)">
      <defs>
       <path id="DejaVuSans-2e" d="M 684 794 
L 1344 794 
L 1344 0 
L 684 0 
L 684 794 
z
" transform="scale(0.015625)"/>
      </defs>
      <use xlink:href="#DejaVuSans-30"/>
      <use xlink:href="#DejaVuSans-2e" x="63.623047"/>
      <use xlink:href="#DejaVuSans-30" x="95.410156"/>
      <use xlink:href="#DejaVuSans-30" x="159.033203"/>
      <use xlink:href="#DejaVuSans-30" x="222.65625"/>
      <use xlink:href="#DejaVuSans-31" x="286.279297"/>
     </g>
    </g>
    <g id="line2d_32">
     <path d="M 179.147188 36.918281 
L 186.147188 36.918281 
L 193.147188 36.918281 
" style="fill: none; stroke-dasharray: 6,2.25; stroke-dashoffset: 0; stroke: #333333; stroke-width: 1.5"/>
     <defs>
      <path id="m3a0803c600" d="M -1.75 3.5 
L 0 1.75 
L 1.75 3.5 
L 3.5 1.75 
L 1.75 0 
L 3.5 -1.75 
L 1.75 -3.5 
L 0 -1.75 
L -1.75 -3.5 
L -3.5 -1.75 
L -1.75 0 
L -3.5 1.75 
z
" style="stroke: #ffffff; stroke-width: 0.75; stroke-linejoin: miter"/>
     </defs>
     <g>
      <use xlink:href="#m3a0803c600" x="186.147188" y="36.918281" style="fill: #333333; stroke: #ffffff; stroke-width: 0.75; stroke-linejoin: miter"/>
     </g>
    </g>
    <g id="text_16">
     <!-- 0.01 -->
     <g transform="translate(198.747188 39.368281) scale(0.07 -0.07)">
      <use xlink:href="#DejaVuSans-30"/>
      <use xlink:href="#DejaVuSans-2e" x="63.623047"/>
      <use xlink:href="#DejaVuSans-30" x="95.410156"/>
      <use xlink:href="#DejaVuSans-31" x="159.033203"/>
     </g>
    </g>
    <g id="line2d_33">
     <path d="M 179.147188 47.192969 
L 186.147188 47.192969 
L 193.147188 47.192969 
" style="fill: none; stroke-dasharray: 1.5,1.5; stroke-dashoffset: 0; stroke: #333333; stroke-width: 1.5"/>
     <defs>
      <path id="mecf64f27b2" d="M -2.474874 -2.474874 
L -2.474874 2.474874 
L 2.474874 2.474874 
L 2.474874 -2.474874 
z
" style="stroke: #ffffff; stroke-width: 0.75; stroke-linejoin: miter"/>
     </defs>
     <g>
      <use xlink:href="#mecf64f27b2" x="186.147188" y="47.192969" style="fill: #333333; stroke: #ffffff; stroke-width: 0.75; stroke-linejoin: miter"/>
     </g>
    </g>
    <g id="text_17">
     <!-- 1.0 -->
     <g transform="translate(198.747188 49.642969) scale(0.07 -0.07)">
      <use xlink:href="#DejaVuSans-31"/>
      <use xlink:href="#DejaVuSans-2e" x="63.623047"/>
      <use xlink:href="#DejaVuSans-30" x="95.410156"/>
     </g>
    </g>
   </g>
  </g>
 </g>
 <defs>
  <clipPath id="pbdc5311137">
   <rect x="34.240625" y="7.2" width="195.3" height="138.6"/>
  </clipPath>
 </defs>
</svg>
