<?xml version="1.0" encoding="utf-8" standalone="no"?>
<!DOCTYPE svg PUBLIC "-//W3C//DTD SVG 1.1//EN"
  "http://www.w3.org/Graphics/SVG/1.1/DTD/svg11.dtd">
<svg xmlns:xlink="http://www.w3.org/1999/xlink" width="260.39891pt" height="188.399516pt" viewBox="0 0 260.39891 188.399516" xmlns="http://www.w3.org/2000/svg" version="1.1">
 <metadata>
  <rdf:RDF xmlns:dc="http://purl.org/dc/elements/1.1/" xmlns:cc="http://creativecommons.org/ns#" xmlns:rdf="http://www.w3.org/1999/02/22-rdf-syntax-ns#">
   <cc:Work>
    <dc:type rdf:resource="http://purl.org/dc/dcmitype/StillImage"/>
    <dc:date>1980-01-01T00:00:00+00:00</dc:date>
    <dc:format>image/svg+xml</dc:format>
    <dc:creator>
     <cc:Agent>
      <dc:title>Matplotlib v3.7.5, https://matplotlib.org/</dc:title>
     </cc:Agent>
    </dc:creator>
   </cc:Work>
  </rdf:RDF>
 </metadata>
 <defs>
  <style type="text/css">*{stroke-linejoin: round; stroke-linecap: butt}</style>
 </defs>
 <g id="figure_1">
  <g id="patch_1">
   <path d="M 0 188.399516 
L 260.39891 188.399516 
L 260.39891 0 
L 0 0 
z
" style="fill: #ffffff"/>
  </g>
  <g id="axes_1">
   <g id="patch_2">
    <path d="M 46.965625 150.843266 
L 251.758769 150.843266 
L 251.758769 10.715431 
L 46.965625 10.715431 
z
" style="fill: #ffffff"/>
   </g>
   <g id="PolyCollection_1"/>
   <g id="PolyCollection_2"/>
   <g id="PolyCollection_3"/>
   <g id="matplotlib.axis_1">
    <g id="xtick_1">
     <g id="line2d_1">
      <defs>
       <path id="m7ccb16db77" d="M 0 0 
L 0 3.5 
" style="stroke: #000000; stroke-width: 0.8"/>
      </defs>
      <g>
       <use xlink:href="#m7ccb16db77" x="46.965625" y="150.843266" style="stroke: #000000; stroke-width: 0.8"/>
      </g>
     </g>
     <g id="text_1">
      <!-- 0 -->
      <g transform="translate(43.784375 165.441704) scale(0.1 -0.1)">
       <defs>
        <path id="DejaVuSans-30" d="M 2034 4250 
Q 1547 4250 1301 3770 
Q 1056 3291 1056 2328 
Q 1056 1369 1301 889 
Q 1547 409 2034 409 
Q 2525 409 2770 889 
Q 3016 1369 3016 2328 
Q 3016 3291 2770 3770 
Q 2525 4250 2034 4250 
z
M 2034 4750 
Q 2819 4750 3233 4129 
Q 3647 3509 3647 2328 
Q 3647 1150 3233 529 
Q 2819 -91 2034 -91 
Q 1250 -91 836 529 
Q 422 1150 422 2328 
Q 422 3509 836 4129 
Q 1250 4750 2034 4750 
z
" transform="scale(0.015625)"/>
       </defs>
       <use xlink:href="#DejaVuSans-30"/>
      </g>
     </g>
    </g>
    <g id="xtick_2">
     <g id="line2d_2">
      <g>
       <use xlink:href="#m7ccb16db77" x="86.303532" y="150.843266" style="stroke: #000000; stroke-width: 0.8"/>
      </g>
     </g>
     <g id="text_2">
      <!-- 25 -->
      <g transform="translate(79.941032 165.441704) scale(0.1 -0.1)">
       <defs>
        <path id="DejaVuSans-32" d="M 1228 531 
L 3431 531 
L 3431 0 
L 469 0 
L 469 531 
Q 828 903 1448 1529 
Q 2069 2156 2228 2338 
Q 2531 2678 2651 2914 
Q 2772 3150 2772 3378 
Q 2772 3750 2511 3984 
Q 2250 4219 1831 4219 
Q 1534 4219 1204 4116 
Q 875 4013 500 3803 
L 500 4441 
Q 881 4594 1212 4672 
Q 1544 4750 1819 4750 
Q 2544 4750 2975 4387 
Q 3406 4025 3406 3419 
Q 3406 3131 3298 2873 
Q 3191 2616 2906 2266 
Q 2828 2175 2409 1742 
Q 1991 1309 1228 531 
z
" transform="scale(0.015625)"/>
        <path id="DejaVuSans-35" d="M 691 4666 
L 3169 4666 
L 3169 4134 
L 1269 4134 
L 1269 2991 
Q 1406 3038 1543 3061 
Q 1681 3084 1819 3084 
Q 2600 3084 3056 2656 
Q 3513 2228 3513 1497 
Q 3513 744 3044 326 
Q 2575 -91 1722 -91 
Q 1428 -91 1123 -41 
Q 819 9 494 109 
L 494 744 
Q 775 591 1075 516 
Q 1375 441 1709 441 
Q 2250 441 2565 725 
Q 2881 1009 2881 1497 
Q 2881 1984 2565 2268 
Q 2250 2553 1709 2553 
Q 1456 2553 1204 2497 
Q 953 2441 691 2322 
L 691 4666 
z
" transform="scale(0.015625)"/>
       </defs>
       <use xlink:href="#DejaVuSans-32"/>
       <use xlink:href="#DejaVuSans-35" x="63.623047"/>
      </g>
     </g>
    </g>
    <g id="xtick_3">
     <g id="line2d_3">
      <g>
       <use xlink:href="#m7ccb16db77" x="125.641439" y="150.843266" style="stroke: #000000; stroke-width: 0.8"/>
      </g>
     </g>
     <g id="text_3">
      <!-- 50 -->
      <g transform="translate(119.278939 165.441704) scale(0.1 -0.1)">
       <use xlink:href="#DejaVuSans-35"/>
       <use xlink:href="#DejaVuSans-30" x="63.623047"/>
      </g>
     </g>
    </g>
    <g id="xtick_4">
     <g id="line2d_4">
      <g>
       <use xlink:href="#m7ccb16db77" x="164.979346" y="150.843266" style="stroke: #000000; stroke-width: 0.8"/>
      </g>
     </g>
     <g id="text_4">
      <!-- 75 -->
      <g transform="translate(158.616846 165.441704) scale(0.1 -0.1)">
       <defs>
        <path id="DejaVuSans-37" d="M 525 4666 
L 3525 4666 
L 3525 4397 
L 1831 0 
L 1172 0 
L 2766 4134 
L 525 4134 
L 525 4666 
z
" transform="scale(0.015625)"/>
       </defs>
       <use xlink:href="#DejaVuSans-37"/>
       <use xlink:href="#DejaVuSans-35" x="63.623047"/>
      </g>
     </g>
    </g>
    <g id="xtick_5">
     <g id="line2d_5">
      <g>
       <use xlink:href="#m7ccb16db77" x="204.317253" y="150.843266" style="stroke: #000000; stroke-width: 0.8"/>
      </g>
     </g>
     <g id="text_5">
      <!-- 100 -->
      <g transform="translate(194.773503 165.441704) scale(0.1 -0.1)">
       <defs>
        <path id="DejaVuSans-31" d="M 794 531 
L 1825 531 
L 1825 4091 
L 703 3866 
L 703 4441 
L 1819 4666 
L 2450 4666 
L 2450 531 
L 3481 531 
L 3481 0 
L 794 0 
L 794 531 
z
" transform="scale(0.015625)"/>
       </defs>
       <use xlink:href="#DejaVuSans-31"/>
       <use xlink:href="#DejaVuSans-30" x="63.623047"/>
       <use xlink:href="#DejaVuSans-30" x="127.246094"/>
      </g>
     </g>
    </g>
    <g id="xtick_6">
     <g id="line2d_6">
      <g>
       <use xlink:href="#m7ccb16db77" x="243.65516" y="150.843266" style="stroke: #000000; stroke-width: 0.8"/>
      </g>
     </g>
     <g id="text_6">
      <!-- 125 -->
      <g transform="translate(234.11141 165.441704) scale(0.1 -0.1)">
       <use xlink:href="#DejaVuSans-31"/>
       <use xlink:href="#DejaVuSans-32" x="63.623047"/>
       <use xlink:href="#DejaVuSans-35" x="127.246094"/>
      </g>
     </g>
    </g>
    <g id="text_7">
     <!-- Sample Size -->
     <g transform="translate(118.760635 179.119829) scale(0.1 -0.1)">
      <defs>
       <path id="DejaVuSans-53" d="M 3425 4513 
L 3425 3897 
Q 3066 4069 2747 4153 
Q 2428 4238 2131 4238 
Q 1616 4238 1336 4038 
Q 1056 3838 1056 3469 
Q 1056 3159 1242 3001 
Q 1428 2844 1947 2747 
L 2328 2669 
Q 3034 2534 3370 2195 
Q 3706 1856 3706 1288 
Q 3706 609 3251 259 
Q 2797 -91 1919 -91 
Q 1588 -91 1214 -16 
Q 841 59 441 206 
L 441 856 
Q 825 641 1194 531 
Q 1563 422 1919 422 
Q 2459 422 2753 634 
Q 3047 847 3047 1241 
Q 3047 1584 2836 1778 
Q 2625 1972 2144 2069 
L 1759 2144 
Q 1053 2284 737 2584 
Q 422 2884 422 3419 
Q 422 4038 858 4394 
Q 1294 4750 2059 4750 
Q 2388 4750 2728 4690 
Q 3069 4631 3425 4513 
z
" transform="scale(0.015625)"/>
       <path id="DejaVuSans-61" d="M 2194 1759 
Q 1497 1759 1228 1600 
Q 959 1441 959 1056 
Q 959 750 1161 570 
Q 1363 391 1709 391 
Q 2188 391 2477 730 
Q 2766 1069 2766 1631 
L 2766 1759 
L 2194 1759 
z
M 3341 1997 
L 3341 0 
L 2766 0 
L 2766 531 
Q 2569 213 2275 61 
Q 1981 -91 1556 -91 
Q 1019 -91 701 211 
Q 384 513 384 1019 
Q 384 1609 779 1909 
Q 1175 2209 1959 2209 
L 2766 2209 
L 2766 2266 
Q 2766 2663 2505 2880 
Q 2244 3097 1772 3097 
Q 1472 3097 1187 3025 
Q 903 2953 641 2809 
L 641 3341 
Q 956 3463 1253 3523 
Q 1550 3584 1831 3584 
Q 2591 3584 2966 3190 
Q 3341 2797 3341 1997 
z
" transform="scale(0.015625)"/>
       <path id="DejaVuSans-6d" d="M 3328 2828 
Q 3544 3216 3844 3400 
Q 4144 3584 4550 3584 
Q 5097 3584 5394 3201 
Q 5691 2819 5691 2113 
L 5691 0 
L 5113 0 
L 5113 2094 
Q 5113 2597 4934 2840 
Q 4756 3084 4391 3084 
Q 3944 3084 3684 2787 
Q 3425 2491 3425 1978 
L 3425 0 
L 2847 0 
L 2847 2094 
Q 2847 2600 2669 2842 
Q 2491 3084 2119 3084 
Q 1678 3084 1418 2786 
Q 1159 2488 1159 1978 
L 1159 0 
L 581 0 
L 581 3500 
L 1159 3500 
L 1159 2956 
Q 1356 3278 1631 3431 
Q 1906 3584 2284 3584 
Q 2666 3584 2933 3390 
Q 3200 3197 3328 2828 
z
" transform="scale(0.015625)"/>
       <path id="DejaVuSans-70" d="M 1159 525 
L 1159 -1331 
L 581 -1331 
L 581 3500 
L 1159 3500 
L 1159 2969 
Q 1341 3281 1617 3432 
Q 1894 3584 2278 3584 
Q 2916 3584 3314 3078 
Q 3713 2572 3713 1747 
Q 3713 922 3314 415 
Q 2916 -91 2278 -91 
Q 1894 -91 1617 61 
Q 1341 213 1159 525 
z
M 3116 1747 
Q 3116 2381 2855 2742 
Q 2594 3103 2138 3103 
Q 1681 3103 1420 2742 
Q 1159 2381 1159 1747 
Q 1159 1113 1420 752 
Q 1681 391 2138 391 
Q 2594 391 2855 752 
Q 3116 1113 3116 1747 
z
" transform="scale(0.015625)"/>
       <path id="DejaVuSans-6c" d="M 603 4863 
L 1178 4863 
L 1178 0 
L 603 0 
L 603 4863 
z
" transform="scale(0.015625)"/>
       <path id="DejaVuSans-65" d="M 3597 1894 
L 3597 1613 
L 953 1613 
Q 991 1019 1311 708 
Q 1631 397 2203 397 
Q 2534 397 2845 478 
Q 3156 559 3463 722 
L 3463 178 
Q 3153 47 2828 -22 
Q 2503 -91 2169 -91 
Q 1331 -91 842 396 
Q 353 884 353 1716 
Q 353 2575 817 3079 
Q 1281 3584 2069 3584 
Q 2775 3584 3186 3129 
Q 3597 2675 3597 1894 
z
M 3022 2063 
Q 3016 2534 2758 2815 
Q 2500 3097 2075 3097 
Q 1594 3097 1305 2825 
Q 1016 2553 972 2059 
L 3022 2063 
z
" transform="scale(0.015625)"/>
       <path id="DejaVuSans-20" transform="scale(0.015625)"/>
       <path id="DejaVuSans-69" d="M 603 3500 
L 1178 3500 
L 1178 0 
L 603 0 
L 603 3500 
z
M 603 4863 
L 1178 4863 
L 1178 4134 
L 603 4134 
L 603 4863 
z
" transform="scale(0.015625)"/>
       <path id="DejaVuSans-7a" d="M 353 3500 
L 3084 3500 
L 3084 2975 
L 922 459 
L 3084 459 
L 3084 0 
L 275 0 
L 275 525 
L 2438 3041 
L 353 3041 
L 353 3500 
z
" transform="scale(0.015625)"/>
      </defs>
      <use xlink:href="#DejaVuSans-53"/>
      <use xlink:href="#DejaVuSans-61" x="63.476562"/>
      <use xlink:href="#DejaVuSans-6d" x="124.755859"/>
      <use xlink:href="#DejaVuSans-70" x="222.167969"/>
      <use xlink:href="#DejaVuSans-6c" x="285.644531"/>
      <use xlink:href="#DejaVuSans-65" x="313.427734"/>
      <use xlink:href="#DejaVuSans-20" x="374.951172"/>
      <use xlink:href="#DejaVuSans-53" x="406.738281"/>
      <use xlink:href="#DejaVuSans-69" x="470.214844"/>
      <use xlink:href="#DejaVuSans-7a" x="497.998047"/>
      <use xlink:href="#DejaVuSans-65" x="550.488281"/>
     </g>
    </g>
   </g>
   <g id="matplotlib.axis_2">
    <g id="ytick_1">
     <g id="line2d_7">
      <defs>
       <path id="m8fe78b2bdd" d="M 0 0 
L -3.5 0 
" style="stroke: #000000; stroke-width: 0.8"/>
      </defs>
      <g>
       <use xlink:href="#m8fe78b2bdd" x="46.965625" y="150.843266" style="stroke: #000000; stroke-width: 0.8"/>
      </g>
     </g>
     <g id="text_8">
      <!-- 0 -->
      <g transform="translate(33.603125 154.642485) scale(0.1 -0.1)">
       <use xlink:href="#DejaVuSans-30"/>
      </g>
     </g>
    </g>
    <g id="ytick_2">
     <g id="line2d_8">
      <g>
       <use xlink:href="#m8fe78b2bdd" x="46.965625" y="122.874457" style="stroke: #000000; stroke-width: 0.8"/>
      </g>
     </g>
     <g id="text_9">
      <!-- 50 -->
      <g transform="translate(27.240625 126.673675) scale(0.1 -0.1)">
       <use xlink:href="#DejaVuSans-35"/>
       <use xlink:href="#DejaVuSans-30" x="63.623047"/>
      </g>
     </g>
    </g>
    <g id="ytick_3">
     <g id="line2d_9">
      <g>
       <use xlink:href="#m8fe78b2bdd" x="46.965625" y="94.905647" style="stroke: #000000; stroke-width: 0.8"/>
      </g>
     </g>
     <g id="text_10">
      <!-- 100 -->
      <g transform="translate(20.878125 98.704866) scale(0.1 -0.1)">
       <use xlink:href="#DejaVuSans-31"/>
       <use xlink:href="#DejaVuSans-30" x="63.623047"/>
       <use xlink:href="#DejaVuSans-30" x="127.246094"/>
      </g>
     </g>
    </g>
    <g id="ytick_4">
     <g id="line2d_10">
      <g>
       <use xlink:href="#m8fe78b2bdd" x="46.965625" y="66.936838" style="stroke: #000000; stroke-width: 0.8"/>
      </g>
     </g>
     <g id="text_11">
      <!-- 150 -->
      <g transform="translate(20.878125 70.736056) scale(0.1 -0.1)">
       <use xlink:href="#DejaVuSans-31"/>
       <use xlink:href="#DejaVuSans-35" x="63.623047"/>
       <use xlink:href="#DejaVuSans-30" x="127.246094"/>
      </g>
     </g>
    </g>
    <g id="ytick_5">
     <g id="line2d_11">
      <g>
       <use xlink:href="#m8fe78b2bdd" x="46.965625" y="38.968028" style="stroke: #000000; stroke-width: 0.8"/>
      </g>
     </g>
     <g id="text_12">
      <!-- 200 -->
      <g transform="translate(20.878125 42.767247) scale(0.1 -0.1)">
       <use xlink:href="#DejaVuSans-32"/>
       <use xlink:href="#DejaVuSans-30" x="63.623047"/>
       <use xlink:href="#DejaVuSans-30" x="127.246094"/>
      </g>
     </g>
    </g>
    <g id="ytick_6">
     <g id="line2d_12">
      <g>
       <use xlink:href="#m8fe78b2bdd" x="46.965625" y="10.999219" style="stroke: #000000; stroke-width: 0.8"/>
      </g>
     </g>
     <g id="text_13">
      <!-- 250 -->
      <g transform="translate(20.878125 14.798437) scale(0.1 -0.1)">
       <use xlink:href="#DejaVuSans-32"/>
       <use xlink:href="#DejaVuSans-35" x="63.623047"/>
       <use xlink:href="#DejaVuSans-30" x="127.246094"/>
      </g>
     </g>
    </g>
    <g id="text_14">
     <!-- Analytic Classification Error -->
     <g transform="translate(14.798437 149.325442) rotate(-90) scale(0.1 -0.1)">
      <defs>
       <path id="DejaVuSans-41" d="M 2188 4044 
L 1331 1722 
L 3047 1722 
L 2188 4044 
z
M 1831 4666 
L 2547 4666 
L 4325 0 
L 3669 0 
L 3244 1197 
L 1141 1197 
L 716 0 
L 50 0 
L 1831 4666 
z
" transform="scale(0.015625)"/>
       <path id="DejaVuSans-6e" d="M 3513 2113 
L 3513 0 
L 2938 0 
L 2938 2094 
Q 2938 2591 2744 2837 
Q 2550 3084 2163 3084 
Q 1697 3084 1428 2787 
Q 1159 2491 1159 1978 
L 1159 0 
L 581 0 
L 581 3500 
L 1159 3500 
L 1159 2956 
Q 1366 3272 1645 3428 
Q 1925 3584 2291 3584 
Q 2894 3584 3203 3211 
Q 3513 2838 3513 2113 
z
" transform="scale(0.015625)"/>
       <path id="DejaVuSans-79" d="M 2059 -325 
Q 1816 -950 1584 -1140 
Q 1353 -1331 966 -1331 
L 506 -1331 
L 506 -850 
L 844 -850 
Q 1081 -850 1212 -737 
Q 1344 -625 1503 -206 
L 1606 56 
L 191 3500 
L 800 3500 
L 1894 763 
L 2988 3500 
L 3597 3500 
L 2059 -325 
z
" transform="scale(0.015625)"/>
       <path id="DejaVuSans-74" d="M 1172 4494 
L 1172 3500 
L 2356 3500 
L 2356 3053 
L 1172 3053 
L 1172 1153 
Q 1172 725 1289 603 
Q 1406 481 1766 481 
L 2356 481 
L 2356 0 
L 1766 0 
Q 1100 0 847 248 
Q 594 497 594 1153 
L 594 3053 
L 172 3053 
L 172 3500 
L 594 3500 
L 594 4494 
L 1172 4494 
z
" transform="scale(0.015625)"/>
       <path id="DejaVuSans-63" d="M 3122 3366 
L 3122 2828 
Q 2878 2963 2633 3030 
Q 2388 3097 2138 3097 
Q 1578 3097 1268 2742 
Q 959 2388 959 1747 
Q 959 1106 1268 751 
Q 1578 397 2138 397 
Q 2388 397 2633 464 
Q 2878 531 3122 666 
L 3122 134 
Q 2881 22 2623 -34 
Q 2366 -91 2075 -91 
Q 1284 -91 818 406 
Q 353 903 353 1747 
Q 353 2603 823 3093 
Q 1294 3584 2113 3584 
Q 2378 3584 2631 3529 
Q 2884 3475 3122 3366 
z
" transform="scale(0.015625)"/>
       <path id="DejaVuSans-43" d="M 4122 4306 
L 4122 3641 
Q 3803 3938 3442 4084 
Q 3081 4231 2675 4231 
Q 1875 4231 1450 3742 
Q 1025 3253 1025 2328 
Q 1025 1406 1450 917 
Q 1875 428 2675 428 
Q 3081 428 3442 575 
Q 3803 722 4122 1019 
L 4122 359 
Q 3791 134 3420 21 
Q 3050 -91 2638 -91 
Q 1578 -91 968 557 
Q 359 1206 359 2328 
Q 359 3453 968 4101 
Q 1578 4750 2638 4750 
Q 3056 4750 3426 4639 
Q 3797 4528 4122 4306 
z
" transform="scale(0.015625)"/>
       <path id="DejaVuSans-73" d="M 2834 3397 
L 2834 2853 
Q 2591 2978 2328 3040 
Q 2066 3103 1784 3103 
Q 1356 3103 1142 2972 
Q 928 2841 928 2578 
Q 928 2378 1081 2264 
Q 1234 2150 1697 2047 
L 1894 2003 
Q 2506 1872 2764 1633 
Q 3022 1394 3022 966 
Q 3022 478 2636 193 
Q 2250 -91 1575 -91 
Q 1294 -91 989 -36 
Q 684 19 347 128 
L 347 722 
Q 666 556 975 473 
Q 1284 391 1588 391 
Q 1994 391 2212 530 
Q 2431 669 2431 922 
Q 2431 1156 2273 1281 
Q 2116 1406 1581 1522 
L 1381 1569 
Q 847 1681 609 1914 
Q 372 2147 372 2553 
Q 372 3047 722 3315 
Q 1072 3584 1716 3584 
Q 2034 3584 2315 3537 
Q 2597 3491 2834 3397 
z
" transform="scale(0.015625)"/>
       <path id="DejaVuSans-66" d="M 2375 4863 
L 2375 4384 
L 1825 4384 
Q 1516 4384 1395 4259 
Q 1275 4134 1275 3809 
L 1275 3500 
L 2222 3500 
L 2222 3053 
L 1275 3053 
L 1275 0 
L 697 0 
L 697 3053 
L 147 3053 
L 147 3500 
L 697 3500 
L 697 3744 
Q 697 4328 969 4595 
Q 1241 4863 1831 4863 
L 2375 4863 
z
" transform="scale(0.015625)"/>
       <path id="DejaVuSans-6f" d="M 1959 3097 
Q 1497 3097 1228 2736 
Q 959 2375 959 1747 
Q 959 1119 1226 758 
Q 1494 397 1959 397 
Q 2419 397 2687 759 
Q 2956 1122 2956 1747 
Q 2956 2369 2687 2733 
Q 2419 3097 1959 3097 
z
M 1959 3584 
Q 2709 3584 3137 3096 
Q 3566 2609 3566 1747 
Q 3566 888 3137 398 
Q 2709 -91 1959 -91 
Q 1206 -91 779 398 
Q 353 888 353 1747 
Q 353 2609 779 3096 
Q 1206 3584 1959 3584 
z
" transform="scale(0.015625)"/>
       <path id="DejaVuSans-45" d="M 628 4666 
L 3578 4666 
L 3578 4134 
L 1259 4134 
L 1259 2753 
L 3481 2753 
L 3481 2222 
L 1259 2222 
L 1259 531 
L 3634 531 
L 3634 0 
L 628 0 
L 628 4666 
z
" transform="scale(0.015625)"/>
       <path id="DejaVuSans-72" d="M 2631 2963 
Q 2534 3019 2420 3045 
Q 2306 3072 2169 3072 
Q 1681 3072 1420 2755 
Q 1159 2438 1159 1844 
L 1159 0 
L 581 0 
L 581 3500 
L 1159 3500 
L 1159 2956 
Q 1341 3275 1631 3429 
Q 1922 3584 2338 3584 
Q 2397 3584 2469 3576 
Q 2541 3569 2628 3553 
L 2631 2963 
z
" transform="scale(0.015625)"/>
      </defs>
      <use xlink:href="#DejaVuSans-41"/>
      <use xlink:href="#DejaVuSans-6e" x="68.408203"/>
      <use xlink:href="#DejaVuSans-61" x="131.787109"/>
      <use xlink:href="#DejaVuSans-6c" x="193.066406"/>
      <use xlink:href="#DejaVuSans-79" x="220.849609"/>
      <use xlink:href="#DejaVuSans-74" x="280.029297"/>
      <use xlink:href="#DejaVuSans-69" x="319.238281"/>
      <use xlink:href="#DejaVuSans-63" x="347.021484"/>
      <use xlink:href="#DejaVuSans-20" x="402.001953"/>
      <use xlink:href="#DejaVuSans-43" x="433.789062"/>
      <use xlink:href="#DejaVuSans-6c" x="503.613281"/>
      <use xlink:href="#DejaVuSans-61" x="531.396484"/>
      <use xlink:href="#DejaVuSans-73" x="592.675781"/>
      <use xlink:href="#DejaVuSans-73" x="644.775391"/>
      <use xlink:href="#DejaVuSans-69" x="696.875"/>
      <use xlink:href="#DejaVuSans-66" x="724.658203"/>
      <use xlink:href="#DejaVuSans-69" x="759.863281"/>
      <use xlink:href="#DejaVuSans-63" x="787.646484"/>
      <use xlink:href="#DejaVuSans-61" x="842.626953"/>
      <use xlink:href="#DejaVuSans-74" x="903.90625"/>
      <use xlink:href="#DejaVuSans-69" x="943.115234"/>
      <use xlink:href="#DejaVuSans-6f" x="970.898438"/>
      <use xlink:href="#DejaVuSans-6e" x="1032.080078"/>
      <use xlink:href="#DejaVuSans-20" x="1095.458984"/>
      <use xlink:href="#DejaVuSans-45" x="1127.246094"/>
      <use xlink:href="#DejaVuSans-72" x="1190.429688"/>
      <use xlink:href="#DejaVuSans-72" x="1229.792969"/>
      <use xlink:href="#DejaVuSans-6f" x="1268.65625"/>
      <use xlink:href="#DejaVuSans-72" x="1329.837891"/>
     </g>
    </g>
   </g>
   <g id="line2d_13">
    <path d="M 48.539141 18.913279 
L 50.112658 24.163163 
L 51.686174 28.409691 
L 53.25969 32.066684 
L 54.833206 35.529764 
L 56.406723 38.65484 
L 57.980239 41.568872 
L 59.553755 44.334855 
L 61.127272 46.992958 
L 62.700788 49.498972 
L 64.274304 51.974295 
L 65.84782 54.311908 
L 67.421337 56.668729 
L 68.994853 58.863871 
L 70.568369 61.054996 
L 72.141886 63.193824 
L 73.715402 65.21478 
L 75.288918 67.287206 
L 76.862434 69.264962 
L 78.435951 71.192181 
L 80.009467 73.080529 
L 81.582983 74.907243 
L 83.1565 76.808524 
L 84.730016 78.614888 
L 86.303532 80.43396 
L 87.877048 82.177037 
L 89.450565 83.958737 
L 91.024081 85.751537 
L 92.597597 87.535675 
L 94.171114 89.250839 
L 95.74463 90.730258 
L 97.318146 92.384746 
L 98.891662 93.917641 
L 100.465179 95.405098 
L 102.038695 96.992538 
L 103.612211 98.441161 
L 105.185727 99.713962 
L 106.759244 100.890838 
L 108.33276 102.173991 
L 109.906276 102.999726 
L 111.479793 103.598089 
L 113.053309 104.159246 
L 114.626825 104.448682 
L 116.200341 104.710782 
L 117.773858 104.465926 
L 119.347374 102.689335 
L 120.92089 99.455059 
L 122.494407 93.615724 
L 124.067923 85.988312 
L 125.641439 68.866541 
L 127.214955 88.826908 
L 128.788472 101.513046 
L 130.361988 107.572929 
L 131.935504 110.91098 
L 133.509021 113.421904 
L 135.082537 118.144523 
L 136.656053 120.768502 
L 138.229569 122.444866 
L 139.803086 124.118197 
L 141.376602 125.78139 
L 142.950118 127.353576 
L 144.523635 128.628691 
L 146.097151 130.072232 
L 147.670667 131.18262 
L 149.244183 132.041324 
L 150.8177 132.65454 
L 152.391216 133.260987 
L 153.964732 133.810003 
L 155.538249 134.36369 
L 157.111765 134.815947 
L 158.685281 135.273558 
L 160.258797 135.671155 
L 161.832314 136.104426 
L 163.40583 136.516232 
L 164.979346 136.821005 
L 166.552863 137.153121 
L 168.126379 137.485132 
L 169.699895 137.766165 
L 171.273411 138.048974 
L 172.846928 138.299566 
L 174.420444 138.552922 
L 175.99396 138.764454 
L 177.567477 139.013958 
L 179.140993 139.242747 
L 180.714509 139.424041 
L 182.288025 139.643203 
L 183.861542 139.850494 
L 185.435058 140.057118 
L 187.008574 140.210551 
L 188.582091 140.368627 
L 190.155607 140.562922 
L 191.729123 140.711468 
L 193.302639 140.834467 
L 194.876156 140.966003 
L 196.449672 141.101764 
L 198.023188 141.203334 
L 199.596704 141.336697 
L 201.170221 141.452602 
L 202.743737 141.597069 
L 204.317253 141.701191 
L 205.89077 141.815863 
L 207.464286 141.912881 
L 209.037802 142.006698 
L 210.611318 142.119463 
L 212.184835 142.229076 
L 213.758351 142.304413 
L 215.331867 142.392397 
L 216.905384 142.468663 
L 218.4789 142.530283 
L 220.052416 142.617377 
L 221.625932 142.68888 
L 223.199449 142.781989 
L 224.772965 142.852344 
L 226.346481 142.920597 
L 227.919998 143.006879 
L 229.493514 143.068389 
L 231.06703 143.139023 
L 232.640546 143.20002 
L 234.214063 143.275393 
L 235.787579 143.331918 
L 237.361095 143.399808 
L 238.934612 143.459698 
L 240.508128 143.506426 
L 242.081644 143.561717 
" clip-path="url(#pb93ad26dd5)" style="fill: none; stroke: #4c72b0; stroke-width: 1.5; stroke-linecap: square"/>
   </g>
   <g id="line2d_14">
    <path d="M 48.539141 22.147132 
L 50.112658 28.516053 
L 51.686174 33.367705 
L 53.25969 37.436735 
L 54.833206 41.034608 
L 56.406723 44.283994 
L 57.980239 47.299302 
L 59.553755 50.110866 
L 61.127272 52.788314 
L 62.700788 55.330698 
L 64.274304 57.772363 
L 65.84782 60.128327 
L 67.421337 62.415606 
L 68.994853 64.640099 
L 70.568369 66.814 
L 72.141886 68.933748 
L 73.715402 71.008991 
L 75.288918 73.0425 
L 76.862434 75.047263 
L 78.435951 77.022868 
L 80.009467 78.976144 
L 81.582983 80.915481 
L 83.1565 82.830955 
L 84.730016 84.723943 
L 86.303532 86.603832 
L 87.877048 88.471531 
L 89.450565 90.327865 
L 91.024081 92.178999 
L 92.597597 94.023161 
L 94.171114 95.862901 
L 95.74463 97.697664 
L 97.318146 99.532087 
L 98.891662 101.374848 
L 100.465179 103.226812 
L 102.038695 105.080192 
L 103.612211 106.946546 
L 105.185727 108.822179 
L 106.759244 110.715443 
L 108.33276 112.640588 
L 109.906276 114.579957 
L 111.479793 116.548911 
L 113.053309 118.547363 
L 114.626825 120.587848 
L 116.200341 122.665846 
L 117.773858 124.805752 
L 119.347374 126.995102 
L 120.92089 129.233498 
L 122.494407 131.534327 
L 124.067923 133.894155 
L 125.641439 136.295435 
L 127.214955 137.335802 
L 128.788472 138.163056 
L 130.361988 138.868179 
L 131.935504 139.472052 
L 133.509021 139.987056 
L 135.082537 140.434395 
L 136.656053 140.833191 
L 138.229569 141.196817 
L 139.803086 141.521323 
L 141.376602 141.815197 
L 142.950118 142.084164 
L 144.523635 142.32316 
L 146.097151 142.547323 
L 147.670667 142.754787 
L 149.244183 142.938681 
L 150.8177 143.105723 
L 152.391216 143.261554 
L 153.964732 143.406623 
L 155.538249 143.541088 
L 157.111765 143.667449 
L 158.685281 143.783944 
L 160.258797 143.89392 
L 161.832314 143.997036 
L 163.40583 144.095901 
L 164.979346 144.188915 
L 166.552863 144.276894 
L 168.126379 144.35977 
L 169.699895 144.438653 
L 171.273411 144.514356 
L 172.846928 144.586989 
L 174.420444 144.65577 
L 175.99396 144.721175 
L 177.567477 144.783441 
L 179.140993 144.843327 
L 180.714509 144.900816 
L 182.288025 144.955816 
L 183.861542 145.008405 
L 185.435058 145.059248 
L 187.008574 145.108346 
L 188.582091 145.155299 
L 190.155607 145.201014 
L 191.729123 145.244883 
L 193.302639 145.287131 
L 194.876156 145.328234 
L 196.449672 145.368065 
L 198.023188 145.406878 
L 199.596704 145.444351 
L 201.170221 145.480913 
L 202.743737 145.516605 
L 204.317253 145.551345 
L 205.89077 145.584922 
L 207.464286 145.617702 
L 209.037802 145.649731 
L 210.611318 145.680916 
L 212.184835 145.711456 
L 213.758351 145.741338 
L 215.331867 145.770413 
L 216.905384 145.798842 
L 218.4789 145.826689 
L 220.052416 145.853843 
L 221.625932 145.880483 
L 223.199449 145.906527 
L 224.772965 145.932024 
L 226.346481 145.956982 
L 227.919998 145.981295 
L 229.493514 146.005115 
L 231.06703 146.02845 
L 232.640546 146.051346 
L 234.214063 146.073814 
L 235.787579 146.095881 
L 237.361095 146.117521 
L 238.934612 146.138628 
L 240.508128 146.159361 
L 242.081644 146.1797 
" clip-path="url(#pb93ad26dd5)" style="fill: none; stroke: #dd8452; stroke-width: 1.5; stroke-linecap: square"/>
   </g>
   <g id="line2d_15">
    <path d="M 48.539141 17.17007 
L 50.112658 21.562422 
L 51.686174 25.399747 
L 53.25969 28.83064 
L 54.833206 31.981249 
L 56.406723 34.955565 
L 57.980239 37.761679 
L 59.553755 40.450606 
L 61.127272 43.003247 
L 62.700788 45.550899 
L 64.274304 48.004622 
L 65.84782 50.468666 
L 67.421337 52.798714 
L 68.994853 55.09408 
L 70.568369 57.385427 
L 72.141886 59.656453 
L 73.715402 61.833282 
L 75.288918 64.047138 
L 76.862434 66.159805 
L 78.435951 68.312976 
L 80.009467 70.487176 
L 81.582983 72.551399 
L 83.1565 74.638962 
L 84.730016 76.754156 
L 86.303532 78.806228 
L 87.877048 80.90375 
L 89.450565 82.863943 
L 91.024081 84.935935 
L 92.597597 87.018644 
L 94.171114 89.050475 
L 95.74463 91.095396 
L 97.318146 93.163697 
L 98.891662 95.274497 
L 100.465179 97.329547 
L 102.038695 99.479692 
L 103.612211 101.566785 
L 105.185727 103.726947 
L 106.759244 105.894494 
L 108.33276 108.123718 
L 109.906276 110.413699 
L 111.479793 112.778949 
L 113.053309 115.183826 
L 114.626825 117.608427 
L 116.200341 120.234689 
L 117.773858 122.928604 
L 119.347374 125.762531 
L 120.92089 128.988118 
L 122.494407 132.484707 
L 124.067923 136.360828 
L 125.641439 140.771382 
L 127.214955 141.337056 
L 128.788472 141.749253 
L 130.361988 142.066301 
L 131.935504 142.334018 
L 133.509021 142.574164 
L 135.082537 142.779587 
L 136.656053 142.962881 
L 138.229569 143.137798 
L 139.803086 143.286598 
L 141.376602 143.429242 
L 142.950118 143.559877 
L 144.523635 143.679841 
L 146.097151 143.794502 
L 147.670667 143.895479 
L 149.244183 143.993778 
L 150.8177 144.090535 
L 152.391216 144.177064 
L 153.964732 144.261003 
L 155.538249 144.337695 
L 157.111765 144.412981 
L 158.685281 144.482601 
L 160.258797 144.549038 
L 161.832314 144.614476 
L 163.40583 144.676079 
L 164.979346 144.734181 
L 166.552863 144.79215 
L 168.126379 144.846153 
L 169.699895 144.899736 
L 171.273411 144.949795 
L 172.846928 145.000488 
L 174.420444 145.049197 
L 175.99396 145.093505 
L 177.567477 145.137044 
L 179.140993 145.179907 
L 180.714509 145.222566 
L 182.288025 145.263616 
L 183.861542 145.301533 
L 185.435058 145.339981 
L 187.008574 145.378278 
L 188.582091 145.414019 
L 190.155607 145.449378 
L 191.729123 145.483358 
L 193.302639 145.516865 
L 194.876156 145.550062 
L 196.449672 145.583264 
L 198.023188 145.615368 
L 199.596704 145.644823 
L 201.170221 145.673672 
L 202.743737 145.702627 
L 204.317253 145.731667 
L 205.89077 145.759018 
L 207.464286 145.785797 
L 209.037802 145.812357 
L 210.611318 145.837714 
L 212.184835 145.863219 
L 213.758351 145.888291 
L 215.331867 145.912621 
L 216.905384 145.936311 
L 218.4789 145.960052 
L 220.052416 145.982825 
L 221.625932 146.005241 
L 223.199449 146.027707 
L 224.772965 146.049067 
L 226.346481 146.069912 
L 227.919998 146.09025 
L 229.493514 146.11083 
L 231.06703 146.131122 
L 232.640546 146.15142 
L 234.214063 146.171 
L 235.787579 146.189946 
L 237.361095 146.208905 
L 238.934612 146.227122 
L 240.508128 146.24551 
L 242.081644 146.262858 
" clip-path="url(#pb93ad26dd5)" style="fill: none; stroke: #55a868; stroke-width: 1.5; stroke-linecap: square"/>
   </g>
   <g id="line2d_16"/>
   <g id="line2d_17"/>
   <g id="line2d_18"/>
   <g id="line2d_19">
    <path d="M 125.641439 150.843266 
L 125.641439 10.715431 
" clip-path="url(#pb93ad26dd5)" style="fill: none; stroke-dasharray: 5.55,2.4; stroke-dashoffset: 0; stroke: #808080; stroke-width: 1.5"/>
   </g>
   <g id="patch_3">
    <path d="M 46.965625 150.843266 
L 46.965625 10.715431 
" style="fill: none; stroke: #000000; stroke-width: 0.8; stroke-linejoin: miter; stroke-linecap: square"/>
   </g>
   <g id="patch_4">
    <path d="M 251.758769 150.843266 
L 251.758769 10.715431 
" style="fill: none; stroke: #000000; stroke-width: 0.8; stroke-linejoin: miter; stroke-linecap: square"/>
   </g>
   <g id="patch_5">
    <path d="M 46.965625 150.843266 
L 251.758769 150.843266 
" style="fill: none; stroke: #000000; stroke-width: 0.8; stroke-linejoin: miter; stroke-linecap: square"/>
   </g>
   <g id="patch_6">
    <path d="M 46.965625 10.715431 
L 251.758769 10.715431 
" style="fill: none; stroke: #000000; stroke-width: 0.8; stroke-linejoin: miter; stroke-linecap: square"/>
   </g>
   <g id="legend_1">
    <g id="patch_7">
     <path d="M 96.313457 62.749806 
L 244.758769 62.749806 
Q 246.758769 62.749806 246.758769 60.749806 
L 246.758769 17.715431 
Q 246.758769 15.715431 244.758769 15.715431 
L 96.313457 15.715431 
Q 94.313457 15.715431 94.313457 17.715431 
L 94.313457 60.749806 
Q 94.313457 62.749806 96.313457 62.749806 
z
" style="fill: #ffffff; opacity: 0.8; stroke: #cccccc; stroke-linejoin: miter"/>
    </g>
    <g id="line2d_20">
     <path d="M 98.313457 23.813868 
L 108.313457 23.813868 
L 118.313457 23.813868 
" style="fill: none; stroke: #4c72b0; stroke-width: 1.5; stroke-linecap: square"/>
    </g>
    <g id="text_15">
     <!-- Random -->
     <g transform="translate(126.313457 27.313868) scale(0.1 -0.1)">
      <defs>
       <path id="DejaVuSans-52" d="M 2841 2188 
Q 3044 2119 3236 1894 
Q 3428 1669 3622 1275 
L 4263 0 
L 3584 0 
L 2988 1197 
Q 2756 1666 2539 1819 
Q 2322 1972 1947 1972 
L 1259 1972 
L 1259 0 
L 628 0 
L 628 4666 
L 2053 4666 
Q 2853 4666 3247 4331 
Q 3641 3997 3641 3322 
Q 3641 2881 3436 2590 
Q 3231 2300 2841 2188 
z
M 1259 4147 
L 1259 2491 
L 2053 2491 
Q 2509 2491 2742 2702 
Q 2975 2913 2975 3322 
Q 2975 3731 2742 3939 
Q 2509 4147 2053 4147 
L 1259 4147 
z
" transform="scale(0.015625)"/>
       <path id="DejaVuSans-64" d="M 2906 2969 
L 2906 4863 
L 3481 4863 
L 3481 0 
L 2906 0 
L 2906 525 
Q 2725 213 2448 61 
Q 2172 -91 1784 -91 
Q 1150 -91 751 415 
Q 353 922 353 1747 
Q 353 2572 751 3078 
Q 1150 3584 1784 3584 
Q 2172 3584 2448 3432 
Q 2725 3281 2906 2969 
z
M 947 1747 
Q 947 1113 1208 752 
Q 1469 391 1925 391 
Q 2381 391 2643 752 
Q 2906 1113 2906 1747 
Q 2906 2381 2643 2742 
Q 2381 3103 1925 3103 
Q 1469 3103 1208 2742 
Q 947 2381 947 1747 
z
" transform="scale(0.015625)"/>
      </defs>
      <use xlink:href="#DejaVuSans-52"/>
      <use xlink:href="#DejaVuSans-61" x="67.232422"/>
      <use xlink:href="#DejaVuSans-6e" x="128.511719"/>
      <use xlink:href="#DejaVuSans-64" x="191.890625"/>
      <use xlink:href="#DejaVuSans-6f" x="255.367188"/>
      <use xlink:href="#DejaVuSans-6d" x="316.548828"/>
     </g>
    </g>
    <g id="line2d_21">
     <path d="M 98.313457 38.491993 
L 108.313457 38.491993 
L 118.313457 38.491993 
" style="fill: none; stroke: #dd8452; stroke-width: 1.5; stroke-linecap: square"/>
    </g>
    <g id="text_16">
     <!-- Classification-optimal -->
     <g transform="translate(126.313457 41.991993) scale(0.1 -0.1)">
      <defs>
       <path id="DejaVuSans-2d" d="M 313 2009 
L 1997 2009 
L 1997 1497 
L 313 1497 
L 313 2009 
z
" transform="scale(0.015625)"/>
      </defs>
      <use xlink:href="#DejaVuSans-43"/>
      <use xlink:href="#DejaVuSans-6c" x="69.824219"/>
      <use xlink:href="#DejaVuSans-61" x="97.607422"/>
      <use xlink:href="#DejaVuSans-73" x="158.886719"/>
      <use xlink:href="#DejaVuSans-73" x="210.986328"/>
      <use xlink:href="#DejaVuSans-69" x="263.085938"/>
      <use xlink:href="#DejaVuSans-66" x="290.869141"/>
      <use xlink:href="#DejaVuSans-69" x="326.074219"/>
      <use xlink:href="#DejaVuSans-63" x="353.857422"/>
      <use xlink:href="#DejaVuSans-61" x="408.837891"/>
      <use xlink:href="#DejaVuSans-74" x="470.117188"/>
      <use xlink:href="#DejaVuSans-69" x="509.326172"/>
      <use xlink:href="#DejaVuSans-6f" x="537.109375"/>
      <use xlink:href="#DejaVuSans-6e" x="598.291016"/>
      <use xlink:href="#DejaVuSans-2d" x="661.669922"/>
      <use xlink:href="#DejaVuSans-6f" x="699.628906"/>
      <use xlink:href="#DejaVuSans-70" x="760.810547"/>
      <use xlink:href="#DejaVuSans-74" x="824.287109"/>
      <use xlink:href="#DejaVuSans-69" x="863.496094"/>
      <use xlink:href="#DejaVuSans-6d" x="891.279297"/>
      <use xlink:href="#DejaVuSans-61" x="988.691406"/>
      <use xlink:href="#DejaVuSans-6c" x="1049.970703"/>
     </g>
    </g>
    <g id="line2d_22">
     <path d="M 98.313457 53.170118 
L 108.313457 53.170118 
L 118.313457 53.170118 
" style="fill: none; stroke: #55a868; stroke-width: 1.5; stroke-linecap: square"/>
    </g>
    <g id="text_17">
     <!-- Reconstruction-optimal -->
     <g transform="translate(126.313457 56.670118) scale(0.1 -0.1)">
      <defs>
       <path id="DejaVuSans-75" d="M 544 1381 
L 544 3500 
L 1119 3500 
L 1119 1403 
Q 1119 906 1312 657 
Q 1506 409 1894 409 
Q 2359 409 2629 706 
Q 2900 1003 2900 1516 
L 2900 3500 
L 3475 3500 
L 3475 0 
L 2900 0 
L 2900 538 
Q 2691 219 2414 64 
Q 2138 -91 1772 -91 
Q 1169 -91 856 284 
Q 544 659 544 1381 
z
M 1991 3584 
L 1991 3584 
z
" transform="scale(0.015625)"/>
      </defs>
      <use xlink:href="#DejaVuSans-52"/>
      <use xlink:href="#DejaVuSans-65" x="64.982422"/>
      <use xlink:href="#DejaVuSans-63" x="126.505859"/>
      <use xlink:href="#DejaVuSans-6f" x="181.486328"/>
      <use xlink:href="#DejaVuSans-6e" x="242.667969"/>
      <use xlink:href="#DejaVuSans-73" x="306.046875"/>
      <use xlink:href="#DejaVuSans-74" x="358.146484"/>
      <use xlink:href="#DejaVuSans-72" x="397.355469"/>
      <use xlink:href="#DejaVuSans-75" x="438.46875"/>
      <use xlink:href="#DejaVuSans-63" x="501.847656"/>
      <use xlink:href="#DejaVuSans-74" x="556.828125"/>
      <use xlink:href="#DejaVuSans-69" x="596.037109"/>
      <use xlink:href="#DejaVuSans-6f" x="623.820312"/>
      <use xlink:href="#DejaVuSans-6e" x="685.001953"/>
      <use xlink:href="#DejaVuSans-2d" x="748.380859"/>
      <use xlink:href="#DejaVuSans-6f" x="786.339844"/>
      <use xlink:href="#DejaVuSans-70" x="847.521484"/>
      <use xlink:href="#DejaVuSans-74" x="910.998047"/>
      <use xlink:href="#DejaVuSans-69" x="950.207031"/>
      <use xlink:href="#DejaVuSans-6d" x="977.990234"/>
      <use xlink:href="#DejaVuSans-61" x="1075.402344"/>
      <use xlink:href="#DejaVuSans-6c" x="1136.681641"/>
     </g>
    </g>
   </g>
  </g>
 </g>
 <defs>
  <clipPath id="pb93ad26dd5">
   <rect x="46.965625" y="10.715431" width="204.793144" height="140.127835"/>
  </clipPath>
 </defs>
</svg>
