<?xml version="1.0" encoding="utf-8" standalone="no"?>
<!DOCTYPE svg PUBLIC "-//W3C//DTD SVG 1.1//EN"
  "http://www.w3.org/Graphics/SVG/1.1/DTD/svg11.dtd">
<svg xmlns:xlink="http://www.w3.org/1999/xlink" width="260.398969pt" height="188.3991pt" viewBox="0 0 260.398969 188.3991" xmlns="http://www.w3.org/2000/svg" version="1.1">
 <metadata>
  <rdf:RDF xmlns:dc="http://purl.org/dc/elements/1.1/" xmlns:cc="http://creativecommons.org/ns#" xmlns:rdf="http://www.w3.org/1999/02/22-rdf-syntax-ns#">
   <cc:Work>
    <dc:type rdf:resource="http://purl.org/dc/dcmitype/StillImage"/>
    <dc:date>1980-01-01T00:00:00+00:00</dc:date>
    <dc:format>image/svg+xml</dc:format>
    <dc:creator>
     <cc:Agent>
      <dc:title>Matplotlib v3.7.5, https://matplotlib.org/</dc:title>
     </cc:Agent>
    </dc:creator>
   </cc:Work>
  </rdf:RDF>
 </metadata>
 <defs>
  <style type="text/css">*{stroke-linejoin: round; stroke-linecap: butt}</style>
 </defs>
 <g id="figure_1">
  <g id="patch_1">
   <path d="M -0 188.3991 
L 260.398969 188.3991 
L 260.398969 -0 
L -0 -0 
z
" style="fill: #ffffff"/>
  </g>
  <g id="axes_1">
   <g id="patch_2">
    <path d="M 66.053125 150.84285 
L 250.972425 150.84285 
L 250.972425 8.019724 
L 66.053125 8.019724 
z
" style="fill: #ffffff"/>
   </g>
   <g id="PolyCollection_1"/>
   <g id="PolyCollection_2"/>
   <g id="PolyCollection_3"/>
   <g id="matplotlib.axis_1">
    <g id="xtick_1">
     <g id="line2d_1">
      <defs>
       <path id="m83e92d32b8" d="M 0 0 
L 0 3.5 
" style="stroke: #000000; stroke-width: 0.8"/>
      </defs>
      <g>
       <use xlink:href="#m83e92d32b8" x="66.053125" y="150.84285" style="stroke: #000000; stroke-width: 0.8"/>
      </g>
     </g>
     <g id="text_1">
      <!-- 0 -->
      <g transform="translate(62.871875 165.441287) scale(0.1 -0.1)">
       <defs>
        <path id="DejaVuSans-30" d="M 2034 4250 
Q 1547 4250 1301 3770 
Q 1056 3291 1056 2328 
Q 1056 1369 1301 889 
Q 1547 409 2034 409 
Q 2525 409 2770 889 
Q 3016 1369 3016 2328 
Q 3016 3291 2770 3770 
Q 2525 4250 2034 4250 
z
M 2034 4750 
Q 2819 4750 3233 4129 
Q 3647 3509 3647 2328 
Q 3647 1150 3233 529 
Q 2819 -91 2034 -91 
Q 1250 -91 836 529 
Q 422 1150 422 2328 
Q 422 3509 836 4129 
Q 1250 4750 2034 4750 
z
" transform="scale(0.015625)"/>
       </defs>
       <use xlink:href="#DejaVuSans-30"/>
      </g>
     </g>
    </g>
    <g id="xtick_2">
     <g id="line2d_2">
      <g>
       <use xlink:href="#m83e92d32b8" x="101.573544" y="150.84285" style="stroke: #000000; stroke-width: 0.8"/>
      </g>
     </g>
     <g id="text_2">
      <!-- 25 -->
      <g transform="translate(95.211044 165.441287) scale(0.1 -0.1)">
       <defs>
        <path id="DejaVuSans-32" d="M 1228 531 
L 3431 531 
L 3431 0 
L 469 0 
L 469 531 
Q 828 903 1448 1529 
Q 2069 2156 2228 2338 
Q 2531 2678 2651 2914 
Q 2772 3150 2772 3378 
Q 2772 3750 2511 3984 
Q 2250 4219 1831 4219 
Q 1534 4219 1204 4116 
Q 875 4013 500 3803 
L 500 4441 
Q 881 4594 1212 4672 
Q 1544 4750 1819 4750 
Q 2544 4750 2975 4387 
Q 3406 4025 3406 3419 
Q 3406 3131 3298 2873 
Q 3191 2616 2906 2266 
Q 2828 2175 2409 1742 
Q 1991 1309 1228 531 
z
" transform="scale(0.015625)"/>
        <path id="DejaVuSans-35" d="M 691 4666 
L 3169 4666 
L 3169 4134 
L 1269 4134 
L 1269 2991 
Q 1406 3038 1543 3061 
Q 1681 3084 1819 3084 
Q 2600 3084 3056 2656 
Q 3513 2228 3513 1497 
Q 3513 744 3044 326 
Q 2575 -91 1722 -91 
Q 1428 -91 1123 -41 
Q 819 9 494 109 
L 494 744 
Q 775 591 1075 516 
Q 1375 441 1709 441 
Q 2250 441 2565 725 
Q 2881 1009 2881 1497 
Q 2881 1984 2565 2268 
Q 2250 2553 1709 2553 
Q 1456 2553 1204 2497 
Q 953 2441 691 2322 
L 691 4666 
z
" transform="scale(0.015625)"/>
       </defs>
       <use xlink:href="#DejaVuSans-32"/>
       <use xlink:href="#DejaVuSans-35" x="63.623047"/>
      </g>
     </g>
    </g>
    <g id="xtick_3">
     <g id="line2d_3">
      <g>
       <use xlink:href="#m83e92d32b8" x="137.093963" y="150.84285" style="stroke: #000000; stroke-width: 0.8"/>
      </g>
     </g>
     <g id="text_3">
      <!-- 50 -->
      <g transform="translate(130.731463 165.441287) scale(0.1 -0.1)">
       <use xlink:href="#DejaVuSans-35"/>
       <use xlink:href="#DejaVuSans-30" x="63.623047"/>
      </g>
     </g>
    </g>
    <g id="xtick_4">
     <g id="line2d_4">
      <g>
       <use xlink:href="#m83e92d32b8" x="172.614381" y="150.84285" style="stroke: #000000; stroke-width: 0.8"/>
      </g>
     </g>
     <g id="text_4">
      <!-- 75 -->
      <g transform="translate(166.251881 165.441287) scale(0.1 -0.1)">
       <defs>
        <path id="DejaVuSans-37" d="M 525 4666 
L 3525 4666 
L 3525 4397 
L 1831 0 
L 1172 0 
L 2766 4134 
L 525 4134 
L 525 4666 
z
" transform="scale(0.015625)"/>
       </defs>
       <use xlink:href="#DejaVuSans-37"/>
       <use xlink:href="#DejaVuSans-35" x="63.623047"/>
      </g>
     </g>
    </g>
    <g id="xtick_5">
     <g id="line2d_5">
      <g>
       <use xlink:href="#m83e92d32b8" x="208.1348" y="150.84285" style="stroke: #000000; stroke-width: 0.8"/>
      </g>
     </g>
     <g id="text_5">
      <!-- 100 -->
      <g transform="translate(198.59105 165.441287) scale(0.1 -0.1)">
       <defs>
        <path id="DejaVuSans-31" d="M 794 531 
L 1825 531 
L 1825 4091 
L 703 3866 
L 703 4441 
L 1819 4666 
L 2450 4666 
L 2450 531 
L 3481 531 
L 3481 0 
L 794 0 
L 794 531 
z
" transform="scale(0.015625)"/>
       </defs>
       <use xlink:href="#DejaVuSans-31"/>
       <use xlink:href="#DejaVuSans-30" x="63.623047"/>
       <use xlink:href="#DejaVuSans-30" x="127.246094"/>
      </g>
     </g>
    </g>
    <g id="xtick_6">
     <g id="line2d_6">
      <g>
       <use xlink:href="#m83e92d32b8" x="243.655219" y="150.84285" style="stroke: #000000; stroke-width: 0.8"/>
      </g>
     </g>
     <g id="text_6">
      <!-- 125 -->
      <g transform="translate(234.111469 165.441287) scale(0.1 -0.1)">
       <use xlink:href="#DejaVuSans-31"/>
       <use xlink:href="#DejaVuSans-32" x="63.623047"/>
       <use xlink:href="#DejaVuSans-35" x="127.246094"/>
      </g>
     </g>
    </g>
    <g id="text_7">
     <!-- Sample Size -->
     <g transform="translate(127.911213 179.119412) scale(0.1 -0.1)">
      <defs>
       <path id="DejaVuSans-53" d="M 3425 4513 
L 3425 3897 
Q 3066 4069 2747 4153 
Q 2428 4238 2131 4238 
Q 1616 4238 1336 4038 
Q 1056 3838 1056 3469 
Q 1056 3159 1242 3001 
Q 1428 2844 1947 2747 
L 2328 2669 
Q 3034 2534 3370 2195 
Q 3706 1856 3706 1288 
Q 3706 609 3251 259 
Q 2797 -91 1919 -91 
Q 1588 -91 1214 -16 
Q 841 59 441 206 
L 441 856 
Q 825 641 1194 531 
Q 1563 422 1919 422 
Q 2459 422 2753 634 
Q 3047 847 3047 1241 
Q 3047 1584 2836 1778 
Q 2625 1972 2144 2069 
L 1759 2144 
Q 1053 2284 737 2584 
Q 422 2884 422 3419 
Q 422 4038 858 4394 
Q 1294 4750 2059 4750 
Q 2388 4750 2728 4690 
Q 3069 4631 3425 4513 
z
" transform="scale(0.015625)"/>
       <path id="DejaVuSans-61" d="M 2194 1759 
Q 1497 1759 1228 1600 
Q 959 1441 959 1056 
Q 959 750 1161 570 
Q 1363 391 1709 391 
Q 2188 391 2477 730 
Q 2766 1069 2766 1631 
L 2766 1759 
L 2194 1759 
z
M 3341 1997 
L 3341 0 
L 2766 0 
L 2766 531 
Q 2569 213 2275 61 
Q 1981 -91 1556 -91 
Q 1019 -91 701 211 
Q 384 513 384 1019 
Q 384 1609 779 1909 
Q 1175 2209 1959 2209 
L 2766 2209 
L 2766 2266 
Q 2766 2663 2505 2880 
Q 2244 3097 1772 3097 
Q 1472 3097 1187 3025 
Q 903 2953 641 2809 
L 641 3341 
Q 956 3463 1253 3523 
Q 1550 3584 1831 3584 
Q 2591 3584 2966 3190 
Q 3341 2797 3341 1997 
z
" transform="scale(0.015625)"/>
       <path id="DejaVuSans-6d" d="M 3328 2828 
Q 3544 3216 3844 3400 
Q 4144 3584 4550 3584 
Q 5097 3584 5394 3201 
Q 5691 2819 5691 2113 
L 5691 0 
L 5113 0 
L 5113 2094 
Q 5113 2597 4934 2840 
Q 4756 3084 4391 3084 
Q 3944 3084 3684 2787 
Q 3425 2491 3425 1978 
L 3425 0 
L 2847 0 
L 2847 2094 
Q 2847 2600 2669 2842 
Q 2491 3084 2119 3084 
Q 1678 3084 1418 2786 
Q 1159 2488 1159 1978 
L 1159 0 
L 581 0 
L 581 3500 
L 1159 3500 
L 1159 2956 
Q 1356 3278 1631 3431 
Q 1906 3584 2284 3584 
Q 2666 3584 2933 3390 
Q 3200 3197 3328 2828 
z
" transform="scale(0.015625)"/>
       <path id="DejaVuSans-70" d="M 1159 525 
L 1159 -1331 
L 581 -1331 
L 581 3500 
L 1159 3500 
L 1159 2969 
Q 1341 3281 1617 3432 
Q 1894 3584 2278 3584 
Q 2916 3584 3314 3078 
Q 3713 2572 3713 1747 
Q 3713 922 3314 415 
Q 2916 -91 2278 -91 
Q 1894 -91 1617 61 
Q 1341 213 1159 525 
z
M 3116 1747 
Q 3116 2381 2855 2742 
Q 2594 3103 2138 3103 
Q 1681 3103 1420 2742 
Q 1159 2381 1159 1747 
Q 1159 1113 1420 752 
Q 1681 391 2138 391 
Q 2594 391 2855 752 
Q 3116 1113 3116 1747 
z
" transform="scale(0.015625)"/>
       <path id="DejaVuSans-6c" d="M 603 4863 
L 1178 4863 
L 1178 0 
L 603 0 
L 603 4863 
z
" transform="scale(0.015625)"/>
       <path id="DejaVuSans-65" d="M 3597 1894 
L 3597 1613 
L 953 1613 
Q 991 1019 1311 708 
Q 1631 397 2203 397 
Q 2534 397 2845 478 
Q 3156 559 3463 722 
L 3463 178 
Q 3153 47 2828 -22 
Q 2503 -91 2169 -91 
Q 1331 -91 842 396 
Q 353 884 353 1716 
Q 353 2575 817 3079 
Q 1281 3584 2069 3584 
Q 2775 3584 3186 3129 
Q 3597 2675 3597 1894 
z
M 3022 2063 
Q 3016 2534 2758 2815 
Q 2500 3097 2075 3097 
Q 1594 3097 1305 2825 
Q 1016 2553 972 2059 
L 3022 2063 
z
" transform="scale(0.015625)"/>
       <path id="DejaVuSans-20" transform="scale(0.015625)"/>
       <path id="DejaVuSans-69" d="M 603 3500 
L 1178 3500 
L 1178 0 
L 603 0 
L 603 3500 
z
M 603 4863 
L 1178 4863 
L 1178 4134 
L 603 4134 
L 603 4863 
z
" transform="scale(0.015625)"/>
       <path id="DejaVuSans-7a" d="M 353 3500 
L 3084 3500 
L 3084 2975 
L 922 459 
L 3084 459 
L 3084 0 
L 275 0 
L 275 525 
L 2438 3041 
L 353 3041 
L 353 3500 
z
" transform="scale(0.015625)"/>
      </defs>
      <use xlink:href="#DejaVuSans-53"/>
      <use xlink:href="#DejaVuSans-61" x="63.476562"/>
      <use xlink:href="#DejaVuSans-6d" x="124.755859"/>
      <use xlink:href="#DejaVuSans-70" x="222.167969"/>
      <use xlink:href="#DejaVuSans-6c" x="285.644531"/>
      <use xlink:href="#DejaVuSans-65" x="313.427734"/>
      <use xlink:href="#DejaVuSans-20" x="374.951172"/>
      <use xlink:href="#DejaVuSans-53" x="406.738281"/>
      <use xlink:href="#DejaVuSans-69" x="470.214844"/>
      <use xlink:href="#DejaVuSans-7a" x="497.998047"/>
      <use xlink:href="#DejaVuSans-65" x="550.488281"/>
     </g>
    </g>
   </g>
   <g id="matplotlib.axis_2">
    <g id="ytick_1">
     <g id="line2d_7">
      <defs>
       <path id="m3ced1a6847" d="M 0 0 
L -3.5 0 
" style="stroke: #000000; stroke-width: 0.8"/>
      </defs>
      <g>
       <use xlink:href="#m3ced1a6847" x="66.053125" y="150.84285" style="stroke: #000000; stroke-width: 0.8"/>
      </g>
     </g>
     <g id="text_8">
      <!-- 0 -->
      <g transform="translate(52.690625 154.642068) scale(0.1 -0.1)">
       <use xlink:href="#DejaVuSans-30"/>
      </g>
     </g>
    </g>
    <g id="ytick_2">
     <g id="line2d_8">
      <g>
       <use xlink:href="#m3ced1a6847" x="66.053125" y="127.535578" style="stroke: #000000; stroke-width: 0.8"/>
      </g>
     </g>
     <g id="text_9">
      <!-- 25000 -->
      <g transform="translate(27.240625 131.334797) scale(0.1 -0.1)">
       <use xlink:href="#DejaVuSans-32"/>
       <use xlink:href="#DejaVuSans-35" x="63.623047"/>
       <use xlink:href="#DejaVuSans-30" x="127.246094"/>
       <use xlink:href="#DejaVuSans-30" x="190.869141"/>
       <use xlink:href="#DejaVuSans-30" x="254.492188"/>
      </g>
     </g>
    </g>
    <g id="ytick_3">
     <g id="line2d_9">
      <g>
       <use xlink:href="#m3ced1a6847" x="66.053125" y="104.228306" style="stroke: #000000; stroke-width: 0.8"/>
      </g>
     </g>
     <g id="text_10">
      <!-- 50000 -->
      <g transform="translate(27.240625 108.027525) scale(0.1 -0.1)">
       <use xlink:href="#DejaVuSans-35"/>
       <use xlink:href="#DejaVuSans-30" x="63.623047"/>
       <use xlink:href="#DejaVuSans-30" x="127.246094"/>
       <use xlink:href="#DejaVuSans-30" x="190.869141"/>
       <use xlink:href="#DejaVuSans-30" x="254.492188"/>
      </g>
     </g>
    </g>
    <g id="ytick_4">
     <g id="line2d_10">
      <g>
       <use xlink:href="#m3ced1a6847" x="66.053125" y="80.921034" style="stroke: #000000; stroke-width: 0.8"/>
      </g>
     </g>
     <g id="text_11">
      <!-- 75000 -->
      <g transform="translate(27.240625 84.720253) scale(0.1 -0.1)">
       <use xlink:href="#DejaVuSans-37"/>
       <use xlink:href="#DejaVuSans-35" x="63.623047"/>
       <use xlink:href="#DejaVuSans-30" x="127.246094"/>
       <use xlink:href="#DejaVuSans-30" x="190.869141"/>
       <use xlink:href="#DejaVuSans-30" x="254.492188"/>
      </g>
     </g>
    </g>
    <g id="ytick_5">
     <g id="line2d_11">
      <g>
       <use xlink:href="#m3ced1a6847" x="66.053125" y="57.613762" style="stroke: #000000; stroke-width: 0.8"/>
      </g>
     </g>
     <g id="text_12">
      <!-- 100000 -->
      <g transform="translate(20.878125 61.412981) scale(0.1 -0.1)">
       <use xlink:href="#DejaVuSans-31"/>
       <use xlink:href="#DejaVuSans-30" x="63.623047"/>
       <use xlink:href="#DejaVuSans-30" x="127.246094"/>
       <use xlink:href="#DejaVuSans-30" x="190.869141"/>
       <use xlink:href="#DejaVuSans-30" x="254.492188"/>
       <use xlink:href="#DejaVuSans-30" x="318.115234"/>
      </g>
     </g>
    </g>
    <g id="ytick_6">
     <g id="line2d_12">
      <g>
       <use xlink:href="#m3ced1a6847" x="66.053125" y="34.306491" style="stroke: #000000; stroke-width: 0.8"/>
      </g>
     </g>
     <g id="text_13">
      <!-- 125000 -->
      <g transform="translate(20.878125 38.105709) scale(0.1 -0.1)">
       <use xlink:href="#DejaVuSans-31"/>
       <use xlink:href="#DejaVuSans-32" x="63.623047"/>
       <use xlink:href="#DejaVuSans-35" x="127.246094"/>
       <use xlink:href="#DejaVuSans-30" x="190.869141"/>
       <use xlink:href="#DejaVuSans-30" x="254.492188"/>
       <use xlink:href="#DejaVuSans-30" x="318.115234"/>
      </g>
     </g>
    </g>
    <g id="ytick_7">
     <g id="line2d_13">
      <g>
       <use xlink:href="#m3ced1a6847" x="66.053125" y="10.999219" style="stroke: #000000; stroke-width: 0.8"/>
      </g>
     </g>
     <g id="text_14">
      <!-- 150000 -->
      <g transform="translate(20.878125 14.798438) scale(0.1 -0.1)">
       <use xlink:href="#DejaVuSans-31"/>
       <use xlink:href="#DejaVuSans-35" x="63.623047"/>
       <use xlink:href="#DejaVuSans-30" x="127.246094"/>
       <use xlink:href="#DejaVuSans-30" x="190.869141"/>
       <use xlink:href="#DejaVuSans-30" x="254.492188"/>
       <use xlink:href="#DejaVuSans-30" x="318.115234"/>
      </g>
     </g>
    </g>
    <g id="text_15">
     <!-- Analytic Reconstruction Error -->
     <g transform="translate(14.798438 152.313318) rotate(-90) scale(0.1 -0.1)">
      <defs>
       <path id="DejaVuSans-41" d="M 2188 4044 
L 1331 1722 
L 3047 1722 
L 2188 4044 
z
M 1831 4666 
L 2547 4666 
L 4325 0 
L 3669 0 
L 3244 1197 
L 1141 1197 
L 716 0 
L 50 0 
L 1831 4666 
z
" transform="scale(0.015625)"/>
       <path id="DejaVuSans-6e" d="M 3513 2113 
L 3513 0 
L 2938 0 
L 2938 2094 
Q 2938 2591 2744 2837 
Q 2550 3084 2163 3084 
Q 1697 3084 1428 2787 
Q 1159 2491 1159 1978 
L 1159 0 
L 581 0 
L 581 3500 
L 1159 3500 
L 1159 2956 
Q 1366 3272 1645 3428 
Q 1925 3584 2291 3584 
Q 2894 3584 3203 3211 
Q 3513 2838 3513 2113 
z
" transform="scale(0.015625)"/>
       <path id="DejaVuSans-79" d="M 2059 -325 
Q 1816 -950 1584 -1140 
Q 1353 -1331 966 -1331 
L 506 -1331 
L 506 -850 
L 844 -850 
Q 1081 -850 1212 -737 
Q 1344 -625 1503 -206 
L 1606 56 
L 191 3500 
L 800 3500 
L 1894 763 
L 2988 3500 
L 3597 3500 
L 2059 -325 
z
" transform="scale(0.015625)"/>
       <path id="DejaVuSans-74" d="M 1172 4494 
L 1172 3500 
L 2356 3500 
L 2356 3053 
L 1172 3053 
L 1172 1153 
Q 1172 725 1289 603 
Q 1406 481 1766 481 
L 2356 481 
L 2356 0 
L 1766 0 
Q 1100 0 847 248 
Q 594 497 594 1153 
L 594 3053 
L 172 3053 
L 172 3500 
L 594 3500 
L 594 4494 
L 1172 4494 
z
" transform="scale(0.015625)"/>
       <path id="DejaVuSans-63" d="M 3122 3366 
L 3122 2828 
Q 2878 2963 2633 3030 
Q 2388 3097 2138 3097 
Q 1578 3097 1268 2742 
Q 959 2388 959 1747 
Q 959 1106 1268 751 
Q 1578 397 2138 397 
Q 2388 397 2633 464 
Q 2878 531 3122 666 
L 3122 134 
Q 2881 22 2623 -34 
Q 2366 -91 2075 -91 
Q 1284 -91 818 406 
Q 353 903 353 1747 
Q 353 2603 823 3093 
Q 1294 3584 2113 3584 
Q 2378 3584 2631 3529 
Q 2884 3475 3122 3366 
z
" transform="scale(0.015625)"/>
       <path id="DejaVuSans-52" d="M 2841 2188 
Q 3044 2119 3236 1894 
Q 3428 1669 3622 1275 
L 4263 0 
L 3584 0 
L 2988 1197 
Q 2756 1666 2539 1819 
Q 2322 1972 1947 1972 
L 1259 1972 
L 1259 0 
L 628 0 
L 628 4666 
L 2053 4666 
Q 2853 4666 3247 4331 
Q 3641 3997 3641 3322 
Q 3641 2881 3436 2590 
Q 3231 2300 2841 2188 
z
M 1259 4147 
L 1259 2491 
L 2053 2491 
Q 2509 2491 2742 2702 
Q 2975 2913 2975 3322 
Q 2975 3731 2742 3939 
Q 2509 4147 2053 4147 
L 1259 4147 
z
" transform="scale(0.015625)"/>
       <path id="DejaVuSans-6f" d="M 1959 3097 
Q 1497 3097 1228 2736 
Q 959 2375 959 1747 
Q 959 1119 1226 758 
Q 1494 397 1959 397 
Q 2419 397 2687 759 
Q 2956 1122 2956 1747 
Q 2956 2369 2687 2733 
Q 2419 3097 1959 3097 
z
M 1959 3584 
Q 2709 3584 3137 3096 
Q 3566 2609 3566 1747 
Q 3566 888 3137 398 
Q 2709 -91 1959 -91 
Q 1206 -91 779 398 
Q 353 888 353 1747 
Q 353 2609 779 3096 
Q 1206 3584 1959 3584 
z
" transform="scale(0.015625)"/>
       <path id="DejaVuSans-73" d="M 2834 3397 
L 2834 2853 
Q 2591 2978 2328 3040 
Q 2066 3103 1784 3103 
Q 1356 3103 1142 2972 
Q 928 2841 928 2578 
Q 928 2378 1081 2264 
Q 1234 2150 1697 2047 
L 1894 2003 
Q 2506 1872 2764 1633 
Q 3022 1394 3022 966 
Q 3022 478 2636 193 
Q 2250 -91 1575 -91 
Q 1294 -91 989 -36 
Q 684 19 347 128 
L 347 722 
Q 666 556 975 473 
Q 1284 391 1588 391 
Q 1994 391 2212 530 
Q 2431 669 2431 922 
Q 2431 1156 2273 1281 
Q 2116 1406 1581 1522 
L 1381 1569 
Q 847 1681 609 1914 
Q 372 2147 372 2553 
Q 372 3047 722 3315 
Q 1072 3584 1716 3584 
Q 2034 3584 2315 3537 
Q 2597 3491 2834 3397 
z
" transform="scale(0.015625)"/>
       <path id="DejaVuSans-72" d="M 2631 2963 
Q 2534 3019 2420 3045 
Q 2306 3072 2169 3072 
Q 1681 3072 1420 2755 
Q 1159 2438 1159 1844 
L 1159 0 
L 581 0 
L 581 3500 
L 1159 3500 
L 1159 2956 
Q 1341 3275 1631 3429 
Q 1922 3584 2338 3584 
Q 2397 3584 2469 3576 
Q 2541 3569 2628 3553 
L 2631 2963 
z
" transform="scale(0.015625)"/>
       <path id="DejaVuSans-75" d="M 544 1381 
L 544 3500 
L 1119 3500 
L 1119 1403 
Q 1119 906 1312 657 
Q 1506 409 1894 409 
Q 2359 409 2629 706 
Q 2900 1003 2900 1516 
L 2900 3500 
L 3475 3500 
L 3475 0 
L 2900 0 
L 2900 538 
Q 2691 219 2414 64 
Q 2138 -91 1772 -91 
Q 1169 -91 856 284 
Q 544 659 544 1381 
z
M 1991 3584 
L 1991 3584 
z
" transform="scale(0.015625)"/>
       <path id="DejaVuSans-45" d="M 628 4666 
L 3578 4666 
L 3578 4134 
L 1259 4134 
L 1259 2753 
L 3481 2753 
L 3481 2222 
L 1259 2222 
L 1259 531 
L 3634 531 
L 3634 0 
L 628 0 
L 628 4666 
z
" transform="scale(0.015625)"/>
      </defs>
      <use xlink:href="#DejaVuSans-41"/>
      <use xlink:href="#DejaVuSans-6e" x="68.408203"/>
      <use xlink:href="#DejaVuSans-61" x="131.787109"/>
      <use xlink:href="#DejaVuSans-6c" x="193.066406"/>
      <use xlink:href="#DejaVuSans-79" x="220.849609"/>
      <use xlink:href="#DejaVuSans-74" x="280.029297"/>
      <use xlink:href="#DejaVuSans-69" x="319.238281"/>
      <use xlink:href="#DejaVuSans-63" x="347.021484"/>
      <use xlink:href="#DejaVuSans-20" x="402.001953"/>
      <use xlink:href="#DejaVuSans-52" x="433.789062"/>
      <use xlink:href="#DejaVuSans-65" x="498.771484"/>
      <use xlink:href="#DejaVuSans-63" x="560.294922"/>
      <use xlink:href="#DejaVuSans-6f" x="615.275391"/>
      <use xlink:href="#DejaVuSans-6e" x="676.457031"/>
      <use xlink:href="#DejaVuSans-73" x="739.835938"/>
      <use xlink:href="#DejaVuSans-74" x="791.935547"/>
      <use xlink:href="#DejaVuSans-72" x="831.144531"/>
      <use xlink:href="#DejaVuSans-75" x="872.257812"/>
      <use xlink:href="#DejaVuSans-63" x="935.636719"/>
      <use xlink:href="#DejaVuSans-74" x="990.617188"/>
      <use xlink:href="#DejaVuSans-69" x="1029.826172"/>
      <use xlink:href="#DejaVuSans-6f" x="1057.609375"/>
      <use xlink:href="#DejaVuSans-6e" x="1118.791016"/>
      <use xlink:href="#DejaVuSans-20" x="1182.169922"/>
      <use xlink:href="#DejaVuSans-45" x="1213.957031"/>
      <use xlink:href="#DejaVuSans-72" x="1277.140625"/>
      <use xlink:href="#DejaVuSans-72" x="1316.503906"/>
      <use xlink:href="#DejaVuSans-6f" x="1355.367188"/>
      <use xlink:href="#DejaVuSans-72" x="1416.548828"/>
     </g>
    </g>
   </g>
   <g id="line2d_14">
    <path d="M 67.473942 147.918259 
L 68.894759 147.976958 
L 70.315575 148.035645 
L 71.736392 148.094446 
L 73.157209 148.152807 
L 74.578026 148.211176 
L 75.998842 148.269705 
L 77.419659 148.32833 
L 78.840476 148.38652 
L 80.261293 148.443847 
L 81.682109 148.501164 
L 83.102926 148.559259 
L 84.523743 148.61684 
L 85.94456 148.674515 
L 87.365376 148.732488 
L 88.786193 148.789226 
L 90.20701 148.841732 
L 91.627827 148.898636 
L 93.048643 148.95569 
L 94.46946 149.011203 
L 95.890277 149.063339 
L 97.311094 149.113603 
L 98.73191 149.169062 
L 100.152727 149.222028 
L 101.573544 149.278025 
L 102.994361 149.331593 
L 104.415177 149.385179 
L 105.835994 149.438169 
L 107.256811 149.491974 
L 108.677628 149.542967 
L 110.098444 149.584165 
L 111.519261 149.632016 
L 112.940078 149.668054 
L 114.360895 149.710867 
L 115.781711 149.754382 
L 117.202528 149.793623 
L 118.623345 149.822939 
L 120.044162 149.843979 
L 121.464978 149.871028 
L 122.885795 149.867546 
L 124.306612 149.838988 
L 125.727429 149.816478 
L 127.148245 149.751959 
L 128.569062 149.705605 
L 129.989879 149.589845 
L 131.410696 149.207627 
L 132.831512 148.452846 
L 134.252329 143.902493 
L 135.673146 119.350848 
L 137.093963 14.820449 
L 138.514779 139.62583 
L 139.935596 148.219338 
L 141.356413 149.152745 
L 142.77723 149.520742 
L 144.198046 149.708816 
L 145.618863 150.12563 
L 147.03968 150.27782 
L 148.460497 150.352352 
L 149.881313 150.424039 
L 151.30213 150.482665 
L 152.722947 150.540792 
L 154.143764 150.577762 
L 155.56458 150.618621 
L 156.985397 150.646721 
L 158.406214 150.666626 
L 159.827031 150.67912 
L 161.247847 150.690866 
L 162.668664 150.701094 
L 164.089481 150.71121 
L 165.510298 150.719114 
L 166.931114 150.726912 
L 168.351931 150.733317 
L 169.772748 150.740633 
L 171.193565 150.74716 
L 172.614381 150.751663 
L 174.035198 150.756427 
L 175.456015 150.760915 
L 176.876832 150.764701 
L 178.297648 150.768309 
L 179.718465 150.771376 
L 181.139282 150.774593 
L 182.560099 150.777 
L 183.980915 150.779847 
L 185.401732 150.782774 
L 186.822549 150.78494 
L 188.243366 150.787558 
L 189.664182 150.789741 
L 191.084999 150.792097 
L 192.505816 150.793596 
L 193.926633 150.795248 
L 195.347449 150.797259 
L 196.768266 150.798673 
L 198.189083 150.79985 
L 199.6099 150.801039 
L 201.030716 150.80231 
L 202.451533 150.803185 
L 203.87235 150.804387 
L 205.293167 150.805378 
L 206.713983 150.806627 
L 208.1348 150.807513 
L 209.555617 150.808466 
L 210.976434 150.809268 
L 212.39725 150.810004 
L 213.818067 150.810929 
L 215.238884 150.811845 
L 216.659701 150.812395 
L 218.080517 150.813065 
L 219.501334 150.813632 
L 220.922151 150.814085 
L 222.342968 150.814741 
L 223.763784 150.815232 
L 225.184601 150.815934 
L 226.605418 150.816433 
L 228.026235 150.816894 
L 229.447051 150.817522 
L 230.867868 150.817953 
L 232.288685 150.818462 
L 233.709502 150.818867 
L 235.130318 150.819375 
L 236.551135 150.819748 
L 237.971952 150.820211 
L 239.392769 150.820604 
L 240.813585 150.820894 
L 242.234402 150.821248 
" clip-path="url(#p44a52b6215)" style="fill: none; stroke: #4c72b0; stroke-width: 1.5; stroke-linecap: square"/>
   </g>
   <g id="line2d_15">
    <path d="M 67.473942 147.918713 
L 68.894759 147.977217 
L 70.315575 148.035899 
L 71.736392 148.094472 
L 73.157209 148.153302 
L 74.578026 148.212151 
L 75.998842 148.270907 
L 77.419659 148.329591 
L 78.840476 148.388355 
L 80.261293 148.446651 
L 81.682109 148.505335 
L 83.102926 148.564108 
L 84.523743 148.622814 
L 85.94456 148.681586 
L 87.365376 148.740279 
L 88.786193 148.798868 
L 90.20701 148.857449 
L 91.627827 148.91589 
L 93.048643 148.974399 
L 94.46946 149.032866 
L 95.890277 149.091213 
L 97.311094 149.149411 
L 98.73191 149.207774 
L 100.152727 149.265931 
L 101.573544 149.324131 
L 102.994361 149.382321 
L 104.415177 149.440377 
L 105.835994 149.498568 
L 107.256811 149.5566 
L 108.677628 149.614519 
L 110.098444 149.672079 
L 111.519261 149.729537 
L 112.940078 149.787144 
L 114.360895 149.844553 
L 115.781711 149.901968 
L 117.202528 149.95914 
L 118.623345 150.016355 
L 120.044162 150.073301 
L 121.464978 150.130184 
L 122.885795 150.186862 
L 124.306612 150.243449 
L 125.727429 150.300042 
L 127.148245 150.356129 
L 128.569062 150.411733 
L 129.989879 150.467357 
L 131.410696 150.522436 
L 132.831512 150.578023 
L 134.252329 150.632545 
L 135.673146 150.68599 
L 137.093963 150.738046 
L 138.514779 150.754896 
L 139.935596 150.767195 
L 141.356413 150.776682 
L 142.77723 150.784427 
L 144.198046 150.790501 
L 145.618863 150.795475 
L 147.03968 150.799538 
L 148.460497 150.803112 
L 149.881313 150.806064 
L 151.30213 150.808677 
L 152.722947 150.81091 
L 154.143764 150.81282 
L 155.56458 150.814552 
L 156.985397 150.816118 
L 158.406214 150.817426 
L 159.827031 150.818599 
L 161.247847 150.819675 
L 162.668664 150.820664 
L 164.089481 150.821515 
L 165.510298 150.822314 
L 166.931114 150.823035 
L 168.351931 150.823698 
L 169.772748 150.824306 
L 171.193565 150.824886 
L 172.614381 150.825401 
L 174.035198 150.825893 
L 175.456015 150.826352 
L 176.876832 150.826774 
L 178.297648 150.827169 
L 179.718465 150.827548 
L 181.139282 150.827898 
L 182.560099 150.828225 
L 183.980915 150.82853 
L 185.401732 150.828831 
L 186.822549 150.829111 
L 188.243366 150.829375 
L 189.664182 150.829626 
L 191.084999 150.829866 
L 192.505816 150.8301 
L 193.926633 150.830317 
L 195.347449 150.830526 
L 196.768266 150.830721 
L 198.189083 150.830911 
L 199.6099 150.831089 
L 201.030716 150.83127 
L 202.451533 150.831443 
L 203.87235 150.831609 
L 205.293167 150.831766 
L 206.713983 150.831917 
L 208.1348 150.832066 
L 209.555617 150.832208 
L 210.976434 150.832343 
L 212.39725 150.832478 
L 213.818067 150.832605 
L 215.238884 150.83273 
L 216.659701 150.832854 
L 218.080517 150.832972 
L 219.501334 150.833089 
L 220.922151 150.833201 
L 222.342968 150.833307 
L 223.763784 150.833412 
L 225.184601 150.833518 
L 226.605418 150.833616 
L 228.026235 150.833712 
L 229.447051 150.833808 
L 230.867868 150.8339 
L 232.288685 150.83399 
L 233.709502 150.834079 
L 235.130318 150.834165 
L 236.551135 150.83425 
L 237.971952 150.834332 
L 239.392769 150.834413 
L 240.813585 150.834489 
L 242.234402 150.834562 
" clip-path="url(#p44a52b6215)" style="fill: none; stroke: #dd8452; stroke-width: 1.5; stroke-linecap: square"/>
   </g>
   <g id="line2d_16">
    <path d="M 67.473942 147.918951 
L 68.894759 147.978372 
L 70.315575 148.037783 
L 71.736392 148.097185 
L 73.157209 148.156583 
L 74.578026 148.215974 
L 75.998842 148.27536 
L 77.419659 148.33474 
L 78.840476 148.394114 
L 80.261293 148.453482 
L 81.682109 148.512844 
L 83.102926 148.5722 
L 84.523743 148.63155 
L 85.94456 148.690894 
L 87.365376 148.750232 
L 88.786193 148.80956 
L 90.20701 148.86888 
L 91.627827 148.928194 
L 93.048643 148.987497 
L 94.46946 149.046792 
L 95.890277 149.106077 
L 97.311094 149.165354 
L 98.73191 149.224622 
L 100.152727 149.283879 
L 101.573544 149.343123 
L 102.994361 149.402354 
L 104.415177 149.46157 
L 105.835994 149.520769 
L 107.256811 149.579953 
L 108.677628 149.639118 
L 110.098444 149.698264 
L 111.519261 149.757388 
L 112.940078 149.816479 
L 114.360895 149.875544 
L 115.781711 149.934567 
L 117.202528 149.993553 
L 118.623345 150.052488 
L 120.044162 150.111369 
L 121.464978 150.170192 
L 122.885795 150.228939 
L 124.306612 150.287594 
L 125.727429 150.346157 
L 127.148245 150.404607 
L 128.569062 150.462891 
L 129.989879 150.520965 
L 131.410696 150.578746 
L 132.831512 150.636135 
L 134.252329 150.692976 
L 135.673146 150.7488 
L 137.093963 150.803115 
L 138.514779 150.807904 
L 139.935596 150.811022 
L 141.356413 150.81334 
L 142.77723 150.815223 
L 144.198046 150.816848 
L 145.618863 150.818187 
L 147.03968 150.81934 
L 148.460497 150.820372 
L 149.881313 150.821279 
L 151.30213 150.822105 
L 152.722947 150.822838 
L 154.143764 150.823503 
L 155.56458 150.824112 
L 156.985397 150.824658 
L 158.406214 150.82516 
L 159.827031 150.825631 
L 161.247847 150.826072 
L 162.668664 150.826482 
L 164.089481 150.826865 
L 165.510298 150.827223 
L 166.931114 150.827558 
L 168.351931 150.827876 
L 169.772748 150.828176 
L 171.193565 150.828462 
L 172.614381 150.828733 
L 174.035198 150.828992 
L 175.456015 150.829241 
L 176.876832 150.829478 
L 178.297648 150.829704 
L 179.718465 150.829922 
L 181.139282 150.83013 
L 182.560099 150.830329 
L 183.980915 150.83052 
L 185.401732 150.830703 
L 186.822549 150.830881 
L 188.243366 150.831052 
L 189.664182 150.831217 
L 191.084999 150.831377 
L 192.505816 150.831532 
L 193.926633 150.83168 
L 195.347449 150.831824 
L 196.768266 150.831965 
L 198.189083 150.832101 
L 199.6099 150.832233 
L 201.030716 150.832361 
L 202.451533 150.832486 
L 203.87235 150.832607 
L 205.293167 150.832725 
L 206.713983 150.83284 
L 208.1348 150.832952 
L 209.555617 150.833061 
L 210.976434 150.833167 
L 212.39725 150.83327 
L 213.818067 150.833371 
L 215.238884 150.833469 
L 216.659701 150.833565 
L 218.080517 150.833659 
L 219.501334 150.83375 
L 220.922151 150.833839 
L 222.342968 150.833927 
L 223.763784 150.834012 
L 225.184601 150.834094 
L 226.605418 150.834175 
L 228.026235 150.834255 
L 229.447051 150.834333 
L 230.867868 150.834409 
L 232.288685 150.834483 
L 233.709502 150.834555 
L 235.130318 150.834626 
L 236.551135 150.834695 
L 237.971952 150.834763 
L 239.392769 150.834829 
L 240.813585 150.834894 
L 242.234402 150.834957 
" clip-path="url(#p44a52b6215)" style="fill: none; stroke: #55a868; stroke-width: 1.5; stroke-linecap: square"/>
   </g>
   <g id="line2d_17"/>
   <g id="line2d_18"/>
   <g id="line2d_19"/>
   <g id="line2d_20">
    <path d="M 137.093963 150.84285 
L 137.093963 8.019724 
" clip-path="url(#p44a52b6215)" style="fill: none; stroke-dasharray: 5.55,2.4; stroke-dashoffset: 0; stroke: #808080; stroke-width: 1.5"/>
   </g>
   <g id="patch_3">
    <path d="M 66.053125 150.84285 
L 66.053125 8.019724 
" style="fill: none; stroke: #000000; stroke-width: 0.8; stroke-linejoin: miter; stroke-linecap: square"/>
   </g>
   <g id="patch_4">
    <path d="M 250.972425 150.84285 
L 250.972425 8.019724 
" style="fill: none; stroke: #000000; stroke-width: 0.8; stroke-linejoin: miter; stroke-linecap: square"/>
   </g>
   <g id="patch_5">
    <path d="M 66.053125 150.84285 
L 250.972425 150.84285 
" style="fill: none; stroke: #000000; stroke-width: 0.8; stroke-linejoin: miter; stroke-linecap: square"/>
   </g>
   <g id="patch_6">
    <path d="M 66.053125 8.019724 
L 250.972425 8.019724 
" style="fill: none; stroke: #000000; stroke-width: 0.8; stroke-linejoin: miter; stroke-linecap: square"/>
   </g>
   <g id="legend_1">
    <g id="patch_7">
     <path d="M 95.527113 60.054099 
L 243.972425 60.054099 
Q 245.972425 60.054099 245.972425 58.054099 
L 245.972425 15.019724 
Q 245.972425 13.019724 243.972425 13.019724 
L 95.527113 13.019724 
Q 93.527113 13.019724 93.527113 15.019724 
L 93.527113 58.054099 
Q 93.527113 60.054099 95.527113 60.054099 
z
" style="fill: #ffffff; opacity: 0.8; stroke: #cccccc; stroke-linejoin: miter"/>
    </g>
    <g id="line2d_21">
     <path d="M 97.527113 21.118161 
L 107.527113 21.118161 
L 117.527113 21.118161 
" style="fill: none; stroke: #4c72b0; stroke-width: 1.5; stroke-linecap: square"/>
    </g>
    <g id="text_16">
     <!-- Random -->
     <g transform="translate(125.527113 24.618161) scale(0.1 -0.1)">
      <defs>
       <path id="DejaVuSans-64" d="M 2906 2969 
L 2906 4863 
L 3481 4863 
L 3481 0 
L 2906 0 
L 2906 525 
Q 2725 213 2448 61 
Q 2172 -91 1784 -91 
Q 1150 -91 751 415 
Q 353 922 353 1747 
Q 353 2572 751 3078 
Q 1150 3584 1784 3584 
Q 2172 3584 2448 3432 
Q 2725 3281 2906 2969 
z
M 947 1747 
Q 947 1113 1208 752 
Q 1469 391 1925 391 
Q 2381 391 2643 752 
Q 2906 1113 2906 1747 
Q 2906 2381 2643 2742 
Q 2381 3103 1925 3103 
Q 1469 3103 1208 2742 
Q 947 2381 947 1747 
z
" transform="scale(0.015625)"/>
      </defs>
      <use xlink:href="#DejaVuSans-52"/>
      <use xlink:href="#DejaVuSans-61" x="67.232422"/>
      <use xlink:href="#DejaVuSans-6e" x="128.511719"/>
      <use xlink:href="#DejaVuSans-64" x="191.890625"/>
      <use xlink:href="#DejaVuSans-6f" x="255.367188"/>
      <use xlink:href="#DejaVuSans-6d" x="316.548828"/>
     </g>
    </g>
    <g id="line2d_22">
     <path d="M 97.527113 35.796286 
L 107.527113 35.796286 
L 117.527113 35.796286 
" style="fill: none; stroke: #dd8452; stroke-width: 1.5; stroke-linecap: square"/>
    </g>
    <g id="text_17">
     <!-- Classification-optimal -->
     <g transform="translate(125.527113 39.296286) scale(0.1 -0.1)">
      <defs>
       <path id="DejaVuSans-43" d="M 4122 4306 
L 4122 3641 
Q 3803 3938 3442 4084 
Q 3081 4231 2675 4231 
Q 1875 4231 1450 3742 
Q 1025 3253 1025 2328 
Q 1025 1406 1450 917 
Q 1875 428 2675 428 
Q 3081 428 3442 575 
Q 3803 722 4122 1019 
L 4122 359 
Q 3791 134 3420 21 
Q 3050 -91 2638 -91 
Q 1578 -91 968 557 
Q 359 1206 359 2328 
Q 359 3453 968 4101 
Q 1578 4750 2638 4750 
Q 3056 4750 3426 4639 
Q 3797 4528 4122 4306 
z
" transform="scale(0.015625)"/>
       <path id="DejaVuSans-66" d="M 2375 4863 
L 2375 4384 
L 1825 4384 
Q 1516 4384 1395 4259 
Q 1275 4134 1275 3809 
L 1275 3500 
L 2222 3500 
L 2222 3053 
L 1275 3053 
L 1275 0 
L 697 0 
L 697 3053 
L 147 3053 
L 147 3500 
L 697 3500 
L 697 3744 
Q 697 4328 969 4595 
Q 1241 4863 1831 4863 
L 2375 4863 
z
" transform="scale(0.015625)"/>
       <path id="DejaVuSans-2d" d="M 313 2009 
L 1997 2009 
L 1997 1497 
L 313 1497 
L 313 2009 
z
" transform="scale(0.015625)"/>
      </defs>
      <use xlink:href="#DejaVuSans-43"/>
      <use xlink:href="#DejaVuSans-6c" x="69.824219"/>
      <use xlink:href="#DejaVuSans-61" x="97.607422"/>
      <use xlink:href="#DejaVuSans-73" x="158.886719"/>
      <use xlink:href="#DejaVuSans-73" x="210.986328"/>
      <use xlink:href="#DejaVuSans-69" x="263.085938"/>
      <use xlink:href="#DejaVuSans-66" x="290.869141"/>
      <use xlink:href="#DejaVuSans-69" x="326.074219"/>
      <use xlink:href="#DejaVuSans-63" x="353.857422"/>
      <use xlink:href="#DejaVuSans-61" x="408.837891"/>
      <use xlink:href="#DejaVuSans-74" x="470.117188"/>
      <use xlink:href="#DejaVuSans-69" x="509.326172"/>
      <use xlink:href="#DejaVuSans-6f" x="537.109375"/>
      <use xlink:href="#DejaVuSans-6e" x="598.291016"/>
      <use xlink:href="#DejaVuSans-2d" x="661.669922"/>
      <use xlink:href="#DejaVuSans-6f" x="699.628906"/>
      <use xlink:href="#DejaVuSans-70" x="760.810547"/>
      <use xlink:href="#DejaVuSans-74" x="824.287109"/>
      <use xlink:href="#DejaVuSans-69" x="863.496094"/>
      <use xlink:href="#DejaVuSans-6d" x="891.279297"/>
      <use xlink:href="#DejaVuSans-61" x="988.691406"/>
      <use xlink:href="#DejaVuSans-6c" x="1049.970703"/>
     </g>
    </g>
    <g id="line2d_23">
     <path d="M 97.527113 50.474411 
L 107.527113 50.474411 
L 117.527113 50.474411 
" style="fill: none; stroke: #55a868; stroke-width: 1.5; stroke-linecap: square"/>
    </g>
    <g id="text_18">
     <!-- Reconstruction-optimal -->
     <g transform="translate(125.527113 53.974411) scale(0.1 -0.1)">
      <use xlink:href="#DejaVuSans-52"/>
      <use xlink:href="#DejaVuSans-65" x="64.982422"/>
      <use xlink:href="#DejaVuSans-63" x="126.505859"/>
      <use xlink:href="#DejaVuSans-6f" x="181.486328"/>
      <use xlink:href="#DejaVuSans-6e" x="242.667969"/>
      <use xlink:href="#DejaVuSans-73" x="306.046875"/>
      <use xlink:href="#DejaVuSans-74" x="358.146484"/>
      <use xlink:href="#DejaVuSans-72" x="397.355469"/>
      <use xlink:href="#DejaVuSans-75" x="438.46875"/>
      <use xlink:href="#DejaVuSans-63" x="501.847656"/>
      <use xlink:href="#DejaVuSans-74" x="556.828125"/>
      <use xlink:href="#DejaVuSans-69" x="596.037109"/>
      <use xlink:href="#DejaVuSans-6f" x="623.820312"/>
      <use xlink:href="#DejaVuSans-6e" x="685.001953"/>
      <use xlink:href="#DejaVuSans-2d" x="748.380859"/>
      <use xlink:href="#DejaVuSans-6f" x="786.339844"/>
      <use xlink:href="#DejaVuSans-70" x="847.521484"/>
      <use xlink:href="#DejaVuSans-74" x="910.998047"/>
      <use xlink:href="#DejaVuSans-69" x="950.207031"/>
      <use xlink:href="#DejaVuSans-6d" x="977.990234"/>
      <use xlink:href="#DejaVuSans-61" x="1075.402344"/>
      <use xlink:href="#DejaVuSans-6c" x="1136.681641"/>
     </g>
    </g>
   </g>
  </g>
 </g>
 <defs>
  <clipPath id="p44a52b6215">
   <rect x="66.053125" y="8.019724" width="184.9193" height="142.823126"/>
  </clipPath>
 </defs>
</svg>
