<?xml version="1.0" encoding="utf-8" standalone="no"?>
<!DOCTYPE svg PUBLIC "-//W3C//DTD SVG 1.1//EN"
  "http://www.w3.org/Graphics/SVG/1.1/DTD/svg11.dtd">
<svg xmlns:xlink="http://www.w3.org/1999/xlink" width="260.39891pt" height="188.399109pt" viewBox="0 0 260.39891 188.399109" xmlns="http://www.w3.org/2000/svg" version="1.1">
 <metadata>
  <rdf:RDF xmlns:dc="http://purl.org/dc/elements/1.1/" xmlns:cc="http://creativecommons.org/ns#" xmlns:rdf="http://www.w3.org/1999/02/22-rdf-syntax-ns#">
   <cc:Work>
    <dc:type rdf:resource="http://purl.org/dc/dcmitype/StillImage"/>
    <dc:date>1980-01-01T00:00:00+00:00</dc:date>
    <dc:format>image/svg+xml</dc:format>
    <dc:creator>
     <cc:Agent>
      <dc:title>Matplotlib v3.7.5, https://matplotlib.org/</dc:title>
     </cc:Agent>
    </dc:creator>
   </cc:Work>
  </rdf:RDF>
 </metadata>
 <defs>
  <style type="text/css">*{stroke-linejoin: round; stroke-linecap: butt}</style>
 </defs>
 <g id="figure_1">
  <g id="patch_1">
   <path d="M 0 188.399109 
L 260.39891 188.399109 
L 260.39891 0 
L 0 0 
z
" style="fill: #ffffff"/>
  </g>
  <g id="axes_1">
   <g id="patch_2">
    <path d="M 46.965625 150.842859 
L 251.758769 150.842859 
L 251.758769 8.052429 
L 46.965625 8.052429 
z
" style="fill: #ffffff"/>
   </g>
   <g id="PolyCollection_1">
    <defs>
     <path id="m23a972c48f" d="M 48.539141 -171.125281 
L 48.539141 -165.791994 
L 50.112658 -161.195071 
L 51.686174 -157.594097 
L 53.25969 -153.818319 
L 54.833206 -149.342449 
L 56.406723 -147.262274 
L 57.980239 -144.989378 
L 59.553755 -140.56726 
L 61.127272 -137.998944 
L 62.700788 -135.918333 
L 64.274304 -134.117846 
L 65.84782 -132.561649 
L 67.421337 -129.868348 
L 68.994853 -126.776492 
L 70.568369 -126.339481 
L 72.141886 -123.979182 
L 73.715402 -122.439154 
L 75.288918 -120.710337 
L 76.862434 -118.070789 
L 78.435951 -115.885732 
L 80.009467 -113.159218 
L 81.582983 -111.811912 
L 83.1565 -109.399609 
L 84.730016 -107.686961 
L 86.303532 -105.257615 
L 87.877048 -103.300241 
L 89.450565 -101.202587 
L 91.024081 -99.45323 
L 92.597597 -97.513774 
L 94.171114 -95.678763 
L 95.74463 -93.790437 
L 97.318146 -92.392 
L 98.891662 -90.24103 
L 100.465179 -89.47189 
L 102.038695 -87.898649 
L 103.612211 -86.727896 
L 105.185727 -84.735998 
L 106.759244 -83.809534 
L 108.33276 -82.165934 
L 109.906276 -80.887239 
L 111.479793 -80.890298 
L 113.053309 -80.243084 
L 114.626825 -78.949967 
L 116.200341 -79.928436 
L 117.773858 -80.36501 
L 119.347374 -81.466716 
L 120.92089 -83.948067 
L 122.494407 -87.357629 
L 124.067923 -95.589175 
L 125.641439 -112.422854 
L 127.214955 -93.068931 
L 128.788472 -79.489676 
L 130.361988 -73.565987 
L 131.935504 -71.012967 
L 133.509021 -68.548223 
L 135.082537 -65.139971 
L 136.656053 -63.479328 
L 138.229569 -62.500422 
L 139.803086 -59.861311 
L 141.376602 -58.30555 
L 142.950118 -57.902626 
L 144.523635 -56.872153 
L 146.097151 -55.893247 
L 147.670667 -55.61356 
L 149.244183 -55.438755 
L 150.8177 -54.669615 
L 152.391216 -53.620351 
L 153.964732 -53.288222 
L 155.538249 -52.726663 
L 157.111765 -51.592618 
L 158.685281 -51.068642 
L 160.258797 -50.788517 
L 161.832314 -50.649111 
L 163.40583 -50.177139 
L 164.979346 -49.722647 
L 166.552863 -49.268155 
L 168.126379 -49.320159 
L 169.699895 -49.022991 
L 171.273411 -48.917672 
L 172.846928 -48.742867 
L 174.420444 -48.830706 
L 175.99396 -48.568937 
L 177.567477 -48.481097 
L 179.140993 -48.428656 
L 180.714509 -48.131051 
L 182.288025 -47.834321 
L 183.861542 -47.79936 
L 185.435058 -47.467668 
L 187.008574 -47.397746 
L 188.582091 -47.240422 
L 190.155607 -47.100141 
L 191.729123 -47.187107 
L 193.302639 -47.030657 
L 194.876156 -46.628169 
L 196.449672 -46.681048 
L 198.023188 -46.628606 
L 199.596704 -46.261517 
L 201.170221 -46.191595 
L 202.743737 -46.051314 
L 204.317253 -45.981829 
L 205.89077 -45.911907 
L 207.464286 -45.737103 
L 209.037802 -45.789107 
L 210.611318 -45.719185 
L 212.184835 -45.492377 
L 213.758351 -45.772064 
L 215.331867 -45.561424 
L 216.905384 -45.614303 
L 218.4789 -45.527337 
L 220.052416 -45.457416 
L 221.625932 -45.579342 
L 223.199449 -45.492377 
L 224.772965 -45.457416 
L 226.346481 -45.61474 
L 227.919998 -45.439935 
L 229.493514 -45.457416 
L 231.06703 -45.24765 
L 232.640546 -44.985443 
L 234.214063 -44.950045 
L 235.787579 -45.090326 
L 237.361095 -44.705756 
L 238.934612 -44.810639 
L 240.508128 -44.670795 
L 242.081644 -44.687839 
L 242.081644 -46.139153 
L 242.081644 -46.139153 
L 240.508128 -46.261954 
L 238.934612 -46.314395 
L 237.361095 -46.209075 
L 235.787579 -46.628606 
L 234.214063 -46.558684 
L 232.640546 -46.453802 
L 231.06703 -46.820891 
L 229.493514 -46.961172 
L 227.919998 -47.083098 
L 226.346481 -47.205898 
L 224.772965 -47.135539 
L 223.199449 -47.187981 
L 221.625932 -47.066055 
L 220.052416 -47.065618 
L 218.4789 -47.240422 
L 216.905384 -47.223379 
L 215.331867 -47.292863 
L 213.758351 -47.257903 
L 212.184835 -47.292863 
L 210.611318 -47.328261 
L 209.037802 -47.695351 
L 207.464286 -47.502629 
L 205.89077 -47.712394 
L 204.317253 -47.852238 
L 202.743737 -47.93964 
L 201.170221 -48.114882 
L 199.596704 -48.254725 
L 198.023188 -48.32421 
L 196.449672 -48.586417 
L 194.876156 -48.500326 
L 193.302639 -48.726261 
L 191.729123 -49.006385 
L 190.155607 -48.936463 
L 188.582091 -49.076307 
L 187.008574 -49.128311 
L 185.435058 -49.355994 
L 183.861542 -49.653162 
L 182.288025 -50.072693 
L 180.714509 -50.439782 
L 179.140993 -50.614587 
L 177.567477 -50.754431 
L 175.99396 -50.876357 
L 174.420444 -50.929235 
L 172.846928 -51.051598 
L 171.273411 -51.173524 
L 169.699895 -51.173961 
L 168.126379 -51.488173 
L 166.552863 -51.541051 
L 164.979346 -51.977625 
L 163.40583 -52.502913 
L 161.832314 -53.307014 
L 160.258797 -54.215561 
L 158.685281 -54.600131 
L 157.111765 -55.230301 
L 155.538249 -56.068052 
L 153.964732 -56.87259 
L 152.391216 -57.292995 
L 150.8177 -58.498272 
L 149.244183 -59.128005 
L 147.670667 -60.193876 
L 146.097151 -60.193439 
L 144.523635 -62.37937 
L 142.950118 -63.724928 
L 141.376602 -65.055191 
L 139.803086 -66.540155 
L 138.229569 -70.211925 
L 136.656053 -71.678098 
L 135.082537 -73.00705 
L 133.509021 -77.482483 
L 131.935504 -80.314317 
L 130.361988 -83.42846 
L 128.788472 -89.368756 
L 127.214955 -107.028822 
L 125.641439 -131.813048 
L 124.067923 -112.040906 
L 122.494407 -101.747977 
L 120.92089 -98.374686 
L 119.347374 -95.521439 
L 117.773858 -91.274999 
L 116.200341 -90.662309 
L 114.626825 -90.121289 
L 113.053309 -91.309086 
L 111.479793 -90.541694 
L 109.906276 -90.609868 
L 108.33276 -92.166939 
L 106.759244 -93.82802 
L 105.185727 -94.944584 
L 103.612211 -96.308496 
L 102.038695 -97.641818 
L 100.465179 -99.073467 
L 98.891662 -100.451801 
L 97.318146 -101.885198 
L 95.74463 -102.619377 
L 94.171114 -104.247245 
L 92.597597 -105.712981 
L 91.024081 -107.566346 
L 89.450565 -108.860337 
L 87.877048 -111.288809 
L 86.303532 -113.615458 
L 84.730016 -116.393102 
L 83.1565 -117.81033 
L 81.582983 -120.063998 
L 80.009467 -121.552021 
L 78.435951 -123.281712 
L 76.862434 -124.802075 
L 75.288918 -127.564424 
L 73.715402 -128.822142 
L 72.141886 -131.673205 
L 70.568369 -134.171599 
L 68.994853 -134.135764 
L 67.421337 -136.165682 
L 65.84782 -139.047772 
L 64.274304 -140.971059 
L 62.700788 -142.876428 
L 61.127272 -144.22286 
L 59.553755 -147.282814 
L 57.980239 -150.690192 
L 56.406723 -153.679349 
L 54.833206 -155.165188 
L 53.25969 -159.272658 
L 51.686174 -163.380565 
L 50.112658 -166.24736 
L 48.539141 -171.125281 
z
" style="stroke: #4c72b0; stroke-opacity: 0.2"/>
    </defs>
    <g clip-path="url(#p9c13e7b9aa)">
     <use xlink:href="#m23a972c48f" x="0" y="188.399109" style="fill: #4c72b0; fill-opacity: 0.2; stroke: #4c72b0; stroke-opacity: 0.2"/>
    </g>
   </g>
   <g id="PolyCollection_2">
    <defs>
     <path id="md6cf34ac2e" d="M 48.539141 -172.120792 
L 48.539141 -164.149705 
L 50.112658 -155.164751 
L 51.686174 -151.981997 
L 53.25969 -149.079805 
L 54.833206 -147.454996 
L 56.406723 -142.10554 
L 57.980239 -139.15178 
L 59.553755 -136.285423 
L 61.127272 -134.030444 
L 62.700788 -131.84495 
L 64.274304 -127.036951 
L 65.84782 -124.976005 
L 67.421337 -121.741247 
L 68.994853 -118.647644 
L 70.568369 -117.528895 
L 72.141886 -116.340224 
L 73.715402 -114.958394 
L 75.288918 -112.687246 
L 76.862434 -111.725383 
L 78.435951 -109.243596 
L 80.009467 -107.650689 
L 81.582983 -105.938479 
L 83.1565 -104.523436 
L 84.730016 -103.210217 
L 86.303532 -100.851666 
L 87.877048 -99.224236 
L 89.450565 -98.106361 
L 91.024081 -95.590924 
L 92.597597 -93.737121 
L 94.171114 -91.885067 
L 95.74463 -90.102498 
L 97.318146 -88.02145 
L 98.891662 -85.398507 
L 100.465179 -83.861975 
L 102.038695 -81.867455 
L 103.612211 -80.329612 
L 105.185727 -79.002409 
L 106.759244 -75.995771 
L 108.33276 -74.090401 
L 109.906276 -72.201201 
L 111.479793 -70.436112 
L 113.053309 -68.95071 
L 114.626825 -66.869662 
L 116.200341 -64.563116 
L 117.773858 -63.304523 
L 119.347374 -60.612533 
L 120.92089 -57.850621 
L 122.494407 -54.511417 
L 124.067923 -52.658926 
L 125.641439 -50.212099 
L 127.214955 -49.740127 
L 128.788472 -49.145792 
L 130.361988 -48.988468 
L 131.935504 -48.079047 
L 133.509021 -47.502192 
L 135.082537 -47.362348 
L 136.656053 -46.488325 
L 138.229569 -46.104192 
L 139.803086 -45.684225 
L 141.376602 -45.422018 
L 142.950118 -45.247213 
L 144.523635 -44.933002 
L 146.097151 -44.862643 
L 147.670667 -44.810639 
L 149.244183 -44.74028 
L 150.8177 -44.565475 
L 152.391216 -44.600436 
L 153.964732 -44.548432 
L 155.538249 -44.250827 
L 157.111765 -43.901655 
L 158.685281 -44.09394 
L 160.258797 -44.041499 
L 161.832314 -44.006101 
L 163.40583 -43.884175 
L 164.979346 -43.761812 
L 166.552863 -43.70937 
L 168.126379 -43.517085 
L 169.699895 -43.481687 
L 171.273411 -43.551609 
L 172.846928 -43.359324 
L 174.420444 -43.394722 
L 175.99396 -43.254878 
L 177.567477 -43.097554 
L 179.140993 -43.219917 
L 180.714509 -43.062156 
L 182.288025 -42.992672 
L 183.861542 -42.905269 
L 185.435058 -42.83491 
L 187.008574 -42.730028 
L 188.582091 -42.782469 
L 190.155607 -42.747508 
L 191.729123 -42.695504 
L 193.302639 -42.869871 
L 194.876156 -42.573141 
L 196.449672 -42.502782 
L 198.023188 -42.485738 
L 199.596704 -42.485738 
L 201.170221 -42.468258 
L 202.743737 -42.275973 
L 204.317253 -42.293016 
L 205.89077 -42.241012 
L 207.464286 -42.258055 
L 209.037802 -42.310934 
L 210.611318 -42.241012 
L 212.184835 -42.188571 
L 213.758351 -42.241012 
L 215.331867 -42.205614 
L 216.905384 -42.241012 
L 218.4789 -42.240575 
L 220.052416 -42.15361 
L 221.625932 -42.15361 
L 223.199449 -42.136129 
L 224.772965 -42.101168 
L 226.346481 -42.031246 
L 227.919998 -42.013766 
L 229.493514 -42.013766 
L 231.06703 -41.926364 
L 232.640546 -41.961325 
L 234.214063 -41.873485 
L 235.787579 -41.873922 
L 237.361095 -41.891403 
L 238.934612 -41.838961 
L 240.508128 -41.856442 
L 242.081644 -41.76904 
L 242.081644 -42.94023 
L 242.081644 -42.94023 
L 240.508128 -42.957711 
L 238.934612 -42.975191 
L 237.361095 -43.062593 
L 235.787579 -42.957711 
L 234.214063 -43.045113 
L 232.640546 -43.080511 
L 231.06703 -43.027632 
L 229.493514 -43.167476 
L 227.919998 -43.150433 
L 226.346481 -43.272359 
L 224.772965 -43.289839 
L 223.199449 -43.30732 
L 221.625932 -43.395159 
L 220.052416 -43.359761 
L 218.4789 -43.429683 
L 216.905384 -43.377679 
L 215.331867 -43.289839 
L 213.758351 -43.377679 
L 212.184835 -43.377242 
L 210.611318 -43.4476 
L 209.037802 -43.464644 
L 207.464286 -43.394722 
L 205.89077 -43.412202 
L 204.317253 -43.517085 
L 202.743737 -43.499605 
L 201.170221 -43.587007 
L 199.596704 -43.656929 
L 198.023188 -43.70937 
L 196.449672 -43.621968 
L 194.876156 -43.674409 
L 193.302639 -43.972014 
L 191.729123 -43.762249 
L 190.155607 -43.831733 
L 188.582091 -43.884612 
L 187.008574 -43.884175 
L 185.435058 -44.111421 
L 183.861542 -44.198823 
L 182.288025 -44.234221 
L 180.714509 -44.321623 
L 179.140993 -44.391108 
L 177.567477 -44.566349 
L 175.99396 -44.688276 
L 174.420444 -44.706193 
L 172.846928 -44.740717 
L 171.273411 -44.898041 
L 169.699895 -44.810639 
L 168.126379 -44.86308 
L 166.552863 -45.283048 
L 164.979346 -45.474896 
L 163.40583 -45.545255 
L 161.832314 -45.597259 
L 160.258797 -45.615177 
L 158.685281 -45.807025 
L 157.111765 -45.562298 
L 155.538249 -45.981829 
L 153.964732 -46.191595 
L 152.391216 -46.191595 
L 150.8177 -46.034708 
L 149.244183 -46.191595 
L 147.670667 -46.471282 
L 146.097151 -46.611126 
L 144.523635 -46.594082 
L 142.950118 -47.030657 
L 141.376602 -47.292863 
L 139.803086 -47.53759 
L 138.229569 -48.02748 
L 136.656053 -48.289686 
L 135.082537 -48.936463 
L 133.509021 -49.250674 
L 131.935504 -50.194619 
L 130.361988 -51.471129 
L 128.788472 -51.662977 
L 127.214955 -52.327671 
L 125.641439 -53.288659 
L 124.067923 -56.559253 
L 122.494407 -59.19749 
L 120.92089 -62.746023 
L 119.347374 -65.420095 
L 117.773858 -68.287327 
L 116.200341 -69.808126 
L 114.626825 -72.396108 
L 113.053309 -74.737178 
L 111.479793 -76.171012 
L 109.906276 -78.077256 
L 108.33276 -79.928873 
L 106.759244 -81.554555 
L 105.185727 -85.664647 
L 103.612211 -86.432039 
L 102.038695 -88.477252 
L 100.465179 -89.91065 
L 98.891662 -91.502245 
L 97.318146 -94.001076 
L 95.74463 -96.133692 
L 94.171114 -97.865131 
L 92.597597 -100.399797 
L 91.024081 -102.549456 
L 89.450565 -105.067515 
L 87.877048 -106.726847 
L 86.303532 -108.617796 
L 84.730016 -111.481531 
L 83.1565 -112.757604 
L 81.582983 -113.544225 
L 80.009467 -115.554477 
L 78.435951 -117.704136 
L 76.862434 -119.295295 
L 75.288918 -120.397437 
L 73.715402 -122.56414 
L 72.141886 -124.48699 
L 70.568369 -125.833422 
L 68.994853 -126.707881 
L 67.421337 -129.730689 
L 65.84782 -133.105291 
L 64.274304 -136.042007 
L 62.700788 -140.709289 
L 61.127272 -143.768369 
L 59.553755 -146.12823 
L 57.980239 -148.679502 
L 56.406723 -151.33828 
L 54.833206 -155.6022 
L 53.25969 -157.666204 
L 51.686174 -161.913081 
L 50.112658 -163.870455 
L 48.539141 -172.120792 
z
" style="stroke: #dd8452; stroke-opacity: 0.2"/>
    </defs>
    <g clip-path="url(#p9c13e7b9aa)">
     <use xlink:href="#md6cf34ac2e" x="0" y="188.399109" style="fill: #dd8452; fill-opacity: 0.2; stroke: #dd8452; stroke-opacity: 0.2"/>
    </g>
   </g>
   <g id="PolyCollection_3">
    <defs>
     <path id="m4bb9fe9289" d="M 48.539141 -173.746912 
L 48.539141 -167.960444 
L 50.112658 -163.239847 
L 51.686174 -160.651429 
L 53.25969 -156.545707 
L 54.833206 -153.154062 
L 56.406723 -151.05597 
L 57.980239 -147.803732 
L 59.553755 -145.95124 
L 61.127272 -143.975075 
L 62.700788 -140.848259 
L 64.274304 -137.754218 
L 65.84782 -136.267942 
L 67.421337 -134.045302 
L 68.994853 -133.086062 
L 70.568369 -129.818091 
L 72.141886 -126.791788 
L 73.715402 -124.853205 
L 75.288918 -122.598226 
L 76.862434 -119.329818 
L 78.435951 -118.018347 
L 80.009467 -116.130458 
L 81.582983 -115.378362 
L 83.1565 -112.914054 
L 84.730016 -111.777825 
L 86.303532 -108.387054 
L 87.877048 -106.376364 
L 89.450565 -105.029932 
L 91.024081 -102.705469 
L 92.597597 -100.905419 
L 94.171114 -98.997864 
L 95.74463 -94.873351 
L 97.318146 -92.216759 
L 98.891662 -89.19264 
L 100.465179 -87.374236 
L 102.038695 -84.753478 
L 103.612211 -82.446058 
L 105.185727 -78.495039 
L 106.759244 -76.8864 
L 108.33276 -75.767651 
L 109.906276 -73.950557 
L 111.479793 -71.466585 
L 113.053309 -67.989722 
L 114.626825 -64.930643 
L 116.200341 -63.321567 
L 117.773858 -61.469512 
L 119.347374 -58.497398 
L 120.92089 -55.106627 
L 122.494407 -51.540177 
L 124.067923 -49.178568 
L 125.641439 -47.100141 
L 127.214955 -46.610689 
L 128.788472 -46.209075 
L 130.361988 -46.051314 
L 131.935504 -45.911907 
L 133.509021 -45.49194 
L 135.082537 -45.089889 
L 136.656053 -44.827682 
L 138.229569 -44.653315 
L 139.803086 -44.390671 
L 141.376602 -44.600873 
L 142.950118 -44.670795 
L 144.523635 -44.74028 
L 146.097151 -44.443549 
L 147.670667 -44.233784 
L 149.244183 -44.286225 
L 150.8177 -44.023581 
L 152.391216 -43.884175 
L 153.964732 -43.814253 
L 155.538249 -43.813816 
L 157.111765 -43.936616 
L 158.685281 -43.70937 
L 160.258797 -43.517085 
L 161.832314 -43.202 
L 163.40583 -43.149996 
L 164.979346 -43.377242 
L 166.552863 -43.289839 
L 168.126379 -43.30732 
L 169.699895 -43.342281 
L 171.273411 -43.167476 
L 172.846928 -43.114598 
L 174.420444 -43.167039 
L 175.99396 -43.202 
L 177.567477 -43.167476 
L 179.140993 -43.202437 
L 180.714509 -43.254878 
L 182.288025 -43.202437 
L 183.861542 -43.219917 
L 185.435058 -43.149996 
L 187.008574 -43.132515 
L 188.582091 -43.21948 
L 190.155607 -43.184957 
L 191.729123 -42.94023 
L 193.302639 -42.975191 
L 194.876156 -43.027195 
L 196.449672 -42.852391 
L 198.023188 -42.625582 
L 199.596704 -42.747508 
L 201.170221 -42.782906 
L 202.743737 -42.712984 
L 204.317253 -42.660543 
L 205.89077 -42.53818 
L 207.464286 -42.467821 
L 209.037802 -42.206051 
L 210.611318 -42.293453 
L 212.184835 -42.450777 
L 213.758351 -42.450777 
L 215.331867 -42.415816 
L 216.905384 -42.310934 
L 218.4789 -42.241012 
L 220.052416 -42.118649 
L 221.625932 -42.066207 
L 223.199449 -42.082814 
L 224.772965 -42.118649 
L 226.346481 -42.17109 
L 227.919998 -42.170653 
L 229.493514 -42.101168 
L 231.06703 -41.995849 
L 232.640546 -42.031246 
L 234.214063 -41.943844 
L 235.787579 -41.856442 
L 237.361095 -41.908883 
L 238.934612 -41.76904 
L 240.508128 -41.751559 
L 242.081644 -41.76904 
L 242.081644 -42.940667 
L 242.081644 -42.940667 
L 240.508128 -42.905706 
L 238.934612 -42.94023 
L 237.361095 -43.132515 
L 235.787579 -43.097554 
L 234.214063 -43.149996 
L 232.640546 -43.237398 
L 231.06703 -43.202874 
L 229.493514 -43.255752 
L 227.919998 -43.220354 
L 226.346481 -43.219917 
L 224.772965 -43.149996 
L 223.199449 -43.097991 
L 221.625932 -43.184957 
L 220.052416 -43.115472 
L 218.4789 -43.184957 
L 216.905384 -43.377242 
L 215.331867 -43.464644 
L 213.758351 -43.482124 
L 212.184835 -43.499605 
L 210.611318 -43.429683 
L 209.037802 -43.377679 
L 207.464286 -43.587007 
L 205.89077 -43.69189 
L 204.317253 -43.779292 
L 202.743737 -43.919573 
L 201.170221 -43.867131 
L 199.596704 -43.849214 
L 198.023188 -43.814253 
L 196.449672 -43.989057 
L 194.876156 -44.111421 
L 193.302639 -44.006538 
L 191.729123 -44.07646 
L 190.155607 -44.321623 
L 188.582091 -44.426069 
L 187.008574 -44.268745 
L 185.435058 -44.129338 
L 183.861542 -44.268745 
L 182.288025 -44.286225 
L 180.714509 -44.303706 
L 179.140993 -44.321623 
L 177.567477 -44.286662 
L 175.99396 -44.408588 
L 174.420444 -44.495991 
L 172.846928 -44.356147 
L 171.273411 -44.513908 
L 169.699895 -44.688713 
L 168.126379 -44.565912 
L 166.552863 -44.513908 
L 164.979346 -44.583393 
L 163.40583 -44.304143 
L 161.832314 -44.426069 
L 160.258797 -44.793158 
L 158.685281 -44.898041 
L 157.111765 -45.073283 
L 155.538249 -45.177728 
L 153.964732 -45.090326 
L 152.391216 -45.143204 
L 150.8177 -45.265131 
L 149.244183 -45.527774 
L 147.670667 -45.509857 
L 146.097151 -45.824505 
L 144.523635 -46.017227 
L 142.950118 -46.13959 
L 141.376602 -46.174551 
L 139.803086 -46.034271 
L 138.229569 -46.226556 
L 136.656053 -46.419278 
L 135.082537 -46.593645 
L 133.509021 -47.083535 
L 131.935504 -47.624992 
L 130.361988 -47.67787 
L 128.788472 -47.887636 
L 127.214955 -48.377089 
L 125.641439 -48.936463 
L 124.067923 -53.377373 
L 122.494407 -56.873464 
L 120.92089 -60.439914 
L 119.347374 -63.689967 
L 117.773858 -66.696605 
L 116.200341 -68.549534 
L 114.626825 -70.244701 
L 113.053309 -73.79367 
L 111.479793 -77.569011 
L 109.906276 -81.379751 
L 108.33276 -83.41098 
L 106.759244 -84.788876 
L 105.185727 -86.081993 
L 103.612211 -89.369193 
L 102.038695 -91.081403 
L 100.465179 -94.229196 
L 98.891662 -96.046289 
L 97.318146 -99.210252 
L 95.74463 -101.132665 
L 94.171114 -105.100728 
L 92.597597 -106.551606 
L 91.024081 -108.964346 
L 89.450565 -111.517366 
L 87.877048 -112.268152 
L 86.303532 -114.698372 
L 84.730016 -117.774495 
L 83.1565 -118.840803 
L 81.582983 -121.63855 
L 80.009467 -122.825909 
L 78.435951 -124.294268 
L 76.862434 -125.728976 
L 75.288918 -128.384694 
L 73.715402 -130.605149 
L 72.141886 -132.090988 
L 70.568369 -135.185902 
L 68.994853 -138.261588 
L 67.421337 -139.764907 
L 65.84782 -142.648745 
L 64.274304 -143.907775 
L 62.700788 -147.264023 
L 61.127272 -150.060895 
L 59.553755 -151.092242 
L 57.980239 -153.189897 
L 56.406723 -156.214452 
L 54.833206 -158.171826 
L 53.25969 -161.843159 
L 51.686174 -166.196666 
L 50.112658 -169.29027 
L 48.539141 -173.746912 
z
" style="stroke: #55a868; stroke-opacity: 0.2"/>
    </defs>
    <g clip-path="url(#p9c13e7b9aa)">
     <use xlink:href="#m4bb9fe9289" x="0" y="188.399109" style="fill: #55a868; fill-opacity: 0.2; stroke: #55a868; stroke-opacity: 0.2"/>
    </g>
   </g>
   <g id="matplotlib.axis_1">
    <g id="xtick_1">
     <g id="line2d_1">
      <defs>
       <path id="m7d9340e48f" d="M 0 0 
L 0 3.5 
" style="stroke: #000000; stroke-width: 0.8"/>
      </defs>
      <g>
       <use xlink:href="#m7d9340e48f" x="46.965625" y="150.842859" style="stroke: #000000; stroke-width: 0.8"/>
      </g>
     </g>
     <g id="text_1">
      <!-- 0 -->
      <g transform="translate(43.784375 165.441296) scale(0.1 -0.1)">
       <defs>
        <path id="DejaVuSans-30" d="M 2034 4250 
Q 1547 4250 1301 3770 
Q 1056 3291 1056 2328 
Q 1056 1369 1301 889 
Q 1547 409 2034 409 
Q 2525 409 2770 889 
Q 3016 1369 3016 2328 
Q 3016 3291 2770 3770 
Q 2525 4250 2034 4250 
z
M 2034 4750 
Q 2819 4750 3233 4129 
Q 3647 3509 3647 2328 
Q 3647 1150 3233 529 
Q 2819 -91 2034 -91 
Q 1250 -91 836 529 
Q 422 1150 422 2328 
Q 422 3509 836 4129 
Q 1250 4750 2034 4750 
z
" transform="scale(0.015625)"/>
       </defs>
       <use xlink:href="#DejaVuSans-30"/>
      </g>
     </g>
    </g>
    <g id="xtick_2">
     <g id="line2d_2">
      <g>
       <use xlink:href="#m7d9340e48f" x="86.303532" y="150.842859" style="stroke: #000000; stroke-width: 0.8"/>
      </g>
     </g>
     <g id="text_2">
      <!-- 25 -->
      <g transform="translate(79.941032 165.441296) scale(0.1 -0.1)">
       <defs>
        <path id="DejaVuSans-32" d="M 1228 531 
L 3431 531 
L 3431 0 
L 469 0 
L 469 531 
Q 828 903 1448 1529 
Q 2069 2156 2228 2338 
Q 2531 2678 2651 2914 
Q 2772 3150 2772 3378 
Q 2772 3750 2511 3984 
Q 2250 4219 1831 4219 
Q 1534 4219 1204 4116 
Q 875 4013 500 3803 
L 500 4441 
Q 881 4594 1212 4672 
Q 1544 4750 1819 4750 
Q 2544 4750 2975 4387 
Q 3406 4025 3406 3419 
Q 3406 3131 3298 2873 
Q 3191 2616 2906 2266 
Q 2828 2175 2409 1742 
Q 1991 1309 1228 531 
z
" transform="scale(0.015625)"/>
        <path id="DejaVuSans-35" d="M 691 4666 
L 3169 4666 
L 3169 4134 
L 1269 4134 
L 1269 2991 
Q 1406 3038 1543 3061 
Q 1681 3084 1819 3084 
Q 2600 3084 3056 2656 
Q 3513 2228 3513 1497 
Q 3513 744 3044 326 
Q 2575 -91 1722 -91 
Q 1428 -91 1123 -41 
Q 819 9 494 109 
L 494 744 
Q 775 591 1075 516 
Q 1375 441 1709 441 
Q 2250 441 2565 725 
Q 2881 1009 2881 1497 
Q 2881 1984 2565 2268 
Q 2250 2553 1709 2553 
Q 1456 2553 1204 2497 
Q 953 2441 691 2322 
L 691 4666 
z
" transform="scale(0.015625)"/>
       </defs>
       <use xlink:href="#DejaVuSans-32"/>
       <use xlink:href="#DejaVuSans-35" x="63.623047"/>
      </g>
     </g>
    </g>
    <g id="xtick_3">
     <g id="line2d_3">
      <g>
       <use xlink:href="#m7d9340e48f" x="125.641439" y="150.842859" style="stroke: #000000; stroke-width: 0.8"/>
      </g>
     </g>
     <g id="text_3">
      <!-- 50 -->
      <g transform="translate(119.278939 165.441296) scale(0.1 -0.1)">
       <use xlink:href="#DejaVuSans-35"/>
       <use xlink:href="#DejaVuSans-30" x="63.623047"/>
      </g>
     </g>
    </g>
    <g id="xtick_4">
     <g id="line2d_4">
      <g>
       <use xlink:href="#m7d9340e48f" x="164.979346" y="150.842859" style="stroke: #000000; stroke-width: 0.8"/>
      </g>
     </g>
     <g id="text_4">
      <!-- 75 -->
      <g transform="translate(158.616846 165.441296) scale(0.1 -0.1)">
       <defs>
        <path id="DejaVuSans-37" d="M 525 4666 
L 3525 4666 
L 3525 4397 
L 1831 0 
L 1172 0 
L 2766 4134 
L 525 4134 
L 525 4666 
z
" transform="scale(0.015625)"/>
       </defs>
       <use xlink:href="#DejaVuSans-37"/>
       <use xlink:href="#DejaVuSans-35" x="63.623047"/>
      </g>
     </g>
    </g>
    <g id="xtick_5">
     <g id="line2d_5">
      <g>
       <use xlink:href="#m7d9340e48f" x="204.317253" y="150.842859" style="stroke: #000000; stroke-width: 0.8"/>
      </g>
     </g>
     <g id="text_5">
      <!-- 100 -->
      <g transform="translate(194.773503 165.441296) scale(0.1 -0.1)">
       <defs>
        <path id="DejaVuSans-31" d="M 794 531 
L 1825 531 
L 1825 4091 
L 703 3866 
L 703 4441 
L 1819 4666 
L 2450 4666 
L 2450 531 
L 3481 531 
L 3481 0 
L 794 0 
L 794 531 
z
" transform="scale(0.015625)"/>
       </defs>
       <use xlink:href="#DejaVuSans-31"/>
       <use xlink:href="#DejaVuSans-30" x="63.623047"/>
       <use xlink:href="#DejaVuSans-30" x="127.246094"/>
      </g>
     </g>
    </g>
    <g id="xtick_6">
     <g id="line2d_6">
      <g>
       <use xlink:href="#m7d9340e48f" x="243.65516" y="150.842859" style="stroke: #000000; stroke-width: 0.8"/>
      </g>
     </g>
     <g id="text_6">
      <!-- 125 -->
      <g transform="translate(234.11141 165.441296) scale(0.1 -0.1)">
       <use xlink:href="#DejaVuSans-31"/>
       <use xlink:href="#DejaVuSans-32" x="63.623047"/>
       <use xlink:href="#DejaVuSans-35" x="127.246094"/>
      </g>
     </g>
    </g>
    <g id="text_7">
     <!-- Sample Size -->
     <g transform="translate(118.760635 179.119421) scale(0.1 -0.1)">
      <defs>
       <path id="DejaVuSans-53" d="M 3425 4513 
L 3425 3897 
Q 3066 4069 2747 4153 
Q 2428 4238 2131 4238 
Q 1616 4238 1336 4038 
Q 1056 3838 1056 3469 
Q 1056 3159 1242 3001 
Q 1428 2844 1947 2747 
L 2328 2669 
Q 3034 2534 3370 2195 
Q 3706 1856 3706 1288 
Q 3706 609 3251 259 
Q 2797 -91 1919 -91 
Q 1588 -91 1214 -16 
Q 841 59 441 206 
L 441 856 
Q 825 641 1194 531 
Q 1563 422 1919 422 
Q 2459 422 2753 634 
Q 3047 847 3047 1241 
Q 3047 1584 2836 1778 
Q 2625 1972 2144 2069 
L 1759 2144 
Q 1053 2284 737 2584 
Q 422 2884 422 3419 
Q 422 4038 858 4394 
Q 1294 4750 2059 4750 
Q 2388 4750 2728 4690 
Q 3069 4631 3425 4513 
z
" transform="scale(0.015625)"/>
       <path id="DejaVuSans-61" d="M 2194 1759 
Q 1497 1759 1228 1600 
Q 959 1441 959 1056 
Q 959 750 1161 570 
Q 1363 391 1709 391 
Q 2188 391 2477 730 
Q 2766 1069 2766 1631 
L 2766 1759 
L 2194 1759 
z
M 3341 1997 
L 3341 0 
L 2766 0 
L 2766 531 
Q 2569 213 2275 61 
Q 1981 -91 1556 -91 
Q 1019 -91 701 211 
Q 384 513 384 1019 
Q 384 1609 779 1909 
Q 1175 2209 1959 2209 
L 2766 2209 
L 2766 2266 
Q 2766 2663 2505 2880 
Q 2244 3097 1772 3097 
Q 1472 3097 1187 3025 
Q 903 2953 641 2809 
L 641 3341 
Q 956 3463 1253 3523 
Q 1550 3584 1831 3584 
Q 2591 3584 2966 3190 
Q 3341 2797 3341 1997 
z
" transform="scale(0.015625)"/>
       <path id="DejaVuSans-6d" d="M 3328 2828 
Q 3544 3216 3844 3400 
Q 4144 3584 4550 3584 
Q 5097 3584 5394 3201 
Q 5691 2819 5691 2113 
L 5691 0 
L 5113 0 
L 5113 2094 
Q 5113 2597 4934 2840 
Q 4756 3084 4391 3084 
Q 3944 3084 3684 2787 
Q 3425 2491 3425 1978 
L 3425 0 
L 2847 0 
L 2847 2094 
Q 2847 2600 2669 2842 
Q 2491 3084 2119 3084 
Q 1678 3084 1418 2786 
Q 1159 2488 1159 1978 
L 1159 0 
L 581 0 
L 581 3500 
L 1159 3500 
L 1159 2956 
Q 1356 3278 1631 3431 
Q 1906 3584 2284 3584 
Q 2666 3584 2933 3390 
Q 3200 3197 3328 2828 
z
" transform="scale(0.015625)"/>
       <path id="DejaVuSans-70" d="M 1159 525 
L 1159 -1331 
L 581 -1331 
L 581 3500 
L 1159 3500 
L 1159 2969 
Q 1341 3281 1617 3432 
Q 1894 3584 2278 3584 
Q 2916 3584 3314 3078 
Q 3713 2572 3713 1747 
Q 3713 922 3314 415 
Q 2916 -91 2278 -91 
Q 1894 -91 1617 61 
Q 1341 213 1159 525 
z
M 3116 1747 
Q 3116 2381 2855 2742 
Q 2594 3103 2138 3103 
Q 1681 3103 1420 2742 
Q 1159 2381 1159 1747 
Q 1159 1113 1420 752 
Q 1681 391 2138 391 
Q 2594 391 2855 752 
Q 3116 1113 3116 1747 
z
" transform="scale(0.015625)"/>
       <path id="DejaVuSans-6c" d="M 603 4863 
L 1178 4863 
L 1178 0 
L 603 0 
L 603 4863 
z
" transform="scale(0.015625)"/>
       <path id="DejaVuSans-65" d="M 3597 1894 
L 3597 1613 
L 953 1613 
Q 991 1019 1311 708 
Q 1631 397 2203 397 
Q 2534 397 2845 478 
Q 3156 559 3463 722 
L 3463 178 
Q 3153 47 2828 -22 
Q 2503 -91 2169 -91 
Q 1331 -91 842 396 
Q 353 884 353 1716 
Q 353 2575 817 3079 
Q 1281 3584 2069 3584 
Q 2775 3584 3186 3129 
Q 3597 2675 3597 1894 
z
M 3022 2063 
Q 3016 2534 2758 2815 
Q 2500 3097 2075 3097 
Q 1594 3097 1305 2825 
Q 1016 2553 972 2059 
L 3022 2063 
z
" transform="scale(0.015625)"/>
       <path id="DejaVuSans-20" transform="scale(0.015625)"/>
       <path id="DejaVuSans-69" d="M 603 3500 
L 1178 3500 
L 1178 0 
L 603 0 
L 603 3500 
z
M 603 4863 
L 1178 4863 
L 1178 4134 
L 603 4134 
L 603 4863 
z
" transform="scale(0.015625)"/>
       <path id="DejaVuSans-7a" d="M 353 3500 
L 3084 3500 
L 3084 2975 
L 922 459 
L 3084 459 
L 3084 0 
L 275 0 
L 275 525 
L 2438 3041 
L 353 3041 
L 353 3500 
z
" transform="scale(0.015625)"/>
      </defs>
      <use xlink:href="#DejaVuSans-53"/>
      <use xlink:href="#DejaVuSans-61" x="63.476562"/>
      <use xlink:href="#DejaVuSans-6d" x="124.755859"/>
      <use xlink:href="#DejaVuSans-70" x="222.167969"/>
      <use xlink:href="#DejaVuSans-6c" x="285.644531"/>
      <use xlink:href="#DejaVuSans-65" x="313.427734"/>
      <use xlink:href="#DejaVuSans-20" x="374.951172"/>
      <use xlink:href="#DejaVuSans-53" x="406.738281"/>
      <use xlink:href="#DejaVuSans-69" x="470.214844"/>
      <use xlink:href="#DejaVuSans-7a" x="497.998047"/>
      <use xlink:href="#DejaVuSans-65" x="550.488281"/>
     </g>
    </g>
   </g>
   <g id="matplotlib.axis_2">
    <g id="ytick_1">
     <g id="line2d_7">
      <defs>
       <path id="m6579d9611e" d="M 0 0 
L -3.5 0 
" style="stroke: #000000; stroke-width: 0.8"/>
      </defs>
      <g>
       <use xlink:href="#m6579d9611e" x="46.965625" y="150.842859" style="stroke: #000000; stroke-width: 0.8"/>
      </g>
     </g>
     <g id="text_8">
      <!-- 0 -->
      <g transform="translate(33.603125 154.642077) scale(0.1 -0.1)">
       <use xlink:href="#DejaVuSans-30"/>
      </g>
     </g>
    </g>
    <g id="ytick_2">
     <g id="line2d_8">
      <g>
       <use xlink:href="#m6579d9611e" x="46.965625" y="122.874131" style="stroke: #000000; stroke-width: 0.8"/>
      </g>
     </g>
     <g id="text_9">
      <!-- 50 -->
      <g transform="translate(27.240625 126.673349) scale(0.1 -0.1)">
       <use xlink:href="#DejaVuSans-35"/>
       <use xlink:href="#DejaVuSans-30" x="63.623047"/>
      </g>
     </g>
    </g>
    <g id="ytick_3">
     <g id="line2d_9">
      <g>
       <use xlink:href="#m6579d9611e" x="46.965625" y="94.905403" style="stroke: #000000; stroke-width: 0.8"/>
      </g>
     </g>
     <g id="text_10">
      <!-- 100 -->
      <g transform="translate(20.878125 98.704621) scale(0.1 -0.1)">
       <use xlink:href="#DejaVuSans-31"/>
       <use xlink:href="#DejaVuSans-30" x="63.623047"/>
       <use xlink:href="#DejaVuSans-30" x="127.246094"/>
      </g>
     </g>
    </g>
    <g id="ytick_4">
     <g id="line2d_10">
      <g>
       <use xlink:href="#m6579d9611e" x="46.965625" y="66.936675" style="stroke: #000000; stroke-width: 0.8"/>
      </g>
     </g>
     <g id="text_11">
      <!-- 150 -->
      <g transform="translate(20.878125 70.735893) scale(0.1 -0.1)">
       <use xlink:href="#DejaVuSans-31"/>
       <use xlink:href="#DejaVuSans-35" x="63.623047"/>
       <use xlink:href="#DejaVuSans-30" x="127.246094"/>
      </g>
     </g>
    </g>
    <g id="ytick_5">
     <g id="line2d_11">
      <g>
       <use xlink:href="#m6579d9611e" x="46.965625" y="38.967947" style="stroke: #000000; stroke-width: 0.8"/>
      </g>
     </g>
     <g id="text_12">
      <!-- 200 -->
      <g transform="translate(20.878125 42.767165) scale(0.1 -0.1)">
       <use xlink:href="#DejaVuSans-32"/>
       <use xlink:href="#DejaVuSans-30" x="63.623047"/>
       <use xlink:href="#DejaVuSans-30" x="127.246094"/>
      </g>
     </g>
    </g>
    <g id="ytick_6">
     <g id="line2d_12">
      <g>
       <use xlink:href="#m6579d9611e" x="46.965625" y="10.999219" style="stroke: #000000; stroke-width: 0.8"/>
      </g>
     </g>
     <g id="text_13">
      <!-- 250 -->
      <g transform="translate(20.878125 14.798438) scale(0.1 -0.1)">
       <use xlink:href="#DejaVuSans-32"/>
       <use xlink:href="#DejaVuSans-35" x="63.623047"/>
       <use xlink:href="#DejaVuSans-30" x="127.246094"/>
      </g>
     </g>
    </g>
    <g id="text_14">
     <!-- Empirical Classification Error -->
     <g transform="translate(14.798437 151.133581) rotate(-90) scale(0.1 -0.1)">
      <defs>
       <path id="DejaVuSans-45" d="M 628 4666 
L 3578 4666 
L 3578 4134 
L 1259 4134 
L 1259 2753 
L 3481 2753 
L 3481 2222 
L 1259 2222 
L 1259 531 
L 3634 531 
L 3634 0 
L 628 0 
L 628 4666 
z
" transform="scale(0.015625)"/>
       <path id="DejaVuSans-72" d="M 2631 2963 
Q 2534 3019 2420 3045 
Q 2306 3072 2169 3072 
Q 1681 3072 1420 2755 
Q 1159 2438 1159 1844 
L 1159 0 
L 581 0 
L 581 3500 
L 1159 3500 
L 1159 2956 
Q 1341 3275 1631 3429 
Q 1922 3584 2338 3584 
Q 2397 3584 2469 3576 
Q 2541 3569 2628 3553 
L 2631 2963 
z
" transform="scale(0.015625)"/>
       <path id="DejaVuSans-63" d="M 3122 3366 
L 3122 2828 
Q 2878 2963 2633 3030 
Q 2388 3097 2138 3097 
Q 1578 3097 1268 2742 
Q 959 2388 959 1747 
Q 959 1106 1268 751 
Q 1578 397 2138 397 
Q 2388 397 2633 464 
Q 2878 531 3122 666 
L 3122 134 
Q 2881 22 2623 -34 
Q 2366 -91 2075 -91 
Q 1284 -91 818 406 
Q 353 903 353 1747 
Q 353 2603 823 3093 
Q 1294 3584 2113 3584 
Q 2378 3584 2631 3529 
Q 2884 3475 3122 3366 
z
" transform="scale(0.015625)"/>
       <path id="DejaVuSans-43" d="M 4122 4306 
L 4122 3641 
Q 3803 3938 3442 4084 
Q 3081 4231 2675 4231 
Q 1875 4231 1450 3742 
Q 1025 3253 1025 2328 
Q 1025 1406 1450 917 
Q 1875 428 2675 428 
Q 3081 428 3442 575 
Q 3803 722 4122 1019 
L 4122 359 
Q 3791 134 3420 21 
Q 3050 -91 2638 -91 
Q 1578 -91 968 557 
Q 359 1206 359 2328 
Q 359 3453 968 4101 
Q 1578 4750 2638 4750 
Q 3056 4750 3426 4639 
Q 3797 4528 4122 4306 
z
" transform="scale(0.015625)"/>
       <path id="DejaVuSans-73" d="M 2834 3397 
L 2834 2853 
Q 2591 2978 2328 3040 
Q 2066 3103 1784 3103 
Q 1356 3103 1142 2972 
Q 928 2841 928 2578 
Q 928 2378 1081 2264 
Q 1234 2150 1697 2047 
L 1894 2003 
Q 2506 1872 2764 1633 
Q 3022 1394 3022 966 
Q 3022 478 2636 193 
Q 2250 -91 1575 -91 
Q 1294 -91 989 -36 
Q 684 19 347 128 
L 347 722 
Q 666 556 975 473 
Q 1284 391 1588 391 
Q 1994 391 2212 530 
Q 2431 669 2431 922 
Q 2431 1156 2273 1281 
Q 2116 1406 1581 1522 
L 1381 1569 
Q 847 1681 609 1914 
Q 372 2147 372 2553 
Q 372 3047 722 3315 
Q 1072 3584 1716 3584 
Q 2034 3584 2315 3537 
Q 2597 3491 2834 3397 
z
" transform="scale(0.015625)"/>
       <path id="DejaVuSans-66" d="M 2375 4863 
L 2375 4384 
L 1825 4384 
Q 1516 4384 1395 4259 
Q 1275 4134 1275 3809 
L 1275 3500 
L 2222 3500 
L 2222 3053 
L 1275 3053 
L 1275 0 
L 697 0 
L 697 3053 
L 147 3053 
L 147 3500 
L 697 3500 
L 697 3744 
Q 697 4328 969 4595 
Q 1241 4863 1831 4863 
L 2375 4863 
z
" transform="scale(0.015625)"/>
       <path id="DejaVuSans-74" d="M 1172 4494 
L 1172 3500 
L 2356 3500 
L 2356 3053 
L 1172 3053 
L 1172 1153 
Q 1172 725 1289 603 
Q 1406 481 1766 481 
L 2356 481 
L 2356 0 
L 1766 0 
Q 1100 0 847 248 
Q 594 497 594 1153 
L 594 3053 
L 172 3053 
L 172 3500 
L 594 3500 
L 594 4494 
L 1172 4494 
z
" transform="scale(0.015625)"/>
       <path id="DejaVuSans-6f" d="M 1959 3097 
Q 1497 3097 1228 2736 
Q 959 2375 959 1747 
Q 959 1119 1226 758 
Q 1494 397 1959 397 
Q 2419 397 2687 759 
Q 2956 1122 2956 1747 
Q 2956 2369 2687 2733 
Q 2419 3097 1959 3097 
z
M 1959 3584 
Q 2709 3584 3137 3096 
Q 3566 2609 3566 1747 
Q 3566 888 3137 398 
Q 2709 -91 1959 -91 
Q 1206 -91 779 398 
Q 353 888 353 1747 
Q 353 2609 779 3096 
Q 1206 3584 1959 3584 
z
" transform="scale(0.015625)"/>
       <path id="DejaVuSans-6e" d="M 3513 2113 
L 3513 0 
L 2938 0 
L 2938 2094 
Q 2938 2591 2744 2837 
Q 2550 3084 2163 3084 
Q 1697 3084 1428 2787 
Q 1159 2491 1159 1978 
L 1159 0 
L 581 0 
L 581 3500 
L 1159 3500 
L 1159 2956 
Q 1366 3272 1645 3428 
Q 1925 3584 2291 3584 
Q 2894 3584 3203 3211 
Q 3513 2838 3513 2113 
z
" transform="scale(0.015625)"/>
      </defs>
      <use xlink:href="#DejaVuSans-45"/>
      <use xlink:href="#DejaVuSans-6d" x="63.183594"/>
      <use xlink:href="#DejaVuSans-70" x="160.595703"/>
      <use xlink:href="#DejaVuSans-69" x="224.072266"/>
      <use xlink:href="#DejaVuSans-72" x="251.855469"/>
      <use xlink:href="#DejaVuSans-69" x="292.96875"/>
      <use xlink:href="#DejaVuSans-63" x="320.751953"/>
      <use xlink:href="#DejaVuSans-61" x="375.732422"/>
      <use xlink:href="#DejaVuSans-6c" x="437.011719"/>
      <use xlink:href="#DejaVuSans-20" x="464.794922"/>
      <use xlink:href="#DejaVuSans-43" x="496.582031"/>
      <use xlink:href="#DejaVuSans-6c" x="566.40625"/>
      <use xlink:href="#DejaVuSans-61" x="594.189453"/>
      <use xlink:href="#DejaVuSans-73" x="655.46875"/>
      <use xlink:href="#DejaVuSans-73" x="707.568359"/>
      <use xlink:href="#DejaVuSans-69" x="759.667969"/>
      <use xlink:href="#DejaVuSans-66" x="787.451172"/>
      <use xlink:href="#DejaVuSans-69" x="822.65625"/>
      <use xlink:href="#DejaVuSans-63" x="850.439453"/>
      <use xlink:href="#DejaVuSans-61" x="905.419922"/>
      <use xlink:href="#DejaVuSans-74" x="966.699219"/>
      <use xlink:href="#DejaVuSans-69" x="1005.908203"/>
      <use xlink:href="#DejaVuSans-6f" x="1033.691406"/>
      <use xlink:href="#DejaVuSans-6e" x="1094.873047"/>
      <use xlink:href="#DejaVuSans-20" x="1158.251953"/>
      <use xlink:href="#DejaVuSans-45" x="1190.039062"/>
      <use xlink:href="#DejaVuSans-72" x="1253.222656"/>
      <use xlink:href="#DejaVuSans-72" x="1292.585938"/>
      <use xlink:href="#DejaVuSans-6f" x="1331.449219"/>
      <use xlink:href="#DejaVuSans-72" x="1392.630859"/>
     </g>
    </g>
   </g>
   <g id="line2d_13">
    <path d="M 48.539141 19.861809 
L 50.112658 24.756337 
L 51.686174 27.797936 
L 53.25969 31.765999 
L 54.833206 36.136113 
L 56.406723 37.866678 
L 57.980239 40.576149 
L 59.553755 44.334446 
L 61.127272 47.288643 
L 62.700788 49.159052 
L 64.274304 50.977019 
L 65.84782 52.707584 
L 67.421337 55.294692 
L 68.994853 57.899279 
L 70.568369 58.423693 
L 72.141886 60.329063 
L 73.715402 62.951131 
L 75.288918 64.594294 
L 76.862434 66.989116 
L 78.435951 68.964407 
L 80.009467 71.254347 
L 81.582983 72.862549 
L 83.1565 75.100047 
L 84.730016 76.533444 
L 86.303532 79.06811 
L 87.877048 81.218206 
L 89.450565 83.805314 
L 91.024081 85.081387 
L 92.597597 86.829432 
L 94.171114 88.892126 
L 95.74463 90.465367 
L 97.318146 91.706479 
L 98.891662 93.489486 
L 100.465179 94.590754 
L 102.038695 95.95423 
L 103.612211 97.265264 
L 105.185727 98.803544 
L 106.759244 100.079617 
L 108.33276 101.513015 
L 109.906276 102.789088 
L 111.479793 103.191138 
L 113.053309 103.365943 
L 114.626825 104.449731 
L 116.200341 103.540747 
L 117.773858 103.051295 
L 119.347374 100.638992 
L 120.92089 97.87708 
L 122.494407 94.118782 
L 124.067923 84.941543 
L 125.641439 66.202496 
L 127.214955 88.542517 
L 128.788472 103.890357 
L 130.361988 109.903633 
L 131.935504 112.945232 
L 133.509021 115.462418 
L 135.082537 119.605286 
L 136.656053 121.056163 
L 138.229569 122.262315 
L 139.803086 125.583601 
L 141.376602 126.859674 
L 142.950118 127.803619 
L 144.523635 128.957329 
L 146.097151 130.478129 
L 147.670667 130.583011 
L 149.244183 131.072464 
L 150.8177 131.841604 
L 152.391216 132.977834 
L 153.964732 133.327443 
L 155.538249 134.096583 
L 157.111765 135.040527 
L 158.685281 135.599902 
L 160.258797 136.001952 
L 161.832314 136.421483 
L 163.40583 137.085741 
L 164.979346 137.610154 
L 166.552863 137.994724 
L 168.126379 138.029685 
L 169.699895 138.291892 
L 171.273411 138.449216 
L 172.846928 138.554099 
L 174.420444 138.536618 
L 175.99396 138.676462 
L 177.567477 138.781345 
L 179.140993 138.816306 
L 180.714509 139.095993 
L 182.288025 139.463082 
L 183.861542 139.690328 
L 185.435058 139.935055 
L 187.008574 140.14482 
L 188.582091 140.267183 
L 190.155607 140.337105 
L 191.729123 140.267183 
L 193.302639 140.51191 
L 194.876156 140.809077 
L 196.449672 140.756636 
L 198.023188 140.91396 
L 199.596704 141.141206 
L 201.170221 141.263569 
L 202.743737 141.403413 
L 204.317253 141.473335 
L 205.89077 141.648139 
L 207.464286 141.805463 
L 209.037802 141.66562 
L 210.611318 141.875385 
L 212.184835 141.997748 
L 213.758351 141.892866 
L 215.331867 141.997748 
L 216.905384 141.980268 
L 218.4789 141.997748 
L 220.052416 142.120112 
L 221.625932 142.102631 
L 223.199449 142.032709 
L 224.772965 142.137592 
L 226.346481 141.980268 
L 227.919998 142.102631 
L 229.493514 142.190033 
L 231.06703 142.364838 
L 232.640546 142.644525 
L 234.214063 142.662006 
L 235.787579 142.557123 
L 237.361095 142.976654 
L 238.934612 142.83681 
L 240.508128 142.959173 
L 242.081644 143.046576 
" clip-path="url(#p9c13e7b9aa)" style="fill: none; stroke: #4c72b0; stroke-width: 1.5; stroke-linecap: square"/>
   </g>
   <g id="line2d_14">
    <path d="M 48.539141 20.26386 
L 50.112658 28.881724 
L 51.686174 31.311507 
L 53.25969 34.825079 
L 54.833206 36.660527 
L 56.406723 41.41521 
L 57.980239 44.177122 
L 59.553755 47.096358 
L 61.127272 49.403778 
L 62.700788 52.16569 
L 64.274304 56.972815 
L 65.84782 59.350157 
L 67.421337 62.671444 
L 68.994853 65.485797 
L 70.568369 66.954155 
L 72.141886 67.933061 
L 73.715402 69.383938 
L 75.288918 71.673878 
L 76.862434 72.91499 
L 78.435951 74.925243 
L 80.009467 76.550925 
L 81.582983 78.491255 
L 83.1565 79.80229 
L 84.730016 81.165765 
L 86.303532 83.578068 
L 87.877048 85.291152 
L 89.450565 86.916835 
L 91.024081 89.294177 
L 92.597597 91.304429 
L 94.171114 93.66429 
L 95.74463 95.220051 
L 97.318146 97.335186 
L 98.891662 99.922293 
L 100.465179 101.495534 
L 102.038695 103.191138 
L 103.612211 105.148949 
L 105.185727 106.145335 
L 106.759244 109.658907 
L 108.33276 111.441913 
L 109.906276 113.207439 
L 111.479793 115.18273 
L 113.053309 116.651089 
L 114.626825 118.871106 
L 116.200341 121.353331 
L 117.773858 122.699326 
L 119.347374 125.688484 
L 120.92089 128.328033 
L 122.494407 131.561917 
L 124.067923 133.956739 
L 125.641439 136.578807 
L 127.214955 137.382908 
L 128.788472 138.117087 
L 130.361988 138.20449 
L 131.935504 139.270797 
L 133.509021 139.970016 
L 135.082537 140.214742 
L 136.656053 140.966402 
L 138.229569 141.350972 
L 139.803086 141.787983 
L 141.376602 142.05019 
L 142.950118 142.294916 
L 144.523635 142.679486 
L 146.097151 142.696967 
L 147.670667 142.731928 
L 149.244183 142.924213 
L 150.8177 143.064056 
L 152.391216 142.994134 
L 153.964732 142.976654 
L 155.538249 143.273822 
L 157.111765 143.640911 
L 158.685281 143.448626 
L 160.258797 143.553509 
L 161.832314 143.58847 
L 163.40583 143.658392 
L 164.979346 143.763274 
L 166.552863 143.903118 
L 168.126379 144.182805 
L 169.699895 144.217766 
L 171.273411 144.165325 
L 172.846928 144.322649 
L 174.420444 144.322649 
L 175.99396 144.479973 
L 177.567477 144.532414 
L 179.140993 144.602336 
L 180.714509 144.707219 
L 182.288025 144.74218 
L 183.861542 144.864543 
L 185.435058 144.934465 
L 187.008574 145.091789 
L 188.582091 145.074308 
L 190.155607 145.091789 
L 191.729123 145.14423 
L 193.302639 144.969426 
L 194.876156 145.249113 
L 196.449672 145.336515 
L 198.023188 145.284074 
L 199.596704 145.319035 
L 201.170221 145.371476 
L 202.743737 145.493839 
L 204.317253 145.493839 
L 205.89077 145.581242 
L 207.464286 145.563761 
L 209.037802 145.51132 
L 210.611318 145.546281 
L 212.184835 145.633683 
L 213.758351 145.598722 
L 215.331867 145.668644 
L 216.905384 145.598722 
L 218.4789 145.546281 
L 220.052416 145.651164 
L 221.625932 145.651164 
L 223.199449 145.686124 
L 224.772965 145.721085 
L 226.346481 145.756046 
L 227.919998 145.791007 
L 229.493514 145.808488 
L 231.06703 145.91337 
L 232.640546 145.89589 
L 234.214063 145.983292 
L 235.787579 146.000773 
L 237.361095 145.965812 
L 238.934612 145.983292 
L 240.508128 146.000773 
L 242.081644 146.053214 
" clip-path="url(#p9c13e7b9aa)" style="fill: none; stroke: #dd8452; stroke-width: 1.5; stroke-linecap: square"/>
   </g>
   <g id="line2d_15">
    <path d="M 48.539141 17.606831 
L 50.112658 22.081827 
L 51.686174 25.001063 
L 53.25969 29.196372 
L 54.833206 32.919709 
L 56.406723 34.86004 
L 57.980239 37.9366 
L 59.553755 39.999294 
L 61.127272 41.257886 
L 62.700788 44.159642 
L 64.274304 47.53337 
L 65.84782 49.106611 
L 67.421337 51.501433 
L 68.994853 52.760026 
L 70.568369 55.99391 
L 72.141886 58.843224 
L 73.715402 60.573789 
L 75.288918 62.881209 
L 76.862434 65.730523 
L 78.435951 67.076518 
L 80.009467 68.807083 
L 81.582983 70.013235 
L 83.1565 72.495459 
L 84.730016 73.526806 
L 86.303532 76.830612 
L 87.877048 79.103071 
L 89.450565 80.18686 
L 91.024081 82.546721 
L 92.597597 84.749258 
L 94.171114 86.497304 
L 95.74463 90.273082 
L 97.318146 92.755307 
L 98.891662 95.779425 
L 100.465179 97.544951 
L 102.038695 100.429226 
L 103.612211 102.49192 
L 105.185727 106.372581 
L 106.759244 107.771018 
L 108.33276 108.977169 
L 109.906276 111.057343 
L 111.479793 113.941618 
L 113.053309 117.699916 
L 114.626825 120.601672 
L 116.200341 122.542002 
L 117.773858 124.499813 
L 119.347374 127.366608 
L 120.92089 130.652933 
L 122.494407 134.236426 
L 124.067923 137.155662 
L 125.641439 140.441988 
L 127.214955 141.001362 
L 128.788472 141.403413 
L 130.361988 141.630659 
L 131.935504 141.718061 
L 133.509021 142.120112 
L 135.082537 142.574603 
L 136.656053 142.784369 
L 138.229569 142.959173 
L 139.803086 143.22138 
L 141.376602 142.994134 
L 142.950118 143.011615 
L 144.523635 143.029095 
L 146.097151 143.238861 
L 147.670667 143.536028 
L 149.244183 143.466107 
L 150.8177 143.745794 
L 152.391216 143.868157 
L 153.964732 143.938079 
L 155.538249 143.920598 
L 157.111765 143.903118 
L 158.685281 144.095403 
L 160.258797 144.270208 
L 161.832314 144.567375 
L 163.40583 144.654778 
L 164.979346 144.427532 
L 166.552863 144.479973 
L 168.126379 144.445012 
L 169.699895 144.37509 
L 171.273411 144.567375 
L 172.846928 144.654778 
L 174.420444 144.602336 
L 175.99396 144.619817 
L 177.567477 144.654778 
L 179.140993 144.619817 
L 180.714509 144.654778 
L 182.288025 144.654778 
L 183.861542 144.707219 
L 185.435058 144.777141 
L 187.008574 144.724699 
L 188.582091 144.619817 
L 190.155607 144.689738 
L 191.729123 144.934465 
L 193.302639 144.916984 
L 194.876156 144.829582 
L 196.449672 145.004387 
L 198.023188 145.179191 
L 199.596704 145.109269 
L 201.170221 145.074308 
L 202.743737 145.109269 
L 204.317253 145.179191 
L 205.89077 145.284074 
L 207.464286 145.371476 
L 209.037802 145.598722 
L 210.611318 145.563761 
L 212.184835 145.458879 
L 213.758351 145.458879 
L 215.331867 145.476359 
L 216.905384 145.598722 
L 218.4789 145.703605 
L 220.052416 145.791007 
L 221.625932 145.791007 
L 223.199449 145.808488 
L 224.772965 145.791007 
L 226.346481 145.703605 
L 227.919998 145.738566 
L 229.493514 145.756046 
L 231.06703 145.808488 
L 232.640546 145.825968 
L 234.214063 145.860929 
L 235.787579 145.965812 
L 237.361095 145.89589 
L 238.934612 146.053214 
L 240.508128 146.105655 
L 242.081644 146.053214 
" clip-path="url(#p9c13e7b9aa)" style="fill: none; stroke: #55a868; stroke-width: 1.5; stroke-linecap: square"/>
   </g>
   <g id="line2d_16"/>
   <g id="line2d_17"/>
   <g id="line2d_18"/>
   <g id="line2d_19">
    <path d="M 125.641439 150.842859 
L 125.641439 8.052429 
" clip-path="url(#p9c13e7b9aa)" style="fill: none; stroke-dasharray: 5.55,2.4; stroke-dashoffset: 0; stroke: #808080; stroke-width: 1.5"/>
   </g>
   <g id="patch_3">
    <path d="M 46.965625 150.842859 
L 46.965625 8.052429 
" style="fill: none; stroke: #000000; stroke-width: 0.8; stroke-linejoin: miter; stroke-linecap: square"/>
   </g>
   <g id="patch_4">
    <path d="M 251.758769 150.842859 
L 251.758769 8.052429 
" style="fill: none; stroke: #000000; stroke-width: 0.8; stroke-linejoin: miter; stroke-linecap: square"/>
   </g>
   <g id="patch_5">
    <path d="M 46.965625 150.842859 
L 251.758769 150.842859 
" style="fill: none; stroke: #000000; stroke-width: 0.8; stroke-linejoin: miter; stroke-linecap: square"/>
   </g>
   <g id="patch_6">
    <path d="M 46.965625 8.052429 
L 251.758769 8.052429 
" style="fill: none; stroke: #000000; stroke-width: 0.8; stroke-linejoin: miter; stroke-linecap: square"/>
   </g>
   <g id="legend_1">
    <g id="patch_7">
     <path d="M 96.313457 60.086804 
L 244.758769 60.086804 
Q 246.758769 60.086804 246.758769 58.086804 
L 246.758769 15.052429 
Q 246.758769 13.052429 244.758769 13.052429 
L 96.313457 13.052429 
Q 94.313457 13.052429 94.313457 15.052429 
L 94.313457 58.086804 
Q 94.313457 60.086804 96.313457 60.086804 
z
" style="fill: #ffffff; opacity: 0.8; stroke: #cccccc; stroke-linejoin: miter"/>
    </g>
    <g id="line2d_20">
     <path d="M 98.313457 21.150867 
L 108.313457 21.150867 
L 118.313457 21.150867 
" style="fill: none; stroke: #4c72b0; stroke-width: 1.5; stroke-linecap: square"/>
    </g>
    <g id="text_15">
     <!-- Random -->
     <g transform="translate(126.313457 24.650867) scale(0.1 -0.1)">
      <defs>
       <path id="DejaVuSans-52" d="M 2841 2188 
Q 3044 2119 3236 1894 
Q 3428 1669 3622 1275 
L 4263 0 
L 3584 0 
L 2988 1197 
Q 2756 1666 2539 1819 
Q 2322 1972 1947 1972 
L 1259 1972 
L 1259 0 
L 628 0 
L 628 4666 
L 2053 4666 
Q 2853 4666 3247 4331 
Q 3641 3997 3641 3322 
Q 3641 2881 3436 2590 
Q 3231 2300 2841 2188 
z
M 1259 4147 
L 1259 2491 
L 2053 2491 
Q 2509 2491 2742 2702 
Q 2975 2913 2975 3322 
Q 2975 3731 2742 3939 
Q 2509 4147 2053 4147 
L 1259 4147 
z
" transform="scale(0.015625)"/>
       <path id="DejaVuSans-64" d="M 2906 2969 
L 2906 4863 
L 3481 4863 
L 3481 0 
L 2906 0 
L 2906 525 
Q 2725 213 2448 61 
Q 2172 -91 1784 -91 
Q 1150 -91 751 415 
Q 353 922 353 1747 
Q 353 2572 751 3078 
Q 1150 3584 1784 3584 
Q 2172 3584 2448 3432 
Q 2725 3281 2906 2969 
z
M 947 1747 
Q 947 1113 1208 752 
Q 1469 391 1925 391 
Q 2381 391 2643 752 
Q 2906 1113 2906 1747 
Q 2906 2381 2643 2742 
Q 2381 3103 1925 3103 
Q 1469 3103 1208 2742 
Q 947 2381 947 1747 
z
" transform="scale(0.015625)"/>
      </defs>
      <use xlink:href="#DejaVuSans-52"/>
      <use xlink:href="#DejaVuSans-61" x="67.232422"/>
      <use xlink:href="#DejaVuSans-6e" x="128.511719"/>
      <use xlink:href="#DejaVuSans-64" x="191.890625"/>
      <use xlink:href="#DejaVuSans-6f" x="255.367188"/>
      <use xlink:href="#DejaVuSans-6d" x="316.548828"/>
     </g>
    </g>
    <g id="line2d_21">
     <path d="M 98.313457 35.828992 
L 108.313457 35.828992 
L 118.313457 35.828992 
" style="fill: none; stroke: #dd8452; stroke-width: 1.5; stroke-linecap: square"/>
    </g>
    <g id="text_16">
     <!-- Classification-optimal -->
     <g transform="translate(126.313457 39.328992) scale(0.1 -0.1)">
      <defs>
       <path id="DejaVuSans-2d" d="M 313 2009 
L 1997 2009 
L 1997 1497 
L 313 1497 
L 313 2009 
z
" transform="scale(0.015625)"/>
      </defs>
      <use xlink:href="#DejaVuSans-43"/>
      <use xlink:href="#DejaVuSans-6c" x="69.824219"/>
      <use xlink:href="#DejaVuSans-61" x="97.607422"/>
      <use xlink:href="#DejaVuSans-73" x="158.886719"/>
      <use xlink:href="#DejaVuSans-73" x="210.986328"/>
      <use xlink:href="#DejaVuSans-69" x="263.085938"/>
      <use xlink:href="#DejaVuSans-66" x="290.869141"/>
      <use xlink:href="#DejaVuSans-69" x="326.074219"/>
      <use xlink:href="#DejaVuSans-63" x="353.857422"/>
      <use xlink:href="#DejaVuSans-61" x="408.837891"/>
      <use xlink:href="#DejaVuSans-74" x="470.117188"/>
      <use xlink:href="#DejaVuSans-69" x="509.326172"/>
      <use xlink:href="#DejaVuSans-6f" x="537.109375"/>
      <use xlink:href="#DejaVuSans-6e" x="598.291016"/>
      <use xlink:href="#DejaVuSans-2d" x="661.669922"/>
      <use xlink:href="#DejaVuSans-6f" x="699.628906"/>
      <use xlink:href="#DejaVuSans-70" x="760.810547"/>
      <use xlink:href="#DejaVuSans-74" x="824.287109"/>
      <use xlink:href="#DejaVuSans-69" x="863.496094"/>
      <use xlink:href="#DejaVuSans-6d" x="891.279297"/>
      <use xlink:href="#DejaVuSans-61" x="988.691406"/>
      <use xlink:href="#DejaVuSans-6c" x="1049.970703"/>
     </g>
    </g>
    <g id="line2d_22">
     <path d="M 98.313457 50.507117 
L 108.313457 50.507117 
L 118.313457 50.507117 
" style="fill: none; stroke: #55a868; stroke-width: 1.5; stroke-linecap: square"/>
    </g>
    <g id="text_17">
     <!-- Reconstruction-optimal -->
     <g transform="translate(126.313457 54.007117) scale(0.1 -0.1)">
      <defs>
       <path id="DejaVuSans-75" d="M 544 1381 
L 544 3500 
L 1119 3500 
L 1119 1403 
Q 1119 906 1312 657 
Q 1506 409 1894 409 
Q 2359 409 2629 706 
Q 2900 1003 2900 1516 
L 2900 3500 
L 3475 3500 
L 3475 0 
L 2900 0 
L 2900 538 
Q 2691 219 2414 64 
Q 2138 -91 1772 -91 
Q 1169 -91 856 284 
Q 544 659 544 1381 
z
M 1991 3584 
L 1991 3584 
z
" transform="scale(0.015625)"/>
      </defs>
      <use xlink:href="#DejaVuSans-52"/>
      <use xlink:href="#DejaVuSans-65" x="64.982422"/>
      <use xlink:href="#DejaVuSans-63" x="126.505859"/>
      <use xlink:href="#DejaVuSans-6f" x="181.486328"/>
      <use xlink:href="#DejaVuSans-6e" x="242.667969"/>
      <use xlink:href="#DejaVuSans-73" x="306.046875"/>
      <use xlink:href="#DejaVuSans-74" x="358.146484"/>
      <use xlink:href="#DejaVuSans-72" x="397.355469"/>
      <use xlink:href="#DejaVuSans-75" x="438.46875"/>
      <use xlink:href="#DejaVuSans-63" x="501.847656"/>
      <use xlink:href="#DejaVuSans-74" x="556.828125"/>
      <use xlink:href="#DejaVuSans-69" x="596.037109"/>
      <use xlink:href="#DejaVuSans-6f" x="623.820312"/>
      <use xlink:href="#DejaVuSans-6e" x="685.001953"/>
      <use xlink:href="#DejaVuSans-2d" x="748.380859"/>
      <use xlink:href="#DejaVuSans-6f" x="786.339844"/>
      <use xlink:href="#DejaVuSans-70" x="847.521484"/>
      <use xlink:href="#DejaVuSans-74" x="910.998047"/>
      <use xlink:href="#DejaVuSans-69" x="950.207031"/>
      <use xlink:href="#DejaVuSans-6d" x="977.990234"/>
      <use xlink:href="#DejaVuSans-61" x="1075.402344"/>
      <use xlink:href="#DejaVuSans-6c" x="1136.681641"/>
     </g>
    </g>
   </g>
  </g>
 </g>
 <defs>
  <clipPath id="p9c13e7b9aa">
   <rect x="46.965625" y="8.052429" width="204.793144" height="142.790429"/>
  </clipPath>
 </defs>
</svg>
