<?xml version="1.0" encoding="utf-8" standalone="no"?>
<!DOCTYPE svg PUBLIC "-//W3C//DTD SVG 1.1//EN"
  "http://www.w3.org/Graphics/SVG/1.1/DTD/svg11.dtd">
<svg xmlns:xlink="http://www.w3.org/1999/xlink" width="260.39952pt" height="188.39952pt" viewBox="0 0 260.39952 188.39952" xmlns="http://www.w3.org/2000/svg" version="1.1">
 <metadata>
  <rdf:RDF xmlns:dc="http://purl.org/dc/elements/1.1/" xmlns:cc="http://creativecommons.org/ns#" xmlns:rdf="http://www.w3.org/1999/02/22-rdf-syntax-ns#">
   <cc:Work>
    <dc:type rdf:resource="http://purl.org/dc/dcmitype/StillImage"/>
    <dc:date>1980-01-01T00:00:00+00:00</dc:date>
    <dc:format>image/svg+xml</dc:format>
    <dc:creator>
     <cc:Agent>
      <dc:title>Matplotlib v3.7.5, https://matplotlib.org/</dc:title>
     </cc:Agent>
    </dc:creator>
   </cc:Work>
  </rdf:RDF>
 </metadata>
 <defs>
  <style type="text/css">*{stroke-linejoin: round; stroke-linecap: butt}</style>
 </defs>
 <g id="figure_1">
  <g id="patch_1">
   <path d="M 0 188.39952 
L 260.39952 188.39952 
L 260.39952 0 
L 0 0 
z
" style="fill: #ffffff"/>
  </g>
  <g id="axes_1">
   <g id="patch_2">
    <path d="M 46.965625 150.84327 
L 253.19952 150.84327 
L 253.19952 7.2 
L 46.965625 7.2 
z
" style="fill: #ffffff"/>
   </g>
   <g id="PolyCollection_1">
    <defs>
     <path id="md174671e98" d="M 50.18803 -172.196405 
L 50.18803 -165.945773 
L 53.410434 -160.483178 
L 56.632839 -155.892835 
L 59.855243 -150.568562 
L 63.077648 -147.916025 
L 66.300053 -145.891387 
L 69.522457 -143.099219 
L 72.744862 -141.213775 
L 75.967266 -139.153357 
L 79.189671 -135.226258 
L 82.412076 -135.121536 
L 85.63448 -131.998619 
L 88.856885 -129.952601 
L 92.07929 -128.925882 
L 95.301694 -126.133279 
L 98.524099 -123.341548 
L 101.746503 -121.089138 
L 104.968908 -117.843609 
L 108.191313 -116.028416 
L 111.413717 -114.753855 
L 114.636122 -111.594285 
L 117.858526 -108.904659 
L 121.080931 -106.847295 
L 124.303336 -105.293037 
L 127.52574 -103.810775 
L 130.748145 -100.54561 
L 133.970549 -99.620996 
L 137.192954 -96.637274 
L 140.415359 -95.95614 
L 143.637763 -93.84467 
L 146.860168 -91.872394 
L 150.082572 -90.912436 
L 153.304977 -88.154303 
L 156.527382 -85.623943 
L 159.749786 -84.018195 
L 162.972191 -82.0625 
L 166.194596 -79.531703 
L 169.417 -76.722518 
L 172.639405 -74.942233 
L 175.861809 -71.712849 
L 179.084214 -68.86832 
L 182.306619 -67.278718 
L 185.529023 -64.801591 
L 188.751428 -63.527465 
L 191.973832 -58.255989 
L 195.196237 -56.528502 
L 198.418642 -53.700554 
L 201.641046 -49.406926 
L 204.863451 -44.398129 
L 208.085855 -37.55625 
L 211.30826 -37.55625 
L 214.530665 -37.55625 
L 217.753069 -37.55625 
L 220.975474 -37.55625 
L 224.197879 -37.55625 
L 227.420283 -37.55625 
L 230.642688 -37.55625 
L 233.865092 -37.55625 
L 237.087497 -37.55625 
L 240.309902 -37.55625 
L 243.532306 -37.55625 
L 243.532306 -37.55625 
L 243.532306 -37.55625 
L 240.309902 -37.55625 
L 237.087497 -37.55625 
L 233.865092 -37.55625 
L 230.642688 -37.55625 
L 227.420283 -37.55625 
L 224.197879 -37.55625 
L 220.975474 -37.55625 
L 217.753069 -37.55625 
L 214.530665 -37.55625 
L 211.30826 -37.55625 
L 208.085855 -37.55625 
L 204.863451 -47.976589 
L 201.641046 -54.609023 
L 198.418642 -58.41351 
L 195.196237 -62.308755 
L 191.973832 -64.225616 
L 188.751428 -68.815959 
L 185.529023 -69.673375 
L 182.306619 -72.691133 
L 179.084214 -74.768568 
L 175.861809 -78.031987 
L 172.639405 -80.824155 
L 169.417 -82.796868 
L 166.194596 -85.799353 
L 162.972191 -88.279098 
L 159.749786 -89.708998 
L 156.527382 -92.640796 
L 153.304977 -94.211636 
L 150.082572 -97.388222 
L 146.860168 -99.1336 
L 143.637763 -100.651642 
L 140.415359 -103.149277 
L 137.192954 -104.212648 
L 133.970549 -106.605997 
L 130.748145 -107.948192 
L 127.52574 -110.481171 
L 124.303336 -112.0843 
L 121.080931 -113.812223 
L 117.858526 -115.923694 
L 114.636122 -118.070944 
L 111.413717 -120.829077 
L 108.191313 -122.296939 
L 104.968908 -123.499504 
L 101.746503 -125.541159 
L 98.524099 -128.421032 
L 95.301694 -131.527804 
L 92.07929 -134.459601 
L 88.856885 -135.088374 
L 85.63448 -137.235188 
L 82.412076 -140.638674 
L 79.189671 -141.650992 
L 75.967266 -144.513848 
L 72.744862 -147.288998 
L 69.522457 -149.312763 
L 66.300053 -151.097411 
L 63.077648 -153.240298 
L 59.855243 -156.121044 
L 56.632839 -162.211538 
L 53.410434 -167.74482 
L 50.18803 -172.196405 
z
" style="stroke: #4c72b0; stroke-opacity: 0.2"/>
    </defs>
    <g clip-path="url(#pa9641a9a81)">
     <use xlink:href="#md174671e98" x="0" y="188.39952" style="fill: #4c72b0; fill-opacity: 0.2; stroke: #4c72b0; stroke-opacity: 0.2"/>
    </g>
   </g>
   <g id="PolyCollection_2">
    <defs>
     <path id="m659acbabab" d="M 50.18803 -169.681753 
L 50.18803 -161.634691 
L 53.410434 -155.857492 
L 56.632839 -149.382141 
L 59.855243 -145.995673 
L 63.077648 -143.132818 
L 66.300053 -139.346222 
L 69.522457 -136.44715 
L 72.744862 -133.499207 
L 75.967266 -132.103342 
L 79.189671 -129.536328 
L 82.412076 -125.994085 
L 85.63448 -124.929841 
L 88.856885 -123.044833 
L 92.07929 -121.279821 
L 95.301694 -118.994249 
L 98.524099 -116.324694 
L 101.746503 -114.736401 
L 104.968908 -113.654267 
L 108.191313 -112.328216 
L 111.413717 -110.494697 
L 114.636122 -107.632715 
L 117.858526 -104.875455 
L 121.080931 -101.838498 
L 124.303336 -101.3799 
L 127.52574 -98.155316 
L 130.748145 -97.805368 
L 133.970549 -96.339251 
L 137.192954 -93.582427 
L 140.415359 -91.83705 
L 143.637763 -90.403222 
L 146.860168 -88.117651 
L 150.082572 -84.192297 
L 153.304977 -82.202567 
L 156.527382 -81.240864 
L 159.749786 -78.38019 
L 162.972191 -76.443258 
L 166.194596 -74.993722 
L 169.417 -73.492261 
L 172.639405 -70.910411 
L 175.861809 -67.733388 
L 179.084214 -65.796019 
L 182.306619 -63.160936 
L 185.529023 -62.078802 
L 188.751428 -58.902215 
L 191.973832 -56.894595 
L 195.196237 -54.677966 
L 198.418642 -52.199093 
L 201.641046 -48.848405 
L 204.863451 -43.629727 
L 208.085855 -37.55625 
L 211.30826 -37.55625 
L 214.530665 -37.55625 
L 217.753069 -37.55625 
L 220.975474 -37.55625 
L 224.197879 -37.55625 
L 227.420283 -37.55625 
L 230.642688 -37.55625 
L 233.865092 -37.55625 
L 237.087497 -37.55625 
L 240.309902 -37.55625 
L 243.532306 -37.55625 
L 243.532306 -37.55625 
L 243.532306 -37.55625 
L 240.309902 -37.55625 
L 237.087497 -37.55625 
L 233.865092 -37.55625 
L 230.642688 -37.55625 
L 227.420283 -37.55625 
L 224.197879 -37.55625 
L 220.975474 -37.55625 
L 217.753069 -37.55625 
L 214.530665 -37.55625 
L 211.30826 -37.55625 
L 208.085855 -37.55625 
L 204.863451 -47.191169 
L 201.641046 -52.462209 
L 198.418642 -56.372291 
L 195.196237 -59.443282 
L 191.973832 -61.783397 
L 188.751428 -63.911448 
L 185.529023 -68.013958 
L 182.306619 -69.951327 
L 179.084214 -72.201991 
L 175.861809 -73.668108 
L 172.639405 -76.024367 
L 169.417 -78.346155 
L 166.194596 -80.842045 
L 162.972191 -82.11617 
L 159.749786 -84.613369 
L 156.527382 -88.067907 
L 153.304977 -88.749477 
L 150.082572 -91.104864 
L 146.860168 -95.364021 
L 143.637763 -97.615122 
L 140.415359 -99.361808 
L 137.192954 -101.315322 
L 133.970549 -104.29948 
L 130.748145 -105.611568 
L 127.52574 -105.993369 
L 124.303336 -108.837462 
L 121.080931 -110.009046 
L 117.858526 -112.154988 
L 114.636122 -114.3354 
L 111.413717 -117.111859 
L 108.191313 -118.908289 
L 104.968908 -120.182415 
L 101.746503 -121.544245 
L 98.524099 -123.010362 
L 95.301694 -127.094545 
L 92.07929 -128.106864 
L 88.856885 -130.307785 
L 85.63448 -131.84459 
L 82.412076 -132.889634 
L 79.189671 -136.798843 
L 75.967266 -139.015909 
L 72.744862 -141.110362 
L 69.522457 -144.165209 
L 66.300053 -146.677243 
L 63.077648 -150.569871 
L 59.855243 -154.218582 
L 56.632839 -157.83195 
L 53.410434 -164.32519 
L 50.18803 -169.681753 
z
" style="stroke: #dd8452; stroke-opacity: 0.2"/>
    </defs>
    <g clip-path="url(#pa9641a9a81)">
     <use xlink:href="#m659acbabab" x="0" y="188.39952" style="fill: #dd8452; fill-opacity: 0.2; stroke: #dd8452; stroke-opacity: 0.2"/>
    </g>
   </g>
   <g id="PolyCollection_3">
    <defs>
     <path id="me48c43e14a" d="M 50.18803 -174.359364 
L 50.18803 -167.848234 
L 53.410434 -162.785767 
L 56.632839 -159.138801 
L 59.855243 -157.690138 
L 63.077648 -154.373921 
L 66.300053 -150.219486 
L 69.522457 -147.688689 
L 72.744862 -143.377607 
L 75.967266 -140.812339 
L 79.189671 -139.27597 
L 82.412076 -137.46165 
L 85.63448 -133.865737 
L 88.856885 -132.452417 
L 92.07929 -129.851805 
L 95.301694 -127.425294 
L 98.524099 -124.824682 
L 101.746503 -121.909029 
L 104.968908 -120.496582 
L 108.191313 -118.331442 
L 111.413717 -116.097795 
L 114.636122 -115.048387 
L 117.858526 -112.363124 
L 121.080931 -109.63859 
L 124.303336 -107.719547 
L 127.52574 -106.270448 
L 130.748145 -103.845682 
L 133.970549 -101.995146 
L 137.192954 -99.621433 
L 140.415359 -96.671309 
L 143.637763 -94.315049 
L 146.860168 -92.500729 
L 150.082572 -89.252582 
L 153.304977 -86.897632 
L 156.527382 -84.923174 
L 159.749786 -83.581415 
L 162.972191 -80.456753 
L 166.194596 -79.26946 
L 169.417 -78.292485 
L 172.639405 -75.360687 
L 175.861809 -74.226628 
L 179.084214 -71.189235 
L 182.306619 -67.890909 
L 185.529023 -65.377129 
L 188.751428 -62.601543 
L 191.973832 -59.232528 
L 195.196237 -57.453116 
L 198.418642 -52.531151 
L 201.641046 -47.888011 
L 204.863451 -44.01371 
L 208.085855 -37.55625 
L 211.30826 -37.55625 
L 214.530665 -37.55625 
L 217.753069 -37.55625 
L 220.975474 -37.55625 
L 224.197879 -37.55625 
L 227.420283 -37.55625 
L 230.642688 -37.55625 
L 233.865092 -37.55625 
L 237.087497 -37.55625 
L 240.309902 -37.55625 
L 243.532306 -37.55625 
L 243.532306 -37.55625 
L 243.532306 -37.55625 
L 240.309902 -37.55625 
L 237.087497 -37.55625 
L 233.865092 -37.55625 
L 230.642688 -37.55625 
L 227.420283 -37.55625 
L 224.197879 -37.55625 
L 220.975474 -37.55625 
L 217.753069 -37.55625 
L 214.530665 -37.55625 
L 211.30826 -37.55625 
L 208.085855 -37.55625 
L 204.863451 -48.744555 
L 201.641046 -52.77725 
L 198.418642 -56.598753 
L 195.196237 -63.61517 
L 191.973832 -65.431672 
L 188.751428 -68.467319 
L 185.529023 -71.208871 
L 182.306619 -73.65109 
L 179.084214 -77.246568 
L 175.861809 -79.777801 
L 172.639405 -81.48958 
L 169.417 -84.717219 
L 166.194596 -85.519656 
L 162.972191 -87.055588 
L 159.749786 -91.06952 
L 156.527382 -93.776164 
L 153.304977 -95.472234 
L 150.082572 -97.35506 
L 146.860168 -99.727028 
L 143.637763 -101.40259 
L 140.415359 -104.666446 
L 137.192954 -107.144446 
L 133.970549 -108.908149 
L 130.748145 -110.897007 
L 127.52574 -113.655139 
L 124.303336 -114.85945 
L 121.080931 -117.425591 
L 117.858526 -119.695018 
L 114.636122 -122.296503 
L 111.413717 -123.725967 
L 108.191313 -126.327016 
L 104.968908 -128.299292 
L 101.746503 -128.944209 
L 98.524099 -130.84667 
L 95.301694 -134.321717 
L 92.07929 -137.095121 
L 88.856885 -139.8358 
L 85.63448 -141.197194 
L 82.412076 -144.478504 
L 79.189671 -145.945057 
L 75.967266 -147.151113 
L 72.744862 -149.766997 
L 69.522457 -154.026154 
L 66.300053 -157.011186 
L 63.077648 -159.575582 
L 59.855243 -162.787076 
L 56.632839 -164.462638 
L 53.410434 -168.79161 
L 50.18803 -174.359364 
z
" style="stroke: #55a868; stroke-opacity: 0.2"/>
    </defs>
    <g clip-path="url(#pa9641a9a81)">
     <use xlink:href="#me48c43e14a" x="0" y="188.39952" style="fill: #55a868; fill-opacity: 0.2; stroke: #55a868; stroke-opacity: 0.2"/>
    </g>
   </g>
   <g id="matplotlib.axis_1">
    <g id="xtick_1">
     <g id="line2d_1">
      <defs>
       <path id="m888ee42d74" d="M 0 0 
L 0 3.5 
" style="stroke: #000000; stroke-width: 0.8"/>
      </defs>
      <g>
       <use xlink:href="#m888ee42d74" x="46.965625" y="150.84327" style="stroke: #000000; stroke-width: 0.8"/>
      </g>
     </g>
     <g id="text_1">
      <!-- 0 -->
      <g transform="translate(43.784375 165.441708) scale(0.1 -0.1)">
       <defs>
        <path id="DejaVuSans-30" d="M 2034 4250 
Q 1547 4250 1301 3770 
Q 1056 3291 1056 2328 
Q 1056 1369 1301 889 
Q 1547 409 2034 409 
Q 2525 409 2770 889 
Q 3016 1369 3016 2328 
Q 3016 3291 2770 3770 
Q 2525 4250 2034 4250 
z
M 2034 4750 
Q 2819 4750 3233 4129 
Q 3647 3509 3647 2328 
Q 3647 1150 3233 529 
Q 2819 -91 2034 -91 
Q 1250 -91 836 529 
Q 422 1150 422 2328 
Q 422 3509 836 4129 
Q 1250 4750 2034 4750 
z
" transform="scale(0.015625)"/>
       </defs>
       <use xlink:href="#DejaVuSans-30"/>
      </g>
     </g>
    </g>
    <g id="xtick_2">
     <g id="line2d_2">
      <g>
       <use xlink:href="#m888ee42d74" x="111.413717" y="150.84327" style="stroke: #000000; stroke-width: 0.8"/>
      </g>
     </g>
     <g id="text_2">
      <!-- 20 -->
      <g transform="translate(105.051217 165.441708) scale(0.1 -0.1)">
       <defs>
        <path id="DejaVuSans-32" d="M 1228 531 
L 3431 531 
L 3431 0 
L 469 0 
L 469 531 
Q 828 903 1448 1529 
Q 2069 2156 2228 2338 
Q 2531 2678 2651 2914 
Q 2772 3150 2772 3378 
Q 2772 3750 2511 3984 
Q 2250 4219 1831 4219 
Q 1534 4219 1204 4116 
Q 875 4013 500 3803 
L 500 4441 
Q 881 4594 1212 4672 
Q 1544 4750 1819 4750 
Q 2544 4750 2975 4387 
Q 3406 4025 3406 3419 
Q 3406 3131 3298 2873 
Q 3191 2616 2906 2266 
Q 2828 2175 2409 1742 
Q 1991 1309 1228 531 
z
" transform="scale(0.015625)"/>
       </defs>
       <use xlink:href="#DejaVuSans-32"/>
       <use xlink:href="#DejaVuSans-30" x="63.623047"/>
      </g>
     </g>
    </g>
    <g id="xtick_3">
     <g id="line2d_3">
      <g>
       <use xlink:href="#m888ee42d74" x="175.861809" y="150.84327" style="stroke: #000000; stroke-width: 0.8"/>
      </g>
     </g>
     <g id="text_3">
      <!-- 40 -->
      <g transform="translate(169.499309 165.441708) scale(0.1 -0.1)">
       <defs>
        <path id="DejaVuSans-34" d="M 2419 4116 
L 825 1625 
L 2419 1625 
L 2419 4116 
z
M 2253 4666 
L 3047 4666 
L 3047 1625 
L 3713 1625 
L 3713 1100 
L 3047 1100 
L 3047 0 
L 2419 0 
L 2419 1100 
L 313 1100 
L 313 1709 
L 2253 4666 
z
" transform="scale(0.015625)"/>
       </defs>
       <use xlink:href="#DejaVuSans-34"/>
       <use xlink:href="#DejaVuSans-30" x="63.623047"/>
      </g>
     </g>
    </g>
    <g id="xtick_4">
     <g id="line2d_4">
      <g>
       <use xlink:href="#m888ee42d74" x="240.309902" y="150.84327" style="stroke: #000000; stroke-width: 0.8"/>
      </g>
     </g>
     <g id="text_4">
      <!-- 60 -->
      <g transform="translate(233.947402 165.441708) scale(0.1 -0.1)">
       <defs>
        <path id="DejaVuSans-36" d="M 2113 2584 
Q 1688 2584 1439 2293 
Q 1191 2003 1191 1497 
Q 1191 994 1439 701 
Q 1688 409 2113 409 
Q 2538 409 2786 701 
Q 3034 994 3034 1497 
Q 3034 2003 2786 2293 
Q 2538 2584 2113 2584 
z
M 3366 4563 
L 3366 3988 
Q 3128 4100 2886 4159 
Q 2644 4219 2406 4219 
Q 1781 4219 1451 3797 
Q 1122 3375 1075 2522 
Q 1259 2794 1537 2939 
Q 1816 3084 2150 3084 
Q 2853 3084 3261 2657 
Q 3669 2231 3669 1497 
Q 3669 778 3244 343 
Q 2819 -91 2113 -91 
Q 1303 -91 875 529 
Q 447 1150 447 2328 
Q 447 3434 972 4092 
Q 1497 4750 2381 4750 
Q 2619 4750 2861 4703 
Q 3103 4656 3366 4563 
z
" transform="scale(0.015625)"/>
       </defs>
       <use xlink:href="#DejaVuSans-36"/>
       <use xlink:href="#DejaVuSans-30" x="63.623047"/>
      </g>
     </g>
    </g>
    <g id="text_5">
     <!-- Sample Size -->
     <g transform="translate(119.48101 179.119833) scale(0.1 -0.1)">
      <defs>
       <path id="DejaVuSans-53" d="M 3425 4513 
L 3425 3897 
Q 3066 4069 2747 4153 
Q 2428 4238 2131 4238 
Q 1616 4238 1336 4038 
Q 1056 3838 1056 3469 
Q 1056 3159 1242 3001 
Q 1428 2844 1947 2747 
L 2328 2669 
Q 3034 2534 3370 2195 
Q 3706 1856 3706 1288 
Q 3706 609 3251 259 
Q 2797 -91 1919 -91 
Q 1588 -91 1214 -16 
Q 841 59 441 206 
L 441 856 
Q 825 641 1194 531 
Q 1563 422 1919 422 
Q 2459 422 2753 634 
Q 3047 847 3047 1241 
Q 3047 1584 2836 1778 
Q 2625 1972 2144 2069 
L 1759 2144 
Q 1053 2284 737 2584 
Q 422 2884 422 3419 
Q 422 4038 858 4394 
Q 1294 4750 2059 4750 
Q 2388 4750 2728 4690 
Q 3069 4631 3425 4513 
z
" transform="scale(0.015625)"/>
       <path id="DejaVuSans-61" d="M 2194 1759 
Q 1497 1759 1228 1600 
Q 959 1441 959 1056 
Q 959 750 1161 570 
Q 1363 391 1709 391 
Q 2188 391 2477 730 
Q 2766 1069 2766 1631 
L 2766 1759 
L 2194 1759 
z
M 3341 1997 
L 3341 0 
L 2766 0 
L 2766 531 
Q 2569 213 2275 61 
Q 1981 -91 1556 -91 
Q 1019 -91 701 211 
Q 384 513 384 1019 
Q 384 1609 779 1909 
Q 1175 2209 1959 2209 
L 2766 2209 
L 2766 2266 
Q 2766 2663 2505 2880 
Q 2244 3097 1772 3097 
Q 1472 3097 1187 3025 
Q 903 2953 641 2809 
L 641 3341 
Q 956 3463 1253 3523 
Q 1550 3584 1831 3584 
Q 2591 3584 2966 3190 
Q 3341 2797 3341 1997 
z
" transform="scale(0.015625)"/>
       <path id="DejaVuSans-6d" d="M 3328 2828 
Q 3544 3216 3844 3400 
Q 4144 3584 4550 3584 
Q 5097 3584 5394 3201 
Q 5691 2819 5691 2113 
L 5691 0 
L 5113 0 
L 5113 2094 
Q 5113 2597 4934 2840 
Q 4756 3084 4391 3084 
Q 3944 3084 3684 2787 
Q 3425 2491 3425 1978 
L 3425 0 
L 2847 0 
L 2847 2094 
Q 2847 2600 2669 2842 
Q 2491 3084 2119 3084 
Q 1678 3084 1418 2786 
Q 1159 2488 1159 1978 
L 1159 0 
L 581 0 
L 581 3500 
L 1159 3500 
L 1159 2956 
Q 1356 3278 1631 3431 
Q 1906 3584 2284 3584 
Q 2666 3584 2933 3390 
Q 3200 3197 3328 2828 
z
" transform="scale(0.015625)"/>
       <path id="DejaVuSans-70" d="M 1159 525 
L 1159 -1331 
L 581 -1331 
L 581 3500 
L 1159 3500 
L 1159 2969 
Q 1341 3281 1617 3432 
Q 1894 3584 2278 3584 
Q 2916 3584 3314 3078 
Q 3713 2572 3713 1747 
Q 3713 922 3314 415 
Q 2916 -91 2278 -91 
Q 1894 -91 1617 61 
Q 1341 213 1159 525 
z
M 3116 1747 
Q 3116 2381 2855 2742 
Q 2594 3103 2138 3103 
Q 1681 3103 1420 2742 
Q 1159 2381 1159 1747 
Q 1159 1113 1420 752 
Q 1681 391 2138 391 
Q 2594 391 2855 752 
Q 3116 1113 3116 1747 
z
" transform="scale(0.015625)"/>
       <path id="DejaVuSans-6c" d="M 603 4863 
L 1178 4863 
L 1178 0 
L 603 0 
L 603 4863 
z
" transform="scale(0.015625)"/>
       <path id="DejaVuSans-65" d="M 3597 1894 
L 3597 1613 
L 953 1613 
Q 991 1019 1311 708 
Q 1631 397 2203 397 
Q 2534 397 2845 478 
Q 3156 559 3463 722 
L 3463 178 
Q 3153 47 2828 -22 
Q 2503 -91 2169 -91 
Q 1331 -91 842 396 
Q 353 884 353 1716 
Q 353 2575 817 3079 
Q 1281 3584 2069 3584 
Q 2775 3584 3186 3129 
Q 3597 2675 3597 1894 
z
M 3022 2063 
Q 3016 2534 2758 2815 
Q 2500 3097 2075 3097 
Q 1594 3097 1305 2825 
Q 1016 2553 972 2059 
L 3022 2063 
z
" transform="scale(0.015625)"/>
       <path id="DejaVuSans-20" transform="scale(0.015625)"/>
       <path id="DejaVuSans-69" d="M 603 3500 
L 1178 3500 
L 1178 0 
L 603 0 
L 603 3500 
z
M 603 4863 
L 1178 4863 
L 1178 4134 
L 603 4134 
L 603 4863 
z
" transform="scale(0.015625)"/>
       <path id="DejaVuSans-7a" d="M 353 3500 
L 3084 3500 
L 3084 2975 
L 922 459 
L 3084 459 
L 3084 0 
L 275 0 
L 275 525 
L 2438 3041 
L 353 3041 
L 353 3500 
z
" transform="scale(0.015625)"/>
      </defs>
      <use xlink:href="#DejaVuSans-53"/>
      <use xlink:href="#DejaVuSans-61" x="63.476562"/>
      <use xlink:href="#DejaVuSans-6d" x="124.755859"/>
      <use xlink:href="#DejaVuSans-70" x="222.167969"/>
      <use xlink:href="#DejaVuSans-6c" x="285.644531"/>
      <use xlink:href="#DejaVuSans-65" x="313.427734"/>
      <use xlink:href="#DejaVuSans-20" x="374.951172"/>
      <use xlink:href="#DejaVuSans-53" x="406.738281"/>
      <use xlink:href="#DejaVuSans-69" x="470.214844"/>
      <use xlink:href="#DejaVuSans-7a" x="497.998047"/>
      <use xlink:href="#DejaVuSans-65" x="550.488281"/>
     </g>
    </g>
   </g>
   <g id="matplotlib.axis_2">
    <g id="ytick_1">
     <g id="line2d_5">
      <defs>
       <path id="md3d6632cab" d="M 0 0 
L -3.5 0 
" style="stroke: #000000; stroke-width: 0.8"/>
      </defs>
      <g>
       <use xlink:href="#md3d6632cab" x="46.965625" y="150.84327" style="stroke: #000000; stroke-width: 0.8"/>
      </g>
     </g>
     <g id="text_6">
      <!-- 0 -->
      <g transform="translate(33.603125 154.642489) scale(0.1 -0.1)">
       <use xlink:href="#DejaVuSans-30"/>
      </g>
     </g>
    </g>
    <g id="ytick_2">
     <g id="line2d_6">
      <g>
       <use xlink:href="#md3d6632cab" x="46.965625" y="122.917232" style="stroke: #000000; stroke-width: 0.8"/>
      </g>
     </g>
     <g id="text_7">
      <!-- 50 -->
      <g transform="translate(27.240625 126.716451) scale(0.1 -0.1)">
       <defs>
        <path id="DejaVuSans-35" d="M 691 4666 
L 3169 4666 
L 3169 4134 
L 1269 4134 
L 1269 2991 
Q 1406 3038 1543 3061 
Q 1681 3084 1819 3084 
Q 2600 3084 3056 2656 
Q 3513 2228 3513 1497 
Q 3513 744 3044 326 
Q 2575 -91 1722 -91 
Q 1428 -91 1123 -41 
Q 819 9 494 109 
L 494 744 
Q 775 591 1075 516 
Q 1375 441 1709 441 
Q 2250 441 2565 725 
Q 2881 1009 2881 1497 
Q 2881 1984 2565 2268 
Q 2250 2553 1709 2553 
Q 1456 2553 1204 2497 
Q 953 2441 691 2322 
L 691 4666 
z
" transform="scale(0.015625)"/>
       </defs>
       <use xlink:href="#DejaVuSans-35"/>
       <use xlink:href="#DejaVuSans-30" x="63.623047"/>
      </g>
     </g>
    </g>
    <g id="ytick_3">
     <g id="line2d_7">
      <g>
       <use xlink:href="#md3d6632cab" x="46.965625" y="94.991194" style="stroke: #000000; stroke-width: 0.8"/>
      </g>
     </g>
     <g id="text_8">
      <!-- 100 -->
      <g transform="translate(20.878125 98.790413) scale(0.1 -0.1)">
       <defs>
        <path id="DejaVuSans-31" d="M 794 531 
L 1825 531 
L 1825 4091 
L 703 3866 
L 703 4441 
L 1819 4666 
L 2450 4666 
L 2450 531 
L 3481 531 
L 3481 0 
L 794 0 
L 794 531 
z
" transform="scale(0.015625)"/>
       </defs>
       <use xlink:href="#DejaVuSans-31"/>
       <use xlink:href="#DejaVuSans-30" x="63.623047"/>
       <use xlink:href="#DejaVuSans-30" x="127.246094"/>
      </g>
     </g>
    </g>
    <g id="ytick_4">
     <g id="line2d_8">
      <g>
       <use xlink:href="#md3d6632cab" x="46.965625" y="67.065156" style="stroke: #000000; stroke-width: 0.8"/>
      </g>
     </g>
     <g id="text_9">
      <!-- 150 -->
      <g transform="translate(20.878125 70.864375) scale(0.1 -0.1)">
       <use xlink:href="#DejaVuSans-31"/>
       <use xlink:href="#DejaVuSans-35" x="63.623047"/>
       <use xlink:href="#DejaVuSans-30" x="127.246094"/>
      </g>
     </g>
    </g>
    <g id="ytick_5">
     <g id="line2d_9">
      <g>
       <use xlink:href="#md3d6632cab" x="46.965625" y="39.139119" style="stroke: #000000; stroke-width: 0.8"/>
      </g>
     </g>
     <g id="text_10">
      <!-- 200 -->
      <g transform="translate(20.878125 42.938337) scale(0.1 -0.1)">
       <use xlink:href="#DejaVuSans-32"/>
       <use xlink:href="#DejaVuSans-30" x="63.623047"/>
       <use xlink:href="#DejaVuSans-30" x="127.246094"/>
      </g>
     </g>
    </g>
    <g id="ytick_6">
     <g id="line2d_10">
      <g>
       <use xlink:href="#md3d6632cab" x="46.965625" y="11.213081" style="stroke: #000000; stroke-width: 0.8"/>
      </g>
     </g>
     <g id="text_11">
      <!-- 250 -->
      <g transform="translate(20.878125 15.012299) scale(0.1 -0.1)">
       <use xlink:href="#DejaVuSans-32"/>
       <use xlink:href="#DejaVuSans-35" x="63.623047"/>
       <use xlink:href="#DejaVuSans-30" x="127.246094"/>
      </g>
     </g>
    </g>
    <g id="text_12">
     <!-- Empirical Classification Error -->
     <g transform="translate(14.798437 150.707573) rotate(-90) scale(0.1 -0.1)">
      <defs>
       <path id="DejaVuSans-45" d="M 628 4666 
L 3578 4666 
L 3578 4134 
L 1259 4134 
L 1259 2753 
L 3481 2753 
L 3481 2222 
L 1259 2222 
L 1259 531 
L 3634 531 
L 3634 0 
L 628 0 
L 628 4666 
z
" transform="scale(0.015625)"/>
       <path id="DejaVuSans-72" d="M 2631 2963 
Q 2534 3019 2420 3045 
Q 2306 3072 2169 3072 
Q 1681 3072 1420 2755 
Q 1159 2438 1159 1844 
L 1159 0 
L 581 0 
L 581 3500 
L 1159 3500 
L 1159 2956 
Q 1341 3275 1631 3429 
Q 1922 3584 2338 3584 
Q 2397 3584 2469 3576 
Q 2541 3569 2628 3553 
L 2631 2963 
z
" transform="scale(0.015625)"/>
       <path id="DejaVuSans-63" d="M 3122 3366 
L 3122 2828 
Q 2878 2963 2633 3030 
Q 2388 3097 2138 3097 
Q 1578 3097 1268 2742 
Q 959 2388 959 1747 
Q 959 1106 1268 751 
Q 1578 397 2138 397 
Q 2388 397 2633 464 
Q 2878 531 3122 666 
L 3122 134 
Q 2881 22 2623 -34 
Q 2366 -91 2075 -91 
Q 1284 -91 818 406 
Q 353 903 353 1747 
Q 353 2603 823 3093 
Q 1294 3584 2113 3584 
Q 2378 3584 2631 3529 
Q 2884 3475 3122 3366 
z
" transform="scale(0.015625)"/>
       <path id="DejaVuSans-43" d="M 4122 4306 
L 4122 3641 
Q 3803 3938 3442 4084 
Q 3081 4231 2675 4231 
Q 1875 4231 1450 3742 
Q 1025 3253 1025 2328 
Q 1025 1406 1450 917 
Q 1875 428 2675 428 
Q 3081 428 3442 575 
Q 3803 722 4122 1019 
L 4122 359 
Q 3791 134 3420 21 
Q 3050 -91 2638 -91 
Q 1578 -91 968 557 
Q 359 1206 359 2328 
Q 359 3453 968 4101 
Q 1578 4750 2638 4750 
Q 3056 4750 3426 4639 
Q 3797 4528 4122 4306 
z
" transform="scale(0.015625)"/>
       <path id="DejaVuSans-73" d="M 2834 3397 
L 2834 2853 
Q 2591 2978 2328 3040 
Q 2066 3103 1784 3103 
Q 1356 3103 1142 2972 
Q 928 2841 928 2578 
Q 928 2378 1081 2264 
Q 1234 2150 1697 2047 
L 1894 2003 
Q 2506 1872 2764 1633 
Q 3022 1394 3022 966 
Q 3022 478 2636 193 
Q 2250 -91 1575 -91 
Q 1294 -91 989 -36 
Q 684 19 347 128 
L 347 722 
Q 666 556 975 473 
Q 1284 391 1588 391 
Q 1994 391 2212 530 
Q 2431 669 2431 922 
Q 2431 1156 2273 1281 
Q 2116 1406 1581 1522 
L 1381 1569 
Q 847 1681 609 1914 
Q 372 2147 372 2553 
Q 372 3047 722 3315 
Q 1072 3584 1716 3584 
Q 2034 3584 2315 3537 
Q 2597 3491 2834 3397 
z
" transform="scale(0.015625)"/>
       <path id="DejaVuSans-66" d="M 2375 4863 
L 2375 4384 
L 1825 4384 
Q 1516 4384 1395 4259 
Q 1275 4134 1275 3809 
L 1275 3500 
L 2222 3500 
L 2222 3053 
L 1275 3053 
L 1275 0 
L 697 0 
L 697 3053 
L 147 3053 
L 147 3500 
L 697 3500 
L 697 3744 
Q 697 4328 969 4595 
Q 1241 4863 1831 4863 
L 2375 4863 
z
" transform="scale(0.015625)"/>
       <path id="DejaVuSans-74" d="M 1172 4494 
L 1172 3500 
L 2356 3500 
L 2356 3053 
L 1172 3053 
L 1172 1153 
Q 1172 725 1289 603 
Q 1406 481 1766 481 
L 2356 481 
L 2356 0 
L 1766 0 
Q 1100 0 847 248 
Q 594 497 594 1153 
L 594 3053 
L 172 3053 
L 172 3500 
L 594 3500 
L 594 4494 
L 1172 4494 
z
" transform="scale(0.015625)"/>
       <path id="DejaVuSans-6f" d="M 1959 3097 
Q 1497 3097 1228 2736 
Q 959 2375 959 1747 
Q 959 1119 1226 758 
Q 1494 397 1959 397 
Q 2419 397 2687 759 
Q 2956 1122 2956 1747 
Q 2956 2369 2687 2733 
Q 2419 3097 1959 3097 
z
M 1959 3584 
Q 2709 3584 3137 3096 
Q 3566 2609 3566 1747 
Q 3566 888 3137 398 
Q 2709 -91 1959 -91 
Q 1206 -91 779 398 
Q 353 888 353 1747 
Q 353 2609 779 3096 
Q 1206 3584 1959 3584 
z
" transform="scale(0.015625)"/>
       <path id="DejaVuSans-6e" d="M 3513 2113 
L 3513 0 
L 2938 0 
L 2938 2094 
Q 2938 2591 2744 2837 
Q 2550 3084 2163 3084 
Q 1697 3084 1428 2787 
Q 1159 2491 1159 1978 
L 1159 0 
L 581 0 
L 581 3500 
L 1159 3500 
L 1159 2956 
Q 1366 3272 1645 3428 
Q 1925 3584 2291 3584 
Q 2894 3584 3203 3211 
Q 3513 2838 3513 2113 
z
" transform="scale(0.015625)"/>
      </defs>
      <use xlink:href="#DejaVuSans-45"/>
      <use xlink:href="#DejaVuSans-6d" x="63.183594"/>
      <use xlink:href="#DejaVuSans-70" x="160.595703"/>
      <use xlink:href="#DejaVuSans-69" x="224.072266"/>
      <use xlink:href="#DejaVuSans-72" x="251.855469"/>
      <use xlink:href="#DejaVuSans-69" x="292.96875"/>
      <use xlink:href="#DejaVuSans-63" x="320.751953"/>
      <use xlink:href="#DejaVuSans-61" x="375.732422"/>
      <use xlink:href="#DejaVuSans-6c" x="437.011719"/>
      <use xlink:href="#DejaVuSans-20" x="464.794922"/>
      <use xlink:href="#DejaVuSans-43" x="496.582031"/>
      <use xlink:href="#DejaVuSans-6c" x="566.40625"/>
      <use xlink:href="#DejaVuSans-61" x="594.189453"/>
      <use xlink:href="#DejaVuSans-73" x="655.46875"/>
      <use xlink:href="#DejaVuSans-73" x="707.568359"/>
      <use xlink:href="#DejaVuSans-69" x="759.667969"/>
      <use xlink:href="#DejaVuSans-66" x="787.451172"/>
      <use xlink:href="#DejaVuSans-69" x="822.65625"/>
      <use xlink:href="#DejaVuSans-63" x="850.439453"/>
      <use xlink:href="#DejaVuSans-61" x="905.419922"/>
      <use xlink:href="#DejaVuSans-74" x="966.699219"/>
      <use xlink:href="#DejaVuSans-69" x="1005.908203"/>
      <use xlink:href="#DejaVuSans-6f" x="1033.691406"/>
      <use xlink:href="#DejaVuSans-6e" x="1094.873047"/>
      <use xlink:href="#DejaVuSans-20" x="1158.251953"/>
      <use xlink:href="#DejaVuSans-45" x="1190.039062"/>
      <use xlink:href="#DejaVuSans-72" x="1253.222656"/>
      <use xlink:href="#DejaVuSans-72" x="1292.585938"/>
      <use xlink:href="#DejaVuSans-6f" x="1331.449219"/>
      <use xlink:href="#DejaVuSans-72" x="1392.630859"/>
     </g>
    </g>
   </g>
   <g id="line2d_11">
    <path d="M 50.18803 19.172002 
L 53.410434 24.181235 
L 56.632839 29.312644 
L 59.855243 35.072389 
L 63.077648 37.830086 
L 66.300053 40.133984 
L 69.522457 42.38552 
L 72.744862 44.09599 
L 75.967266 46.59188 
L 79.189671 49.908097 
L 82.412076 50.518979 
L 85.63448 53.730473 
L 88.856885 55.737657 
L 92.07929 56.662707 
L 95.301694 59.420404 
L 98.524099 62.474814 
L 101.746503 65.075426 
L 104.968908 67.693492 
L 108.191313 69.194517 
L 111.413717 70.765356 
L 114.636122 73.662683 
L 117.858526 76.05385 
L 121.080931 78.130849 
L 124.303336 79.666781 
L 127.52574 81.307436 
L 130.748145 84.169855 
L 133.970549 85.269442 
L 137.192954 87.887508 
L 140.415359 88.917281 
L 143.637763 91.116457 
L 146.860168 92.98401 
L 150.082572 94.27559 
L 153.304977 97.085647 
L 156.527382 99.598991 
L 159.749786 101.710897 
L 162.972191 103.403913 
L 166.194596 105.568181 
L 169.417 108.552776 
L 172.639405 110.55996 
L 175.861809 113.666732 
L 179.084214 116.581512 
L 182.306619 118.623604 
L 185.529023 121.189309 
L 188.751428 122.30635 
L 191.973832 127.106138 
L 195.196237 129.026053 
L 198.418642 132.412085 
L 201.641046 136.304277 
L 204.863451 142.203652 
L 208.085855 150.84327 
L 211.30826 150.84327 
L 214.530665 150.84327 
L 217.753069 150.84327 
L 220.975474 150.84327 
L 224.197879 150.84327 
L 227.420283 150.84327 
L 230.642688 150.84327 
L 233.865092 150.84327 
L 237.087497 150.84327 
L 240.309902 150.84327 
L 243.532306 150.84327 
" clip-path="url(#pa9641a9a81)" style="fill: none; stroke: #4c72b0; stroke-width: 1.5; stroke-linecap: square"/>
   </g>
   <g id="line2d_12">
    <path d="M 50.18803 22.697664 
L 53.410434 28.282871 
L 56.632839 34.828036 
L 59.855243 38.458421 
L 63.077648 41.582647 
L 66.300053 45.562107 
L 69.522457 48.145266 
L 72.744862 50.955323 
L 75.967266 52.805423 
L 79.189671 55.423489 
L 82.412076 58.844429 
L 85.63448 60.048739 
L 88.856885 61.898839 
L 92.07929 63.906023 
L 95.301694 65.441955 
L 98.524099 68.758172 
L 101.746503 70.555911 
L 104.968908 71.603138 
L 108.191313 72.77254 
L 111.413717 74.727363 
L 114.636122 77.502513 
L 117.858526 80.03331 
L 121.080931 82.354662 
L 124.303336 83.436796 
L 127.52574 86.473753 
L 130.748145 86.979912 
L 133.970549 88.21913 
L 137.192954 90.85465 
L 140.415359 92.84438 
L 143.637763 94.258136 
L 146.860168 96.562034 
L 150.082572 100.681125 
L 153.304977 102.810485 
L 156.527382 103.840258 
L 159.749786 106.947029 
L 162.972191 109.024028 
L 166.194596 110.525053 
L 169.417 112.444968 
L 172.639405 114.923404 
L 175.861809 117.611285 
L 179.084214 119.461385 
L 182.306619 122.044543 
L 185.529023 123.528114 
L 188.751428 126.983961 
L 191.973832 129.026053 
L 195.196237 131.382312 
L 198.418642 134.174916 
L 201.641046 137.718032 
L 204.863451 143.023979 
L 208.085855 150.84327 
L 211.30826 150.84327 
L 214.530665 150.84327 
L 217.753069 150.84327 
L 220.975474 150.84327 
L 224.197879 150.84327 
L 227.420283 150.84327 
L 230.642688 150.84327 
L 233.865092 150.84327 
L 237.087497 150.84327 
L 240.309902 150.84327 
L 243.532306 150.84327 
" clip-path="url(#pa9641a9a81)" style="fill: none; stroke: #dd8452; stroke-width: 1.5; stroke-linecap: square"/>
   </g>
   <g id="line2d_13">
    <path d="M 50.18803 17.339355 
L 53.410434 22.662756 
L 56.632839 26.712032 
L 59.855243 28.160695 
L 63.077648 31.372189 
L 66.300053 34.810583 
L 69.522457 37.742817 
L 72.744862 41.68737 
L 75.967266 44.340343 
L 79.189671 45.841368 
L 82.412076 47.482022 
L 85.63448 50.93787 
L 88.856885 52.28181 
L 92.07929 55.19659 
L 95.301694 57.41322 
L 98.524099 60.659622 
L 101.746503 62.736621 
L 104.968908 63.958385 
L 108.191313 66.035384 
L 111.413717 68.461458 
L 114.636122 69.71813 
L 117.858526 72.440919 
L 121.080931 74.936808 
L 124.303336 77.048715 
L 127.52574 78.357748 
L 130.748145 80.923453 
L 133.970549 82.878275 
L 137.192954 85.059997 
L 140.415359 87.835147 
L 143.637763 90.557936 
L 146.860168 92.285859 
L 150.082572 95.130824 
L 153.304977 97.033286 
L 156.527382 99.023016 
L 159.749786 101.222191 
L 162.972191 104.747854 
L 166.194596 105.969618 
L 169.417 106.894668 
L 172.639405 110.053801 
L 175.861809 111.502464 
L 179.084214 114.295068 
L 182.306619 117.611285 
L 185.529023 120.17699 
L 188.751428 122.829963 
L 191.973832 126.041458 
L 195.196237 127.978827 
L 198.418642 133.91311 
L 201.641046 138.224192 
L 204.863451 142.064022 
L 208.085855 150.84327 
L 211.30826 150.84327 
L 214.530665 150.84327 
L 217.753069 150.84327 
L 220.975474 150.84327 
L 224.197879 150.84327 
L 227.420283 150.84327 
L 230.642688 150.84327 
L 233.865092 150.84327 
L 237.087497 150.84327 
L 240.309902 150.84327 
L 243.532306 150.84327 
" clip-path="url(#pa9641a9a81)" style="fill: none; stroke: #55a868; stroke-width: 1.5; stroke-linecap: square"/>
   </g>
   <g id="line2d_14"/>
   <g id="line2d_15"/>
   <g id="line2d_16"/>
   <g id="line2d_17">
    <path d="M 208.085855 150.84327 
L 208.085855 7.2 
" clip-path="url(#pa9641a9a81)" style="fill: none; stroke-dasharray: 5.55,2.4; stroke-dashoffset: 0; stroke: #808080; stroke-width: 1.5"/>
   </g>
   <g id="patch_3">
    <path d="M 46.965625 150.84327 
L 46.965625 7.2 
" style="fill: none; stroke: #000000; stroke-width: 0.8; stroke-linejoin: miter; stroke-linecap: square"/>
   </g>
   <g id="patch_4">
    <path d="M 253.19952 150.84327 
L 253.19952 7.2 
" style="fill: none; stroke: #000000; stroke-width: 0.8; stroke-linejoin: miter; stroke-linecap: square"/>
   </g>
   <g id="patch_5">
    <path d="M 46.965625 150.84327 
L 253.19952 150.84327 
" style="fill: none; stroke: #000000; stroke-width: 0.8; stroke-linejoin: miter; stroke-linecap: square"/>
   </g>
   <g id="patch_6">
    <path d="M 46.965625 7.2 
L 253.19952 7.2 
" style="fill: none; stroke: #000000; stroke-width: 0.8; stroke-linejoin: miter; stroke-linecap: square"/>
   </g>
   <g id="legend_1">
    <g id="patch_7">
     <path d="M 97.754207 59.234375 
L 246.19952 59.234375 
Q 248.19952 59.234375 248.19952 57.234375 
L 248.19952 14.2 
Q 248.19952 12.2 246.19952 12.2 
L 97.754207 12.2 
Q 95.754207 12.2 95.754207 14.2 
L 95.754207 57.234375 
Q 95.754207 59.234375 97.754207 59.234375 
z
" style="fill: #ffffff; opacity: 0.8; stroke: #cccccc; stroke-linejoin: miter"/>
    </g>
    <g id="line2d_18">
     <path d="M 99.754207 20.298438 
L 109.754207 20.298438 
L 119.754207 20.298438 
" style="fill: none; stroke: #4c72b0; stroke-width: 1.5; stroke-linecap: square"/>
    </g>
    <g id="text_13">
     <!-- Random -->
     <g transform="translate(127.754207 23.798438) scale(0.1 -0.1)">
      <defs>
       <path id="DejaVuSans-52" d="M 2841 2188 
Q 3044 2119 3236 1894 
Q 3428 1669 3622 1275 
L 4263 0 
L 3584 0 
L 2988 1197 
Q 2756 1666 2539 1819 
Q 2322 1972 1947 1972 
L 1259 1972 
L 1259 0 
L 628 0 
L 628 4666 
L 2053 4666 
Q 2853 4666 3247 4331 
Q 3641 3997 3641 3322 
Q 3641 2881 3436 2590 
Q 3231 2300 2841 2188 
z
M 1259 4147 
L 1259 2491 
L 2053 2491 
Q 2509 2491 2742 2702 
Q 2975 2913 2975 3322 
Q 2975 3731 2742 3939 
Q 2509 4147 2053 4147 
L 1259 4147 
z
" transform="scale(0.015625)"/>
       <path id="DejaVuSans-64" d="M 2906 2969 
L 2906 4863 
L 3481 4863 
L 3481 0 
L 2906 0 
L 2906 525 
Q 2725 213 2448 61 
Q 2172 -91 1784 -91 
Q 1150 -91 751 415 
Q 353 922 353 1747 
Q 353 2572 751 3078 
Q 1150 3584 1784 3584 
Q 2172 3584 2448 3432 
Q 2725 3281 2906 2969 
z
M 947 1747 
Q 947 1113 1208 752 
Q 1469 391 1925 391 
Q 2381 391 2643 752 
Q 2906 1113 2906 1747 
Q 2906 2381 2643 2742 
Q 2381 3103 1925 3103 
Q 1469 3103 1208 2742 
Q 947 2381 947 1747 
z
" transform="scale(0.015625)"/>
      </defs>
      <use xlink:href="#DejaVuSans-52"/>
      <use xlink:href="#DejaVuSans-61" x="67.232422"/>
      <use xlink:href="#DejaVuSans-6e" x="128.511719"/>
      <use xlink:href="#DejaVuSans-64" x="191.890625"/>
      <use xlink:href="#DejaVuSans-6f" x="255.367188"/>
      <use xlink:href="#DejaVuSans-6d" x="316.548828"/>
     </g>
    </g>
    <g id="line2d_19">
     <path d="M 99.754207 34.976563 
L 109.754207 34.976563 
L 119.754207 34.976563 
" style="fill: none; stroke: #dd8452; stroke-width: 1.5; stroke-linecap: square"/>
    </g>
    <g id="text_14">
     <!-- Classification-optimal -->
     <g transform="translate(127.754207 38.476563) scale(0.1 -0.1)">
      <defs>
       <path id="DejaVuSans-2d" d="M 313 2009 
L 1997 2009 
L 1997 1497 
L 313 1497 
L 313 2009 
z
" transform="scale(0.015625)"/>
      </defs>
      <use xlink:href="#DejaVuSans-43"/>
      <use xlink:href="#DejaVuSans-6c" x="69.824219"/>
      <use xlink:href="#DejaVuSans-61" x="97.607422"/>
      <use xlink:href="#DejaVuSans-73" x="158.886719"/>
      <use xlink:href="#DejaVuSans-73" x="210.986328"/>
      <use xlink:href="#DejaVuSans-69" x="263.085938"/>
      <use xlink:href="#DejaVuSans-66" x="290.869141"/>
      <use xlink:href="#DejaVuSans-69" x="326.074219"/>
      <use xlink:href="#DejaVuSans-63" x="353.857422"/>
      <use xlink:href="#DejaVuSans-61" x="408.837891"/>
      <use xlink:href="#DejaVuSans-74" x="470.117188"/>
      <use xlink:href="#DejaVuSans-69" x="509.326172"/>
      <use xlink:href="#DejaVuSans-6f" x="537.109375"/>
      <use xlink:href="#DejaVuSans-6e" x="598.291016"/>
      <use xlink:href="#DejaVuSans-2d" x="661.669922"/>
      <use xlink:href="#DejaVuSans-6f" x="699.628906"/>
      <use xlink:href="#DejaVuSans-70" x="760.810547"/>
      <use xlink:href="#DejaVuSans-74" x="824.287109"/>
      <use xlink:href="#DejaVuSans-69" x="863.496094"/>
      <use xlink:href="#DejaVuSans-6d" x="891.279297"/>
      <use xlink:href="#DejaVuSans-61" x="988.691406"/>
      <use xlink:href="#DejaVuSans-6c" x="1049.970703"/>
     </g>
    </g>
    <g id="line2d_20">
     <path d="M 99.754207 49.654688 
L 109.754207 49.654688 
L 119.754207 49.654688 
" style="fill: none; stroke: #55a868; stroke-width: 1.5; stroke-linecap: square"/>
    </g>
    <g id="text_15">
     <!-- Reconstruction-optimal -->
     <g transform="translate(127.754207 53.154688) scale(0.1 -0.1)">
      <defs>
       <path id="DejaVuSans-75" d="M 544 1381 
L 544 3500 
L 1119 3500 
L 1119 1403 
Q 1119 906 1312 657 
Q 1506 409 1894 409 
Q 2359 409 2629 706 
Q 2900 1003 2900 1516 
L 2900 3500 
L 3475 3500 
L 3475 0 
L 2900 0 
L 2900 538 
Q 2691 219 2414 64 
Q 2138 -91 1772 -91 
Q 1169 -91 856 284 
Q 544 659 544 1381 
z
M 1991 3584 
L 1991 3584 
z
" transform="scale(0.015625)"/>
      </defs>
      <use xlink:href="#DejaVuSans-52"/>
      <use xlink:href="#DejaVuSans-65" x="64.982422"/>
      <use xlink:href="#DejaVuSans-63" x="126.505859"/>
      <use xlink:href="#DejaVuSans-6f" x="181.486328"/>
      <use xlink:href="#DejaVuSans-6e" x="242.667969"/>
      <use xlink:href="#DejaVuSans-73" x="306.046875"/>
      <use xlink:href="#DejaVuSans-74" x="358.146484"/>
      <use xlink:href="#DejaVuSans-72" x="397.355469"/>
      <use xlink:href="#DejaVuSans-75" x="438.46875"/>
      <use xlink:href="#DejaVuSans-63" x="501.847656"/>
      <use xlink:href="#DejaVuSans-74" x="556.828125"/>
      <use xlink:href="#DejaVuSans-69" x="596.037109"/>
      <use xlink:href="#DejaVuSans-6f" x="623.820312"/>
      <use xlink:href="#DejaVuSans-6e" x="685.001953"/>
      <use xlink:href="#DejaVuSans-2d" x="748.380859"/>
      <use xlink:href="#DejaVuSans-6f" x="786.339844"/>
      <use xlink:href="#DejaVuSans-70" x="847.521484"/>
      <use xlink:href="#DejaVuSans-74" x="910.998047"/>
      <use xlink:href="#DejaVuSans-69" x="950.207031"/>
      <use xlink:href="#DejaVuSans-6d" x="977.990234"/>
      <use xlink:href="#DejaVuSans-61" x="1075.402344"/>
      <use xlink:href="#DejaVuSans-6c" x="1136.681641"/>
     </g>
    </g>
   </g>
  </g>
 </g>
 <defs>
  <clipPath id="pa9641a9a81">
   <rect x="46.965625" y="7.2" width="206.233895" height="143.64327"/>
  </clipPath>
 </defs>
</svg>
