<?xml version="1.0" encoding="utf-8" standalone="no"?>
<!DOCTYPE svg PUBLIC "-//W3C//DTD SVG 1.1//EN"
  "http://www.w3.org/Graphics/SVG/1.1/DTD/svg11.dtd">
<svg xmlns:xlink="http://www.w3.org/1999/xlink" width="260.398922pt" height="188.39952pt" viewBox="0 0 260.398922 188.39952" xmlns="http://www.w3.org/2000/svg" version="1.1">
 <metadata>
  <rdf:RDF xmlns:dc="http://purl.org/dc/elements/1.1/" xmlns:cc="http://creativecommons.org/ns#" xmlns:rdf="http://www.w3.org/1999/02/22-rdf-syntax-ns#">
   <cc:Work>
    <dc:type rdf:resource="http://purl.org/dc/dcmitype/StillImage"/>
    <dc:date>1980-01-01T00:00:00+00:00</dc:date>
    <dc:format>image/svg+xml</dc:format>
    <dc:creator>
     <cc:Agent>
      <dc:title>Matplotlib v3.7.5, https://matplotlib.org/</dc:title>
     </cc:Agent>
    </dc:creator>
   </cc:Work>
  </rdf:RDF>
 </metadata>
 <defs>
  <style type="text/css">*{stroke-linejoin: round; stroke-linecap: butt}</style>
 </defs>
 <g id="figure_1">
  <g id="patch_1">
   <path d="M -0 188.39952 
L 260.398922 188.39952 
L 260.398922 0 
L -0 0 
z
" style="fill: #ffffff"/>
  </g>
  <g id="axes_1">
   <g id="patch_2">
    <path d="M 66.053125 150.84327 
L 250.972376 150.84327 
L 250.972376 7.2 
L 66.053125 7.2 
z
" style="fill: #ffffff"/>
   </g>
   <g id="PolyCollection_1">
    <defs>
     <path id="m01324ba86a" d="M 67.473941 -38.95755 
L 67.473941 -38.92943 
L 68.894758 -38.903121 
L 70.315574 -38.876159 
L 71.736391 -38.849753 
L 73.157207 -38.821416 
L 74.578023 -38.794794 
L 75.99884 -38.765709 
L 77.419656 -38.739737 
L 78.840472 -38.711439 
L 80.261289 -38.685838 
L 81.682105 -38.658821 
L 83.102922 -38.630418 
L 84.523738 -38.605306 
L 85.944554 -38.57723 
L 87.365371 -38.552024 
L 88.786187 -38.524893 
L 90.207003 -38.499831 
L 91.62782 -38.473337 
L 93.048636 -38.446829 
L 94.469453 -38.419328 
L 95.890269 -38.393012 
L 97.311085 -38.367583 
L 98.731902 -38.341385 
L 100.152718 -38.315437 
L 101.573534 -38.28991 
L 102.994351 -38.264655 
L 104.415167 -38.239704 
L 105.835984 -38.214196 
L 107.2568 -38.187757 
L 108.677616 -38.16356 
L 110.098433 -38.143036 
L 111.519249 -38.119664 
L 112.940065 -38.096205 
L 114.360882 -38.074977 
L 115.781698 -38.053061 
L 117.202515 -38.032493 
L 118.623331 -38.015191 
L 120.044147 -38.00302 
L 121.464964 -37.989421 
L 122.88578 -37.980949 
L 124.306596 -37.982651 
L 125.727413 -37.988406 
L 127.148229 -38.000118 
L 128.569046 -38.010445 
L 129.989862 -38.046086 
L 131.410678 -38.164148 
L 132.831495 -38.411352 
L 134.252311 -39.093812 
L 135.673127 -40.939585 
L 137.093944 -59.159816 
L 138.51476 -40.063127 
L 139.935577 -38.506433 
L 141.356393 -38.211186 
L 142.777209 -38.063181 
L 144.198026 -37.98727 
L 145.618842 -37.845117 
L 147.039658 -37.789578 
L 148.460475 -37.759944 
L 149.881291 -37.731342 
L 151.302108 -37.703036 
L 152.722924 -37.682063 
L 154.14374 -37.668201 
L 155.564557 -37.653777 
L 156.985373 -37.642727 
L 158.406189 -37.634907 
L 159.827006 -37.629908 
L 161.247822 -37.624301 
L 162.668639 -37.619769 
L 164.089455 -37.614714 
L 165.510271 -37.611406 
L 166.931088 -37.607674 
L 168.351904 -37.604315 
L 169.77272 -37.601502 
L 171.193537 -37.598681 
L 172.614353 -37.596962 
L 174.03517 -37.59512 
L 175.455986 -37.593074 
L 176.876802 -37.591214 
L 178.297619 -37.589275 
L 179.718435 -37.587823 
L 181.139251 -37.586267 
L 182.560068 -37.585264 
L 183.980884 -37.583843 
L 185.401701 -37.582713 
L 186.822517 -37.581818 
L 188.243333 -37.580671 
L 189.66415 -37.579618 
L 191.084966 -37.578742 
L 192.505782 -37.578074 
L 193.926599 -37.577305 
L 195.347415 -37.576473 
L 196.768232 -37.575846 
L 198.189048 -37.575382 
L 199.609864 -37.574897 
L 201.030681 -37.574384 
L 202.451497 -37.574057 
L 203.872314 -37.57357 
L 205.29313 -37.573122 
L 206.713946 -37.572615 
L 208.134763 -37.572187 
L 209.555579 -37.571774 
L 210.976395 -37.571461 
L 212.397212 -37.571113 
L 213.818028 -37.570707 
L 215.238845 -37.570366 
L 216.659661 -37.570144 
L 218.080477 -37.569859 
L 219.501294 -37.56957 
L 220.92211 -37.569437 
L 222.342926 -37.569121 
L 223.763743 -37.568877 
L 225.184559 -37.568565 
L 226.605376 -37.568318 
L 228.026192 -37.568127 
L 229.447008 -37.56776 
L 230.867825 -37.567551 
L 232.288641 -37.567326 
L 233.709457 -37.567149 
L 235.130274 -37.566876 
L 236.55109 -37.56671 
L 237.971907 -37.566484 
L 239.392723 -37.566293 
L 240.813539 -37.566193 
L 242.234356 -37.566075 
L 242.234356 -37.566727 
L 242.234356 -37.566727 
L 240.813539 -37.566865 
L 239.392723 -37.56704 
L 237.971907 -37.567243 
L 236.55109 -37.567502 
L 235.130274 -37.567635 
L 233.709457 -37.56788 
L 232.288641 -37.568077 
L 230.867825 -37.568333 
L 229.447008 -37.568562 
L 228.026192 -37.568927 
L 226.605376 -37.569156 
L 225.184559 -37.569393 
L 223.763743 -37.569849 
L 222.342926 -37.570074 
L 220.92211 -37.570344 
L 219.501294 -37.570514 
L 218.080477 -37.570836 
L 216.659661 -37.571145 
L 215.238845 -37.571379 
L 213.818028 -37.571871 
L 212.397212 -37.572347 
L 210.976395 -37.572703 
L 209.555579 -37.573213 
L 208.134763 -37.573627 
L 206.713946 -37.574092 
L 205.29313 -37.57471 
L 203.872314 -37.575205 
L 202.451497 -37.575895 
L 201.030681 -37.576296 
L 199.609864 -37.576845 
L 198.189048 -37.577435 
L 196.768232 -37.577996 
L 195.347415 -37.578772 
L 193.926599 -37.579686 
L 192.505782 -37.580674 
L 191.084966 -37.581388 
L 189.66415 -37.582446 
L 188.243333 -37.583601 
L 186.822517 -37.584611 
L 185.401701 -37.585807 
L 183.980884 -37.587669 
L 182.560068 -37.588867 
L 181.139251 -37.59013 
L 179.718435 -37.591646 
L 178.297619 -37.593244 
L 176.876802 -37.595346 
L 175.455986 -37.597125 
L 174.03517 -37.599233 
L 172.614353 -37.601598 
L 171.193537 -37.60426 
L 169.77272 -37.608015 
L 168.351904 -37.612338 
L 166.931088 -37.615062 
L 165.510271 -37.620122 
L 164.089455 -37.62461 
L 162.668639 -37.630373 
L 161.247822 -37.634851 
L 159.827006 -37.641933 
L 158.406189 -37.64677 
L 156.985373 -37.656816 
L 155.564557 -37.672926 
L 154.14374 -37.695533 
L 152.722924 -37.713738 
L 151.302108 -37.748948 
L 149.881291 -37.782292 
L 148.460475 -37.825223 
L 147.039658 -37.858693 
L 145.618842 -37.952854 
L 144.198026 -38.29722 
L 142.777209 -38.378261 
L 141.356393 -38.628784 
L 139.935577 -39.156985 
L 138.51476 -47.966973 
L 137.093944 -174.359539 
L 135.673127 -67.736365 
L 134.252311 -43.748495 
L 132.831495 -39.161921 
L 131.410678 -38.578539 
L 129.989862 -38.303416 
L 128.569046 -38.23144 
L 127.148229 -38.211594 
L 125.727413 -38.15604 
L 124.306596 -38.141517 
L 122.88578 -38.099504 
L 121.464964 -38.09795 
L 120.044147 -38.111156 
L 118.623331 -38.103525 
L 117.202515 -38.120509 
L 115.781698 -38.135326 
L 114.360882 -38.157382 
L 112.940065 -38.17741 
L 111.519249 -38.179157 
L 110.098433 -38.199024 
L 108.677616 -38.215222 
L 107.2568 -38.23135 
L 105.835984 -38.256646 
L 104.415167 -38.281191 
L 102.994351 -38.304008 
L 101.573534 -38.32819 
L 100.152718 -38.353775 
L 98.731902 -38.375383 
L 97.311085 -38.401646 
L 95.890269 -38.420296 
L 94.469453 -38.439621 
L 93.048636 -38.467924 
L 91.62782 -38.495989 
L 90.207003 -38.522488 
L 88.786187 -38.546674 
L 87.365371 -38.574643 
L 85.944554 -38.602447 
L 84.523738 -38.629348 
L 83.102922 -38.655979 
L 81.682105 -38.683277 
L 80.261289 -38.710278 
L 78.840472 -38.735552 
L 77.419656 -38.765717 
L 75.99884 -38.792846 
L 74.578023 -38.820848 
L 73.157207 -38.849088 
L 71.736391 -38.877309 
L 70.315574 -38.90292 
L 68.894758 -38.931315 
L 67.473941 -38.95755 
z
" style="stroke: #4c72b0; stroke-opacity: 0.2"/>
    </defs>
    <g clip-path="url(#pf4b11d98b6)">
     <use xlink:href="#m01324ba86a" x="0" y="188.39952" style="fill: #4c72b0; fill-opacity: 0.2; stroke: #4c72b0; stroke-opacity: 0.2"/>
    </g>
   </g>
   <g id="PolyCollection_2">
    <defs>
     <path id="ma885f53a5c" d="M 67.473941 -38.95776 
L 67.473941 -38.928485 
L 68.894758 -38.899002 
L 70.315574 -38.872051 
L 71.736391 -38.843813 
L 73.157207 -38.818022 
L 74.578023 -38.791398 
L 75.99884 -38.764862 
L 77.419656 -38.737829 
L 78.840472 -38.709332 
L 80.261289 -38.681786 
L 81.682105 -38.655233 
L 83.102922 -38.626965 
L 84.523738 -38.597369 
L 85.944554 -38.570496 
L 87.365371 -38.543446 
L 88.786187 -38.516442 
L 90.207003 -38.487108 
L 91.62782 -38.45939 
L 93.048636 -38.430828 
L 94.469453 -38.403511 
L 95.890269 -38.375736 
L 97.311085 -38.348015 
L 98.731902 -38.321646 
L 100.152718 -38.2926 
L 101.573534 -38.264893 
L 102.994351 -38.236115 
L 104.415167 -38.209334 
L 105.835984 -38.18261 
L 107.2568 -38.155034 
L 108.677616 -38.127333 
L 110.098433 -38.100291 
L 111.519249 -38.073703 
L 112.940065 -38.045517 
L 114.360882 -38.019885 
L 115.781698 -37.993422 
L 117.202515 -37.966941 
L 118.623331 -37.939681 
L 120.044147 -37.91269 
L 121.464964 -37.88509 
L 122.88578 -37.859762 
L 124.306596 -37.834723 
L 125.727413 -37.808981 
L 127.148229 -37.783945 
L 128.569046 -37.756888 
L 129.989862 -37.730672 
L 131.410678 -37.703281 
L 132.831495 -37.677165 
L 134.252311 -37.651173 
L 135.673127 -37.626251 
L 137.093944 -37.602575 
L 138.51476 -37.595055 
L 139.935577 -37.589813 
L 141.356393 -37.586033 
L 142.777209 -37.582588 
L 144.198026 -37.579748 
L 145.618842 -37.577577 
L 147.039658 -37.575831 
L 148.460475 -37.574116 
L 149.881291 -37.572932 
L 151.302108 -37.571844 
L 152.722924 -37.570876 
L 154.14374 -37.570048 
L 155.564557 -37.569307 
L 156.985373 -37.568599 
L 158.406189 -37.568027 
L 159.827006 -37.56751 
L 161.247822 -37.567038 
L 162.668639 -37.566565 
L 164.089455 -37.566186 
L 165.510271 -37.565841 
L 166.931088 -37.565507 
L 168.351904 -37.565179 
L 169.77272 -37.564883 
L 171.193537 -37.564637 
L 172.614353 -37.564429 
L 174.03517 -37.564194 
L 175.455986 -37.563989 
L 176.876802 -37.563766 
L 178.297619 -37.563579 
L 179.718435 -37.563417 
L 181.139251 -37.563244 
L 182.560068 -37.563101 
L 183.980884 -37.56294 
L 185.401701 -37.562812 
L 186.822517 -37.562676 
L 188.243333 -37.562574 
L 189.66415 -37.562439 
L 191.084966 -37.562329 
L 192.505782 -37.562217 
L 193.926599 -37.562105 
L 195.347415 -37.56201 
L 196.768232 -37.561927 
L 198.189048 -37.561844 
L 199.609864 -37.56176 
L 201.030681 -37.561675 
L 202.451497 -37.561594 
L 203.872314 -37.561513 
L 205.29313 -37.561431 
L 206.713946 -37.561365 
L 208.134763 -37.561302 
L 209.555579 -37.561248 
L 210.976395 -37.56119 
L 212.397212 -37.561132 
L 213.818028 -37.561072 
L 215.238845 -37.561007 
L 216.659661 -37.560948 
L 218.080477 -37.560891 
L 219.501294 -37.560838 
L 220.92211 -37.560783 
L 222.342926 -37.560727 
L 223.763743 -37.560672 
L 225.184559 -37.560619 
L 226.605376 -37.560578 
L 228.026192 -37.560537 
L 229.447008 -37.560483 
L 230.867825 -37.560438 
L 232.288641 -37.560396 
L 233.709457 -37.560352 
L 235.130274 -37.560314 
L 236.55109 -37.560281 
L 237.971907 -37.560238 
L 239.392723 -37.560196 
L 240.813539 -37.560154 
L 242.234356 -37.560124 
L 242.234356 -37.560205 
L 242.234356 -37.560205 
L 240.813539 -37.560241 
L 239.392723 -37.560283 
L 237.971907 -37.560324 
L 236.55109 -37.560366 
L 235.130274 -37.560403 
L 233.709457 -37.560452 
L 232.288641 -37.560489 
L 230.867825 -37.560535 
L 229.447008 -37.560581 
L 228.026192 -37.560639 
L 226.605376 -37.560687 
L 225.184559 -37.560728 
L 223.763743 -37.560781 
L 222.342926 -37.560835 
L 220.92211 -37.560887 
L 219.501294 -37.560944 
L 218.080477 -37.560996 
L 216.659661 -37.561059 
L 215.238845 -37.561124 
L 213.818028 -37.561183 
L 212.397212 -37.561243 
L 210.976395 -37.561307 
L 209.555579 -37.561363 
L 208.134763 -37.561425 
L 206.713946 -37.561487 
L 205.29313 -37.561559 
L 203.872314 -37.561641 
L 202.451497 -37.561728 
L 201.030681 -37.561806 
L 199.609864 -37.561896 
L 198.189048 -37.561982 
L 196.768232 -37.562076 
L 195.347415 -37.562159 
L 193.926599 -37.56226 
L 192.505782 -37.562385 
L 191.084966 -37.562502 
L 189.66415 -37.562616 
L 188.243333 -37.56276 
L 186.822517 -37.562879 
L 185.401701 -37.563017 
L 183.980884 -37.563168 
L 182.560068 -37.563326 
L 181.139251 -37.563472 
L 179.718435 -37.563648 
L 178.297619 -37.563829 
L 176.876802 -37.564023 
L 175.455986 -37.564262 
L 174.03517 -37.564494 
L 172.614353 -37.56472 
L 171.193537 -37.564962 
L 169.77272 -37.565236 
L 168.351904 -37.565546 
L 166.931088 -37.565907 
L 165.510271 -37.566256 
L 164.089455 -37.566685 
L 162.668639 -37.567083 
L 161.247822 -37.56759 
L 159.827006 -37.568081 
L 158.406189 -37.56868 
L 156.985373 -37.569288 
L 155.564557 -37.570046 
L 154.14374 -37.570901 
L 152.722924 -37.571894 
L 151.302108 -37.572926 
L 149.881291 -37.574113 
L 148.460475 -37.575573 
L 147.039658 -37.577332 
L 145.618842 -37.57934 
L 144.198026 -37.58174 
L 142.777209 -37.584938 
L 141.356393 -37.588782 
L 139.935577 -37.593441 
L 138.51476 -37.599381 
L 137.093944 -37.607896 
L 135.673127 -37.632076 
L 134.252311 -37.658243 
L 132.831495 -37.684092 
L 131.410678 -37.710843 
L 129.989862 -37.738562 
L 128.569046 -37.766966 
L 127.148229 -37.793772 
L 125.727413 -37.819009 
L 124.306596 -37.845647 
L 122.88578 -37.871801 
L 121.464964 -37.899023 
L 120.044147 -37.926679 
L 118.623331 -37.953781 
L 117.202515 -37.980818 
L 115.781698 -38.006382 
L 114.360882 -38.034155 
L 112.940065 -38.060682 
L 111.519249 -38.090187 
L 110.098433 -38.11737 
L 108.677616 -38.144698 
L 107.2568 -38.173934 
L 105.835984 -38.200865 
L 104.415167 -38.227754 
L 102.994351 -38.25385 
L 101.573534 -38.282064 
L 100.152718 -38.311331 
L 98.731902 -38.339231 
L 97.311085 -38.36651 
L 95.890269 -38.394058 
L 94.469453 -38.421164 
L 93.048636 -38.450491 
L 91.62782 -38.478918 
L 90.207003 -38.507355 
L 88.786187 -38.537254 
L 87.365371 -38.564362 
L 85.944554 -38.592774 
L 84.523738 -38.619707 
L 83.102922 -38.648581 
L 81.682105 -38.678278 
L 80.261289 -38.704802 
L 78.840472 -38.733752 
L 77.419656 -38.761415 
L 75.99884 -38.788222 
L 74.578023 -38.815079 
L 73.157207 -38.840624 
L 71.736391 -38.867931 
L 70.315574 -38.897461 
L 68.894758 -38.926991 
L 67.473941 -38.95776 
z
" style="stroke: #dd8452; stroke-opacity: 0.2"/>
    </defs>
    <g clip-path="url(#pf4b11d98b6)">
     <use xlink:href="#ma885f53a5c" x="0" y="188.39952" style="fill: #dd8452; fill-opacity: 0.2; stroke: #dd8452; stroke-opacity: 0.2"/>
    </g>
   </g>
   <g id="PolyCollection_3">
    <defs>
     <path id="m5ff93682f1" d="M 67.473941 -38.957234 
L 67.473941 -38.930025 
L 68.894758 -38.902004 
L 70.315574 -38.874753 
L 71.736391 -38.845732 
L 73.157207 -38.817527 
L 74.578023 -38.791064 
L 75.99884 -38.764457 
L 77.419656 -38.734602 
L 78.840472 -38.7076 
L 80.261289 -38.679452 
L 81.682105 -38.65144 
L 83.102922 -38.624009 
L 84.523738 -38.597358 
L 85.944554 -38.570026 
L 87.365371 -38.541812 
L 88.786187 -38.516121 
L 90.207003 -38.487478 
L 91.62782 -38.460924 
L 93.048636 -38.434588 
L 94.469453 -38.406636 
L 95.890269 -38.378722 
L 97.311085 -38.349466 
L 98.731902 -38.322402 
L 100.152718 -38.292455 
L 101.573534 -38.263436 
L 102.994351 -38.2356 
L 104.415167 -38.206918 
L 105.835984 -38.178832 
L 107.2568 -38.151941 
L 108.677616 -38.123406 
L 110.098433 -38.095729 
L 111.519249 -38.067584 
L 112.940065 -38.039544 
L 114.360882 -38.010492 
L 115.781698 -37.979397 
L 117.202515 -37.952273 
L 118.623331 -37.924443 
L 120.044147 -37.896436 
L 121.464964 -37.867942 
L 122.88578 -37.839387 
L 124.306596 -37.811769 
L 125.727413 -37.784339 
L 127.148229 -37.757586 
L 128.569046 -37.731532 
L 129.989862 -37.704158 
L 131.410678 -37.678182 
L 132.831495 -37.65199 
L 134.252311 -37.625761 
L 135.673127 -37.600389 
L 137.093944 -37.574558 
L 138.51476 -37.572502 
L 139.935577 -37.571042 
L 141.356393 -37.569979 
L 142.777209 -37.569085 
L 144.198026 -37.568275 
L 145.618842 -37.567652 
L 147.039658 -37.567154 
L 148.460475 -37.566683 
L 149.881291 -37.566293 
L 151.302108 -37.565901 
L 152.722924 -37.565576 
L 154.14374 -37.565266 
L 155.564557 -37.564945 
L 156.985373 -37.564707 
L 158.406189 -37.564493 
L 159.827006 -37.564268 
L 161.247822 -37.564061 
L 162.668639 -37.563858 
L 164.089455 -37.563697 
L 165.510271 -37.563526 
L 166.931088 -37.56337 
L 168.351904 -37.563215 
L 169.77272 -37.563082 
L 171.193537 -37.562939 
L 172.614353 -37.562819 
L 174.03517 -37.562701 
L 175.455986 -37.562592 
L 176.876802 -37.562472 
L 178.297619 -37.562371 
L 179.718435 -37.562266 
L 181.139251 -37.562181 
L 182.560068 -37.562097 
L 183.980884 -37.562009 
L 185.401701 -37.561923 
L 186.822517 -37.561846 
L 188.243333 -37.561766 
L 189.66415 -37.561688 
L 191.084966 -37.561622 
L 192.505782 -37.561539 
L 193.926599 -37.561476 
L 195.347415 -37.561404 
L 196.768232 -37.561336 
L 198.189048 -37.561269 
L 199.609864 -37.561204 
L 201.030681 -37.561142 
L 202.451497 -37.561071 
L 203.872314 -37.561017 
L 205.29313 -37.560953 
L 206.713946 -37.560893 
L 208.134763 -37.560851 
L 209.555579 -37.560801 
L 210.976395 -37.560753 
L 212.397212 -37.560707 
L 213.818028 -37.560661 
L 215.238845 -37.560616 
L 216.659661 -37.560569 
L 218.080477 -37.560531 
L 219.501294 -37.560483 
L 220.92211 -37.560447 
L 222.342926 -37.560407 
L 223.763743 -37.560368 
L 225.184559 -37.560325 
L 226.605376 -37.560291 
L 228.026192 -37.560255 
L 229.447008 -37.560218 
L 230.867825 -37.560183 
L 232.288641 -37.560151 
L 233.709457 -37.560114 
L 235.130274 -37.560083 
L 236.55109 -37.560051 
L 237.971907 -37.56002 
L 239.392723 -37.55999 
L 240.813539 -37.559958 
L 242.234356 -37.559926 
L 242.234356 -37.560003 
L 242.234356 -37.560003 
L 240.813539 -37.560041 
L 239.392723 -37.56007 
L 237.971907 -37.560102 
L 236.55109 -37.560139 
L 235.130274 -37.560169 
L 233.709457 -37.560204 
L 232.288641 -37.560238 
L 230.867825 -37.560276 
L 229.447008 -37.56031 
L 228.026192 -37.560349 
L 226.605376 -37.560391 
L 225.184559 -37.560424 
L 223.763743 -37.560464 
L 222.342926 -37.560504 
L 220.92211 -37.560541 
L 219.501294 -37.560583 
L 218.080477 -37.560628 
L 216.659661 -37.56067 
L 215.238845 -37.560722 
L 213.818028 -37.560762 
L 212.397212 -37.560822 
L 210.976395 -37.560869 
L 209.555579 -37.560917 
L 208.134763 -37.560967 
L 206.713946 -37.561023 
L 205.29313 -37.561076 
L 203.872314 -37.561137 
L 202.451497 -37.561205 
L 201.030681 -37.561273 
L 199.609864 -37.561337 
L 198.189048 -37.56141 
L 196.768232 -37.561482 
L 195.347415 -37.561541 
L 193.926599 -37.561625 
L 192.505782 -37.561689 
L 191.084966 -37.561779 
L 189.66415 -37.561838 
L 188.243333 -37.561922 
L 186.822517 -37.562001 
L 185.401701 -37.562094 
L 183.980884 -37.562181 
L 182.560068 -37.562263 
L 181.139251 -37.562365 
L 179.718435 -37.562456 
L 178.297619 -37.562555 
L 176.876802 -37.56267 
L 175.455986 -37.562778 
L 174.03517 -37.562887 
L 172.614353 -37.563024 
L 171.193537 -37.563147 
L 169.77272 -37.563287 
L 168.351904 -37.563424 
L 166.931088 -37.563576 
L 165.510271 -37.563737 
L 164.089455 -37.563904 
L 162.668639 -37.564084 
L 161.247822 -37.564292 
L 159.827006 -37.564516 
L 158.406189 -37.564741 
L 156.985373 -37.564966 
L 155.564557 -37.565222 
L 154.14374 -37.565551 
L 152.722924 -37.565866 
L 151.302108 -37.566206 
L 149.881291 -37.5666 
L 148.460475 -37.566988 
L 147.039658 -37.567514 
L 145.618842 -37.568029 
L 144.198026 -37.568696 
L 142.777209 -37.569502 
L 141.356393 -37.570385 
L 139.935577 -37.571517 
L 138.51476 -37.573045 
L 137.093944 -37.575319 
L 135.673127 -37.6035 
L 134.252311 -37.630273 
L 132.831495 -37.657672 
L 131.410678 -37.684766 
L 129.989862 -37.711818 
L 128.569046 -37.740627 
L 127.148229 -37.767349 
L 125.727413 -37.795864 
L 124.306596 -37.823682 
L 122.88578 -37.850911 
L 121.464964 -37.880278 
L 120.044147 -37.909428 
L 118.623331 -37.937674 
L 117.202515 -37.966644 
L 115.781698 -37.994496 
L 114.360882 -38.026017 
L 112.940065 -38.05445 
L 111.519249 -38.082357 
L 110.098433 -38.112245 
L 108.677616 -38.140491 
L 107.2568 -38.169457 
L 105.835984 -38.196724 
L 104.415167 -38.225775 
L 102.994351 -38.253315 
L 101.573534 -38.281696 
L 100.152718 -38.312822 
L 98.731902 -38.343072 
L 97.311085 -38.372061 
L 95.890269 -38.400001 
L 94.469453 -38.427821 
L 93.048636 -38.454987 
L 91.62782 -38.482791 
L 90.207003 -38.509896 
L 88.786187 -38.537654 
L 87.365371 -38.563558 
L 85.944554 -38.592088 
L 84.523738 -38.61775 
L 83.102922 -38.64561 
L 81.682105 -38.674479 
L 80.261289 -38.702121 
L 78.840472 -38.73108 
L 77.419656 -38.75906 
L 75.99884 -38.788124 
L 74.578023 -38.815289 
L 73.157207 -38.84408 
L 71.736391 -38.871806 
L 70.315574 -38.901447 
L 68.894758 -38.931232 
L 67.473941 -38.957234 
z
" style="stroke: #55a868; stroke-opacity: 0.2"/>
    </defs>
    <g clip-path="url(#pf4b11d98b6)">
     <use xlink:href="#m5ff93682f1" x="0" y="188.39952" style="fill: #55a868; fill-opacity: 0.2; stroke: #55a868; stroke-opacity: 0.2"/>
    </g>
   </g>
   <g id="matplotlib.axis_1">
    <g id="xtick_1">
     <g id="line2d_1">
      <defs>
       <path id="m6305113db9" d="M 0 0 
L 0 3.5 
" style="stroke: #000000; stroke-width: 0.8"/>
      </defs>
      <g>
       <use xlink:href="#m6305113db9" x="66.053125" y="150.84327" style="stroke: #000000; stroke-width: 0.8"/>
      </g>
     </g>
     <g id="text_1">
      <!-- 0 -->
      <g transform="translate(62.871875 165.441708) scale(0.1 -0.1)">
       <defs>
        <path id="DejaVuSans-30" d="M 2034 4250 
Q 1547 4250 1301 3770 
Q 1056 3291 1056 2328 
Q 1056 1369 1301 889 
Q 1547 409 2034 409 
Q 2525 409 2770 889 
Q 3016 1369 3016 2328 
Q 3016 3291 2770 3770 
Q 2525 4250 2034 4250 
z
M 2034 4750 
Q 2819 4750 3233 4129 
Q 3647 3509 3647 2328 
Q 3647 1150 3233 529 
Q 2819 -91 2034 -91 
Q 1250 -91 836 529 
Q 422 1150 422 2328 
Q 422 3509 836 4129 
Q 1250 4750 2034 4750 
z
" transform="scale(0.015625)"/>
       </defs>
       <use xlink:href="#DejaVuSans-30"/>
      </g>
     </g>
    </g>
    <g id="xtick_2">
     <g id="line2d_2">
      <g>
       <use xlink:href="#m6305113db9" x="101.573534" y="150.84327" style="stroke: #000000; stroke-width: 0.8"/>
      </g>
     </g>
     <g id="text_2">
      <!-- 25 -->
      <g transform="translate(95.211034 165.441708) scale(0.1 -0.1)">
       <defs>
        <path id="DejaVuSans-32" d="M 1228 531 
L 3431 531 
L 3431 0 
L 469 0 
L 469 531 
Q 828 903 1448 1529 
Q 2069 2156 2228 2338 
Q 2531 2678 2651 2914 
Q 2772 3150 2772 3378 
Q 2772 3750 2511 3984 
Q 2250 4219 1831 4219 
Q 1534 4219 1204 4116 
Q 875 4013 500 3803 
L 500 4441 
Q 881 4594 1212 4672 
Q 1544 4750 1819 4750 
Q 2544 4750 2975 4387 
Q 3406 4025 3406 3419 
Q 3406 3131 3298 2873 
Q 3191 2616 2906 2266 
Q 2828 2175 2409 1742 
Q 1991 1309 1228 531 
z
" transform="scale(0.015625)"/>
        <path id="DejaVuSans-35" d="M 691 4666 
L 3169 4666 
L 3169 4134 
L 1269 4134 
L 1269 2991 
Q 1406 3038 1543 3061 
Q 1681 3084 1819 3084 
Q 2600 3084 3056 2656 
Q 3513 2228 3513 1497 
Q 3513 744 3044 326 
Q 2575 -91 1722 -91 
Q 1428 -91 1123 -41 
Q 819 9 494 109 
L 494 744 
Q 775 591 1075 516 
Q 1375 441 1709 441 
Q 2250 441 2565 725 
Q 2881 1009 2881 1497 
Q 2881 1984 2565 2268 
Q 2250 2553 1709 2553 
Q 1456 2553 1204 2497 
Q 953 2441 691 2322 
L 691 4666 
z
" transform="scale(0.015625)"/>
       </defs>
       <use xlink:href="#DejaVuSans-32"/>
       <use xlink:href="#DejaVuSans-35" x="63.623047"/>
      </g>
     </g>
    </g>
    <g id="xtick_3">
     <g id="line2d_3">
      <g>
       <use xlink:href="#m6305113db9" x="137.093944" y="150.84327" style="stroke: #000000; stroke-width: 0.8"/>
      </g>
     </g>
     <g id="text_3">
      <!-- 50 -->
      <g transform="translate(130.731444 165.441708) scale(0.1 -0.1)">
       <use xlink:href="#DejaVuSans-35"/>
       <use xlink:href="#DejaVuSans-30" x="63.623047"/>
      </g>
     </g>
    </g>
    <g id="xtick_4">
     <g id="line2d_4">
      <g>
       <use xlink:href="#m6305113db9" x="172.614353" y="150.84327" style="stroke: #000000; stroke-width: 0.8"/>
      </g>
     </g>
     <g id="text_4">
      <!-- 75 -->
      <g transform="translate(166.251853 165.441708) scale(0.1 -0.1)">
       <defs>
        <path id="DejaVuSans-37" d="M 525 4666 
L 3525 4666 
L 3525 4397 
L 1831 0 
L 1172 0 
L 2766 4134 
L 525 4134 
L 525 4666 
z
" transform="scale(0.015625)"/>
       </defs>
       <use xlink:href="#DejaVuSans-37"/>
       <use xlink:href="#DejaVuSans-35" x="63.623047"/>
      </g>
     </g>
    </g>
    <g id="xtick_5">
     <g id="line2d_5">
      <g>
       <use xlink:href="#m6305113db9" x="208.134763" y="150.84327" style="stroke: #000000; stroke-width: 0.8"/>
      </g>
     </g>
     <g id="text_5">
      <!-- 100 -->
      <g transform="translate(198.591013 165.441708) scale(0.1 -0.1)">
       <defs>
        <path id="DejaVuSans-31" d="M 794 531 
L 1825 531 
L 1825 4091 
L 703 3866 
L 703 4441 
L 1819 4666 
L 2450 4666 
L 2450 531 
L 3481 531 
L 3481 0 
L 794 0 
L 794 531 
z
" transform="scale(0.015625)"/>
       </defs>
       <use xlink:href="#DejaVuSans-31"/>
       <use xlink:href="#DejaVuSans-30" x="63.623047"/>
       <use xlink:href="#DejaVuSans-30" x="127.246094"/>
      </g>
     </g>
    </g>
    <g id="xtick_6">
     <g id="line2d_6">
      <g>
       <use xlink:href="#m6305113db9" x="243.655172" y="150.84327" style="stroke: #000000; stroke-width: 0.8"/>
      </g>
     </g>
     <g id="text_6">
      <!-- 125 -->
      <g transform="translate(234.111422 165.441708) scale(0.1 -0.1)">
       <use xlink:href="#DejaVuSans-31"/>
       <use xlink:href="#DejaVuSans-32" x="63.623047"/>
       <use xlink:href="#DejaVuSans-35" x="127.246094"/>
      </g>
     </g>
    </g>
    <g id="text_7">
     <!-- Sample Size -->
     <g transform="translate(127.911188 179.119833) scale(0.1 -0.1)">
      <defs>
       <path id="DejaVuSans-53" d="M 3425 4513 
L 3425 3897 
Q 3066 4069 2747 4153 
Q 2428 4238 2131 4238 
Q 1616 4238 1336 4038 
Q 1056 3838 1056 3469 
Q 1056 3159 1242 3001 
Q 1428 2844 1947 2747 
L 2328 2669 
Q 3034 2534 3370 2195 
Q 3706 1856 3706 1288 
Q 3706 609 3251 259 
Q 2797 -91 1919 -91 
Q 1588 -91 1214 -16 
Q 841 59 441 206 
L 441 856 
Q 825 641 1194 531 
Q 1563 422 1919 422 
Q 2459 422 2753 634 
Q 3047 847 3047 1241 
Q 3047 1584 2836 1778 
Q 2625 1972 2144 2069 
L 1759 2144 
Q 1053 2284 737 2584 
Q 422 2884 422 3419 
Q 422 4038 858 4394 
Q 1294 4750 2059 4750 
Q 2388 4750 2728 4690 
Q 3069 4631 3425 4513 
z
" transform="scale(0.015625)"/>
       <path id="DejaVuSans-61" d="M 2194 1759 
Q 1497 1759 1228 1600 
Q 959 1441 959 1056 
Q 959 750 1161 570 
Q 1363 391 1709 391 
Q 2188 391 2477 730 
Q 2766 1069 2766 1631 
L 2766 1759 
L 2194 1759 
z
M 3341 1997 
L 3341 0 
L 2766 0 
L 2766 531 
Q 2569 213 2275 61 
Q 1981 -91 1556 -91 
Q 1019 -91 701 211 
Q 384 513 384 1019 
Q 384 1609 779 1909 
Q 1175 2209 1959 2209 
L 2766 2209 
L 2766 2266 
Q 2766 2663 2505 2880 
Q 2244 3097 1772 3097 
Q 1472 3097 1187 3025 
Q 903 2953 641 2809 
L 641 3341 
Q 956 3463 1253 3523 
Q 1550 3584 1831 3584 
Q 2591 3584 2966 3190 
Q 3341 2797 3341 1997 
z
" transform="scale(0.015625)"/>
       <path id="DejaVuSans-6d" d="M 3328 2828 
Q 3544 3216 3844 3400 
Q 4144 3584 4550 3584 
Q 5097 3584 5394 3201 
Q 5691 2819 5691 2113 
L 5691 0 
L 5113 0 
L 5113 2094 
Q 5113 2597 4934 2840 
Q 4756 3084 4391 3084 
Q 3944 3084 3684 2787 
Q 3425 2491 3425 1978 
L 3425 0 
L 2847 0 
L 2847 2094 
Q 2847 2600 2669 2842 
Q 2491 3084 2119 3084 
Q 1678 3084 1418 2786 
Q 1159 2488 1159 1978 
L 1159 0 
L 581 0 
L 581 3500 
L 1159 3500 
L 1159 2956 
Q 1356 3278 1631 3431 
Q 1906 3584 2284 3584 
Q 2666 3584 2933 3390 
Q 3200 3197 3328 2828 
z
" transform="scale(0.015625)"/>
       <path id="DejaVuSans-70" d="M 1159 525 
L 1159 -1331 
L 581 -1331 
L 581 3500 
L 1159 3500 
L 1159 2969 
Q 1341 3281 1617 3432 
Q 1894 3584 2278 3584 
Q 2916 3584 3314 3078 
Q 3713 2572 3713 1747 
Q 3713 922 3314 415 
Q 2916 -91 2278 -91 
Q 1894 -91 1617 61 
Q 1341 213 1159 525 
z
M 3116 1747 
Q 3116 2381 2855 2742 
Q 2594 3103 2138 3103 
Q 1681 3103 1420 2742 
Q 1159 2381 1159 1747 
Q 1159 1113 1420 752 
Q 1681 391 2138 391 
Q 2594 391 2855 752 
Q 3116 1113 3116 1747 
z
" transform="scale(0.015625)"/>
       <path id="DejaVuSans-6c" d="M 603 4863 
L 1178 4863 
L 1178 0 
L 603 0 
L 603 4863 
z
" transform="scale(0.015625)"/>
       <path id="DejaVuSans-65" d="M 3597 1894 
L 3597 1613 
L 953 1613 
Q 991 1019 1311 708 
Q 1631 397 2203 397 
Q 2534 397 2845 478 
Q 3156 559 3463 722 
L 3463 178 
Q 3153 47 2828 -22 
Q 2503 -91 2169 -91 
Q 1331 -91 842 396 
Q 353 884 353 1716 
Q 353 2575 817 3079 
Q 1281 3584 2069 3584 
Q 2775 3584 3186 3129 
Q 3597 2675 3597 1894 
z
M 3022 2063 
Q 3016 2534 2758 2815 
Q 2500 3097 2075 3097 
Q 1594 3097 1305 2825 
Q 1016 2553 972 2059 
L 3022 2063 
z
" transform="scale(0.015625)"/>
       <path id="DejaVuSans-20" transform="scale(0.015625)"/>
       <path id="DejaVuSans-69" d="M 603 3500 
L 1178 3500 
L 1178 0 
L 603 0 
L 603 3500 
z
M 603 4863 
L 1178 4863 
L 1178 4134 
L 603 4134 
L 603 4863 
z
" transform="scale(0.015625)"/>
       <path id="DejaVuSans-7a" d="M 353 3500 
L 3084 3500 
L 3084 2975 
L 922 459 
L 3084 459 
L 3084 0 
L 275 0 
L 275 525 
L 2438 3041 
L 353 3041 
L 353 3500 
z
" transform="scale(0.015625)"/>
      </defs>
      <use xlink:href="#DejaVuSans-53"/>
      <use xlink:href="#DejaVuSans-61" x="63.476562"/>
      <use xlink:href="#DejaVuSans-6d" x="124.755859"/>
      <use xlink:href="#DejaVuSans-70" x="222.167969"/>
      <use xlink:href="#DejaVuSans-6c" x="285.644531"/>
      <use xlink:href="#DejaVuSans-65" x="313.427734"/>
      <use xlink:href="#DejaVuSans-20" x="374.951172"/>
      <use xlink:href="#DejaVuSans-53" x="406.738281"/>
      <use xlink:href="#DejaVuSans-69" x="470.214844"/>
      <use xlink:href="#DejaVuSans-7a" x="497.998047"/>
      <use xlink:href="#DejaVuSans-65" x="550.488281"/>
     </g>
    </g>
   </g>
   <g id="matplotlib.axis_2">
    <g id="ytick_1">
     <g id="line2d_7">
      <defs>
       <path id="mb644f2c299" d="M 0 0 
L -3.5 0 
" style="stroke: #000000; stroke-width: 0.8"/>
      </defs>
      <g>
       <use xlink:href="#mb644f2c299" x="66.053125" y="150.84327" style="stroke: #000000; stroke-width: 0.8"/>
      </g>
     </g>
     <g id="text_8">
      <!-- 0 -->
      <g transform="translate(52.690625 154.642489) scale(0.1 -0.1)">
       <use xlink:href="#DejaVuSans-30"/>
      </g>
     </g>
    </g>
    <g id="ytick_2">
     <g id="line2d_8">
      <g>
       <use xlink:href="#mb644f2c299" x="66.053125" y="128.81006" style="stroke: #000000; stroke-width: 0.8"/>
      </g>
     </g>
     <g id="text_9">
      <!-- 50000 -->
      <g transform="translate(27.240625 132.609278) scale(0.1 -0.1)">
       <use xlink:href="#DejaVuSans-35"/>
       <use xlink:href="#DejaVuSans-30" x="63.623047"/>
       <use xlink:href="#DejaVuSans-30" x="127.246094"/>
       <use xlink:href="#DejaVuSans-30" x="190.869141"/>
       <use xlink:href="#DejaVuSans-30" x="254.492188"/>
      </g>
     </g>
    </g>
    <g id="ytick_3">
     <g id="line2d_9">
      <g>
       <use xlink:href="#mb644f2c299" x="66.053125" y="106.776849" style="stroke: #000000; stroke-width: 0.8"/>
      </g>
     </g>
     <g id="text_10">
      <!-- 100000 -->
      <g transform="translate(20.878125 110.576068) scale(0.1 -0.1)">
       <use xlink:href="#DejaVuSans-31"/>
       <use xlink:href="#DejaVuSans-30" x="63.623047"/>
       <use xlink:href="#DejaVuSans-30" x="127.246094"/>
       <use xlink:href="#DejaVuSans-30" x="190.869141"/>
       <use xlink:href="#DejaVuSans-30" x="254.492188"/>
       <use xlink:href="#DejaVuSans-30" x="318.115234"/>
      </g>
     </g>
    </g>
    <g id="ytick_4">
     <g id="line2d_10">
      <g>
       <use xlink:href="#mb644f2c299" x="66.053125" y="84.743639" style="stroke: #000000; stroke-width: 0.8"/>
      </g>
     </g>
     <g id="text_11">
      <!-- 150000 -->
      <g transform="translate(20.878125 88.542857) scale(0.1 -0.1)">
       <use xlink:href="#DejaVuSans-31"/>
       <use xlink:href="#DejaVuSans-35" x="63.623047"/>
       <use xlink:href="#DejaVuSans-30" x="127.246094"/>
       <use xlink:href="#DejaVuSans-30" x="190.869141"/>
       <use xlink:href="#DejaVuSans-30" x="254.492188"/>
       <use xlink:href="#DejaVuSans-30" x="318.115234"/>
      </g>
     </g>
    </g>
    <g id="ytick_5">
     <g id="line2d_11">
      <g>
       <use xlink:href="#mb644f2c299" x="66.053125" y="62.710428" style="stroke: #000000; stroke-width: 0.8"/>
      </g>
     </g>
     <g id="text_12">
      <!-- 200000 -->
      <g transform="translate(20.878125 66.509647) scale(0.1 -0.1)">
       <use xlink:href="#DejaVuSans-32"/>
       <use xlink:href="#DejaVuSans-30" x="63.623047"/>
       <use xlink:href="#DejaVuSans-30" x="127.246094"/>
       <use xlink:href="#DejaVuSans-30" x="190.869141"/>
       <use xlink:href="#DejaVuSans-30" x="254.492188"/>
       <use xlink:href="#DejaVuSans-30" x="318.115234"/>
      </g>
     </g>
    </g>
    <g id="ytick_6">
     <g id="line2d_12">
      <g>
       <use xlink:href="#mb644f2c299" x="66.053125" y="40.677218" style="stroke: #000000; stroke-width: 0.8"/>
      </g>
     </g>
     <g id="text_13">
      <!-- 250000 -->
      <g transform="translate(20.878125 44.476436) scale(0.1 -0.1)">
       <use xlink:href="#DejaVuSans-32"/>
       <use xlink:href="#DejaVuSans-35" x="63.623047"/>
       <use xlink:href="#DejaVuSans-30" x="127.246094"/>
       <use xlink:href="#DejaVuSans-30" x="190.869141"/>
       <use xlink:href="#DejaVuSans-30" x="254.492188"/>
       <use xlink:href="#DejaVuSans-30" x="318.115234"/>
      </g>
     </g>
    </g>
    <g id="ytick_7">
     <g id="line2d_13">
      <g>
       <use xlink:href="#mb644f2c299" x="66.053125" y="18.644007" style="stroke: #000000; stroke-width: 0.8"/>
      </g>
     </g>
     <g id="text_14">
      <!-- 300000 -->
      <g transform="translate(20.878125 22.443226) scale(0.1 -0.1)">
       <defs>
        <path id="DejaVuSans-33" d="M 2597 2516 
Q 3050 2419 3304 2112 
Q 3559 1806 3559 1356 
Q 3559 666 3084 287 
Q 2609 -91 1734 -91 
Q 1441 -91 1130 -33 
Q 819 25 488 141 
L 488 750 
Q 750 597 1062 519 
Q 1375 441 1716 441 
Q 2309 441 2620 675 
Q 2931 909 2931 1356 
Q 2931 1769 2642 2001 
Q 2353 2234 1838 2234 
L 1294 2234 
L 1294 2753 
L 1863 2753 
Q 2328 2753 2575 2939 
Q 2822 3125 2822 3475 
Q 2822 3834 2567 4026 
Q 2313 4219 1838 4219 
Q 1578 4219 1281 4162 
Q 984 4106 628 3988 
L 628 4550 
Q 988 4650 1302 4700 
Q 1616 4750 1894 4750 
Q 2613 4750 3031 4423 
Q 3450 4097 3450 3541 
Q 3450 3153 3228 2886 
Q 3006 2619 2597 2516 
z
" transform="scale(0.015625)"/>
       </defs>
       <use xlink:href="#DejaVuSans-33"/>
       <use xlink:href="#DejaVuSans-30" x="63.623047"/>
       <use xlink:href="#DejaVuSans-30" x="127.246094"/>
       <use xlink:href="#DejaVuSans-30" x="190.869141"/>
       <use xlink:href="#DejaVuSans-30" x="254.492188"/>
       <use xlink:href="#DejaVuSans-30" x="318.115234"/>
      </g>
     </g>
    </g>
    <g id="text_15">
     <!-- Empirical Reconstruction Error -->
     <g transform="translate(14.798438 155.04351) rotate(-90) scale(0.1 -0.1)">
      <defs>
       <path id="DejaVuSans-45" d="M 628 4666 
L 3578 4666 
L 3578 4134 
L 1259 4134 
L 1259 2753 
L 3481 2753 
L 3481 2222 
L 1259 2222 
L 1259 531 
L 3634 531 
L 3634 0 
L 628 0 
L 628 4666 
z
" transform="scale(0.015625)"/>
       <path id="DejaVuSans-72" d="M 2631 2963 
Q 2534 3019 2420 3045 
Q 2306 3072 2169 3072 
Q 1681 3072 1420 2755 
Q 1159 2438 1159 1844 
L 1159 0 
L 581 0 
L 581 3500 
L 1159 3500 
L 1159 2956 
Q 1341 3275 1631 3429 
Q 1922 3584 2338 3584 
Q 2397 3584 2469 3576 
Q 2541 3569 2628 3553 
L 2631 2963 
z
" transform="scale(0.015625)"/>
       <path id="DejaVuSans-63" d="M 3122 3366 
L 3122 2828 
Q 2878 2963 2633 3030 
Q 2388 3097 2138 3097 
Q 1578 3097 1268 2742 
Q 959 2388 959 1747 
Q 959 1106 1268 751 
Q 1578 397 2138 397 
Q 2388 397 2633 464 
Q 2878 531 3122 666 
L 3122 134 
Q 2881 22 2623 -34 
Q 2366 -91 2075 -91 
Q 1284 -91 818 406 
Q 353 903 353 1747 
Q 353 2603 823 3093 
Q 1294 3584 2113 3584 
Q 2378 3584 2631 3529 
Q 2884 3475 3122 3366 
z
" transform="scale(0.015625)"/>
       <path id="DejaVuSans-52" d="M 2841 2188 
Q 3044 2119 3236 1894 
Q 3428 1669 3622 1275 
L 4263 0 
L 3584 0 
L 2988 1197 
Q 2756 1666 2539 1819 
Q 2322 1972 1947 1972 
L 1259 1972 
L 1259 0 
L 628 0 
L 628 4666 
L 2053 4666 
Q 2853 4666 3247 4331 
Q 3641 3997 3641 3322 
Q 3641 2881 3436 2590 
Q 3231 2300 2841 2188 
z
M 1259 4147 
L 1259 2491 
L 2053 2491 
Q 2509 2491 2742 2702 
Q 2975 2913 2975 3322 
Q 2975 3731 2742 3939 
Q 2509 4147 2053 4147 
L 1259 4147 
z
" transform="scale(0.015625)"/>
       <path id="DejaVuSans-6f" d="M 1959 3097 
Q 1497 3097 1228 2736 
Q 959 2375 959 1747 
Q 959 1119 1226 758 
Q 1494 397 1959 397 
Q 2419 397 2687 759 
Q 2956 1122 2956 1747 
Q 2956 2369 2687 2733 
Q 2419 3097 1959 3097 
z
M 1959 3584 
Q 2709 3584 3137 3096 
Q 3566 2609 3566 1747 
Q 3566 888 3137 398 
Q 2709 -91 1959 -91 
Q 1206 -91 779 398 
Q 353 888 353 1747 
Q 353 2609 779 3096 
Q 1206 3584 1959 3584 
z
" transform="scale(0.015625)"/>
       <path id="DejaVuSans-6e" d="M 3513 2113 
L 3513 0 
L 2938 0 
L 2938 2094 
Q 2938 2591 2744 2837 
Q 2550 3084 2163 3084 
Q 1697 3084 1428 2787 
Q 1159 2491 1159 1978 
L 1159 0 
L 581 0 
L 581 3500 
L 1159 3500 
L 1159 2956 
Q 1366 3272 1645 3428 
Q 1925 3584 2291 3584 
Q 2894 3584 3203 3211 
Q 3513 2838 3513 2113 
z
" transform="scale(0.015625)"/>
       <path id="DejaVuSans-73" d="M 2834 3397 
L 2834 2853 
Q 2591 2978 2328 3040 
Q 2066 3103 1784 3103 
Q 1356 3103 1142 2972 
Q 928 2841 928 2578 
Q 928 2378 1081 2264 
Q 1234 2150 1697 2047 
L 1894 2003 
Q 2506 1872 2764 1633 
Q 3022 1394 3022 966 
Q 3022 478 2636 193 
Q 2250 -91 1575 -91 
Q 1294 -91 989 -36 
Q 684 19 347 128 
L 347 722 
Q 666 556 975 473 
Q 1284 391 1588 391 
Q 1994 391 2212 530 
Q 2431 669 2431 922 
Q 2431 1156 2273 1281 
Q 2116 1406 1581 1522 
L 1381 1569 
Q 847 1681 609 1914 
Q 372 2147 372 2553 
Q 372 3047 722 3315 
Q 1072 3584 1716 3584 
Q 2034 3584 2315 3537 
Q 2597 3491 2834 3397 
z
" transform="scale(0.015625)"/>
       <path id="DejaVuSans-74" d="M 1172 4494 
L 1172 3500 
L 2356 3500 
L 2356 3053 
L 1172 3053 
L 1172 1153 
Q 1172 725 1289 603 
Q 1406 481 1766 481 
L 2356 481 
L 2356 0 
L 1766 0 
Q 1100 0 847 248 
Q 594 497 594 1153 
L 594 3053 
L 172 3053 
L 172 3500 
L 594 3500 
L 594 4494 
L 1172 4494 
z
" transform="scale(0.015625)"/>
       <path id="DejaVuSans-75" d="M 544 1381 
L 544 3500 
L 1119 3500 
L 1119 1403 
Q 1119 906 1312 657 
Q 1506 409 1894 409 
Q 2359 409 2629 706 
Q 2900 1003 2900 1516 
L 2900 3500 
L 3475 3500 
L 3475 0 
L 2900 0 
L 2900 538 
Q 2691 219 2414 64 
Q 2138 -91 1772 -91 
Q 1169 -91 856 284 
Q 544 659 544 1381 
z
M 1991 3584 
L 1991 3584 
z
" transform="scale(0.015625)"/>
      </defs>
      <use xlink:href="#DejaVuSans-45"/>
      <use xlink:href="#DejaVuSans-6d" x="63.183594"/>
      <use xlink:href="#DejaVuSans-70" x="160.595703"/>
      <use xlink:href="#DejaVuSans-69" x="224.072266"/>
      <use xlink:href="#DejaVuSans-72" x="251.855469"/>
      <use xlink:href="#DejaVuSans-69" x="292.96875"/>
      <use xlink:href="#DejaVuSans-63" x="320.751953"/>
      <use xlink:href="#DejaVuSans-61" x="375.732422"/>
      <use xlink:href="#DejaVuSans-6c" x="437.011719"/>
      <use xlink:href="#DejaVuSans-20" x="464.794922"/>
      <use xlink:href="#DejaVuSans-52" x="496.582031"/>
      <use xlink:href="#DejaVuSans-65" x="561.564453"/>
      <use xlink:href="#DejaVuSans-63" x="623.087891"/>
      <use xlink:href="#DejaVuSans-6f" x="678.068359"/>
      <use xlink:href="#DejaVuSans-6e" x="739.25"/>
      <use xlink:href="#DejaVuSans-73" x="802.628906"/>
      <use xlink:href="#DejaVuSans-74" x="854.728516"/>
      <use xlink:href="#DejaVuSans-72" x="893.9375"/>
      <use xlink:href="#DejaVuSans-75" x="935.050781"/>
      <use xlink:href="#DejaVuSans-63" x="998.429688"/>
      <use xlink:href="#DejaVuSans-74" x="1053.410156"/>
      <use xlink:href="#DejaVuSans-69" x="1092.619141"/>
      <use xlink:href="#DejaVuSans-6f" x="1120.402344"/>
      <use xlink:href="#DejaVuSans-6e" x="1181.583984"/>
      <use xlink:href="#DejaVuSans-20" x="1244.962891"/>
      <use xlink:href="#DejaVuSans-45" x="1276.75"/>
      <use xlink:href="#DejaVuSans-72" x="1339.933594"/>
      <use xlink:href="#DejaVuSans-72" x="1379.296875"/>
      <use xlink:href="#DejaVuSans-6f" x="1418.160156"/>
      <use xlink:href="#DejaVuSans-72" x="1479.341797"/>
     </g>
    </g>
   </g>
   <g id="line2d_14">
    <path d="M 67.473941 149.455566 
L 68.894758 149.482838 
L 70.315574 149.509632 
L 71.736391 149.536508 
L 73.157207 149.564478 
L 74.578023 149.592061 
L 75.99884 149.619864 
L 77.419656 149.646678 
L 78.840472 149.675781 
L 80.261289 149.701753 
L 81.682105 149.728715 
L 83.102922 149.755534 
L 84.523738 149.782065 
L 85.944554 149.809787 
L 87.365371 149.836009 
L 88.786187 149.863921 
L 90.207003 149.888385 
L 91.62782 149.914684 
L 93.048636 149.942206 
L 94.469453 149.96995 
L 95.890269 149.993538 
L 97.311085 150.017566 
L 98.731902 150.043681 
L 100.152718 150.068201 
L 101.573534 150.094551 
L 102.994351 150.11941 
L 104.415167 150.143255 
L 105.835984 150.168254 
L 107.2568 150.194582 
L 108.677616 150.216353 
L 110.098433 150.234828 
L 111.519249 150.257038 
L 112.940065 150.273365 
L 114.360882 150.294262 
L 115.781698 150.315011 
L 117.202515 150.333696 
L 118.623331 150.348889 
L 120.044147 150.356125 
L 121.464964 150.36849 
L 122.88578 150.367213 
L 124.306596 150.350594 
L 125.727413 150.339502 
L 127.148229 150.30818 
L 128.569046 150.287327 
L 129.989862 150.236372 
L 131.410678 150.047549 
L 132.831495 149.652986 
L 134.252311 147.228898 
L 135.673127 137.079885 
L 137.093944 82.116394 
L 138.51476 145.330246 
L 139.935577 149.588853 
L 141.356393 150.012432 
L 142.777209 150.188488 
L 144.198026 150.279438 
L 145.618842 150.502158 
L 147.039658 150.575181 
L 148.460475 150.609705 
L 149.881291 150.644095 
L 151.302108 150.675011 
L 152.722924 150.701669 
L 154.14374 150.718021 
L 155.564557 150.736246 
L 156.985373 150.749579 
L 158.406189 150.75857 
L 159.827006 150.7642 
L 161.247822 150.77029 
L 162.668639 150.774907 
L 164.089455 150.780283 
L 165.510271 150.784177 
L 166.931088 150.788394 
L 168.351904 150.791335 
L 169.77272 150.794795 
L 171.193537 150.79809 
L 172.614353 150.800216 
L 174.03517 150.802385 
L 175.455986 150.804506 
L 176.876802 150.806329 
L 178.297619 150.808444 
L 179.718435 150.809886 
L 181.139251 150.81136 
L 182.560068 150.812561 
L 183.980884 150.813869 
L 185.401701 150.815271 
L 186.822517 150.81632 
L 188.243333 150.817468 
L 189.66415 150.818467 
L 191.084966 150.819547 
L 192.505782 150.820226 
L 193.926599 150.821011 
L 195.347415 150.82194 
L 196.768232 150.822622 
L 198.189048 150.823162 
L 199.609864 150.823683 
L 201.030681 150.824186 
L 202.451497 150.824579 
L 203.872314 150.825139 
L 205.29313 150.825611 
L 206.713946 150.826176 
L 208.134763 150.82661 
L 209.555579 150.827045 
L 210.976395 150.827438 
L 212.397212 150.827795 
L 213.818028 150.82822 
L 215.238845 150.828641 
L 216.659661 150.828883 
L 218.080477 150.829194 
L 219.501294 150.829467 
L 220.92211 150.829649 
L 222.342926 150.829957 
L 223.763743 150.830167 
L 225.184559 150.830547 
L 226.605376 150.830792 
L 228.026192 150.831019 
L 229.447008 150.831339 
L 230.867825 150.831557 
L 232.288641 150.831803 
L 233.709457 150.831998 
L 235.130274 150.83225 
L 236.55109 150.832417 
L 237.971907 150.832648 
L 239.392723 150.832846 
L 240.813539 150.832975 
L 242.234356 150.833111 
" clip-path="url(#pf4b11d98b6)" style="fill: none; stroke: #4c72b0; stroke-width: 1.5; stroke-linecap: square"/>
   </g>
   <g id="line2d_15">
    <path d="M 67.473941 149.456776 
L 68.894758 149.486811 
L 70.315574 149.514546 
L 71.736391 149.543625 
L 73.157207 149.570424 
L 74.578023 149.596999 
L 75.99884 149.623081 
L 77.419656 149.650139 
L 78.840472 149.678014 
L 80.261289 149.705877 
L 81.682105 149.733305 
L 83.102922 149.761544 
L 84.523738 149.79084 
L 85.944554 149.81817 
L 87.365371 149.845528 
L 88.786187 149.873091 
L 90.207003 149.901445 
L 91.62782 149.930373 
L 93.048636 149.95873 
L 94.469453 149.986983 
L 95.890269 150.014721 
L 97.311085 150.042363 
L 98.731902 150.069182 
L 100.152718 150.097854 
L 101.573534 150.126514 
L 102.994351 150.155058 
L 104.415167 150.181381 
L 105.835984 150.20784 
L 107.2568 150.235044 
L 108.677616 150.263406 
L 110.098433 150.291142 
L 111.519249 150.317932 
L 112.940065 150.346645 
L 114.360882 150.372494 
L 115.781698 150.400112 
L 117.202515 150.426194 
L 118.623331 150.453181 
L 120.044147 150.480137 
L 121.464964 150.507352 
L 122.88578 150.533861 
L 124.306596 150.559404 
L 125.727413 150.5856 
L 127.148229 150.610679 
L 128.569046 150.637749 
L 129.989862 150.664979 
L 131.410678 150.692709 
L 132.831495 150.7189 
L 134.252311 150.744874 
L 135.673127 150.770372 
L 137.093944 150.794316 
L 138.51476 150.802353 
L 139.935577 150.80798 
L 141.356393 150.812125 
L 142.777209 150.815771 
L 144.198026 150.818752 
L 145.618842 150.821055 
L 147.039658 150.822978 
L 148.460475 150.824683 
L 149.881291 150.826018 
L 151.302108 150.827162 
L 152.722924 150.828147 
L 154.14374 150.82906 
L 155.564557 150.829857 
L 156.985373 150.830574 
L 158.406189 150.83118 
L 159.827006 150.831715 
L 161.247822 150.832229 
L 162.668639 150.832687 
L 164.089455 150.833077 
L 165.510271 150.833469 
L 166.931088 150.833818 
L 168.351904 150.834155 
L 169.77272 150.834464 
L 171.193537 150.83472 
L 172.614353 150.834949 
L 174.03517 150.835172 
L 175.455986 150.835398 
L 176.876802 150.835624 
L 178.297619 150.835821 
L 179.718435 150.835993 
L 181.139251 150.836162 
L 182.560068 150.836307 
L 183.980884 150.836465 
L 185.401701 150.83661 
L 186.822517 150.836741 
L 188.243333 150.836859 
L 189.66415 150.836989 
L 191.084966 150.8371 
L 192.505782 150.837216 
L 193.926599 150.837335 
L 195.347415 150.837436 
L 196.768232 150.837517 
L 198.189048 150.837604 
L 199.609864 150.837692 
L 201.030681 150.83778 
L 202.451497 150.83786 
L 203.872314 150.837944 
L 205.29313 150.838022 
L 206.713946 150.838089 
L 208.134763 150.838152 
L 209.555579 150.838212 
L 210.976395 150.838275 
L 212.397212 150.838331 
L 213.818028 150.83839 
L 215.238845 150.838455 
L 216.659661 150.838513 
L 218.080477 150.838574 
L 219.501294 150.83863 
L 220.92211 150.838683 
L 222.342926 150.838738 
L 223.763743 150.838792 
L 225.184559 150.838844 
L 226.605376 150.838888 
L 228.026192 150.838932 
L 229.447008 150.838986 
L 230.867825 150.839033 
L 232.288641 150.839076 
L 233.709457 150.839119 
L 235.130274 150.839162 
L 236.55109 150.839197 
L 237.971907 150.839239 
L 239.392723 150.839283 
L 240.813539 150.839321 
L 242.234356 150.839355 
" clip-path="url(#pf4b11d98b6)" style="fill: none; stroke: #dd8452; stroke-width: 1.5; stroke-linecap: square"/>
   </g>
   <g id="line2d_16">
    <path d="M 67.473941 149.456663 
L 68.894758 149.483451 
L 70.315574 149.511818 
L 71.736391 149.540983 
L 73.157207 149.568808 
L 74.578023 149.596685 
L 75.99884 149.623536 
L 77.419656 149.651941 
L 78.840472 149.680393 
L 80.261289 149.708326 
L 81.682105 149.73633 
L 83.102922 149.764471 
L 84.523738 149.791702 
L 85.944554 149.818934 
L 87.365371 149.846713 
L 88.786187 149.872625 
L 90.207003 149.901208 
L 91.62782 149.928255 
L 93.048636 149.955067 
L 94.469453 149.982929 
L 95.890269 150.009974 
L 97.311085 150.038756 
L 98.731902 150.067477 
L 100.152718 150.096451 
L 101.573534 150.126421 
L 102.994351 150.155339 
L 104.415167 150.183615 
L 105.835984 150.211558 
L 107.2568 150.238942 
L 108.677616 150.267765 
L 110.098433 150.295889 
L 111.519249 150.324916 
L 112.940065 150.352621 
L 114.360882 150.381597 
L 115.781698 150.412351 
L 117.202515 150.440007 
L 118.623331 150.468458 
L 120.044147 150.496587 
L 121.464964 150.525068 
L 122.88578 150.5544 
L 124.306596 150.58145 
L 125.727413 150.609705 
L 127.148229 150.636896 
L 128.569046 150.663563 
L 129.989862 150.691715 
L 131.410678 150.718105 
L 132.831495 150.744784 
L 134.252311 150.771569 
L 135.673127 150.797604 
L 137.093944 150.824582 
L 138.51476 150.826753 
L 139.935577 150.828236 
L 141.356393 150.829327 
L 142.777209 150.830231 
L 144.198026 150.831037 
L 145.618842 150.831689 
L 147.039658 150.832197 
L 148.460475 150.832678 
L 149.881291 150.833079 
L 151.302108 150.833473 
L 152.722924 150.833802 
L 154.14374 150.834111 
L 155.564557 150.834434 
L 156.985373 150.834687 
L 158.406189 150.834897 
L 159.827006 150.835126 
L 161.247822 150.835345 
L 162.668639 150.83555 
L 164.089455 150.835726 
L 165.510271 150.835888 
L 166.931088 150.836047 
L 168.351904 150.836198 
L 169.77272 150.836334 
L 171.193537 150.836482 
L 172.614353 150.8366 
L 174.03517 150.836732 
L 175.455986 150.836841 
L 176.876802 150.83695 
L 178.297619 150.837057 
L 179.718435 150.837153 
L 181.139251 150.837247 
L 182.560068 150.837336 
L 183.980884 150.837426 
L 185.401701 150.837512 
L 186.822517 150.837594 
L 188.243333 150.837673 
L 189.66415 150.837756 
L 191.084966 150.83782 
L 192.505782 150.837904 
L 193.926599 150.837972 
L 195.347415 150.838047 
L 196.768232 150.838112 
L 198.189048 150.83818 
L 199.609864 150.838247 
L 201.030681 150.838313 
L 202.451497 150.838379 
L 203.872314 150.838441 
L 205.29313 150.838503 
L 206.713946 150.83856 
L 208.134763 150.838612 
L 209.555579 150.838662 
L 210.976395 150.838709 
L 212.397212 150.838759 
L 213.818028 150.838808 
L 215.238845 150.838852 
L 216.659661 150.838899 
L 218.080477 150.83894 
L 219.501294 150.838988 
L 220.92211 150.839027 
L 222.342926 150.839066 
L 223.763743 150.839107 
L 225.184559 150.839144 
L 226.605376 150.839181 
L 228.026192 150.839218 
L 229.447008 150.839258 
L 230.867825 150.839293 
L 232.288641 150.839327 
L 233.709457 150.839361 
L 235.130274 150.839395 
L 236.55109 150.839424 
L 237.971907 150.839456 
L 239.392723 150.839489 
L 240.813539 150.839521 
L 242.234356 150.839553 
" clip-path="url(#pf4b11d98b6)" style="fill: none; stroke: #55a868; stroke-width: 1.5; stroke-linecap: square"/>
   </g>
   <g id="line2d_17"/>
   <g id="line2d_18"/>
   <g id="line2d_19"/>
   <g id="line2d_20">
    <path d="M 137.093944 150.84327 
L 137.093944 7.2 
" clip-path="url(#pf4b11d98b6)" style="fill: none; stroke-dasharray: 5.55,2.4; stroke-dashoffset: 0; stroke: #808080; stroke-width: 1.5"/>
   </g>
   <g id="patch_3">
    <path d="M 66.053125 150.84327 
L 66.053125 7.2 
" style="fill: none; stroke: #000000; stroke-width: 0.8; stroke-linejoin: miter; stroke-linecap: square"/>
   </g>
   <g id="patch_4">
    <path d="M 250.972376 150.84327 
L 250.972376 7.2 
" style="fill: none; stroke: #000000; stroke-width: 0.8; stroke-linejoin: miter; stroke-linecap: square"/>
   </g>
   <g id="patch_5">
    <path d="M 66.053125 150.84327 
L 250.972376 150.84327 
" style="fill: none; stroke: #000000; stroke-width: 0.8; stroke-linejoin: miter; stroke-linecap: square"/>
   </g>
   <g id="patch_6">
    <path d="M 66.053125 7.2 
L 250.972376 7.2 
" style="fill: none; stroke: #000000; stroke-width: 0.8; stroke-linejoin: miter; stroke-linecap: square"/>
   </g>
   <g id="legend_1">
    <g id="patch_7">
     <path d="M 95.527064 59.234375 
L 243.972376 59.234375 
Q 245.972376 59.234375 245.972376 57.234375 
L 245.972376 14.2 
Q 245.972376 12.2 243.972376 12.2 
L 95.527064 12.2 
Q 93.527064 12.2 93.527064 14.2 
L 93.527064 57.234375 
Q 93.527064 59.234375 95.527064 59.234375 
z
" style="fill: #ffffff; opacity: 0.8; stroke: #cccccc; stroke-linejoin: miter"/>
    </g>
    <g id="line2d_21">
     <path d="M 97.527064 20.298438 
L 107.527064 20.298438 
L 117.527064 20.298438 
" style="fill: none; stroke: #4c72b0; stroke-width: 1.5; stroke-linecap: square"/>
    </g>
    <g id="text_16">
     <!-- Random -->
     <g transform="translate(125.527064 23.798438) scale(0.1 -0.1)">
      <defs>
       <path id="DejaVuSans-64" d="M 2906 2969 
L 2906 4863 
L 3481 4863 
L 3481 0 
L 2906 0 
L 2906 525 
Q 2725 213 2448 61 
Q 2172 -91 1784 -91 
Q 1150 -91 751 415 
Q 353 922 353 1747 
Q 353 2572 751 3078 
Q 1150 3584 1784 3584 
Q 2172 3584 2448 3432 
Q 2725 3281 2906 2969 
z
M 947 1747 
Q 947 1113 1208 752 
Q 1469 391 1925 391 
Q 2381 391 2643 752 
Q 2906 1113 2906 1747 
Q 2906 2381 2643 2742 
Q 2381 3103 1925 3103 
Q 1469 3103 1208 2742 
Q 947 2381 947 1747 
z
" transform="scale(0.015625)"/>
      </defs>
      <use xlink:href="#DejaVuSans-52"/>
      <use xlink:href="#DejaVuSans-61" x="67.232422"/>
      <use xlink:href="#DejaVuSans-6e" x="128.511719"/>
      <use xlink:href="#DejaVuSans-64" x="191.890625"/>
      <use xlink:href="#DejaVuSans-6f" x="255.367188"/>
      <use xlink:href="#DejaVuSans-6d" x="316.548828"/>
     </g>
    </g>
    <g id="line2d_22">
     <path d="M 97.527064 34.976563 
L 107.527064 34.976563 
L 117.527064 34.976563 
" style="fill: none; stroke: #dd8452; stroke-width: 1.5; stroke-linecap: square"/>
    </g>
    <g id="text_17">
     <!-- Classification-optimal -->
     <g transform="translate(125.527064 38.476563) scale(0.1 -0.1)">
      <defs>
       <path id="DejaVuSans-43" d="M 4122 4306 
L 4122 3641 
Q 3803 3938 3442 4084 
Q 3081 4231 2675 4231 
Q 1875 4231 1450 3742 
Q 1025 3253 1025 2328 
Q 1025 1406 1450 917 
Q 1875 428 2675 428 
Q 3081 428 3442 575 
Q 3803 722 4122 1019 
L 4122 359 
Q 3791 134 3420 21 
Q 3050 -91 2638 -91 
Q 1578 -91 968 557 
Q 359 1206 359 2328 
Q 359 3453 968 4101 
Q 1578 4750 2638 4750 
Q 3056 4750 3426 4639 
Q 3797 4528 4122 4306 
z
" transform="scale(0.015625)"/>
       <path id="DejaVuSans-66" d="M 2375 4863 
L 2375 4384 
L 1825 4384 
Q 1516 4384 1395 4259 
Q 1275 4134 1275 3809 
L 1275 3500 
L 2222 3500 
L 2222 3053 
L 1275 3053 
L 1275 0 
L 697 0 
L 697 3053 
L 147 3053 
L 147 3500 
L 697 3500 
L 697 3744 
Q 697 4328 969 4595 
Q 1241 4863 1831 4863 
L 2375 4863 
z
" transform="scale(0.015625)"/>
       <path id="DejaVuSans-2d" d="M 313 2009 
L 1997 2009 
L 1997 1497 
L 313 1497 
L 313 2009 
z
" transform="scale(0.015625)"/>
      </defs>
      <use xlink:href="#DejaVuSans-43"/>
      <use xlink:href="#DejaVuSans-6c" x="69.824219"/>
      <use xlink:href="#DejaVuSans-61" x="97.607422"/>
      <use xlink:href="#DejaVuSans-73" x="158.886719"/>
      <use xlink:href="#DejaVuSans-73" x="210.986328"/>
      <use xlink:href="#DejaVuSans-69" x="263.085938"/>
      <use xlink:href="#DejaVuSans-66" x="290.869141"/>
      <use xlink:href="#DejaVuSans-69" x="326.074219"/>
      <use xlink:href="#DejaVuSans-63" x="353.857422"/>
      <use xlink:href="#DejaVuSans-61" x="408.837891"/>
      <use xlink:href="#DejaVuSans-74" x="470.117188"/>
      <use xlink:href="#DejaVuSans-69" x="509.326172"/>
      <use xlink:href="#DejaVuSans-6f" x="537.109375"/>
      <use xlink:href="#DejaVuSans-6e" x="598.291016"/>
      <use xlink:href="#DejaVuSans-2d" x="661.669922"/>
      <use xlink:href="#DejaVuSans-6f" x="699.628906"/>
      <use xlink:href="#DejaVuSans-70" x="760.810547"/>
      <use xlink:href="#DejaVuSans-74" x="824.287109"/>
      <use xlink:href="#DejaVuSans-69" x="863.496094"/>
      <use xlink:href="#DejaVuSans-6d" x="891.279297"/>
      <use xlink:href="#DejaVuSans-61" x="988.691406"/>
      <use xlink:href="#DejaVuSans-6c" x="1049.970703"/>
     </g>
    </g>
    <g id="line2d_23">
     <path d="M 97.527064 49.654688 
L 107.527064 49.654688 
L 117.527064 49.654688 
" style="fill: none; stroke: #55a868; stroke-width: 1.5; stroke-linecap: square"/>
    </g>
    <g id="text_18">
     <!-- Reconstruction-optimal -->
     <g transform="translate(125.527064 53.154688) scale(0.1 -0.1)">
      <use xlink:href="#DejaVuSans-52"/>
      <use xlink:href="#DejaVuSans-65" x="64.982422"/>
      <use xlink:href="#DejaVuSans-63" x="126.505859"/>
      <use xlink:href="#DejaVuSans-6f" x="181.486328"/>
      <use xlink:href="#DejaVuSans-6e" x="242.667969"/>
      <use xlink:href="#DejaVuSans-73" x="306.046875"/>
      <use xlink:href="#DejaVuSans-74" x="358.146484"/>
      <use xlink:href="#DejaVuSans-72" x="397.355469"/>
      <use xlink:href="#DejaVuSans-75" x="438.46875"/>
      <use xlink:href="#DejaVuSans-63" x="501.847656"/>
      <use xlink:href="#DejaVuSans-74" x="556.828125"/>
      <use xlink:href="#DejaVuSans-69" x="596.037109"/>
      <use xlink:href="#DejaVuSans-6f" x="623.820312"/>
      <use xlink:href="#DejaVuSans-6e" x="685.001953"/>
      <use xlink:href="#DejaVuSans-2d" x="748.380859"/>
      <use xlink:href="#DejaVuSans-6f" x="786.339844"/>
      <use xlink:href="#DejaVuSans-70" x="847.521484"/>
      <use xlink:href="#DejaVuSans-74" x="910.998047"/>
      <use xlink:href="#DejaVuSans-69" x="950.207031"/>
      <use xlink:href="#DejaVuSans-6d" x="977.990234"/>
      <use xlink:href="#DejaVuSans-61" x="1075.402344"/>
      <use xlink:href="#DejaVuSans-6c" x="1136.681641"/>
     </g>
    </g>
   </g>
  </g>
 </g>
 <defs>
  <clipPath id="pf4b11d98b6">
   <rect x="66.053125" y="7.2" width="184.919251" height="143.64327"/>
  </clipPath>
 </defs>
</svg>
