<?xml version="1.0" encoding="utf-8" standalone="no"?>
<!DOCTYPE svg PUBLIC "-//W3C//DTD SVG 1.1//EN"
  "http://www.w3.org/Graphics/SVG/1.1/DTD/svg11.dtd">
<svg xmlns:xlink="http://www.w3.org/1999/xlink" width="260.39952pt" height="188.39952pt" viewBox="0 0 260.39952 188.39952" xmlns="http://www.w3.org/2000/svg" version="1.1">
 <metadata>
  <rdf:RDF xmlns:dc="http://purl.org/dc/elements/1.1/" xmlns:cc="http://creativecommons.org/ns#" xmlns:rdf="http://www.w3.org/1999/02/22-rdf-syntax-ns#">
   <cc:Work>
    <dc:type rdf:resource="http://purl.org/dc/dcmitype/StillImage"/>
    <dc:date>1980-01-01T00:00:00+00:00</dc:date>
    <dc:format>image/svg+xml</dc:format>
    <dc:creator>
     <cc:Agent>
      <dc:title>Matplotlib v3.7.5, https://matplotlib.org/</dc:title>
     </cc:Agent>
    </dc:creator>
   </cc:Work>
  </rdf:RDF>
 </metadata>
 <defs>
  <style type="text/css">*{stroke-linejoin: round; stroke-linecap: butt}</style>
 </defs>
 <g id="figure_1">
  <g id="patch_1">
   <path d="M 0 188.39952 
L 260.39952 188.39952 
L 260.39952 0 
L 0 0 
z
" style="fill: #ffffff"/>
  </g>
  <g id="axes_1">
   <g id="patch_2">
    <path d="M 46.965625 150.84327 
L 253.19952 150.84327 
L 253.19952 7.2 
L 46.965625 7.2 
z
" style="fill: #ffffff"/>
   </g>
   <g id="PolyCollection_1">
    <defs>
     <path id="ma625817aa2" d="M 50.18803 -172.15766 
L 50.18803 -152.161975 
L 53.410434 -146.29702 
L 56.632839 -143.770935 
L 59.855243 -138.401323 
L 63.077648 -138.38745 
L 66.300053 -134.779691 
L 69.522457 -129.850746 
L 72.744862 -129.688352 
L 75.967266 -127.435236 
L 79.189671 -122.418158 
L 82.412076 -118.736546 
L 85.63448 -115.668196 
L 88.856885 -116.402642 
L 92.07929 -115.651875 
L 95.301694 -112.806307 
L 98.524099 -111.587536 
L 101.746503 -111.114226 
L 104.968908 -110.951424 
L 108.191313 -107.426086 
L 111.413717 -109.351557 
L 114.636122 -105.644648 
L 117.858526 -103.231994 
L 121.080931 -101.48279 
L 124.303336 -99.787853 
L 127.52574 -98.857556 
L 130.748145 -95.2347 
L 133.970549 -91.266654 
L 137.192954 -88.623466 
L 140.415359 -86.813058 
L 143.637763 -85.719143 
L 146.860168 -82.944163 
L 150.082572 -81.867384 
L 153.304977 -78.912873 
L 156.527382 -78.129873 
L 159.749786 -74.946868 
L 162.972191 -73.658324 
L 166.194596 -70.930267 
L 169.417 -69.170046 
L 172.639405 -67.880279 
L 175.861809 -66.590919 
L 179.084214 -65.93767 
L 182.306619 -62.70407 
L 185.529023 -60.501142 
L 188.751428 -58.52834 
L 191.973832 -56.635103 
L 195.196237 -54.414221 
L 198.418642 -52.325132 
L 201.641046 -48.245696 
L 204.863451 -42.305256 
L 208.085855 -37.55625 
L 211.30826 -37.55625 
L 214.530665 -37.55625 
L 217.753069 -37.55625 
L 220.975474 -37.55625 
L 224.197879 -37.55625 
L 227.420283 -37.55625 
L 230.642688 -37.55625 
L 233.865092 -37.55625 
L 237.087497 -37.55625 
L 240.309902 -37.55625 
L 243.532306 -37.55625 
L 243.532306 -37.55625 
L 243.532306 -37.55625 
L 240.309902 -37.55625 
L 237.087497 -37.55625 
L 233.865092 -37.55625 
L 230.642688 -37.55625 
L 227.420283 -37.55625 
L 224.197879 -37.55625 
L 220.975474 -37.55625 
L 217.753069 -37.55625 
L 214.530665 -37.55625 
L 211.30826 -37.55625 
L 208.085855 -37.55625 
L 204.863451 -45.880781 
L 201.641046 -54.547238 
L 198.418642 -58.480601 
L 195.196237 -62.595128 
L 191.973832 -64.634846 
L 188.751428 -66.51013 
L 185.529023 -69.024381 
L 182.306619 -70.818468 
L 179.084214 -73.936597 
L 175.861809 -75.340204 
L 172.639405 -75.731501 
L 169.417 -78.375504 
L 166.194596 -81.558101 
L 162.972191 -85.984767 
L 159.749786 -87.401431 
L 156.527382 -88.936014 
L 153.304977 -91.123845 
L 150.082572 -94.420281 
L 146.860168 -94.419873 
L 143.637763 -97.178124 
L 140.415359 -97.601246 
L 137.192954 -99.283942 
L 133.970549 -102.319242 
L 130.748145 -105.308435 
L 127.52574 -110.952648 
L 124.303336 -113.191483 
L 121.080931 -114.924774 
L 117.858526 -117.056706 
L 114.636122 -119.636242 
L 111.413717 -122.083577 
L 108.191313 -121.414008 
L 104.968908 -124.515816 
L 101.746503 -126.440471 
L 98.524099 -125.788038 
L 95.301694 -127.665363 
L 92.07929 -129.004909 
L 88.856885 -130.133507 
L 85.63448 -129.248501 
L 82.412076 -132.561666 
L 79.189671 -135.581052 
L 75.967266 -140.674024 
L 72.744862 -145.079472 
L 69.522457 -146.042412 
L 66.300053 -150.709813 
L 63.077648 -153.208559 
L 59.855243 -153.909547 
L 56.632839 -163.622996 
L 53.410434 -166.510999 
L 50.18803 -172.15766 
z
" style="stroke: #4c72b0; stroke-opacity: 0.2"/>
    </defs>
    <g clip-path="url(#pf03e6d8eae)">
     <use xlink:href="#ma625817aa2" x="0" y="188.39952" style="fill: #4c72b0; fill-opacity: 0.2; stroke: #4c72b0; stroke-opacity: 0.2"/>
    </g>
   </g>
   <g id="PolyCollection_2">
    <defs>
     <path id="m53d81ef73f" d="M 50.18803 -174.359364 
L 50.18803 -150.027186 
L 53.410434 -136.133519 
L 56.632839 -129.95724 
L 59.855243 -124.496638 
L 63.077648 -121.10146 
L 66.300053 -113.186995 
L 69.522457 -109.106334 
L 72.744862 -104.837982 
L 75.967266 -105.614454 
L 79.189671 -100.832398 
L 82.412076 -99.589553 
L 85.63448 -96.490601 
L 88.856885 -96.227833 
L 92.07929 -93.731943 
L 95.301694 -93.290867 
L 98.524099 -91.349891 
L 101.746503 -91.284607 
L 104.968908 -90.190691 
L 108.191313 -88.085281 
L 111.413717 -85.455966 
L 114.636122 -84.751715 
L 117.858526 -84.11846 
L 121.080931 -82.912337 
L 124.303336 -80.119812 
L 127.52574 -78.17802 
L 130.748145 -76.383117 
L 133.970549 -75.029289 
L 137.192954 -72.27063 
L 140.415359 -69.234514 
L 143.637763 -68.908502 
L 146.860168 -66.817781 
L 150.082572 -66.509722 
L 153.304977 -65.84056 
L 156.527382 -64.713187 
L 159.749786 -63.424235 
L 162.972191 -61.89006 
L 166.194596 -60.519911 
L 169.417 -59.409674 
L 172.639405 -57.957105 
L 175.861809 -57.451561 
L 179.084214 -56.683658 
L 182.306619 -53.828297 
L 185.529023 -52.897183 
L 188.751428 -51.085551 
L 191.973832 -48.964636 
L 195.196237 -47.969054 
L 198.418642 -45.831002 
L 201.641046 -43.82311 
L 204.863451 -41.505118 
L 208.085855 -37.55625 
L 211.30826 -37.55625 
L 214.530665 -37.55625 
L 217.753069 -37.55625 
L 220.975474 -37.55625 
L 224.197879 -37.55625 
L 227.420283 -37.55625 
L 230.642688 -37.55625 
L 233.865092 -37.55625 
L 237.087497 -37.55625 
L 240.309902 -37.55625 
L 243.532306 -37.55625 
L 243.532306 -37.55625 
L 243.532306 -37.55625 
L 240.309902 -37.55625 
L 237.087497 -37.55625 
L 233.865092 -37.55625 
L 230.642688 -37.55625 
L 227.420283 -37.55625 
L 224.197879 -37.55625 
L 220.975474 -37.55625 
L 217.753069 -37.55625 
L 214.530665 -37.55625 
L 211.30826 -37.55625 
L 208.085855 -37.55625 
L 204.863451 -44.18258 
L 201.641046 -46.28799 
L 198.418642 -48.556611 
L 195.196237 -50.6457 
L 191.973832 -52.75111 
L 188.751428 -54.954855 
L 185.529023 -57.060673 
L 182.306619 -58.856392 
L 179.084214 -61.760308 
L 175.861809 -62.396827 
L 172.639405 -63.295707 
L 169.417 -64.9274 
L 166.194596 -65.87361 
L 162.972191 -67.081365 
L 159.749786 -68.877084 
L 156.527382 -70.837646 
L 153.304977 -72.483212 
L 150.082572 -73.13646 
L 146.860168 -74.328302 
L 143.637763 -75.812698 
L 140.415359 -76.515317 
L 137.192954 -80.548239 
L 133.970549 -83.565585 
L 130.748145 -85.703638 
L 127.52574 -87.743764 
L 124.303336 -90.599941 
L 121.080931 -94.028169 
L 117.858526 -96.267003 
L 114.636122 -97.113656 
L 111.413717 -100.115906 
L 108.191313 -101.959364 
L 104.968908 -104.620096 
L 101.746503 -105.631999 
L 98.524099 -107.165766 
L 95.301694 -107.853288 
L 92.07929 -108.88396 
L 88.856885 -112.815692 
L 85.63448 -113.220453 
L 82.412076 -116.763744 
L 79.189671 -118.362795 
L 75.967266 -121.807344 
L 72.744862 -123.340703 
L 69.522457 -128.449587 
L 66.300053 -132.794648 
L 63.077648 -142.406091 
L 59.855243 -146.017522 
L 56.632839 -158.10527 
L 53.410434 -162.155329 
L 50.18803 -174.359364 
z
" style="stroke: #dd8452; stroke-opacity: 0.2"/>
    </defs>
    <g clip-path="url(#pf03e6d8eae)">
     <use xlink:href="#m53d81ef73f" x="0" y="188.39952" style="fill: #dd8452; fill-opacity: 0.2; stroke: #dd8452; stroke-opacity: 0.2"/>
    </g>
   </g>
   <g id="PolyCollection_3">
    <defs>
     <path id="m71b4811340" d="M 50.18803 -163.848226 
L 50.18803 -147.017592 
L 53.410434 -145.681718 
L 56.632839 -142.937748 
L 59.855243 -140.541823 
L 63.077648 -137.829272 
L 66.300053 -133.946911 
L 69.522457 -131.3686 
L 72.744862 -129.84993 
L 75.967266 -124.020065 
L 79.189671 -122.229242 
L 82.412076 -121.054537 
L 85.63448 -117.902134 
L 88.856885 -117.349668 
L 92.07929 -115.08064 
L 95.301694 -115.291589 
L 98.524099 -112.85935 
L 101.746503 -112.20651 
L 104.968908 -110.395286 
L 108.191313 -108.42126 
L 111.413717 -105.121559 
L 114.636122 -101.811659 
L 117.858526 -102.497549 
L 121.080931 -102.023832 
L 124.303336 -99.706656 
L 127.52574 -97.055716 
L 130.748145 -96.032389 
L 133.970549 -93.534866 
L 137.192954 -91.805247 
L 140.415359 -90.582804 
L 143.637763 -87.399391 
L 146.860168 -86.420946 
L 150.082572 -85.538795 
L 153.304977 -81.214136 
L 156.527382 -79.712195 
L 159.749786 -76.709945 
L 162.972191 -75.583387 
L 166.194596 -74.262202 
L 169.417 -72.923471 
L 172.639405 -70.295788 
L 175.861809 -69.610306 
L 179.084214 -67.699931 
L 182.306619 -65.416214 
L 185.529023 -63.652729 
L 188.751428 -61.221307 
L 191.973832 -59.459045 
L 195.196237 -55.75336 
L 198.418642 -52.717652 
L 201.641046 -49.780687 
L 204.863451 -43.969183 
L 208.085855 -37.55625 
L 211.30826 -37.55625 
L 214.530665 -37.55625 
L 217.753069 -37.55625 
L 220.975474 -37.55625 
L 224.197879 -37.55625 
L 227.420283 -37.55625 
L 230.642688 -37.55625 
L 233.865092 -37.55625 
L 237.087497 -37.55625 
L 240.309902 -37.55625 
L 243.532306 -37.55625 
L 243.532306 -37.55625 
L 243.532306 -37.55625 
L 240.309902 -37.55625 
L 237.087497 -37.55625 
L 233.865092 -37.55625 
L 230.642688 -37.55625 
L 227.420283 -37.55625 
L 224.197879 -37.55625 
L 220.975474 -37.55625 
L 217.753069 -37.55625 
L 214.530665 -37.55625 
L 211.30826 -37.55625 
L 208.085855 -37.55625 
L 204.863451 -50.026318 
L 201.641046 -57.746972 
L 198.418642 -60.748405 
L 195.196237 -63.100263 
L 191.973832 -66.430157 
L 188.751428 -69.513604 
L 185.529023 -71.667161 
L 182.306619 -73.93823 
L 179.084214 -76.026095 
L 175.861809 -77.820182 
L 172.639405 -80.318928 
L 169.417 -82.032634 
L 166.194596 -84.188232 
L 162.972191 -85.670996 
L 159.749786 -87.712346 
L 156.527382 -93.410419 
L 153.304977 -95.399134 
L 150.082572 -101.590101 
L 146.860168 -101.439948 
L 143.637763 -104.35896 
L 140.415359 -108.047508 
L 137.192954 -109.761215 
L 133.970549 -111.409637 
L 130.748145 -112.85119 
L 127.52574 -113.288593 
L 124.303336 -114.724434 
L 121.080931 -116.307164 
L 117.858526 -117.301113 
L 114.636122 -114.951704 
L 111.413717 -117.122806 
L 108.191313 -122.884531 
L 104.968908 -127.322213 
L 101.746503 -127.273658 
L 98.524099 -129.626332 
L 95.301694 -132.551057 
L 92.07929 -132.612669 
L 88.856885 -135.02777 
L 85.63448 -138.046749 
L 82.412076 -142.207383 
L 79.189671 -144.26587 
L 75.967266 -147.614533 
L 72.744862 -152.34273 
L 69.522457 -154.058884 
L 66.300053 -157.060726 
L 63.077648 -160.684806 
L 59.855243 -160.829655 
L 56.632839 -160.894531 
L 53.410434 -166.542825 
L 50.18803 -163.848226 
z
" style="stroke: #55a868; stroke-opacity: 0.2"/>
    </defs>
    <g clip-path="url(#pf03e6d8eae)">
     <use xlink:href="#m71b4811340" x="0" y="188.39952" style="fill: #55a868; fill-opacity: 0.2; stroke: #55a868; stroke-opacity: 0.2"/>
    </g>
   </g>
   <g id="matplotlib.axis_1">
    <g id="xtick_1">
     <g id="line2d_1">
      <defs>
       <path id="m3beccbc21d" d="M 0 0 
L 0 3.5 
" style="stroke: #000000; stroke-width: 0.8"/>
      </defs>
      <g>
       <use xlink:href="#m3beccbc21d" x="46.965625" y="150.84327" style="stroke: #000000; stroke-width: 0.8"/>
      </g>
     </g>
     <g id="text_1">
      <!-- 0 -->
      <g transform="translate(43.784375 165.441708) scale(0.1 -0.1)">
       <defs>
        <path id="DejaVuSans-30" d="M 2034 4250 
Q 1547 4250 1301 3770 
Q 1056 3291 1056 2328 
Q 1056 1369 1301 889 
Q 1547 409 2034 409 
Q 2525 409 2770 889 
Q 3016 1369 3016 2328 
Q 3016 3291 2770 3770 
Q 2525 4250 2034 4250 
z
M 2034 4750 
Q 2819 4750 3233 4129 
Q 3647 3509 3647 2328 
Q 3647 1150 3233 529 
Q 2819 -91 2034 -91 
Q 1250 -91 836 529 
Q 422 1150 422 2328 
Q 422 3509 836 4129 
Q 1250 4750 2034 4750 
z
" transform="scale(0.015625)"/>
       </defs>
       <use xlink:href="#DejaVuSans-30"/>
      </g>
     </g>
    </g>
    <g id="xtick_2">
     <g id="line2d_2">
      <g>
       <use xlink:href="#m3beccbc21d" x="111.413717" y="150.84327" style="stroke: #000000; stroke-width: 0.8"/>
      </g>
     </g>
     <g id="text_2">
      <!-- 20 -->
      <g transform="translate(105.051217 165.441708) scale(0.1 -0.1)">
       <defs>
        <path id="DejaVuSans-32" d="M 1228 531 
L 3431 531 
L 3431 0 
L 469 0 
L 469 531 
Q 828 903 1448 1529 
Q 2069 2156 2228 2338 
Q 2531 2678 2651 2914 
Q 2772 3150 2772 3378 
Q 2772 3750 2511 3984 
Q 2250 4219 1831 4219 
Q 1534 4219 1204 4116 
Q 875 4013 500 3803 
L 500 4441 
Q 881 4594 1212 4672 
Q 1544 4750 1819 4750 
Q 2544 4750 2975 4387 
Q 3406 4025 3406 3419 
Q 3406 3131 3298 2873 
Q 3191 2616 2906 2266 
Q 2828 2175 2409 1742 
Q 1991 1309 1228 531 
z
" transform="scale(0.015625)"/>
       </defs>
       <use xlink:href="#DejaVuSans-32"/>
       <use xlink:href="#DejaVuSans-30" x="63.623047"/>
      </g>
     </g>
    </g>
    <g id="xtick_3">
     <g id="line2d_3">
      <g>
       <use xlink:href="#m3beccbc21d" x="175.861809" y="150.84327" style="stroke: #000000; stroke-width: 0.8"/>
      </g>
     </g>
     <g id="text_3">
      <!-- 40 -->
      <g transform="translate(169.499309 165.441708) scale(0.1 -0.1)">
       <defs>
        <path id="DejaVuSans-34" d="M 2419 4116 
L 825 1625 
L 2419 1625 
L 2419 4116 
z
M 2253 4666 
L 3047 4666 
L 3047 1625 
L 3713 1625 
L 3713 1100 
L 3047 1100 
L 3047 0 
L 2419 0 
L 2419 1100 
L 313 1100 
L 313 1709 
L 2253 4666 
z
" transform="scale(0.015625)"/>
       </defs>
       <use xlink:href="#DejaVuSans-34"/>
       <use xlink:href="#DejaVuSans-30" x="63.623047"/>
      </g>
     </g>
    </g>
    <g id="xtick_4">
     <g id="line2d_4">
      <g>
       <use xlink:href="#m3beccbc21d" x="240.309902" y="150.84327" style="stroke: #000000; stroke-width: 0.8"/>
      </g>
     </g>
     <g id="text_4">
      <!-- 60 -->
      <g transform="translate(233.947402 165.441708) scale(0.1 -0.1)">
       <defs>
        <path id="DejaVuSans-36" d="M 2113 2584 
Q 1688 2584 1439 2293 
Q 1191 2003 1191 1497 
Q 1191 994 1439 701 
Q 1688 409 2113 409 
Q 2538 409 2786 701 
Q 3034 994 3034 1497 
Q 3034 2003 2786 2293 
Q 2538 2584 2113 2584 
z
M 3366 4563 
L 3366 3988 
Q 3128 4100 2886 4159 
Q 2644 4219 2406 4219 
Q 1781 4219 1451 3797 
Q 1122 3375 1075 2522 
Q 1259 2794 1537 2939 
Q 1816 3084 2150 3084 
Q 2853 3084 3261 2657 
Q 3669 2231 3669 1497 
Q 3669 778 3244 343 
Q 2819 -91 2113 -91 
Q 1303 -91 875 529 
Q 447 1150 447 2328 
Q 447 3434 972 4092 
Q 1497 4750 2381 4750 
Q 2619 4750 2861 4703 
Q 3103 4656 3366 4563 
z
" transform="scale(0.015625)"/>
       </defs>
       <use xlink:href="#DejaVuSans-36"/>
       <use xlink:href="#DejaVuSans-30" x="63.623047"/>
      </g>
     </g>
    </g>
    <g id="text_5">
     <!-- Sample Size -->
     <g transform="translate(119.48101 179.119833) scale(0.1 -0.1)">
      <defs>
       <path id="DejaVuSans-53" d="M 3425 4513 
L 3425 3897 
Q 3066 4069 2747 4153 
Q 2428 4238 2131 4238 
Q 1616 4238 1336 4038 
Q 1056 3838 1056 3469 
Q 1056 3159 1242 3001 
Q 1428 2844 1947 2747 
L 2328 2669 
Q 3034 2534 3370 2195 
Q 3706 1856 3706 1288 
Q 3706 609 3251 259 
Q 2797 -91 1919 -91 
Q 1588 -91 1214 -16 
Q 841 59 441 206 
L 441 856 
Q 825 641 1194 531 
Q 1563 422 1919 422 
Q 2459 422 2753 634 
Q 3047 847 3047 1241 
Q 3047 1584 2836 1778 
Q 2625 1972 2144 2069 
L 1759 2144 
Q 1053 2284 737 2584 
Q 422 2884 422 3419 
Q 422 4038 858 4394 
Q 1294 4750 2059 4750 
Q 2388 4750 2728 4690 
Q 3069 4631 3425 4513 
z
" transform="scale(0.015625)"/>
       <path id="DejaVuSans-61" d="M 2194 1759 
Q 1497 1759 1228 1600 
Q 959 1441 959 1056 
Q 959 750 1161 570 
Q 1363 391 1709 391 
Q 2188 391 2477 730 
Q 2766 1069 2766 1631 
L 2766 1759 
L 2194 1759 
z
M 3341 1997 
L 3341 0 
L 2766 0 
L 2766 531 
Q 2569 213 2275 61 
Q 1981 -91 1556 -91 
Q 1019 -91 701 211 
Q 384 513 384 1019 
Q 384 1609 779 1909 
Q 1175 2209 1959 2209 
L 2766 2209 
L 2766 2266 
Q 2766 2663 2505 2880 
Q 2244 3097 1772 3097 
Q 1472 3097 1187 3025 
Q 903 2953 641 2809 
L 641 3341 
Q 956 3463 1253 3523 
Q 1550 3584 1831 3584 
Q 2591 3584 2966 3190 
Q 3341 2797 3341 1997 
z
" transform="scale(0.015625)"/>
       <path id="DejaVuSans-6d" d="M 3328 2828 
Q 3544 3216 3844 3400 
Q 4144 3584 4550 3584 
Q 5097 3584 5394 3201 
Q 5691 2819 5691 2113 
L 5691 0 
L 5113 0 
L 5113 2094 
Q 5113 2597 4934 2840 
Q 4756 3084 4391 3084 
Q 3944 3084 3684 2787 
Q 3425 2491 3425 1978 
L 3425 0 
L 2847 0 
L 2847 2094 
Q 2847 2600 2669 2842 
Q 2491 3084 2119 3084 
Q 1678 3084 1418 2786 
Q 1159 2488 1159 1978 
L 1159 0 
L 581 0 
L 581 3500 
L 1159 3500 
L 1159 2956 
Q 1356 3278 1631 3431 
Q 1906 3584 2284 3584 
Q 2666 3584 2933 3390 
Q 3200 3197 3328 2828 
z
" transform="scale(0.015625)"/>
       <path id="DejaVuSans-70" d="M 1159 525 
L 1159 -1331 
L 581 -1331 
L 581 3500 
L 1159 3500 
L 1159 2969 
Q 1341 3281 1617 3432 
Q 1894 3584 2278 3584 
Q 2916 3584 3314 3078 
Q 3713 2572 3713 1747 
Q 3713 922 3314 415 
Q 2916 -91 2278 -91 
Q 1894 -91 1617 61 
Q 1341 213 1159 525 
z
M 3116 1747 
Q 3116 2381 2855 2742 
Q 2594 3103 2138 3103 
Q 1681 3103 1420 2742 
Q 1159 2381 1159 1747 
Q 1159 1113 1420 752 
Q 1681 391 2138 391 
Q 2594 391 2855 752 
Q 3116 1113 3116 1747 
z
" transform="scale(0.015625)"/>
       <path id="DejaVuSans-6c" d="M 603 4863 
L 1178 4863 
L 1178 0 
L 603 0 
L 603 4863 
z
" transform="scale(0.015625)"/>
       <path id="DejaVuSans-65" d="M 3597 1894 
L 3597 1613 
L 953 1613 
Q 991 1019 1311 708 
Q 1631 397 2203 397 
Q 2534 397 2845 478 
Q 3156 559 3463 722 
L 3463 178 
Q 3153 47 2828 -22 
Q 2503 -91 2169 -91 
Q 1331 -91 842 396 
Q 353 884 353 1716 
Q 353 2575 817 3079 
Q 1281 3584 2069 3584 
Q 2775 3584 3186 3129 
Q 3597 2675 3597 1894 
z
M 3022 2063 
Q 3016 2534 2758 2815 
Q 2500 3097 2075 3097 
Q 1594 3097 1305 2825 
Q 1016 2553 972 2059 
L 3022 2063 
z
" transform="scale(0.015625)"/>
       <path id="DejaVuSans-20" transform="scale(0.015625)"/>
       <path id="DejaVuSans-69" d="M 603 3500 
L 1178 3500 
L 1178 0 
L 603 0 
L 603 3500 
z
M 603 4863 
L 1178 4863 
L 1178 4134 
L 603 4134 
L 603 4863 
z
" transform="scale(0.015625)"/>
       <path id="DejaVuSans-7a" d="M 353 3500 
L 3084 3500 
L 3084 2975 
L 922 459 
L 3084 459 
L 3084 0 
L 275 0 
L 275 525 
L 2438 3041 
L 353 3041 
L 353 3500 
z
" transform="scale(0.015625)"/>
      </defs>
      <use xlink:href="#DejaVuSans-53"/>
      <use xlink:href="#DejaVuSans-61" x="63.476562"/>
      <use xlink:href="#DejaVuSans-6d" x="124.755859"/>
      <use xlink:href="#DejaVuSans-70" x="222.167969"/>
      <use xlink:href="#DejaVuSans-6c" x="285.644531"/>
      <use xlink:href="#DejaVuSans-65" x="313.427734"/>
      <use xlink:href="#DejaVuSans-20" x="374.951172"/>
      <use xlink:href="#DejaVuSans-53" x="406.738281"/>
      <use xlink:href="#DejaVuSans-69" x="470.214844"/>
      <use xlink:href="#DejaVuSans-7a" x="497.998047"/>
      <use xlink:href="#DejaVuSans-65" x="550.488281"/>
     </g>
    </g>
   </g>
   <g id="matplotlib.axis_2">
    <g id="ytick_1">
     <g id="line2d_5">
      <defs>
       <path id="mb28c809bbe" d="M 0 0 
L -3.5 0 
" style="stroke: #000000; stroke-width: 0.8"/>
      </defs>
      <g>
       <use xlink:href="#mb28c809bbe" x="46.965625" y="150.84327" style="stroke: #000000; stroke-width: 0.8"/>
      </g>
     </g>
     <g id="text_6">
      <!-- 0 -->
      <g transform="translate(33.603125 154.642489) scale(0.1 -0.1)">
       <use xlink:href="#DejaVuSans-30"/>
      </g>
     </g>
    </g>
    <g id="ytick_2">
     <g id="line2d_6">
      <g>
       <use xlink:href="#mb28c809bbe" x="46.965625" y="124.729654" style="stroke: #000000; stroke-width: 0.8"/>
      </g>
     </g>
     <g id="text_7">
      <!-- 50 -->
      <g transform="translate(27.240625 128.528873) scale(0.1 -0.1)">
       <defs>
        <path id="DejaVuSans-35" d="M 691 4666 
L 3169 4666 
L 3169 4134 
L 1269 4134 
L 1269 2991 
Q 1406 3038 1543 3061 
Q 1681 3084 1819 3084 
Q 2600 3084 3056 2656 
Q 3513 2228 3513 1497 
Q 3513 744 3044 326 
Q 2575 -91 1722 -91 
Q 1428 -91 1123 -41 
Q 819 9 494 109 
L 494 744 
Q 775 591 1075 516 
Q 1375 441 1709 441 
Q 2250 441 2565 725 
Q 2881 1009 2881 1497 
Q 2881 1984 2565 2268 
Q 2250 2553 1709 2553 
Q 1456 2553 1204 2497 
Q 953 2441 691 2322 
L 691 4666 
z
" transform="scale(0.015625)"/>
       </defs>
       <use xlink:href="#DejaVuSans-35"/>
       <use xlink:href="#DejaVuSans-30" x="63.623047"/>
      </g>
     </g>
    </g>
    <g id="ytick_3">
     <g id="line2d_7">
      <g>
       <use xlink:href="#mb28c809bbe" x="46.965625" y="98.616038" style="stroke: #000000; stroke-width: 0.8"/>
      </g>
     </g>
     <g id="text_8">
      <!-- 100 -->
      <g transform="translate(20.878125 102.415257) scale(0.1 -0.1)">
       <defs>
        <path id="DejaVuSans-31" d="M 794 531 
L 1825 531 
L 1825 4091 
L 703 3866 
L 703 4441 
L 1819 4666 
L 2450 4666 
L 2450 531 
L 3481 531 
L 3481 0 
L 794 0 
L 794 531 
z
" transform="scale(0.015625)"/>
       </defs>
       <use xlink:href="#DejaVuSans-31"/>
       <use xlink:href="#DejaVuSans-30" x="63.623047"/>
       <use xlink:href="#DejaVuSans-30" x="127.246094"/>
      </g>
     </g>
    </g>
    <g id="ytick_4">
     <g id="line2d_8">
      <g>
       <use xlink:href="#mb28c809bbe" x="46.965625" y="72.502422" style="stroke: #000000; stroke-width: 0.8"/>
      </g>
     </g>
     <g id="text_9">
      <!-- 150 -->
      <g transform="translate(20.878125 76.30164) scale(0.1 -0.1)">
       <use xlink:href="#DejaVuSans-31"/>
       <use xlink:href="#DejaVuSans-35" x="63.623047"/>
       <use xlink:href="#DejaVuSans-30" x="127.246094"/>
      </g>
     </g>
    </g>
    <g id="ytick_5">
     <g id="line2d_9">
      <g>
       <use xlink:href="#mb28c809bbe" x="46.965625" y="46.388806" style="stroke: #000000; stroke-width: 0.8"/>
      </g>
     </g>
     <g id="text_10">
      <!-- 200 -->
      <g transform="translate(20.878125 50.188024) scale(0.1 -0.1)">
       <use xlink:href="#DejaVuSans-32"/>
       <use xlink:href="#DejaVuSans-30" x="63.623047"/>
       <use xlink:href="#DejaVuSans-30" x="127.246094"/>
      </g>
     </g>
    </g>
    <g id="ytick_6">
     <g id="line2d_10">
      <g>
       <use xlink:href="#mb28c809bbe" x="46.965625" y="20.27519" style="stroke: #000000; stroke-width: 0.8"/>
      </g>
     </g>
     <g id="text_11">
      <!-- 250 -->
      <g transform="translate(20.878125 24.074408) scale(0.1 -0.1)">
       <use xlink:href="#DejaVuSans-32"/>
       <use xlink:href="#DejaVuSans-35" x="63.623047"/>
       <use xlink:href="#DejaVuSans-30" x="127.246094"/>
      </g>
     </g>
    </g>
    <g id="text_12">
     <!-- Empirical Classification Error -->
     <g transform="translate(14.798437 150.707573) rotate(-90) scale(0.1 -0.1)">
      <defs>
       <path id="DejaVuSans-45" d="M 628 4666 
L 3578 4666 
L 3578 4134 
L 1259 4134 
L 1259 2753 
L 3481 2753 
L 3481 2222 
L 1259 2222 
L 1259 531 
L 3634 531 
L 3634 0 
L 628 0 
L 628 4666 
z
" transform="scale(0.015625)"/>
       <path id="DejaVuSans-72" d="M 2631 2963 
Q 2534 3019 2420 3045 
Q 2306 3072 2169 3072 
Q 1681 3072 1420 2755 
Q 1159 2438 1159 1844 
L 1159 0 
L 581 0 
L 581 3500 
L 1159 3500 
L 1159 2956 
Q 1341 3275 1631 3429 
Q 1922 3584 2338 3584 
Q 2397 3584 2469 3576 
Q 2541 3569 2628 3553 
L 2631 2963 
z
" transform="scale(0.015625)"/>
       <path id="DejaVuSans-63" d="M 3122 3366 
L 3122 2828 
Q 2878 2963 2633 3030 
Q 2388 3097 2138 3097 
Q 1578 3097 1268 2742 
Q 959 2388 959 1747 
Q 959 1106 1268 751 
Q 1578 397 2138 397 
Q 2388 397 2633 464 
Q 2878 531 3122 666 
L 3122 134 
Q 2881 22 2623 -34 
Q 2366 -91 2075 -91 
Q 1284 -91 818 406 
Q 353 903 353 1747 
Q 353 2603 823 3093 
Q 1294 3584 2113 3584 
Q 2378 3584 2631 3529 
Q 2884 3475 3122 3366 
z
" transform="scale(0.015625)"/>
       <path id="DejaVuSans-43" d="M 4122 4306 
L 4122 3641 
Q 3803 3938 3442 4084 
Q 3081 4231 2675 4231 
Q 1875 4231 1450 3742 
Q 1025 3253 1025 2328 
Q 1025 1406 1450 917 
Q 1875 428 2675 428 
Q 3081 428 3442 575 
Q 3803 722 4122 1019 
L 4122 359 
Q 3791 134 3420 21 
Q 3050 -91 2638 -91 
Q 1578 -91 968 557 
Q 359 1206 359 2328 
Q 359 3453 968 4101 
Q 1578 4750 2638 4750 
Q 3056 4750 3426 4639 
Q 3797 4528 4122 4306 
z
" transform="scale(0.015625)"/>
       <path id="DejaVuSans-73" d="M 2834 3397 
L 2834 2853 
Q 2591 2978 2328 3040 
Q 2066 3103 1784 3103 
Q 1356 3103 1142 2972 
Q 928 2841 928 2578 
Q 928 2378 1081 2264 
Q 1234 2150 1697 2047 
L 1894 2003 
Q 2506 1872 2764 1633 
Q 3022 1394 3022 966 
Q 3022 478 2636 193 
Q 2250 -91 1575 -91 
Q 1294 -91 989 -36 
Q 684 19 347 128 
L 347 722 
Q 666 556 975 473 
Q 1284 391 1588 391 
Q 1994 391 2212 530 
Q 2431 669 2431 922 
Q 2431 1156 2273 1281 
Q 2116 1406 1581 1522 
L 1381 1569 
Q 847 1681 609 1914 
Q 372 2147 372 2553 
Q 372 3047 722 3315 
Q 1072 3584 1716 3584 
Q 2034 3584 2315 3537 
Q 2597 3491 2834 3397 
z
" transform="scale(0.015625)"/>
       <path id="DejaVuSans-66" d="M 2375 4863 
L 2375 4384 
L 1825 4384 
Q 1516 4384 1395 4259 
Q 1275 4134 1275 3809 
L 1275 3500 
L 2222 3500 
L 2222 3053 
L 1275 3053 
L 1275 0 
L 697 0 
L 697 3053 
L 147 3053 
L 147 3500 
L 697 3500 
L 697 3744 
Q 697 4328 969 4595 
Q 1241 4863 1831 4863 
L 2375 4863 
z
" transform="scale(0.015625)"/>
       <path id="DejaVuSans-74" d="M 1172 4494 
L 1172 3500 
L 2356 3500 
L 2356 3053 
L 1172 3053 
L 1172 1153 
Q 1172 725 1289 603 
Q 1406 481 1766 481 
L 2356 481 
L 2356 0 
L 1766 0 
Q 1100 0 847 248 
Q 594 497 594 1153 
L 594 3053 
L 172 3053 
L 172 3500 
L 594 3500 
L 594 4494 
L 1172 4494 
z
" transform="scale(0.015625)"/>
       <path id="DejaVuSans-6f" d="M 1959 3097 
Q 1497 3097 1228 2736 
Q 959 2375 959 1747 
Q 959 1119 1226 758 
Q 1494 397 1959 397 
Q 2419 397 2687 759 
Q 2956 1122 2956 1747 
Q 2956 2369 2687 2733 
Q 2419 3097 1959 3097 
z
M 1959 3584 
Q 2709 3584 3137 3096 
Q 3566 2609 3566 1747 
Q 3566 888 3137 398 
Q 2709 -91 1959 -91 
Q 1206 -91 779 398 
Q 353 888 353 1747 
Q 353 2609 779 3096 
Q 1206 3584 1959 3584 
z
" transform="scale(0.015625)"/>
       <path id="DejaVuSans-6e" d="M 3513 2113 
L 3513 0 
L 2938 0 
L 2938 2094 
Q 2938 2591 2744 2837 
Q 2550 3084 2163 3084 
Q 1697 3084 1428 2787 
Q 1159 2491 1159 1978 
L 1159 0 
L 581 0 
L 581 3500 
L 1159 3500 
L 1159 2956 
Q 1366 3272 1645 3428 
Q 1925 3584 2291 3584 
Q 2894 3584 3203 3211 
Q 3513 2838 3513 2113 
z
" transform="scale(0.015625)"/>
      </defs>
      <use xlink:href="#DejaVuSans-45"/>
      <use xlink:href="#DejaVuSans-6d" x="63.183594"/>
      <use xlink:href="#DejaVuSans-70" x="160.595703"/>
      <use xlink:href="#DejaVuSans-69" x="224.072266"/>
      <use xlink:href="#DejaVuSans-72" x="251.855469"/>
      <use xlink:href="#DejaVuSans-69" x="292.96875"/>
      <use xlink:href="#DejaVuSans-63" x="320.751953"/>
      <use xlink:href="#DejaVuSans-61" x="375.732422"/>
      <use xlink:href="#DejaVuSans-6c" x="437.011719"/>
      <use xlink:href="#DejaVuSans-20" x="464.794922"/>
      <use xlink:href="#DejaVuSans-43" x="496.582031"/>
      <use xlink:href="#DejaVuSans-6c" x="566.40625"/>
      <use xlink:href="#DejaVuSans-61" x="594.189453"/>
      <use xlink:href="#DejaVuSans-73" x="655.46875"/>
      <use xlink:href="#DejaVuSans-73" x="707.568359"/>
      <use xlink:href="#DejaVuSans-69" x="759.667969"/>
      <use xlink:href="#DejaVuSans-66" x="787.451172"/>
      <use xlink:href="#DejaVuSans-69" x="822.65625"/>
      <use xlink:href="#DejaVuSans-63" x="850.439453"/>
      <use xlink:href="#DejaVuSans-61" x="905.419922"/>
      <use xlink:href="#DejaVuSans-74" x="966.699219"/>
      <use xlink:href="#DejaVuSans-69" x="1005.908203"/>
      <use xlink:href="#DejaVuSans-6f" x="1033.691406"/>
      <use xlink:href="#DejaVuSans-6e" x="1094.873047"/>
      <use xlink:href="#DejaVuSans-20" x="1158.251953"/>
      <use xlink:href="#DejaVuSans-45" x="1190.039062"/>
      <use xlink:href="#DejaVuSans-72" x="1253.222656"/>
      <use xlink:href="#DejaVuSans-72" x="1292.585938"/>
      <use xlink:href="#DejaVuSans-6f" x="1331.449219"/>
      <use xlink:href="#DejaVuSans-72" x="1392.630859"/>
     </g>
    </g>
   </g>
   <g id="line2d_11">
    <path d="M 50.18803 26.689347 
L 53.410434 32.303774 
L 56.632839 34.996741 
L 59.855243 42.177985 
L 63.077648 42.504405 
L 66.300053 45.605397 
L 69.522457 50.33849 
L 72.744862 50.877083 
L 75.967266 53.929112 
L 79.189671 58.972304 
L 82.412076 62.726137 
L 85.63448 65.631277 
L 88.856885 64.962115 
L 92.07929 65.712882 
L 95.301694 68.405848 
L 98.524099 69.907381 
L 101.746503 69.662566 
L 104.968908 70.315406 
L 108.191313 73.334793 
L 111.413717 72.665632 
L 114.636122 75.815587 
L 117.858526 78.182133 
L 121.080931 80.189617 
L 124.303336 82.441917 
L 127.52574 83.61703 
L 130.748145 88.007381 
L 133.970549 91.85914 
L 137.192954 94.258328 
L 140.415359 95.874108 
L 143.637763 96.967616 
L 146.860168 99.432088 
L 150.082572 100.460312 
L 153.304977 103.65923 
L 156.527382 104.883306 
L 159.749786 106.72758 
L 162.972191 108.735064 
L 166.194596 112.015587 
L 169.417 114.512702 
L 172.639405 116.389618 
L 175.861809 117.287273 
L 179.084214 118.625596 
L 182.306619 121.661304 
L 185.529023 123.783035 
L 188.751428 125.855804 
L 191.973832 128.010177 
L 195.196237 129.887093 
L 198.418642 132.971764 
L 201.641046 137.117301 
L 204.863451 144.331187 
L 208.085855 150.84327 
L 211.30826 150.84327 
L 214.530665 150.84327 
L 217.753069 150.84327 
L 220.975474 150.84327 
L 224.197879 150.84327 
L 227.420283 150.84327 
L 230.642688 150.84327 
L 233.865092 150.84327 
L 237.087497 150.84327 
L 240.309902 150.84327 
L 243.532306 150.84327 
" clip-path="url(#pf03e6d8eae)" style="fill: none; stroke: #4c72b0; stroke-width: 1.5; stroke-linecap: square"/>
   </g>
   <g id="line2d_12">
    <path d="M 50.18803 27.146335 
L 53.410434 39.533981 
L 56.632839 45.00152 
L 59.855243 53.064099 
L 63.077648 56.524153 
L 66.300053 65.190609 
L 69.522457 69.695208 
L 72.744862 73.661213 
L 75.967266 74.199807 
L 79.189671 78.13317 
L 82.412076 80.483396 
L 85.63448 83.355893 
L 88.856885 83.682314 
L 92.07929 86.897553 
L 95.301694 87.958418 
L 98.524099 88.921358 
L 101.746503 89.786371 
L 104.968908 90.945163 
L 108.191313 93.360673 
L 111.413717 95.923071 
L 114.636122 97.261394 
L 117.858526 97.881592 
L 121.080931 100.10125 
L 124.303336 102.843179 
L 127.52574 105.389257 
L 130.748145 107.298815 
L 133.970549 109.094126 
L 137.192954 112.097192 
L 140.415359 115.377715 
L 143.637763 116.210087 
L 146.860168 117.760583 
L 150.082572 118.429744 
L 153.304977 119.311079 
L 156.527382 120.355623 
L 159.749786 122.08565 
L 162.972191 123.831998 
L 166.194596 125.186642 
L 169.417 126.133261 
L 172.639405 127.89593 
L 175.861809 128.532449 
L 179.084214 129.283216 
L 182.306619 132.041466 
L 185.529023 133.314505 
L 188.751428 135.321989 
L 191.973832 137.557968 
L 195.196237 139.141106 
L 198.418642 141.197553 
L 201.641046 143.302963 
L 204.863451 145.636868 
L 208.085855 150.84327 
L 211.30826 150.84327 
L 214.530665 150.84327 
L 217.753069 150.84327 
L 220.975474 150.84327 
L 224.197879 150.84327 
L 227.420283 150.84327 
L 230.642688 150.84327 
L 233.865092 150.84327 
L 237.087497 150.84327 
L 240.309902 150.84327 
L 243.532306 150.84327 
" clip-path="url(#pf03e6d8eae)" style="fill: none; stroke: #dd8452; stroke-width: 1.5; stroke-linecap: square"/>
   </g>
   <g id="line2d_13">
    <path d="M 50.18803 33.331998 
L 53.410434 32.842367 
L 56.632839 36.808373 
L 59.855243 37.787633 
L 63.077648 39.174919 
L 66.300053 43.810086 
L 69.522457 45.866533 
L 72.744862 47.792413 
L 75.967266 53.145704 
L 79.189671 56.328301 
L 82.412076 57.323882 
L 85.63448 60.539121 
L 88.856885 62.628211 
L 92.07929 64.586732 
L 95.301694 64.7173 
L 98.524099 67.214414 
L 101.746503 68.536416 
L 104.968908 69.580961 
L 108.191313 72.339212 
L 111.413717 77.007021 
L 114.636122 79.846876 
L 117.858526 78.639122 
L 121.080931 78.851295 
L 124.303336 81.625866 
L 127.52574 83.094757 
L 130.748145 84.041376 
L 133.970549 86.21207 
L 137.192954 87.876813 
L 140.415359 89.329383 
L 143.637763 92.887363 
L 146.860168 94.633711 
L 150.082572 95.25391 
L 153.304977 100.280781 
L 156.527382 102.190339 
L 159.749786 106.368518 
L 162.972191 108.082224 
L 166.194596 109.32262 
L 169.417 111.052647 
L 172.639405 113.158058 
L 175.861809 114.904406 
L 179.084214 116.765001 
L 182.306619 118.870411 
L 185.529023 120.731006 
L 188.751428 123.130195 
L 191.973832 125.610988 
L 195.196237 128.956796 
L 198.418642 131.747688 
L 201.641046 134.701791 
L 204.863451 141.63822 
L 208.085855 150.84327 
L 211.30826 150.84327 
L 214.530665 150.84327 
L 217.753069 150.84327 
L 220.975474 150.84327 
L 224.197879 150.84327 
L 227.420283 150.84327 
L 230.642688 150.84327 
L 233.865092 150.84327 
L 237.087497 150.84327 
L 240.309902 150.84327 
L 243.532306 150.84327 
" clip-path="url(#pf03e6d8eae)" style="fill: none; stroke: #55a868; stroke-width: 1.5; stroke-linecap: square"/>
   </g>
   <g id="line2d_14"/>
   <g id="line2d_15"/>
   <g id="line2d_16"/>
   <g id="line2d_17">
    <path d="M 208.085855 150.84327 
L 208.085855 7.2 
" clip-path="url(#pf03e6d8eae)" style="fill: none; stroke-dasharray: 5.55,2.4; stroke-dashoffset: 0; stroke: #808080; stroke-width: 1.5"/>
   </g>
   <g id="patch_3">
    <path d="M 46.965625 150.84327 
L 46.965625 7.2 
" style="fill: none; stroke: #000000; stroke-width: 0.8; stroke-linejoin: miter; stroke-linecap: square"/>
   </g>
   <g id="patch_4">
    <path d="M 253.19952 150.84327 
L 253.19952 7.2 
" style="fill: none; stroke: #000000; stroke-width: 0.8; stroke-linejoin: miter; stroke-linecap: square"/>
   </g>
   <g id="patch_5">
    <path d="M 46.965625 150.84327 
L 253.19952 150.84327 
" style="fill: none; stroke: #000000; stroke-width: 0.8; stroke-linejoin: miter; stroke-linecap: square"/>
   </g>
   <g id="patch_6">
    <path d="M 46.965625 7.2 
L 253.19952 7.2 
" style="fill: none; stroke: #000000; stroke-width: 0.8; stroke-linejoin: miter; stroke-linecap: square"/>
   </g>
   <g id="legend_1">
    <g id="patch_7">
     <path d="M 97.754207 59.234375 
L 246.19952 59.234375 
Q 248.19952 59.234375 248.19952 57.234375 
L 248.19952 14.2 
Q 248.19952 12.2 246.19952 12.2 
L 97.754207 12.2 
Q 95.754207 12.2 95.754207 14.2 
L 95.754207 57.234375 
Q 95.754207 59.234375 97.754207 59.234375 
z
" style="fill: #ffffff; opacity: 0.8; stroke: #cccccc; stroke-linejoin: miter"/>
    </g>
    <g id="line2d_18">
     <path d="M 99.754207 20.298438 
L 109.754207 20.298438 
L 119.754207 20.298438 
" style="fill: none; stroke: #4c72b0; stroke-width: 1.5; stroke-linecap: square"/>
    </g>
    <g id="text_13">
     <!-- Random -->
     <g transform="translate(127.754207 23.798438) scale(0.1 -0.1)">
      <defs>
       <path id="DejaVuSans-52" d="M 2841 2188 
Q 3044 2119 3236 1894 
Q 3428 1669 3622 1275 
L 4263 0 
L 3584 0 
L 2988 1197 
Q 2756 1666 2539 1819 
Q 2322 1972 1947 1972 
L 1259 1972 
L 1259 0 
L 628 0 
L 628 4666 
L 2053 4666 
Q 2853 4666 3247 4331 
Q 3641 3997 3641 3322 
Q 3641 2881 3436 2590 
Q 3231 2300 2841 2188 
z
M 1259 4147 
L 1259 2491 
L 2053 2491 
Q 2509 2491 2742 2702 
Q 2975 2913 2975 3322 
Q 2975 3731 2742 3939 
Q 2509 4147 2053 4147 
L 1259 4147 
z
" transform="scale(0.015625)"/>
       <path id="DejaVuSans-64" d="M 2906 2969 
L 2906 4863 
L 3481 4863 
L 3481 0 
L 2906 0 
L 2906 525 
Q 2725 213 2448 61 
Q 2172 -91 1784 -91 
Q 1150 -91 751 415 
Q 353 922 353 1747 
Q 353 2572 751 3078 
Q 1150 3584 1784 3584 
Q 2172 3584 2448 3432 
Q 2725 3281 2906 2969 
z
M 947 1747 
Q 947 1113 1208 752 
Q 1469 391 1925 391 
Q 2381 391 2643 752 
Q 2906 1113 2906 1747 
Q 2906 2381 2643 2742 
Q 2381 3103 1925 3103 
Q 1469 3103 1208 2742 
Q 947 2381 947 1747 
z
" transform="scale(0.015625)"/>
      </defs>
      <use xlink:href="#DejaVuSans-52"/>
      <use xlink:href="#DejaVuSans-61" x="67.232422"/>
      <use xlink:href="#DejaVuSans-6e" x="128.511719"/>
      <use xlink:href="#DejaVuSans-64" x="191.890625"/>
      <use xlink:href="#DejaVuSans-6f" x="255.367188"/>
      <use xlink:href="#DejaVuSans-6d" x="316.548828"/>
     </g>
    </g>
    <g id="line2d_19">
     <path d="M 99.754207 34.976563 
L 109.754207 34.976563 
L 119.754207 34.976563 
" style="fill: none; stroke: #dd8452; stroke-width: 1.5; stroke-linecap: square"/>
    </g>
    <g id="text_14">
     <!-- Classification-optimal -->
     <g transform="translate(127.754207 38.476563) scale(0.1 -0.1)">
      <defs>
       <path id="DejaVuSans-2d" d="M 313 2009 
L 1997 2009 
L 1997 1497 
L 313 1497 
L 313 2009 
z
" transform="scale(0.015625)"/>
      </defs>
      <use xlink:href="#DejaVuSans-43"/>
      <use xlink:href="#DejaVuSans-6c" x="69.824219"/>
      <use xlink:href="#DejaVuSans-61" x="97.607422"/>
      <use xlink:href="#DejaVuSans-73" x="158.886719"/>
      <use xlink:href="#DejaVuSans-73" x="210.986328"/>
      <use xlink:href="#DejaVuSans-69" x="263.085938"/>
      <use xlink:href="#DejaVuSans-66" x="290.869141"/>
      <use xlink:href="#DejaVuSans-69" x="326.074219"/>
      <use xlink:href="#DejaVuSans-63" x="353.857422"/>
      <use xlink:href="#DejaVuSans-61" x="408.837891"/>
      <use xlink:href="#DejaVuSans-74" x="470.117188"/>
      <use xlink:href="#DejaVuSans-69" x="509.326172"/>
      <use xlink:href="#DejaVuSans-6f" x="537.109375"/>
      <use xlink:href="#DejaVuSans-6e" x="598.291016"/>
      <use xlink:href="#DejaVuSans-2d" x="661.669922"/>
      <use xlink:href="#DejaVuSans-6f" x="699.628906"/>
      <use xlink:href="#DejaVuSans-70" x="760.810547"/>
      <use xlink:href="#DejaVuSans-74" x="824.287109"/>
      <use xlink:href="#DejaVuSans-69" x="863.496094"/>
      <use xlink:href="#DejaVuSans-6d" x="891.279297"/>
      <use xlink:href="#DejaVuSans-61" x="988.691406"/>
      <use xlink:href="#DejaVuSans-6c" x="1049.970703"/>
     </g>
    </g>
    <g id="line2d_20">
     <path d="M 99.754207 49.654688 
L 109.754207 49.654688 
L 119.754207 49.654688 
" style="fill: none; stroke: #55a868; stroke-width: 1.5; stroke-linecap: square"/>
    </g>
    <g id="text_15">
     <!-- Reconstruction-optimal -->
     <g transform="translate(127.754207 53.154688) scale(0.1 -0.1)">
      <defs>
       <path id="DejaVuSans-75" d="M 544 1381 
L 544 3500 
L 1119 3500 
L 1119 1403 
Q 1119 906 1312 657 
Q 1506 409 1894 409 
Q 2359 409 2629 706 
Q 2900 1003 2900 1516 
L 2900 3500 
L 3475 3500 
L 3475 0 
L 2900 0 
L 2900 538 
Q 2691 219 2414 64 
Q 2138 -91 1772 -91 
Q 1169 -91 856 284 
Q 544 659 544 1381 
z
M 1991 3584 
L 1991 3584 
z
" transform="scale(0.015625)"/>
      </defs>
      <use xlink:href="#DejaVuSans-52"/>
      <use xlink:href="#DejaVuSans-65" x="64.982422"/>
      <use xlink:href="#DejaVuSans-63" x="126.505859"/>
      <use xlink:href="#DejaVuSans-6f" x="181.486328"/>
      <use xlink:href="#DejaVuSans-6e" x="242.667969"/>
      <use xlink:href="#DejaVuSans-73" x="306.046875"/>
      <use xlink:href="#DejaVuSans-74" x="358.146484"/>
      <use xlink:href="#DejaVuSans-72" x="397.355469"/>
      <use xlink:href="#DejaVuSans-75" x="438.46875"/>
      <use xlink:href="#DejaVuSans-63" x="501.847656"/>
      <use xlink:href="#DejaVuSans-74" x="556.828125"/>
      <use xlink:href="#DejaVuSans-69" x="596.037109"/>
      <use xlink:href="#DejaVuSans-6f" x="623.820312"/>
      <use xlink:href="#DejaVuSans-6e" x="685.001953"/>
      <use xlink:href="#DejaVuSans-2d" x="748.380859"/>
      <use xlink:href="#DejaVuSans-6f" x="786.339844"/>
      <use xlink:href="#DejaVuSans-70" x="847.521484"/>
      <use xlink:href="#DejaVuSans-74" x="910.998047"/>
      <use xlink:href="#DejaVuSans-69" x="950.207031"/>
      <use xlink:href="#DejaVuSans-6d" x="977.990234"/>
      <use xlink:href="#DejaVuSans-61" x="1075.402344"/>
      <use xlink:href="#DejaVuSans-6c" x="1136.681641"/>
     </g>
    </g>
   </g>
  </g>
 </g>
 <defs>
  <clipPath id="pf03e6d8eae">
   <rect x="46.965625" y="7.2" width="206.233895" height="143.64327"/>
  </clipPath>
 </defs>
</svg>
